<svg xmlns="http://www.w3.org/2000/svg" xmlns:xlink="http://www.w3.org/1999/xlink" contentStyleType="text/css" height="822px" preserveAspectRatio="none" style="width:808px;height:822px;background:#FFFFFF;" version="1.1" viewBox="0 0 808 822" width="808px" zoomAndPan="magnify"><defs/><g><ellipse cx="286" cy="16" fill="#222222" rx="10" ry="10" style="stroke:#222222;stroke-width:1.0;"/><g id="ComprarBonos"><rect fill="#F1F1F1" height="50" rx="12.5" ry="12.5" style="stroke:#181818;stroke-width:0.5;" width="124" x="224" y="87"/><line style="stroke:#181818;stroke-width:0.5;" x1="224" x2="348" y1="113.2969" y2="113.2969"/><text fill="#000000" font-family="sans-serif" font-size="14" lengthAdjust="spacing" textLength="104" x="234" y="104.9951">ComprarBonos</text></g><g id="elem_GMN5"><path d="M383,91.87 L383,108 L348.23,112 L383,116 L383,132.1356 A0,0 0 0 0 383,132.1356 L611,132.1356 A0,0 0 0 0 611,132.1356 L611,101.87 L601,91.87 L383,91.87 A0,0 0 0 0 383,91.87 " fill="#FEFFDD" style="stroke:#181818;stroke-width:0.5;"/><path d="M601,91.87 L601,101.87 L611,101.87 L601,91.87 " fill="#FEFFDD" style="stroke:#181818;stroke-width:0.5;"/><text fill="#000000" font-family="sans-serif" font-size="13" lengthAdjust="spacing" textLength="185" x="389" y="108.9369">El usuario accede a la opci&#243;n</text><text fill="#000000" font-family="sans-serif" font-size="13" lengthAdjust="spacing" textLength="207" x="389" y="124.0697">de comprar bonos en el sistema</text></g><g id="SeleccionarCantidad"><rect fill="#F1F1F1" height="50" rx="12.5" ry="12.5" style="stroke:#181818;stroke-width:0.5;" width="161" x="205.5" y="198"/><line style="stroke:#181818;stroke-width:0.5;" x1="205.5" x2="366.5" y1="224.2969" y2="224.2969"/><text fill="#000000" font-family="sans-serif" font-size="14" lengthAdjust="spacing" textLength="141" x="215.5" y="215.9951">SeleccionarCantidad</text></g><g id="elem_GMN10"><path d="M401.5,202.87 L401.5,219 L366.78,223 L401.5,227 L401.5,243.1356 A0,0 0 0 0 401.5,243.1356 L610.5,243.1356 A0,0 0 0 0 610.5,243.1356 L610.5,212.87 L600.5,202.87 L401.5,202.87 A0,0 0 0 0 401.5,202.87 " fill="#FEFFDD" style="stroke:#181818;stroke-width:0.5;"/><path d="M600.5,202.87 L600.5,212.87 L610.5,212.87 L600.5,202.87 " fill="#FEFFDD" style="stroke:#181818;stroke-width:0.5;"/><text fill="#000000" font-family="sans-serif" font-size="13" lengthAdjust="spacing" textLength="170" x="407.5" y="219.9369">El usuario elige la cantidad</text><text fill="#000000" font-family="sans-serif" font-size="13" lengthAdjust="spacing" textLength="188" x="407.5" y="235.0697">de bonos que desea comprar</text></g><g id="RealizarPago"><rect fill="#F1F1F1" height="50" rx="12.5" ry="12.5" style="stroke:#181818;stroke-width:0.5;" width="109" x="231.5" y="309"/><line style="stroke:#181818;stroke-width:0.5;" x1="231.5" x2="340.5" y1="335.2969" y2="335.2969"/><text fill="#000000" font-family="sans-serif" font-size="14" lengthAdjust="spacing" textLength="89" x="241.5" y="326.9951">RealizarPago</text></g><g id="elem_GMN15"><path d="M375.5,313.87 L375.5,330 L340.71,334 L375.5,338 L375.5,354.1356 A0,0 0 0 0 375.5,354.1356 L572.5,354.1356 A0,0 0 0 0 572.5,354.1356 L572.5,323.87 L562.5,313.87 L375.5,313.87 A0,0 0 0 0 375.5,313.87 " fill="#FEFFDD" style="stroke:#181818;stroke-width:0.5;"/><path d="M562.5,313.87 L562.5,323.87 L572.5,323.87 L562.5,313.87 " fill="#FEFFDD" style="stroke:#181818;stroke-width:0.5;"/><text fill="#000000" font-family="sans-serif" font-size="13" lengthAdjust="spacing" textLength="172" x="381.5" y="330.9369">El sistema procesa el pago</text><text fill="#000000" font-family="sans-serif" font-size="13" lengthAdjust="spacing" textLength="175" x="381.5" y="346.0697">de los bonos seleccionados</text></g><g id="ConfirmarCompra"><rect fill="#F1F1F1" height="50" rx="12.5" ry="12.5" style="stroke:#181818;stroke-width:0.5;" width="140" x="7" y="446.27"/><line style="stroke:#181818;stroke-width:0.5;" x1="7" x2="147" y1="472.5669" y2="472.5669"/><text fill="#000000" font-family="sans-serif" font-size="14" lengthAdjust="spacing" textLength="120" x="17" y="464.2651">ConfirmarCompra</text></g><g id="elem_GMN20"><path d="M182,443.57 L182,467.27 L147.21,471.27 L182,475.27 L182,498.9684 A0,0 0 0 0 182,498.9684 L390,498.9684 A0,0 0 0 0 390,498.9684 L390,453.57 L380,443.57 L182,443.57 A0,0 0 0 0 182,443.57 " fill="#FEFFDD" style="stroke:#181818;stroke-width:0.5;"/><path d="M380,443.57 L380,453.57 L390,453.57 L380,443.57 " fill="#FEFFDD" style="stroke:#181818;stroke-width:0.5;"/><text fill="#000000" font-family="sans-serif" font-size="13" lengthAdjust="spacing" textLength="145" x="188" y="460.6369">Despu&#233;s de verificar el</text><text fill="#000000" font-family="sans-serif" font-size="13" lengthAdjust="spacing" textLength="183" x="188" y="475.7697">pago, se confirma la compra</text><text fill="#000000" font-family="sans-serif" font-size="13" lengthAdjust="spacing" textLength="147" x="188" y="490.9025">de los bonos al usuario</text></g><g id="MostrarConfirmacion"><rect fill="#F1F1F1" height="50" rx="12.5" ry="12.5" style="stroke:#181818;stroke-width:0.5;" width="162" x="43" y="681.23"/><line style="stroke:#181818;stroke-width:0.5;" x1="43" x2="205" y1="707.5269" y2="707.5269"/><text fill="#000000" font-family="sans-serif" font-size="14" lengthAdjust="spacing" textLength="142" x="53" y="699.2251">MostrarConfirmacion</text></g><g id="elem_GMN25"><path d="M240,678.53 L240,702.23 L205.23,706.23 L240,710.23 L240,733.9284 A0,0 0 0 0 240,733.9284 L426,733.9284 A0,0 0 0 0 426,733.9284 L426,688.53 L416,678.53 L240,678.53 A0,0 0 0 0 240,678.53 " fill="#FEFFDD" style="stroke:#181818;stroke-width:0.5;"/><path d="M416,678.53 L416,688.53 L426,688.53 L416,678.53 " fill="#FEFFDD" style="stroke:#181818;stroke-width:0.5;"/><text fill="#000000" font-family="sans-serif" font-size="13" lengthAdjust="spacing" textLength="139" x="246" y="695.5969">El sistema muestra al</text><text fill="#000000" font-family="sans-serif" font-size="13" lengthAdjust="spacing" textLength="161" x="246" y="710.7297">usuario una confirmaci&#243;n</text><text fill="#000000" font-family="sans-serif" font-size="13" lengthAdjust="spacing" textLength="147" x="246" y="725.8625">de la compra de bonos</text></g><g id="NotificarFalloPago"><rect fill="#F1F1F1" height="50" rx="12.5" ry="12.5" style="stroke:#181818;stroke-width:0.5;" width="141" x="424.5" y="446.27"/><line style="stroke:#181818;stroke-width:0.5;" x1="424.5" x2="565.5" y1="472.5669" y2="472.5669"/><text fill="#000000" font-family="sans-serif" font-size="14" lengthAdjust="spacing" textLength="121" x="434.5" y="464.2651">NotificarFalloPago</text></g><g id="elem_GMN30"><path d="M600.5,436 L600.5,467.27 L565.81,471.27 L600.5,475.27 L600.5,506.5312 A0,0 0 0 0 600.5,506.5312 L801.5,506.5312 A0,0 0 0 0 801.5,506.5312 L801.5,446 L791.5,436 L600.5,436 A0,0 0 0 0 600.5,436 " fill="#FEFFDD" style="stroke:#181818;stroke-width:0.5;"/><path d="M791.5,436 L791.5,446 L801.5,446 L791.5,436 " fill="#FEFFDD" style="stroke:#181818;stroke-width:0.5;"/><text fill="#000000" font-family="sans-serif" font-size="13" lengthAdjust="spacing" textLength="144" x="606.5" y="453.0669">El sistema muestra un</text><text fill="#000000" font-family="sans-serif" font-size="13" lengthAdjust="spacing" textLength="176" x="606.5" y="468.1997">mensaje de error al usuario</text><text fill="#000000" font-family="sans-serif" font-size="13" lengthAdjust="spacing" textLength="130" x="606.5" y="483.3325">y le recomienda que</text><text fill="#000000" font-family="sans-serif" font-size="13" lengthAdjust="spacing" textLength="177" x="606.5" y="498.4653">vuelva a intentar m&#225;s tarde</text></g><ellipse cx="309" cy="805.93" fill="none" rx="11" ry="11" style="stroke:#222222;stroke-width:1.0;"/><ellipse cx="309" cy="805.93" fill="#222222" rx="6" ry="6" style="stroke:#222222;stroke-width:1.0;"/><!--link *start* to ComprarBonos--><g id="link_*start*_ComprarBonos"><path d="M286,26.36 C286,40.29 286,60.95 286,80.65 " fill="none" id="*start*-to-ComprarBonos" style="stroke:#181818;stroke-width:1.0;"/><polygon fill="#181818" points="286,86.65,290,77.65,286,81.65,282,77.65,286,86.65" style="stroke:#181818;stroke-width:1.0;"/></g><!--link ComprarBonos to SeleccionarCantidad--><g id="link_ComprarBonos_SeleccionarCantidad"><path d="M286,137.46 C286,155.41 286,173.69 286,191.62 " fill="none" id="ComprarBonos-to-SeleccionarCantidad" style="stroke:#181818;stroke-width:1.0;"/><polygon fill="#181818" points="286,197.62,290,188.62,286,192.62,282,188.62,286,197.62" style="stroke:#181818;stroke-width:1.0;"/></g><!--link SeleccionarCantidad to RealizarPago--><g id="link_SeleccionarCantidad_RealizarPago"><path d="M286,248.46 C286,266.41 286,284.69 286,302.62 " fill="none" id="SeleccionarCantidad-to-RealizarPago" style="stroke:#181818;stroke-width:1.0;"/><polygon fill="#181818" points="286,308.62,290,299.62,286,303.62,282,299.62,286,308.62" style="stroke:#181818;stroke-width:1.0;"/></g><!--link RealizarPago to ConfirmarCompra--><g id="link_RealizarPago_ConfirmarCompra"><path d="M248.15,359.5 C210.27,384.01 157.3768,418.2395 119.6068,442.6895 " fill="none" id="RealizarPago-to-ConfirmarCompra" style="stroke:#181818;stroke-width:1.0;"/><polygon fill="#181818" points="114.57,445.95,124.2988,444.4171,118.7673,443.2329,119.9515,437.7014,114.57,445.95" style="stroke:#181818;stroke-width:1.0;"/><text fill="#000000" font-family="sans-serif" font-size="13" lengthAdjust="spacing" textLength="82" x="202" y="402.0669">Pago exitoso</text></g><!--link ConfirmarCompra to MostrarConfirmacion--><g id="link_ConfirmarCompra_MostrarConfirmacion"><path d="M81.94,496.76 C90.99,541.62 108.9324,630.5687 117.9424,675.1887 " fill="none" id="ConfirmarCompra-to-MostrarConfirmacion" style="stroke:#181818;stroke-width:1.0;"/><polygon fill="#181818" points="119.13,681.07,121.2695,671.4563,118.1403,676.1689,113.4277,673.0398,119.13,681.07" style="stroke:#181818;stroke-width:1.0;"/><path d="M112,572.53 L112,612.53 L278,612.53 L278,582.53 L268,572.53 L112,572.53 " fill="#FEFFDD" style="stroke:#181818;stroke-width:0.5;"/><path d="M268,572.53 L268,582.53 L278,582.53 L268,572.53 " fill="#FEFFDD" style="stroke:#181818;stroke-width:0.5;"/><text fill="#000000" font-family="sans-serif" font-size="13" lengthAdjust="spacing" textLength="138" x="118" y="589.5969">Se a&#241;aden los fondos</text><text fill="#000000" font-family="sans-serif" font-size="13" lengthAdjust="spacing" textLength="145" x="118" y="604.7297">a la cuenta del usuario</text></g><!--link RealizarPago to NotificarFalloPago--><g id="link_RealizarPago_NotificarFalloPago"><path d="M323.85,359.5 C361.73,384.01 414.6232,418.2395 452.3932,442.6895 " fill="none" id="RealizarPago-to-NotificarFalloPago" style="stroke:#181818;stroke-width:1.0;"/><polygon fill="#181818" points="457.43,445.95,452.0485,437.7014,453.2327,443.2329,447.7012,444.4171,457.43,445.95" style="stroke:#181818;stroke-width:1.0;"/><text fill="#000000" font-family="sans-serif" font-size="13" lengthAdjust="spacing" textLength="73" x="392" y="402.0669">Pago fallido</text></g><!--link NotificarFalloPago to *end*--><g id="link_NotificarFalloPago_*end*"><path d="M496.7,496.65 C498.89,546.41 497.2,661.11 443,733.93 C411.09,776.8 351.3616,794.9185 325.5816,801.1585 " fill="none" id="NotificarFalloPago-to-*end*" style="stroke:#181818;stroke-width:1.0;"/><polygon fill="#181818" points="319.75,802.57,329.4384,804.3404,324.6097,801.3937,327.5564,796.565,319.75,802.57" style="stroke:#181818;stroke-width:1.0;"/></g><!--link MostrarConfirmacion to *end*--><g id="link_MostrarConfirmacion_*end*"><path d="M170.21,731.63 C213.87,754.69 270.774,784.7489 294.244,797.1389 " fill="none" id="MostrarConfirmacion-to-*end*" style="stroke:#181818;stroke-width:1.0;"/><polygon fill="#181818" points="299.55,799.94,293.4584,792.201,295.1283,797.6058,289.7236,799.2757,299.55,799.94" style="stroke:#181818;stroke-width:1.0;"/></g><!--SRC=[VP8zKiGm38LxdqBr3di12Wh-EXW6IcOBOIkBmR62VtQ0sr1ICXnXBuOSPvTaoT0bbgttlIVTBrQmN9x06RTTm73AdgFod0Y2NJycu6PQWWi7EMOCbW6r9aE0u12uqtRxxK61dEZw0XxA4o0Fv23QcAX5HTv0wQ_Kk6_FS4UEjBRiCPoXJzQWEK2Pkp4c8cVNL73qKAqybUCba_n4mXtVY6McSOzqI-ZiEuORNFC1owHK80Q7q0NM5B6OxgHM4Pm0L8oubpAIvo_2kDym4j_Oq0fHZml7q9VerIQE_6T8ayiApYbsUViPY_Y6Wcsibea8a-gfZeH3SgYF-iIgo04ixhET36uAjYoqLnnJA4UrLWnMH60FuAn_bf01jrzeP26AGiDU4W1LvJFvX28-8pXrEYSqIh_DLEg5NEtM8dlSUntMrD38z6v5_fl6DQUQuIKwn_tnC9163gmv7CZV-tEKML1QyX6Vocu2XS1X53geDt3Ib0JK2XpsIwmscTn6B8BrgSGMeDr-H90FGoCFCyZ5oVrYfTHCYhlY3m00]--></g></svg>