<?xml version="1.0" encoding="us-ascii" standalone="no"?><svg xmlns="http://www.w3.org/2000/svg" xmlns:xlink="http://www.w3.org/1999/xlink" contentStyleType="text/css" height="775px" preserveAspectRatio="none" style="width:677px;height:775px;background:#FFFFFF;" version="1.1" viewBox="0 0 677 775" width="677px" zoomAndPan="magnify"><defs/><g><ellipse cx="263" cy="16" fill="#222222" rx="10" ry="10" style="stroke:#222222;stroke-width:1.0;"/><g id="ComprarBonos"><rect fill="#F1F1F1" height="50" rx="12.5" ry="12.5" style="stroke:#181818;stroke-width:0.5;" width="124" x="201" y="87"/><line style="stroke:#181818;stroke-width:0.5;" x1="201" x2="325" y1="113.2969" y2="113.2969"/><text fill="#000000" font-family="sans-serif" font-size="14" lengthAdjust="spacing" textLength="104" x="211" y="104.9951">ComprarBonos</text></g><g id="elem_GMN5"><path d="M360,91.87 L360,108 L325.23,112 L360,116 L360,132.1356 A0,0 0 0 0 360,132.1356 L588,132.1356 A0,0 0 0 0 588,132.1356 L588,101.87 L578,91.87 L360,91.87 A0,0 0 0 0 360,91.87 " fill="#FEFFDD" style="stroke:#181818;stroke-width:0.5;"/><path d="M578,91.87 L578,101.87 L588,101.87 L578,91.87 " fill="#FEFFDD" style="stroke:#181818;stroke-width:0.5;"/><text fill="#000000" font-family="sans-serif" font-size="13" lengthAdjust="spacing" textLength="185" x="366" y="108.9369">El usuario accede a la opci&#243;n</text><text fill="#000000" font-family="sans-serif" font-size="13" lengthAdjust="spacing" textLength="207" x="366" y="124.0697">de comprar bonos en el sistema</text></g><g id="SeleccionarCantidad"><rect fill="#F1F1F1" height="50" rx="12.5" ry="12.5" style="stroke:#181818;stroke-width:0.5;" width="161" x="182.5" y="198"/><line style="stroke:#181818;stroke-width:0.5;" x1="182.5" x2="343.5" y1="224.2969" y2="224.2969"/><text fill="#000000" font-family="sans-serif" font-size="14" lengthAdjust="spacing" textLength="141" x="192.5" y="215.9951">SeleccionarCantidad</text></g><g id="elem_GMN10"><path d="M378.5,202.87 L378.5,219 L343.78,223 L378.5,227 L378.5,243.1356 A0,0 0 0 0 378.5,243.1356 L587.5,243.1356 A0,0 0 0 0 587.5,243.1356 L587.5,212.87 L577.5,202.87 L378.5,202.87 A0,0 0 0 0 378.5,202.87 " fill="#FEFFDD" style="stroke:#181818;stroke-width:0.5;"/><path d="M577.5,202.87 L577.5,212.87 L587.5,212.87 L577.5,202.87 " fill="#FEFFDD" style="stroke:#181818;stroke-width:0.5;"/><text fill="#000000" font-family="sans-serif" font-size="13" lengthAdjust="spacing" textLength="170" x="384.5" y="219.9369">El usuario elige la cantidad</text><text fill="#000000" font-family="sans-serif" font-size="13" lengthAdjust="spacing" textLength="188" x="384.5" y="235.0697">de bonos que desea comprar</text></g><g id="RealizarPago"><rect fill="#F1F1F1" height="50" rx="12.5" ry="12.5" style="stroke:#181818;stroke-width:0.5;" width="109" x="208.5" y="309"/><line style="stroke:#181818;stroke-width:0.5;" x1="208.5" x2="317.5" y1="335.2969" y2="335.2969"/><text fill="#000000" font-family="sans-serif" font-size="14" lengthAdjust="spacing" textLength="89" x="218.5" y="326.9951">RealizarPago</text></g><g id="elem_GMN15"><path d="M352.5,313.87 L352.5,330 L317.71,334 L352.5,338 L352.5,354.1356 A0,0 0 0 0 352.5,354.1356 L549.5,354.1356 A0,0 0 0 0 549.5,354.1356 L549.5,323.87 L539.5,313.87 L352.5,313.87 A0,0 0 0 0 352.5,313.87 " fill="#FEFFDD" style="stroke:#181818;stroke-width:0.5;"/><path d="M539.5,313.87 L539.5,323.87 L549.5,323.87 L539.5,313.87 " fill="#FEFFDD" style="stroke:#181818;stroke-width:0.5;"/><text fill="#000000" font-family="sans-serif" font-size="13" lengthAdjust="spacing" textLength="172" x="358.5" y="330.9369">El sistema procesa el pago</text><text fill="#000000" font-family="sans-serif" font-size="13" lengthAdjust="spacing" textLength="175" x="358.5" y="346.0697">de los bonos seleccionados</text></g><g id="ConfirmarCompra"><rect fill="#F1F1F1" height="50" rx="12.5" ry="12.5" style="stroke:#181818;stroke-width:0.5;" width="140" x="10" y="438.7"/><line style="stroke:#181818;stroke-width:0.5;" x1="10" x2="150" y1="464.9969" y2="464.9969"/><text fill="#000000" font-family="sans-serif" font-size="14" lengthAdjust="spacing" textLength="120" x="20" y="456.6951">ConfirmarCompra</text></g><g id="elem_GMN20"><path d="M185,436 L185,459.7 L150.21,463.7 L185,467.7 L185,491.3984 A0,0 0 0 0 185,491.3984 L393,491.3984 A0,0 0 0 0 393,491.3984 L393,446 L383,436 L185,436 A0,0 0 0 0 185,436 " fill="#FEFFDD" style="stroke:#181818;stroke-width:0.5;"/><path d="M383,436 L383,446 L393,446 L383,436 " fill="#FEFFDD" style="stroke:#181818;stroke-width:0.5;"/><text fill="#000000" font-family="sans-serif" font-size="13" lengthAdjust="spacing" textLength="145" x="191" y="453.0669">Despu&#233;s de verificar el</text><text fill="#000000" font-family="sans-serif" font-size="13" lengthAdjust="spacing" textLength="183" x="191" y="468.1997">pago, se confirma la compra</text><text fill="#000000" font-family="sans-serif" font-size="13" lengthAdjust="spacing" textLength="147" x="191" y="483.3325">de los bonos al usuario</text></g><ellipse cx="268" cy="758.8" fill="none" rx="11" ry="11" style="stroke:#222222;stroke-width:1.0;"/><ellipse cx="268" cy="758.8" fill="#222222" rx="6" ry="6" style="stroke:#222222;stroke-width:1.0;"/><g id="MostrarConfirmacion"><rect fill="#F1F1F1" height="50" rx="12.5" ry="12.5" style="stroke:#181818;stroke-width:0.5;" width="162" x="7" y="634.1"/><line style="stroke:#181818;stroke-width:0.5;" x1="7" x2="169" y1="660.3969" y2="660.3969"/><text fill="#000000" font-family="sans-serif" font-size="14" lengthAdjust="spacing" textLength="142" x="17" y="652.0951">MostrarConfirmacion</text></g><g id="elem_GMN27"><path d="M204,631.4 L204,655.1 L169.23,659.1 L204,663.1 L204,686.7984 A0,0 0 0 0 204,686.7984 L390,686.7984 A0,0 0 0 0 390,686.7984 L390,641.4 L380,631.4 L204,631.4 A0,0 0 0 0 204,631.4 " fill="#FEFFDD" style="stroke:#181818;stroke-width:0.5;"/><path d="M380,631.4 L380,641.4 L390,641.4 L380,631.4 " fill="#FEFFDD" style="stroke:#181818;stroke-width:0.5;"/><text fill="#000000" font-family="sans-serif" font-size="13" lengthAdjust="spacing" textLength="139" x="210" y="648.4669">El sistema muestra al</text><text fill="#000000" font-family="sans-serif" font-size="13" lengthAdjust="spacing" textLength="161" x="210" y="663.5997">usuario una confirmaci&#243;n</text><text fill="#000000" font-family="sans-serif" font-size="13" lengthAdjust="spacing" textLength="147" x="210" y="678.7325">de la compra de bonos</text></g><!--link *start* to ComprarBonos--><g id="link_*start*_ComprarBonos"><path d="M263,26.36 C263,40.29 263,60.96 263,80.65 " fill="none" id="*start*-to-ComprarBonos" style="stroke:#181818;stroke-width:1.0;"/><polygon fill="#181818" points="263,86.65,267,77.65,263,81.65,259,77.65,263,86.65" style="stroke:#181818;stroke-width:1.0;"/></g><!--link ComprarBonos to SeleccionarCantidad--><g id="link_ComprarBonos_SeleccionarCantidad"><path d="M263,137.46 C263,155.42 263,173.69 263,191.62 " fill="none" id="ComprarBonos-to-SeleccionarCantidad" style="stroke:#181818;stroke-width:1.0;"/><polygon fill="#181818" points="263,197.62,267,188.62,263,192.62,259,188.62,263,197.62" style="stroke:#181818;stroke-width:1.0;"/></g><!--link SeleccionarCantidad to RealizarPago--><g id="link_SeleccionarCantidad_RealizarPago"><path d="M263,248.46 C263,266.42 263,284.69 263,302.62 " fill="none" id="SeleccionarCantidad-to-RealizarPago" style="stroke:#181818;stroke-width:1.0;"/><polygon fill="#181818" points="263,308.62,267,299.62,263,303.62,259,299.62,263,308.62" style="stroke:#181818;stroke-width:1.0;"/></g><!--link RealizarPago to ConfirmarCompra--><g id="link_RealizarPago_ConfirmarCompra"><path d="M228.15,359.32 C195.69,381.97 152.4706,412.1367 119.9506,434.8267 " fill="none" id="RealizarPago-to-ConfirmarCompra" style="stroke:#181818;stroke-width:1.0;"/><polygon fill="#181818" points="115.03,438.26,124.6998,436.3905,119.1305,435.399,120.1221,429.8297,115.03,438.26" style="stroke:#181818;stroke-width:1.0;"/><text fill="#000000" font-family="sans-serif" font-size="13" lengthAdjust="spacing" textLength="82" x="184" y="402.0669">Pago exitoso</text></g><!--link RealizarPago to *end*--><g id="link_RealizarPago_*end*"><path d="M317.79,356.48 C351.3,372.81 391.39,398.87 411,436 C434.65,480.78 484.6,562.89 407,686.8 C377.52,733.88 312.0225,750.0125 284.7425,754.9925 " fill="none" id="RealizarPago-to-*end*" style="stroke:#181818;stroke-width:1.0;"/><polygon fill="#181818" points="278.84,756.07,288.412,758.3887,283.7587,755.1721,286.9754,750.5188,278.84,756.07" style="stroke:#181818;stroke-width:1.0;"/><path d="M453,526.4 L453,596.4 L670,596.4 L670,536.4 L660,526.4 L453,526.4 " fill="#FEFFDD" style="stroke:#181818;stroke-width:0.5;"/><path d="M660,526.4 L660,536.4 L670,536.4 L660,526.4 " fill="#FEFFDD" style="stroke:#181818;stroke-width:0.5;"/><text fill="#000000" font-family="sans-serif" font-size="13" font-weight="bold" lengthAdjust="spacing" textLength="97" x="459" y="543.4669">Pago Fallido:</text><text fill="#000000" font-family="sans-serif" font-size="13" lengthAdjust="spacing" textLength="196" x="459" y="558.5997">Se muestra un error al usuario</text><text fill="#000000" font-family="sans-serif" font-size="13" lengthAdjust="spacing" textLength="194" x="459" y="573.7325">y se le recomienda que vuelva</text><text fill="#000000" font-family="sans-serif" font-size="13" lengthAdjust="spacing" textLength="132" x="459" y="588.8653">a intentar m&#225;s tarde</text></g><!--link ConfirmarCompra to MostrarConfirmacion--><g id="link_ConfirmarCompra_MostrarConfirmacion"><path d="M81.01,489.2 C82.55,526.4 85.2111,590.7252 86.7511,627.8152 " fill="none" id="ConfirmarCompra-to-MostrarConfirmacion" style="stroke:#181818;stroke-width:1.0;"/><polygon fill="#181818" points="87,633.81,90.6232,624.6518,86.7926,628.8143,82.6301,624.9837,87,633.81" style="stroke:#181818;stroke-width:1.0;"/><path d="M91,541.4 L91,581.4 L257,581.4 L257,551.4 L247,541.4 L91,541.4 " fill="#FEFFDD" style="stroke:#181818;stroke-width:0.5;"/><path d="M247,541.4 L247,551.4 L257,551.4 L247,541.4 " fill="#FEFFDD" style="stroke:#181818;stroke-width:0.5;"/><text fill="#000000" font-family="sans-serif" font-size="13" lengthAdjust="spacing" textLength="138" x="97" y="558.4669">Se a&#241;aden los fondos</text><text fill="#000000" font-family="sans-serif" font-size="13" lengthAdjust="spacing" textLength="145" x="97" y="573.5997">a la cuenta del usuario</text></g><!--link MostrarConfirmacion to *end*--><g id="link_MostrarConfirmacion_*end*"><path d="M132.96,684.5 C175.23,707.45 230.1074,737.2265 253.1974,749.7665 " fill="none" id="MostrarConfirmacion-to-*end*" style="stroke:#181818;stroke-width:1.0;"/><polygon fill="#181818" points="258.47,752.63,252.4701,744.8197,254.0762,750.2437,248.6521,751.8498,258.47,752.63" style="stroke:#181818;stroke-width:1.0;"/></g><!--SRC=[VPCnKiGm34Lxdq9rXhq01GKBTCmmKEvi8MnbyU1OmOvtWDjGKZ8S8HT3ZZTBicJeaiZMV_zBsLHRMAqkOCrD6p1SikUeF7S4mUwUEk1wNe9h1oac39O1jIP3WE0GkDMs__QWGBxeSWCUynKW3-GWsjXHWugyWTnVgMdVWU6176bjsMDOe- -iGNE2idHYIaJExYZZw4Ery1IEbqJo4Wb7lWdBGkC1wPxGsNSCTxZZ4vPPAKCS748RM5F4RBgLMa5m0b0mub7AI9w_2DD-Xv7useP6Y0PSE8UXHA-suyX_XZGxhE2AOflwpvZ5znHiRRLCH9ZKG7Kc7993kJGaLaHEOF6OxN-acsfRSDY3i_vPLTLGkq7dhE7pgfA0eKaKEv58iWyXS9WsVyiuJloGS5YHmc5S-qHkZmh1-evy9mQQ_YE2F1YQRT8ygSnqoraiZAKSU67Ca8LIcB3_GYCBcXtNx6KYe4eSAUj960i1p9DV4ffim-XQpAfnJPF7O_Q7tyRGP0ZZoauiBgYCqVy0]--></g></svg>