<?xml version="1.0" encoding="us-ascii" standalone="no"?><svg xmlns="http://www.w3.org/2000/svg" xmlns:xlink="http://www.w3.org/1999/xlink" contentStyleType="text/css" height="837px" preserveAspectRatio="none" style="width:675px;height:837px;background:#FFFFFF;" version="1.1" viewBox="0 0 675 837" width="675px" zoomAndPan="magnify"><defs/><g><ellipse cx="263" cy="16" fill="#222222" rx="10" ry="10" style="stroke:#222222;stroke-width:1.0;"/><g id="ComprarBonos"><rect fill="#F1F1F1" height="50" rx="12.5" ry="12.5" style="stroke:#181818;stroke-width:0.5;" width="124" x="201" y="87"/><line style="stroke:#181818;stroke-width:0.5;" x1="201" x2="325" y1="113.2969" y2="113.2969"/><text fill="#000000" font-family="sans-serif" font-size="14" lengthAdjust="spacing" textLength="104" x="211" y="104.9951">ComprarBonos</text></g><g id="elem_GMN5"><path d="M360,91.87 L360,108 L325.23,112 L360,116 L360,132.1356 A0,0 0 0 0 360,132.1356 L588,132.1356 A0,0 0 0 0 588,132.1356 L588,101.87 L578,91.87 L360,91.87 A0,0 0 0 0 360,91.87 " fill="#FEFFDD" style="stroke:#181818;stroke-width:0.5;"/><path d="M578,91.87 L578,101.87 L588,101.87 L578,91.87 " fill="#FEFFDD" style="stroke:#181818;stroke-width:0.5;"/><text fill="#000000" font-family="sans-serif" font-size="13" lengthAdjust="spacing" textLength="185" x="366" y="108.9369">El usuario accede a la opci&#243;n</text><text fill="#000000" font-family="sans-serif" font-size="13" lengthAdjust="spacing" textLength="207" x="366" y="124.0697">de comprar bonos en el sistema</text></g><g id="SeleccionarCantidad"><rect fill="#F1F1F1" height="50" rx="12.5" ry="12.5" style="stroke:#181818;stroke-width:0.5;" width="161" x="182.5" y="198"/><line style="stroke:#181818;stroke-width:0.5;" x1="182.5" x2="343.5" y1="224.2969" y2="224.2969"/><text fill="#000000" font-family="sans-serif" font-size="14" lengthAdjust="spacing" textLength="141" x="192.5" y="215.9951">SeleccionarCantidad</text></g><g id="elem_GMN10"><path d="M378.5,202.87 L378.5,219 L343.78,223 L378.5,227 L378.5,243.1356 A0,0 0 0 0 378.5,243.1356 L587.5,243.1356 A0,0 0 0 0 587.5,243.1356 L587.5,212.87 L577.5,202.87 L378.5,202.87 A0,0 0 0 0 378.5,202.87 " fill="#FEFFDD" style="stroke:#181818;stroke-width:0.5;"/><path d="M577.5,202.87 L577.5,212.87 L587.5,212.87 L577.5,202.87 " fill="#FEFFDD" style="stroke:#181818;stroke-width:0.5;"/><text fill="#000000" font-family="sans-serif" font-size="13" lengthAdjust="spacing" textLength="170" x="384.5" y="219.9369">El usuario elige la cantidad</text><text fill="#000000" font-family="sans-serif" font-size="13" lengthAdjust="spacing" textLength="188" x="384.5" y="235.0697">de bonos que desea comprar</text></g><g id="RealizarPago"><rect fill="#F1F1F1" height="50" rx="12.5" ry="12.5" style="stroke:#181818;stroke-width:0.5;" width="109" x="208.5" y="309"/><line style="stroke:#181818;stroke-width:0.5;" x1="208.5" x2="317.5" y1="335.2969" y2="335.2969"/><text fill="#000000" font-family="sans-serif" font-size="14" lengthAdjust="spacing" textLength="89" x="218.5" y="326.9951">RealizarPago</text></g><g id="elem_GMN15"><path d="M352.5,313.87 L352.5,330 L317.71,334 L352.5,338 L352.5,354.1356 A0,0 0 0 0 352.5,354.1356 L549.5,354.1356 A0,0 0 0 0 549.5,354.1356 L549.5,323.87 L539.5,313.87 L352.5,313.87 A0,0 0 0 0 352.5,313.87 " fill="#FEFFDD" style="stroke:#181818;stroke-width:0.5;"/><path d="M539.5,313.87 L539.5,323.87 L549.5,323.87 L539.5,313.87 " fill="#FEFFDD" style="stroke:#181818;stroke-width:0.5;"/><text fill="#000000" font-family="sans-serif" font-size="13" lengthAdjust="spacing" textLength="172" x="358.5" y="330.9369">El sistema procesa el pago</text><text fill="#000000" font-family="sans-serif" font-size="13" lengthAdjust="spacing" textLength="175" x="358.5" y="346.0697">de los bonos seleccionados</text></g><g id="ConfirmarCompra"><rect fill="#F1F1F1" height="50" rx="12.5" ry="12.5" style="stroke:#181818;stroke-width:0.5;" width="140" x="10" y="438.7"/><line style="stroke:#181818;stroke-width:0.5;" x1="10" x2="150" y1="464.9969" y2="464.9969"/><text fill="#000000" font-family="sans-serif" font-size="14" lengthAdjust="spacing" textLength="120" x="20" y="456.6951">ConfirmarCompra</text></g><g id="elem_GMN20"><path d="M185,436 L185,459.7 L150.21,463.7 L185,467.7 L185,491.3984 A0,0 0 0 0 185,491.3984 L393,491.3984 A0,0 0 0 0 393,491.3984 L393,446 L383,436 L185,436 A0,0 0 0 0 185,436 " fill="#FEFFDD" style="stroke:#181818;stroke-width:0.5;"/><path d="M383,436 L383,446 L393,446 L383,436 " fill="#FEFFDD" style="stroke:#181818;stroke-width:0.5;"/><text fill="#000000" font-family="sans-serif" font-size="13" lengthAdjust="spacing" textLength="145" x="191" y="453.0669">Despu&#233;s de verificar el</text><text fill="#000000" font-family="sans-serif" font-size="13" lengthAdjust="spacing" textLength="183" x="191" y="468.1997">pago, se confirma la compra</text><text fill="#000000" font-family="sans-serif" font-size="13" lengthAdjust="spacing" textLength="147" x="191" y="483.3325">de los bonos al usuario</text></g><ellipse cx="268" cy="820.8" fill="none" rx="11" ry="11" style="stroke:#222222;stroke-width:1.0;"/><ellipse cx="268" cy="820.8" fill="#222222" rx="6" ry="6" style="stroke:#222222;stroke-width:1.0;"/><g id="MostrarConfirmacion"><rect fill="#F1F1F1" height="50" rx="12.5" ry="12.5" style="stroke:#181818;stroke-width:0.5;" width="162" x="7" y="696.1"/><line style="stroke:#181818;stroke-width:0.5;" x1="7" x2="169" y1="722.3969" y2="722.3969"/><text fill="#000000" font-family="sans-serif" font-size="14" lengthAdjust="spacing" textLength="142" x="17" y="714.0951">MostrarConfirmacion</text></g><g id="elem_GMN27"><path d="M204,693.4 L204,717.1 L169.23,721.1 L204,725.1 L204,748.7984 A0,0 0 0 0 204,748.7984 L390,748.7984 A0,0 0 0 0 390,748.7984 L390,703.4 L380,693.4 L204,693.4 A0,0 0 0 0 204,693.4 " fill="#FEFFDD" style="stroke:#181818;stroke-width:0.5;"/><path d="M380,693.4 L380,703.4 L390,703.4 L380,693.4 " fill="#FEFFDD" style="stroke:#181818;stroke-width:0.5;"/><text fill="#000000" font-family="sans-serif" font-size="13" lengthAdjust="spacing" textLength="139" x="210" y="710.4669">El sistema muestra al</text><text fill="#000000" font-family="sans-serif" font-size="13" lengthAdjust="spacing" textLength="161" x="210" y="725.5997">usuario una confirmaci&#243;n</text><text fill="#000000" font-family="sans-serif" font-size="13" lengthAdjust="spacing" textLength="147" x="210" y="740.7325">de la compra de bonos</text></g><!--link *start* to ComprarBonos--><g id="link_*start*_ComprarBonos"><path d="M263,26.36 C263,40.29 263,60.96 263,80.65 " fill="none" id="*start*-to-ComprarBonos" style="stroke:#181818;stroke-width:1.0;"/><polygon fill="#181818" points="263,86.65,267,77.65,263,81.65,259,77.65,263,86.65" style="stroke:#181818;stroke-width:1.0;"/></g><!--link ComprarBonos to SeleccionarCantidad--><g id="link_ComprarBonos_SeleccionarCantidad"><path d="M263,137.46 C263,155.42 263,173.69 263,191.62 " fill="none" id="ComprarBonos-to-SeleccionarCantidad" style="stroke:#181818;stroke-width:1.0;"/><polygon fill="#181818" points="263,197.62,267,188.62,263,192.62,259,188.62,263,197.62" style="stroke:#181818;stroke-width:1.0;"/></g><!--link SeleccionarCantidad to RealizarPago--><g id="link_SeleccionarCantidad_RealizarPago"><path d="M263,248.46 C263,266.42 263,284.69 263,302.62 " fill="none" id="SeleccionarCantidad-to-RealizarPago" style="stroke:#181818;stroke-width:1.0;"/><polygon fill="#181818" points="263,308.62,267,299.62,263,303.62,259,299.62,263,308.62" style="stroke:#181818;stroke-width:1.0;"/></g><!--link RealizarPago to ConfirmarCompra--><g id="link_RealizarPago_ConfirmarCompra"><path d="M228.15,359.32 C195.69,381.97 152.4706,412.1367 119.9506,434.8267 " fill="none" id="RealizarPago-to-ConfirmarCompra" style="stroke:#181818;stroke-width:1.0;"/><polygon fill="#181818" points="115.03,438.26,124.6998,436.3905,119.1305,435.399,120.1221,429.8297,115.03,438.26" style="stroke:#181818;stroke-width:1.0;"/><text fill="#000000" font-family="sans-serif" font-size="13" lengthAdjust="spacing" textLength="82" x="184" y="402.0669">Pago exitoso</text></g><!--link RealizarPago to *end*--><g id="link_RealizarPago_*end*"><path d="M314.95,359.33 C369.05,386.4 446,430.55 446,462.7 C446,462.7 446,462.7 446,722.1 C446,798.6 324.0773,815.0885 285.1073,818.4885 " fill="none" id="RealizarPago-to-*end*" style="stroke:#181818;stroke-width:1.0;"/><polygon fill="#181818" points="279.13,819.01,288.4436,822.2126,284.1111,818.5754,287.7483,814.2429,279.13,819.01" style="stroke:#181818;stroke-width:1.0;"/><path d="M451,557.4 L451,627.4 L668,627.4 L668,567.4 L658,557.4 L451,557.4 " fill="#FEFFDD" style="stroke:#181818;stroke-width:0.5;"/><path d="M658,557.4 L658,567.4 L668,567.4 L658,557.4 " fill="#FEFFDD" style="stroke:#181818;stroke-width:0.5;"/><text fill="#000000" font-family="sans-serif" font-size="13" font-weight="bold" lengthAdjust="spacing" textLength="97" x="457" y="574.4669">Pago Fallido:</text><text fill="#000000" font-family="sans-serif" font-size="13" lengthAdjust="spacing" textLength="196" x="457" y="589.5997">Se muestra un error al usuario</text><text fill="#000000" font-family="sans-serif" font-size="13" lengthAdjust="spacing" textLength="194" x="457" y="604.7325">y se le recomienda que vuelva</text><text fill="#000000" font-family="sans-serif" font-size="13" lengthAdjust="spacing" textLength="132" x="457" y="619.8653">a intentar m&#225;s tarde</text></g><!--link ConfirmarCompra to MostrarConfirmacion--><g id="link_ConfirmarCompra_MostrarConfirmacion"><path d="M80.77,489.19 C82.3,538.01 85.5218,640.933 87.0518,689.693 " fill="none" id="ConfirmarCompra-to-MostrarConfirmacion" style="stroke:#181818;stroke-width:1.0;"/><polygon fill="#181818" points="87.24,695.69,90.9558,686.569,87.0832,690.6925,82.9597,686.8199,87.24,695.69" style="stroke:#181818;stroke-width:1.0;"/><path d="M91,572.4 L91,612.4 L257,612.4 L257,582.4 L247,572.4 L91,572.4 " fill="#FEFFDD" style="stroke:#181818;stroke-width:0.5;"/><path d="M247,572.4 L247,582.4 L257,582.4 L247,572.4 " fill="#FEFFDD" style="stroke:#181818;stroke-width:0.5;"/><text fill="#000000" font-family="sans-serif" font-size="13" lengthAdjust="spacing" textLength="138" x="97" y="589.4669">Se a&#241;aden los fondos</text><text fill="#000000" font-family="sans-serif" font-size="13" lengthAdjust="spacing" textLength="145" x="97" y="604.5997">a la cuenta del usuario</text></g><!--link MostrarConfirmacion to *end*--><g id="link_MostrarConfirmacion_*end*"><path d="M132.96,746.5 C175.23,769.45 230.1074,799.2265 253.1974,811.7665 " fill="none" id="MostrarConfirmacion-to-*end*" style="stroke:#181818;stroke-width:1.0;"/><polygon fill="#181818" points="258.47,814.63,252.4701,806.8197,254.0762,812.2437,248.6521,813.8498,258.47,814.63" style="stroke:#181818;stroke-width:1.0;"/></g><!--SRC=[VPCnKiGm34Lxdq9rXhq01GKBTCmmKEvi8MnbyU1OmOvtWDjGKZ8S8HT3ZZTBicJeaiZMV_zBsLHRMAqkOCrD6p1SikUeF7S4mUwUEk1wNe9h1oac39O1jIP3WE0GkDMs__QWGBxeSWCUynKW3-GWsjXHWugyWTnVgMdVWU6176bjsMDOe- -iGNE2idHYIaJExYZZw4Ery1IEbqJo4Wb7lWdBGkC1wPxGsNSCTxZZ4vPPAKCS748RM5F4RBgLMa5m0b0mub7AI9w_2DD-Xv7useP6Y0PSE8UXHA-suyX_XZGxhE2AOflwpvZ5znHiRRLCH9ZKG7Kc7993kJGaLaHEOF6OxN-acsfRSDY3i_vPLTLGkq7dhE7pgfA0eKaKEv58iWyXS9WsVyiuJloGS5YHmc5S-qHkZmh1-evy9mQQ_YE2F1YQRT8ygLM6kkMi5iPQJhn0Pig2AL3OVw6H3SsMQ_Oo4b0bZvG59Os51ERHBmbDrc6qBMxLkAV9up7ymtzZQ3A5SMSd7XTKnkn_0000]--></g></svg>