<svg xmlns="http://www.w3.org/2000/svg" xmlns:xlink="http://www.w3.org/1999/xlink" contentStyleType="text/css" height="1022px" preserveAspectRatio="none" style="width:523px;height:1022px;background:#FFFFFF;" version="1.1" viewBox="0 0 523 1022" width="523px" zoomAndPan="magnify"><defs/><g><ellipse cx="167.82" cy="16" fill="#222222" rx="10" ry="10" style="stroke:#222222;stroke-width:1.0;"/><g id="ComprarBonos"><rect fill="#F1F1F1" height="50" rx="12.5" ry="12.5" style="stroke:#181818;stroke-width:0.5;" width="124" x="105.82" y="136"/><line style="stroke:#181818;stroke-width:0.5;" x1="105.82" x2="229.82" y1="162.2969" y2="162.2969"/><text fill="#000000" font-family="sans-serif" font-size="14" lengthAdjust="spacing" textLength="104" x="115.82" y="153.9951">ComprarBonos</text></g><g id="SeleccionarCantidad"><rect fill="#F1F1F1" height="50" rx="12.5" ry="12.5" style="stroke:#181818;stroke-width:0.5;" width="161" x="87.32" y="296"/><line style="stroke:#181818;stroke-width:0.5;" x1="87.32" x2="248.32" y1="322.2969" y2="322.2969"/><text fill="#000000" font-family="sans-serif" font-size="14" lengthAdjust="spacing" textLength="141" x="97.32" y="313.9951">SeleccionarCantidad</text></g><g id="RealizarPago"><rect fill="#F1F1F1" height="50" rx="12.5" ry="12.5" style="stroke:#181818;stroke-width:0.5;" width="109" x="113.32" y="456"/><line style="stroke:#181818;stroke-width:0.5;" x1="113.32" x2="222.32" y1="482.2969" y2="482.2969"/><text fill="#000000" font-family="sans-serif" font-size="14" lengthAdjust="spacing" textLength="89" x="123.32" y="473.9951">RealizarPago</text></g><g id="ConfirmarCompra"><rect fill="#F1F1F1" height="50" rx="12.5" ry="12.5" style="stroke:#181818;stroke-width:0.5;" width="140" x="208.82" y="646"/><line style="stroke:#181818;stroke-width:0.5;" x1="208.82" x2="348.82" y1="672.2969" y2="672.2969"/><text fill="#000000" font-family="sans-serif" font-size="14" lengthAdjust="spacing" textLength="120" x="218.82" y="663.9951">ConfirmarCompra</text></g><g id="MostrarConfirmacion"><rect fill="#F1F1F1" height="50" rx="12.5" ry="12.5" style="stroke:#181818;stroke-width:0.5;" width="162" x="188.82" y="821"/><line style="stroke:#181818;stroke-width:0.5;" x1="188.82" x2="350.82" y1="847.2969" y2="847.2969"/><text fill="#000000" font-family="sans-serif" font-size="14" lengthAdjust="spacing" textLength="142" x="198.82" y="838.9951">MostrarConfirmacion</text></g><g id="NotificarFalloPago"><rect fill="#F1F1F1" height="50" rx="12.5" ry="12.5" style="stroke:#181818;stroke-width:0.5;" width="141" x="30.32" y="733.5"/><line style="stroke:#181818;stroke-width:0.5;" x1="30.32" x2="171.32" y1="759.7969" y2="759.7969"/><text fill="#000000" font-family="sans-serif" font-size="14" lengthAdjust="spacing" textLength="121" x="40.32" y="751.4951">NotificarFalloPago</text></g><ellipse cx="158.82" cy="1005" fill="none" rx="11" ry="11" style="stroke:#222222;stroke-width:1.0;"/><ellipse cx="158.82" cy="1005" fill="#222222" rx="6" ry="6" style="stroke:#222222;stroke-width:1.0;"/><!--link *start* to ComprarBonos--><g id="link_*start*_ComprarBonos"><path d="M167.82,26.38 C167.82,48.32 167.82,97.52 167.82,129.69 " fill="none" id="*start*-to-ComprarBonos" style="stroke:#181818;stroke-width:1.0;"/><polygon fill="#181818" points="167.82,135.69,171.82,126.69,167.82,130.69,163.82,126.69,167.82,135.69" style="stroke:#181818;stroke-width:1.0;"/><path d="M172.82,61 L172.82,101 L407.82,101 L407.82,71 L397.82,61 L172.82,61 " fill="#FEFFDD" style="stroke:#181818;stroke-width:0.5;"/><path d="M397.82,61 L397.82,71 L407.82,71 L397.82,61 " fill="#FEFFDD" style="stroke:#181818;stroke-width:0.5;"/><text fill="#000000" font-family="sans-serif" font-size="13" lengthAdjust="spacing" textLength="11" x="178.82" y="78.0669">El</text><text fill="#000000" font-family="sans-serif" font-size="13" font-weight="bold" lengthAdjust="spacing" textLength="54" x="193.82" y="78.0669">usuario</text><text fill="#000000" font-family="sans-serif" font-size="13" lengthAdjust="spacing" textLength="119" x="251.82" y="78.0669">accede a la opci&#243;n</text><text fill="#000000" font-family="sans-serif" font-size="13" lengthAdjust="spacing" textLength="152" x="178.82" y="93.1997">de comprar bonos en el</text><text fill="#000000" font-family="sans-serif" font-size="13" font-weight="bold" lengthAdjust="spacing" textLength="58" x="334.82" y="93.1997">sistema</text></g><!--link ComprarBonos to SeleccionarCantidad--><g id="link_ComprarBonos_SeleccionarCantidad"><path d="M167.82,186.34 C167.82,216.03 167.82,259.93 167.82,289.63 " fill="none" id="ComprarBonos-to-SeleccionarCantidad" style="stroke:#181818;stroke-width:1.0;"/><polygon fill="#181818" points="167.82,295.63,171.82,286.63,167.82,290.63,163.82,286.63,167.82,295.63" style="stroke:#181818;stroke-width:1.0;"/><path d="M172.82,221 L172.82,261 L381.82,261 L381.82,231 L371.82,221 L172.82,221 " fill="#FEFFDD" style="stroke:#181818;stroke-width:0.5;"/><path d="M371.82,221 L371.82,231 L381.82,231 L371.82,221 " fill="#FEFFDD" style="stroke:#181818;stroke-width:0.5;"/><text fill="#000000" font-family="sans-serif" font-size="13" lengthAdjust="spacing" textLength="11" x="178.82" y="238.0669">El</text><text fill="#000000" font-family="sans-serif" font-size="13" font-weight="bold" lengthAdjust="spacing" textLength="54" x="193.82" y="238.0669">usuario</text><text fill="#000000" font-family="sans-serif" font-size="13" lengthAdjust="spacing" textLength="104" x="251.82" y="238.0669">elige la cantidad</text><text fill="#000000" font-family="sans-serif" font-size="13" lengthAdjust="spacing" textLength="188" x="178.82" y="253.1997">de bonos que desea comprar</text></g><!--link SeleccionarCantidad to RealizarPago--><g id="link_SeleccionarCantidad_RealizarPago"><path d="M167.82,346.34 C167.82,376.03 167.82,419.93 167.82,449.63 " fill="none" id="SeleccionarCantidad-to-RealizarPago" style="stroke:#181818;stroke-width:1.0;"/><polygon fill="#181818" points="167.82,455.63,171.82,446.63,167.82,450.63,163.82,446.63,167.82,455.63" style="stroke:#181818;stroke-width:1.0;"/><path d="M172.82,381 L172.82,421 L376.82,421 L376.82,391 L366.82,381 L172.82,381 " fill="#FEFFDD" style="stroke:#181818;stroke-width:0.5;"/><path d="M366.82,381 L366.82,391 L376.82,391 L366.82,381 " fill="#FEFFDD" style="stroke:#181818;stroke-width:0.5;"/><text fill="#000000" font-family="sans-serif" font-size="13" lengthAdjust="spacing" textLength="11" x="178.82" y="398.0669">El</text><text fill="#000000" font-family="sans-serif" font-size="13" font-weight="bold" lengthAdjust="spacing" textLength="58" x="193.82" y="398.0669">sistema</text><text fill="#000000" font-family="sans-serif" font-size="13" lengthAdjust="spacing" textLength="102" x="255.82" y="398.0669">procesa el pago</text><text fill="#000000" font-family="sans-serif" font-size="13" lengthAdjust="spacing" textLength="175" x="178.82" y="413.1997">de los bonos seleccionados</text></g><!--link RealizarPago to ConfirmarCompra--><g id="link_RealizarPago_ConfirmarCompra"><path d="M211.96,506.24 C223.42,514.37 234.79,524.38 242.82,536 C265.96,569.49 273.6231,611.1918 276.5731,639.7318 " fill="none" id="RealizarPago-to-ConfirmarCompra" style="stroke:#181818;stroke-width:1.0;"/><polygon fill="#181818" points="277.19,645.7,280.2435,636.3364,276.6759,640.7265,272.2859,637.159,277.19,645.7" style="stroke:#181818;stroke-width:1.0;"/><path d="M277.82,556 L277.82,596 L503.82,596 L503.82,566 L493.82,556 L277.82,556 " fill="#FEFFDD" style="stroke:#181818;stroke-width:0.5;"/><path d="M493.82,556 L493.82,566 L503.82,566 L493.82,556 " fill="#FEFFDD" style="stroke:#181818;stroke-width:0.5;"/><text fill="#000000" font-family="sans-serif" font-size="13" lengthAdjust="spacing" textLength="11" x="283.82" y="573.0669">El</text><text fill="#000000" font-family="sans-serif" font-size="13" font-weight="bold" lengthAdjust="spacing" textLength="58" x="298.82" y="573.0669">sistema</text><text fill="#000000" font-family="sans-serif" font-size="13" lengthAdjust="spacing" textLength="124" x="360.82" y="573.0669">confirma la compra</text><text fill="#000000" font-family="sans-serif" font-size="13" lengthAdjust="spacing" textLength="96" x="283.82" y="588.1997">de los bonos al</text><text fill="#000000" font-family="sans-serif" font-size="13" font-weight="bold" lengthAdjust="spacing" textLength="54" x="383.82" y="588.1997">usuario</text></g><!--link ConfirmarCompra to MostrarConfirmacion--><g id="link_ConfirmarCompra_MostrarConfirmacion"><path d="M277.55,696.42 C275.83,729.39 273.1133,781.8082 271.3933,814.7082 " fill="none" id="ConfirmarCompra-to-MostrarConfirmacion" style="stroke:#181818;stroke-width:1.0;"/><polygon fill="#181818" points="271.08,820.7,275.5444,811.9211,271.341,815.7068,267.5553,811.5034,271.08,820.7" style="stroke:#181818;stroke-width:1.0;"/><path d="M281.82,731 L281.82,786 L516.82,786 L516.82,741 L506.82,731 L281.82,731 " fill="#FEFFDD" style="stroke:#181818;stroke-width:0.5;"/><path d="M506.82,731 L506.82,741 L516.82,741 L506.82,731 " fill="#FEFFDD" style="stroke:#181818;stroke-width:0.5;"/><text fill="#000000" font-family="sans-serif" font-size="13" lengthAdjust="spacing" textLength="11" x="287.82" y="748.0669">El</text><text fill="#000000" font-family="sans-serif" font-size="13" font-weight="bold" lengthAdjust="spacing" textLength="58" x="302.82" y="748.0669">sistema</text><text fill="#000000" font-family="sans-serif" font-size="13" lengthAdjust="spacing" textLength="133" x="364.82" y="748.0669">muestra un mensaje</text><text fill="#000000" font-family="sans-serif" font-size="13" lengthAdjust="spacing" textLength="206" x="287.82" y="763.1997">de confirmaci&#243;n y se a&#241;aade los</text><text fill="#000000" font-family="sans-serif" font-size="13" lengthAdjust="spacing" textLength="137" x="287.82" y="778.3325">bonos a la cuenta del</text><text fill="#000000" font-family="sans-serif" font-size="13" font-weight="bold" lengthAdjust="spacing" textLength="54" x="428.82" y="778.3325">usuario</text></g><!--link RealizarPago to NotificarFalloPago--><g id="link_RealizarPago_NotificarFalloPago"><path d="M113.12,492.31 C88.46,499.98 61.59,513.23 46.82,536 C6,598.92 51.9052,685.0456 80.2252,728.1456 " fill="none" id="RealizarPago-to-NotificarFalloPago" style="stroke:#FF0000;stroke-width:1.0;"/><polygon fill="#FF0000" points="83.52,733.16,81.9207,723.4419,80.7743,728.9813,75.2348,727.835,83.52,733.16" style="stroke:#FF0000;stroke-width:1.0;"/><path d="M51.82,541 L51.82,611 L229.82,611 L229.82,551 L219.82,541 L51.82,541 " fill="#FEFFDD" style="stroke:#181818;stroke-width:0.5;"/><path d="M219.82,541 L219.82,551 L229.82,551 L219.82,541 " fill="#FEFFDD" style="stroke:#181818;stroke-width:0.5;"/><text fill="#000000" font-family="sans-serif" font-size="13" lengthAdjust="spacing" textLength="11" x="57.82" y="558.0669">El</text><text fill="#000000" font-family="sans-serif" font-size="13" font-weight="bold" lengthAdjust="spacing" textLength="58" x="72.82" y="558.0669">sistema</text><text fill="#000000" font-family="sans-serif" font-size="13" lengthAdjust="spacing" textLength="61" x="134.82" y="558.0669">notifica al</text><text fill="#000000" font-family="sans-serif" font-size="13" font-weight="bold" lengthAdjust="spacing" textLength="54" x="57.82" y="573.1997">usuario</text><text fill="#000000" font-family="sans-serif" font-size="13" lengthAdjust="spacing" textLength="95" x="115.82" y="573.1997">que el pago no</text><text fill="#000000" font-family="sans-serif" font-size="13" lengthAdjust="spacing" textLength="133" x="57.82" y="588.3325">se ha podido realizar</text><text fill="#000000" font-family="sans-serif" font-size="13" lengthAdjust="spacing" textLength="110" x="57.82" y="603.4653">debido a un error</text></g><!--link NotificarFalloPago to *end*--><g id="link_NotificarFalloPago_*end*"><path d="M106.59,783.84 C119.03,836.26 146.5253,952.162 155.0353,988.042 " fill="none" id="NotificarFalloPago-to-*end*" style="stroke:#FF0000;stroke-width:1.0;"/><polygon fill="#FF0000" points="156.42,993.88,158.235,984.1998,155.2661,989.015,150.451,986.046,156.42,993.88" style="stroke:#FF0000;stroke-width:1.0;"/></g><!--link MostrarConfirmacion to *end*--><g id="link_MostrarConfirmacion_*end*"><path d="M252.72,871.19 C227.42,906.97 184.7023,967.3797 168.2823,990.6197 " fill="none" id="MostrarConfirmacion-to-*end*" style="stroke:#181818;stroke-width:1.0;"/><polygon fill="#181818" points="164.82,995.52,173.2802,990.4777,167.7052,991.4364,166.7465,985.8614,164.82,995.52" style="stroke:#181818;stroke-width:1.0;"/></g><!--SRC=[VP9BKiCm343tFeLcs7ccL-Y23knW65Xskb1jjHWSATZ90cx5S8HU37_IaFH3Th4aloTPQxs1nM89AsdQWE5MMA9YwGY4mJj-Lt3dGUi-zXYSQ0re35a218yWhN677mO5wSJKAs2Rxm1Ye5mONUoeGQqLiOLyir9JMA6_a2TZd3265NBdBDh_9SYxFMK3CwHNXOh-w2dzHCAZqWHzWLGCdWcz-yBmX7kvX1xRW3Q8eOYvkpObLx1Fs0gF8y2cIVw1fu1XuhnpeKaUHV84chuJhXdoIzUb14hQZ8wpCSr6FgCLWmU9NSWdDPIbgqNMkEhHz9JBe6TeY2E-qUXXnfloKdocMG0UlX6hOiaQD4iJFN67gUwQytnawvj0TfEq7wLpEsSmtAFtSk71pfrvACdpAV7fBkLrEJucIuqdyrU4Lgop0c7m6DhSvhFIFuKWq-KwDpjgBs6jDqfTc7XwYKM9_W80]--></g></svg>