<?xml version="1.0" encoding="us-ascii" standalone="no"?><svg xmlns="http://www.w3.org/2000/svg" xmlns:xlink="http://www.w3.org/1999/xlink" contentStyleType="text/css" height="677px" preserveAspectRatio="none" style="width:704px;height:677px;background:#FFFFFF;" version="1.1" viewBox="0 0 704 677" width="704px" zoomAndPan="magnify"><defs/><g><ellipse cx="382" cy="16" fill="#222222" rx="10" ry="10" style="stroke:#222222;stroke-width:1.0;"/><g id="MetodoDePago"><rect fill="#F1F1F1" height="50" rx="12.5" ry="12.5" style="stroke:#181818;stroke-width:0.5;" width="128" x="318" y="97.27"/><line style="stroke:#181818;stroke-width:0.5;" x1="318" x2="446" y1="123.5669" y2="123.5669"/><text fill="#000000" font-family="sans-serif" font-size="14" lengthAdjust="spacing" textLength="108" x="328" y="115.2651">MetodoDePago</text></g><g id="elem_GMN5"><path d="M481.5,87 L481.5,118.27 L446.31,122.27 L481.5,126.27 L481.5,157.5313 A0,0 0 0 0 481.5,157.5313 L686.5,157.5313 A0,0 0 0 0 686.5,157.5313 L686.5,97 L676.5,87 L481.5,87 A0,0 0 0 0 481.5,87 " fill="#FEFFDD" style="stroke:#181818;stroke-width:0.5;"/><path d="M676.5,87 L676.5,97 L686.5,97 L676.5,87 " fill="#FEFFDD" style="stroke:#181818;stroke-width:0.5;"/><text fill="#000000" font-family="sans-serif" font-size="13" lengthAdjust="spacing" textLength="135" x="487.5" y="104.0669">El usuario escoje que</text><text fill="#000000" font-family="sans-serif" font-size="13" lengthAdjust="spacing" textLength="138" x="487.5" y="119.1997">metodo de pago usar</text><text fill="#000000" font-family="sans-serif" font-size="13" lengthAdjust="spacing" textLength="4" x="487.5" y="134.3325">&#160;</text><text fill="#000000" font-family="sans-serif" font-size="13" font-weight="bold" lengthAdjust="spacing" textLength="184" x="487.5" y="149.4653">Metodo de Pago: Tarjeta</text></g><g id="RealizarPago"><rect fill="#F1F1F1" height="50" rx="12.5" ry="12.5" style="stroke:#181818;stroke-width:0.5;" width="109" x="327.5" y="315.23"/><line style="stroke:#181818;stroke-width:0.5;" x1="327.5" x2="436.5" y1="341.5269" y2="341.5269"/><text fill="#000000" font-family="sans-serif" font-size="14" lengthAdjust="spacing" textLength="89" x="337.5" y="333.2251">RealizarPago</text></g><g id="elem_GMN10"><path d="M471.5,312.53 L471.5,336.23 L436.69,340.23 L471.5,344.23 L471.5,367.9284 A0,0 0 0 0 471.5,367.9284 L658.5,367.9284 A0,0 0 0 0 658.5,367.9284 L658.5,322.53 L648.5,312.53 L471.5,312.53 A0,0 0 0 0 471.5,312.53 " fill="#FEFFDD" style="stroke:#181818;stroke-width:0.5;"/><path d="M648.5,312.53 L648.5,322.53 L658.5,322.53 L648.5,312.53 " fill="#FEFFDD" style="stroke:#181818;stroke-width:0.5;"/><text fill="#000000" font-family="sans-serif" font-size="13" lengthAdjust="spacing" textLength="162" x="477.5" y="329.5969">Se efectua el pago con el</text><text fill="#000000" font-family="sans-serif" font-size="13" lengthAdjust="spacing" textLength="157" x="477.5" y="344.7297">TPV virtual para efectuar</text><text fill="#000000" font-family="sans-serif" font-size="13" lengthAdjust="spacing" textLength="47" x="477.5" y="359.8625">el pago</text></g><g id="ConfirmarReserva"><rect fill="#F1F1F1" height="50" rx="12.5" ry="12.5" style="stroke:#181818;stroke-width:0.5;" width="142" x="241" y="459.93"/><line style="stroke:#181818;stroke-width:0.5;" x1="241" x2="383" y1="486.2269" y2="486.2269"/><text fill="#000000" font-family="sans-serif" font-size="14" lengthAdjust="spacing" textLength="122" x="251" y="477.9251">ConfirmarReserva</text></g><g id="elem_GMN15"><path d="M6,449.66 L6,520.1913 A0,0 0 0 0 6,520.1913 L206,520.1913 A0,0 0 0 0 206,520.1913 L206,488.93 L240.9,484.93 L206,480.93 L206,459.66 L196,449.66 L6,449.66 A0,0 0 0 0 6,449.66 " fill="#FEFFDD" style="stroke:#181818;stroke-width:0.5;"/><path d="M196,449.66 L196,459.66 L206,459.66 L196,449.66 " fill="#FEFFDD" style="stroke:#181818;stroke-width:0.5;"/><text fill="#000000" font-family="sans-serif" font-size="13" lengthAdjust="spacing" textLength="145" x="12" y="466.7269">Despues de verificar el</text><text fill="#000000" font-family="sans-serif" font-size="13" lengthAdjust="spacing" textLength="132" x="12" y="481.8597">pago se le envia una</text><text fill="#000000" font-family="sans-serif" font-size="13" lengthAdjust="spacing" textLength="175" x="12" y="496.9925">notificacion con el resumen</text><text fill="#000000" font-family="sans-serif" font-size="13" lengthAdjust="spacing" textLength="149" x="12" y="512.1253">de la reserva al usuario</text></g><ellipse cx="382" cy="660.93" fill="none" rx="11" ry="11" style="stroke:#222222;stroke-width:1.0;"/><ellipse cx="382" cy="660.93" fill="#222222" rx="6" ry="6" style="stroke:#222222;stroke-width:1.0;"/><!--link *start* to MetodoDePago--><g id="link_*start*_MetodoDePago"><path d="M382,26.25 C382,42 382,68.5 382,91.08 " fill="none" id="*start*-to-MetodoDePago" style="stroke:#181818;stroke-width:1.0;"/><polygon fill="#181818" points="382,97.08,386,88.08,382,92.08,378,88.08,382,97.08" style="stroke:#181818;stroke-width:1.0;"/></g><!--link MetodoDePago to RealizarPago--><g id="link_MetodoDePago_RealizarPago"><path d="M382,147.62 C382,189.21 382,267.44 382,308.97 " fill="none" id="MetodoDePago-to-RealizarPago" style="stroke:#181818;stroke-width:1.0;"/><polygon fill="#181818" points="382,314.97,386,305.97,382,309.97,378,305.97,382,314.97" style="stroke:#181818;stroke-width:1.0;"/><path d="M387,192.53 L387,277.53 L558,277.53 L558,202.53 L548,192.53 L387,192.53 " fill="#FEFFDD" style="stroke:#181818;stroke-width:0.5;"/><path d="M548,192.53 L548,202.53 L558,202.53 L548,192.53 " fill="#FEFFDD" style="stroke:#181818;stroke-width:0.5;"/><text fill="#000000" font-family="sans-serif" font-size="13" font-weight="bold" lengthAdjust="spacing" textLength="116" x="393" y="209.5969">Datos De Pago:</text><text fill="#000000" font-family="sans-serif" font-size="13" lengthAdjust="spacing" textLength="129" x="401" y="224.7297">- Numero de Tarjeta</text><text fill="#000000" font-family="sans-serif" font-size="13" lengthAdjust="spacing" textLength="127" x="401" y="239.8625">- Nombre del Titular</text><text fill="#000000" font-family="sans-serif" font-size="13" lengthAdjust="spacing" textLength="138" x="401" y="254.9953">- Fecha de Caducidad</text><text fill="#000000" font-family="sans-serif" font-size="13" lengthAdjust="spacing" textLength="142" x="401" y="270.1281">- Codigo de Seguridad</text></g><!--link RealizarPago to ConfirmarReserva--><g id="link_RealizarPago_ConfirmarReserva"><path d="M366.32,365.64 C360.26,375.49 353.49,387.07 348,397.93 C337.7,418.29 329.9936,436.7276 323.2036,454.1976 " fill="none" id="RealizarPago-to-ConfirmarReserva" style="stroke:#181818;stroke-width:1.0;"/><polygon fill="#181818" points="321.03,459.79,328.0187,452.8504,322.8413,455.1296,320.5621,449.9523,321.03,459.79" style="stroke:#181818;stroke-width:1.0;"/><text fill="#000000" font-family="sans-serif" font-size="13" lengthAdjust="spacing" textLength="82" x="349" y="410.9969">Pago exitoso</text></g><!--link RealizarPago to *end*--><g id="link_RealizarPago_*end*"><path d="M412.95,365.51 C422.16,374.58 431.1,385.69 436,397.93 C472.64,489.54 480.39,531.81 436,619.93 C426.87,638.06 410.6736,647.5624 397.7336,653.3724 " fill="none" id="RealizarPago-to-*end*" style="stroke:#181818;stroke-width:1.0;"/><polygon fill="#181818" points="392.26,655.83,402.1088,655.7926,396.8213,653.782,398.832,648.4945,392.26,655.83" style="stroke:#181818;stroke-width:1.0;"/><path d="M472,449.93 L472,519.93 L697,519.93 L697,459.93 L687,449.93 L472,449.93 " fill="#FEFFDD" style="stroke:#181818;stroke-width:0.5;"/><path d="M687,449.93 L687,459.93 L697,459.93 L687,449.93 " fill="#FEFFDD" style="stroke:#181818;stroke-width:0.5;"/><text fill="#000000" font-family="sans-serif" font-size="13" font-weight="bold" lengthAdjust="spacing" textLength="97" x="478" y="466.9969">Pago Fallido:</text><text fill="#000000" font-family="sans-serif" font-size="13" lengthAdjust="spacing" textLength="196" x="478" y="482.1297">Se muestra un error al usuario</text><text fill="#000000" font-family="sans-serif" font-size="13" lengthAdjust="spacing" textLength="204" x="478" y="497.2625">y se me recomienda que vuelva</text><text fill="#000000" font-family="sans-serif" font-size="13" lengthAdjust="spacing" textLength="132" x="478" y="512.3953">a intentar m&#225;s tarde</text></g><!--link ConfirmarReserva to *end*--><g id="link_ConfirmarReserva_*end*"><path d="M302.74,510.19 C293.53,538.69 283.46,586.32 304,619.93 C318.76,644.08 347.3796,653.0198 365.1296,656.7698 " fill="none" id="ConfirmarReserva-to-*end*" style="stroke:#181818;stroke-width:1.0;"/><polygon fill="#181818" points="371,658.01,363.0212,652.236,366.108,656.9765,361.3676,660.0633,371,658.01" style="stroke:#181818;stroke-width:1.0;"/><path d="M309,559.93 L309,614.93 L427,614.93 L427,569.93 L417,559.93 L309,559.93 " fill="#FEFFDD" style="stroke:#181818;stroke-width:0.5;"/><path d="M417,559.93 L417,569.93 L427,569.93 L417,559.93 " fill="#FEFFDD" style="stroke:#181818;stroke-width:0.5;"/><text fill="#000000" font-family="sans-serif" font-size="13" lengthAdjust="spacing" textLength="93" x="315" y="576.9969">Anadir reserva</text><text fill="#000000" font-family="sans-serif" font-size="13" lengthAdjust="spacing" textLength="84" x="315" y="592.1297">a horarios de</text><text fill="#000000" font-family="sans-serif" font-size="13" lengthAdjust="spacing" textLength="46" x="315" y="607.2625">la pista</text></g><!--SRC=[RP9DJYGn38NtEONN9VK5M22Xxc47Gj1YWrXuAgvkGoffdAGqS9iv2nV3CKN_0BkK_UhvyqiUkaTOBCxXYahoQKKtk4akfa8WlDaMICDf2_u4gBcYS0BAVNeYUAa43aPJWIVOgKurA4xBNNUrRpI3CrYZF571hdCKFRHHpXsFQ3ItX87VK0uqAKBW-EowReKbPLZDTce3i83hEfBOaDd-ivh6lq9Q3R3cKaD3ql8bzLjisYNwshD7R-LbyhmnZplQLB7w7l4qaXC-bGCDr9UAe9Di_LvvzUnWVNCF4ulsMaVmIodQcyM78SUsBOPbYWFBY79BcMH2EBEbWVwnPZ0d4sWmfkzYfndbNQNSDff8UE1UnngLCURsBr2S6A56rBBwcQfdnPzN4CgQRTIksWHituQ2-tVmEx-zgeVkyVlrMUyIGs1ljwVXZGfPf440YIGvzdvjcAD6JtqQMIUXlRUfKj0L4JWMYaNt6j__Pz23fmFFZ_n-POABY9vblva3X6sIDjwoSstj7MTzL5_E7m00]--></g></svg>