<?xml version="1.0" encoding="us-ascii" standalone="no"?><svg xmlns="http://www.w3.org/2000/svg" xmlns:xlink="http://www.w3.org/1999/xlink" contentStyleType="text/css" height="708px" preserveAspectRatio="none" style="width:773px;height:708px;background:#FFFFFF;" version="1.1" viewBox="0 0 773 708" width="773px" zoomAndPan="magnify"><defs/><g><ellipse cx="382" cy="16" fill="#222222" rx="10" ry="10" style="stroke:#222222;stroke-width:1.0;"/><g id="MetodoDePago"><rect fill="#F1F1F1" height="50" rx="12.5" ry="12.5" style="stroke:#181818;stroke-width:0.5;" width="128" x="318" y="97.27"/><line style="stroke:#181818;stroke-width:0.5;" x1="318" x2="446" y1="123.5669" y2="123.5669"/><text fill="#000000" font-family="sans-serif" font-size="14" lengthAdjust="spacing" textLength="108" x="328" y="115.2651">MetodoDePago</text></g><g id="elem_GMN5"><path d="M481.5,87 L481.5,118.27 L446.37,122.27 L481.5,126.27 L481.5,157.5313 A0,0 0 0 0 481.5,157.5313 L672.5,157.5313 A0,0 0 0 0 672.5,157.5313 L672.5,97 L662.5,87 L481.5,87 A0,0 0 0 0 481.5,87 " fill="#FEFFDD" style="stroke:#181818;stroke-width:0.5;"/><path d="M662.5,87 L662.5,97 L672.5,97 L662.5,87 " fill="#FEFFDD" style="stroke:#181818;stroke-width:0.5;"/><text fill="#000000" font-family="sans-serif" font-size="13" lengthAdjust="spacing" textLength="135" x="487.5" y="104.0669">El usuario escoje que</text><text fill="#000000" font-family="sans-serif" font-size="13" lengthAdjust="spacing" textLength="138" x="487.5" y="119.1997">metodo de pago usar</text><text fill="#000000" font-family="sans-serif" font-size="13" lengthAdjust="spacing" textLength="4" x="487.5" y="134.3325">&#160;</text><text fill="#000000" font-family="sans-serif" font-size="13" font-weight="bold" lengthAdjust="spacing" textLength="170" x="487.5" y="149.4653">Metodo de Pago: Bono</text></g><g id="RealizarPago"><rect fill="#F1F1F1" height="50" rx="12.5" ry="12.5" style="stroke:#181818;stroke-width:0.5;" width="109" x="327.5" y="285.23"/><line style="stroke:#181818;stroke-width:0.5;" x1="327.5" x2="436.5" y1="311.5269" y2="311.5269"/><text fill="#000000" font-family="sans-serif" font-size="14" lengthAdjust="spacing" textLength="89" x="337.5" y="303.2251">RealizarPago</text></g><g id="elem_GMN10"><path d="M472,282.53 L472,306.23 L436.69,310.23 L472,314.23 L472,337.9284 A0,0 0 0 0 472,337.9284 L692,337.9284 A0,0 0 0 0 692,337.9284 L692,292.53 L682,282.53 L472,282.53 A0,0 0 0 0 472,282.53 " fill="#FEFFDD" style="stroke:#181818;stroke-width:0.5;"/><path d="M682,282.53 L682,292.53 L692,292.53 L682,282.53 " fill="#FEFFDD" style="stroke:#181818;stroke-width:0.5;"/><text fill="#000000" font-family="sans-serif" font-size="13" lengthAdjust="spacing" textLength="195" x="478" y="299.5969">Se deducen autom&#225;ticamente</text><text fill="#000000" font-family="sans-serif" font-size="13" lengthAdjust="spacing" textLength="180" x="478" y="314.7297">los fondos correspondientes</text><text fill="#000000" font-family="sans-serif" font-size="13" lengthAdjust="spacing" textLength="133" x="478" y="329.8625">al valor de la reserva</text></g><g id="ConfirmarReserva"><rect fill="#F1F1F1" height="50" rx="12.5" ry="12.5" style="stroke:#181818;stroke-width:0.5;" width="142" x="241" y="460.43"/><line style="stroke:#181818;stroke-width:0.5;" x1="241" x2="383" y1="486.7269" y2="486.7269"/><text fill="#000000" font-family="sans-serif" font-size="14" lengthAdjust="spacing" textLength="122" x="251" y="478.4251">ConfirmarReserva</text></g><g id="elem_GMN15"><path d="M6,450.16 L6,520.6913 A0,0 0 0 0 6,520.6913 L206,520.6913 A0,0 0 0 0 206,520.6913 L206,489.43 L240.9,485.43 L206,481.43 L206,460.16 L196,450.16 L6,450.16 A0,0 0 0 0 6,450.16 " fill="#FEFFDD" style="stroke:#181818;stroke-width:0.5;"/><path d="M196,450.16 L196,460.16 L206,460.16 L196,450.16 " fill="#FEFFDD" style="stroke:#181818;stroke-width:0.5;"/><text fill="#000000" font-family="sans-serif" font-size="13" lengthAdjust="spacing" textLength="145" x="12" y="467.2269">Despues de verificar el</text><text fill="#000000" font-family="sans-serif" font-size="13" lengthAdjust="spacing" textLength="132" x="12" y="482.3597">pago se le envia una</text><text fill="#000000" font-family="sans-serif" font-size="13" lengthAdjust="spacing" textLength="175" x="12" y="497.4925">notificacion con el resumen</text><text fill="#000000" font-family="sans-serif" font-size="13" lengthAdjust="spacing" textLength="149" x="12" y="512.6253">de la reserva al usuario</text></g><ellipse cx="382" cy="691.93" fill="none" rx="11" ry="11" style="stroke:#222222;stroke-width:1.0;"/><ellipse cx="382" cy="691.93" fill="#222222" rx="6" ry="6" style="stroke:#222222;stroke-width:1.0;"/><!--link *start* to MetodoDePago--><g id="link_*start*_MetodoDePago"><path d="M382,26.25 C382,42 382,68.5 382,91.08 " fill="none" id="*start*-to-MetodoDePago" style="stroke:#181818;stroke-width:1.0;"/><polygon fill="#181818" points="382,97.08,386,88.08,382,92.08,378,88.08,382,97.08" style="stroke:#181818;stroke-width:1.0;"/></g><!--link MetodoDePago to RealizarPago--><g id="link_MetodoDePago_RealizarPago"><path d="M382,147.58 C382,183.22 382,243.27 382,278.91 " fill="none" id="MetodoDePago-to-RealizarPago" style="stroke:#181818;stroke-width:1.0;"/><polygon fill="#181818" points="382,284.91,386,275.91,382,279.91,378,275.91,382,284.91" style="stroke:#181818;stroke-width:1.0;"/><path d="M387,192.53 L387,247.53 L568,247.53 L568,202.53 L558,192.53 L387,192.53 " fill="#FEFFDD" style="stroke:#181818;stroke-width:0.5;"/><path d="M558,192.53 L558,202.53 L568,202.53 L558,192.53 " fill="#FEFFDD" style="stroke:#181818;stroke-width:0.5;"/><text fill="#000000" font-family="sans-serif" font-size="13" lengthAdjust="spacing" textLength="160" x="393" y="209.5969">Se verifica que el usuario</text><text fill="#000000" font-family="sans-serif" font-size="13" lengthAdjust="spacing" textLength="158" x="393" y="224.7297">posea fondos suficientes</text><text fill="#000000" font-family="sans-serif" font-size="13" lengthAdjust="spacing" textLength="130" x="393" y="239.8625">para reslizar el pago</text></g><!--link RealizarPago to ConfirmarReserva--><g id="link_RealizarPago_ConfirmarReserva"><path d="M365.6,335.65 C359.52,345.41 352.91,356.93 348,367.93 C334.28,398.66 325.1715,430.3407 319.1415,454.3507 " fill="none" id="RealizarPago-to-ConfirmarReserva" style="stroke:#181818;stroke-width:1.0;"/><polygon fill="#181818" points="317.68,460.17,323.7518,452.4154,318.8979,455.3206,315.9927,450.4668,317.68,460.17" style="stroke:#181818;stroke-width:1.0;"/><text fill="#000000" font-family="sans-serif" font-size="13" lengthAdjust="spacing" textLength="82" x="349" y="380.9969">Pago exitoso</text></g><!--link RealizarPago to *end*--><g id="link_RealizarPago_*end*"><path d="M412.95,335.51 C422.16,344.58 431.1,355.69 436,367.93 C482.71,484.71 492.58,538.6 436,650.93 C426.87,669.06 410.6736,678.5624 397.7336,684.3724 " fill="none" id="RealizarPago-to-*end*" style="stroke:#181818;stroke-width:1.0;"/><polygon fill="#181818" points="392.26,686.83,402.1088,686.7926,396.8213,684.782,398.832,679.4945,392.26,686.83" style="stroke:#181818;stroke-width:1.0;"/><path d="M480,419.93 L480,550.93 L766,550.93 L766,429.93 L756,419.93 L480,419.93 " fill="#FEFFDD" style="stroke:#181818;stroke-width:0.5;"/><path d="M756,419.93 L756,429.93 L766,429.93 L756,419.93 " fill="#FEFFDD" style="stroke:#181818;stroke-width:0.5;"/><text fill="#000000" font-family="sans-serif" font-size="13" font-weight="bold" lengthAdjust="spacing" textLength="97" x="486" y="436.9969">Pago Fallido:</text><text fill="#000000" font-family="sans-serif" font-size="13" lengthAdjust="spacing" textLength="203" x="486" y="452.1297">Se presenta un error al usuario,</text><text fill="#000000" font-family="sans-serif" font-size="13" lengthAdjust="spacing" textLength="196" x="486" y="467.2625">quien recibe la recomendaci&#243;n</text><text fill="#000000" font-family="sans-serif" font-size="13" lengthAdjust="spacing" textLength="240" x="486" y="482.3953">de intentarlo nuevamente m&#225;s tarde.</text><text fill="#000000" font-family="sans-serif" font-size="13" lengthAdjust="spacing" textLength="4" x="486" y="497.5281">&#160;</text><text fill="#000000" font-family="sans-serif" font-size="13" font-weight="bold" lengthAdjust="spacing" textLength="157" x="486" y="512.661">Fondos Insuficientes:</text><text fill="#000000" font-family="sans-serif" font-size="13" lengthAdjust="spacing" textLength="261" x="486" y="527.7938">Se muestra un error al usuario indicando</text><text fill="#000000" font-family="sans-serif" font-size="13" lengthAdjust="spacing" textLength="241" x="486" y="542.9266">que no dispone de suficientes fondos.</text></g><!--link ConfirmarReserva to *end*--><g id="link_ConfirmarReserva_*end*"><path d="M302.83,510.84 C291.7,544.94 277.46,607.5 304,650.93 C318.76,675.08 347.3796,684.0198 365.1296,687.7698 " fill="none" id="ConfirmarReserva-to-*end*" style="stroke:#181818;stroke-width:1.0;"/><polygon fill="#181818" points="371,689.01,363.0212,683.236,366.108,687.9765,361.3676,691.0633,371,689.01" style="stroke:#181818;stroke-width:1.0;"/><path d="M309,590.93 L309,645.93 L427,645.93 L427,600.93 L417,590.93 L309,590.93 " fill="#FEFFDD" style="stroke:#181818;stroke-width:0.5;"/><path d="M417,590.93 L417,600.93 L427,600.93 L417,590.93 " fill="#FEFFDD" style="stroke:#181818;stroke-width:0.5;"/><text fill="#000000" font-family="sans-serif" font-size="13" lengthAdjust="spacing" textLength="93" x="315" y="607.9969">Anadir reserva</text><text fill="#000000" font-family="sans-serif" font-size="13" lengthAdjust="spacing" textLength="84" x="315" y="623.1297">a horarios de</text><text fill="#000000" font-family="sans-serif" font-size="13" lengthAdjust="spacing" textLength="46" x="315" y="638.2625">la pista</text></g><!--SRC=[RL9BJkKm4Dpx5BsEW0EynKWmW3GBf14i4OkUk0CU77Vm9nhDRUOCSmGkHjalUdc1jyWYThcgkgeVkoSwF_z6TvBLwhNyv6SrGRDGTCylcNJONj6Dfv8AHwSagTVVGcz5oD3OK6I59k20uMXmt7LtXujAiACh3TfrHeAbgcFCCN-rSY_itL-EgnKDv5ruDGz2iqGtk9wRgXoyc4cJC0qQh2PA1H0d8Kio4qUcAAbHrXVLtgg-7NKZ3JKhjlGIY4lMyVrVXl1OQSbuo2nglKRmJ_ZPIv9XJpDxZNLetzGbphoA7ilKYRzh65mSETxlaRHhMP7ySLdJ4eANeNdy33Pq3VK2NRl6qoOr-ofIVKiIPiTK0kCOV0tLEoJRumCO9Wjcm-t6DF6QyKd_RNiUkwTjKrtNxcxPUsTrXxwHvbGvGwukI694FYlv6PctWloWsxjVYuDUuSZ2vlj_68ClXtn14BrIA38lPQ2PH3YrSc6WVBklvKSuMeF5mOYOSZnf0DmMaU1fTI8ObAohhTOjEDwefVQBDOulzPsCX2u3MnSFmHfYUj5OjLjrfiuykPJNHVa0]--></g></svg>