<svg xmlns="http://www.w3.org/2000/svg" xmlns:xlink="http://www.w3.org/1999/xlink" contentStyleType="text/css" height="1000px" preserveAspectRatio="none" style="width:772px;height:1000px;background:#FFFFFF;" version="1.1" viewBox="0 0 772 1000" width="772px" zoomAndPan="magnify"><defs/><g><ellipse cx="331" cy="16" fill="#222222" rx="10" ry="10" style="stroke:#222222;stroke-width:1.0;"/><g id="MetodoDePago"><rect fill="#F1F1F1" height="50" rx="12.5" ry="12.5" style="stroke:#181818;stroke-width:0.5;" width="128" x="267" y="87"/><line style="stroke:#181818;stroke-width:0.5;" x1="267" x2="395" y1="113.2969" y2="113.2969"/><text fill="#000000" font-family="sans-serif" font-size="14" lengthAdjust="spacing" textLength="108" x="277" y="104.9951">MetodoDePago</text></g><g id="PagarConBonos"><rect fill="#F1F1F1" height="50" rx="12.5" ry="12.5" style="stroke:#181818;stroke-width:0.5;" width="132" x="181" y="277"/><line style="stroke:#181818;stroke-width:0.5;" x1="181" x2="313" y1="303.2969" y2="303.2969"/><text fill="#000000" font-family="sans-serif" font-size="14" lengthAdjust="spacing" textLength="112" x="191" y="294.9951">PagarConBonos</text></g><g id="elem_GMN7"><path d="M6,281.87 L6,322.1356 A0,0 0 0 0 6,322.1356 L146,322.1356 A0,0 0 0 0 146,322.1356 L146,306 L180.63,302 L146,298 L146,291.87 L136,281.87 L6,281.87 A0,0 0 0 0 6,281.87 " fill="#FEFFDD" style="stroke:#181818;stroke-width:0.5;"/><path d="M136,281.87 L136,291.87 L146,291.87 L136,281.87 " fill="#FEFFDD" style="stroke:#181818;stroke-width:0.5;"/><text fill="#000000" font-family="sans-serif" font-size="13" lengthAdjust="spacing" textLength="115" x="12" y="298.9369">Este es el CDU de</text><text fill="#000000" font-family="sans-serif" font-size="13" font-weight="bold" lengthAdjust="spacing" textLength="117" x="12" y="314.0697">PagarConBonos</text></g><g id="PagarConTarjeta"><rect fill="#F1F1F1" height="50" rx="12.5" ry="12.5" style="stroke:#181818;stroke-width:0.5;" width="134" x="348" y="277"/><line style="stroke:#181818;stroke-width:0.5;" x1="348" x2="482" y1="303.2969" y2="303.2969"/><text fill="#000000" font-family="sans-serif" font-size="14" lengthAdjust="spacing" textLength="114" x="358" y="294.9951">PagarConTarjeta</text></g><g id="RealizarPago"><rect fill="#F1F1F1" height="50" rx="12.5" ry="12.5" style="stroke:#181818;stroke-width:0.5;" width="109" x="360.5" y="528"/><line style="stroke:#181818;stroke-width:0.5;" x1="360.5" x2="469.5" y1="554.2969" y2="554.2969"/><text fill="#000000" font-family="sans-serif" font-size="14" lengthAdjust="spacing" textLength="89" x="370.5" y="545.9951">RealizarPago</text></g><g id="ConfirmarReserva"><rect fill="#F1F1F1" height="50" rx="12.5" ry="12.5" style="stroke:#181818;stroke-width:0.5;" width="142" x="210" y="750"/><line style="stroke:#181818;stroke-width:0.5;" x1="210" x2="352" y1="776.2969" y2="776.2969"/><text fill="#000000" font-family="sans-serif" font-size="14" lengthAdjust="spacing" textLength="122" x="220" y="767.9951">ConfirmarReserva</text></g><g id="NotificarPagoFallido"><rect fill="#F1F1F1" height="50" rx="12.5" ry="12.5" style="stroke:#181818;stroke-width:0.5;" width="153" x="493.5" y="750"/><line style="stroke:#181818;stroke-width:0.5;" x1="493.5" x2="646.5" y1="776.2969" y2="776.2969"/><text fill="#000000" font-family="sans-serif" font-size="14" lengthAdjust="spacing" textLength="133" x="503.5" y="767.9951">NotificarPagoFallido</text></g><ellipse cx="418" cy="983" fill="none" rx="11" ry="11" style="stroke:#222222;stroke-width:1.0;"/><ellipse cx="418" cy="983" fill="#222222" rx="6" ry="6" style="stroke:#222222;stroke-width:1.0;"/><!--link *start* to MetodoDePago--><g id="link_*start*_MetodoDePago"><path d="M331,26.36 C331,40.29 331,60.95 331,80.65 " fill="none" id="*start*-to-MetodoDePago" style="stroke:#181818;stroke-width:1.0;"/><polygon fill="#181818" points="331,86.65,335,77.65,331,81.65,327,77.65,331,86.65" style="stroke:#181818;stroke-width:1.0;"/></g><!--link MetodoDePago to PagarConBonos--><g id="link_MetodoDePago_PagarConBonos"><path d="M320.19,137.19 C304.11,173.19 276.4878,235.002 260.3478,271.122 " fill="none" id="MetodoDePago-to-PagarConBonos" style="stroke:#181818;stroke-width:1.0;"/><polygon fill="#181818" points="257.9,276.6,265.2237,270.0149,259.9398,272.035,257.9197,266.7512,257.9,276.6" style="stroke:#181818;stroke-width:1.0;"/></g><!--link MetodoDePago to PagarConTarjeta--><g id="link_MetodoDePago_PagarConTarjeta"><path d="M341.81,137.19 C357.89,173.19 385.5122,235.002 401.6522,271.122 " fill="none" id="MetodoDePago-to-PagarConTarjeta" style="stroke:#181818;stroke-width:1.0;"/><polygon fill="#181818" points="404.1,276.6,404.0803,266.7512,402.0602,272.035,396.7763,270.0149,404.1,276.6" style="stroke:#181818;stroke-width:1.0;"/><path d="M396,172 L396,242 L601,242 L601,182 L591,172 L396,172 " fill="#FEFFDD" style="stroke:#181818;stroke-width:0.5;"/><path d="M591,172 L591,182 L601,182 L591,172 " fill="#FEFFDD" style="stroke:#181818;stroke-width:0.5;"/><text fill="#000000" font-family="sans-serif" font-size="13" lengthAdjust="spacing" textLength="140" x="402" y="189.0669">El usuario escoge que</text><text fill="#000000" font-family="sans-serif" font-size="13" lengthAdjust="spacing" textLength="138" x="402" y="204.1997">m&#233;todo de pago usar</text><text fill="#000000" font-family="sans-serif" font-size="13" lengthAdjust="spacing" textLength="4" x="402" y="219.3325">&#160;</text><text fill="#000000" font-family="sans-serif" font-size="13" font-weight="bold" lengthAdjust="spacing" textLength="184" x="402" y="234.4653">M&#233;todo de Pago: Tarjeta</text></g><!--link PagarConTarjeta to RealizarPago--><g id="link_PagarConTarjeta_RealizarPago"><path d="M415,327.33 C415,374.93 415,473.89 415,521.57 " fill="none" id="PagarConTarjeta-to-RealizarPago" style="stroke:#181818;stroke-width:1.0;"/><polygon fill="#181818" points="415,527.57,419,518.57,415,522.57,411,518.57,415,527.57" style="stroke:#181818;stroke-width:1.0;"/><path d="M420,362 L420,493 L621,493 L621,372 L611,362 L420,362 " fill="#FEFFDD" style="stroke:#181818;stroke-width:0.5;"/><path d="M611,362 L611,372 L621,372 L611,362 " fill="#FEFFDD" style="stroke:#181818;stroke-width:0.5;"/><text fill="#000000" font-family="sans-serif" font-size="13" font-weight="bold" lengthAdjust="spacing" textLength="116" x="426" y="379.0669">Datos De Pago:</text><text fill="#000000" font-family="sans-serif" font-size="13" lengthAdjust="spacing" textLength="129" x="434" y="394.1997">- N&#250;mero de Tarjeta</text><text fill="#000000" font-family="sans-serif" font-size="13" lengthAdjust="spacing" textLength="127" x="434" y="409.3325">- Nombre del Titular</text><text fill="#000000" font-family="sans-serif" font-size="13" lengthAdjust="spacing" textLength="138" x="434" y="424.4653">- Fecha de Caducidad</text><text fill="#000000" font-family="sans-serif" font-size="13" lengthAdjust="spacing" textLength="142" x="434" y="439.5981">- C&#243;digo de Seguridad</text><text fill="#000000" font-family="sans-serif" font-size="13" lengthAdjust="spacing" textLength="4" x="426" y="454.731">&#160;</text><text fill="#000000" font-family="sans-serif" font-size="13" lengthAdjust="spacing" textLength="11" x="430" y="469.8638">El</text><text fill="#000000" font-family="sans-serif" font-size="13" font-weight="bold" lengthAdjust="spacing" textLength="58" x="445" y="469.8638">sistema</text><text fill="#000000" font-family="sans-serif" font-size="13" lengthAdjust="spacing" textLength="99" x="507" y="469.8638">efectua el pago</text><text fill="#000000" font-family="sans-serif" font-size="13" lengthAdjust="spacing" textLength="109" x="430" y="484.9966">con el TPV virtual</text></g><!--link RealizarPago to ConfirmarReserva--><g id="link_RealizarPago_ConfirmarReserva"><path d="M360.32,575.06 C332.6,588.81 301.41,609.71 285,639 C265.69,673.47 268.985,715.1489 274.225,743.6489 " fill="none" id="RealizarPago-to-ConfirmarReserva" style="stroke:#181818;stroke-width:1.0;"/><polygon fill="#181818" points="275.31,749.55,277.6166,739.9751,274.4059,744.6324,269.7485,741.4217,275.31,749.55" style="stroke:#181818;stroke-width:1.0;"/><path d="M290,644 L290,684 L525,684 L525,654 L515,644 L290,644 " fill="#FEFFDD" style="stroke:#181818;stroke-width:0.5;"/><path d="M515,644 L515,654 L525,654 L515,644 " fill="#FEFFDD" style="stroke:#181818;stroke-width:0.5;"/><text fill="#000000" font-family="sans-serif" font-size="13" lengthAdjust="spacing" textLength="11" x="296" y="661.0669">El</text><text fill="#000000" font-family="sans-serif" font-size="13" font-weight="bold" lengthAdjust="spacing" textLength="58" x="311" y="661.0669">sistema</text><text fill="#000000" font-family="sans-serif" font-size="13" lengthAdjust="spacing" textLength="133" x="373" y="661.0669">muestra un mensaje</text><text fill="#000000" font-family="sans-serif" font-size="13" lengthAdjust="spacing" textLength="117" x="296" y="676.1997">de confirmaci&#243;n al</text><text fill="#000000" font-family="sans-serif" font-size="13" font-weight="bold" lengthAdjust="spacing" textLength="54" x="417" y="676.1997">usuario</text></g><!--link RealizarPago to NotificarPagoFallido--><g id="link_RealizarPago_NotificarPagoFallido"><path d="M463.89,578.38 C488.29,592.87 516.3,613.43 534,639 C557.33,672.7 564.9501,714.7701 567.8401,743.5301 " fill="none" id="RealizarPago-to-NotificarPagoFallido" style="stroke:#FF0000;stroke-width:1.0;"/><polygon fill="#FF0000" points="568.44,749.5,571.5201,740.1452,567.9401,744.5251,563.5602,740.945,568.44,749.5" style="stroke:#FF0000;stroke-width:1.0;"/><path d="M561,644 L561,684 L765,684 L765,654 L755,644 L561,644 " fill="#FEFFDD" style="stroke:#181818;stroke-width:0.5;"/><path d="M755,644 L755,654 L765,654 L755,644 " fill="#FEFFDD" style="stroke:#181818;stroke-width:0.5;"/><text fill="#000000" font-family="sans-serif" font-size="13" lengthAdjust="spacing" textLength="11" x="567" y="661.0669">El</text><text fill="#000000" font-family="sans-serif" font-size="13" font-weight="bold" lengthAdjust="spacing" textLength="58" x="582" y="661.0669">sistema</text><text fill="#000000" font-family="sans-serif" font-size="13" lengthAdjust="spacing" textLength="74" x="644" y="661.0669">muestra un</text><text fill="#000000" font-family="sans-serif" font-size="13" lengthAdjust="spacing" textLength="125" x="567" y="676.1997">mensaje de error al</text><text fill="#000000" font-family="sans-serif" font-size="13" font-weight="bold" lengthAdjust="spacing" textLength="54" x="696" y="676.1997">usuario</text></g><!--link NotificarPagoFallido to *end*--><g id="link_NotificarPagoFallido_*end*"><path d="M569.35,800.29 C567.43,829.29 560.47,877.99 536,911 C507.52,949.41 457.2153,969.2522 434.0753,976.9222 " fill="none" id="NotificarPagoFallido-to-*end*" style="stroke:#FF0000;stroke-width:1.0;"/><polygon fill="#FF0000" points="428.38,978.81,438.1814,979.7752,433.1261,977.2369,435.6644,972.1815,428.38,978.81" style="stroke:#FF0000;stroke-width:1.0;"/></g><!--link ConfirmarReserva to *end*--><g id="link_ConfirmarReserva_*end*"><path d="M282.49,800.28 C285.32,829.03 293.47,877.28 317,911 C341.04,945.45 381.9813,966.3464 402.4313,975.3764 " fill="none" id="ConfirmarReserva-to-*end*" style="stroke:#181818;stroke-width:1.0;"/><polygon fill="#181818" points="407.92,977.8,401.3027,970.5054,403.3461,975.7803,398.0712,977.8237,407.92,977.8" style="stroke:#181818;stroke-width:1.0;"/><path d="M322,866 L322,906 L527,906 L527,876 L517,866 L322,866 " fill="#FEFFDD" style="stroke:#181818;stroke-width:0.5;"/><path d="M517,866 L517,876 L527,876 L517,866 " fill="#FEFFDD" style="stroke:#181818;stroke-width:0.5;"/><text fill="#000000" font-family="sans-serif" font-size="13" lengthAdjust="spacing" textLength="11" x="328" y="883.0669">El</text><text fill="#000000" font-family="sans-serif" font-size="13" font-weight="bold" lengthAdjust="spacing" textLength="58" x="343" y="883.0669">sistema</text><text fill="#000000" font-family="sans-serif" font-size="13" lengthAdjust="spacing" textLength="107" x="405" y="883.0669">a&#241;ade la reserva</text><text fill="#000000" font-family="sans-serif" font-size="13" lengthAdjust="spacing" textLength="94" x="328" y="898.1997">a la cuenta del</text><text fill="#000000" font-family="sans-serif" font-size="13" font-weight="bold" lengthAdjust="spacing" textLength="54" x="426" y="898.1997">usuario</text></g><!--SRC=[VP4zJWCn48Lxds8aEakv00K52NI9el3JH2a6xsnmyDemjYcu4IMYezsBCNO290kXMy_pllVDyrAlO3GwWocbq8G9pN4TrFwXglA1F0x-FFWGbG-9m56R8BG3wIAAH178mNXo0ms1qlhWYjQAV0F5GnqFkaRUKC9jLF3Wh7zGSE4WnuniWsIOi2Puof80NVzQV4hSOt7A4Ld9NElfZr8oJc5dV40n2AqW2q9dNv1h7mSKMaymXGYJdQLO0OnWrdzqn3Nf2xwEGtV795C7rpPbLy1aV4dc7ilTCJRPs0QREXxtxurTLvChMcUkGjrRwsYbsqx8WLeoAMCfkQohm0XR2PZVmhDbaTpUTlkRo6gocwpQMkwG5nI9dn46DG_pkamnCKBsq96Fk2cT5qQpCpAsV_U0vQ_T-npqEo1OdZ0rA-6OXMHRQxR29JfdvQL-F_aH5FKD8oJ47FWumPz9UoHBlLBgLosrh2BzYuJz6mg1G-3jVmgmd4mcdx2-_5zGdm00]--></g></svg>