<svg xmlns="http://www.w3.org/2000/svg" xmlns:xlink="http://www.w3.org/1999/xlink" contentStyleType="text/css" height="638px" preserveAspectRatio="none" style="width:1411px;height:638px;background:#FFFFFF;" version="1.1" viewBox="0 0 1411 638" width="1411px" zoomAndPan="magnify"><defs/><g><ellipse cx="494" cy="16" fill="#222222" rx="10" ry="10" style="stroke:#222222;stroke-width:1.0;"/><g id="MetodoDePago"><rect fill="#F1F1F1" height="50" rx="12.5" ry="12.5" style="stroke:#181818;stroke-width:0.5;" width="128" x="430" y="97.26"/><line style="stroke:#181818;stroke-width:0.5;" x1="430" x2="558" y1="123.5569" y2="123.5569"/><text fill="#000000" font-family="sans-serif" font-size="14" lengthAdjust="spacing" textLength="108" x="440" y="115.2551">MetodoDePago</text></g><g id="elem_GMN5"><path d="M593.5,87 L593.5,118.26 L558.37,122.26 L593.5,126.26 L593.5,157.5313 A0,0 0 0 0 593.5,157.5313 L784.5,157.5313 A0,0 0 0 0 784.5,157.5313 L784.5,97 L774.5,87 L593.5,87 A0,0 0 0 0 593.5,87 " fill="#FEFFDD" style="stroke:#181818;stroke-width:0.5;"/><path d="M774.5,87 L774.5,97 L784.5,97 L774.5,87 " fill="#FEFFDD" style="stroke:#181818;stroke-width:0.5;"/><text fill="#000000" font-family="sans-serif" font-size="13" lengthAdjust="spacing" textLength="140" x="599.5" y="104.0669">El usuario escoge que</text><text fill="#000000" font-family="sans-serif" font-size="13" lengthAdjust="spacing" textLength="138" x="599.5" y="119.1997">m&#233;todo de pago usar</text><text fill="#000000" font-family="sans-serif" font-size="13" lengthAdjust="spacing" textLength="4" x="599.5" y="134.3325">&#160;</text><text fill="#000000" font-family="sans-serif" font-size="13" font-weight="bold" lengthAdjust="spacing" textLength="170" x="599.5" y="149.4653">M&#233;todo de Pago: Bono</text></g><g id="RealizarPago"><rect fill="#F1F1F1" height="50" rx="12.5" ry="12.5" style="stroke:#181818;stroke-width:0.5;" width="109" x="439.5" y="285.23"/><line style="stroke:#181818;stroke-width:0.5;" x1="439.5" x2="548.5" y1="311.5269" y2="311.5269"/><text fill="#000000" font-family="sans-serif" font-size="14" lengthAdjust="spacing" textLength="89" x="449.5" y="303.2251">RealizarPago</text></g><g id="elem_GMN10"><path d="M584,282.53 L584,306.23 L548.69,310.23 L584,314.23 L584,337.9284 A0,0 0 0 0 584,337.9284 L804,337.9284 A0,0 0 0 0 804,337.9284 L804,292.53 L794,282.53 L584,282.53 A0,0 0 0 0 584,282.53 " fill="#FEFFDD" style="stroke:#181818;stroke-width:0.5;"/><path d="M794,282.53 L794,292.53 L804,292.53 L794,282.53 " fill="#FEFFDD" style="stroke:#181818;stroke-width:0.5;"/><text fill="#000000" font-family="sans-serif" font-size="13" lengthAdjust="spacing" textLength="195" x="590" y="299.5969">Se deducen autom&#225;ticamente</text><text fill="#000000" font-family="sans-serif" font-size="13" lengthAdjust="spacing" textLength="180" x="590" y="314.7297">los fondos correspondientes</text><text fill="#000000" font-family="sans-serif" font-size="13" lengthAdjust="spacing" textLength="133" x="590" y="329.8625">al valor de la reserva</text></g><g id="ConfirmarReserva"><rect fill="#F1F1F1" height="50" rx="12.5" ry="12.5" style="stroke:#181818;stroke-width:0.5;" width="142" x="241" y="425.19"/><line style="stroke:#181818;stroke-width:0.5;" x1="241" x2="383" y1="451.4869" y2="451.4869"/><text fill="#000000" font-family="sans-serif" font-size="14" lengthAdjust="spacing" textLength="122" x="251" y="443.1851">ConfirmarReserva</text></g><g id="elem_GMN15"><path d="M6,414.93 L6,485.4613 A0,0 0 0 0 6,485.4613 L206,485.4613 A0,0 0 0 0 206,485.4613 L206,454.19 L240.9,450.19 L206,446.19 L206,424.93 L196,414.93 L6,414.93 A0,0 0 0 0 6,414.93 " fill="#FEFFDD" style="stroke:#181818;stroke-width:0.5;"/><path d="M196,414.93 L196,424.93 L206,424.93 L196,414.93 " fill="#FEFFDD" style="stroke:#181818;stroke-width:0.5;"/><text fill="#000000" font-family="sans-serif" font-size="13" lengthAdjust="spacing" textLength="145" x="12" y="431.9969">Despu&#233;s de verificar el</text><text fill="#000000" font-family="sans-serif" font-size="13" lengthAdjust="spacing" textLength="136" x="12" y="447.1297">pago, se le env&#237;a una</text><text fill="#000000" font-family="sans-serif" font-size="13" lengthAdjust="spacing" textLength="175" x="12" y="462.2625">notificaci&#243;n con el resumen</text><text fill="#000000" font-family="sans-serif" font-size="13" lengthAdjust="spacing" textLength="149" x="12" y="477.3953">de la reserva al usuario</text></g><g id="NotificarPagoFallido"><rect fill="#F1F1F1" height="50" rx="12.5" ry="12.5" style="stroke:#181818;stroke-width:0.5;" width="153" x="417.5" y="425.19"/><line style="stroke:#181818;stroke-width:0.5;" x1="417.5" x2="570.5" y1="451.4869" y2="451.4869"/><text fill="#000000" font-family="sans-serif" font-size="14" lengthAdjust="spacing" textLength="133" x="427.5" y="443.1851">NotificarPagoFallido</text></g><g id="elem_GMN20"><path d="M605.5,414.93 L605.5,446.19 L570.88,450.19 L605.5,454.19 L605.5,485.4613 A0,0 0 0 0 605.5,485.4613 L862.5,485.4613 A0,0 0 0 0 862.5,485.4613 L862.5,424.93 L852.5,414.93 L605.5,414.93 A0,0 0 0 0 605.5,414.93 " fill="#FEFFDD" style="stroke:#181818;stroke-width:0.5;"/><path d="M852.5,414.93 L852.5,424.93 L862.5,424.93 L852.5,414.93 " fill="#FEFFDD" style="stroke:#181818;stroke-width:0.5;"/><text fill="#000000" font-family="sans-serif" font-size="13" lengthAdjust="spacing" textLength="144" x="611.5" y="431.9969">El sistema muestra un</text><text fill="#000000" font-family="sans-serif" font-size="13" lengthAdjust="spacing" textLength="180" x="611.5" y="447.1297">mensaje de error al usuario,</text><text fill="#000000" font-family="sans-serif" font-size="13" lengthAdjust="spacing" textLength="196" x="611.5" y="462.2625">quien recibe la recomendaci&#243;n</text><text fill="#000000" font-family="sans-serif" font-size="13" lengthAdjust="spacing" textLength="236" x="611.5" y="477.3953">de intentarlo nuevamente m&#225;s tarde</text></g><g id="NotificarFondosInsuficientes"><rect fill="#F1F1F1" height="50" rx="12.5" ry="12.5" style="stroke:#181818;stroke-width:0.5;" width="214" x="897" y="425.19"/><line style="stroke:#181818;stroke-width:0.5;" x1="897" x2="1111" y1="451.4869" y2="451.4869"/><text fill="#000000" font-family="sans-serif" font-size="14" lengthAdjust="spacing" textLength="194" x="907" y="443.1851">NotificarFondosInsuficientes</text></g><g id="elem_GMN25"><path d="M1146,422.5 L1146,446.19 L1111.45,450.19 L1146,454.19 L1146,477.8984 A0,0 0 0 0 1146,477.8984 L1404,477.8984 A0,0 0 0 0 1404,477.8984 L1404,432.5 L1394,422.5 L1146,422.5 A0,0 0 0 0 1146,422.5 " fill="#FEFFDD" style="stroke:#181818;stroke-width:0.5;"/><path d="M1394,422.5 L1394,432.5 L1404,432.5 L1394,422.5 " fill="#FEFFDD" style="stroke:#181818;stroke-width:0.5;"/><text fill="#000000" font-family="sans-serif" font-size="13" lengthAdjust="spacing" textLength="144" x="1152" y="439.5669">El sistema muestra un</text><text fill="#000000" font-family="sans-serif" font-size="13" lengthAdjust="spacing" textLength="162" x="1152" y="454.6997">error al usuario indicando</text><text fill="#000000" font-family="sans-serif" font-size="13" lengthAdjust="spacing" textLength="237" x="1152" y="469.8325">que no dispone de suficientes fondos</text></g><ellipse cx="494" cy="621.46" fill="none" rx="11" ry="11" style="stroke:#222222;stroke-width:1.0;"/><ellipse cx="494" cy="621.46" fill="#222222" rx="6" ry="6" style="stroke:#222222;stroke-width:1.0;"/><!--link *start* to MetodoDePago--><g id="link_*start*_MetodoDePago"><path d="M494,26.25 C494,42 494,68.5 494,91.08 " fill="none" id="*start*-to-MetodoDePago" style="stroke:#181818;stroke-width:1.0;"/><polygon fill="#181818" points="494,97.08,498,88.08,494,92.08,490,88.08,494,97.08" style="stroke:#181818;stroke-width:1.0;"/></g><!--link MetodoDePago to RealizarPago--><g id="link_MetodoDePago_RealizarPago"><path d="M494,147.58 C494,183.22 494,243.27 494,278.91 " fill="none" id="MetodoDePago-to-RealizarPago" style="stroke:#181818;stroke-width:1.0;"/><polygon fill="#181818" points="494,284.91,498,275.91,494,279.91,490,275.91,494,284.91" style="stroke:#181818;stroke-width:1.0;"/><path d="M499,192.53 L499,247.53 L680,247.53 L680,202.53 L670,192.53 L499,192.53 " fill="#FEFFDD" style="stroke:#181818;stroke-width:0.5;"/><path d="M670,192.53 L670,202.53 L680,202.53 L670,192.53 " fill="#FEFFDD" style="stroke:#181818;stroke-width:0.5;"/><text fill="#000000" font-family="sans-serif" font-size="13" lengthAdjust="spacing" textLength="160" x="505" y="209.5969">Se verifica que el usuario</text><text fill="#000000" font-family="sans-serif" font-size="13" lengthAdjust="spacing" textLength="158" x="505" y="224.7297">posea fondos suficientes</text><text fill="#000000" font-family="sans-serif" font-size="13" lengthAdjust="spacing" textLength="131" x="505" y="239.8625">para realizar el pago</text></g><!--link RealizarPago to ConfirmarReserva--><g id="link_RealizarPago_ConfirmarReserva"><path d="M450.8,335.63 C435.03,345.12 417.31,356.45 402,367.93 C378.59,385.48 358.3945,403.7708 340.8645,420.6308 " fill="none" id="RealizarPago-to-ConfirmarReserva" style="stroke:#181818;stroke-width:1.0;"/><polygon fill="#181818" points="336.54,424.79,345.7995,421.4342,340.1437,421.324,340.2539,415.6682,336.54,424.79" style="stroke:#181818;stroke-width:1.0;"/><text fill="#000000" font-family="sans-serif" font-size="13" lengthAdjust="spacing" textLength="82" x="403" y="380.9969">Pago exitoso</text></g><!--link RealizarPago to NotificarPagoFallido--><g id="link_RealizarPago_NotificarPagoFallido"><path d="M494,335.58 C494,360.8 494,393.96 494,419.09 " fill="none" id="RealizarPago-to-NotificarPagoFallido" style="stroke:#181818;stroke-width:1.0;"/><polygon fill="#181818" points="494,425.09,498,416.09,494,420.09,490,416.09,494,425.09" style="stroke:#181818;stroke-width:1.0;"/><text fill="#000000" font-family="sans-serif" font-size="13" lengthAdjust="spacing" textLength="73" x="495" y="380.9969">Pago fallido</text></g><!--link RealizarPago to NotificarFondosInsuficientes--><g id="link_RealizarPago_NotificarFondosInsuficientes"><path d="M548.81,332.29 C554.59,334.29 560.39,336.21 566,337.93 C703.37,380.09 740.96,378.68 880,414.93 C891.89,418.03 898.6009,419.8033 910.9009,423.1533 " fill="none" id="RealizarPago-to-NotificarFondosInsuficientes" style="stroke:#181818;stroke-width:1.0;"/><polygon fill="#181818" points="916.69,424.73,909.0575,418.5055,911.8657,423.4161,906.9552,426.2243,916.69,424.73" style="stroke:#181818;stroke-width:1.0;"/><text fill="#000000" font-family="sans-serif" font-size="13" lengthAdjust="spacing" textLength="129" x="749" y="380.9969">Fondos insuficientes</text></g><!--link NotificarPagoFallido to *end*--><g id="link_NotificarPagoFallido_*end*"><path d="M494,475.45 C494,513.11 494,578.06 494,604.34 " fill="none" id="NotificarPagoFallido-to-*end*" style="stroke:#181818;stroke-width:1.0;"/><polygon fill="#181818" points="494,610.34,498,601.34,494,605.34,490,601.34,494,610.34" style="stroke:#181818;stroke-width:1.0;"/></g><!--link NotificarFondosInsuficientes to *end*--><g id="link_NotificarFondosInsuficientes_*end*"><path d="M930.39,475.63 C804.88,517.28 563.5047,597.3903 510.0447,615.1303 " fill="none" id="NotificarFondosInsuficientes-to-*end*" style="stroke:#181818;stroke-width:1.0;"/><polygon fill="#181818" points="504.35,617.02,514.1518,617.9819,509.0955,615.4453,511.6322,610.389,504.35,617.02" style="stroke:#181818;stroke-width:1.0;"/></g><!--link ConfirmarReserva to *end*--><g id="link_ConfirmarReserva_*end*"><path d="M314.09,475.48 C317.88,504.48 328.49,552.55 358,580.46 C393.94,614.45 451.2822,619.5557 476.8422,620.2557 " fill="none" id="ConfirmarReserva-to-*end*" style="stroke:#181818;stroke-width:1.0;"/><polygon fill="#181818" points="482.84,620.42,473.9529,616.1751,477.8419,620.2831,473.7339,624.1721,482.84,620.42" style="stroke:#181818;stroke-width:1.0;"/><path d="M363,520.46 L363,575.46 L481,575.46 L481,530.46 L471,520.46 L363,520.46 " fill="#FEFFDD" style="stroke:#181818;stroke-width:0.5;"/><path d="M471,520.46 L471,530.46 L481,530.46 L471,520.46 " fill="#FEFFDD" style="stroke:#181818;stroke-width:0.5;"/><text fill="#000000" font-family="sans-serif" font-size="13" lengthAdjust="spacing" textLength="93" x="369" y="537.5269">A&#241;adir reserva</text><text fill="#000000" font-family="sans-serif" font-size="13" lengthAdjust="spacing" textLength="84" x="369" y="552.6597">a horarios de</text><text fill="#000000" font-family="sans-serif" font-size="13" lengthAdjust="spacing" textLength="46" x="369" y="567.7925">la pista</text></g><!--SRC=[ZPCnRjqm38PtdOApaLmWGu6cQO0EAOfa33Am5lsYLXOTIZAAtgPZXWv5Z-2BbPATPx_NbwAZH8h__v7KVVC0v-Tlu8OIMxwYJxXZ4pWHYDiz9k3kC0JlFUIOKHm3nPPt14-Pm40_FPSqi0I39ceIYj7xfhbP8wN41LnouAOn52mK9MEs2jNDBQ5ttr5MDnp0k_3Lt16C9AvpBLPXsjin0qT2w3XOZX2pfZWAYQ8PK11aALbU58Eh_27jWRIgMRAvfG2O4_VJZwJ2VIaBnglCejQo2CL13xCa6FGmecSfrBweHv8HDynRdShyZaFdf4UvdNFXehOBw9jB79SsUEggo-Da0rUgdwVdM0HVEbHXJSKzWrXU0uLn-ecG0sf0IzQyras_WqA4agzMin9g-C0wuDhfVr1yN4hMcslqtkda5v9kFXur_DIBkcRHnKGzGfyf9YcUovfHYFYbZ0L8HFkxsZhJy5FM0QZbrdrUpBUiJ-o2M9cSJYWa5CyGCetBE7Ms4VJMqd_XNTV1VmYRFLFC-LOLjklt2kw92gzZ7xEgXDKYMg52a_e5wye6rjPiNSqhke4wEQ82TzyyRAAd2FTPVothI-JWiyBRwHTQ9_iTCe3mo588wgAQCgD1WTUVyGS0]--></g></svg>