<svg xmlns="http://www.w3.org/2000/svg" xmlns:xlink="http://www.w3.org/1999/xlink" contentStyleType="text/css" height="837px" preserveAspectRatio="none" style="width:881px;height:837px;background:#FFFFFF;" version="1.1" viewBox="0 0 881 837" width="881px" zoomAndPan="magnify"><defs/><g><ellipse cx="331" cy="16" fill="#222222" rx="10" ry="10" style="stroke:#222222;stroke-width:1.0;"/><g id="MetodoDePago"><rect fill="#F1F1F1" height="50" rx="12.5" ry="12.5" style="stroke:#181818;stroke-width:0.5;" width="128" x="267" y="87"/><line style="stroke:#181818;stroke-width:0.5;" x1="267" x2="395" y1="113.2969" y2="113.2969"/><text fill="#000000" font-family="sans-serif" font-size="14" lengthAdjust="spacing" textLength="108" x="277" y="104.9951">MetodoDePago</text></g><g id="PagarConBonos"><rect fill="#F1F1F1" height="50" rx="12.5" ry="12.5" style="stroke:#181818;stroke-width:0.5;" width="132" x="181" y="277"/><line style="stroke:#181818;stroke-width:0.5;" x1="181" x2="313" y1="303.2969" y2="303.2969"/><text fill="#000000" font-family="sans-serif" font-size="14" lengthAdjust="spacing" textLength="112" x="191" y="294.9951">PagarConBonos</text></g><g id="elem_GMN7"><path d="M6,281.87 L6,322.1356 A0,0 0 0 0 6,322.1356 L146,322.1356 A0,0 0 0 0 146,322.1356 L146,306 L180.63,302 L146,298 L146,291.87 L136,281.87 L6,281.87 A0,0 0 0 0 6,281.87 " fill="#FEFFDD" style="stroke:#181818;stroke-width:0.5;"/><path d="M136,281.87 L136,291.87 L146,291.87 L136,281.87 " fill="#FEFFDD" style="stroke:#181818;stroke-width:0.5;"/><text fill="#000000" font-family="sans-serif" font-size="13" lengthAdjust="spacing" textLength="115" x="12" y="298.9369">Este es el CDU de</text><text fill="#000000" font-family="sans-serif" font-size="13" font-weight="bold" lengthAdjust="spacing" textLength="117" x="12" y="314.0697">PagarConBonos</text></g><g id="PagarConTarjeta"><rect fill="#F1F1F1" height="50" rx="12.5" ry="12.5" style="stroke:#181818;stroke-width:0.5;" width="134" x="348" y="277"/><line style="stroke:#181818;stroke-width:0.5;" x1="348" x2="482" y1="303.2969" y2="303.2969"/><text fill="#000000" font-family="sans-serif" font-size="14" lengthAdjust="spacing" textLength="114" x="358" y="294.9951">PagarConTarjeta</text></g><g id="RealizarPago"><rect fill="#F1F1F1" height="50" rx="12.5" ry="12.5" style="stroke:#181818;stroke-width:0.5;" width="109" x="360.5" y="484.7"/><line style="stroke:#181818;stroke-width:0.5;" x1="360.5" x2="469.5" y1="510.9969" y2="510.9969"/><text fill="#000000" font-family="sans-serif" font-size="14" lengthAdjust="spacing" textLength="89" x="370.5" y="502.6951">RealizarPago</text></g><g id="elem_GMN14"><path d="M504.5,482 L504.5,505.7 L469.69,509.7 L504.5,513.7 L504.5,537.3984 A0,0 0 0 0 504.5,537.3984 L691.5,537.3984 A0,0 0 0 0 691.5,537.3984 L691.5,492 L681.5,482 L504.5,482 A0,0 0 0 0 504.5,482 " fill="#FEFFDD" style="stroke:#181818;stroke-width:0.5;"/><path d="M681.5,482 L681.5,492 L691.5,492 L681.5,482 " fill="#FEFFDD" style="stroke:#181818;stroke-width:0.5;"/><text fill="#000000" font-family="sans-serif" font-size="13" lengthAdjust="spacing" textLength="162" x="510.5" y="499.0669">Se efect&#250;a el pago con el</text><text fill="#000000" font-family="sans-serif" font-size="13" lengthAdjust="spacing" textLength="157" x="510.5" y="514.1997">TPV virtual para efectuar</text><text fill="#000000" font-family="sans-serif" font-size="13" lengthAdjust="spacing" textLength="47" x="510.5" y="529.3325">el pago</text></g><g id="ConfirmarReserva"><rect fill="#F1F1F1" height="50" rx="12.5" ry="12.5" style="stroke:#181818;stroke-width:0.5;" width="142" x="253" y="624.66"/><line style="stroke:#181818;stroke-width:0.5;" x1="253" x2="395" y1="650.9569" y2="650.9569"/><text fill="#000000" font-family="sans-serif" font-size="14" lengthAdjust="spacing" textLength="122" x="263" y="642.6551">ConfirmarReserva</text></g><g id="elem_GMN19"><path d="M18,614.4 L18,684.9313 A0,0 0 0 0 18,684.9313 L218,684.9313 A0,0 0 0 0 218,684.9313 L218,653.66 L252.9,649.66 L218,645.66 L218,624.4 L208,614.4 L18,614.4 A0,0 0 0 0 18,614.4 " fill="#FEFFDD" style="stroke:#181818;stroke-width:0.5;"/><path d="M208,614.4 L208,624.4 L218,624.4 L208,614.4 " fill="#FEFFDD" style="stroke:#181818;stroke-width:0.5;"/><text fill="#000000" font-family="sans-serif" font-size="13" lengthAdjust="spacing" textLength="145" x="24" y="631.4669">Despu&#233;s de verificar el</text><text fill="#000000" font-family="sans-serif" font-size="13" lengthAdjust="spacing" textLength="136" x="24" y="646.5997">pago, se le env&#237;a una</text><text fill="#000000" font-family="sans-serif" font-size="13" lengthAdjust="spacing" textLength="175" x="24" y="661.7325">notificaci&#243;n con el resumen</text><text fill="#000000" font-family="sans-serif" font-size="13" lengthAdjust="spacing" textLength="149" x="24" y="676.8653">de la reserva al usuario</text></g><g id="NotificarPagoFallido"><rect fill="#F1F1F1" height="50" rx="12.5" ry="12.5" style="stroke:#181818;stroke-width:0.5;" width="153" x="429.5" y="624.66"/><line style="stroke:#181818;stroke-width:0.5;" x1="429.5" x2="582.5" y1="650.9569" y2="650.9569"/><text fill="#000000" font-family="sans-serif" font-size="14" lengthAdjust="spacing" textLength="133" x="439.5" y="642.6551">NotificarPagoFallido</text></g><g id="elem_GMN24"><path d="M617.5,614.4 L617.5,645.66 L582.87,649.66 L617.5,653.66 L617.5,684.9313 A0,0 0 0 0 617.5,684.9313 L874.5,684.9313 A0,0 0 0 0 874.5,684.9313 L874.5,624.4 L864.5,614.4 L617.5,614.4 A0,0 0 0 0 617.5,614.4 " fill="#FEFFDD" style="stroke:#181818;stroke-width:0.5;"/><path d="M864.5,614.4 L864.5,624.4 L874.5,624.4 L864.5,614.4 " fill="#FEFFDD" style="stroke:#181818;stroke-width:0.5;"/><text fill="#000000" font-family="sans-serif" font-size="13" lengthAdjust="spacing" textLength="144" x="623.5" y="631.4669">El sistema muestra un</text><text fill="#000000" font-family="sans-serif" font-size="13" lengthAdjust="spacing" textLength="180" x="623.5" y="646.5997">mensaje de error al usuario,</text><text fill="#000000" font-family="sans-serif" font-size="13" lengthAdjust="spacing" textLength="196" x="623.5" y="661.7325">quien recibe la recomendaci&#243;n</text><text fill="#000000" font-family="sans-serif" font-size="13" lengthAdjust="spacing" textLength="236" x="623.5" y="676.8653">de intentarlo nuevamente m&#225;s tarde</text></g><ellipse cx="414" cy="820.93" fill="none" rx="11" ry="11" style="stroke:#222222;stroke-width:1.0;"/><ellipse cx="414" cy="820.93" fill="#222222" rx="6" ry="6" style="stroke:#222222;stroke-width:1.0;"/><!--link *start* to MetodoDePago--><g id="link_*start*_MetodoDePago"><path d="M331,26.36 C331,40.29 331,60.95 331,80.65 " fill="none" id="*start*-to-MetodoDePago" style="stroke:#181818;stroke-width:1.0;"/><polygon fill="#181818" points="331,86.65,335,77.65,331,81.65,327,77.65,331,86.65" style="stroke:#181818;stroke-width:1.0;"/></g><!--link MetodoDePago to PagarConBonos--><g id="link_MetodoDePago_PagarConBonos"><path d="M320.19,137.19 C304.11,173.19 276.4878,235.002 260.3478,271.122 " fill="none" id="MetodoDePago-to-PagarConBonos" style="stroke:#181818;stroke-width:1.0;"/><polygon fill="#181818" points="257.9,276.6,265.2237,270.0149,259.9398,272.035,257.9197,266.7512,257.9,276.6" style="stroke:#181818;stroke-width:1.0;"/></g><!--link MetodoDePago to PagarConTarjeta--><g id="link_MetodoDePago_PagarConTarjeta"><path d="M341.81,137.19 C357.89,173.19 385.5122,235.002 401.6522,271.122 " fill="none" id="MetodoDePago-to-PagarConTarjeta" style="stroke:#181818;stroke-width:1.0;"/><polygon fill="#181818" points="404.1,276.6,404.0803,266.7512,402.0602,272.035,396.7763,270.0149,404.1,276.6" style="stroke:#181818;stroke-width:1.0;"/><path d="M396,172 L396,242 L601,242 L601,182 L591,172 L396,172 " fill="#FEFFDD" style="stroke:#181818;stroke-width:0.5;"/><path d="M591,172 L591,182 L601,182 L591,172 " fill="#FEFFDD" style="stroke:#181818;stroke-width:0.5;"/><text fill="#000000" font-family="sans-serif" font-size="13" lengthAdjust="spacing" textLength="140" x="402" y="189.0669">El usuario escoge que</text><text fill="#000000" font-family="sans-serif" font-size="13" lengthAdjust="spacing" textLength="138" x="402" y="204.1997">m&#233;todo de pago usar</text><text fill="#000000" font-family="sans-serif" font-size="13" lengthAdjust="spacing" textLength="4" x="402" y="219.3325">&#160;</text><text fill="#000000" font-family="sans-serif" font-size="13" font-weight="bold" lengthAdjust="spacing" textLength="184" x="402" y="234.4653">M&#233;todo de Pago: Tarjeta</text></g><!--link PagarConTarjeta to RealizarPago--><g id="link_PagarConTarjeta_RealizarPago"><path d="M415,327.4 C415,366.99 415,438.76 415,478.33 " fill="none" id="PagarConTarjeta-to-RealizarPago" style="stroke:#181818;stroke-width:1.0;"/><polygon fill="#181818" points="415,484.33,419,475.33,415,479.33,411,475.33,415,484.33" style="stroke:#181818;stroke-width:1.0;"/><path d="M420,362 L420,447 L591,447 L591,372 L581,362 L420,362 " fill="#FEFFDD" style="stroke:#181818;stroke-width:0.5;"/><path d="M581,362 L581,372 L591,372 L581,362 " fill="#FEFFDD" style="stroke:#181818;stroke-width:0.5;"/><text fill="#000000" font-family="sans-serif" font-size="13" font-weight="bold" lengthAdjust="spacing" textLength="116" x="426" y="379.0669">Datos De Pago:</text><text fill="#000000" font-family="sans-serif" font-size="13" lengthAdjust="spacing" textLength="129" x="434" y="394.1997">- N&#250;mero de Tarjeta</text><text fill="#000000" font-family="sans-serif" font-size="13" lengthAdjust="spacing" textLength="127" x="434" y="409.3325">- Nombre del Titular</text><text fill="#000000" font-family="sans-serif" font-size="13" lengthAdjust="spacing" textLength="138" x="434" y="424.4653">- Fecha de Caducidad</text><text fill="#000000" font-family="sans-serif" font-size="13" lengthAdjust="spacing" textLength="142" x="434" y="439.5981">- C&#243;digo de Seguridad</text></g><!--link RealizarPago to ConfirmarReserva--><g id="link_RealizarPago_ConfirmarReserva"><path d="M390.31,535.15 C381.39,544.72 371.64,556.1 364,567.4 C351.84,585.37 343.5542,602.0784 336.3042,618.7384 " fill="none" id="RealizarPago-to-ConfirmarReserva" style="stroke:#181818;stroke-width:1.0;"/><polygon fill="#181818" points="333.91,624.24,341.169,617.5837,335.9051,619.6553,333.8335,614.3914,333.91,624.24" style="stroke:#181818;stroke-width:1.0;"/><text fill="#000000" font-family="sans-serif" font-size="13" lengthAdjust="spacing" textLength="82" x="365" y="580.4669">Pago exitoso</text></g><!--link RealizarPago to NotificarPagoFallido--><g id="link_RealizarPago_NotificarPagoFallido"><path d="M431.06,535.05 C447.69,560.27 470.2271,594.4209 486.7971,619.5509 " fill="none" id="RealizarPago-to-NotificarPagoFallido" style="stroke:#181818;stroke-width:1.0;"/><polygon fill="#181818" points="490.1,624.56,488.4851,614.8444,487.3476,620.3857,481.8063,619.2483,490.1,624.56" style="stroke:#181818;stroke-width:1.0;"/><text fill="#000000" font-family="sans-serif" font-size="13" lengthAdjust="spacing" textLength="73" x="465" y="580.4669">Pago fallido</text></g><!--link NotificarPagoFallido to *end*--><g id="link_NotificarPagoFallido_*end*"><path d="M505.68,675.01 C504.19,702.77 498.2,748.37 476,779.93 C462.88,798.58 443.5937,808.3838 429.6737,814.0038 " fill="none" id="NotificarPagoFallido-to-*end*" style="stroke:#181818;stroke-width:1.0;"/><polygon fill="#181818" points="424.11,816.25,433.953,816.5897,428.7464,814.3781,430.958,809.1715,424.11,816.25" style="stroke:#181818;stroke-width:1.0;"/></g><!--link ConfirmarReserva to *end*--><g id="link_ConfirmarReserva_*end*"><path d="M321.79,675.09 C320.53,702.92 322.44,748.59 344,779.93 C358.36,800.8 381.6758,810.394 397.4558,815.254 " fill="none" id="ConfirmarReserva-to-*end*" style="stroke:#181818;stroke-width:1.0;"/><polygon fill="#181818" points="403.19,817.02,395.7661,810.5481,398.4115,815.5483,393.4113,818.1937,403.19,817.02" style="stroke:#181818;stroke-width:1.0;"/><path d="M349,719.93 L349,774.93 L467,774.93 L467,729.93 L457,719.93 L349,719.93 " fill="#FEFFDD" style="stroke:#181818;stroke-width:0.5;"/><path d="M457,719.93 L457,729.93 L467,729.93 L457,719.93 " fill="#FEFFDD" style="stroke:#181818;stroke-width:0.5;"/><text fill="#000000" font-family="sans-serif" font-size="13" lengthAdjust="spacing" textLength="93" x="355" y="736.9969">A&#241;adir reserva</text><text fill="#000000" font-family="sans-serif" font-size="13" lengthAdjust="spacing" textLength="84" x="355" y="752.1297">a horarios de</text><text fill="#000000" font-family="sans-serif" font-size="13" lengthAdjust="spacing" textLength="46" x="355" y="767.2625">la pista</text></g><!--SRC=[VLEzRjim4Dxv53SJyGjaAD3QoPOWIDqkGOQBUBAPKgHp98MYRzCnGuSYMrQzM8-qx4fEsasyxtZV3qzt-XuMYmzmHIcOiA8Rt0GrFLHKFf2NmNyAFaJbGo9mr2O8xGbq4GMY2EHWkVe2Xa1fFMlHMf4tK6QeVnEjaHyfuPugU73MVrDmuI37Z6o3S3HXG_2KXG6wuRdCANIxCYb7P2LrhQ_-8eNZ7CR1CnKdf5N8BQ6pFv1h7ZCLMgymXGYhSQIC0bZ0zV3Q4LUcW_XQ3jq3arGTh6tAhWYJyYKrMoozIpIviGPDBI-75sCtTSXdscIkm55ebS5siwt1pnHAEr1BJHfUiOHVOsX4idmhMDzyXTvoobWGndsh12dOs3o9OpguPY7Hj9Oxv5kAn3t2UNKEzDrA466-3wVDIeAAkpmyn-Ag9xQjROIv2YlCPn3BRI3V3xyGiaS1P6JjQ-pmuWz6c6Bko0iianoMSvM3nxNudulhSMIjNA9pLlPYTDBkZoS9ltUZBc6qikOTGfSf9YwQonAIZ_XOdXg8EV14rfd0JzcATAR6FepYco1Np6YnUh8-aK_8Be3FrAFWegSRVaQGgg69lNVT59jt-bwfDozsGER_qyVXDnhBno0L86m35ydrjLGHkXEpU6J-0m00]--></g></svg>