<svg xmlns="http://www.w3.org/2000/svg" xmlns:xlink="http://www.w3.org/1999/xlink" contentStyleType="text/css" height="734px" preserveAspectRatio="none" style="width:794px;height:734px;background:#FFFFFF;" version="1.1" viewBox="0 0 794 734" width="794px" zoomAndPan="magnify"><defs/><g><ellipse cx="329" cy="16" fill="#222222" rx="10" ry="10" style="stroke:#222222;stroke-width:1.0;"/><g id="MetodoDePago"><rect fill="#F1F1F1" height="50" rx="12.5" ry="12.5" style="stroke:#181818;stroke-width:0.5;" width="128" x="265" y="166"/><line style="stroke:#181818;stroke-width:0.5;" x1="265" x2="393" y1="192.2969" y2="192.2969"/><text fill="#000000" font-family="sans-serif" font-size="14" lengthAdjust="spacing" textLength="108" x="275" y="183.9951">MetodoDePago</text></g><g id="RealizarPago"><rect fill="#F1F1F1" height="50" rx="12.5" ry="12.5" style="stroke:#181818;stroke-width:0.5;" width="109" x="274.5" y="341"/><line style="stroke:#181818;stroke-width:0.5;" x1="274.5" x2="383.5" y1="367.2969" y2="367.2969"/><text fill="#000000" font-family="sans-serif" font-size="14" lengthAdjust="spacing" textLength="89" x="284.5" y="358.9951">RealizarPago</text></g><g id="ConfirmarReserva"><rect fill="#F1F1F1" height="50" rx="12.5" ry="12.5" style="stroke:#181818;stroke-width:0.5;" width="142" x="7" y="531"/><line style="stroke:#181818;stroke-width:0.5;" x1="7" x2="149" y1="557.2969" y2="557.2969"/><text fill="#000000" font-family="sans-serif" font-size="14" lengthAdjust="spacing" textLength="122" x="17" y="548.9951">ConfirmarReserva</text></g><g id="NotificarPagoFallido"><rect fill="#F1F1F1" height="50" rx="12.5" ry="12.5" style="stroke:#181818;stroke-width:0.5;" width="153" x="252.5" y="531"/><line style="stroke:#181818;stroke-width:0.5;" x1="252.5" x2="405.5" y1="557.2969" y2="557.2969"/><text fill="#000000" font-family="sans-serif" font-size="14" lengthAdjust="spacing" textLength="133" x="262.5" y="548.9951">NotificarPagoFallido</text></g><g id="NotificarFondosInsuficientes"><rect fill="#F1F1F1" height="50" rx="12.5" ry="12.5" style="stroke:#181818;stroke-width:0.5;" width="214" x="458" y="531"/><line style="stroke:#181818;stroke-width:0.5;" x1="458" x2="672" y1="557.2969" y2="557.2969"/><text fill="#000000" font-family="sans-serif" font-size="14" lengthAdjust="spacing" textLength="194" x="468" y="548.9951">NotificarFondosInsuficientes</text></g><ellipse cx="329" cy="717" fill="none" rx="11" ry="11" style="stroke:#222222;stroke-width:1.0;"/><ellipse cx="329" cy="717" fill="#222222" rx="6" ry="6" style="stroke:#222222;stroke-width:1.0;"/><!--link *start* to MetodoDePago--><g id="link_*start*_MetodoDePago"><path d="M329,26.3 C329,52.34 329,120.59 329,159.52 " fill="none" id="*start*-to-MetodoDePago" style="stroke:#181818;stroke-width:1.0;"/><polygon fill="#181818" points="329,165.52,333,156.52,329,160.52,325,156.52,329,165.52" style="stroke:#181818;stroke-width:1.0;"/><path d="M334,61 L334,131 L525,131 L525,71 L515,61 L334,61 " fill="#FEFFDD" style="stroke:#181818;stroke-width:0.5;"/><path d="M515,61 L515,71 L525,71 L515,61 " fill="#FEFFDD" style="stroke:#181818;stroke-width:0.5;"/><text fill="#000000" font-family="sans-serif" font-size="13" lengthAdjust="spacing" textLength="140" x="340" y="78.0669">El usuario escoge que</text><text fill="#000000" font-family="sans-serif" font-size="13" lengthAdjust="spacing" textLength="138" x="340" y="93.1997">m&#233;todo de pago usar</text><text fill="#000000" font-family="sans-serif" font-size="13" lengthAdjust="spacing" textLength="4" x="340" y="108.3325">&#160;</text><text fill="#000000" font-family="sans-serif" font-size="13" font-weight="bold" lengthAdjust="spacing" textLength="170" x="340" y="123.4653">M&#233;todo de Pago: Bono</text></g><!--link MetodoDePago to RealizarPago--><g id="link_MetodoDePago_RealizarPago"><path d="M329,216.42 C329,249.39 329,301.8 329,334.7 " fill="none" id="MetodoDePago-to-RealizarPago" style="stroke:#181818;stroke-width:1.0;"/><polygon fill="#181818" points="329,340.7,333,331.7,329,335.7,325,331.7,329,340.7" style="stroke:#181818;stroke-width:1.0;"/><path d="M334,251 L334,306 L608,306 L608,261 L598,251 L334,251 " fill="#FEFFDD" style="stroke:#181818;stroke-width:0.5;"/><path d="M598,251 L598,261 L608,261 L598,251 " fill="#FEFFDD" style="stroke:#181818;stroke-width:0.5;"/><text fill="#000000" font-family="sans-serif" font-size="13" lengthAdjust="spacing" textLength="11" x="340" y="268.0669">El</text><text fill="#000000" font-family="sans-serif" font-size="13" font-weight="bold" lengthAdjust="spacing" textLength="58" x="355" y="268.0669">sistema</text><text fill="#000000" font-family="sans-serif" font-size="13" lengthAdjust="spacing" textLength="88" x="417" y="268.0669">verifica que el</text><text fill="#000000" font-family="sans-serif" font-size="13" font-weight="bold" lengthAdjust="spacing" textLength="54" x="509" y="268.0669">usuario</text><text fill="#000000" font-family="sans-serif" font-size="13" lengthAdjust="spacing" textLength="227" x="340" y="283.1997">tenga Bonos para realizar el pago y</text><text fill="#000000" font-family="sans-serif" font-size="13" lengthAdjust="spacing" textLength="11" x="340" y="298.3325">el</text><text fill="#000000" font-family="sans-serif" font-size="13" font-weight="bold" lengthAdjust="spacing" textLength="58" x="355" y="298.3325">sistema</text><text fill="#000000" font-family="sans-serif" font-size="13" lengthAdjust="spacing" textLength="176" x="417" y="298.3325">los descuenta de su cuenta</text></g><!--link RealizarPago to ConfirmarReserva--><g id="link_RealizarPago_ConfirmarReserva"><path d="M274.19,373.03 C214.46,380.76 124.29,396.21 101,421 C73.2,450.59 71.8889,494.9301 74.3389,524.7601 " fill="none" id="RealizarPago-to-ConfirmarReserva" style="stroke:#181818;stroke-width:1.0;"/><polygon fill="#181818" points="74.83,530.74,78.0799,521.4428,74.4207,525.7568,70.1067,522.0976,74.83,530.74" style="stroke:#181818;stroke-width:1.0;"/><path d="M106,433.5 L106,488.5 L312,488.5 L312,443.5 L302,433.5 L106,433.5 " fill="#FEFFDD" style="stroke:#181818;stroke-width:0.5;"/><path d="M302,433.5 L302,443.5 L312,443.5 L302,433.5 " fill="#FEFFDD" style="stroke:#181818;stroke-width:0.5;"/><text fill="#000000" font-family="sans-serif" font-size="13" lengthAdjust="spacing" textLength="11" x="112" y="450.5669">El</text><text fill="#000000" font-family="sans-serif" font-size="13" font-weight="bold" lengthAdjust="spacing" textLength="58" x="127" y="450.5669">sistema</text><text fill="#000000" font-family="sans-serif" font-size="13" lengthAdjust="spacing" textLength="54" x="189" y="450.5669">muestra</text><text fill="#000000" font-family="sans-serif" font-size="13" lengthAdjust="spacing" textLength="181" x="112" y="465.6997">un mensaje de confirmaci&#243;n</text><text fill="#000000" font-family="sans-serif" font-size="13" lengthAdjust="spacing" textLength="11" x="112" y="480.8325">al</text><text fill="#000000" font-family="sans-serif" font-size="13" font-weight="bold" lengthAdjust="spacing" textLength="54" x="127" y="480.8325">usuario</text></g><!--link RealizarPago to NotificarPagoFallido--><g id="link_RealizarPago_NotificarPagoFallido"><path d="M327.35,391.45 C326.81,400.7 326.27,411.33 326,421 C325.01,456.54 325.01,465.46 326,501 C326.27,510.67 326.4603,515.3102 327.0003,524.5602 " fill="none" id="RealizarPago-to-NotificarPagoFallido" style="stroke:#FF0000;stroke-width:1.0;"/><polygon fill="#FF0000" points="327.35,530.55,330.8187,521.3322,327.0586,525.5585,322.8323,521.7984,327.35,530.55" style="stroke:#FF0000;stroke-width:1.0;"/><path d="M331,441 L331,481 L536,481 L536,451 L526,441 L331,441 " fill="#FEFFDD" style="stroke:#181818;stroke-width:0.5;"/><path d="M526,441 L526,451 L536,451 L526,441 " fill="#FEFFDD" style="stroke:#181818;stroke-width:0.5;"/><text fill="#000000" font-family="sans-serif" font-size="13" lengthAdjust="spacing" textLength="11" x="337" y="458.0669">El</text><text fill="#000000" font-family="sans-serif" font-size="13" font-weight="bold" lengthAdjust="spacing" textLength="58" x="352" y="458.0669">sistema</text><text fill="#000000" font-family="sans-serif" font-size="13" lengthAdjust="spacing" textLength="74" x="414" y="458.0669">muestra un</text><text fill="#000000" font-family="sans-serif" font-size="13" lengthAdjust="spacing" textLength="180" x="337" y="473.1997">mensaje de error al usuario,</text></g><!--link RealizarPago to NotificarFondosInsuficientes--><g id="link_RealizarPago_NotificarFondosInsuficientes"><path d="M383.87,373.74 C440.54,381.87 523.63,397.46 545,421 C572.11,450.87 572.494,494.8925 569.384,524.6325 " fill="none" id="RealizarPago-to-NotificarFondosInsuficientes" style="stroke:#FF0000;stroke-width:1.0;"/><polygon fill="#FF0000" points="568.76,530.6,573.6744,522.0648,569.28,525.6271,565.7177,521.2328,568.76,530.6" style="stroke:#FF0000;stroke-width:1.0;"/><path d="M575,426 L575,496 L787,496 L787,436 L777,426 L575,426 " fill="#FEFFDD" style="stroke:#181818;stroke-width:0.5;"/><path d="M777,426 L777,436 L787,436 L777,426 " fill="#FEFFDD" style="stroke:#181818;stroke-width:0.5;"/><text fill="#000000" font-family="sans-serif" font-size="13" lengthAdjust="spacing" textLength="11" x="581" y="443.0669">El</text><text fill="#000000" font-family="sans-serif" font-size="13" font-weight="bold" lengthAdjust="spacing" textLength="58" x="596" y="443.0669">sistema</text><text fill="#000000" font-family="sans-serif" font-size="13" lengthAdjust="spacing" textLength="74" x="658" y="443.0669">muestra un</text><text fill="#000000" font-family="sans-serif" font-size="13" lengthAdjust="spacing" textLength="125" x="581" y="458.1997">mensaje de error al</text><text fill="#000000" font-family="sans-serif" font-size="13" font-weight="bold" lengthAdjust="spacing" textLength="54" x="710" y="458.1997">usuario</text><text fill="#000000" font-family="sans-serif" font-size="13" lengthAdjust="spacing" textLength="4" x="764" y="458.1997">,</text><text fill="#000000" font-family="sans-serif" font-size="13" lengthAdjust="spacing" textLength="145" x="581" y="473.3325">indicando que no tiene</text><text fill="#000000" font-family="sans-serif" font-size="13" lengthAdjust="spacing" textLength="115" x="581" y="488.4653">suficientes fondos</text></g><!--link NotificarPagoFallido to *end*--><g id="link_NotificarPagoFallido_*end*"><path d="M329,581.5 C329,616.86 329,674.72 329,699.64 " fill="none" id="NotificarPagoFallido-to-*end*" style="stroke:#FF0000;stroke-width:1.0;"/><polygon fill="#FF0000" points="329,705.64,333,696.64,329,700.64,325,696.64,329,705.64" style="stroke:#FF0000;stroke-width:1.0;"/></g><!--link NotificarFondosInsuficientes to *end*--><g id="link_NotificarFondosInsuficientes_*end*"><path d="M528.64,581.5 C472.79,619.13 374.036,685.6574 342.986,706.5774 " fill="none" id="NotificarFondosInsuficientes-to-*end*" style="stroke:#FF0000;stroke-width:1.0;"/><polygon fill="#FF0000" points="338.01,709.93,347.709,708.2185,342.1566,707.1362,343.2389,701.5838,338.01,709.93" style="stroke:#FF0000;stroke-width:1.0;"/></g><!--link ConfirmarReserva to *end*--><g id="link_ConfirmarReserva_*end*"><path d="M76.47,581.31 C76.2,608.41 80.27,651.62 106,676 C137.12,705.49 270.9559,713.4943 311.7859,715.3043 " fill="none" id="ConfirmarReserva-to-*end*" style="stroke:#181818;stroke-width:1.0;"/><polygon fill="#181818" points="317.78,715.57,308.966,711.1753,312.7849,715.3486,308.6117,719.1675,317.78,715.57" style="stroke:#181818;stroke-width:1.0;"/><path d="M111,616 L111,671 L316,671 L316,626 L306,616 L111,616 " fill="#FEFFDD" style="stroke:#181818;stroke-width:0.5;"/><path d="M306,616 L306,626 L316,626 L306,616 " fill="#FEFFDD" style="stroke:#181818;stroke-width:0.5;"/><text fill="#000000" font-family="sans-serif" font-size="13" lengthAdjust="spacing" textLength="11" x="117" y="633.0669">El</text><text fill="#000000" font-family="sans-serif" font-size="13" font-weight="bold" lengthAdjust="spacing" textLength="58" x="132" y="633.0669">sistema</text><text fill="#000000" font-family="sans-serif" font-size="13" lengthAdjust="spacing" textLength="107" x="194" y="633.0669">a&#241;ade la reserva</text><text fill="#000000" font-family="sans-serif" font-size="13" lengthAdjust="spacing" textLength="94" x="117" y="648.1997">a la cuenta del</text><text fill="#000000" font-family="sans-serif" font-size="13" font-weight="bold" lengthAdjust="spacing" textLength="54" x="215" y="648.1997">usuario</text><text fill="#000000" font-family="sans-serif" font-size="13" lengthAdjust="spacing" textLength="4" x="117" y="663.3325">&#160;</text></g><!--SRC=[bP9DJWCn38NtEOKbTb5x0HOi-Ad4eWXrMtLXpRXL81D3VYh1ZLWYZj2BuMH6RTeE0cQNsF7xtXilzGgcqokOK-IMR-aHDwmSHm9sO8rxLd1d8OM4tZ1GQ7X3y9e857IxZ_m6Me8NUILDw9NSQpq_LFAyIxXcnrehSYtasKhLSaL_GMZDE_fpVP7NEfWGgKEjOKlUh4s31O9oRO2J-P7S1ejO42IFu8UfkR4mle6YutbMUblnbSX5pCGXGN-eS6kwWdl3RcryXtv1WVmM0Kv2a-y4l4iKeZ2LMdBGaGluH5co6QOrPlVb-WOyTlOJolB2KxiIe0UE9PPoFqDhZUGFvtzoZ2XbpGg7l6UV2GRz2Vn3VyQkvN3lGfAZaHmf_3sRDBWVWwdYcFHTnhMYA79b5nn353qgfLfzNOWg2wDP7QmizQhg6VDpqdks3DEXyfjjt7sYMBHvKSlB_jVdY_q-7k_1tiKt]--></g></svg>