<?xml version="1.0" encoding="us-ascii" standalone="no"?><svg xmlns="http://www.w3.org/2000/svg" xmlns:xlink="http://www.w3.org/1999/xlink" contentStyleType="text/css" height="846px" preserveAspectRatio="none" style="width:731px;height:846px;background:#FFFFFF;" version="1.1" viewBox="0 0 731 846" width="731px" zoomAndPan="magnify"><defs/><g><ellipse cx="331" cy="16" fill="#222222" rx="10" ry="10" style="stroke:#222222;stroke-width:1.0;"/><g id="MetodoDePago"><rect fill="#F1F1F1" height="50" rx="12.5" ry="12.5" style="stroke:#181818;stroke-width:0.5;" width="128" x="267" y="86"/><line style="stroke:#181818;stroke-width:0.5;" x1="267" x2="395" y1="112.2969" y2="112.2969"/><text fill="#000000" font-family="sans-serif" font-size="14" lengthAdjust="spacing" textLength="108" x="277" y="103.9951">MetodoDePago</text></g><g id="PagarConBonos"><rect fill="#F1F1F1" height="50" rx="12.5" ry="12.5" style="stroke:#181818;stroke-width:0.5;" width="132" x="181" y="276"/><line style="stroke:#181818;stroke-width:0.5;" x1="181" x2="313" y1="302.2969" y2="302.2969"/><text fill="#000000" font-family="sans-serif" font-size="14" lengthAdjust="spacing" textLength="112" x="191" y="293.9951">PagarConBonos</text></g><g id="elem_GMN7"><path d="M6,280.87 L6,321.1356 A0,0 0 0 0 6,321.1356 L146,321.1356 A0,0 0 0 0 146,321.1356 L146,305 L180.65,301 L146,297 L146,290.87 L136,280.87 L6,280.87 A0,0 0 0 0 6,280.87 " fill="#FEFFDD" style="stroke:#181818;stroke-width:0.5;"/><path d="M136,280.87 L136,290.87 L146,290.87 L136,280.87 " fill="#FEFFDD" style="stroke:#181818;stroke-width:0.5;"/><text fill="#000000" font-family="sans-serif" font-size="13" lengthAdjust="spacing" textLength="115" x="12" y="297.9369">Este es el CDU de</text><text fill="#000000" font-family="sans-serif" font-size="13" font-weight="bold" lengthAdjust="spacing" textLength="117" x="12" y="313.0697">PagarConBonos</text></g><g id="PagarConTarjeta"><rect fill="#F1F1F1" height="50" rx="12.5" ry="12.5" style="stroke:#181818;stroke-width:0.5;" width="134" x="348" y="276"/><line style="stroke:#181818;stroke-width:0.5;" x1="348" x2="482" y1="302.2969" y2="302.2969"/><text fill="#000000" font-family="sans-serif" font-size="14" lengthAdjust="spacing" textLength="114" x="358" y="293.9951">PagarConTarjeta</text></g><g id="RealizarPago"><rect fill="#F1F1F1" height="50" rx="12.5" ry="12.5" style="stroke:#181818;stroke-width:0.5;" width="109" x="360.5" y="483.7"/><line style="stroke:#181818;stroke-width:0.5;" x1="360.5" x2="469.5" y1="509.9969" y2="509.9969"/><text fill="#000000" font-family="sans-serif" font-size="14" lengthAdjust="spacing" textLength="89" x="370.5" y="501.6951">RealizarPago</text></g><g id="elem_GMN14"><path d="M504.5,481 L504.5,504.7 L469.91,508.7 L504.5,512.7 L504.5,536.3984 A0,0 0 0 0 504.5,536.3984 L691.5,536.3984 A0,0 0 0 0 691.5,536.3984 L691.5,491 L681.5,481 L504.5,481 A0,0 0 0 0 504.5,481 " fill="#FEFFDD" style="stroke:#181818;stroke-width:0.5;"/><path d="M681.5,481 L681.5,491 L691.5,491 L681.5,481 " fill="#FEFFDD" style="stroke:#181818;stroke-width:0.5;"/><text fill="#000000" font-family="sans-serif" font-size="13" lengthAdjust="spacing" textLength="162" x="510.5" y="498.0669">Se efectua el pago con el</text><text fill="#000000" font-family="sans-serif" font-size="13" lengthAdjust="spacing" textLength="157" x="510.5" y="513.1997">TPV virtual para efectuar</text><text fill="#000000" font-family="sans-serif" font-size="13" lengthAdjust="spacing" textLength="47" x="510.5" y="528.3325">el pago</text></g><g id="ConfirmarReserva"><rect fill="#F1F1F1" height="50" rx="12.5" ry="12.5" style="stroke:#181818;stroke-width:0.5;" width="142" x="269" y="628.4"/><line style="stroke:#181818;stroke-width:0.5;" x1="269" x2="411" y1="654.6969" y2="654.6969"/><text fill="#000000" font-family="sans-serif" font-size="14" lengthAdjust="spacing" textLength="122" x="279" y="646.3951">ConfirmarReserva</text></g><g id="elem_GMN19"><path d="M34,618.13 L34,688.6613 A0,0 0 0 0 34,688.6613 L234,688.6613 A0,0 0 0 0 234,688.6613 L234,657.4 L268.53,653.4 L234,649.4 L234,628.13 L224,618.13 L34,618.13 A0,0 0 0 0 34,618.13 " fill="#FEFFDD" style="stroke:#181818;stroke-width:0.5;"/><path d="M224,618.13 L224,628.13 L234,628.13 L224,618.13 " fill="#FEFFDD" style="stroke:#181818;stroke-width:0.5;"/><text fill="#000000" font-family="sans-serif" font-size="13" lengthAdjust="spacing" textLength="145" x="40" y="635.1969">Despues de verificar el</text><text fill="#000000" font-family="sans-serif" font-size="13" lengthAdjust="spacing" textLength="132" x="40" y="650.3297">pago se le envia una</text><text fill="#000000" font-family="sans-serif" font-size="13" lengthAdjust="spacing" textLength="175" x="40" y="665.4625">notificacion con el resumen</text><text fill="#000000" font-family="sans-serif" font-size="13" lengthAdjust="spacing" textLength="149" x="40" y="680.5953">de la reserva al usuario</text></g><ellipse cx="410" cy="829.4" fill="none" rx="11" ry="11" style="stroke:#222222;stroke-width:1.0;"/><ellipse cx="410" cy="829.4" fill="#222222" rx="6" ry="6" style="stroke:#222222;stroke-width:1.0;"/><!--link *start* to MetodoDePago--><g id="link_*start*_MetodoDePago"><path d="M331,26.26 C331,39.95 331,60.07 331,79.52 " fill="none" id="*start*-to-MetodoDePago" style="stroke:#181818;stroke-width:1.0;"/><polygon fill="#181818" points="331,85.52,335,76.52,331,80.52,327,76.52,331,85.52" style="stroke:#181818;stroke-width:1.0;"/></g><!--link MetodoDePago to PagarConBonos--><g id="link_MetodoDePago_PagarConBonos"><path d="M320.19,136.19 C304.11,172.19 276.4884,234.0123 260.3484,270.1223 " fill="none" id="MetodoDePago-to-PagarConBonos" style="stroke:#181818;stroke-width:1.0;"/><polygon fill="#181818" points="257.9,275.6,265.2244,269.0157,259.9403,271.0352,257.9207,265.7512,257.9,275.6" style="stroke:#181818;stroke-width:1.0;"/></g><!--link MetodoDePago to PagarConTarjeta--><g id="link_MetodoDePago_PagarConTarjeta"><path d="M341.81,136.19 C357.89,172.19 385.5116,234.0123 401.6516,270.1223 " fill="none" id="MetodoDePago-to-PagarConTarjeta" style="stroke:#181818;stroke-width:1.0;"/><polygon fill="#181818" points="404.1,275.6,404.0793,265.7512,402.0597,271.0352,396.7756,269.0157,404.1,275.6" style="stroke:#181818;stroke-width:1.0;"/><path d="M396,171 L396,241 L601,241 L601,181 L591,171 L396,171 " fill="#FEFFDD" style="stroke:#181818;stroke-width:0.5;"/><path d="M591,171 L591,181 L601,181 L591,171 " fill="#FEFFDD" style="stroke:#181818;stroke-width:0.5;"/><text fill="#000000" font-family="sans-serif" font-size="13" lengthAdjust="spacing" textLength="135" x="402" y="188.0669">El usuario escoje que</text><text fill="#000000" font-family="sans-serif" font-size="13" lengthAdjust="spacing" textLength="138" x="402" y="203.1997">metodo de pago usar</text><text fill="#000000" font-family="sans-serif" font-size="13" lengthAdjust="spacing" textLength="4" x="402" y="218.3325">&#160;</text><text fill="#000000" font-family="sans-serif" font-size="13" font-weight="bold" lengthAdjust="spacing" textLength="184" x="402" y="233.4653">Metodo de Pago: Tarjeta</text></g><!--link PagarConTarjeta to RealizarPago--><g id="link_PagarConTarjeta_RealizarPago"><path d="M415,326.41 C415,365.99 415,437.76 415,477.33 " fill="none" id="PagarConTarjeta-to-RealizarPago" style="stroke:#181818;stroke-width:1.0;"/><polygon fill="#181818" points="415,483.33,419,474.33,415,478.33,411,474.33,415,483.33" style="stroke:#181818;stroke-width:1.0;"/><path d="M420,361 L420,446 L591,446 L591,371 L581,361 L420,361 " fill="#FEFFDD" style="stroke:#181818;stroke-width:0.5;"/><path d="M581,361 L581,371 L591,371 L581,361 " fill="#FEFFDD" style="stroke:#181818;stroke-width:0.5;"/><text fill="#000000" font-family="sans-serif" font-size="13" font-weight="bold" lengthAdjust="spacing" textLength="116" x="426" y="378.0669">Datos De Pago:</text><text fill="#000000" font-family="sans-serif" font-size="13" lengthAdjust="spacing" textLength="129" x="434" y="393.1997">- Numero de Tarjeta</text><text fill="#000000" font-family="sans-serif" font-size="13" lengthAdjust="spacing" textLength="127" x="434" y="408.3325">- Nombre del Titular</text><text fill="#000000" font-family="sans-serif" font-size="13" lengthAdjust="spacing" textLength="138" x="434" y="423.4653">- Fecha de Caducidad</text><text fill="#000000" font-family="sans-serif" font-size="13" lengthAdjust="spacing" textLength="142" x="434" y="438.5981">- Codigo de Seguridad</text></g><!--link RealizarPago to ConfirmarReserva--><g id="link_RealizarPago_ConfirmarReserva"><path d="M396.57,534.12 C389.65,543.87 382.01,555.39 376,566.4 C365.07,586.43 357.3727,604.8743 350.7627,622.4443 " fill="none" id="RealizarPago-to-ConfirmarReserva" style="stroke:#181818;stroke-width:1.0;"/><polygon fill="#181818" points="348.65,628.06,355.5629,621.0449,350.4106,623.3802,348.0752,618.2279,348.65,628.06" style="stroke:#181818;stroke-width:1.0;"/><text fill="#000000" font-family="sans-serif" font-size="13" lengthAdjust="spacing" textLength="82" x="377" y="579.4669">Pago exitoso</text></g><!--link RealizarPago to *end*--><g id="link_RealizarPago_*end*"><path d="M442.87,534.18 C451.33,543.34 459.55,554.45 464,566.4 C498.42,658.87 508.39,700.28 464,788.4 C454.87,806.53 438.6736,816.0324 425.7336,821.8424 " fill="none" id="RealizarPago-to-*end*" style="stroke:#181818;stroke-width:1.0;"/><polygon fill="#181818" points="420.26,824.3,430.1088,824.2626,424.8213,822.252,426.832,816.9645,420.26,824.3" style="stroke:#181818;stroke-width:1.0;"/><path d="M499,618.4 L499,688.4 L724,688.4 L724,628.4 L714,618.4 L499,618.4 " fill="#FEFFDD" style="stroke:#181818;stroke-width:0.5;"/><path d="M714,618.4 L714,628.4 L724,628.4 L714,618.4 " fill="#FEFFDD" style="stroke:#181818;stroke-width:0.5;"/><text fill="#000000" font-family="sans-serif" font-size="13" font-weight="bold" lengthAdjust="spacing" textLength="97" x="505" y="635.4669">Pago Fallido:</text><text fill="#000000" font-family="sans-serif" font-size="13" lengthAdjust="spacing" textLength="196" x="505" y="650.5997">Se muestra un error al usuario</text><text fill="#000000" font-family="sans-serif" font-size="13" lengthAdjust="spacing" textLength="204" x="505" y="665.7325">y se me recomienda que vuelva</text><text fill="#000000" font-family="sans-serif" font-size="13" lengthAdjust="spacing" textLength="132" x="505" y="680.8653">a intentar m&#225;s tarde</text></g><!--link ConfirmarReserva to *end*--><g id="link_ConfirmarReserva_*end*"><path d="M330.74,678.66 C321.53,707.16 311.46,754.79 332,788.4 C346.76,812.55 375.3796,821.4898 393.1296,825.2398 " fill="none" id="ConfirmarReserva-to-*end*" style="stroke:#181818;stroke-width:1.0;"/><polygon fill="#181818" points="399,826.48,391.0212,820.706,394.108,825.4465,389.3676,828.5333,399,826.48" style="stroke:#181818;stroke-width:1.0;"/><path d="M337,728.4 L337,783.4 L455,783.4 L455,738.4 L445,728.4 L337,728.4 " fill="#FEFFDD" style="stroke:#181818;stroke-width:0.5;"/><path d="M445,728.4 L445,738.4 L455,738.4 L445,728.4 " fill="#FEFFDD" style="stroke:#181818;stroke-width:0.5;"/><text fill="#000000" font-family="sans-serif" font-size="13" lengthAdjust="spacing" textLength="93" x="343" y="745.4669">Anadir reserva</text><text fill="#000000" font-family="sans-serif" font-size="13" lengthAdjust="spacing" textLength="84" x="343" y="760.5997">a horarios de</text><text fill="#000000" font-family="sans-serif" font-size="13" lengthAdjust="spacing" textLength="46" x="343" y="775.7325">la pista</text></g><!--SRC=[TP91RXin34NtEWNN0do1B0gqTh9B4QHEDa4Mx8XZCzL8BYKDsjwcP-d5Ih6sOxl9ReRa_F_uXq_-6HQB3t1BDOUyeZlSP7VwObrzG5dcz2cdN5pAbG0YZHNoUD6xBjgZ0XHXkNg0GE2yFnlntb4Aq4NUDrgZl535VrOvGUJqpS5rX5OQ2cUr6F8BmVUc1Z2PJ3VRTQ5MK9oMlRyzDhh35UnbJn7SXMMdk2UC_0l5mZX3y7w5DHTOxHLL2M01dzj4OZu7SAlcwQkGLYEikRROgRHyGyCM- -mIGniuOB3oCWVUcCONsZIn-f7I88GtMulyZ4_7WKOQQiEUkYKmAAy-ErZVFSBCehtU4JnCYlRsmwycfx8z1WrbP9bGxgcGp0XNjZJG3zOCziaSpk1os6b6PTVq57IZcOH77jJMg8onz6-1qim8BQ6MLS-c1bRy_Gf2HRDDsbMPYFtTKF1u2c_pspKz-UVBtsUz6uoHW_qz3MzIo2eT0aWaowdspuuvQVGqv8dL2UtavaPHLqJWL2bLtMlwyxk0FWHwvVallpUPu6F2m7BSp072Daktj-nSNtl7HO_geFmN]--></g></svg>