<?xml version="1.0" encoding="us-ascii" standalone="no"?><svg xmlns="http://www.w3.org/2000/svg" xmlns:xlink="http://www.w3.org/1999/xlink" contentStyleType="text/css" height="562px" preserveAspectRatio="none" style="width:463px;height:562px;background:#FFFFFF;" version="1.1" viewBox="0 0 463 562" width="463px" zoomAndPan="magnify"><defs/><g><ellipse cx="87.5" cy="16" fill="#222222" rx="10" ry="10" style="stroke:#222222;stroke-width:1.0;"/><g id="VerHistorialReservas"><rect fill="#F1F1F1" height="50" rx="12.5" ry="12.5" style="stroke:#181818;stroke-width:0.5;" width="161" x="7" y="87"/><line style="stroke:#181818;stroke-width:0.5;" x1="7" x2="168" y1="113.2969" y2="113.2969"/><text fill="#000000" font-family="sans-serif" font-size="14" lengthAdjust="spacing" textLength="141" x="17" y="104.9951">VerHistorialReservas</text></g><g id="elem_GMN5"><path d="M202.5,91.87 L202.5,108 L168.4,112 L202.5,116 L202.5,132.1356 A0,0 0 0 0 202.5,132.1356 L408.5,132.1356 A0,0 0 0 0 408.5,132.1356 L408.5,101.87 L398.5,91.87 L202.5,91.87 A0,0 0 0 0 202.5,91.87 " fill="#FEFFDD" style="stroke:#181818;stroke-width:0.5;"/><path d="M398.5,91.87 L398.5,101.87 L408.5,101.87 L398.5,91.87 " fill="#FEFFDD" style="stroke:#181818;stroke-width:0.5;"/><text fill="#000000" font-family="sans-serif" font-size="13" lengthAdjust="spacing" textLength="181" x="208.5" y="108.9369">El usuario accede al historial</text><text fill="#000000" font-family="sans-serif" font-size="13" lengthAdjust="spacing" textLength="151" x="208.5" y="124.0697">de sus reservas previas</text></g><g id="ConsultarReservas"><rect fill="#F1F1F1" height="50" rx="12.5" ry="12.5" style="stroke:#181818;stroke-width:0.5;" width="150" x="12.5" y="198"/><line style="stroke:#181818;stroke-width:0.5;" x1="12.5" x2="162.5" y1="224.2969" y2="224.2969"/><text fill="#000000" font-family="sans-serif" font-size="14" lengthAdjust="spacing" textLength="130" x="22.5" y="215.9951">ConsultarReservas</text></g><g id="elem_GMN10"><path d="M197,202.87 L197,219 L162.65,223 L197,227 L197,243.1356 A0,0 0 0 0 197,243.1356 L456,243.1356 A0,0 0 0 0 456,243.1356 L456,212.87 L446,202.87 L197,202.87 A0,0 0 0 0 197,202.87 " fill="#FEFFDD" style="stroke:#181818;stroke-width:0.5;"/><path d="M446,202.87 L446,212.87 L456,212.87 L446,202.87 " fill="#FEFFDD" style="stroke:#181818;stroke-width:0.5;"/><text fill="#000000" font-family="sans-serif" font-size="13" lengthAdjust="spacing" textLength="234" x="203" y="219.9369">El sistema consulta la base de datos</text><text fill="#000000" font-family="sans-serif" font-size="13" lengthAdjust="spacing" textLength="231" x="203" y="235.0697">para obtener el historial de reservas</text></g><g id="MostrarHistorial"><rect fill="#F1F1F1" height="50" rx="12.5" ry="12.5" style="stroke:#181818;stroke-width:0.5;" width="126" x="24.5" y="390.97"/><line style="stroke:#181818;stroke-width:0.5;" x1="24.5" x2="150.5" y1="417.2669" y2="417.2669"/><text fill="#000000" font-family="sans-serif" font-size="14" lengthAdjust="spacing" textLength="106" x="34.5" y="408.9651">MostrarHistorial</text></g><g id="elem_GMN15"><path d="M185,358 L185,411.97 L150.94,415.97 L185,419.97 L185,473.9297 A0,0 0 0 0 185,473.9297 L426,473.9297 A0,0 0 0 0 426,473.9297 L426,368 L416,358 L185,358 A0,0 0 0 0 185,358 " fill="#FEFFDD" style="stroke:#181818;stroke-width:0.5;"/><path d="M416,358 L416,368 L426,368 L416,358 " fill="#FEFFDD" style="stroke:#181818;stroke-width:0.5;"/><text fill="#000000" font-family="sans-serif" font-size="13" font-weight="bold" lengthAdjust="spacing" textLength="145" x="191" y="375.0669">Historial de Usuario</text><text fill="#000000" font-family="sans-serif" font-size="13" lengthAdjust="spacing" textLength="193" x="191" y="390.1997">El sistema presenta al usuario</text><text fill="#000000" font-family="sans-serif" font-size="13" lengthAdjust="spacing" textLength="152" x="191" y="405.3325">su historial de reservas.</text><text fill="#000000" font-family="sans-serif" font-size="13" lengthAdjust="spacing" textLength="4" x="191" y="420.4653">&#160;</text><text fill="#000000" font-family="sans-serif" font-size="13" font-weight="bold" lengthAdjust="spacing" textLength="195" x="191" y="435.5981">Historial de Administrador</text><text fill="#000000" font-family="sans-serif" font-size="13" lengthAdjust="spacing" textLength="220" x="191" y="450.731">El sistema exhibe al administrador</text><text fill="#000000" font-family="sans-serif" font-size="13" lengthAdjust="spacing" textLength="148" x="191" y="465.8638">el historial de reservas.</text></g><ellipse cx="87.5" cy="545.93" fill="none" rx="11" ry="11" style="stroke:#222222;stroke-width:1.0;"/><ellipse cx="87.5" cy="545.93" fill="#222222" rx="6" ry="6" style="stroke:#222222;stroke-width:1.0;"/><!--link *start* to VerHistorialReservas--><g id="link_*start*_VerHistorialReservas"><path d="M87.5,26.36 C87.5,40.29 87.5,60.95 87.5,80.65 " fill="none" id="*start*-to-VerHistorialReservas" style="stroke:#181818;stroke-width:1.0;"/><polygon fill="#181818" points="87.5,86.65,91.5,77.65,87.5,81.65,83.5,77.65,87.5,86.65" style="stroke:#181818;stroke-width:1.0;"/></g><!--link VerHistorialReservas to ConsultarReservas--><g id="link_VerHistorialReservas_ConsultarReservas"><path d="M87.5,137.46 C87.5,155.41 87.5,173.69 87.5,191.62 " fill="none" id="VerHistorialReservas-to-ConsultarReservas" style="stroke:#181818;stroke-width:1.0;"/><polygon fill="#181818" points="87.5,197.62,91.5,188.62,87.5,192.62,83.5,188.62,87.5,197.62" style="stroke:#181818;stroke-width:1.0;"/></g><!--link ConsultarReservas to MostrarHistorial--><g id="link_ConsultarReservas_MostrarHistorial"><path d="M87.5,248.19 C87.5,284.82 87.5,347.98 87.5,384.67 " fill="none" id="ConsultarReservas-to-MostrarHistorial" style="stroke:#181818;stroke-width:1.0;"/><polygon fill="#181818" points="87.5,390.67,91.5,381.67,87.5,385.67,83.5,381.67,87.5,390.67" style="stroke:#181818;stroke-width:1.0;"/><path d="M92.5,283 L92.5,323 L329.5,323 L329.5,293 L319.5,283 L92.5,283 " fill="#FEFFDD" style="stroke:#181818;stroke-width:0.5;"/><path d="M319.5,283 L319.5,293 L329.5,293 L319.5,283 " fill="#FEFFDD" style="stroke:#181818;stroke-width:0.5;"/><text fill="#000000" font-family="sans-serif" font-size="13" lengthAdjust="spacing" textLength="203" x="98.5" y="300.0669">Se agrega un filtro a la consulta</text><text fill="#000000" font-family="sans-serif" font-size="13" lengthAdjust="spacing" textLength="216" x="98.5" y="315.1997">que var&#237;a seg&#250;n el tipo de usuario</text></g><!--link MostrarHistorial to *end*--><g id="link_MostrarHistorial_*end*"><path d="M87.5,441.34 C87.5,469.47 87.5,508.46 87.5,528.6 " fill="none" id="MostrarHistorial-to-*end*" style="stroke:#181818;stroke-width:1.0;"/><polygon fill="#181818" points="87.5,534.6,91.5,525.6,87.5,529.6,83.5,525.6,87.5,534.6" style="stroke:#181818;stroke-width:1.0;"/></g><!--SRC=[TP4nRiCm34LtdOApWUG81OgYG9OkBTebo43RZ2rKaHnICdgfNg1hBbR9iM4bTbQ9_F_zptrnWCtc2Rw8TrgyOutcdOIuHr7MUGBMJUl17TT7uDL0a82i7M1LKKs01jff3XJ45ma2F6v0nzJhk4csXcIWr9hm0FNYh0JZaHyGBVyJZaGjEY5KuoyOX1A54acDtac4wf0HNEd94WFbm75eGiqG5qu3tviJppZ3N_6S1QFjj_g8LJHC3KAmSDJ6SwmemKnWwXm8UkJBBu9GS_cp2SNhpYMAiTKPuZRxmhieTdc8p-jwKQYiaYv5ix4IdA-c9Ap7twfxpUVwfArElhNZMsNwQNKvt1xp8VMessrMxdsKeTjzSVW7]--></g></svg>