<svg xmlns="http://www.w3.org/2000/svg" xmlns:xlink="http://www.w3.org/1999/xlink" contentStyleType="text/css" height="716px" preserveAspectRatio="none" style="width:365px;height:716px;background:#FFFFFF;" version="1.1" viewBox="0 0 365 716" width="365px" zoomAndPan="magnify"><defs/><g><ellipse cx="87.5" cy="16" fill="#222222" rx="10" ry="10" style="stroke:#222222;stroke-width:1.0;"/><g id="VerHistorialReservas"><rect fill="#F1F1F1" height="50" rx="12.5" ry="12.5" style="stroke:#181818;stroke-width:0.5;" width="161" x="7" y="136"/><line style="stroke:#181818;stroke-width:0.5;" x1="7" x2="168" y1="162.2969" y2="162.2969"/><text fill="#000000" font-family="sans-serif" font-size="14" lengthAdjust="spacing" textLength="141" x="17" y="153.9951">VerHistorialReservas</text></g><g id="ConsultarReservas"><rect fill="#F1F1F1" height="50" rx="12.5" ry="12.5" style="stroke:#181818;stroke-width:0.5;" width="150" x="12.5" y="296"/><line style="stroke:#181818;stroke-width:0.5;" x1="12.5" x2="162.5" y1="322.2969" y2="322.2969"/><text fill="#000000" font-family="sans-serif" font-size="14" lengthAdjust="spacing" textLength="130" x="22.5" y="313.9951">ConsultarReservas</text></g><g id="MostrarHistorial"><rect fill="#F1F1F1" height="50" rx="12.5" ry="12.5" style="stroke:#181818;stroke-width:0.5;" width="126" x="24.5" y="577"/><line style="stroke:#181818;stroke-width:0.5;" x1="24.5" x2="150.5" y1="603.2969" y2="603.2969"/><text fill="#000000" font-family="sans-serif" font-size="14" lengthAdjust="spacing" textLength="106" x="34.5" y="594.9951">MostrarHistorial</text></g><ellipse cx="87.5" cy="699" fill="none" rx="11" ry="11" style="stroke:#222222;stroke-width:1.0;"/><ellipse cx="87.5" cy="699" fill="#222222" rx="6" ry="6" style="stroke:#222222;stroke-width:1.0;"/><!--link *start* to VerHistorialReservas--><g id="link_*start*_VerHistorialReservas"><path d="M87.5,26.38 C87.5,48.32 87.5,97.52 87.5,129.69 " fill="none" id="*start*-to-VerHistorialReservas" style="stroke:#181818;stroke-width:1.0;"/><polygon fill="#181818" points="87.5,135.69,91.5,126.69,87.5,130.69,83.5,126.69,87.5,135.69" style="stroke:#181818;stroke-width:1.0;"/><path d="M92.5,61 L92.5,101 L305.5,101 L305.5,71 L295.5,61 L92.5,61 " fill="#FEFFDD" style="stroke:#181818;stroke-width:0.5;"/><path d="M295.5,61 L295.5,71 L305.5,71 L295.5,61 " fill="#FEFFDD" style="stroke:#181818;stroke-width:0.5;"/><text fill="#000000" font-family="sans-serif" font-size="13" lengthAdjust="spacing" textLength="11" x="98.5" y="78.0669">El</text><text fill="#000000" font-family="sans-serif" font-size="13" font-weight="bold" lengthAdjust="spacing" textLength="54" x="113.5" y="78.0669">usuario</text><text fill="#000000" font-family="sans-serif" font-size="13" lengthAdjust="spacing" textLength="115" x="171.5" y="78.0669">accede al historial</text><text fill="#000000" font-family="sans-serif" font-size="13" lengthAdjust="spacing" textLength="75" x="98.5" y="93.1997">de reservas</text></g><!--link VerHistorialReservas to ConsultarReservas--><g id="link_VerHistorialReservas_ConsultarReservas"><path d="M87.5,186.34 C87.5,216.03 87.5,259.93 87.5,289.63 " fill="none" id="VerHistorialReservas-to-ConsultarReservas" style="stroke:#181818;stroke-width:1.0;"/><polygon fill="#181818" points="87.5,295.63,91.5,286.63,87.5,290.63,83.5,286.63,87.5,295.63" style="stroke:#181818;stroke-width:1.0;"/><path d="M92.5,221 L92.5,261 L358.5,261 L358.5,231 L348.5,221 L92.5,221 " fill="#FEFFDD" style="stroke:#181818;stroke-width:0.5;"/><path d="M348.5,221 L348.5,231 L358.5,231 L348.5,221 " fill="#FEFFDD" style="stroke:#181818;stroke-width:0.5;"/><text fill="#000000" font-family="sans-serif" font-size="13" lengthAdjust="spacing" textLength="11" x="98.5" y="238.0669">El</text><text fill="#000000" font-family="sans-serif" font-size="13" font-weight="bold" lengthAdjust="spacing" textLength="58" x="113.5" y="238.0669">sistema</text><text fill="#000000" font-family="sans-serif" font-size="13" lengthAdjust="spacing" textLength="164" x="175.5" y="238.0669">consulta la base de datos</text><text fill="#000000" font-family="sans-serif" font-size="13" lengthAdjust="spacing" textLength="231" x="98.5" y="253.1997">para obtener el historial de reservas</text></g><!--link ConsultarReservas to MostrarHistorial--><g id="link_ConsultarReservas_MostrarHistorial"><path d="M87.5,346.27 C87.5,399.04 87.5,517.69 87.5,570.59 " fill="none" id="ConsultarReservas-to-MostrarHistorial" style="stroke:#181818;stroke-width:1.0;"/><polygon fill="#181818" points="87.5,576.59,91.5,567.59,87.5,571.59,83.5,567.59,87.5,576.59" style="stroke:#181818;stroke-width:1.0;"/><path d="M92.5,381 L92.5,542 L340.5,542 L340.5,391 L330.5,381 L92.5,381 " fill="#FEFFDD" style="stroke:#181818;stroke-width:0.5;"/><path d="M330.5,381 L330.5,391 L340.5,391 L330.5,381 " fill="#FEFFDD" style="stroke:#181818;stroke-width:0.5;"/><text fill="#000000" font-family="sans-serif" font-size="13" lengthAdjust="spacing" textLength="203" x="98.5" y="398.0669">Se agrega un filtro a la consulta</text><text fill="#000000" font-family="sans-serif" font-size="13" lengthAdjust="spacing" textLength="165" x="98.5" y="413.1997">que var&#237;a seg&#250;n el tipo de</text><text fill="#000000" font-family="sans-serif" font-size="13" font-weight="bold" lengthAdjust="spacing" textLength="54" x="267.5" y="413.1997">usuario</text><text fill="#000000" font-family="sans-serif" font-size="13" lengthAdjust="spacing" textLength="4" x="321.5" y="413.1997">:</text><text fill="#000000" font-family="sans-serif" font-size="13" lengthAdjust="spacing" textLength="4" x="98.5" y="428.3325">&#160;</text><text fill="#000000" font-family="sans-serif" font-size="13" font-weight="bold" lengthAdjust="spacing" textLength="145" x="98.5" y="443.4653">Historial de Usuario</text><text fill="#000000" font-family="sans-serif" font-size="13" lengthAdjust="spacing" textLength="193" x="98.5" y="458.5981">El sistema presenta al usuario</text><text fill="#000000" font-family="sans-serif" font-size="13" lengthAdjust="spacing" textLength="152" x="98.5" y="473.731">su historial de reservas.</text><text fill="#000000" font-family="sans-serif" font-size="13" lengthAdjust="spacing" textLength="4" x="98.5" y="488.8638">&#160;</text><text fill="#000000" font-family="sans-serif" font-size="13" font-weight="bold" lengthAdjust="spacing" textLength="195" x="98.5" y="503.9966">Historial de Administrador</text><text fill="#000000" font-family="sans-serif" font-size="13" lengthAdjust="spacing" textLength="220" x="98.5" y="519.1294">El sistema exhibe al administrador</text><text fill="#000000" font-family="sans-serif" font-size="13" lengthAdjust="spacing" textLength="148" x="98.5" y="534.2622">el historial de reservas.</text></g><!--link MostrarHistorial to *end*--><g id="link_MostrarHistorial_*end*"><path d="M87.5,627.46 C87.5,647.04 87.5,667.49 87.5,681.8 " fill="none" id="MostrarHistorial-to-*end*" style="stroke:#181818;stroke-width:1.0;"/><polygon fill="#181818" points="87.5,687.8,91.5,678.8,87.5,682.8,83.5,678.8,87.5,687.8" style="stroke:#181818;stroke-width:1.0;"/></g><!--SRC=[VP51JiCm54JtFiMiBRK7O864458tR41qKtNn4tzI2zSEttR5fRW0sruCEqf4IWFRvC_Cc_5Exx5QtMBBih4n1R7adZYod2Wg7n8ZU3ZhtnGU7BJECPFOe3MeRTamoE4m2Q5GliWaPszGBPHQSXzYxuEFsIMI_p9ZaVAHIcOxdiCH6efSumob44joJq88JMBF0fvJBJDTHGz0Zo4ceH_QIvxdqhSJxWZPuzMw9043p0IctZFZH7B-94Jkpb- -eYJRXqenc-z6AQqtSyINwPSgfSVAw2kuBuNBpQY5YdcvtFhAyyuShRUraGbowSmV1ziCpqVp8_NNSklPTBz76fRRwVqt]--></g></svg>