<svg width="390" height="844" viewBox="0 0 390 844" fill="none" xmlns="http://www.w3.org/2000/svg">
<g clip-path="url(#clip0_1_2)">
<rect width="390" height="844" fill="white"/>
<g clip-path="url(#clip1_1_2)">
<path d="M215.919 289.107C213.777 284.202 212.188 278.498 211.537 272.255C211.598 269.186 211.18 266.052 210.291 262.958C208.6 257.062 205.22 251.295 200.227 246.301C196.936 243.011 193.334 240.3 189.56 238.262C186.728 236.734 183.799 235.584 180.831 234.865C176.382 233.785 171.831 233.679 167.488 234.757C163.146 235.828 159.041 238.103 155.577 241.576C152.49 244.657 150.348 248.239 149.161 252.049C148.268 254.905 147.905 257.882 148.021 260.866C148.196 265.346 149.431 269.842 151.53 274.135C153.632 278.428 156.6 282.524 160.301 286.226C166.96 292.883 174.993 296.675 182.871 297.414C184.163 297.535 185.451 297.566 186.728 297.52C193.328 297.964 198.847 299.524 203.501 301.674C206.285 302.961 208.761 304.465 210.957 306.078L222.765 300.237C220.253 297.321 217.856 293.547 215.919 289.107ZM192.119 289.485C188.161 290.803 183.579 290.856 178.902 289.514C174.23 288.175 169.485 285.44 165.286 281.241C162.447 278.403 160.151 275.333 158.466 272.21C157.201 269.868 156.281 267.496 155.716 265.17C154.871 261.677 154.827 258.302 155.6 255.184C156.379 252.065 157.955 249.174 160.561 246.561C162.883 244.243 165.428 242.744 168.154 241.889C170.198 241.25 172.352 240.98 174.594 241.066C177.953 241.194 181.511 242.136 185.037 243.862C188.562 245.586 192.047 248.091 195.242 251.286C200.842 256.884 203.831 263.453 204.396 269.527C204.681 272.566 204.364 275.478 203.486 278.119C202.605 280.761 201.173 283.137 199.157 285.155C197.137 287.172 194.761 288.605 192.119 289.485ZM206.46 295.276C204.588 294.409 202.644 293.68 200.599 293.075C201.853 292.218 203.041 291.243 204.141 290.14C205.368 288.915 206.436 287.577 207.36 286.162C207.948 288.144 208.643 290.06 209.458 291.929C210.573 294.479 211.824 296.854 213.179 299.034C211.134 297.676 208.9 296.404 206.46 295.276Z" fill="#01579B"/>
<path d="M225.137 302.734L213.794 308.345C214.442 308.908 215.061 309.476 215.651 310.048C215.83 310.223 216.009 310.4 216.189 310.579C216.468 310.859 216.749 311.146 217.028 311.436L228.475 305.774C227.35 304.807 226.21 303.778 225.137 302.734Z" fill="#01579B"/>
<path d="M237.384 313.399L224.16 319.941C224.359 320.206 224.541 320.451 224.699 320.664C224.945 320.997 225.137 321.262 225.266 321.44C225.33 321.529 225.378 321.598 225.409 321.642L225.444 321.69L225.451 321.701L225.452 321.702L225.465 321.72L225.478 321.738C225.649 321.974 225.838 322.196 226.041 322.399C226.952 323.31 228.163 323.876 229.466 323.983L229.479 323.984C231.068 324.107 232.638 323.532 233.773 322.399L236.399 319.774C237.532 318.64 238.108 317.068 237.983 315.476V315.473C237.924 314.739 237.715 314.037 237.384 313.399Z" fill="#01579B"/>
<path d="M231.845 308.545C231.651 308.394 231.451 308.232 231.25 308.072L219.332 313.967C220.333 315.113 221.274 316.25 222.102 317.288L234.969 310.923C234.285 310.422 233.172 309.593 231.845 308.545Z" fill="#01579B"/>
<path d="M180.67 309.892C177.683 312.716 177.549 317.43 180.373 320.419C183.197 323.409 187.911 323.541 190.9 320.717C193.89 317.892 194.022 313.179 191.198 310.189C188.374 307.201 183.66 307.068 180.67 309.892Z" fill="#01579B"/>
</g>
<path d="M193.414 171C136.066 171 89.414 217.653 89.414 275C89.414 332.349 136.066 379 193.414 379C250.762 379 297.414 332.349 297.414 275C297.414 217.653 250.762 171 193.414 171ZM193.414 363C144.89 363 105.414 323.523 105.414 275C105.414 226.478 144.891 187 193.414 187C241.937 187 281.414 226.478 281.414 275C281.414 323.523 241.937 363 193.414 363Z" fill="#01579B"/>
<path d="M337.414 267C332.996 267 329.415 270.583 329.415 274.999C329.415 349.993 267.993 410.999 193 410.999C188.582 410.999 184.586 414.582 184.586 418.999V482.999C184.586 487.418 188.168 490.998 192.586 490.998C197.004 490.998 200.586 487.418 200.586 482.999V426.793C280.586 422.613 345 356.128 345 274.999C345 270.583 341.832 267 337.414 267Z" fill="#01579B"/>
<path d="M192.586 67C188.168 67 184.586 70.5833 184.586 74.9997V123.206C104.586 127.387 41.0002 193.871 41.0002 275C41.0002 279.419 44.7896 283 49.2069 283C53.6249 283 57.1039 279.419 57.1039 275C57.1039 200.008 118.008 139 193 139C197.418 139 200.586 135.42 200.586 131.001V74.9997C200.586 70.5833 197.004 67 192.586 67Z" fill="#01579B"/>
<path d="M88.724 575V538.28H99.524C103.052 538.28 105.644 539.144 107.3 540.872C108.992 542.564 109.838 544.85 109.838 547.73V548.918C109.838 550.502 109.478 551.906 108.758 553.13C108.038 554.354 106.994 555.326 105.626 556.046C107.534 556.658 108.974 557.666 109.946 559.07C110.954 560.438 111.458 562.094 111.458 564.038V565.226C111.458 568.178 110.594 570.554 108.866 572.354C107.174 574.118 104.51 575 100.874 575H88.724ZM99.524 542.6H93.422V554.21H99.524C101.324 554.21 102.674 553.76 103.574 552.86C104.51 551.924 104.978 550.646 104.978 549.026V547.73C104.978 546.146 104.51 544.904 103.574 544.004C102.674 543.068 101.324 542.6 99.524 542.6ZM100.874 558.53H93.422V570.734H100.874C102.782 570.734 104.204 570.248 105.14 569.276C106.112 568.304 106.598 566.954 106.598 565.226V563.93C106.598 562.274 106.112 560.96 105.14 559.988C104.204 559.016 102.782 558.53 100.874 558.53ZM145.314 552.59V560.636C145.314 565.208 144.162 568.844 141.858 571.544C139.59 574.208 136.314 575.54 132.03 575.54C127.746 575.54 124.452 574.208 122.148 571.544C119.88 568.844 118.746 565.208 118.746 560.636V552.59C118.746 548.054 119.88 544.454 122.148 541.79C124.452 539.09 127.746 537.74 132.03 537.74C136.314 537.74 139.59 539.09 141.858 541.79C144.162 544.454 145.314 548.054 145.314 552.59ZM140.454 552.59C140.454 549.242 139.734 546.668 138.294 544.868C136.89 543.032 134.802 542.114 132.03 542.114C129.294 542.114 127.206 543.032 125.766 544.868C124.326 546.668 123.606 549.242 123.606 552.59V560.636C123.606 564.02 124.326 566.63 125.766 568.466C127.206 570.302 129.294 571.22 132.03 571.22C134.802 571.22 136.89 570.302 138.294 568.466C139.734 566.63 140.454 564.02 140.454 560.636V552.59ZM180.277 552.59V560.636C180.277 565.208 179.125 568.844 176.821 571.544C174.553 574.208 171.277 575.54 166.993 575.54C162.709 575.54 159.415 574.208 157.111 571.544C154.843 568.844 153.709 565.208 153.709 560.636V552.59C153.709 548.054 154.843 544.454 157.111 541.79C159.415 539.09 162.709 537.74 166.993 537.74C171.277 537.74 174.553 539.09 176.821 541.79C179.125 544.454 180.277 548.054 180.277 552.59ZM175.417 552.59C175.417 549.242 174.697 546.668 173.257 544.868C171.853 543.032 169.765 542.114 166.993 542.114C164.257 542.114 162.169 543.032 160.729 544.868C159.289 546.668 158.569 549.242 158.569 552.59V560.636C158.569 564.02 159.289 566.63 160.729 568.466C162.169 570.302 164.257 571.22 166.993 571.22C169.765 571.22 171.853 570.302 173.257 568.466C174.697 566.63 175.417 564.02 175.417 560.636V552.59ZM210.272 575L199.796 557.666C199.04 558.458 198.248 559.268 197.42 560.096C196.628 560.924 195.8 561.752 194.936 562.58V575H190.238V538.28H194.936V557.342C198.32 553.922 201.146 550.682 203.414 547.622C205.682 544.562 207.608 541.448 209.192 538.28H214.268C212.648 541.448 210.956 544.328 209.192 546.92C207.464 549.476 205.484 552.032 203.252 554.588L215.996 575H210.272ZM227.104 575H222.406V538.28H227.104V575ZM238.595 575V538.28H243.509C246.785 542.96 249.791 547.676 252.527 552.428C255.299 557.144 257.891 562.076 260.303 567.224L259.763 553.184V538.28H264.353V575H259.439C256.919 569.744 254.309 564.632 251.609 559.664C248.945 554.66 246.029 549.782 242.861 545.03L243.185 559.988V575H238.595ZM299.098 572.462C298.054 573.146 296.56 573.83 294.616 574.514C292.708 575.198 290.404 575.54 287.704 575.54C284.788 575.54 282.322 574.928 280.306 573.704C278.326 572.444 276.814 570.698 275.77 568.466C274.762 566.198 274.258 563.588 274.258 560.636V552.59C274.258 547.982 275.41 544.364 277.714 541.736C280.054 539.072 283.438 537.74 287.866 537.74C289.486 537.74 291.178 537.92 292.942 538.28C294.742 538.64 296.524 539.234 298.288 540.062L296.776 544.112C293.536 542.78 290.584 542.114 287.92 542.114C284.968 542.114 282.754 543.014 281.278 544.814C279.838 546.578 279.118 549.17 279.118 552.59V560.636C279.118 563.876 279.856 566.45 281.332 568.358C282.808 570.266 285.04 571.22 288.028 571.22C289.18 571.22 290.35 571.094 291.538 570.842C292.762 570.59 293.842 570.248 294.778 569.816V559.934H287.92V555.776H299.098V572.462Z" fill="#01579B"/>
<path d="M145.312 597.52H148.552V613.216C148.552 615.184 148.96 616.72 149.776 617.824C150.616 618.928 151.912 619.48 153.664 619.48C155.44 619.48 156.736 618.928 157.552 617.824C158.368 616.72 158.776 615.184 158.776 613.216V597.52H162.016V613.216C162.016 616.072 161.32 618.316 159.928 619.948C158.536 621.556 156.448 622.36 153.664 622.36C150.856 622.36 148.756 621.556 147.364 619.948C145.996 618.316 145.312 616.072 145.312 613.216V597.52ZM169.16 622V597.52H172.436C174.62 600.64 176.624 603.784 178.448 606.952C180.296 610.096 182.024 613.384 183.632 616.816L183.272 607.456V597.52H186.332V622H183.056C181.376 618.496 179.636 615.088 177.836 611.776C176.06 608.44 174.116 605.188 172.004 602.02L172.22 611.992V622H169.16ZM207.695 619.084V622H194.015V597.52H207.335V600.472H197.147V608.14H206.255V611.092H197.147V619.084H207.695ZM226.1 622L224.264 616.312H214.976L213.14 622H210.08L218.216 597.52H221.168L229.34 622H226.1ZM217.244 609.256L215.876 613.468H223.328L221.96 609.256L219.62 601.696L217.244 609.256ZM228.214 600.472V597.52H245.602V600.472H238.474V622H235.342V600.472H228.214Z" fill="#01579B"/>
<g filter="url(#filter0_d_1_2)">
<rect x="45" y="686" width="296" height="68" rx="34" fill="#0085CF"/>
<path d="M150.496 728.084V731H136.816V706.52H150.136V709.472H139.948V717.14H149.056V720.092H139.948V728.084H150.496ZM163.681 715.592C163.009 715.592 162.253 715.772 161.413 716.132C160.573 716.468 159.517 717.14 158.245 718.148V731H155.293V713.18H158.101V715.664C159.373 714.608 160.501 713.876 161.485 713.468C162.469 713.036 163.441 712.82 164.401 712.82C165.529 712.82 166.465 713.084 167.209 713.612C167.953 714.116 168.505 714.848 168.865 715.808C170.185 714.68 171.361 713.9 172.393 713.468C173.449 713.036 174.481 712.82 175.489 712.82C177.073 712.82 178.285 713.348 179.125 714.404C179.965 715.436 180.385 716.912 180.385 718.832V731H177.433V719.264C177.433 716.816 176.545 715.592 174.769 715.592C174.097 715.592 173.329 715.772 172.465 716.132C171.625 716.468 170.569 717.14 169.297 718.148C169.321 718.244 169.333 718.352 169.333 718.472C169.333 718.592 169.333 718.712 169.333 718.832V731H166.381V719.264C166.381 716.816 165.481 715.592 163.681 715.592ZM193.71 731.36C192.366 731.36 190.974 731.084 189.534 730.532V738.668H186.582V713.18H189.39V715.7C190.494 714.644 191.502 713.9 192.414 713.468C193.326 713.036 194.262 712.82 195.222 712.82C197.118 712.82 198.57 713.54 199.578 714.98C200.61 716.42 201.126 718.448 201.126 721.064V723.152C201.126 725.648 200.49 727.64 199.218 729.128C197.97 730.616 196.134 731.36 193.71 731.36ZM194.502 715.592C193.806 715.592 193.086 715.772 192.342 716.132C191.598 716.492 190.662 717.224 189.534 718.328V727.832C190.23 728.144 190.902 728.372 191.55 728.516C192.198 728.636 192.834 728.696 193.458 728.696C195.09 728.696 196.266 728.204 196.986 727.22C197.706 726.212 198.066 724.856 198.066 723.152V721.064C198.066 719.192 197.766 717.812 197.166 716.924C196.59 716.036 195.702 715.592 194.502 715.592ZM219.51 729.956C218.43 730.484 217.35 730.844 216.27 731.036C215.19 731.252 214.194 731.36 213.282 731.36C210.714 731.36 208.794 730.628 207.522 729.164C206.274 727.7 205.65 725.696 205.65 723.152V720.992C205.65 718.52 206.274 716.54 207.522 715.052C208.794 713.564 210.582 712.82 212.886 712.82C214.11 712.82 215.226 713.072 216.234 713.576C217.266 714.056 218.082 714.8 218.682 715.808C219.306 716.792 219.618 718.064 219.618 719.624C219.618 720.632 219.474 721.784 219.186 723.08H208.566V723.152C208.566 724.976 208.938 726.356 209.682 727.292C210.45 728.228 211.674 728.696 213.354 728.696C214.122 728.696 214.962 728.6 215.874 728.408C216.81 728.216 217.722 727.916 218.61 727.508L219.51 729.956ZM212.886 715.412C211.494 715.412 210.438 715.868 209.718 716.78C209.022 717.668 208.638 718.928 208.566 720.56H216.63C216.702 720.128 216.738 719.72 216.738 719.336C216.738 717.992 216.354 717.008 215.586 716.384C214.842 715.736 213.942 715.412 212.886 715.412ZM235.203 728.444V731H222.819V728.696L231.351 715.772H223.179V713.18H234.843V715.52L226.275 728.444H235.203ZM252.595 731.18C251.491 731.18 250.603 730.928 249.931 730.424C249.283 729.92 248.827 729.296 248.563 728.552C247.387 729.584 246.319 730.316 245.359 730.748C244.399 731.156 243.439 731.36 242.479 731.36C240.919 731.36 239.767 730.856 239.023 729.848C238.279 728.84 237.907 727.604 237.907 726.14C237.907 725.156 238.087 724.28 238.447 723.512C238.807 722.744 239.419 722.144 240.283 721.712C241.147 721.256 242.311 721.028 243.775 721.028C244.423 721.028 245.131 721.076 245.899 721.172C246.667 721.244 247.447 721.34 248.239 721.46V719.048C248.239 717.704 247.939 716.792 247.339 716.312C246.763 715.808 245.911 715.556 244.783 715.556C243.247 715.556 241.531 715.976 239.635 716.816L238.699 714.368C239.803 713.864 240.859 713.48 241.867 713.216C242.875 712.952 243.895 712.82 244.927 712.82C246.607 712.82 247.891 713.096 248.779 713.648C249.667 714.2 250.279 714.932 250.615 715.844C250.951 716.756 251.119 717.752 251.119 718.832V726.536C251.119 727.088 251.227 727.556 251.443 727.94C251.659 728.3 252.091 728.48 252.739 728.48H253.135V731.18H252.595ZM240.823 726.104C240.823 726.92 241.015 727.58 241.399 728.084C241.783 728.588 242.335 728.84 243.055 728.84C243.679 728.84 244.399 728.66 245.215 728.3C246.031 727.916 247.039 727.16 248.239 726.032V723.764C246.607 723.5 245.167 723.368 243.919 723.368C242.815 723.368 242.023 723.596 241.543 724.052C241.063 724.508 240.823 725.192 240.823 726.104ZM266.676 715.772C265.596 715.772 264.54 715.964 263.508 716.348C262.5 716.732 261.42 717.464 260.268 718.544V731H257.316V713.18H260.124V716.06C261.348 714.86 262.464 714.02 263.472 713.54C264.504 713.06 265.572 712.82 266.676 712.82V715.772Z" fill="white"/>
</g>
</g>
<defs>
<filter id="filter0_d_1_2" x="41" y="686" width="304" height="76" filterUnits="userSpaceOnUse" color-interpolation-filters="sRGB">
<feFlood flood-opacity="0" result="BackgroundImageFix"/>
<feColorMatrix in="SourceAlpha" type="matrix" values="0 0 0 0 0 0 0 0 0 0 0 0 0 0 0 0 0 0 127 0" result="hardAlpha"/>
<feOffset dy="4"/>
<feGaussianBlur stdDeviation="2"/>
<feComposite in2="hardAlpha" operator="out"/>
<feColorMatrix type="matrix" values="0 0 0 0 0 0 0 0 0 0 0 0 0 0 0 0 0 0 0.25 0"/>
<feBlend mode="normal" in2="BackgroundImageFix" result="effect1_dropShadow_1_2"/>
<feBlend mode="normal" in="SourceGraphic" in2="effect1_dropShadow_1_2" result="shape"/>
</filter>
<clipPath id="clip0_1_2">
<rect width="390" height="844" fill="white"/>
</clipPath>
<clipPath id="clip1_1_2">
<rect width="90" height="90" fill="white" transform="translate(148 234)"/>
</clipPath>
</defs>
</svg>
