<?xml version="1.0" encoding="us-ascii" standalone="no"?><svg xmlns="http://www.w3.org/2000/svg" xmlns:xlink="http://www.w3.org/1999/xlink" contentStyleType="text/css" height="1396px" preserveAspectRatio="none" style="width:982px;height:1396px;background:#FFFFFF;" version="1.1" viewBox="0 0 982 1396" width="982px" zoomAndPan="magnify"><defs/><g><!--class Pista--><g id="elem_Pista"><rect codeLine="1" fill="#F1F1F1" height="80.5938" id="Pista" rx="2.5" ry="2.5" style="stroke:#181818;stroke-width:0.5;" width="96" x="708" y="413.6"/><ellipse cx="736.95" cy="429.6" fill="#ADD1B2" rx="11" ry="11" style="stroke:#181818;stroke-width:1.0;"/><path d="M741.0594,435.6 L733.3406,435.6 L733.3406,423.2094 L741.0594,423.2094 L741.0594,425.3656 L735.7938,425.3656 L735.7938,428.0375 L740.5594,428.0375 L740.5594,430.1938 L735.7938,430.1938 L735.7938,433.4438 L741.0594,433.4438 L741.0594,435.6 Z " fill="#000000"/><text fill="#000000" font-family="sans-serif" font-size="14" lengthAdjust="spacing" textLength="33" x="754.05" y="434.4467">Pista</text><line style="stroke:#181818;stroke-width:0.5;" x1="709" x2="803" y1="445.6" y2="445.6"/><ellipse cx="719" cy="459.2484" fill="none" rx="3" ry="3" style="stroke:#038048;stroke-width:1.0;"/><text fill="#000000" font-family="sans-serif" font-size="14" lengthAdjust="spacing" textLength="54" x="728" y="462.5951">n&#250;mero</text><ellipse cx="719" cy="475.5453" fill="none" rx="3" ry="3" style="stroke:#038048;stroke-width:1.0;"/><text fill="#000000" font-family="sans-serif" font-size="14" lengthAdjust="spacing" textLength="70" x="728" y="478.892">capacidad</text><line style="stroke:#181818;stroke-width:0.5;" x1="709" x2="803" y1="486.1938" y2="486.1938"/></g><!--class Padel--><g id="elem_Padel"><rect codeLine="6" fill="#F1F1F1" height="64.2969" id="Padel" rx="2.5" ry="2.5" style="stroke:#181818;stroke-width:0.5;" width="149" x="689.5" y="649.49"/><ellipse cx="740.75" cy="665.49" fill="#ADD1B2" rx="11" ry="11" style="stroke:#181818;stroke-width:1.0;"/><path d="M744.8594,671.49 L737.1406,671.49 L737.1406,659.0994 L744.8594,659.0994 L744.8594,661.2556 L739.5938,661.2556 L739.5938,663.9275 L744.3594,663.9275 L744.3594,666.0838 L739.5938,666.0838 L739.5938,669.3338 L744.8594,669.3338 L744.8594,671.49 Z " fill="#000000"/><text fill="#000000" font-family="sans-serif" font-size="14" lengthAdjust="spacing" textLength="38" x="761.25" y="670.3367">Padel</text><line style="stroke:#181818;stroke-width:0.5;" x1="690.5" x2="837.5" y1="681.49" y2="681.49"/><ellipse cx="700.5" cy="695.1384" fill="none" rx="3" ry="3" style="stroke:#038048;stroke-width:1.0;"/><text fill="#000000" font-family="sans-serif" font-size="14" lengthAdjust="spacing" textLength="123" x="709.5" y="698.4851">CapasidadMaxima</text><line style="stroke:#181818;stroke-width:0.5;" x1="690.5" x2="837.5" y1="705.7869" y2="705.7869"/></g><!--class Calendario--><g id="elem_Calendario"><rect codeLine="11" fill="#F1F1F1" height="64.2969" id="Calendario" rx="2.5" ry="2.5" style="stroke:#181818;stroke-width:0.5;" width="105" x="175.5" y="1104.97"/><ellipse cx="190.5" cy="1120.97" fill="#ADD1B2" rx="11" ry="11" style="stroke:#181818;stroke-width:1.0;"/><path d="M194.6094,1126.97 L186.8906,1126.97 L186.8906,1114.5794 L194.6094,1114.5794 L194.6094,1116.7356 L189.3438,1116.7356 L189.3438,1119.4075 L194.1094,1119.4075 L194.1094,1121.5638 L189.3438,1121.5638 L189.3438,1124.8138 L194.6094,1124.8138 L194.6094,1126.97 Z " fill="#000000"/><text fill="#000000" font-family="sans-serif" font-size="14" lengthAdjust="spacing" textLength="73" x="204.5" y="1125.8167">Calendario</text><line style="stroke:#181818;stroke-width:0.5;" x1="176.5" x2="279.5" y1="1136.97" y2="1136.97"/><ellipse cx="186.5" cy="1150.6184" fill="none" rx="3" ry="3" style="stroke:#038048;stroke-width:1.0;"/><text fill="#000000" font-family="sans-serif" font-size="14" lengthAdjust="spacing" textLength="56" x="195.5" y="1153.9651">eventos</text><line style="stroke:#181818;stroke-width:0.5;" x1="176.5" x2="279.5" y1="1161.2669" y2="1161.2669"/></g><!--class Usuario--><g id="elem_Usuario"><rect codeLine="15" fill="#F1F1F1" height="96.8906" id="Usuario" rx="2.5" ry="2.5" style="stroke:#181818;stroke-width:0.5;" width="84" x="377" y="869.08"/><ellipse cx="392" cy="885.08" fill="#ADD1B2" rx="11" ry="11" style="stroke:#181818;stroke-width:1.0;"/><path d="M396.1094,891.08 L388.3906,891.08 L388.3906,878.6894 L396.1094,878.6894 L396.1094,880.8456 L390.8438,880.8456 L390.8438,883.5175 L395.6094,883.5175 L395.6094,885.6738 L390.8438,885.6738 L390.8438,888.9238 L396.1094,888.9238 L396.1094,891.08 Z " fill="#000000"/><text fill="#000000" font-family="sans-serif" font-size="14" lengthAdjust="spacing" textLength="52" x="406" y="889.9267">Usuario</text><line style="stroke:#181818;stroke-width:0.5;" x1="378" x2="460" y1="901.08" y2="901.08"/><ellipse cx="388" cy="914.7284" fill="none" rx="3" ry="3" style="stroke:#038048;stroke-width:1.0;"/><text fill="#000000" font-family="sans-serif" font-size="14" lengthAdjust="spacing" textLength="54" x="397" y="918.0751">nombre</text><ellipse cx="388" cy="931.0253" fill="none" rx="3" ry="3" style="stroke:#038048;stroke-width:1.0;"/><text fill="#000000" font-family="sans-serif" font-size="14" lengthAdjust="spacing" textLength="36" x="397" y="934.372">email</text><ellipse cx="388" cy="947.3222" fill="none" rx="3" ry="3" style="stroke:#038048;stroke-width:1.0;"/><text fill="#000000" font-family="sans-serif" font-size="14" lengthAdjust="spacing" textLength="57" x="397" y="950.6689">telefono</text><line style="stroke:#181818;stroke-width:0.5;" x1="378" x2="460" y1="957.9706" y2="957.9706"/></g><!--class Pago--><g id="elem_Pago"><rect codeLine="21" fill="#F1F1F1" height="80.5938" id="Pago" rx="2.5" ry="2.5" style="stroke:#181818;stroke-width:0.5;" width="115" x="324.5" y="413.6"/><ellipse cx="361.1" cy="429.6" fill="#ADD1B2" rx="11" ry="11" style="stroke:#181818;stroke-width:1.0;"/><path d="M365.2094,435.6 L357.4906,435.6 L357.4906,423.2094 L365.2094,423.2094 L365.2094,425.3656 L359.9438,425.3656 L359.9438,428.0375 L364.7094,428.0375 L364.7094,430.1938 L359.9438,430.1938 L359.9438,433.4438 L365.2094,433.4438 L365.2094,435.6 Z " fill="#000000"/><text fill="#000000" font-family="sans-serif" font-size="14" lengthAdjust="spacing" textLength="35" x="379.9" y="434.4467">Pago</text><line style="stroke:#181818;stroke-width:0.5;" x1="325.5" x2="438.5" y1="445.6" y2="445.6"/><ellipse cx="335.5" cy="459.2484" fill="none" rx="3" ry="3" style="stroke:#038048;stroke-width:1.0;"/><text fill="#000000" font-family="sans-serif" font-size="14" lengthAdjust="spacing" textLength="89" x="344.5" y="462.5951">metodoPago</text><ellipse cx="335.5" cy="475.5453" fill="none" rx="3" ry="3" style="stroke:#038048;stroke-width:1.0;"/><text fill="#000000" font-family="sans-serif" font-size="14" lengthAdjust="spacing" textLength="45" x="344.5" y="478.892">monto</text><line style="stroke:#181818;stroke-width:0.5;" x1="325.5" x2="438.5" y1="486.1938" y2="486.1938"/></g><!--class Factura--><g id="elem_Factura"><rect codeLine="26" fill="#F1F1F1" height="96.8906" id="Factura" rx="2.5" ry="2.5" style="stroke:#181818;stroke-width:0.5;" width="118" x="458" y="633.19"/><ellipse cx="488.75" cy="649.19" fill="#ADD1B2" rx="11" ry="11" style="stroke:#181818;stroke-width:1.0;"/><path d="M492.8594,655.19 L485.1406,655.19 L485.1406,642.7994 L492.8594,642.7994 L492.8594,644.9556 L487.5938,644.9556 L487.5938,647.6275 L492.3594,647.6275 L492.3594,649.7838 L487.5938,649.7838 L487.5938,653.0338 L492.8594,653.0338 L492.8594,655.19 Z " fill="#000000"/><text fill="#000000" font-family="sans-serif" font-size="14" lengthAdjust="spacing" textLength="51" x="506.25" y="654.0367">Factura</text><line style="stroke:#181818;stroke-width:0.5;" x1="459" x2="575" y1="665.19" y2="665.19"/><ellipse cx="469" cy="678.8384" fill="none" rx="3" ry="3" style="stroke:#038048;stroke-width:1.0;"/><text fill="#000000" font-family="sans-serif" font-size="14" lengthAdjust="spacing" textLength="92" x="478" y="682.1851">fechaEmision</text><ellipse cx="469" cy="695.1353" fill="none" rx="3" ry="3" style="stroke:#038048;stroke-width:1.0;"/><text fill="#000000" font-family="sans-serif" font-size="14" lengthAdjust="spacing" textLength="30" x="478" y="698.482">total</text><ellipse cx="469" cy="711.4322" fill="none" rx="3" ry="3" style="stroke:#038048;stroke-width:1.0;"/><text fill="#000000" font-family="sans-serif" font-size="14" lengthAdjust="spacing" textLength="48" x="478" y="714.7789">estado</text><line style="stroke:#181818;stroke-width:0.5;" x1="459" x2="575" y1="722.0806" y2="722.0806"/></g><!--class Tarifas--><g id="elem_Tarifas"><rect codeLine="32" fill="#F1F1F1" height="64.2969" id="Tarifas" rx="2.5" ry="2.5" style="stroke:#181818;stroke-width:0.5;" width="101" x="874.5" y="421.75"/><ellipse cx="900.3" cy="437.75" fill="#ADD1B2" rx="11" ry="11" style="stroke:#181818;stroke-width:1.0;"/><path d="M904.4094,443.75 L896.6906,443.75 L896.6906,431.3594 L904.4094,431.3594 L904.4094,433.5156 L899.1438,433.5156 L899.1438,436.1875 L903.9094,436.1875 L903.9094,438.3438 L899.1438,438.3438 L899.1438,441.5938 L904.4094,441.5938 L904.4094,443.75 Z " fill="#000000"/><text fill="#000000" font-family="sans-serif" font-size="14" lengthAdjust="spacing" textLength="45" x="916.7" y="442.5967">Tarifas</text><line style="stroke:#181818;stroke-width:0.5;" x1="875.5" x2="974.5" y1="453.75" y2="453.75"/><ellipse cx="885.5" cy="467.3984" fill="none" rx="3" ry="3" style="stroke:#038048;stroke-width:1.0;"/><text fill="#000000" font-family="sans-serif" font-size="14" lengthAdjust="spacing" textLength="75" x="894.5" y="470.7451">precioHora</text><line style="stroke:#181818;stroke-width:0.5;" x1="875.5" x2="974.5" y1="478.0469" y2="478.0469"/></g><!--class Disponibilidad--><g id="elem_Disponibilidad"><rect codeLine="36" fill="#F1F1F1" height="64.2969" id="Disponibilidad" rx="2.5" ry="2.5" style="stroke:#181818;stroke-width:0.5;" width="146" x="584" y="885.38"/><ellipse cx="607.1" cy="901.38" fill="#ADD1B2" rx="11" ry="11" style="stroke:#181818;stroke-width:1.0;"/><path d="M611.2094,907.38 L603.4906,907.38 L603.4906,894.9894 L611.2094,894.9894 L611.2094,897.1456 L605.9438,897.1456 L605.9438,899.8175 L610.7094,899.8175 L610.7094,901.9738 L605.9438,901.9738 L605.9438,905.2238 L611.2094,905.2238 L611.2094,907.38 Z " fill="#000000"/><text fill="#000000" font-family="sans-serif" font-size="14" lengthAdjust="spacing" textLength="96" x="622.9" y="906.2267">Disponibilidad</text><line style="stroke:#181818;stroke-width:0.5;" x1="585" x2="729" y1="917.38" y2="917.38"/><ellipse cx="595" cy="931.0284" fill="none" rx="3" ry="3" style="stroke:#038048;stroke-width:1.0;"/><text fill="#000000" font-family="sans-serif" font-size="14" lengthAdjust="spacing" textLength="120" x="604" y="934.3751">horasDisponibles</text><line style="stroke:#181818;stroke-width:0.5;" x1="585" x2="729" y1="941.6769" y2="941.6769"/></g><!--class Reserva--><g id="elem_Reserva"><rect codeLine="40" fill="#F1F1F1" height="80.5938" id="Reserva" rx="2.5" ry="2.5" style="stroke:#181818;stroke-width:0.5;" width="99" x="310.5" y="194"/><ellipse cx="330.45" cy="210" fill="#ADD1B2" rx="11" ry="11" style="stroke:#181818;stroke-width:1.0;"/><path d="M334.5594,216 L326.8406,216 L326.8406,203.6094 L334.5594,203.6094 L334.5594,205.7656 L329.2938,205.7656 L329.2938,208.4375 L334.0594,208.4375 L334.0594,210.5938 L329.2938,210.5938 L329.2938,213.8438 L334.5594,213.8438 L334.5594,216 Z " fill="#000000"/><text fill="#000000" font-family="sans-serif" font-size="14" lengthAdjust="spacing" textLength="56" x="345.55" y="214.8467">Reserva</text><line style="stroke:#181818;stroke-width:0.5;" x1="311.5" x2="408.5" y1="226" y2="226"/><ellipse cx="321.5" cy="239.6484" fill="none" rx="3" ry="3" style="stroke:#038048;stroke-width:1.0;"/><text fill="#000000" font-family="sans-serif" font-size="14" lengthAdjust="spacing" textLength="73" x="330.5" y="242.9951">fechaInicio</text><ellipse cx="321.5" cy="255.9453" fill="none" rx="3" ry="3" style="stroke:#038048;stroke-width:1.0;"/><text fill="#000000" font-family="sans-serif" font-size="14" lengthAdjust="spacing" textLength="58" x="330.5" y="259.292">fechaFin</text><line style="stroke:#181818;stroke-width:0.5;" x1="311.5" x2="408.5" y1="266.5938" y2="266.5938"/></g><!--class CancelarReserva--><g id="elem_CancelarReserva"><rect codeLine="45" fill="#F1F1F1" height="48" id="CancelarReserva" rx="2.5" ry="2.5" style="stroke:#181818;stroke-width:0.5;" width="148" x="7" y="210.3"/><ellipse cx="22" cy="226.3" fill="#ADD1B2" rx="11" ry="11" style="stroke:#181818;stroke-width:1.0;"/><path d="M26.1094,232.3 L18.3906,232.3 L18.3906,219.9094 L26.1094,219.9094 L26.1094,222.0656 L20.8438,222.0656 L20.8438,224.7375 L25.6094,224.7375 L25.6094,226.8938 L20.8438,226.8938 L20.8438,230.1438 L26.1094,230.1438 L26.1094,232.3 Z " fill="#000000"/><text fill="#000000" font-family="sans-serif" font-size="14" lengthAdjust="spacing" textLength="116" x="36" y="231.1467">CancelarReserva</text><line style="stroke:#181818;stroke-width:0.5;" x1="8" x2="154" y1="242.3" y2="242.3"/><line style="stroke:#181818;stroke-width:0.5;" x1="8" x2="154" y1="250.3" y2="250.3"/></g><!--class Fecha--><g id="elem_Fecha"><rect codeLine="48" fill="#F1F1F1" height="96.8906" id="Fecha" rx="2.5" ry="2.5" style="stroke:#181818;stroke-width:0.5;" width="74" x="135" y="1292.27"/><ellipse cx="150" cy="1308.27" fill="#ADD1B2" rx="11" ry="11" style="stroke:#181818;stroke-width:1.0;"/><path d="M154.1094,1314.27 L146.3906,1314.27 L146.3906,1301.8794 L154.1094,1301.8794 L154.1094,1304.0356 L148.8438,1304.0356 L148.8438,1306.7075 L153.6094,1306.7075 L153.6094,1308.8638 L148.8438,1308.8638 L148.8438,1312.1138 L154.1094,1312.1138 L154.1094,1314.27 Z " fill="#000000"/><text fill="#000000" font-family="sans-serif" font-size="14" lengthAdjust="spacing" textLength="42" x="164" y="1313.1167">Fecha</text><line style="stroke:#181818;stroke-width:0.5;" x1="136" x2="208" y1="1324.27" y2="1324.27"/><ellipse cx="146" cy="1337.9184" fill="none" rx="3" ry="3" style="stroke:#038048;stroke-width:1.0;"/><text fill="#000000" font-family="sans-serif" font-size="14" lengthAdjust="spacing" textLength="20" x="155" y="1341.2651">dia</text><ellipse cx="146" cy="1354.2153" fill="none" rx="3" ry="3" style="stroke:#038048;stroke-width:1.0;"/><text fill="#000000" font-family="sans-serif" font-size="14" lengthAdjust="spacing" textLength="30" x="155" y="1357.562">mes</text><ellipse cx="146" cy="1370.5122" fill="none" rx="3" ry="3" style="stroke:#038048;stroke-width:1.0;"/><text fill="#000000" font-family="sans-serif" font-size="14" lengthAdjust="spacing" textLength="26" x="155" y="1373.8589">a&#241;o</text><line style="stroke:#181818;stroke-width:0.5;" x1="136" x2="208" y1="1381.1606" y2="1381.1606"/></g><!--class Horas--><g id="elem_Horas"><rect codeLine="54" fill="#F1F1F1" height="80.5938" id="Horas" rx="2.5" ry="2.5" style="stroke:#181818;stroke-width:0.5;" width="82" x="244" y="1300.42"/><ellipse cx="263.5" cy="1316.42" fill="#ADD1B2" rx="11" ry="11" style="stroke:#181818;stroke-width:1.0;"/><path d="M267.6094,1322.42 L259.8906,1322.42 L259.8906,1310.0294 L267.6094,1310.0294 L267.6094,1312.1856 L262.3438,1312.1856 L262.3438,1314.8575 L267.1094,1314.8575 L267.1094,1317.0138 L262.3438,1317.0138 L262.3438,1320.2638 L267.6094,1320.2638 L267.6094,1322.42 Z " fill="#000000"/><text fill="#000000" font-family="sans-serif" font-size="14" lengthAdjust="spacing" textLength="40" x="278.5" y="1321.2667">Horas</text><line style="stroke:#181818;stroke-width:0.5;" x1="245" x2="325" y1="1332.42" y2="1332.42"/><ellipse cx="255" cy="1346.0684" fill="none" rx="3" ry="3" style="stroke:#038048;stroke-width:1.0;"/><text fill="#000000" font-family="sans-serif" font-size="14" lengthAdjust="spacing" textLength="31" x="264" y="1349.4151">hora</text><ellipse cx="255" cy="1362.3653" fill="none" rx="3" ry="3" style="stroke:#038048;stroke-width:1.0;"/><text fill="#000000" font-family="sans-serif" font-size="14" lengthAdjust="spacing" textLength="56" x="264" y="1365.712">minutos</text><line style="stroke:#181818;stroke-width:0.5;" x1="245" x2="325" y1="1373.0138" y2="1373.0138"/></g><!--class SistemaDeReservas--><g id="elem_SistemaDeReservas"><rect fill="#F1F1F1" height="48" id="SistemaDeReservas" rx="2.5" ry="2.5" style="stroke:#181818;stroke-width:0.5;" width="171" x="554.5" y="7"/><ellipse cx="569.5" cy="23" fill="#ADD1B2" rx="11" ry="11" style="stroke:#181818;stroke-width:1.0;"/><path d="M572.4688,28.6406 Q571.8906,28.9375 571.25,29.0781 Q570.6094,29.2344 569.9063,29.2344 Q567.4063,29.2344 566.0781,27.5938 Q564.7656,25.9375 564.7656,22.8125 Q564.7656,19.6875 566.0781,18.0313 Q567.4063,16.375 569.9063,16.375 Q570.6094,16.375 571.25,16.5313 Q571.9063,16.6875 572.4688,16.9844 L572.4688,19.7031 Q571.8438,19.125 571.25,18.8594 Q570.6563,18.5781 570.0313,18.5781 Q568.6875,18.5781 568,19.6563 Q567.3125,20.7188 567.3125,22.8125 Q567.3125,24.9063 568,25.9844 Q568.6875,27.0469 570.0313,27.0469 Q570.6563,27.0469 571.25,26.7813 Q571.8438,26.5 572.4688,25.9219 L572.4688,28.6406 Z " fill="#000000"/><text fill="#000000" font-family="sans-serif" font-size="14" lengthAdjust="spacing" textLength="139" x="583.5" y="27.8467">SistemaDeReservas</text><line style="stroke:#181818;stroke-width:0.5;" x1="555.5" x2="724.5" y1="39" y2="39"/><line style="stroke:#181818;stroke-width:0.5;" x1="555.5" x2="724.5" y1="47" y2="47"/></g><!--link SistemaDeReservas to Usuario--><g id="link_SistemaDeReservas_Usuario"><path codeLine="61" d="M640,55.32 C640,73.81 640,100.31 640,123.5 C640,123.5 640,123.5 640,305.6 C640,402.76 637,427.03 637,524.19 C637,524.19 637,524.19 637,800.58 C637,839.97 524.69,882.55 461.29,903.45 " fill="none" id="SistemaDeReservas-Usuario" style="stroke:#181818;stroke-width:1.0;"/><text fill="#000000" font-family="sans-serif" font-size="13" lengthAdjust="spacing" textLength="34" x="639" y="458.4569">Tiene</text></g><!--link SistemaDeReservas to Reserva--><g id="link_SistemaDeReservas_Reserva"><path codeLine="62" d="M607.33,55.49 C558.72,90.44 466.95,156.41 409.89,197.43 " fill="none" id="SistemaDeReservas-Reserva" style="stroke:#181818;stroke-width:1.0;"/><text fill="#000000" font-family="sans-serif" font-size="13" lengthAdjust="spacing" textLength="57" x="523" y="129.0669">Gestiona</text></g><!--link SistemaDeReservas to Pista--><g id="link_SistemaDeReservas_Pista"><path codeLine="63" d="M692.41,55.33 C717.85,70.55 743,93.25 743,123.5 C743,123.5 743,123.5 743,345.1 C743,367.72 745.86,392.82 748.89,413.1 " fill="none" id="SistemaDeReservas-Pista" style="stroke:#181818;stroke-width:1.0;"/><text fill="#000000" font-family="sans-serif" font-size="13" lengthAdjust="spacing" textLength="57" x="744" y="238.8669">Gestiona</text></g><!--link Usuario to Reserva--><g id="link_Usuario_Reserva"><path codeLine="64" d="M376.88,903.47 C333.44,887.07 272,854.38 272,800.58 C272,343.1 272,343.1 272,343.1 C272,314.95 290.22,290.1 310.09,271.37 " fill="none" id="Usuario-Reserva" style="stroke:#181818;stroke-width:1.0;"/><text fill="#000000" font-family="sans-serif" font-size="13" lengthAdjust="spacing" textLength="33" x="273" y="568.2569">Hace</text></g><!--link Calendario to Reserva--><g id="link_Calendario_Reserva"><path codeLine="65" d="M206.26,1104.89 C195.17,1085.98 184,1060.87 184,1036.47 C184,343.1 184,343.1 184,343.1 C184,283.62 258,255.95 310.04,243.85 " fill="none" id="Calendario-Reserva" style="stroke:#181818;stroke-width:1.0;"/><text fill="#000000" font-family="sans-serif" font-size="13" lengthAdjust="spacing" textLength="32" x="185" y="686.2069">tiene</text></g><!--link Usuario to Pago--><g id="link_Usuario_Pago"><path codeLine="66" d="M392.62,868.61 C383.72,848.25 376,823.88 376,800.58 C376,562.69 376,562.69 376,562.69 C376,540.11 377.33,514.9 378.74,494.54 " fill="none" id="Usuario-Pago" style="stroke:#181818;stroke-width:1.0;"/><text fill="#000000" font-family="sans-serif" font-size="13" lengthAdjust="spacing" textLength="45" x="377" y="686.2069">Realiza</text></g><!--link Pago to Factura--><g id="link_Pago_Factura"><path codeLine="67" d="M405.67,494.47 C428.73,533.04 463.83,591.72 488.43,632.87 " fill="none" id="Pago-Factura" style="stroke:#181818;stroke-width:1.0;"/><text fill="#000000" font-family="sans-serif" font-size="13" lengthAdjust="spacing" textLength="75" x="452" y="568.2569">Que genera</text></g><!--link Factura to Usuario--><g id="link_Factura_Usuario"><path codeLine="68" d="M496.93,730.53 C480.02,770.89 455.95,828.35 439.04,868.7 " fill="none" id="Factura-Usuario" style="stroke:#181818;stroke-width:1.0;"/><text fill="#000000" font-family="sans-serif" font-size="13" lengthAdjust="spacing" textLength="114" x="472" y="804.1469">Que se le entrega</text></g><!--link Reserva to Pago--><g id="link_Reserva_Pago"><path codeLine="69" d="M364.01,274.96 C367.98,314.18 374.01,373.88 377.98,413.14 " fill="none" id="Reserva-Pago" style="stroke:#181818;stroke-width:1.0;"/><text fill="#000000" font-family="sans-serif" font-size="13" lengthAdjust="spacing" textLength="56" x="372" y="348.6669">Requiere</text></g><!--link Reserva to Pista--><g id="link_Reserva_Pista"><path codeLine="70" d="M409.75,262.64 C486.3,304.7 632.02,384.77 707.69,426.35 " fill="none" id="Reserva-Pista" style="stroke:#181818;stroke-width:1.0;"/><text fill="#000000" font-family="sans-serif" font-size="13" lengthAdjust="spacing" textLength="97" x="572" y="348.6669">Se reserva una</text></g><!--link CancelarReserva to Reserva--><g id="link_CancelarReserva_Reserva"><path codeLine="71" d="M155.4,234.3 C204.31,234.3 266.99,234.3 310.01,234.3 " fill="none" id="CancelarReserva-Reserva" style="stroke:#181818;stroke-width:1.0;"/><text fill="#000000" font-family="sans-serif" font-size="13" lengthAdjust="spacing" textLength="119" x="173.25" y="227.3669">Se puede cancelar</text></g><!--link Pista to Padel--><g id="link_Pista_Padel"><path codeLine="72" d="M757.4,494.47 C758.96,538.48 761.45,608.67 762.88,649.12 " fill="none" id="Pista-Padel" style="stroke:#181818;stroke-width:1.0;"/></g><!--link Pista to Tarifas--><g id="link_Pista_Tarifas"><path codeLine="73" d="M804.43,453.89 C826.28,453.89 852.09,453.89 874.21,453.89 " fill="none" id="Pista-Tarifas" style="stroke:#181818;stroke-width:1.0;"/><text fill="#000000" font-family="sans-serif" font-size="13" lengthAdjust="spacing" textLength="34" x="822.25" y="446.9569">Tiene</text></g><!--link Padel to Disponibilidad--><g id="link_Padel_Disponibilidad"><path codeLine="74" d="M749.57,714.18 C729.09,758.94 691.82,840.42 671.37,885.11 " fill="none" id="Padel-Disponibilidad" style="stroke:#181818;stroke-width:1.0;"/><text fill="#000000" font-family="sans-serif" font-size="13" lengthAdjust="spacing" textLength="34" x="715" y="804.1469">Tiene</text></g><!--link Disponibilidad to Calendario--><g id="link_Disponibilidad_Calendario"><path codeLine="75" d="M594.62,950.17 C510.03,993.07 360.42,1068.96 280.99,1109.25 " fill="none" id="Disponibilidad-Calendario" style="stroke:#181818;stroke-width:1.0;"/><text fill="#000000" font-family="sans-serif" font-size="13" lengthAdjust="spacing" textLength="34" x="443" y="1040.0369">Tiene</text></g><!--link Calendario to Fecha--><g id="link_Calendario_Fecha"><path codeLine="76" d="M219.25,1169.62 C210.14,1202.4 195.77,1254.13 185.27,1291.94 " fill="none" id="Calendario-Fecha" style="stroke:#181818;stroke-width:1.0;"/></g><!--link Calendario to Horas--><g id="link_Calendario_Horas"><path codeLine="77" d="M236.91,1169.62 C246.86,1204.83 263,1261.92 273.81,1300.13 " fill="none" id="Calendario-Horas" style="stroke:#181818;stroke-width:1.0;"/></g><!--SRC=[TPDBJiCm48RtFeNtA1V8jb2A11AqvG3JPDgEvDZ1JYeUub1isVPYZ5_4gTHLOiytZtzcZ7gWuKC-anj0VWafRwG-_tPeJVXle8U6McZ5jn2OM6XH9NR1TkVjJ_1E7NWgOmjGg5kmP1AB9xOOLqHwTMDXrwRRMOne1wJ2tu0AzqQRMVv3TkbmCAtn5_5eE451Bg4PHfjrxR4vmbr7ZeoEiSq0CGko-hRqt79TUt39ixVOa5aP2mLoIwutcdQalFv47fbnsQAm5Bj6X_OqA-P14yUTpalIXSC2T8CAxEHOAFDu2jKIf6Quy8NpJod5b-sAyY9BUaop46B3m-UEtsBAv6HLLNaujTmIQhm2fKCjxxc5t5UumeNzAgWy-LcC5JGeijhgiIfMg9P3gEBVRrs5FQZP6nHzWWXRuSEbeTVoPKHvO2TU094tOIRC0mwbGicjidY0ANarXNyR2ItEJL7D1gLDjwE6YyfdimjiFsAB_AAYHOGWCH6_ftWCkjBkvSR7v-R1-SPb-_pMSsNR8bEynT0YlpsNbs5F_W00]--></g></svg>