<?xml version="1.0" encoding="us-ascii" standalone="no"?><svg xmlns="http://www.w3.org/2000/svg" xmlns:xlink="http://www.w3.org/1999/xlink" contentStyleType="text/css" height="1038px" preserveAspectRatio="none" style="width:823px;height:1038px;background:#FFFFFF;" version="1.1" viewBox="0 0 823 1038" width="823px" zoomAndPan="magnify"><defs/><g><!--class Reserva--><g id="elem_Reserva"><rect codeLine="1" fill="#F1F1F1" height="129.4844" id="Reserva" rx="2.5" ry="2.5" style="stroke:#181818;stroke-width:0.5;" width="155" x="421" y="429.89"/><ellipse cx="466.25" cy="445.89" fill="#ADD1B2" rx="11" ry="11" style="stroke:#181818;stroke-width:1.0;"/><path d="M470.3594,451.89 L462.6406,451.89 L462.6406,439.4994 L470.3594,439.4994 L470.3594,441.6556 L465.0938,441.6556 L465.0938,444.3275 L469.8594,444.3275 L469.8594,446.4838 L465.0938,446.4838 L465.0938,449.7338 L470.3594,449.7338 L470.3594,451.89 Z " fill="#000000"/><text fill="#000000" font-family="sans-serif" font-size="14" lengthAdjust="spacing" textLength="56" x="486.75" y="450.7367">Reserva</text><line style="stroke:#181818;stroke-width:0.5;" x1="422" x2="575" y1="461.89" y2="461.89"/><ellipse cx="432" cy="475.5384" fill="none" rx="3" ry="3" style="stroke:#038048;stroke-width:1.0;"/><text fill="#000000" font-family="sans-serif" font-size="14" lengthAdjust="spacing" textLength="55" x="441" y="478.8851">pista : 1</text><ellipse cx="432" cy="491.8353" fill="none" rx="3" ry="3" style="stroke:#038048;stroke-width:1.0;"/><text fill="#000000" font-family="sans-serif" font-size="14" lengthAdjust="spacing" textLength="129" x="441" y="495.182">fecha: 17/05/2024</text><ellipse cx="432" cy="508.1322" fill="none" rx="3" ry="3" style="stroke:#038048;stroke-width:1.0;"/><text fill="#000000" font-family="sans-serif" font-size="14" lengthAdjust="spacing" textLength="81" x="441" y="511.4789">hora: 10:00</text><ellipse cx="432" cy="524.4291" fill="none" rx="3" ry="3" style="stroke:#038048;stroke-width:1.0;"/><text fill="#000000" font-family="sans-serif" font-size="14" lengthAdjust="spacing" textLength="114" x="441" y="527.7757">disponibilidad: s&#237;</text><ellipse cx="432" cy="540.7259" fill="none" rx="3" ry="3" style="stroke:#038048;stroke-width:1.0;"/><text fill="#000000" font-family="sans-serif" font-size="14" lengthAdjust="spacing" textLength="110" x="441" y="544.0726">idPago: 198341</text><line style="stroke:#181818;stroke-width:0.5;" x1="422" x2="575" y1="551.3744" y2="551.3744"/></g><!--class Usuario--><g id="elem_Usuario"><rect codeLine="8" fill="#F1F1F1" height="96.8906" id="Usuario" rx="2.5" ry="2.5" style="stroke:#181818;stroke-width:0.5;" width="308" x="508.5" y="194"/><ellipse cx="632.25" cy="210" fill="#ADD1B2" rx="11" ry="11" style="stroke:#181818;stroke-width:1.0;"/><path d="M636.3594,216 L628.6406,216 L628.6406,203.6094 L636.3594,203.6094 L636.3594,205.7656 L631.0938,205.7656 L631.0938,208.4375 L635.8594,208.4375 L635.8594,210.5938 L631.0938,210.5938 L631.0938,213.8438 L636.3594,213.8438 L636.3594,216 Z " fill="#000000"/><text fill="#000000" font-family="sans-serif" font-size="14" lengthAdjust="spacing" textLength="52" x="652.75" y="214.8467">Usuario</text><line style="stroke:#181818;stroke-width:0.5;" x1="509.5" x2="815.5" y1="226" y2="226"/><ellipse cx="519.5" cy="239.6484" fill="none" rx="3" ry="3" style="stroke:#038048;stroke-width:1.0;"/><text fill="#000000" font-family="sans-serif" font-size="14" lengthAdjust="spacing" textLength="113" x="528.5" y="242.9951">nombre: JonDoe</text><ellipse cx="519.5" cy="255.9453" fill="none" rx="3" ry="3" style="stroke:#038048;stroke-width:1.0;"/><text fill="#000000" font-family="sans-serif" font-size="14" lengthAdjust="spacing" textLength="282" x="528.5" y="259.292">email: Jon.Doe@alumnos.unetalantico.es</text><ellipse cx="519.5" cy="272.2422" fill="none" rx="3" ry="3" style="stroke:#038048;stroke-width:1.0;"/><text fill="#000000" font-family="sans-serif" font-size="14" lengthAdjust="spacing" textLength="181" x="528.5" y="275.5889">telefono: +34 123456789</text><line style="stroke:#181818;stroke-width:0.5;" x1="509.5" x2="815.5" y1="282.8906" y2="282.8906"/></g><!--class Pista--><g id="elem_Pista"><rect codeLine="13" fill="#F1F1F1" height="96.8906" id="Pista" rx="2.5" ry="2.5" style="stroke:#181818;stroke-width:0.5;" width="161" x="7" y="698.38"/><ellipse cx="66.75" cy="714.38" fill="#ADD1B2" rx="11" ry="11" style="stroke:#181818;stroke-width:1.0;"/><path d="M70.8594,720.38 L63.1406,720.38 L63.1406,707.9894 L70.8594,707.9894 L70.8594,710.1456 L65.5938,710.1456 L65.5938,712.8175 L70.3594,712.8175 L70.3594,714.9738 L65.5938,714.9738 L65.5938,718.2238 L70.8594,718.2238 L70.8594,720.38 Z " fill="#000000"/><text fill="#000000" font-family="sans-serif" font-size="14" lengthAdjust="spacing" textLength="33" x="87.25" y="719.2267">Pista</text><line style="stroke:#181818;stroke-width:0.5;" x1="8" x2="167" y1="730.38" y2="730.38"/><ellipse cx="18" cy="744.0284" fill="none" rx="3" ry="3" style="stroke:#038048;stroke-width:1.0;"/><text fill="#000000" font-family="sans-serif" font-size="14" lengthAdjust="spacing" textLength="72" x="27" y="747.3751">n&#250;mero: 1</text><ellipse cx="18" cy="760.3253" fill="none" rx="3" ry="3" style="stroke:#038048;stroke-width:1.0;"/><text fill="#000000" font-family="sans-serif" font-size="14" lengthAdjust="spacing" textLength="135" x="27" y="763.672">horario: 8:00-20:00</text><ellipse cx="18" cy="776.6222" fill="none" rx="3" ry="3" style="stroke:#038048;stroke-width:1.0;"/><text fill="#000000" font-family="sans-serif" font-size="14" lengthAdjust="spacing" textLength="88" x="27" y="779.9689">capacidad: 4</text><line style="stroke:#181818;stroke-width:0.5;" x1="8" x2="167" y1="787.2706" y2="787.2706"/></g><!--class Pago--><g id="elem_Pago"><rect codeLine="18" fill="#F1F1F1" height="80.5938" id="Pago" rx="2.5" ry="2.5" style="stroke:#181818;stroke-width:0.5;" width="267" x="203" y="706.53"/><ellipse cx="314.75" cy="722.53" fill="#ADD1B2" rx="11" ry="11" style="stroke:#181818;stroke-width:1.0;"/><path d="M318.8594,728.53 L311.1406,728.53 L311.1406,716.1394 L318.8594,716.1394 L318.8594,718.2956 L313.5938,718.2956 L313.5938,720.9675 L318.3594,720.9675 L318.3594,723.1238 L313.5938,723.1238 L313.5938,726.3738 L318.8594,726.3738 L318.8594,728.53 Z " fill="#000000"/><text fill="#000000" font-family="sans-serif" font-size="14" lengthAdjust="spacing" textLength="35" x="335.25" y="727.3767">Pago</text><line style="stroke:#181818;stroke-width:0.5;" x1="204" x2="469" y1="738.53" y2="738.53"/><ellipse cx="214" cy="752.1784" fill="none" rx="3" ry="3" style="stroke:#038048;stroke-width:1.0;"/><text fill="#000000" font-family="sans-serif" font-size="14" lengthAdjust="spacing" textLength="241" x="223" y="755.5251">metodoDePago: Tarjeta de Cr&#233;dito</text><ellipse cx="214" cy="768.4753" fill="none" rx="3" ry="3" style="stroke:#038048;stroke-width:1.0;"/><text fill="#000000" font-family="sans-serif" font-size="14" lengthAdjust="spacing" textLength="72" x="223" y="771.822">monto: 8&#8364;</text><line style="stroke:#181818;stroke-width:0.5;" x1="204" x2="469" y1="779.1238" y2="779.1238"/></g><!--class Bono--><g id="elem_Bono"><rect codeLine="22" fill="#F1F1F1" height="64.2969" id="Bono" rx="2.5" ry="2.5" style="stroke:#181818;stroke-width:0.5;" width="152" x="251.5" y="950.57"/><ellipse cx="304.75" cy="966.57" fill="#ADD1B2" rx="11" ry="11" style="stroke:#181818;stroke-width:1.0;"/><path d="M308.8594,972.57 L301.1406,972.57 L301.1406,960.1794 L308.8594,960.1794 L308.8594,962.3356 L303.5938,962.3356 L303.5938,965.0075 L308.3594,965.0075 L308.3594,967.1638 L303.5938,967.1638 L303.5938,970.4138 L308.8594,970.4138 L308.8594,972.57 Z " fill="#000000"/><text fill="#000000" font-family="sans-serif" font-size="14" lengthAdjust="spacing" textLength="37" x="325.25" y="971.4167">Bono</text><line style="stroke:#181818;stroke-width:0.5;" x1="252.5" x2="402.5" y1="982.57" y2="982.57"/><ellipse cx="262.5" cy="996.2184" fill="none" rx="3" ry="3" style="stroke:#038048;stroke-width:1.0;"/><text fill="#000000" font-family="sans-serif" font-size="14" lengthAdjust="spacing" textLength="126" x="271.5" y="999.5651">horasAbonadas: 3</text><line style="stroke:#181818;stroke-width:0.5;" x1="252.5" x2="402.5" y1="1006.8669" y2="1006.8669"/></g><!--class Factura--><g id="elem_Factura"><rect codeLine="25" fill="#F1F1F1" height="96.8906" id="Factura" rx="2.5" ry="2.5" style="stroke:#181818;stroke-width:0.5;" width="209" x="439" y="934.27"/><ellipse cx="513.75" cy="950.27" fill="#ADD1B2" rx="11" ry="11" style="stroke:#181818;stroke-width:1.0;"/><path d="M517.8594,956.27 L510.1406,956.27 L510.1406,943.8794 L517.8594,943.8794 L517.8594,946.0356 L512.5938,946.0356 L512.5938,948.7075 L517.3594,948.7075 L517.3594,950.8638 L512.5938,950.8638 L512.5938,954.1138 L517.8594,954.1138 L517.8594,956.27 Z " fill="#000000"/><text fill="#000000" font-family="sans-serif" font-size="14" lengthAdjust="spacing" textLength="51" x="534.25" y="955.1167">Factura</text><line style="stroke:#181818;stroke-width:0.5;" x1="440" x2="647" y1="966.27" y2="966.27"/><ellipse cx="450" cy="979.9184" fill="none" rx="3" ry="3" style="stroke:#038048;stroke-width:1.0;"/><text fill="#000000" font-family="sans-serif" font-size="14" lengthAdjust="spacing" textLength="183" x="459" y="983.2651">fechaEmision: 17/05/2024</text><ellipse cx="450" cy="996.2153" fill="none" rx="3" ry="3" style="stroke:#038048;stroke-width:1.0;"/><text fill="#000000" font-family="sans-serif" font-size="14" lengthAdjust="spacing" textLength="57" x="459" y="999.562">total: 8&#8364;</text><ellipse cx="450" cy="1012.5122" fill="none" rx="3" ry="3" style="stroke:#038048;stroke-width:1.0;"/><text fill="#000000" font-family="sans-serif" font-size="14" lengthAdjust="spacing" textLength="128" x="459" y="1015.8589">estado: Pendiente</text><line style="stroke:#181818;stroke-width:0.5;" x1="440" x2="647" y1="1023.1606" y2="1023.1606"/></g><!--class Tarifa--><g id="elem_Tarifa"><rect codeLine="30" fill="#F1F1F1" height="64.2969" id="Tarifa" rx="2.5" ry="2.5" style="stroke:#181818;stroke-width:0.5;" width="128" x="23.5" y="950.57"/><ellipse cx="65.05" cy="966.57" fill="#ADD1B2" rx="11" ry="11" style="stroke:#181818;stroke-width:1.0;"/><path d="M69.1594,972.57 L61.4406,972.57 L61.4406,960.1794 L69.1594,960.1794 L69.1594,962.3356 L63.8938,962.3356 L63.8938,965.0075 L68.6594,965.0075 L68.6594,967.1638 L63.8938,967.1638 L63.8938,970.4138 L69.1594,970.4138 L69.1594,972.57 Z " fill="#000000"/><text fill="#000000" font-family="sans-serif" font-size="14" lengthAdjust="spacing" textLength="37" x="84.95" y="971.4167">Tarifa</text><line style="stroke:#181818;stroke-width:0.5;" x1="24.5" x2="150.5" y1="982.57" y2="982.57"/><ellipse cx="34.5" cy="996.2184" fill="none" rx="3" ry="3" style="stroke:#038048;stroke-width:1.0;"/><text fill="#000000" font-family="sans-serif" font-size="14" lengthAdjust="spacing" textLength="102" x="43.5" y="999.5651">precioHora: 8&#8364;</text><line style="stroke:#181818;stroke-width:0.5;" x1="24.5" x2="150.5" y1="1006.8669" y2="1006.8669"/></g><!--class Fecha--><g id="elem_Fecha"><rect codeLine="33" fill="#F1F1F1" height="96.8906" id="Fecha" rx="2.5" ry="2.5" style="stroke:#181818;stroke-width:0.5;" width="97" x="505" y="698.38"/><ellipse cx="530.35" cy="714.38" fill="#ADD1B2" rx="11" ry="11" style="stroke:#181818;stroke-width:1.0;"/><path d="M534.4594,720.38 L526.7406,720.38 L526.7406,707.9894 L534.4594,707.9894 L534.4594,710.1456 L529.1938,710.1456 L529.1938,712.8175 L533.9594,712.8175 L533.9594,714.9738 L529.1938,714.9738 L529.1938,718.2238 L534.4594,718.2238 L534.4594,720.38 Z " fill="#000000"/><text fill="#000000" font-family="sans-serif" font-size="14" lengthAdjust="spacing" textLength="42" x="546.65" y="719.2267">Fecha</text><line style="stroke:#181818;stroke-width:0.5;" x1="506" x2="601" y1="730.38" y2="730.38"/><ellipse cx="516" cy="744.0284" fill="none" rx="3" ry="3" style="stroke:#038048;stroke-width:1.0;"/><text fill="#000000" font-family="sans-serif" font-size="14" lengthAdjust="spacing" textLength="47" x="525" y="747.3751">dia: 17</text><ellipse cx="516" cy="760.3253" fill="none" rx="3" ry="3" style="stroke:#038048;stroke-width:1.0;"/><text fill="#000000" font-family="sans-serif" font-size="14" lengthAdjust="spacing" textLength="57" x="525" y="763.672">mes: 05</text><ellipse cx="516" cy="776.6222" fill="none" rx="3" ry="3" style="stroke:#038048;stroke-width:1.0;"/><text fill="#000000" font-family="sans-serif" font-size="14" lengthAdjust="spacing" textLength="71" x="525" y="779.9689">a&#241;o: 2024</text><line style="stroke:#181818;stroke-width:0.5;" x1="506" x2="601" y1="787.2706" y2="787.2706"/></g><!--class Hora--><g id="elem_Hora"><rect codeLine="38" fill="#F1F1F1" height="80.5938" id="Hora" rx="2.5" ry="2.5" style="stroke:#181818;stroke-width:0.5;" width="127" x="637" y="706.53"/><ellipse cx="680.35" cy="722.53" fill="#ADD1B2" rx="11" ry="11" style="stroke:#181818;stroke-width:1.0;"/><path d="M684.4594,728.53 L676.7406,728.53 L676.7406,716.1394 L684.4594,716.1394 L684.4594,718.2956 L679.1938,718.2956 L679.1938,720.9675 L683.9594,720.9675 L683.9594,723.1238 L679.1938,723.1238 L679.1938,726.3738 L684.4594,726.3738 L684.4594,728.53 Z " fill="#000000"/><text fill="#000000" font-family="sans-serif" font-size="14" lengthAdjust="spacing" textLength="32" x="700.65" y="727.3767">Hora</text><line style="stroke:#181818;stroke-width:0.5;" x1="638" x2="763" y1="738.53" y2="738.53"/><ellipse cx="648" cy="752.1784" fill="none" rx="3" ry="3" style="stroke:#038048;stroke-width:1.0;"/><text fill="#000000" font-family="sans-serif" font-size="14" lengthAdjust="spacing" textLength="81" x="657" y="755.5251">hora: 10:00</text><ellipse cx="648" cy="768.4753" fill="none" rx="3" ry="3" style="stroke:#038048;stroke-width:1.0;"/><text fill="#000000" font-family="sans-serif" font-size="14" lengthAdjust="spacing" textLength="101" x="657" y="771.822">minutos 11:00</text><line style="stroke:#181818;stroke-width:0.5;" x1="638" x2="763" y1="779.1238" y2="779.1238"/></g><!--class SistemaDeReservas--><g id="elem_SistemaDeReservas"><rect fill="#F1F1F1" height="48" id="SistemaDeReservas" rx="2.5" ry="2.5" style="stroke:#181818;stroke-width:0.5;" width="171" x="373" y="7"/><ellipse cx="388" cy="23" fill="#ADD1B2" rx="11" ry="11" style="stroke:#181818;stroke-width:1.0;"/><path d="M390.9688,28.6406 Q390.3906,28.9375 389.75,29.0781 Q389.1094,29.2344 388.4063,29.2344 Q385.9063,29.2344 384.5781,27.5938 Q383.2656,25.9375 383.2656,22.8125 Q383.2656,19.6875 384.5781,18.0313 Q385.9063,16.375 388.4063,16.375 Q389.1094,16.375 389.75,16.5313 Q390.4063,16.6875 390.9688,16.9844 L390.9688,19.7031 Q390.3438,19.125 389.75,18.8594 Q389.1563,18.5781 388.5313,18.5781 Q387.1875,18.5781 386.5,19.6563 Q385.8125,20.7188 385.8125,22.8125 Q385.8125,24.9063 386.5,25.9844 Q387.1875,27.0469 388.5313,27.0469 Q389.1563,27.0469 389.75,26.7813 Q390.3438,26.5 390.9688,25.9219 L390.9688,28.6406 Z " fill="#000000"/><text fill="#000000" font-family="sans-serif" font-size="14" lengthAdjust="spacing" textLength="139" x="402" y="27.8467">SistemaDeReservas</text><line style="stroke:#181818;stroke-width:0.5;" x1="374" x2="543" y1="39" y2="39"/><line style="stroke:#181818;stroke-width:0.5;" x1="374" x2="543" y1="47" y2="47"/></g><!--link SistemaDeReservas to Usuario--><g id="link_SistemaDeReservas_Usuario"><path codeLine="42" d="M481.11,55.22 C513.48,88.45 573.75,150.33 615.91,193.61 " fill="none" id="SistemaDeReservas-Usuario" style="stroke:#181818;stroke-width:1.0;"/><text fill="#000000" font-family="sans-serif" font-size="13" lengthAdjust="spacing" textLength="91" x="556.5" y="129.0669">Crea y elimina</text></g><!--link SistemaDeReservas to Reserva--><g id="link_SistemaDeReservas_Reserva"><path codeLine="43" d="M440.09,55.39 C428.04,73.06 414.5,98.47 414.5,123.5 C414.5,123.5 414.5,123.5 414.5,361.39 C414.5,385.74 424.77,409.22 438.12,429.47 " fill="none" id="SistemaDeReservas-Reserva" style="stroke:#181818;stroke-width:1.0;"/><text fill="#000000" font-family="sans-serif" font-size="13" lengthAdjust="spacing" textLength="57" x="415.5" y="247.0169">Gestiona</text></g><!--link Usuario to Reserva--><g id="link_Usuario_Reserva"><path codeLine="44" d="M631.07,291.39 C605.31,330.69 568.62,386.67 540.37,429.77 " fill="none" id="Usuario-Reserva" style="stroke:#181818;stroke-width:1.0;"/><text fill="#000000" font-family="sans-serif" font-size="13" lengthAdjust="spacing" textLength="42" x="591.5" y="364.9569">realiza</text></g><!--link Reserva to Pago--><g id="link_Reserva_Pago"><path codeLine="45" d="M456.99,559.74 C427.09,605.93 387.67,666.8 362.21,706.12 " fill="none" id="Reserva-Pago" style="stroke:#181818;stroke-width:1.0;"/><text fill="#000000" font-family="sans-serif" font-size="13" lengthAdjust="spacing" textLength="53" x="418.5" y="633.4469">requiere</text></g><!--link Reserva to Pista--><g id="link_Reserva_Pista"><path codeLine="46" d="M420.74,539.35 C379.4,562.88 327.88,592.7 282.5,620.38 C241.6,645.32 196.59,674.18 160.13,697.93 " fill="none" id="Reserva-Pista" style="stroke:#181818;stroke-width:1.0;"/><text fill="#000000" font-family="sans-serif" font-size="13" lengthAdjust="spacing" textLength="115" x="283.5" y="633.4469">se lleva a cabo en</text></g><!--link Pista to Tarifa--><g id="link_Pista_Tarifa"><path codeLine="47" d="M87.5,795.72 C87.5,841.96 87.5,910.65 87.5,950.32 " fill="none" id="Pista-Tarifa" style="stroke:#181818;stroke-width:1.0;"/><text fill="#000000" font-family="sans-serif" font-size="13" lengthAdjust="spacing" textLength="160" x="88.5" y="869.3369">se fija el precio mediante</text></g><!--link Reserva to Fecha--><g id="link_Reserva_Fecha"><path codeLine="48" d="M512.59,559.74 C522.08,602.89 534.38,658.84 543.01,698.09 " fill="none" id="Reserva-Fecha" style="stroke:#181818;stroke-width:1.0;"/></g><!--link Reserva to Hora--><g id="link_Reserva_Hora"><path codeLine="49" d="M550.26,559.74 C587.55,605.93 636.69,666.8 668.44,706.12 " fill="none" id="Reserva-Hora" style="stroke:#181818;stroke-width:1.0;"/></g><!--link Pago to Factura--><g id="link_Pago_Factura"><path codeLine="50" d="M401.16,787.51 C427.74,806.05 457.4,829.87 479.5,856.27 C498.8,879.33 514.33,909.19 525.25,933.99 " fill="none" id="Pago-Factura" style="stroke:#181818;stroke-width:1.0;"/><text fill="#000000" font-family="sans-serif" font-size="13" lengthAdjust="spacing" textLength="75" x="492.5" y="869.3369">Que genera</text></g><!--link Pago to Bono--><g id="link_Pago_Bono"><path codeLine="51" d="M334.97,787.5 C333.21,833.38 330.34,907.97 328.72,950.11 " fill="none" id="Pago-Bono" style="stroke:#181818;stroke-width:1.0;"/><text fill="#000000" font-family="sans-serif" font-size="13" lengthAdjust="spacing" textLength="137" x="333.5" y="869.3369">Puede efectuarse por</text></g><!--SRC=[TLAxSjj03Epv5UWzaYc9YcLMUIXE9fNo-W281zdma0VbxfWP9-CcVvEPf4ZhLd-IBmdkI55KaOu7WBlOnP8D71xW0tboNn6-Pm0Ni6SV44gOfTUEgZlKnzLblhoSv_CYLU_4nM9Uvdbw6_PxiRpbcWsQ4lpXTwgpsU2jwEJrQb7CiiUCEiRFlaN7qZDQQRQEIdWdTYsKIjGWrwaorT9phDl6Yf-sbWBMg22LJCcdqK0rxSGgoyMYWDbyKIoVNQskJsIR9AYdEZmrvE96C0ZHHKfOgPJ9V11KuHwhJainGb8nFL13GOoigTFt2TszRWQ6u9Kx_3GSf9iI6oButn-_JYWlTTaU9TBx5rknQD2Ni3WDtM0LMdTSErtXTSEUnOwFqOa8egRqBCayrMkKTaFMiEBH2LONvTrmQKSLozjqo_CLRo9VFsKutRzNhLlco_IDXp_AaI8n_1UnHjB64MdOja4yp6QnyfXzrAlebTVKfy_3P38PWb6gZuJm05Ip_ed_6JycjuGtAbhDmUo8C6gNe5WrVyFiE1-RtUKSVMcP79stOc8qnGHrJLf3pSDMW6pMPIdET4wceHtVeoxQ-wacgMNHzJ5aSlIi4htAKg9Ilxjt2UzRWbkof4QUkYaoUj2MD66aQGWgKfdtulu1]--></g></svg>