<?xml version="1.0" encoding="us-ascii" standalone="no"?><svg xmlns="http://www.w3.org/2000/svg" xmlns:xlink="http://www.w3.org/1999/xlink" contentStyleType="text/css" height="802px" preserveAspectRatio="none" style="width:695px;height:802px;background:#FFFFFF;" version="1.1" viewBox="0 0 695 802" width="695px" zoomAndPan="magnify"><defs/><g><!--class Reserva--><g id="elem_Reserva"><rect codeLine="1" fill="#F1F1F1" height="129.4844" id="Reserva" rx="2.5" ry="2.5" style="stroke:#181818;stroke-width:0.5;" width="155" x="134" y="194"/><ellipse cx="179.25" cy="210" fill="#ADD1B2" rx="11" ry="11" style="stroke:#181818;stroke-width:1.0;"/><path d="M183.3594,216 L175.6406,216 L175.6406,203.6094 L183.3594,203.6094 L183.3594,205.7656 L178.0938,205.7656 L178.0938,208.4375 L182.8594,208.4375 L182.8594,210.5938 L178.0938,210.5938 L178.0938,213.8438 L183.3594,213.8438 L183.3594,216 Z " fill="#000000"/><text fill="#000000" font-family="sans-serif" font-size="14" lengthAdjust="spacing" textLength="56" x="199.75" y="214.8467">Reserva</text><line style="stroke:#181818;stroke-width:0.5;" x1="135" x2="288" y1="226" y2="226"/><ellipse cx="145" cy="239.6484" fill="none" rx="3" ry="3" style="stroke:#038048;stroke-width:1.0;"/><text fill="#000000" font-family="sans-serif" font-size="14" lengthAdjust="spacing" textLength="55" x="154" y="242.9951">pista : 1</text><ellipse cx="145" cy="255.9453" fill="none" rx="3" ry="3" style="stroke:#038048;stroke-width:1.0;"/><text fill="#000000" font-family="sans-serif" font-size="14" lengthAdjust="spacing" textLength="129" x="154" y="259.292">fecha: 17/05/2024</text><ellipse cx="145" cy="272.2422" fill="none" rx="3" ry="3" style="stroke:#038048;stroke-width:1.0;"/><text fill="#000000" font-family="sans-serif" font-size="14" lengthAdjust="spacing" textLength="81" x="154" y="275.5889">hora: 10:00</text><ellipse cx="145" cy="288.5391" fill="none" rx="3" ry="3" style="stroke:#038048;stroke-width:1.0;"/><text fill="#000000" font-family="sans-serif" font-size="14" lengthAdjust="spacing" textLength="114" x="154" y="291.8857">disponibilidad: s&#237;</text><ellipse cx="145" cy="304.8359" fill="none" rx="3" ry="3" style="stroke:#038048;stroke-width:1.0;"/><text fill="#000000" font-family="sans-serif" font-size="14" lengthAdjust="spacing" textLength="110" x="154" y="308.1826">idPago: 198341</text><line style="stroke:#181818;stroke-width:0.5;" x1="135" x2="288" y1="315.4844" y2="315.4844"/></g><!--class Usuario--><g id="elem_Usuario"><rect codeLine="8" fill="#F1F1F1" height="96.8906" id="Usuario" rx="2.5" ry="2.5" style="stroke:#181818;stroke-width:0.5;" width="308" x="380.5" y="210.3"/><ellipse cx="504.25" cy="226.3" fill="#ADD1B2" rx="11" ry="11" style="stroke:#181818;stroke-width:1.0;"/><path d="M508.3594,232.3 L500.6406,232.3 L500.6406,219.9094 L508.3594,219.9094 L508.3594,222.0656 L503.0938,222.0656 L503.0938,224.7375 L507.8594,224.7375 L507.8594,226.8937 L503.0938,226.8937 L503.0938,230.1437 L508.3594,230.1437 L508.3594,232.3 Z " fill="#000000"/><text fill="#000000" font-family="sans-serif" font-size="14" lengthAdjust="spacing" textLength="52" x="524.75" y="231.1467">Usuario</text><line style="stroke:#181818;stroke-width:0.5;" x1="381.5" x2="687.5" y1="242.3" y2="242.3"/><ellipse cx="391.5" cy="255.9484" fill="none" rx="3" ry="3" style="stroke:#038048;stroke-width:1.0;"/><text fill="#000000" font-family="sans-serif" font-size="14" lengthAdjust="spacing" textLength="113" x="400.5" y="259.2951">nombre: JonDoe</text><ellipse cx="391.5" cy="272.2453" fill="none" rx="3" ry="3" style="stroke:#038048;stroke-width:1.0;"/><text fill="#000000" font-family="sans-serif" font-size="14" lengthAdjust="spacing" textLength="282" x="400.5" y="275.592">email: Jon.Doe@alumnos.unetalantico.es</text><ellipse cx="391.5" cy="288.5422" fill="none" rx="3" ry="3" style="stroke:#038048;stroke-width:1.0;"/><text fill="#000000" font-family="sans-serif" font-size="14" lengthAdjust="spacing" textLength="181" x="400.5" y="291.8889">telefono: +34 123456789</text><line style="stroke:#181818;stroke-width:0.5;" x1="381.5" x2="687.5" y1="299.1906" y2="299.1906"/></g><!--class Pista--><g id="elem_Pista"><rect codeLine="13" fill="#F1F1F1" height="96.8906" id="Pista" rx="2.5" ry="2.5" style="stroke:#181818;stroke-width:0.5;" width="161" x="7" y="462.49"/><ellipse cx="66.75" cy="478.49" fill="#ADD1B2" rx="11" ry="11" style="stroke:#181818;stroke-width:1.0;"/><path d="M70.8594,484.49 L63.1406,484.49 L63.1406,472.0994 L70.8594,472.0994 L70.8594,474.2556 L65.5938,474.2556 L65.5938,476.9275 L70.3594,476.9275 L70.3594,479.0838 L65.5938,479.0838 L65.5938,482.3338 L70.8594,482.3338 L70.8594,484.49 Z " fill="#000000"/><text fill="#000000" font-family="sans-serif" font-size="14" lengthAdjust="spacing" textLength="33" x="87.25" y="483.3367">Pista</text><line style="stroke:#181818;stroke-width:0.5;" x1="8" x2="167" y1="494.49" y2="494.49"/><ellipse cx="18" cy="508.1384" fill="none" rx="3" ry="3" style="stroke:#038048;stroke-width:1.0;"/><text fill="#000000" font-family="sans-serif" font-size="14" lengthAdjust="spacing" textLength="72" x="27" y="511.4851">n&#250;mero: 1</text><ellipse cx="18" cy="524.4353" fill="none" rx="3" ry="3" style="stroke:#038048;stroke-width:1.0;"/><text fill="#000000" font-family="sans-serif" font-size="14" lengthAdjust="spacing" textLength="135" x="27" y="527.782">horario: 8:00-20:00</text><ellipse cx="18" cy="540.7322" fill="none" rx="3" ry="3" style="stroke:#038048;stroke-width:1.0;"/><text fill="#000000" font-family="sans-serif" font-size="14" lengthAdjust="spacing" textLength="88" x="27" y="544.0789">capacidad: 4</text><line style="stroke:#181818;stroke-width:0.5;" x1="8" x2="167" y1="551.3806" y2="551.3806"/></g><!--class Pago--><g id="elem_Pago"><rect codeLine="18" fill="#F1F1F1" height="80.5938" id="Pago" rx="2.5" ry="2.5" style="stroke:#181818;stroke-width:0.5;" width="267" x="203" y="470.64"/><ellipse cx="314.75" cy="486.64" fill="#ADD1B2" rx="11" ry="11" style="stroke:#181818;stroke-width:1.0;"/><path d="M318.8594,492.64 L311.1406,492.64 L311.1406,480.2494 L318.8594,480.2494 L318.8594,482.4056 L313.5938,482.4056 L313.5938,485.0775 L318.3594,485.0775 L318.3594,487.2338 L313.5938,487.2338 L313.5938,490.4838 L318.8594,490.4838 L318.8594,492.64 Z " fill="#000000"/><text fill="#000000" font-family="sans-serif" font-size="14" lengthAdjust="spacing" textLength="35" x="335.25" y="491.4867">Pago</text><line style="stroke:#181818;stroke-width:0.5;" x1="204" x2="469" y1="502.64" y2="502.64"/><ellipse cx="214" cy="516.2884" fill="none" rx="3" ry="3" style="stroke:#038048;stroke-width:1.0;"/><text fill="#000000" font-family="sans-serif" font-size="14" lengthAdjust="spacing" textLength="241" x="223" y="519.6351">metodoDePago: Tarjeta de Cr&#233;dito</text><ellipse cx="214" cy="532.5853" fill="none" rx="3" ry="3" style="stroke:#038048;stroke-width:1.0;"/><text fill="#000000" font-family="sans-serif" font-size="14" lengthAdjust="spacing" textLength="72" x="223" y="535.932">monto: 8&#8364;</text><line style="stroke:#181818;stroke-width:0.5;" x1="204" x2="469" y1="543.2338" y2="543.2338"/></g><!--class Bono--><g id="elem_Bono"><rect codeLine="22" fill="#F1F1F1" height="64.2969" id="Bono" rx="2.5" ry="2.5" style="stroke:#181818;stroke-width:0.5;" width="152" x="251.5" y="714.68"/><ellipse cx="304.75" cy="730.68" fill="#ADD1B2" rx="11" ry="11" style="stroke:#181818;stroke-width:1.0;"/><path d="M308.8594,736.68 L301.1406,736.68 L301.1406,724.2894 L308.8594,724.2894 L308.8594,726.4456 L303.5938,726.4456 L303.5938,729.1175 L308.3594,729.1175 L308.3594,731.2738 L303.5938,731.2738 L303.5938,734.5238 L308.8594,734.5238 L308.8594,736.68 Z " fill="#000000"/><text fill="#000000" font-family="sans-serif" font-size="14" lengthAdjust="spacing" textLength="37" x="325.25" y="735.5267">Bono</text><line style="stroke:#181818;stroke-width:0.5;" x1="252.5" x2="402.5" y1="746.68" y2="746.68"/><ellipse cx="262.5" cy="760.3284" fill="none" rx="3" ry="3" style="stroke:#038048;stroke-width:1.0;"/><text fill="#000000" font-family="sans-serif" font-size="14" lengthAdjust="spacing" textLength="126" x="271.5" y="763.6751">horasAbonadas: 3</text><line style="stroke:#181818;stroke-width:0.5;" x1="252.5" x2="402.5" y1="770.9769" y2="770.9769"/></g><!--class Factura--><g id="elem_Factura"><rect codeLine="25" fill="#F1F1F1" height="96.8906" id="Factura" rx="2.5" ry="2.5" style="stroke:#181818;stroke-width:0.5;" width="209" x="445" y="698.38"/><ellipse cx="519.75" cy="714.38" fill="#ADD1B2" rx="11" ry="11" style="stroke:#181818;stroke-width:1.0;"/><path d="M523.8594,720.38 L516.1406,720.38 L516.1406,707.9894 L523.8594,707.9894 L523.8594,710.1456 L518.5938,710.1456 L518.5938,712.8175 L523.3594,712.8175 L523.3594,714.9738 L518.5938,714.9738 L518.5938,718.2238 L523.8594,718.2238 L523.8594,720.38 Z " fill="#000000"/><text fill="#000000" font-family="sans-serif" font-size="14" lengthAdjust="spacing" textLength="51" x="540.25" y="719.2267">Factura</text><line style="stroke:#181818;stroke-width:0.5;" x1="446" x2="653" y1="730.38" y2="730.38"/><ellipse cx="456" cy="744.0284" fill="none" rx="3" ry="3" style="stroke:#038048;stroke-width:1.0;"/><text fill="#000000" font-family="sans-serif" font-size="14" lengthAdjust="spacing" textLength="183" x="465" y="747.3751">fechaEmision: 17/05/2024</text><ellipse cx="456" cy="760.3253" fill="none" rx="3" ry="3" style="stroke:#038048;stroke-width:1.0;"/><text fill="#000000" font-family="sans-serif" font-size="14" lengthAdjust="spacing" textLength="57" x="465" y="763.672">total: 8&#8364;</text><ellipse cx="456" cy="776.6222" fill="none" rx="3" ry="3" style="stroke:#038048;stroke-width:1.0;"/><text fill="#000000" font-family="sans-serif" font-size="14" lengthAdjust="spacing" textLength="128" x="465" y="779.9689">estado: Pendiente</text><line style="stroke:#181818;stroke-width:0.5;" x1="446" x2="653" y1="787.2706" y2="787.2706"/></g><!--class Tarifa--><g id="elem_Tarifa"><rect codeLine="30" fill="#F1F1F1" height="64.2969" id="Tarifa" rx="2.5" ry="2.5" style="stroke:#181818;stroke-width:0.5;" width="128" x="23.5" y="714.68"/><ellipse cx="65.05" cy="730.68" fill="#ADD1B2" rx="11" ry="11" style="stroke:#181818;stroke-width:1.0;"/><path d="M69.1594,736.68 L61.4406,736.68 L61.4406,724.2894 L69.1594,724.2894 L69.1594,726.4456 L63.8938,726.4456 L63.8938,729.1175 L68.6594,729.1175 L68.6594,731.2738 L63.8938,731.2738 L63.8938,734.5238 L69.1594,734.5238 L69.1594,736.68 Z " fill="#000000"/><text fill="#000000" font-family="sans-serif" font-size="14" lengthAdjust="spacing" textLength="37" x="84.95" y="735.5267">Tarifa</text><line style="stroke:#181818;stroke-width:0.5;" x1="24.5" x2="150.5" y1="746.68" y2="746.68"/><ellipse cx="34.5" cy="760.3284" fill="none" rx="3" ry="3" style="stroke:#038048;stroke-width:1.0;"/><text fill="#000000" font-family="sans-serif" font-size="14" lengthAdjust="spacing" textLength="102" x="43.5" y="763.6751">precioHora: 8&#8364;</text><line style="stroke:#181818;stroke-width:0.5;" x1="24.5" x2="150.5" y1="770.9769" y2="770.9769"/></g><!--class SistemaDeReservas--><g id="elem_SistemaDeReservas"><rect fill="#F1F1F1" height="48" id="SistemaDeReservas" rx="2.5" ry="2.5" style="stroke:#181818;stroke-width:0.5;" width="171" x="287" y="7"/><ellipse cx="302" cy="23" fill="#ADD1B2" rx="11" ry="11" style="stroke:#181818;stroke-width:1.0;"/><path d="M304.9688,28.6406 Q304.3906,28.9375 303.75,29.0781 Q303.1094,29.2344 302.4063,29.2344 Q299.9063,29.2344 298.5781,27.5938 Q297.2656,25.9375 297.2656,22.8125 Q297.2656,19.6875 298.5781,18.0313 Q299.9063,16.375 302.4063,16.375 Q303.1094,16.375 303.75,16.5313 Q304.4063,16.6875 304.9688,16.9844 L304.9688,19.7031 Q304.3438,19.125 303.75,18.8594 Q303.1563,18.5781 302.5313,18.5781 Q301.1875,18.5781 300.5,19.6563 Q299.8125,20.7188 299.8125,22.8125 Q299.8125,24.9063 300.5,25.9844 Q301.1875,27.0469 302.5313,27.0469 Q303.1563,27.0469 303.75,26.7813 Q304.3438,26.5 304.9688,25.9219 L304.9688,28.6406 Z " fill="#000000"/><text fill="#000000" font-family="sans-serif" font-size="14" lengthAdjust="spacing" textLength="139" x="316" y="27.8467">SistemaDeReservas</text><line style="stroke:#181818;stroke-width:0.5;" x1="288" x2="457" y1="39" y2="39"/><line style="stroke:#181818;stroke-width:0.5;" x1="288" x2="457" y1="47" y2="47"/></g><!--link SistemaDeReservas to Usuario--><g id="link_SistemaDeReservas_Usuario"><path codeLine="35" d="M389.23,55.31 C415.34,91.7 466.32,162.74 500.4,210.23 " fill="none" id="SistemaDeReservas-Usuario" style="stroke:#181818;stroke-width:1.0;stroke-dasharray:7.0,7.0;"/><polygon fill="#000000" points="452.4151,128.6287,449.5294,119.5665,444.7539,122.9934,452.4151,128.6287" style="stroke:#000000;stroke-width:1.0;"/><text fill="#000000" font-family="sans-serif" font-size="13" lengthAdjust="spacing" textLength="91" x="458.5" y="129.0669">Crea y elimina</text></g><!--link SistemaDeReservas to Reserva--><g id="link_SistemaDeReservas_Reserva"><path codeLine="36" d="M355.88,55.31 C332.82,87.64 290.25,147.34 257.28,193.56 " fill="none" id="SistemaDeReservas-Reserva" style="stroke:#181818;stroke-width:1.0;"/><text fill="#000000" font-family="sans-serif" font-size="13" lengthAdjust="spacing" textLength="57" x="313.5" y="129.0669">Gestiona</text></g><!--link Reserva to Usuario--><g id="link_Reserva_Usuario"><path codeLine="37" d="M289.28,258.75 C316.72,258.75 348.62,258.75 380.15,258.75 " fill="none" id="Reserva-Usuario" style="stroke:#181818;stroke-width:1.0;"/><polygon fill="#000000" points="306.25,247.3164,315.2951,250.2553,315.2951,244.3775,306.25,247.3164" style="stroke:#000000;stroke-width:1.0;"/><text fill="#000000" font-family="sans-serif" font-size="13" lengthAdjust="spacing" textLength="42" x="320.25" y="251.8169">realiza</text></g><!--link Reserva to Pago--><g id="link_Reserva_Pago"><path codeLine="38" d="M243.98,323.79 C253.82,343.27 264.63,364.74 274.5,384.49 C288.83,413.17 304.87,445.63 317.04,470.34 " fill="none" id="Reserva-Pago" style="stroke:#181818;stroke-width:1.0;"/><text fill="#000000" font-family="sans-serif" font-size="13" lengthAdjust="spacing" textLength="53" x="283.5" y="397.5569">requiere</text></g><!--link Reserva to Pista--><g id="link_Reserva_Pista"><path codeLine="39" d="M179.73,323.85 C158.34,367 130.61,422.95 111.16,462.2 " fill="none" id="Reserva-Pista" style="stroke:#181818;stroke-width:1.0;"/><text fill="#000000" font-family="sans-serif" font-size="13" lengthAdjust="spacing" textLength="115" x="150.5" y="397.5569">se lleva a cabo en</text></g><!--link Pista to Tarifa--><g id="link_Pista_Tarifa"><path codeLine="40" d="M87.5,559.83 C87.5,606.07 87.5,674.76 87.5,714.43 " fill="none" id="Pista-Tarifa" style="stroke:#181818;stroke-width:1.0;"/><text fill="#000000" font-family="sans-serif" font-size="13" lengthAdjust="spacing" textLength="160" x="88.5" y="633.4469">se fija el precio mediante</text></g><!--link Pago to Factura--><g id="link_Pago_Factura"><path codeLine="42" d="M410.16,551.58 C438.65,569.66 469.8,593.14 492.5,620.38 C511.42,643.07 525.35,673.06 534.7,698.03 " fill="none" id="Pago-Factura" style="stroke:#181818;stroke-width:1.0;"/><text fill="#000000" font-family="sans-serif" font-size="13" lengthAdjust="spacing" textLength="75" x="505.5" y="633.4469">Que genera</text></g><!--link Pago to Bono--><g id="link_Pago_Bono"><path codeLine="43" d="M334.97,551.61 C333.21,597.49 330.34,672.08 328.72,714.22 " fill="none" id="Pago-Bono" style="stroke:#181818;stroke-width:1.0;"/><polygon fill="#000000" points="337.692,623.9501,334.4079,632.8756,340.2814,633.1014,337.692,623.9501" style="stroke:#000000;stroke-width:1.0;"/><text fill="#000000" font-family="sans-serif" font-size="13" lengthAdjust="spacing" textLength="137" x="346.5" y="633.4469">Puede efectuarse por</text></g><!--SRC=[RL9BRjim4Dth5BCFfCYsqZX4KVJZVj2L-pl0M1md4qWSbwGAf4KtlKs1vWBT-YOzIKUKBAL0bnm-ldaVaeiSx-0z1V9V4Bvb06Tmu10H32pIQK_r3UhXyhoyE5-MoofDRyJtmzAKPJfR3WTnlEE6BLe3uNYVvcotU2sAl5glgaNsFQDXuwVGeMSPDpffTvuCl1Mt4KeZQf6RD2bqz1IRhdKIYivHn0QLf9Q2Ge96QcWlJhUShIfOB5VLnQFBzTMyR9iCZQkElrlolIAOZAWG0skraYydGpKUi1wyL0-OrCn8r58KAniQ_7r4VwlAm1AyyCUVbgCCA76n9__puzVCybp5ZYpz-l1i9muj1WEh6VGAwzZva-pKmikM0ujxMCPW8eg6Ccv9uQbVgsktv2mh7ysqAfJtKzEUQfOtgSjHOfPzqBGq_GsDlo90KKnzcIVgZn3kW1fksU5_u7cUJp_Am6iLew8nEr7akTOL9uWoAc73Np4xFUe9XbWzVUwOFFrxrTUfNuoWQKXdg6Nj1CXbGz4zPh2PG7k-HLKxcjNUB6CVIPRAxC5Zr0RUTGJNv4XZdszJMmOUmxOZhPUqYgXEbFaW_Yy0]--></g></svg>