<?xml version="1.0" encoding="us-ascii" standalone="no"?><svg xmlns="http://www.w3.org/2000/svg" xmlns:xlink="http://www.w3.org/1999/xlink" contentStyleType="text/css" height="834px" preserveAspectRatio="none" style="width:820px;height:834px;background:#FFFFFF;" version="1.1" viewBox="0 0 820 834" width="820px" zoomAndPan="magnify"><defs/><g><!--class Reserva--><g id="elem_Reserva"><rect codeLine="1" fill="#F1F1F1" height="129.4844" id="Reserva" rx="2.5" ry="2.5" style="stroke:#181818;stroke-width:0.5;" width="155" x="259" y="194"/><ellipse cx="304.25" cy="210" fill="#ADD1B2" rx="11" ry="11" style="stroke:#181818;stroke-width:1.0;"/><path d="M308.3594,216 L300.6406,216 L300.6406,203.6094 L308.3594,203.6094 L308.3594,205.7656 L303.0938,205.7656 L303.0938,208.4375 L307.8594,208.4375 L307.8594,210.5938 L303.0938,210.5938 L303.0938,213.8438 L308.3594,213.8438 L308.3594,216 Z " fill="#000000"/><text fill="#000000" font-family="sans-serif" font-size="14" lengthAdjust="spacing" textLength="56" x="324.75" y="214.8467">Reserva</text><line style="stroke:#181818;stroke-width:0.5;" x1="260" x2="413" y1="226" y2="226"/><ellipse cx="270" cy="239.6484" fill="none" rx="3" ry="3" style="stroke:#038048;stroke-width:1.0;"/><text fill="#000000" font-family="sans-serif" font-size="14" lengthAdjust="spacing" textLength="55" x="279" y="242.9951">pista : 1</text><ellipse cx="270" cy="255.9453" fill="none" rx="3" ry="3" style="stroke:#038048;stroke-width:1.0;"/><text fill="#000000" font-family="sans-serif" font-size="14" lengthAdjust="spacing" textLength="129" x="279" y="259.292">fecha: 17/05/2024</text><ellipse cx="270" cy="272.2422" fill="none" rx="3" ry="3" style="stroke:#038048;stroke-width:1.0;"/><text fill="#000000" font-family="sans-serif" font-size="14" lengthAdjust="spacing" textLength="81" x="279" y="275.5889">hora: 10:00</text><ellipse cx="270" cy="288.5391" fill="none" rx="3" ry="3" style="stroke:#038048;stroke-width:1.0;"/><text fill="#000000" font-family="sans-serif" font-size="14" lengthAdjust="spacing" textLength="114" x="279" y="291.8857">disponibilidad: s&#237;</text><ellipse cx="270" cy="304.8359" fill="none" rx="3" ry="3" style="stroke:#038048;stroke-width:1.0;"/><text fill="#000000" font-family="sans-serif" font-size="14" lengthAdjust="spacing" textLength="110" x="279" y="308.1826">idPago: 198341</text><line style="stroke:#181818;stroke-width:0.5;" x1="260" x2="413" y1="315.4844" y2="315.4844"/></g><!--class Usuario--><g id="elem_Usuario"><rect codeLine="8" fill="#F1F1F1" height="96.8906" id="Usuario" rx="2.5" ry="2.5" style="stroke:#181818;stroke-width:0.5;" width="308" x="505.5" y="210.3"/><ellipse cx="629.25" cy="226.3" fill="#ADD1B2" rx="11" ry="11" style="stroke:#181818;stroke-width:1.0;"/><path d="M633.3594,232.3 L625.6406,232.3 L625.6406,219.9094 L633.3594,219.9094 L633.3594,222.0656 L628.0938,222.0656 L628.0938,224.7375 L632.8594,224.7375 L632.8594,226.8938 L628.0938,226.8938 L628.0938,230.1438 L633.3594,230.1438 L633.3594,232.3 Z " fill="#000000"/><text fill="#000000" font-family="sans-serif" font-size="14" lengthAdjust="spacing" textLength="52" x="649.75" y="231.1467">Usuario</text><line style="stroke:#181818;stroke-width:0.5;" x1="506.5" x2="812.5" y1="242.3" y2="242.3"/><ellipse cx="516.5" cy="255.9484" fill="none" rx="3" ry="3" style="stroke:#038048;stroke-width:1.0;"/><text fill="#000000" font-family="sans-serif" font-size="14" lengthAdjust="spacing" textLength="113" x="525.5" y="259.2951">nombre: JonDoe</text><ellipse cx="516.5" cy="272.2453" fill="none" rx="3" ry="3" style="stroke:#038048;stroke-width:1.0;"/><text fill="#000000" font-family="sans-serif" font-size="14" lengthAdjust="spacing" textLength="282" x="525.5" y="275.592">email: Jon.Doe@alumnos.unetalantico.es</text><ellipse cx="516.5" cy="288.5422" fill="none" rx="3" ry="3" style="stroke:#038048;stroke-width:1.0;"/><text fill="#000000" font-family="sans-serif" font-size="14" lengthAdjust="spacing" textLength="181" x="525.5" y="291.8889">telefono: +34 123456789</text><line style="stroke:#181818;stroke-width:0.5;" x1="506.5" x2="812.5" y1="299.1906" y2="299.1906"/></g><!--class Pista--><g id="elem_Pista"><rect codeLine="13" fill="#F1F1F1" height="96.8906" id="Pista" rx="2.5" ry="2.5" style="stroke:#181818;stroke-width:0.5;" width="161" x="7" y="478.78"/><ellipse cx="66.75" cy="494.78" fill="#ADD1B2" rx="11" ry="11" style="stroke:#181818;stroke-width:1.0;"/><path d="M70.8594,500.78 L63.1406,500.78 L63.1406,488.3894 L70.8594,488.3894 L70.8594,490.5456 L65.5938,490.5456 L65.5938,493.2175 L70.3594,493.2175 L70.3594,495.3738 L65.5938,495.3738 L65.5938,498.6238 L70.8594,498.6238 L70.8594,500.78 Z " fill="#000000"/><text fill="#000000" font-family="sans-serif" font-size="14" lengthAdjust="spacing" textLength="33" x="87.25" y="499.6267">Pista</text><line style="stroke:#181818;stroke-width:0.5;" x1="8" x2="167" y1="510.78" y2="510.78"/><ellipse cx="18" cy="524.4284" fill="none" rx="3" ry="3" style="stroke:#038048;stroke-width:1.0;"/><text fill="#000000" font-family="sans-serif" font-size="14" lengthAdjust="spacing" textLength="72" x="27" y="527.7751">n&#250;mero: 1</text><ellipse cx="18" cy="540.7253" fill="none" rx="3" ry="3" style="stroke:#038048;stroke-width:1.0;"/><text fill="#000000" font-family="sans-serif" font-size="14" lengthAdjust="spacing" textLength="135" x="27" y="544.072">horario: 8:00-20:00</text><ellipse cx="18" cy="557.0222" fill="none" rx="3" ry="3" style="stroke:#038048;stroke-width:1.0;"/><text fill="#000000" font-family="sans-serif" font-size="14" lengthAdjust="spacing" textLength="88" x="27" y="560.3689">capacidad: 4</text><line style="stroke:#181818;stroke-width:0.5;" x1="8" x2="167" y1="567.6706" y2="567.6706"/></g><!--class Pago--><g id="elem_Pago"><rect codeLine="18" fill="#F1F1F1" height="80.5938" id="Pago" rx="2.5" ry="2.5" style="stroke:#181818;stroke-width:0.5;" width="267" x="203" y="486.93"/><ellipse cx="314.75" cy="502.93" fill="#ADD1B2" rx="11" ry="11" style="stroke:#181818;stroke-width:1.0;"/><path d="M318.8594,508.93 L311.1406,508.93 L311.1406,496.5394 L318.8594,496.5394 L318.8594,498.6956 L313.5938,498.6956 L313.5938,501.3675 L318.3594,501.3675 L318.3594,503.5238 L313.5938,503.5238 L313.5938,506.7738 L318.8594,506.7738 L318.8594,508.93 Z " fill="#000000"/><text fill="#000000" font-family="sans-serif" font-size="14" lengthAdjust="spacing" textLength="35" x="335.25" y="507.7767">Pago</text><line style="stroke:#181818;stroke-width:0.5;" x1="204" x2="469" y1="518.93" y2="518.93"/><ellipse cx="214" cy="532.5784" fill="none" rx="3" ry="3" style="stroke:#038048;stroke-width:1.0;"/><text fill="#000000" font-family="sans-serif" font-size="14" lengthAdjust="spacing" textLength="241" x="223" y="535.9251">metodoDePago: Tarjeta de Cr&#233;dito</text><ellipse cx="214" cy="548.8753" fill="none" rx="3" ry="3" style="stroke:#038048;stroke-width:1.0;"/><text fill="#000000" font-family="sans-serif" font-size="14" lengthAdjust="spacing" textLength="72" x="223" y="552.222">monto: 8&#8364;</text><line style="stroke:#181818;stroke-width:0.5;" x1="204" x2="469" y1="559.5238" y2="559.5238"/></g><!--class Bono--><g id="elem_Bono"><rect codeLine="22" fill="#F1F1F1" height="64.2969" id="Bono" rx="2.5" ry="2.5" style="stroke:#181818;stroke-width:0.5;" width="152" x="251.5" y="747.27"/><ellipse cx="304.75" cy="763.27" fill="#ADD1B2" rx="11" ry="11" style="stroke:#181818;stroke-width:1.0;"/><path d="M308.8594,769.27 L301.1406,769.27 L301.1406,756.8794 L308.8594,756.8794 L308.8594,759.0356 L303.5938,759.0356 L303.5938,761.7075 L308.3594,761.7075 L308.3594,763.8638 L303.5938,763.8638 L303.5938,767.1138 L308.8594,767.1138 L308.8594,769.27 Z " fill="#000000"/><text fill="#000000" font-family="sans-serif" font-size="14" lengthAdjust="spacing" textLength="37" x="325.25" y="768.1167">Bono</text><line style="stroke:#181818;stroke-width:0.5;" x1="252.5" x2="402.5" y1="779.27" y2="779.27"/><ellipse cx="262.5" cy="792.9184" fill="none" rx="3" ry="3" style="stroke:#038048;stroke-width:1.0;"/><text fill="#000000" font-family="sans-serif" font-size="14" lengthAdjust="spacing" textLength="126" x="271.5" y="796.2651">horasAbonadas: 3</text><line style="stroke:#181818;stroke-width:0.5;" x1="252.5" x2="402.5" y1="803.5669" y2="803.5669"/></g><!--class Factura--><g id="elem_Factura"><rect codeLine="25" fill="#F1F1F1" height="96.8906" id="Factura" rx="2.5" ry="2.5" style="stroke:#181818;stroke-width:0.5;" width="209" x="445" y="730.97"/><ellipse cx="519.75" cy="746.97" fill="#ADD1B2" rx="11" ry="11" style="stroke:#181818;stroke-width:1.0;"/><path d="M523.8594,752.97 L516.1406,752.97 L516.1406,740.5794 L523.8594,740.5794 L523.8594,742.7356 L518.5938,742.7356 L518.5938,745.4075 L523.3594,745.4075 L523.3594,747.5638 L518.5938,747.5638 L518.5938,750.8138 L523.8594,750.8138 L523.8594,752.97 Z " fill="#000000"/><text fill="#000000" font-family="sans-serif" font-size="14" lengthAdjust="spacing" textLength="51" x="540.25" y="751.8167">Factura</text><line style="stroke:#181818;stroke-width:0.5;" x1="446" x2="653" y1="762.97" y2="762.97"/><ellipse cx="456" cy="776.6184" fill="none" rx="3" ry="3" style="stroke:#038048;stroke-width:1.0;"/><text fill="#000000" font-family="sans-serif" font-size="14" lengthAdjust="spacing" textLength="183" x="465" y="779.9651">fechaEmision: 17/05/2024</text><ellipse cx="456" cy="792.9153" fill="none" rx="3" ry="3" style="stroke:#038048;stroke-width:1.0;"/><text fill="#000000" font-family="sans-serif" font-size="14" lengthAdjust="spacing" textLength="57" x="465" y="796.262">total: 8&#8364;</text><ellipse cx="456" cy="809.2122" fill="none" rx="3" ry="3" style="stroke:#038048;stroke-width:1.0;"/><text fill="#000000" font-family="sans-serif" font-size="14" lengthAdjust="spacing" textLength="128" x="465" y="812.5589">estado: Pendiente</text><line style="stroke:#181818;stroke-width:0.5;" x1="446" x2="653" y1="819.8606" y2="819.8606"/></g><!--class Tarifa--><g id="elem_Tarifa"><rect codeLine="30" fill="#F1F1F1" height="64.2969" id="Tarifa" rx="2.5" ry="2.5" style="stroke:#181818;stroke-width:0.5;" width="128" x="23.5" y="747.27"/><ellipse cx="65.05" cy="763.27" fill="#ADD1B2" rx="11" ry="11" style="stroke:#181818;stroke-width:1.0;"/><path d="M69.1594,769.27 L61.4406,769.27 L61.4406,756.8794 L69.1594,756.8794 L69.1594,759.0356 L63.8938,759.0356 L63.8938,761.7075 L68.6594,761.7075 L68.6594,763.8638 L63.8938,763.8638 L63.8938,767.1138 L69.1594,767.1138 L69.1594,769.27 Z " fill="#000000"/><text fill="#000000" font-family="sans-serif" font-size="14" lengthAdjust="spacing" textLength="37" x="84.95" y="768.1167">Tarifa</text><line style="stroke:#181818;stroke-width:0.5;" x1="24.5" x2="150.5" y1="779.27" y2="779.27"/><ellipse cx="34.5" cy="792.9184" fill="none" rx="3" ry="3" style="stroke:#038048;stroke-width:1.0;"/><text fill="#000000" font-family="sans-serif" font-size="14" lengthAdjust="spacing" textLength="102" x="43.5" y="796.2651">precioHora: 8&#8364;</text><line style="stroke:#181818;stroke-width:0.5;" x1="24.5" x2="150.5" y1="803.5669" y2="803.5669"/></g><!--class FechaHora--><g id="elem_FechaHora"><rect codeLine="33" fill="#F1F1F1" height="129.4844" id="FechaHora" rx="2.5" ry="2.5" style="stroke:#181818;stroke-width:0.5;" width="127" x="505" y="462.49"/><ellipse cx="529.45" cy="478.49" fill="#ADD1B2" rx="11" ry="11" style="stroke:#181818;stroke-width:1.0;"/><path d="M533.5594,484.49 L525.8406,484.49 L525.8406,472.0994 L533.5594,472.0994 L533.5594,474.2556 L528.2938,474.2556 L528.2938,476.9275 L533.0594,476.9275 L533.0594,479.0838 L528.2938,479.0838 L528.2938,482.3338 L533.5594,482.3338 L533.5594,484.49 Z " fill="#000000"/><text fill="#000000" font-family="sans-serif" font-size="14" lengthAdjust="spacing" textLength="74" x="545.55" y="483.3367">FechaHora</text><line style="stroke:#181818;stroke-width:0.5;" x1="506" x2="631" y1="494.49" y2="494.49"/><ellipse cx="516" cy="508.1384" fill="none" rx="3" ry="3" style="stroke:#038048;stroke-width:1.0;"/><text fill="#000000" font-family="sans-serif" font-size="14" lengthAdjust="spacing" textLength="47" x="525" y="511.4851">dia: 17</text><ellipse cx="516" cy="524.4353" fill="none" rx="3" ry="3" style="stroke:#038048;stroke-width:1.0;"/><text fill="#000000" font-family="sans-serif" font-size="14" lengthAdjust="spacing" textLength="57" x="525" y="527.782">mes: 05</text><ellipse cx="516" cy="540.7322" fill="none" rx="3" ry="3" style="stroke:#038048;stroke-width:1.0;"/><text fill="#000000" font-family="sans-serif" font-size="14" lengthAdjust="spacing" textLength="71" x="525" y="544.0789">a&#241;o: 2024</text><ellipse cx="516" cy="557.0291" fill="none" rx="3" ry="3" style="stroke:#038048;stroke-width:1.0;"/><text fill="#000000" font-family="sans-serif" font-size="14" lengthAdjust="spacing" textLength="81" x="525" y="560.3757">hora: 10:00</text><ellipse cx="516" cy="573.3259" fill="none" rx="3" ry="3" style="stroke:#038048;stroke-width:1.0;"/><text fill="#000000" font-family="sans-serif" font-size="14" lengthAdjust="spacing" textLength="101" x="525" y="576.6726">minutos 11:00</text><line style="stroke:#181818;stroke-width:0.5;" x1="506" x2="631" y1="583.9744" y2="583.9744"/></g><!--class SistemaDeReservas--><g id="elem_SistemaDeReservas"><rect fill="#F1F1F1" height="48" id="SistemaDeReservas" rx="2.5" ry="2.5" style="stroke:#181818;stroke-width:0.5;" width="171" x="412" y="7"/><ellipse cx="427" cy="23" fill="#ADD1B2" rx="11" ry="11" style="stroke:#181818;stroke-width:1.0;"/><path d="M429.9688,28.6406 Q429.3906,28.9375 428.75,29.0781 Q428.1094,29.2344 427.4063,29.2344 Q424.9063,29.2344 423.5781,27.5938 Q422.2656,25.9375 422.2656,22.8125 Q422.2656,19.6875 423.5781,18.0313 Q424.9063,16.375 427.4063,16.375 Q428.1094,16.375 428.75,16.5313 Q429.4063,16.6875 429.9688,16.9844 L429.9688,19.7031 Q429.3438,19.125 428.75,18.8594 Q428.1563,18.5781 427.5313,18.5781 Q426.1875,18.5781 425.5,19.6563 Q424.8125,20.7188 424.8125,22.8125 Q424.8125,24.9063 425.5,25.9844 Q426.1875,27.0469 427.5313,27.0469 Q428.1563,27.0469 428.75,26.7813 Q429.3438,26.5 429.9688,25.9219 L429.9688,28.6406 Z " fill="#000000"/><text fill="#000000" font-family="sans-serif" font-size="14" lengthAdjust="spacing" textLength="139" x="441" y="27.8467">SistemaDeReservas</text><line style="stroke:#181818;stroke-width:0.5;" x1="413" x2="582" y1="39" y2="39"/><line style="stroke:#181818;stroke-width:0.5;" x1="413" x2="582" y1="47" y2="47"/></g><!--link SistemaDeReservas to Usuario--><g id="link_SistemaDeReservas_Usuario"><path codeLine="41" d="M514.23,55.31 C540.34,91.69 591.32,162.74 625.4,210.23 " fill="none" id="SistemaDeReservas-Usuario" style="stroke:#181818;stroke-width:1.0;stroke-dasharray:7.0,7.0;"/><polygon fill="#000000" points="577.4151,128.6287,574.5294,119.5665,569.7539,122.9934,577.4151,128.6287" style="stroke:#000000;stroke-width:1.0;"/><text fill="#000000" font-family="sans-serif" font-size="13" lengthAdjust="spacing" textLength="91" x="583.5" y="129.0669">Crea y elimina</text></g><!--link SistemaDeReservas to Reserva--><g id="link_SistemaDeReservas_Reserva"><path codeLine="42" d="M480.88,55.31 C457.82,87.64 415.25,147.33 382.28,193.55 " fill="none" id="SistemaDeReservas-Reserva" style="stroke:#181818;stroke-width:1.0;"/><text fill="#000000" font-family="sans-serif" font-size="13" lengthAdjust="spacing" textLength="57" x="438.5" y="129.0669">Gestiona</text></g><!--link Reserva to Usuario--><g id="link_Reserva_Usuario"><path codeLine="43" d="M414.28,258.74 C441.72,258.74 473.62,258.74 505.15,258.74 " fill="none" id="Reserva-Usuario" style="stroke:#181818;stroke-width:1.0;"/><polygon fill="#000000" points="431.25,247.3064,440.2951,250.2453,440.2951,244.3675,431.25,247.3064" style="stroke:#000000;stroke-width:1.0;"/><text fill="#000000" font-family="sans-serif" font-size="13" lengthAdjust="spacing" textLength="42" x="445.25" y="251.8069">realiza</text></g><!--link Reserva to Pago--><g id="link_Reserva_Pago"><path codeLine="44" d="M336.5,323.91 C336.5,374.58 336.5,443.67 336.5,486.58 " fill="none" id="Reserva-Pago" style="stroke:#181818;stroke-width:1.0;"/><text fill="#000000" font-family="sans-serif" font-size="13" lengthAdjust="spacing" textLength="53" x="337.5" y="397.5569">requiere</text></g><!--link Reserva to Pista--><g id="link_Reserva_Pista"><path codeLine="45" d="M270.78,323.67 C251.41,342.95 230.36,364.34 211.5,384.49 C182.78,415.15 151.65,450.75 127.77,478.59 " fill="none" id="Reserva-Pista" style="stroke:#181818;stroke-width:1.0;"/><text fill="#000000" font-family="sans-serif" font-size="13" lengthAdjust="spacing" textLength="115" x="212.5" y="397.5569">se lleva a cabo en</text></g><!--link Pista to Tarifa--><g id="link_Pista_Tarifa"><path codeLine="46" d="M87.5,576.17 C87.5,626.4 87.5,703.85 87.5,746.87 " fill="none" id="Pista-Tarifa" style="stroke:#181818;stroke-width:1.0;"/><text fill="#000000" font-family="sans-serif" font-size="13" lengthAdjust="spacing" textLength="160" x="88.5" y="666.0369">se fija el precio mediante</text></g><!--link Reserva to FechaHora--><g id="link_Reserva_FechaHora"><path codeLine="47" d="M392.37,323.91 C428.83,365.8 476.27,420.28 512.72,462.15 " fill="none" id="Reserva-FechaHora" style="stroke:#181818;stroke-width:1.0;"/></g><!--link Pago to Factura--><g id="link_Pago_Factura"><path codeLine="49" d="M399.01,567.81 C430.17,589.93 466.62,619.72 492.5,652.97 C510.5,676.09 524.32,705.81 533.85,730.52 " fill="none" id="Pago-Factura" style="stroke:#181818;stroke-width:1.0;"/><text fill="#000000" font-family="sans-serif" font-size="13" lengthAdjust="spacing" textLength="75" x="505.5" y="666.0369">Que genera</text></g><!--link Pago to Bono--><g id="link_Pago_Bono"><path codeLine="50" d="M335.07,567.87 C333.29,617.47 330.27,701.41 328.63,746.88 " fill="none" id="Pago-Bono" style="stroke:#181818;stroke-width:1.0;"/><polygon fill="#000000" points="337.6798,656.5396,334.4175,665.4732,340.2916,665.6845,337.6798,656.5396" style="stroke:#000000;stroke-width:1.0;"/><text fill="#000000" font-family="sans-serif" font-size="13" lengthAdjust="spacing" textLength="137" x="346.5" y="666.0369">Puede efectuarse por</text></g><!--SRC=[TLBBZjD04BpxA_g-SjREWyrQ2F482-8KNX_GyNHsUsLFXvanqeBsmjyWmO4hr_m9NqBFs76o4jncUdggkggBRE1m1-_8a_kCy3K3E8CT-u1GGPbkMwflK2yNvyNYV5fCvwbw8ouMYweeqjsmtudb3JTiq5JWzpzJdSqQhqKxBvUpUPdTPzGpVlGTEfQ1qKgxSLJ16x4heLIY5hb9bOcMdcBJjLRyfBCKi445gML2FhK6QcWhLbdEPdCefxFvuj75yl98jaw21ghzxvPSd0X68Jf81KkLaaz7GJNkiEwrp4-GLCm0r58G8olgzNr0TwkJWI5uuVRV3GVfkyI62FxdsuyZodCTTa29zFxPHYmQz1NCZarNM8VE7SPEMtZPicUnfyleHGHHKmQMP9xgDKgx9cjOyUW8guFoTjoqevhbTThbmn6l8bzy63eDfmmCodNIOf7EkF-bFF-DHSks2-AXB6FbFilUwofqjIiQ8kTXCXd3K3rHymZX3gXX_Oh_QC_pV8nh1QzKgJg2sG4YppKBOMnHH0Li-0jcXqyHeD-PeqyTawE7Jp4hcb-2fY6jeIPX8q0swrCKUteFKzEMRr6d7PnKQzIewFSfvEXbbgNyf5g_tGhUTWJNP4cTFhwcW5Jm6DOTQQ98jnzKd_BjnFq5]--></g></svg>