<?xml version="1.0" encoding="us-ascii" standalone="no"?><svg xmlns="http://www.w3.org/2000/svg" xmlns:xlink="http://www.w3.org/1999/xlink" contentStyleType="text/css" height="1038px" preserveAspectRatio="none" style="width:865px;height:1038px;background:#FFFFFF;" version="1.1" viewBox="0 0 865 1038" width="865px" zoomAndPan="magnify"><defs/><g><!--class Reserva--><g id="elem_Reserva"><rect codeLine="1" fill="#F1F1F1" height="129.4844" id="Reserva" rx="2.5" ry="2.5" style="stroke:#181818;stroke-width:0.5;" width="120" x="305.5" y="429.89"/><ellipse cx="334.9" cy="445.89" fill="#ADD1B2" rx="11" ry="11" style="stroke:#181818;stroke-width:1.0;"/><path d="M339.0094,451.89 L331.2906,451.89 L331.2906,439.4994 L339.0094,439.4994 L339.0094,441.6556 L333.7438,441.6556 L333.7438,444.3275 L338.5094,444.3275 L338.5094,446.4838 L333.7438,446.4838 L333.7438,449.7338 L339.0094,449.7338 L339.0094,451.89 Z " fill="#000000"/><text fill="#000000" font-family="sans-serif" font-size="14" lengthAdjust="spacing" textLength="56" x="352.1" y="450.7367">Reserva</text><line style="stroke:#181818;stroke-width:0.5;" x1="306.5" x2="424.5" y1="461.89" y2="461.89"/><ellipse cx="316.5" cy="475.5384" fill="none" rx="3" ry="3" style="stroke:#038048;stroke-width:1.0;"/><text fill="#000000" font-family="sans-serif" font-size="14" lengthAdjust="spacing" textLength="33" x="325.5" y="478.8851">pista</text><ellipse cx="316.5" cy="491.8353" fill="none" rx="3" ry="3" style="stroke:#038048;stroke-width:1.0;"/><text fill="#000000" font-family="sans-serif" font-size="14" lengthAdjust="spacing" textLength="38" x="325.5" y="495.182">fecha</text><ellipse cx="316.5" cy="508.1322" fill="none" rx="3" ry="3" style="stroke:#038048;stroke-width:1.0;"/><text fill="#000000" font-family="sans-serif" font-size="14" lengthAdjust="spacing" textLength="31" x="325.5" y="511.4789">hora</text><ellipse cx="316.5" cy="524.4291" fill="none" rx="3" ry="3" style="stroke:#038048;stroke-width:1.0;"/><text fill="#000000" font-family="sans-serif" font-size="14" lengthAdjust="spacing" textLength="94" x="325.5" y="527.7757">disponibilidad</text><ellipse cx="316.5" cy="540.7259" fill="none" rx="3" ry="3" style="stroke:#038048;stroke-width:1.0;"/><text fill="#000000" font-family="sans-serif" font-size="14" lengthAdjust="spacing" textLength="47" x="325.5" y="544.0726">idPago</text><line style="stroke:#181818;stroke-width:0.5;" x1="306.5" x2="424.5" y1="551.3744" y2="551.3744"/></g><g id="elem_GMN3"><path d="M461,482.07 L461,490.64 L425.79,494.64 L461,498.64 L461,507.2028 A0,0 0 0 0 461,507.2028 L858,507.2028 A0,0 0 0 0 858,507.2028 L858,492.07 L848,482.07 L461,482.07 A0,0 0 0 0 461,482.07 " fill="#FEFFDD" style="stroke:#181818;stroke-width:0.5;"/><path d="M848,482.07 L848,492.07 L858,492.07 L848,482.07 " fill="#FEFFDD" style="stroke:#181818;stroke-width:0.5;"/><text fill="#000000" font-family="sans-serif" font-size="13" lengthAdjust="spacing" textLength="376" x="467" y="499.1369">El sistema crea, cancela y muestra el historial de reservas.</text></g><!--class Usuario--><g id="elem_Usuario"><rect codeLine="11" fill="#F1F1F1" height="96.8906" id="Usuario" rx="2.5" ry="2.5" style="stroke:#181818;stroke-width:0.5;" width="84" x="403.5" y="194"/><ellipse cx="418.5" cy="210" fill="#ADD1B2" rx="11" ry="11" style="stroke:#181818;stroke-width:1.0;"/><path d="M422.6094,216 L414.8906,216 L414.8906,203.6094 L422.6094,203.6094 L422.6094,205.7656 L417.3438,205.7656 L417.3438,208.4375 L422.1094,208.4375 L422.1094,210.5938 L417.3438,210.5938 L417.3438,213.8438 L422.6094,213.8438 L422.6094,216 Z " fill="#000000"/><text fill="#000000" font-family="sans-serif" font-size="14" lengthAdjust="spacing" textLength="52" x="432.5" y="214.8467">Usuario</text><line style="stroke:#181818;stroke-width:0.5;" x1="404.5" x2="486.5" y1="226" y2="226"/><ellipse cx="414.5" cy="239.6484" fill="none" rx="3" ry="3" style="stroke:#038048;stroke-width:1.0;"/><text fill="#000000" font-family="sans-serif" font-size="14" lengthAdjust="spacing" textLength="54" x="423.5" y="242.9951">nombre</text><ellipse cx="414.5" cy="255.9453" fill="none" rx="3" ry="3" style="stroke:#038048;stroke-width:1.0;"/><text fill="#000000" font-family="sans-serif" font-size="14" lengthAdjust="spacing" textLength="36" x="423.5" y="259.292">email</text><ellipse cx="414.5" cy="272.2422" fill="none" rx="3" ry="3" style="stroke:#038048;stroke-width:1.0;"/><text fill="#000000" font-family="sans-serif" font-size="14" lengthAdjust="spacing" textLength="57" x="423.5" y="275.5889">telefono</text><line style="stroke:#181818;stroke-width:0.5;" x1="404.5" x2="486.5" y1="282.8906" y2="282.8906"/></g><!--class Pista--><g id="elem_Pista"><rect codeLine="16" fill="#F1F1F1" height="96.8906" id="Pista" rx="2.5" ry="2.5" style="stroke:#181818;stroke-width:0.5;" width="96" x="31.5" y="698.38"/><ellipse cx="60.45" cy="714.38" fill="#ADD1B2" rx="11" ry="11" style="stroke:#181818;stroke-width:1.0;"/><path d="M64.5594,720.38 L56.8406,720.38 L56.8406,707.9894 L64.5594,707.9894 L64.5594,710.1456 L59.2938,710.1456 L59.2938,712.8175 L64.0594,712.8175 L64.0594,714.9738 L59.2938,714.9738 L59.2938,718.2238 L64.5594,718.2238 L64.5594,720.38 Z " fill="#000000"/><text fill="#000000" font-family="sans-serif" font-size="14" lengthAdjust="spacing" textLength="33" x="77.55" y="719.2267">Pista</text><line style="stroke:#181818;stroke-width:0.5;" x1="32.5" x2="126.5" y1="730.38" y2="730.38"/><ellipse cx="42.5" cy="744.0284" fill="none" rx="3" ry="3" style="stroke:#038048;stroke-width:1.0;"/><text fill="#000000" font-family="sans-serif" font-size="14" lengthAdjust="spacing" textLength="54" x="51.5" y="747.3751">n&#250;mero</text><ellipse cx="42.5" cy="760.3253" fill="none" rx="3" ry="3" style="stroke:#038048;stroke-width:1.0;"/><text fill="#000000" font-family="sans-serif" font-size="14" lengthAdjust="spacing" textLength="48" x="51.5" y="763.672">horario</text><ellipse cx="42.5" cy="776.6222" fill="none" rx="3" ry="3" style="stroke:#038048;stroke-width:1.0;"/><text fill="#000000" font-family="sans-serif" font-size="14" lengthAdjust="spacing" textLength="70" x="51.5" y="779.9689">capacidad</text><line style="stroke:#181818;stroke-width:0.5;" x1="32.5" x2="126.5" y1="787.2706" y2="787.2706"/></g><!--class Pago--><g id="elem_Pago"><rect codeLine="22" fill="#F1F1F1" height="96.8906" id="Pago" rx="2.5" ry="2.5" style="stroke:#181818;stroke-width:0.5;" width="115" x="232" y="698.38"/><ellipse cx="268.6" cy="714.38" fill="#ADD1B2" rx="11" ry="11" style="stroke:#181818;stroke-width:1.0;"/><path d="M272.7094,720.38 L264.9906,720.38 L264.9906,707.9894 L272.7094,707.9894 L272.7094,710.1456 L267.4438,710.1456 L267.4438,712.8175 L272.2094,712.8175 L272.2094,714.9738 L267.4438,714.9738 L267.4438,718.2238 L272.7094,718.2238 L272.7094,720.38 Z " fill="#000000"/><text fill="#000000" font-family="sans-serif" font-size="14" lengthAdjust="spacing" textLength="35" x="287.4" y="719.2267">Pago</text><line style="stroke:#181818;stroke-width:0.5;" x1="233" x2="346" y1="730.38" y2="730.38"/><ellipse cx="243" cy="744.0284" fill="none" rx="3" ry="3" style="stroke:#038048;stroke-width:1.0;"/><text fill="#000000" font-family="sans-serif" font-size="14" lengthAdjust="spacing" textLength="12" x="252" y="747.3751">id</text><ellipse cx="243" cy="760.3253" fill="none" rx="3" ry="3" style="stroke:#038048;stroke-width:1.0;"/><text fill="#000000" font-family="sans-serif" font-size="14" lengthAdjust="spacing" textLength="89" x="252" y="763.672">metodoPago</text><ellipse cx="243" cy="776.6222" fill="none" rx="3" ry="3" style="stroke:#038048;stroke-width:1.0;"/><text fill="#000000" font-family="sans-serif" font-size="14" lengthAdjust="spacing" textLength="45" x="252" y="779.9689">monto</text><line style="stroke:#181818;stroke-width:0.5;" x1="233" x2="346" y1="787.2706" y2="787.2706"/></g><!--class Bono--><g id="elem_Bono"><rect codeLine="28" fill="#F1F1F1" height="64.2969" id="Bono" rx="2.5" ry="2.5" style="stroke:#181818;stroke-width:0.5;" width="134" x="222.5" y="950.57"/><ellipse cx="266.75" cy="966.57" fill="#ADD1B2" rx="11" ry="11" style="stroke:#181818;stroke-width:1.0;"/><path d="M270.8594,972.57 L263.1406,972.57 L263.1406,960.1794 L270.8594,960.1794 L270.8594,962.3356 L265.5938,962.3356 L265.5938,965.0075 L270.3594,965.0075 L270.3594,967.1638 L265.5938,967.1638 L265.5938,970.4138 L270.8594,970.4138 L270.8594,972.57 Z " fill="#000000"/><text fill="#000000" font-family="sans-serif" font-size="14" lengthAdjust="spacing" textLength="37" x="287.25" y="971.4167">Bono</text><line style="stroke:#181818;stroke-width:0.5;" x1="223.5" x2="355.5" y1="982.57" y2="982.57"/><ellipse cx="233.5" cy="996.2184" fill="none" rx="3" ry="3" style="stroke:#038048;stroke-width:1.0;"/><text fill="#000000" font-family="sans-serif" font-size="14" lengthAdjust="spacing" textLength="108" x="242.5" y="999.5651">horasAbonadas</text><line style="stroke:#181818;stroke-width:0.5;" x1="223.5" x2="355.5" y1="1006.8669" y2="1006.8669"/></g><!--class Factura--><g id="elem_Factura"><rect codeLine="32" fill="#F1F1F1" height="96.8906" id="Factura" rx="2.5" ry="2.5" style="stroke:#181818;stroke-width:0.5;" width="118" x="439.5" y="934.27"/><ellipse cx="470.25" cy="950.27" fill="#ADD1B2" rx="11" ry="11" style="stroke:#181818;stroke-width:1.0;"/><path d="M474.3594,956.27 L466.6406,956.27 L466.6406,943.8794 L474.3594,943.8794 L474.3594,946.0356 L469.0938,946.0356 L469.0938,948.7075 L473.8594,948.7075 L473.8594,950.8638 L469.0938,950.8638 L469.0938,954.1138 L474.3594,954.1138 L474.3594,956.27 Z " fill="#000000"/><text fill="#000000" font-family="sans-serif" font-size="14" lengthAdjust="spacing" textLength="51" x="487.75" y="955.1167">Factura</text><line style="stroke:#181818;stroke-width:0.5;" x1="440.5" x2="556.5" y1="966.27" y2="966.27"/><ellipse cx="450.5" cy="979.9184" fill="none" rx="3" ry="3" style="stroke:#038048;stroke-width:1.0;"/><text fill="#000000" font-family="sans-serif" font-size="14" lengthAdjust="spacing" textLength="92" x="459.5" y="983.2651">fechaEmision</text><ellipse cx="450.5" cy="996.2153" fill="none" rx="3" ry="3" style="stroke:#038048;stroke-width:1.0;"/><text fill="#000000" font-family="sans-serif" font-size="14" lengthAdjust="spacing" textLength="30" x="459.5" y="999.562">total</text><ellipse cx="450.5" cy="1012.5122" fill="none" rx="3" ry="3" style="stroke:#038048;stroke-width:1.0;"/><text fill="#000000" font-family="sans-serif" font-size="14" lengthAdjust="spacing" textLength="48" x="459.5" y="1015.8589">estado</text><line style="stroke:#181818;stroke-width:0.5;" x1="440.5" x2="556.5" y1="1023.1606" y2="1023.1606"/></g><!--class Tarifa--><g id="elem_Tarifa"><rect codeLine="38" fill="#F1F1F1" height="64.2969" id="Tarifa" rx="2.5" ry="2.5" style="stroke:#181818;stroke-width:0.5;" width="101" x="7" y="950.57"/><ellipse cx="36.4" cy="966.57" fill="#ADD1B2" rx="11" ry="11" style="stroke:#181818;stroke-width:1.0;"/><path d="M40.5094,972.57 L32.7906,972.57 L32.7906,960.1794 L40.5094,960.1794 L40.5094,962.3356 L35.2438,962.3356 L35.2438,965.0075 L40.0094,965.0075 L40.0094,967.1638 L35.2438,967.1638 L35.2438,970.4138 L40.5094,970.4138 L40.5094,972.57 Z " fill="#000000"/><text fill="#000000" font-family="sans-serif" font-size="14" lengthAdjust="spacing" textLength="37" x="53.6" y="971.4167">Tarifa</text><line style="stroke:#181818;stroke-width:0.5;" x1="8" x2="107" y1="982.57" y2="982.57"/><ellipse cx="18" cy="996.2184" fill="none" rx="3" ry="3" style="stroke:#038048;stroke-width:1.0;"/><text fill="#000000" font-family="sans-serif" font-size="14" lengthAdjust="spacing" textLength="75" x="27" y="999.5651">precioHora</text><line style="stroke:#181818;stroke-width:0.5;" x1="8" x2="107" y1="1006.8669" y2="1006.8669"/></g><!--class Fecha--><g id="elem_Fecha"><rect codeLine="42" fill="#F1F1F1" height="96.8906" id="Fecha" rx="2.5" ry="2.5" style="stroke:#181818;stroke-width:0.5;" width="74" x="382.5" y="698.38"/><ellipse cx="397.5" cy="714.38" fill="#ADD1B2" rx="11" ry="11" style="stroke:#181818;stroke-width:1.0;"/><path d="M401.6094,720.38 L393.8906,720.38 L393.8906,707.9894 L401.6094,707.9894 L401.6094,710.1456 L396.3438,710.1456 L396.3438,712.8175 L401.1094,712.8175 L401.1094,714.9738 L396.3438,714.9738 L396.3438,718.2238 L401.6094,718.2238 L401.6094,720.38 Z " fill="#000000"/><text fill="#000000" font-family="sans-serif" font-size="14" lengthAdjust="spacing" textLength="42" x="411.5" y="719.2267">Fecha</text><line style="stroke:#181818;stroke-width:0.5;" x1="383.5" x2="455.5" y1="730.38" y2="730.38"/><ellipse cx="393.5" cy="744.0284" fill="none" rx="3" ry="3" style="stroke:#038048;stroke-width:1.0;"/><text fill="#000000" font-family="sans-serif" font-size="14" lengthAdjust="spacing" textLength="20" x="402.5" y="747.3751">dia</text><ellipse cx="393.5" cy="760.3253" fill="none" rx="3" ry="3" style="stroke:#038048;stroke-width:1.0;"/><text fill="#000000" font-family="sans-serif" font-size="14" lengthAdjust="spacing" textLength="30" x="402.5" y="763.672">mes</text><ellipse cx="393.5" cy="776.6222" fill="none" rx="3" ry="3" style="stroke:#038048;stroke-width:1.0;"/><text fill="#000000" font-family="sans-serif" font-size="14" lengthAdjust="spacing" textLength="26" x="402.5" y="779.9689">a&#241;o</text><line style="stroke:#181818;stroke-width:0.5;" x1="383.5" x2="455.5" y1="787.2706" y2="787.2706"/></g><!--class Hora--><g id="elem_Hora"><rect codeLine="48" fill="#F1F1F1" height="80.5938" id="Hora" rx="2.5" ry="2.5" style="stroke:#181818;stroke-width:0.5;" width="82" x="491.5" y="706.53"/><ellipse cx="514.6" cy="722.53" fill="#ADD1B2" rx="11" ry="11" style="stroke:#181818;stroke-width:1.0;"/><path d="M518.7094,728.53 L510.9906,728.53 L510.9906,716.1394 L518.7094,716.1394 L518.7094,718.2956 L513.4438,718.2956 L513.4438,720.9675 L518.2094,720.9675 L518.2094,723.1238 L513.4438,723.1238 L513.4438,726.3738 L518.7094,726.3738 L518.7094,728.53 Z " fill="#000000"/><text fill="#000000" font-family="sans-serif" font-size="14" lengthAdjust="spacing" textLength="32" x="530.4" y="727.3767">Hora</text><line style="stroke:#181818;stroke-width:0.5;" x1="492.5" x2="572.5" y1="738.53" y2="738.53"/><ellipse cx="502.5" cy="752.1784" fill="none" rx="3" ry="3" style="stroke:#038048;stroke-width:1.0;"/><text fill="#000000" font-family="sans-serif" font-size="14" lengthAdjust="spacing" textLength="31" x="511.5" y="755.5251">hora</text><ellipse cx="502.5" cy="768.4753" fill="none" rx="3" ry="3" style="stroke:#038048;stroke-width:1.0;"/><text fill="#000000" font-family="sans-serif" font-size="14" lengthAdjust="spacing" textLength="56" x="511.5" y="771.822">minutos</text><line style="stroke:#181818;stroke-width:0.5;" x1="492.5" x2="572.5" y1="779.1238" y2="779.1238"/></g><!--class SistemaDeReservas--><g id="elem_SistemaDeReservas"><rect fill="#F1F1F1" height="48" id="SistemaDeReservas" rx="2.5" ry="2.5" style="stroke:#181818;stroke-width:0.5;" width="171" x="268" y="7"/><ellipse cx="283" cy="23" fill="#ADD1B2" rx="11" ry="11" style="stroke:#181818;stroke-width:1.0;"/><path d="M285.9688,28.6406 Q285.3906,28.9375 284.75,29.0781 Q284.1094,29.2344 283.4063,29.2344 Q280.9063,29.2344 279.5781,27.5938 Q278.2656,25.9375 278.2656,22.8125 Q278.2656,19.6875 279.5781,18.0313 Q280.9063,16.375 283.4063,16.375 Q284.1094,16.375 284.75,16.5313 Q285.4063,16.6875 285.9688,16.9844 L285.9688,19.7031 Q285.3438,19.125 284.75,18.8594 Q284.1563,18.5781 283.5313,18.5781 Q282.1875,18.5781 281.5,19.6563 Q280.8125,20.7188 280.8125,22.8125 Q280.8125,24.9063 281.5,25.9844 Q282.1875,27.0469 283.5313,27.0469 Q284.1563,27.0469 284.75,26.7813 Q285.3438,26.5 285.9688,25.9219 L285.9688,28.6406 Z " fill="#000000"/><text fill="#000000" font-family="sans-serif" font-size="14" lengthAdjust="spacing" textLength="139" x="297" y="27.8467">SistemaDeReservas</text><line style="stroke:#181818;stroke-width:0.5;" x1="269" x2="438" y1="39" y2="39"/><line style="stroke:#181818;stroke-width:0.5;" x1="269" x2="438" y1="47" y2="47"/></g><!--link SistemaDeReservas to Usuario--><g id="link_SistemaDeReservas_Usuario"><path codeLine="53" d="M363.7,55.22 C378.29,88.45 405.48,150.33 424.49,193.61 " fill="none" id="SistemaDeReservas-Usuario" style="stroke:#181818;stroke-width:1.0;"/><text fill="#000000" font-family="sans-serif" font-size="13" lengthAdjust="spacing" textLength="91" x="398.5" y="129.0669">Crea y elimina</text></g><!--link SistemaDeReservas to Reserva--><g id="link_SistemaDeReservas_Reserva"><path codeLine="54" d="M335.09,55.39 C323.04,73.06 309.5,98.47 309.5,123.5 C309.5,123.5 309.5,123.5 309.5,361.39 C309.5,384.71 316.97,408.63 326.45,429.61 " fill="none" id="SistemaDeReservas-Reserva" style="stroke:#181818;stroke-width:1.0;"/><text fill="#000000" font-family="sans-serif" font-size="13" lengthAdjust="spacing" textLength="57" x="310.5" y="247.0169">Gestiona</text></g><!--link Usuario to Reserva--><g id="link_Usuario_Reserva"><path codeLine="55" d="M430.17,291.39 C417.6,330.69 399.7,386.67 385.92,429.77 " fill="none" id="Usuario-Reserva" style="stroke:#181818;stroke-width:1.0;"/><text fill="#000000" font-family="sans-serif" font-size="13" lengthAdjust="spacing" textLength="42" x="411.5" y="364.9569">realiza</text></g><!--link Reserva to Pago--><g id="link_Reserva_Pago"><path codeLine="56" d="M346.03,559.74 C332.92,602.89 315.92,658.84 304,698.09 " fill="none" id="Reserva-Pago" style="stroke:#181818;stroke-width:1.0;"/><text fill="#000000" font-family="sans-serif" font-size="13" lengthAdjust="spacing" textLength="53" x="328.5" y="633.4469">requiere</text></g><!--link Reserva to Pista--><g id="link_Reserva_Pista"><path codeLine="57" d="M305.19,536.48 C272.27,559.74 231.42,590.19 197.5,620.38 C170.48,644.43 142.64,673.77 120.79,698.03 " fill="none" id="Reserva-Pista" style="stroke:#181818;stroke-width:1.0;"/><text fill="#000000" font-family="sans-serif" font-size="13" lengthAdjust="spacing" textLength="115" x="198.5" y="633.4469">se lleva a cabo en</text></g><!--link Pista to Tarifa--><g id="link_Pista_Tarifa"><path codeLine="58" d="M74.99,795.72 C70.65,841.96 64.18,910.65 60.45,950.32 " fill="none" id="Pista-Tarifa" style="stroke:#181818;stroke-width:1.0;"/><text fill="#000000" font-family="sans-serif" font-size="13" lengthAdjust="spacing" textLength="160" x="70.5" y="869.3369">se fija el precio mediante</text></g><!--link Reserva to Fecha--><g id="link_Reserva_Fecha"><path codeLine="59" d="M379.34,559.74 C388.65,602.89 400.73,658.84 409.2,698.09 " fill="none" id="Reserva-Fecha" style="stroke:#181818;stroke-width:1.0;"/></g><!--link Reserva to Hora--><g id="link_Reserva_Hora"><path codeLine="60" d="M408.29,559.74 C439.12,605.93 479.75,666.8 506,706.12 " fill="none" id="Reserva-Hora" style="stroke:#181818;stroke-width:1.0;"/></g><!--link Pago to Factura--><g id="link_Pago_Factura"><path codeLine="61" d="M347.38,786.34 C382.33,810.38 422.71,839.8 436.5,856.27 C455.68,879.18 470.75,909.03 481.22,933.87 " fill="none" id="Pago-Factura" style="stroke:#181818;stroke-width:1.0;"/><text fill="#000000" font-family="sans-serif" font-size="13" lengthAdjust="spacing" textLength="75" x="449.5" y="869.3369">Que genera</text></g><!--link Pago to Bono--><g id="link_Pago_Bono"><path codeLine="62" d="M289.5,795.72 C289.5,841.96 289.5,910.65 289.5,950.32 " fill="none" id="Pago-Bono" style="stroke:#181818;stroke-width:1.0;"/><text fill="#000000" font-family="sans-serif" font-size="13" lengthAdjust="spacing" textLength="137" x="290.5" y="869.3369">Puede efectuarse por</text></g><!--SRC=[TL9DLjmm3Dxx5DgtqmDaHu7IvG3b09fOcL6VOmssq_U0nw7OikLYo78oP1PTHR6apz-FAHOkJt17cT8_X1S7y0sEd0jQDL1_QDL1KYiyvwD4td5WZzwEs6znB-xLkIY58F7-K4261RM3wm1PCMb4w1FXT-WnzXGGdc2SA9U4G04EEYA9CO1NaBQRVpX7ZUD3dZ2np1oZZBj4LYei1wiA1HeaLYhpqhPAMLO-taTASfAZO5RtUCJUnBoUBgk2vZLk8aSguiM4sg_48gk5dthjl52nyyLE8dhCgv5Vs9SfBMpCskkHCqjivALWaw6Ee5-3_r6kmocTH3tBxvh72hkYpGEUSMQSxOiVRskmkhbYsaOvJaMCx7qBwehcz39iDfkJ-HrSQe2Q6mNM9VpF-FAUEhXHCQeGtOAmQdUQCWP-HhVCrsQrk7OU9oPD-AnLq-mW4uH0UgRF2NS255tBkSuqhsneuB_si9fZweSw4yivf1btTcBEMlxMRw5rS3iHx2cIclVLjTGxs4waJvOqqg8YzUQZf4y0]--></g></svg>