<?xml version="1.0" encoding="us-ascii" standalone="no"?><svg xmlns="http://www.w3.org/2000/svg" xmlns:xlink="http://www.w3.org/1999/xlink" contentStyleType="text/css" height="834px" preserveAspectRatio="none" style="width:577px;height:834px;background:#FFFFFF;" version="1.1" viewBox="0 0 577 834" width="577px" zoomAndPan="magnify"><defs/><g><!--class Reserva--><g id="elem_Reserva"><rect codeLine="1" fill="#F1F1F1" height="129.4844" id="Reserva" rx="2.5" ry="2.5" style="stroke:#181818;stroke-width:0.5;" width="120" x="229.5" y="194"/><ellipse cx="258.9" cy="210" fill="#ADD1B2" rx="11" ry="11" style="stroke:#181818;stroke-width:1.0;"/><path d="M263.0094,216 L255.2906,216 L255.2906,203.6094 L263.0094,203.6094 L263.0094,205.7656 L257.7438,205.7656 L257.7438,208.4375 L262.5094,208.4375 L262.5094,210.5938 L257.7438,210.5938 L257.7438,213.8438 L263.0094,213.8438 L263.0094,216 Z " fill="#000000"/><text fill="#000000" font-family="sans-serif" font-size="14" lengthAdjust="spacing" textLength="56" x="276.1" y="214.8467">Reserva</text><line style="stroke:#181818;stroke-width:0.5;" x1="230.5" x2="348.5" y1="226" y2="226"/><ellipse cx="240.5" cy="239.6484" fill="none" rx="3" ry="3" style="stroke:#038048;stroke-width:1.0;"/><text fill="#000000" font-family="sans-serif" font-size="14" lengthAdjust="spacing" textLength="33" x="249.5" y="242.9951">pista</text><ellipse cx="240.5" cy="255.9453" fill="none" rx="3" ry="3" style="stroke:#038048;stroke-width:1.0;"/><text fill="#000000" font-family="sans-serif" font-size="14" lengthAdjust="spacing" textLength="38" x="249.5" y="259.292">fecha</text><ellipse cx="240.5" cy="272.2422" fill="none" rx="3" ry="3" style="stroke:#038048;stroke-width:1.0;"/><text fill="#000000" font-family="sans-serif" font-size="14" lengthAdjust="spacing" textLength="31" x="249.5" y="275.5889">hora</text><ellipse cx="240.5" cy="288.5391" fill="none" rx="3" ry="3" style="stroke:#038048;stroke-width:1.0;"/><text fill="#000000" font-family="sans-serif" font-size="14" lengthAdjust="spacing" textLength="94" x="249.5" y="291.8857">disponibilidad</text><ellipse cx="240.5" cy="304.8359" fill="none" rx="3" ry="3" style="stroke:#038048;stroke-width:1.0;"/><text fill="#000000" font-family="sans-serif" font-size="14" lengthAdjust="spacing" textLength="47" x="249.5" y="308.1826">idPago</text><line style="stroke:#181818;stroke-width:0.5;" x1="230.5" x2="348.5" y1="315.4844" y2="315.4844"/></g><g id="elem_GMN3"><path d="M25,231.04 L25,286.4384 A0,0 0 0 0 25,286.4384 L194,286.4384 A0,0 0 0 0 194,286.4384 L194,262.74 L229.21,258.74 L194,254.74 L194,241.04 L184,231.04 L25,231.04 A0,0 0 0 0 25,231.04 " fill="#FEFFDD" style="stroke:#181818;stroke-width:0.5;"/><path d="M184,231.04 L184,241.04 L194,241.04 L184,231.04 " fill="#FEFFDD" style="stroke:#181818;stroke-width:0.5;"/><text fill="#000000" font-family="sans-serif" font-size="13" lengthAdjust="spacing" textLength="102" x="31" y="248.1069">El sistema crea,</text><text fill="#000000" font-family="sans-serif" font-size="13" lengthAdjust="spacing" textLength="118" x="31" y="263.2397">cancela y muestra</text><text fill="#000000" font-family="sans-serif" font-size="13" lengthAdjust="spacing" textLength="148" x="31" y="278.3725">el historial de reservas.</text></g><!--class Usuario--><g id="elem_Usuario"><rect codeLine="15" fill="#F1F1F1" height="96.8906" id="Usuario" rx="2.5" ry="2.5" style="stroke:#181818;stroke-width:0.5;" width="84" x="441.5" y="210.3"/><ellipse cx="456.5" cy="226.3" fill="#ADD1B2" rx="11" ry="11" style="stroke:#181818;stroke-width:1.0;"/><path d="M460.6094,232.3 L452.8906,232.3 L452.8906,219.9094 L460.6094,219.9094 L460.6094,222.0656 L455.3438,222.0656 L455.3438,224.7375 L460.1094,224.7375 L460.1094,226.8938 L455.3438,226.8938 L455.3438,230.1438 L460.6094,230.1438 L460.6094,232.3 Z " fill="#000000"/><text fill="#000000" font-family="sans-serif" font-size="14" lengthAdjust="spacing" textLength="52" x="470.5" y="231.1467">Usuario</text><line style="stroke:#181818;stroke-width:0.5;" x1="442.5" x2="524.5" y1="242.3" y2="242.3"/><ellipse cx="452.5" cy="255.9484" fill="none" rx="3" ry="3" style="stroke:#038048;stroke-width:1.0;"/><text fill="#000000" font-family="sans-serif" font-size="14" lengthAdjust="spacing" textLength="54" x="461.5" y="259.2951">nombre</text><ellipse cx="452.5" cy="272.2453" fill="none" rx="3" ry="3" style="stroke:#038048;stroke-width:1.0;"/><text fill="#000000" font-family="sans-serif" font-size="14" lengthAdjust="spacing" textLength="36" x="461.5" y="275.592">email</text><ellipse cx="452.5" cy="288.5422" fill="none" rx="3" ry="3" style="stroke:#038048;stroke-width:1.0;"/><text fill="#000000" font-family="sans-serif" font-size="14" lengthAdjust="spacing" textLength="57" x="461.5" y="291.8889">telefono</text><line style="stroke:#181818;stroke-width:0.5;" x1="442.5" x2="524.5" y1="299.1906" y2="299.1906"/></g><!--class Pista--><g id="elem_Pista"><rect codeLine="20" fill="#F1F1F1" height="96.8906" id="Pista" rx="2.5" ry="2.5" style="stroke:#181818;stroke-width:0.5;" width="96" x="21.5" y="478.78"/><ellipse cx="50.45" cy="494.78" fill="#ADD1B2" rx="11" ry="11" style="stroke:#181818;stroke-width:1.0;"/><path d="M54.5594,500.78 L46.8406,500.78 L46.8406,488.3894 L54.5594,488.3894 L54.5594,490.5456 L49.2938,490.5456 L49.2938,493.2175 L54.0594,493.2175 L54.0594,495.3738 L49.2938,495.3738 L49.2938,498.6238 L54.5594,498.6238 L54.5594,500.78 Z " fill="#000000"/><text fill="#000000" font-family="sans-serif" font-size="14" lengthAdjust="spacing" textLength="33" x="67.55" y="499.6267">Pista</text><line style="stroke:#181818;stroke-width:0.5;" x1="22.5" x2="116.5" y1="510.78" y2="510.78"/><ellipse cx="32.5" cy="524.4284" fill="none" rx="3" ry="3" style="stroke:#038048;stroke-width:1.0;"/><text fill="#000000" font-family="sans-serif" font-size="14" lengthAdjust="spacing" textLength="54" x="41.5" y="527.7751">n&#250;mero</text><ellipse cx="32.5" cy="540.7253" fill="none" rx="3" ry="3" style="stroke:#038048;stroke-width:1.0;"/><text fill="#000000" font-family="sans-serif" font-size="14" lengthAdjust="spacing" textLength="48" x="41.5" y="544.072">horario</text><ellipse cx="32.5" cy="557.0222" fill="none" rx="3" ry="3" style="stroke:#038048;stroke-width:1.0;"/><text fill="#000000" font-family="sans-serif" font-size="14" lengthAdjust="spacing" textLength="70" x="41.5" y="560.3689">capacidad</text><line style="stroke:#181818;stroke-width:0.5;" x1="22.5" x2="116.5" y1="567.6706" y2="567.6706"/></g><!--class Pago--><g id="elem_Pago"><rect codeLine="26" fill="#F1F1F1" height="96.8906" id="Pago" rx="2.5" ry="2.5" style="stroke:#181818;stroke-width:0.5;" width="115" x="232" y="478.78"/><ellipse cx="268.6" cy="494.78" fill="#ADD1B2" rx="11" ry="11" style="stroke:#181818;stroke-width:1.0;"/><path d="M272.7094,500.78 L264.9906,500.78 L264.9906,488.3894 L272.7094,488.3894 L272.7094,490.5456 L267.4438,490.5456 L267.4438,493.2175 L272.2094,493.2175 L272.2094,495.3738 L267.4438,495.3738 L267.4438,498.6238 L272.7094,498.6238 L272.7094,500.78 Z " fill="#000000"/><text fill="#000000" font-family="sans-serif" font-size="14" lengthAdjust="spacing" textLength="35" x="287.4" y="499.6267">Pago</text><line style="stroke:#181818;stroke-width:0.5;" x1="233" x2="346" y1="510.78" y2="510.78"/><ellipse cx="243" cy="524.4284" fill="none" rx="3" ry="3" style="stroke:#038048;stroke-width:1.0;"/><text fill="#000000" font-family="sans-serif" font-size="14" lengthAdjust="spacing" textLength="12" x="252" y="527.7751">id</text><ellipse cx="243" cy="540.7253" fill="none" rx="3" ry="3" style="stroke:#038048;stroke-width:1.0;"/><text fill="#000000" font-family="sans-serif" font-size="14" lengthAdjust="spacing" textLength="89" x="252" y="544.072">metodoPago</text><ellipse cx="243" cy="557.0222" fill="none" rx="3" ry="3" style="stroke:#038048;stroke-width:1.0;"/><text fill="#000000" font-family="sans-serif" font-size="14" lengthAdjust="spacing" textLength="45" x="252" y="560.3689">monto</text><line style="stroke:#181818;stroke-width:0.5;" x1="233" x2="346" y1="567.6706" y2="567.6706"/></g><!--class Bono--><g id="elem_Bono"><rect codeLine="32" fill="#F1F1F1" height="64.2969" id="Bono" rx="2.5" ry="2.5" style="stroke:#181818;stroke-width:0.5;" width="134" x="222.5" y="747.27"/><ellipse cx="266.75" cy="763.27" fill="#ADD1B2" rx="11" ry="11" style="stroke:#181818;stroke-width:1.0;"/><path d="M270.8594,769.27 L263.1406,769.27 L263.1406,756.8794 L270.8594,756.8794 L270.8594,759.0356 L265.5938,759.0356 L265.5938,761.7075 L270.3594,761.7075 L270.3594,763.8638 L265.5938,763.8638 L265.5938,767.1138 L270.8594,767.1138 L270.8594,769.27 Z " fill="#000000"/><text fill="#000000" font-family="sans-serif" font-size="14" lengthAdjust="spacing" textLength="37" x="287.25" y="768.1167">Bono</text><line style="stroke:#181818;stroke-width:0.5;" x1="223.5" x2="355.5" y1="779.27" y2="779.27"/><ellipse cx="233.5" cy="792.9184" fill="none" rx="3" ry="3" style="stroke:#038048;stroke-width:1.0;"/><text fill="#000000" font-family="sans-serif" font-size="14" lengthAdjust="spacing" textLength="108" x="242.5" y="796.2651">horasAbonadas</text><line style="stroke:#181818;stroke-width:0.5;" x1="223.5" x2="355.5" y1="803.5669" y2="803.5669"/></g><!--class Factura--><g id="elem_Factura"><rect codeLine="36" fill="#F1F1F1" height="96.8906" id="Factura" rx="2.5" ry="2.5" style="stroke:#181818;stroke-width:0.5;" width="118" x="452.5" y="730.97"/><ellipse cx="483.25" cy="746.97" fill="#ADD1B2" rx="11" ry="11" style="stroke:#181818;stroke-width:1.0;"/><path d="M487.3594,752.97 L479.6406,752.97 L479.6406,740.5794 L487.3594,740.5794 L487.3594,742.7356 L482.0938,742.7356 L482.0938,745.4075 L486.8594,745.4075 L486.8594,747.5638 L482.0938,747.5638 L482.0938,750.8138 L487.3594,750.8138 L487.3594,752.97 Z " fill="#000000"/><text fill="#000000" font-family="sans-serif" font-size="14" lengthAdjust="spacing" textLength="51" x="500.75" y="751.8167">Factura</text><line style="stroke:#181818;stroke-width:0.5;" x1="453.5" x2="569.5" y1="762.97" y2="762.97"/><ellipse cx="463.5" cy="776.6184" fill="none" rx="3" ry="3" style="stroke:#038048;stroke-width:1.0;"/><text fill="#000000" font-family="sans-serif" font-size="14" lengthAdjust="spacing" textLength="92" x="472.5" y="779.9651">fechaEmision</text><ellipse cx="463.5" cy="792.9153" fill="none" rx="3" ry="3" style="stroke:#038048;stroke-width:1.0;"/><text fill="#000000" font-family="sans-serif" font-size="14" lengthAdjust="spacing" textLength="30" x="472.5" y="796.262">total</text><ellipse cx="463.5" cy="809.2122" fill="none" rx="3" ry="3" style="stroke:#038048;stroke-width:1.0;"/><text fill="#000000" font-family="sans-serif" font-size="14" lengthAdjust="spacing" textLength="48" x="472.5" y="812.5589">estado</text><line style="stroke:#181818;stroke-width:0.5;" x1="453.5" x2="569.5" y1="819.8606" y2="819.8606"/></g><!--class Tarifa--><g id="elem_Tarifa"><rect codeLine="42" fill="#F1F1F1" height="64.2969" id="Tarifa" rx="2.5" ry="2.5" style="stroke:#181818;stroke-width:0.5;" width="101" x="7" y="747.27"/><ellipse cx="36.4" cy="763.27" fill="#ADD1B2" rx="11" ry="11" style="stroke:#181818;stroke-width:1.0;"/><path d="M40.5094,769.27 L32.7906,769.27 L32.7906,756.8794 L40.5094,756.8794 L40.5094,759.0356 L35.2438,759.0356 L35.2438,761.7075 L40.0094,761.7075 L40.0094,763.8638 L35.2438,763.8638 L35.2438,767.1138 L40.5094,767.1138 L40.5094,769.27 Z " fill="#000000"/><text fill="#000000" font-family="sans-serif" font-size="14" lengthAdjust="spacing" textLength="37" x="53.6" y="768.1167">Tarifa</text><line style="stroke:#181818;stroke-width:0.5;" x1="8" x2="107" y1="779.27" y2="779.27"/><ellipse cx="18" cy="792.9184" fill="none" rx="3" ry="3" style="stroke:#038048;stroke-width:1.0;"/><text fill="#000000" font-family="sans-serif" font-size="14" lengthAdjust="spacing" textLength="75" x="27" y="796.2651">precioHora</text><line style="stroke:#181818;stroke-width:0.5;" x1="8" x2="107" y1="803.5669" y2="803.5669"/></g><!--class FechaHora--><g id="elem_FechaHora"><rect codeLine="46" fill="#F1F1F1" height="129.4844" id="FechaHora" rx="2.5" ry="2.5" style="stroke:#181818;stroke-width:0.5;" width="106" x="381.5" y="462.49"/><ellipse cx="396.5" cy="478.49" fill="#ADD1B2" rx="11" ry="11" style="stroke:#181818;stroke-width:1.0;"/><path d="M400.6094,484.49 L392.8906,484.49 L392.8906,472.0994 L400.6094,472.0994 L400.6094,474.2556 L395.3438,474.2556 L395.3438,476.9275 L400.1094,476.9275 L400.1094,479.0838 L395.3438,479.0838 L395.3438,482.3338 L400.6094,482.3338 L400.6094,484.49 Z " fill="#000000"/><text fill="#000000" font-family="sans-serif" font-size="14" lengthAdjust="spacing" textLength="74" x="410.5" y="483.3367">FechaHora</text><line style="stroke:#181818;stroke-width:0.5;" x1="382.5" x2="486.5" y1="494.49" y2="494.49"/><ellipse cx="392.5" cy="508.1384" fill="none" rx="3" ry="3" style="stroke:#038048;stroke-width:1.0;"/><text fill="#000000" font-family="sans-serif" font-size="14" lengthAdjust="spacing" textLength="20" x="401.5" y="511.4851">dia</text><ellipse cx="392.5" cy="524.4353" fill="none" rx="3" ry="3" style="stroke:#038048;stroke-width:1.0;"/><text fill="#000000" font-family="sans-serif" font-size="14" lengthAdjust="spacing" textLength="30" x="401.5" y="527.782">mes</text><ellipse cx="392.5" cy="540.7322" fill="none" rx="3" ry="3" style="stroke:#038048;stroke-width:1.0;"/><text fill="#000000" font-family="sans-serif" font-size="14" lengthAdjust="spacing" textLength="26" x="401.5" y="544.0789">a&#241;o</text><ellipse cx="392.5" cy="557.0291" fill="none" rx="3" ry="3" style="stroke:#038048;stroke-width:1.0;"/><text fill="#000000" font-family="sans-serif" font-size="14" lengthAdjust="spacing" textLength="31" x="401.5" y="560.3757">hora</text><ellipse cx="392.5" cy="573.3259" fill="none" rx="3" ry="3" style="stroke:#038048;stroke-width:1.0;"/><text fill="#000000" font-family="sans-serif" font-size="14" lengthAdjust="spacing" textLength="56" x="401.5" y="576.6726">minutos</text><line style="stroke:#181818;stroke-width:0.5;" x1="382.5" x2="486.5" y1="583.9744" y2="583.9744"/></g><!--class SistemaDeReservas--><g id="elem_SistemaDeReservas"><rect fill="#F1F1F1" height="48" id="SistemaDeReservas" rx="2.5" ry="2.5" style="stroke:#181818;stroke-width:0.5;" width="171" x="300" y="7"/><ellipse cx="315" cy="23" fill="#ADD1B2" rx="11" ry="11" style="stroke:#181818;stroke-width:1.0;"/><path d="M317.9688,28.6406 Q317.3906,28.9375 316.75,29.0781 Q316.1094,29.2344 315.4063,29.2344 Q312.9063,29.2344 311.5781,27.5938 Q310.2656,25.9375 310.2656,22.8125 Q310.2656,19.6875 311.5781,18.0313 Q312.9063,16.375 315.4063,16.375 Q316.1094,16.375 316.75,16.5313 Q317.4063,16.6875 317.9688,16.9844 L317.9688,19.7031 Q317.3438,19.125 316.75,18.8594 Q316.1563,18.5781 315.5313,18.5781 Q314.1875,18.5781 313.5,19.6563 Q312.8125,20.7188 312.8125,22.8125 Q312.8125,24.9063 313.5,25.9844 Q314.1875,27.0469 315.5313,27.0469 Q316.1563,27.0469 316.75,26.7813 Q317.3438,26.5 317.9688,25.9219 L317.9688,28.6406 Z " fill="#000000"/><text fill="#000000" font-family="sans-serif" font-size="14" lengthAdjust="spacing" textLength="139" x="329" y="27.8467">SistemaDeReservas</text><line style="stroke:#181818;stroke-width:0.5;" x1="301" x2="470" y1="39" y2="39"/><line style="stroke:#181818;stroke-width:0.5;" x1="301" x2="470" y1="47" y2="47"/></g><!--link SistemaDeReservas to Reserva--><g id="link_SistemaDeReservas_Reserva"><path codeLine="54" d="M375.59,55.31 C361.84,87.64 336.45,147.33 316.8,193.55 " fill="none" id="SistemaDeReservas-Reserva" style="stroke:#181818;stroke-width:1.0;"/><text fill="#000000" font-family="sans-serif" font-size="13" lengthAdjust="spacing" textLength="57" x="350.5" y="129.0669">Gestiona</text></g><!--link SistemaDeReservas to Usuario--><g id="link_SistemaDeReservas_Usuario"><path codeLine="55" d="M395.62,55.31 C411.41,91.69 442.26,162.74 462.87,210.23 " fill="none" id="SistemaDeReservas-Usuario" style="stroke:#181818;stroke-width:1.0;stroke-dasharray:7.0,7.0;"/><polygon fill="#000000" points="436.491,129.1529,435.5851,119.6856,430.1934,122.0261,436.491,129.1529" style="stroke:#000000;stroke-width:1.0;"/><text fill="#000000" font-family="sans-serif" font-size="13" lengthAdjust="spacing" textLength="91" x="443.5" y="129.0669">Crea y elimina</text></g><!--link Reserva to Usuario--><g id="link_Reserva_Usuario"><path codeLine="56" d="M349.82,258.74 C379.41,258.74 414.33,258.74 441.06,258.74 " fill="none" id="Reserva-Usuario" style="stroke:#181818;stroke-width:1.0;"/><polygon fill="#000000" points="367,247.3064,376.0451,250.2453,376.0451,244.3675,367,247.3064" style="stroke:#000000;stroke-width:1.0;"/><text fill="#000000" font-family="sans-serif" font-size="13" lengthAdjust="spacing" textLength="42" x="381" y="251.8069">realiza</text></g><!--link Reserva to Pago--><g id="link_Reserva_Pago"><path codeLine="57" d="M289.5,323.91 C289.5,371.5 289.5,435.34 289.5,478.48 " fill="none" id="Reserva-Pago" style="stroke:#181818;stroke-width:1.0;"/><text fill="#000000" font-family="sans-serif" font-size="13" lengthAdjust="spacing" textLength="53" x="290.5" y="397.5569">requiere</text></g><!--link Reserva to Pista--><g id="link_Reserva_Pista"><path codeLine="58" d="M229.15,315.26 C207.78,336.11 184.17,360.57 164.5,384.49 C140.13,414.11 116.1,450.03 98.31,478.3 " fill="none" id="Reserva-Pista" style="stroke:#181818;stroke-width:1.0;"/><text fill="#000000" font-family="sans-serif" font-size="13" lengthAdjust="spacing" textLength="115" x="165.5" y="397.5569">se lleva a cabo en</text></g><!--link Pista to Tarifa--><g id="link_Pista_Tarifa"><path codeLine="59" d="M67.2,576.17 C64.79,626.4 61.08,703.85 59.01,746.87 " fill="none" id="Pista-Tarifa" style="stroke:#181818;stroke-width:1.0;"/><text fill="#000000" font-family="sans-serif" font-size="13" lengthAdjust="spacing" textLength="160" x="64.5" y="666.0369">se fija el precio mediante</text></g><!--link Reserva to FechaHora--><g id="link_Reserva_FechaHora"><path codeLine="60" d="M324.42,323.91 C347.21,365.8 376.85,420.28 399.64,462.15 " fill="none" id="Reserva-FechaHora" style="stroke:#181818;stroke-width:1.0;"/><text fill="#000000" font-family="sans-serif" font-size="13" lengthAdjust="spacing" textLength="82" x="365.5" y="397.5569">Fecha y hora</text></g><!--link Pago to Factura--><g id="link_Pago_Factura"><path codeLine="61" d="M344.78,576.08 C351.36,581.52 358.04,586.92 364.5,591.97 C401.14,620.61 419.41,617.52 449.5,652.97 C468.91,675.85 484.02,705.84 494.47,730.77 " fill="none" id="Pago-Factura" style="stroke:#181818;stroke-width:1.0;"/><text fill="#000000" font-family="sans-serif" font-size="13" lengthAdjust="spacing" textLength="75" x="463.5" y="666.0369">Que genera</text></g><!--link Pago to Bono--><g id="link_Pago_Bono"><path codeLine="62" d="M289.5,576.17 C289.5,626.4 289.5,703.85 289.5,746.87 " fill="none" id="Pago-Bono" style="stroke:#181818;stroke-width:1.0;"/><polygon fill="#000000" points="294.5,656.5364,291.5611,665.5815,297.4389,665.5815,294.5,656.5364" style="stroke:#000000;stroke-width:1.0;"/><text fill="#000000" font-family="sans-serif" font-size="13" lengthAdjust="spacing" textLength="137" x="303.5" y="666.0369">Puede efectuarse por</text></g><!--SRC=[RL9BJiGm3Dtd5Dx3p04gXCIVvV0xWATn6QCq7f8K2H27OikMY-4aRTMHMDMDxUVdzqm-SNg7UueKtX0-3S0Hx3acB557xQv6Emari1ptuddBZYtQyiHsWyzYlepnaWWSTGcacq0DN3c82aazGXi8Zy50YxubX_0E_K0n1TGtSh3JCWcC3Yn1gFrnhIbl8MCRGvNmKnmmi8o4lVJRG2NK8UnAb4Y9YC-yngPDtcjg-VtfASYycuALkCKzjcMphtbOtcviuxfnJqcibAtBh_WaYuPp7JisPEnujXMF5kEYv1hRD8I9JT7vgkV8uYjvILZNK7NGBi4VbMitMnMePRdDvYomCrf-6uiiuyWwbY_-VikXgJtx8KdXzr2TkgJHlWYhrMhoie4RvQCayP-wzNgsfO5Jk52hrLzohEXefjGgdyS2y5HzHiSVQAOZpFEoj8rcNWScTVOWbLri8EgXET8tFIhSYfw8gVxccgfHAUhu1VDfLQLK0rN3fqF8MR2cXagxI5ECBmNLhGRk1e9dyfGFTiuMkniuWSr0UhUaRYPTLeVl9Vm1]--></g></svg>