<?xml version="1.0" encoding="us-ascii" standalone="no"?><svg xmlns="http://www.w3.org/2000/svg" xmlns:xlink="http://www.w3.org/1999/xlink" contentStyleType="text/css" height="707px" preserveAspectRatio="none" style="width:691px;height:707px;background:#FFFFFF;" version="1.1" viewBox="0 0 691 707" width="691px" zoomAndPan="magnify"><defs/><g><ellipse cx="547.5" cy="128.13" fill="#222222" rx="10" ry="10" style="stroke:#222222;stroke-width:1.0;"/><rect fill="#F1F1F1" height="40" rx="12.5" ry="12.5" style="stroke:#181818;stroke-width:0.5;" width="98" x="367.5" y="225.13"/><text fill="#000000" font-family="sans-serif" font-size="14" lengthAdjust="spacing" textLength="88" x="372.5" y="249.9767">NoLogueado</text><rect fill="#F1F1F1" height="40" rx="12.5" ry="12.5" style="stroke:#181818;stroke-width:0.5;" width="97" x="420" y="342.13"/><text fill="#000000" font-family="sans-serif" font-size="14" lengthAdjust="spacing" textLength="87" x="425" y="366.9767">CrearCuenta</text><rect fill="#F1F1F1" height="40" rx="12.5" ry="12.5" style="stroke:#181818;stroke-width:0.5;" width="102" x="417.5" y="443.13"/><text fill="#000000" font-family="sans-serif" font-size="14" lengthAdjust="spacing" textLength="92" x="422.5" y="467.9767">IngresaDatos</text><rect fill="#F1F1F1" height="40" rx="12.5" ry="12.5" style="stroke:#181818;stroke-width:0.5;" width="91" x="423" y="544.13"/><text fill="#000000" font-family="sans-serif" font-size="14" lengthAdjust="spacing" textLength="81" x="428" y="568.9767">ValidaDatos</text><rect fill="#F1F1F1" height="40" rx="12.5" ry="12.5" style="stroke:#181818;stroke-width:0.5;" width="109" x="339" y="661.13"/><text fill="#000000" font-family="sans-serif" font-size="14" lengthAdjust="spacing" textLength="99" x="344" y="685.9767">CuentaCreada</text><rect fill="#F1F1F1" height="40" rx="12.5" ry="12.5" style="stroke:#181818;stroke-width:0.5;" width="156" x="247.5" y="7"/><text fill="#000000" font-family="sans-serif" font-size="14" lengthAdjust="spacing" textLength="146" x="252.5" y="31.8467">IngresarCredenciales</text><g id="elem_GMN17"><path d="M438.5,6.86 L438.5,23 L403.86,27 L438.5,31 L438.5,47.1256 A0,0 0 0 0 438.5,47.1256 L684.5,47.1256 A0,0 0 0 0 684.5,47.1256 L684.5,16.86 L674.5,6.86 L438.5,6.86 A0,0 0 0 0 438.5,6.86 " fill="#FEFFDD" style="stroke:#181818;stroke-width:0.5;"/><path d="M674.5,6.86 L674.5,16.86 L684.5,16.86 L674.5,6.86 " fill="#FEFFDD" style="stroke:#181818;stroke-width:0.5;"/><text fill="#000000" font-family="sans-serif" font-size="13" lengthAdjust="spacing" textLength="225" x="444.5" y="23.9269">correo (@alumnos.uneatlantico.es)</text><text fill="#000000" font-family="sans-serif" font-size="13" lengthAdjust="spacing" textLength="83" x="444.5" y="39.0597">y contrase&#241;a</text></g><rect fill="#F1F1F1" height="40" rx="12.5" ry="12.5" style="stroke:#181818;stroke-width:0.5;" width="145" x="162" y="108.13"/><text fill="#000000" font-family="sans-serif" font-size="14" lengthAdjust="spacing" textLength="135" x="167" y="132.9767">ValidarCredenciales</text><rect fill="#F1F1F1" height="40" rx="12.5" ry="12.5" style="stroke:#181818;stroke-width:0.5;" width="79" x="7" y="225.13"/><text fill="#000000" font-family="sans-serif" font-size="14" lengthAdjust="spacing" textLength="69" x="12" y="249.9767">Logueado</text><rect fill="#F1F1F1" height="40" rx="12.5" ry="12.5" style="stroke:#181818;stroke-width:0.5;" width="65" x="14" y="342.13"/><text fill="#000000" font-family="sans-serif" font-size="14" lengthAdjust="spacing" textLength="55" x="19" y="366.9767">Sistema</text><ellipse cx="46.5" cy="463.13" fill="none" rx="11" ry="11" style="stroke:#222222;stroke-width:1.0;"/><ellipse cx="46.5" cy="463.13" fill="#222222" rx="6" ry="6" style="stroke:#222222;stroke-width:1.0;"/><!--link *start* to NoLogueado--><g id="link_*start*_NoLogueado"><path d="M540.46,135.31 C521.48,151.97 473.2083,194.3408 442.9983,220.8708 " fill="none" id="*start*-to-NoLogueado" style="stroke:#181818;stroke-width:1.0;"/><polygon fill="#181818" points="438.49,224.83,447.8919,221.8968,442.2469,221.5307,442.6131,215.8857,438.49,224.83" style="stroke:#181818;stroke-width:1.0;"/></g><!--link NoLogueado to CrearCuenta--><g id="link_NoLogueado_CrearCuenta"><path d="M425.2,265.38 C434.8,286.61 447.6877,315.1031 457.2977,336.3531 " fill="none" id="NoLogueado-to-CrearCuenta" style="stroke:#181818;stroke-width:1.0;"/><polygon fill="#181818" points="459.77,341.82,459.7061,331.9713,457.7097,337.2642,452.4168,335.2678,459.77,341.82" style="stroke:#181818;stroke-width:1.0;"/><text fill="#000000" font-family="sans-serif" font-size="13" lengthAdjust="spacing" textLength="102" x="446.5" y="308.1969">No tiene cuenta</text></g><!--link CrearCuenta to IngresaDatos--><g id="link_CrearCuenta_IngresaDatos"><path d="M468.5,382.22 C468.5,399.64 468.5,419.26 468.5,436.76 " fill="none" id="CrearCuenta-to-IngresaDatos" style="stroke:#181818;stroke-width:1.0;"/><polygon fill="#181818" points="468.5,442.76,472.5,433.76,468.5,437.76,464.5,433.76,468.5,442.76" style="stroke:#181818;stroke-width:1.0;"/></g><!--link IngresaDatos to ValidaDatos--><g id="link_IngresaDatos_ValidaDatos"><path d="M468.5,483.22 C468.5,500.64 468.5,520.26 468.5,537.76 " fill="none" id="IngresaDatos-to-ValidaDatos" style="stroke:#181818;stroke-width:1.0;"/><polygon fill="#181818" points="468.5,543.76,472.5,534.76,468.5,538.76,464.5,534.76,468.5,543.76" style="stroke:#181818;stroke-width:1.0;"/></g><!--link ValidaDatos to CuentaCreada--><g id="link_ValidaDatos_CuentaCreada"><path d="M455.95,584.38 C442.1,605.61 423.2395,634.5456 409.3695,655.7956 " fill="none" id="ValidaDatos-to-CuentaCreada" style="stroke:#181818;stroke-width:1.0;"/><polygon fill="#181818" points="406.09,660.82,414.3588,655.4697,408.8229,656.633,407.6596,651.097,406.09,660.82" style="stroke:#181818;stroke-width:1.0;"/><text fill="#000000" font-family="sans-serif" font-size="13" lengthAdjust="spacing" textLength="88" x="435.5" y="627.1969">Datos V&#225;lidos</text></g><!--link ValidaDatos to CrearCuenta--><g id="link_ValidaDatos_CrearCuenta"><path d="M492.31,543.88 C508.47,529.18 528.49,507.37 537.5,483.13 C543.69,466.47 543.69,459.79 537.5,443.13 C528.49,418.89 512.9084,401.1174 496.7484,386.4174 " fill="none" id="ValidaDatos-to-CrearCuenta" style="stroke:#181818;stroke-width:1.0;"/><polygon fill="#181818" points="492.31,382.38,496.276,391.395,496.0087,385.7445,501.6592,385.4772,492.31,382.38" style="stroke:#181818;stroke-width:1.0;"/><text fill="#000000" font-family="sans-serif" font-size="13" lengthAdjust="spacing" textLength="97" x="542.5" y="467.6969">Datos Inv&#225;lidos</text></g><!--link CuentaCreada to NoLogueado--><g id="link_CuentaCreada_NoLogueado"><path d="M385.58,660.97 C376.99,638.44 364.5,599.72 364.5,565.13 C364.5,361.13 364.5,361.13 364.5,361.13 C364.5,324.76 382.9128,292.1109 398.2928,270.2009 " fill="none" id="CuentaCreada-to-NoLogueado" style="stroke:#181818;stroke-width:1.0;"/><polygon fill="#181818" points="401.74,265.29,393.2952,270.3581,398.8673,269.3824,399.843,274.9544,401.74,265.29" style="stroke:#181818;stroke-width:1.0;"/></g><!--link NoLogueado to IngresarCredenciales--><g id="link_NoLogueado_IngresarCredenciales"><path d="M410.69,224.87 C406.54,211.6 400.62,193.63 394.5,178.13 C375.53,130.11 351.7842,80.766 337.7842,52.516 " fill="none" id="NoLogueado-to-IngresarCredenciales" style="stroke:#181818;stroke-width:1.0;"/><polygon fill="#181818" points="335.12,47.14,335.5323,56.9802,337.3402,51.62,342.7004,53.4279,335.12,47.14" style="stroke:#181818;stroke-width:1.0;"/><text fill="#000000" font-family="sans-serif" font-size="13" lengthAdjust="spacing" textLength="84" x="382.5" y="132.6969">Tiene Cuenta</text></g><!--link IngresarCredenciales to ValidarCredenciales--><g id="link_IngresarCredenciales_ValidarCredenciales"><path d="M307.95,47.11 C291.94,64.55 272.4472,85.7897 256.3572,103.3197 " fill="none" id="IngresarCredenciales-to-ValidarCredenciales" style="stroke:#181818;stroke-width:1.0;"/><polygon fill="#181818" points="252.3,107.74,261.3327,103.8143,255.681,104.0564,255.4389,98.4047,252.3,107.74" style="stroke:#181818;stroke-width:1.0;"/></g><!--link ValidarCredenciales to NoLogueado--><g id="link_ValidarCredenciales_NoLogueado"><path d="M227.5,148.46 C223.63,162.79 221.43,182.04 231.5,195.13 C247.96,216.52 312.1365,229.609 361.1465,236.969 " fill="none" id="ValidarCredenciales-to-NoLogueado" style="stroke:#181818;stroke-width:1.0;"/><polygon fill="#181818" points="367.08,237.86,358.7738,232.5678,362.1354,237.1175,357.5858,240.4791,367.08,237.86" style="stroke:#181818;stroke-width:1.0;"/><text fill="#000000" font-family="sans-serif" font-size="13" lengthAdjust="spacing" textLength="157" x="232.5" y="191.1969">Credenciales incorrectas</text></g><!--link ValidarCredenciales to Logueado--><g id="link_ValidarCredenciales_Logueado"><path d="M161.52,135.5 C129.38,141.8 93.36,154.12 68.5,178.13 C55.82,190.38 51.3551,204.1902 49.0851,218.9002 " fill="none" id="ValidarCredenciales-to-Logueado" style="stroke:#181818;stroke-width:1.0;"/><polygon fill="#181818" points="48.17,224.83,53.4958,216.5453,48.9326,219.8885,45.5894,215.3252,48.17,224.83" style="stroke:#181818;stroke-width:1.0;"/><text fill="#000000" font-family="sans-serif" font-size="13" lengthAdjust="spacing" textLength="146" x="69.5" y="191.1969">Credenciales correctas</text></g><!--link Logueado to Sistema--><g id="link_Logueado_Sistema"><path d="M46.5,265.38 C46.5,286.61 46.5,314.57 46.5,335.82 " fill="none" id="Logueado-to-Sistema" style="stroke:#181818;stroke-width:1.0;"/><polygon fill="#181818" points="46.5,341.82,50.5,332.82,46.5,336.82,42.5,332.82,46.5,341.82" style="stroke:#181818;stroke-width:1.0;"/><text fill="#000000" font-family="sans-serif" font-size="13" lengthAdjust="spacing" textLength="122" x="47.5" y="308.1969">Acceder al sistema</text></g><!--link Sistema to *end*--><g id="link_Sistema_*end*"><path d="M46.5,382.22 C46.5,403.01 46.5,429.48 46.5,445.9 " fill="none" id="Sistema-to-*end*" style="stroke:#181818;stroke-width:1.0;"/><polygon fill="#181818" points="46.5,451.9,50.5,442.9,46.5,446.9,42.5,442.9,46.5,451.9" style="stroke:#181818;stroke-width:1.0;"/></g><!--SRC=[VL9BJWCn3Dtd55u2Kdi05WXKDfKG6r0tY8MLc6ca6RjAF4Wz3aVW3BqO-RIQYJHbvxpt_FniPUyT0Gq7FOAZQ8C_g1Ss7tUVi5ezmAkyI3SIEZ5JMPXD80oRaLWHxfCEr1CJs8AOEPlLM-u2HNn6bMZcZyBkiFVkJCxgEgUOP3-N1rLYT_f9gYLrawhYM_w-o1kp__SxXmn9x8YjnvvYidmlMrOVmw84mNTx1VbQx31W9GGIk7d4VXnOudfaGksHrLjPKxmrS4mYre2HJhzeY1raOxEOO3fNYvibiDqmfMzOpoMRLOnNkw_rJftDqTvyL1howP-iJV80s4EieBcGMPZ-rny0]--></g></svg>