<?xml version="1.0" encoding="us-ascii" standalone="no"?><svg xmlns="http://www.w3.org/2000/svg" xmlns:xlink="http://www.w3.org/1999/xlink" contentStyleType="text/css" height="547px" preserveAspectRatio="none" style="width:1083px;height:547px;background:#FFFFFF;" version="1.1" viewBox="0 0 1083 547" width="1083px" zoomAndPan="magnify"><defs/><g><!--class Usuario--><g id="elem_Usuario"><rect codeLine="1" fill="#F1F1F1" height="96.8906" id="Usuario" rx="2.5" ry="2.5" style="stroke:#181818;stroke-width:0.5;" width="444" x="278.5" y="444"/><ellipse cx="470.75" cy="460" fill="#ADD1B2" rx="11" ry="11" style="stroke:#181818;stroke-width:1.0;"/><path d="M473.0938,455.6719 C472.1563,455.2344 471.5625,455.0938 470.6875,455.0938 C468.0625,455.0938 466.0625,457.1719 466.0625,459.8906 L466.0625,461.0156 C466.0625,463.5938 468.1719,465.4844 471.0625,465.4844 C472.2813,465.4844 473.4375,465.1875 474.1875,464.6406 C474.7656,464.2344 475.0938,463.7813 475.0938,463.3906 C475.0938,462.9375 474.7031,462.5469 474.2344,462.5469 C474.0156,462.5469 473.8125,462.625 473.625,462.8125 C473.1719,463.2969 473.1719,463.2969 472.9844,463.3906 C472.5625,463.6563 471.875,463.7813 471.1094,463.7813 C469.0625,463.7813 467.7656,462.6875 467.7656,460.9844 L467.7656,459.8906 C467.7656,458.1094 469.0156,456.7969 470.75,456.7969 C471.3281,456.7969 471.9375,456.9531 472.4063,457.2031 C472.8906,457.4844 473.0625,457.7031 473.1563,458.1094 C473.2188,458.5156 473.25,458.6406 473.3906,458.7656 C473.5313,458.9063 473.7656,459.0156 473.9844,459.0156 C474.25,459.0156 474.5156,458.875 474.6875,458.6563 C474.7969,458.5 474.8281,458.3125 474.8281,457.8906 L474.8281,456.4688 C474.8281,456.0313 474.8125,455.9063 474.7188,455.75 C474.5625,455.4844 474.2813,455.3438 473.9844,455.3438 C473.6875,455.3438 473.4844,455.4375 473.2656,455.75 L473.0938,455.6719 Z " fill="#000000"/><text fill="#000000" font-family="sans-serif" font-size="14" lengthAdjust="spacing" textLength="51" x="491.25" y="464.8467">Usuario</text><line style="stroke:#181818;stroke-width:0.5;" x1="279.5" x2="721.5" y1="476" y2="476"/><rect fill="none" height="6" style="stroke:#C82930;stroke-width:1.0;" width="6" x="286.5" y="486.6484"/><text fill="#000000" font-family="sans-serif" font-size="14" lengthAdjust="spacing" textLength="78" x="298.5" y="492.9951">DNI: String</text><rect fill="none" height="6" style="stroke:#C82930;stroke-width:1.0;" width="6" x="286.5" y="502.9453"/><text fill="#000000" font-family="sans-serif" font-size="14" lengthAdjust="spacing" textLength="133" x="298.5" y="509.292">contrase&#241;a: String</text><line style="stroke:#181818;stroke-width:0.5;" x1="279.5" x2="721.5" y1="516.5938" y2="516.5938"/><ellipse cx="289.5" cy="530.2422" fill="#84BE84" rx="3" ry="3" style="stroke:#038048;stroke-width:1.0;"/><text fill="#000000" font-family="sans-serif" font-size="14" lengthAdjust="spacing" textLength="418" x="298.5" y="533.5889">ingresarCredenciales(DNI: String, contrase&#241;a: String): void</text></g><!--class SistemaAutenticacion--><g id="elem_SistemaAutenticacion"><rect codeLine="7" fill="#F1F1F1" height="64.2969" id="SistemaAutenticacion" rx="2.5" ry="2.5" style="stroke:#181818;stroke-width:0.5;" width="287" x="9" y="7"/><ellipse cx="69.25" cy="23" fill="#ADD1B2" rx="11" ry="11" style="stroke:#181818;stroke-width:1.0;"/><path d="M71.5938,18.6719 C70.6563,18.2344 70.0625,18.0938 69.1875,18.0938 C66.5625,18.0938 64.5625,20.1719 64.5625,22.8906 L64.5625,24.0156 C64.5625,26.5938 66.6719,28.4844 69.5625,28.4844 C70.7813,28.4844 71.9375,28.1875 72.6875,27.6406 C73.2656,27.2344 73.5938,26.7813 73.5938,26.3906 C73.5938,25.9375 73.2031,25.5469 72.7344,25.5469 C72.5156,25.5469 72.3125,25.625 72.125,25.8125 C71.6719,26.2969 71.6719,26.2969 71.4844,26.3906 C71.0625,26.6563 70.375,26.7813 69.6094,26.7813 C67.5625,26.7813 66.2656,25.6875 66.2656,23.9844 L66.2656,22.8906 C66.2656,21.1094 67.5156,19.7969 69.25,19.7969 C69.8281,19.7969 70.4375,19.9531 70.9063,20.2031 C71.3906,20.4844 71.5625,20.7031 71.6563,21.1094 C71.7188,21.5156 71.75,21.6406 71.8906,21.7656 C72.0313,21.9063 72.2656,22.0156 72.4844,22.0156 C72.75,22.0156 73.0156,21.875 73.1875,21.6563 C73.2969,21.5 73.3281,21.3125 73.3281,20.8906 L73.3281,19.4688 C73.3281,19.0313 73.3125,18.9063 73.2188,18.75 C73.0625,18.4844 72.7813,18.3438 72.4844,18.3438 C72.1875,18.3438 71.9844,18.4375 71.7656,18.75 L71.5938,18.6719 Z " fill="#000000"/><text fill="#000000" font-family="sans-serif" font-size="14" lengthAdjust="spacing" textLength="158" x="89.75" y="27.8467">SistemaAutenticacion</text><line style="stroke:#181818;stroke-width:0.5;" x1="10" x2="295" y1="39" y2="39"/><line style="stroke:#181818;stroke-width:0.5;" x1="10" x2="295" y1="47" y2="47"/><ellipse cx="20" cy="60.6484" fill="#84BE84" rx="3" ry="3" style="stroke:#038048;stroke-width:1.0;"/><text fill="#000000" font-family="sans-serif" font-size="14" lengthAdjust="spacing" textLength="261" x="29" y="63.9951">autenticar(usuario: Usuario): boolean</text></g><!--class PaginaWeb--><g id="elem_PaginaWeb"><rect codeLine="11" fill="#F1F1F1" height="64.2969" id="PaginaWeb" rx="2.5" ry="2.5" style="stroke:#181818;stroke-width:0.5;" width="241" x="331" y="7"/><ellipse cx="407.25" cy="23" fill="#ADD1B2" rx="11" ry="11" style="stroke:#181818;stroke-width:1.0;"/><path d="M409.5938,18.6719 C408.6563,18.2344 408.0625,18.0938 407.1875,18.0938 C404.5625,18.0938 402.5625,20.1719 402.5625,22.8906 L402.5625,24.0156 C402.5625,26.5938 404.6719,28.4844 407.5625,28.4844 C408.7813,28.4844 409.9375,28.1875 410.6875,27.6406 C411.2656,27.2344 411.5938,26.7813 411.5938,26.3906 C411.5938,25.9375 411.2031,25.5469 410.7344,25.5469 C410.5156,25.5469 410.3125,25.625 410.125,25.8125 C409.6719,26.2969 409.6719,26.2969 409.4844,26.3906 C409.0625,26.6563 408.375,26.7813 407.6094,26.7813 C405.5625,26.7813 404.2656,25.6875 404.2656,23.9844 L404.2656,22.8906 C404.2656,21.1094 405.5156,19.7969 407.25,19.7969 C407.8281,19.7969 408.4375,19.9531 408.9063,20.2031 C409.3906,20.4844 409.5625,20.7031 409.6563,21.1094 C409.7188,21.5156 409.75,21.6406 409.8906,21.7656 C410.0313,21.9063 410.2656,22.0156 410.4844,22.0156 C410.75,22.0156 411.0156,21.875 411.1875,21.6563 C411.2969,21.5 411.3281,21.3125 411.3281,20.8906 L411.3281,19.4688 C411.3281,19.0313 411.3125,18.9063 411.2188,18.75 C411.0625,18.4844 410.7813,18.3438 410.4844,18.3438 C410.1875,18.3438 409.9844,18.4375 409.7656,18.75 L409.5938,18.6719 Z " fill="#000000"/><text fill="#000000" font-family="sans-serif" font-size="14" lengthAdjust="spacing" textLength="80" x="427.75" y="27.8467">PaginaWeb</text><line style="stroke:#181818;stroke-width:0.5;" x1="332" x2="571" y1="39" y2="39"/><line style="stroke:#181818;stroke-width:0.5;" x1="332" x2="571" y1="47" y2="47"/><ellipse cx="342" cy="60.6484" fill="#84BE84" rx="3" ry="3" style="stroke:#038048;stroke-width:1.0;"/><text fill="#000000" font-family="sans-serif" font-size="14" lengthAdjust="spacing" textLength="215" x="351" y="63.9951">mostrarPaginaPrincipal(): void</text></g><!--class BaseDeDatos--><g id="elem_BaseDeDatos"><rect codeLine="15" fill="#F1F1F1" height="80.5938" id="BaseDeDatos" rx="2.5" ry="2.5" style="stroke:#181818;stroke-width:0.5;" width="291" x="7" y="148"/><ellipse cx="100.25" cy="164" fill="#ADD1B2" rx="11" ry="11" style="stroke:#181818;stroke-width:1.0;"/><path d="M102.5938,159.6719 C101.6563,159.2344 101.0625,159.0938 100.1875,159.0938 C97.5625,159.0938 95.5625,161.1719 95.5625,163.8906 L95.5625,165.0156 C95.5625,167.5938 97.6719,169.4844 100.5625,169.4844 C101.7813,169.4844 102.9375,169.1875 103.6875,168.6406 C104.2656,168.2344 104.5938,167.7813 104.5938,167.3906 C104.5938,166.9375 104.2031,166.5469 103.7344,166.5469 C103.5156,166.5469 103.3125,166.625 103.125,166.8125 C102.6719,167.2969 102.6719,167.2969 102.4844,167.3906 C102.0625,167.6563 101.375,167.7813 100.6094,167.7813 C98.5625,167.7813 97.2656,166.6875 97.2656,164.9844 L97.2656,163.8906 C97.2656,162.1094 98.5156,160.7969 100.25,160.7969 C100.8281,160.7969 101.4375,160.9531 101.9063,161.2031 C102.3906,161.4844 102.5625,161.7031 102.6563,162.1094 C102.7188,162.5156 102.75,162.6406 102.8906,162.7656 C103.0313,162.9063 103.2656,163.0156 103.4844,163.0156 C103.75,163.0156 104.0156,162.875 104.1875,162.6563 C104.2969,162.5 104.3281,162.3125 104.3281,161.8906 L104.3281,160.4688 C104.3281,160.0313 104.3125,159.9063 104.2188,159.75 C104.0625,159.4844 103.7813,159.3438 103.4844,159.3438 C103.1875,159.3438 102.9844,159.4375 102.7656,159.75 L102.5938,159.6719 Z " fill="#000000"/><text fill="#000000" font-family="sans-serif" font-size="14" lengthAdjust="spacing" textLength="96" x="120.75" y="168.8467">BaseDeDatos</text><line style="stroke:#181818;stroke-width:0.5;" x1="8" x2="297" y1="180" y2="180"/><rect fill="none" height="6" style="stroke:#C82930;stroke-width:1.0;" width="6" x="15" y="190.6484"/><text fill="#000000" font-family="sans-serif" font-size="14" lengthAdjust="spacing" textLength="249" x="27" y="196.9951">usuariosRegistrados: Set&lt;Usuario&gt;</text><line style="stroke:#181818;stroke-width:0.5;" x1="8" x2="297" y1="204.2969" y2="204.2969"/><ellipse cx="18" cy="217.9453" fill="#84BE84" rx="3" ry="3" style="stroke:#038048;stroke-width:1.0;"/><text fill="#000000" font-family="sans-serif" font-size="14" lengthAdjust="spacing" textLength="265" x="27" y="221.292">agregarUsuario(usuario: Usuario): void</text></g><g id="elem_Usuario1"><rect fill="#F1F1F1" height="60.8906" style="stroke:#181818;stroke-width:0.5;" width="231" x="385" y="306"/><text fill="#000000" font-family="sans-serif" font-size="14" lengthAdjust="spacing" textLength="60" x="470.5" y="320.9951">Usuario1</text><line style="stroke:#181818;stroke-width:0.5;" x1="386" x2="615" y1="326.2969" y2="326.2969"/><text fill="#000000" font-family="sans-serif" font-size="14" lengthAdjust="spacing" textLength="139" x="391" y="343.292">DNI= "12345678-R"</text><text fill="#000000" font-family="sans-serif" font-size="14" lengthAdjust="spacing" textLength="219" x="391" y="359.5889">contrase&#241;a = "contrase&#241;a123"</text></g><!--class Sistema--><g id="elem_Sistema"><rect fill="#F1F1F1" height="64.2969" id="Sistema" rx="2.5" ry="2.5" style="stroke:#181818;stroke-width:0.5;" width="170" x="642.5" y="7"/><ellipse cx="694.25" cy="23" fill="#ADD1B2" rx="11" ry="11" style="stroke:#181818;stroke-width:1.0;"/><path d="M696.5938,18.6719 C695.6563,18.2344 695.0625,18.0938 694.1875,18.0938 C691.5625,18.0938 689.5625,20.1719 689.5625,22.8906 L689.5625,24.0156 C689.5625,26.5938 691.6719,28.4844 694.5625,28.4844 C695.7813,28.4844 696.9375,28.1875 697.6875,27.6406 C698.2656,27.2344 698.5938,26.7813 698.5938,26.3906 C698.5938,25.9375 698.2031,25.5469 697.7344,25.5469 C697.5156,25.5469 697.3125,25.625 697.125,25.8125 C696.6719,26.2969 696.6719,26.2969 696.4844,26.3906 C696.0625,26.6563 695.375,26.7813 694.6094,26.7813 C692.5625,26.7813 691.2656,25.6875 691.2656,23.9844 L691.2656,22.8906 C691.2656,21.1094 692.5156,19.7969 694.25,19.7969 C694.8281,19.7969 695.4375,19.9531 695.9063,20.2031 C696.3906,20.4844 696.5625,20.7031 696.6563,21.1094 C696.7188,21.5156 696.75,21.6406 696.8906,21.7656 C697.0313,21.9063 697.2656,22.0156 697.4844,22.0156 C697.75,22.0156 698.0156,21.875 698.1875,21.6563 C698.2969,21.5 698.3281,21.3125 698.3281,20.8906 L698.3281,19.4688 C698.3281,19.0313 698.3125,18.9063 698.2188,18.75 C698.0625,18.4844 697.7813,18.3438 697.4844,18.3438 C697.1875,18.3438 696.9844,18.4375 696.7656,18.75 L696.5938,18.6719 Z " fill="#000000"/><text fill="#000000" font-family="sans-serif" font-size="14" lengthAdjust="spacing" textLength="58" x="714.75" y="27.8467">Sistema</text><line style="stroke:#181818;stroke-width:0.5;" x1="643.5" x2="811.5" y1="39" y2="39"/><text fill="#000000" font-family="sans-serif" font-size="14" lengthAdjust="spacing" textLength="158" x="648.5" y="55.9951">SistemaAutenticacion</text><line style="stroke:#181818;stroke-width:0.5;" x1="643.5" x2="811.5" y1="63.2969" y2="63.2969"/></g><!--class Pagina--><g id="elem_Pagina"><rect fill="#F1F1F1" height="64.2969" id="Pagina" rx="2.5" ry="2.5" style="stroke:#181818;stroke-width:0.5;" width="92" x="634.5" y="156.5"/><ellipse cx="655.35" cy="172.5" fill="#ADD1B2" rx="11" ry="11" style="stroke:#181818;stroke-width:1.0;"/><path d="M657.6938,168.1719 C656.7563,167.7344 656.1625,167.5938 655.2875,167.5938 C652.6625,167.5938 650.6625,169.6719 650.6625,172.3906 L650.6625,173.5156 C650.6625,176.0938 652.7719,177.9844 655.6625,177.9844 C656.8813,177.9844 658.0375,177.6875 658.7875,177.1406 C659.3656,176.7344 659.6938,176.2813 659.6938,175.8906 C659.6938,175.4375 659.3031,175.0469 658.8344,175.0469 C658.6156,175.0469 658.4125,175.125 658.225,175.3125 C657.7719,175.7969 657.7719,175.7969 657.5844,175.8906 C657.1625,176.1563 656.475,176.2813 655.7094,176.2813 C653.6625,176.2813 652.3656,175.1875 652.3656,173.4844 L652.3656,172.3906 C652.3656,170.6094 653.6156,169.2969 655.35,169.2969 C655.9281,169.2969 656.5375,169.4531 657.0063,169.7031 C657.4906,169.9844 657.6625,170.2031 657.7563,170.6094 C657.8188,171.0156 657.85,171.1406 657.9906,171.2656 C658.1313,171.4063 658.3656,171.5156 658.5844,171.5156 C658.85,171.5156 659.1156,171.375 659.2875,171.1563 C659.3969,171 659.4281,170.8125 659.4281,170.3906 L659.4281,168.9688 C659.4281,168.5313 659.4125,168.4063 659.3188,168.25 C659.1625,167.9844 658.8813,167.8438 658.5844,167.8438 C658.2875,167.8438 658.0844,167.9375 657.8656,168.25 L657.6938,168.1719 Z " fill="#000000"/><text fill="#000000" font-family="sans-serif" font-size="14" lengthAdjust="spacing" textLength="47" x="670.65" y="177.3467">Pagina</text><line style="stroke:#181818;stroke-width:0.5;" x1="635.5" x2="725.5" y1="188.5" y2="188.5"/><text fill="#000000" font-family="sans-serif" font-size="14" lengthAdjust="spacing" textLength="80" x="640.5" y="205.4951">PaginaWeb</text><line style="stroke:#181818;stroke-width:0.5;" x1="635.5" x2="725.5" y1="212.7969" y2="212.7969"/></g><!--class BD--><g id="elem_BD"><rect fill="#F1F1F1" height="64.2969" id="BD" rx="2.5" ry="2.5" style="stroke:#181818;stroke-width:0.5;" width="108" x="808.5" y="156.5"/><ellipse cx="848.25" cy="172.5" fill="#ADD1B2" rx="11" ry="11" style="stroke:#181818;stroke-width:1.0;"/><path d="M850.5938,168.1719 C849.6563,167.7344 849.0625,167.5938 848.1875,167.5938 C845.5625,167.5938 843.5625,169.6719 843.5625,172.3906 L843.5625,173.5156 C843.5625,176.0938 845.6719,177.9844 848.5625,177.9844 C849.7813,177.9844 850.9375,177.6875 851.6875,177.1406 C852.2656,176.7344 852.5938,176.2813 852.5938,175.8906 C852.5938,175.4375 852.2031,175.0469 851.7344,175.0469 C851.5156,175.0469 851.3125,175.125 851.125,175.3125 C850.6719,175.7969 850.6719,175.7969 850.4844,175.8906 C850.0625,176.1563 849.375,176.2813 848.6094,176.2813 C846.5625,176.2813 845.2656,175.1875 845.2656,173.4844 L845.2656,172.3906 C845.2656,170.6094 846.5156,169.2969 848.25,169.2969 C848.8281,169.2969 849.4375,169.4531 849.9063,169.7031 C850.3906,169.9844 850.5625,170.2031 850.6563,170.6094 C850.7188,171.0156 850.75,171.1406 850.8906,171.2656 C851.0313,171.4063 851.2656,171.5156 851.4844,171.5156 C851.75,171.5156 852.0156,171.375 852.1875,171.1563 C852.2969,171 852.3281,170.8125 852.3281,170.3906 L852.3281,168.9688 C852.3281,168.5313 852.3125,168.4063 852.2188,168.25 C852.0625,167.9844 851.7813,167.8438 851.4844,167.8438 C851.1875,167.8438 850.9844,167.9375 850.7656,168.25 L850.5938,168.1719 Z " fill="#000000"/><text fill="#000000" font-family="sans-serif" font-size="14" lengthAdjust="spacing" textLength="21" x="867.75" y="177.3467">BD</text><line style="stroke:#181818;stroke-width:0.5;" x1="809.5" x2="915.5" y1="188.5" y2="188.5"/><text fill="#000000" font-family="sans-serif" font-size="14" lengthAdjust="spacing" textLength="96" x="814.5" y="205.4951">BaseDeDatos</text><line style="stroke:#181818;stroke-width:0.5;" x1="809.5" x2="915.5" y1="212.7969" y2="212.7969"/></g><!--link Usuario1 to Usuario--><g id="link_Usuario1_Usuario"><path codeLine="29" d="M500.5,367.193 C500.5,388.869 500.5,412.711 500.5,437.7229 " fill="none" id="Usuario1-to-Usuario" style="stroke:#181818;stroke-width:1.0;"/><polygon fill="#181818" points="500.5,443.7229,504.5,434.7229,500.5,438.7229,496.5,434.7229,500.5,443.7229" style="stroke:#181818;stroke-width:1.0;"/><text fill="#000000" font-family="sans-serif" font-size="13" lengthAdjust="spacing" textLength="96" x="501.5" y="410.0669">Crear instancia</text></g><!--link Sistema to Usuario1--><g id="link_Sistema_Usuario1"><path codeLine="30" d="M642.385,60.367 C566.065,80.556 462.507,113.399 438.5,148 C404.296,197.296 442.1957,262.0384 471.9017,301.0954 " fill="none" id="Sistema-to-Usuario1" style="stroke:#181818;stroke-width:1.0;"/><polygon fill="#181818" points="475.534,305.871,473.2694,296.286,472.5071,301.8913,466.9019,301.129,475.534,305.871" style="stroke:#181818;stroke-width:1.0;"/><text fill="#000000" font-family="sans-serif" font-size="13" lengthAdjust="spacing" textLength="176" x="439.5" y="193.0669">Recibe instancia de Usuario</text></g><!--link Sistema to Sistema--><g id="link_Sistema_Sistema"><path codeLine="31" d="M812.709,26.135 C832.729,27.192 847.5,31.48 847.5,39 C847.5,46.52 838.7207,50.4917 818.7007,51.5487 " fill="none" id="Sistema-to-Sistema" style="stroke:#181818;stroke-width:1.0;"/><polygon fill="#181818" points="812.709,51.865,821.9074,55.3849,817.702,51.6014,821.4856,47.396,812.709,51.865" style="stroke:#181818;stroke-width:1.0;"/><text fill="#000000" font-family="sans-serif" font-size="13" lengthAdjust="spacing" textLength="132" x="853.5" y="43.5669">Autenticar(Usuario1)</text></g><!--link Sistema to BD--><g id="link_Sistema_BD"><path codeLine="32" d="M751.672,71.025 C763.348,85.597 777.775,103.017 791.5,118 C803.384,130.974 812.7546,140.4734 824.9186,152.2234 " fill="none" id="Sistema-to-BD" style="stroke:#181818;stroke-width:1.0;"/><polygon fill="#181818" points="829.234,156.392,825.5399,147.2622,825.6378,152.9182,819.9818,153.0161,829.234,156.392" style="stroke:#181818;stroke-width:1.0;"/><text fill="#000000" font-family="sans-serif" font-size="13" lengthAdjust="spacing" textLength="141" x="792.5" y="114.0669">Consultar informaci&#243;n</text></g><!--link BD to Sistema--><g id="link_BD_Sistema"><path codeLine="33" d="M916.263,156.435 C937.118,140.378 952.916,120.174 938.5,101 C922.889,80.236 870.0082,65.4792 818.4492,55.1082 " fill="none" id="BD-to-Sistema" style="stroke:#181818;stroke-width:1.0;"/><polygon fill="#181818" points="812.567,53.925,820.6015,59.6212,817.4688,54.911,822.1791,51.7783,812.567,53.925" style="stroke:#181818;stroke-width:1.0;"/><text fill="#000000" font-family="sans-serif" font-size="13" lengthAdjust="spacing" textLength="131" x="944.5" y="114.0669">Retorna informaci&#243;n</text></g><!--link Sistema to Pagina--><g id="link_Sistema_Pagina"><path codeLine="34" d="M642.482,63.15 C624.694,72.05 608.129,84.271 597.5,101 C582.041,125.33 602.4794,145.5297 629.2014,161.8137 " fill="none" id="Sistema-to-Pagina" style="stroke:#181818;stroke-width:1.0;"/><polygon fill="#181818" points="634.325,164.936,628.7211,156.8369,630.0553,162.3341,624.5581,163.6684,634.325,164.936" style="stroke:#181818;stroke-width:1.0;"/><text fill="#000000" font-family="sans-serif" font-size="13" lengthAdjust="spacing" textLength="152" x="598.5" y="114.0669">Mostrar p&#225;gina principal</text></g><!--link Pagina to Usuario1--><g id="link_Pagina_Usuario1"><path codeLine="35" d="M641.885,220.821 C610.792,246.041 572.0529,277.4634 541.5629,302.1934 " fill="none" id="Pagina-to-Usuario1" style="stroke:#181818;stroke-width:1.0;"/><polygon fill="#181818" points="536.903,305.973,546.4126,303.4102,540.7863,302.8233,541.3731,297.197,536.903,305.973" style="stroke:#181818;stroke-width:1.0;"/><text fill="#000000" font-family="sans-serif" font-size="13" lengthAdjust="spacing" textLength="101" x="591.5" y="272.0669">Mostrar interfaz</text></g><!--SRC=[RLBBJiCm4BpxAwoUMfKSobiHL6gR2mTGbGfntZZRo2YrAzlX0E9Z-0J49_J7s3oS1-GKUNTsPdOs8WTh-RCjm4ZDFnZd0O-U7aA-SqQgh7eBhPm1YwTlwDNddBu6BPYDmHILa92ZdVQ6pyOcPo5_qp9bduo9IdidhSC3h0g7oaa1GcfL6Pbpy3KpBMg7eRTAD8dMEOBgcBQGIGKlc3JZ1sr9tTJbBOaBUOHy-i_1cXn6687JjacWKRCnPhBaIBKb_-Zk6lLbRO_Mpy0qjJ6BNaSdhoYSRomg5GhgdayMvnUNLzStjq4yeLelBqxDtfDmavAfIOk7excnUbVgjbcmTKJFtegCjJQ2ODcUFkHqHZ1qLEkWF6OhrKCj21QZa0bsE9wYRmz6EgUhxeoUPpQ0LXOtMjaYTvM5lJO7MkZqeqhxGxOOdJQqum3LPsipUAplpu-dhwfozB-0Z-dFPXulbKEpX_TV]--></g></svg>