<?xml version="1.0" encoding="us-ascii" standalone="no"?><svg xmlns="http://www.w3.org/2000/svg" xmlns:xlink="http://www.w3.org/1999/xlink" contentStyleType="text/css" height="775px" preserveAspectRatio="none" style="width:447px;height:775px;background:#FFFFFF;" version="1.1" viewBox="0 0 447 775" width="447px" zoomAndPan="magnify"><defs/><g><!--cluster NoAutenticado--><g id="cluster_NoAutenticado"><path d="M62.5,7 L421.5,7 A12.5,12.5 0 0 1 434,19.5 L434,28.2969 L50,28.2969 L50,19.5 A12.5,12.5 0 0 1 62.5,7 " fill="#F1F1F1" style="stroke:#F1F1F1;stroke-width:1.0;"/><rect fill="none" height="762" rx="12.5" ry="12.5" style="stroke:#181818;stroke-width:0.5;" width="384" x="50" y="7"/><line style="stroke:#181818;stroke-width:0.5;" x1="50" x2="434" y1="28.2969" y2="28.2969"/><text fill="#000000" font-family="sans-serif" font-size="14" lengthAdjust="spacing" textLength="107" x="188.5" y="23.9951">NoAutenticado</text></g><ellipse cx="240" cy="60" fill="#222222" rx="10" ry="10" style="stroke:#222222;stroke-width:1.0;"/><g id="NoAutenticado.EsperandoCredenciales"><rect fill="#F1F1F1" height="50" rx="12.5" ry="12.5" style="stroke:#181818;stroke-width:0.5;" width="188" x="170" y="147"/><line style="stroke:#181818;stroke-width:0.5;" x1="170" x2="358" y1="173.2969" y2="173.2969"/><text fill="#000000" font-family="sans-serif" font-size="14" lengthAdjust="spacing" textLength="168" x="180" y="164.9951">EsperandoCredenciales</text></g><g id="NoAutenticado.VerificandoCredenciales"><rect fill="#F1F1F1" height="50" rx="12.5" ry="12.5" style="stroke:#181818;stroke-width:0.5;" width="194" x="170" y="274"/><line style="stroke:#181818;stroke-width:0.5;" x1="170" x2="364" y1="300.2969" y2="300.2969"/><text fill="#000000" font-family="sans-serif" font-size="14" lengthAdjust="spacing" textLength="174" x="180" y="291.9951">VerificandoCredenciales</text></g><path d="M182.5,401 L397,401 A12.5,12.5 0 0 1 409.5,413.5 L409.5,427.2969 L170,427.2969 L170,413.5 A12.5,12.5 0 0 1 182.5,401 " fill="#F1F1F1" style="stroke:#F1F1F1;stroke-width:1.0;"/><rect fill="none" height="245.2969" rx="12.5" ry="12.5" style="stroke:#181818;stroke-width:0.5;" width="239.5" x="170" y="401"/><line style="stroke:#181818;stroke-width:0.5;" x1="170" x2="409.5" y1="427.2969" y2="427.2969"/><text fill="#000000" font-family="sans-serif" font-size="14" lengthAdjust="spacing" textLength="88" x="245.75" y="418.9951">Autenticado</text><ellipse cx="246.5" cy="448.2969" fill="#222222" rx="10" ry="10" style="stroke:#222222;stroke-width:1.0;"/><g id="NoAutenticado.Autenticado.PaginaPrincipal"><rect fill="#F1F1F1" height="50" rx="12.5" ry="12.5" style="stroke:#181818;stroke-width:0.5;" width="129" x="182" y="511.2969"/><line style="stroke:#181818;stroke-width:0.5;" x1="182" x2="311" y1="537.5938" y2="537.5938"/><text fill="#000000" font-family="sans-serif" font-size="14" lengthAdjust="spacing" textLength="109" x="192" y="529.292">PaginaPrincipal</text></g><ellipse cx="246.5" cy="625.2969" fill="none" rx="11" ry="11" style="stroke:#222222;stroke-width:1.0;"/><ellipse cx="246.5" cy="625.2969" fill="#222222" rx="6" ry="6" style="stroke:#222222;stroke-width:1.0;"/><!--link *start*Autenticado to PaginaPrincipal--><g id="link_*start*Autenticado_PaginaPrincipal"><path d="M246.5,458.5009 C246.5,470.9799 246.5,487.7189 246.5,505.2269 " fill="none" id="*start*Autenticado-to-PaginaPrincipal" style="stroke:#181818;stroke-width:1.0;"/><polygon fill="#181818" points="246.5,511.2269,250.5,502.2269,246.5,506.2269,242.5,502.2269,246.5,511.2269" style="stroke:#181818;stroke-width:1.0;"/><text fill="#000000" font-family="sans-serif" font-size="13" lengthAdjust="spacing" textLength="152" x="247.5" y="489.3638">Mostrar p&#225;gina principal</text></g><!--link PaginaPrincipal to *end*Autenticado--><g id="link_PaginaPrincipal_*end*Autenticado"><path d="M246.5,561.5313 C246.5,578.8271 246.5,595.215 246.5,608.045 " fill="none" id="PaginaPrincipal-to-*end*Autenticado" style="stroke:#181818;stroke-width:1.0;"/><polygon fill="#181818" points="246.5,614.045,250.5,605.045,246.5,609.045,242.5,605.045,246.5,614.045" style="stroke:#181818;stroke-width:1.0;"/><text fill="#000000" font-family="sans-serif" font-size="13" lengthAdjust="spacing" textLength="85" x="247.5" y="592.3638">Cerrar sesi&#243;n</text></g><ellipse cx="290" cy="734" fill="none" rx="11" ry="11" style="stroke:#222222;stroke-width:1.0;"/><ellipse cx="290" cy="734" fill="#222222" rx="6" ry="6" style="stroke:#222222;stroke-width:1.0;"/><ellipse cx="16" cy="299" fill="#222222" rx="10" ry="10" style="stroke:#222222;stroke-width:1.0;"/><!--link *start* to NoAutenticado--><g id="link_*start*_NoAutenticado"><path d="M14.9005,309.295 C13.5309,322.958 11.8414,349.206 16,371 C19.3405,388.5068 24.6705,406.5721 30.8086,423.8608 C33.8776,432.5051 37.1487,440.9553 40.4741,449.0445 C42.1367,453.089 43.813,457.0434 45.4844,460.8865 C46.3201,462.8081 47.1545,464.702 47.9855,466.5654 C48.401,467.4971 48.8155,468.4212 49.229,469.3374 C49.4357,469.7955 47.1624,464.788 47.3685,465.2421 " fill="none" id="*start*-to-NoAutenticado" style="stroke:#181818;stroke-width:1.0;"/><polygon fill="#181818" points="49.8482,470.7057,49.7711,460.8571,47.7818,466.1527,42.4863,464.1633,49.8482,470.7057" style="stroke:#181818;stroke-width:1.0;"/><text fill="#000000" font-family="sans-serif" font-size="13" lengthAdjust="spacing" textLength="32" x="17" y="367.0669">Inicio</text></g><!--link *start*NoAutenticado to EsperandoCredenciales--><g id="link_*start*NoAutenticado_EsperandoCredenciales"><path d="M241.964,70.002 C245.591,86.627 252.173,116.7929 257.457,141.0109 " fill="none" id="*start*NoAutenticado-to-EsperandoCredenciales" style="stroke:#181818;stroke-width:1.0;"/><polygon fill="#181818" points="258.736,146.873,260.7255,137.2272,257.6702,141.9879,252.9094,138.9325,258.736,146.873" style="stroke:#181818;stroke-width:1.0;"/><text fill="#000000" font-family="sans-serif" font-size="13" lengthAdjust="spacing" textLength="168" x="253" y="113.0669">Usuario accede al sistema</text></g><!--link EsperandoCredenciales to VerificandoCredenciales--><g id="link_EsperandoCredenciales_VerificandoCredenciales"><path d="M264.578,197.101 C265.11,219.236 265.7492,245.8627 266.2792,267.9747 " fill="none" id="EsperandoCredenciales-to-VerificandoCredenciales" style="stroke:#181818;stroke-width:1.0;"/><polygon fill="#181818" points="266.423,273.973,270.2062,264.8797,266.3032,268.9744,262.2085,265.0714,266.423,273.973" style="stroke:#181818;stroke-width:1.0;"/><text fill="#000000" font-family="sans-serif" font-size="13" lengthAdjust="spacing" textLength="156" x="266" y="240.0669">Credenciales ingresadas</text></g><!--link VerificandoCredenciales to Autenticado--><g id="link_VerificandoCredenciales_Autenticado"><path d="M269.505,324.235 C271.484,343.382 273.7922,365.7038 276.8152,394.9548 " fill="none" id="VerificandoCredenciales-to-Autenticado" style="stroke:#181818;stroke-width:1.0;"/><polygon fill="#181818" points="277.432,400.923,280.4856,391.5595,276.918,395.9495,272.528,392.3819,277.432,400.923" style="stroke:#181818;stroke-width:1.0;"/><text fill="#000000" font-family="sans-serif" font-size="13" lengthAdjust="spacing" textLength="131" x="274" y="367.0669">Credenciales v&#225;lidas</text></g><!--link VerificandoCredenciales to NoAutenticado--><g id="link_VerificandoCredenciales_NoAutenticado"><path d="M169.833,321.132 C151.624,328.903 134.194,339.514 121,354 C69.6205,410.411 75.426,513.049 75.6313,516.43 " fill="none" id="VerificandoCredenciales-to-NoAutenticado" style="stroke:#181818;stroke-width:1.0;"/><polygon fill="#181818" points="75.995,522.419,79.4422,513.1931,75.6919,517.4282,71.4569,513.678,75.995,522.419" style="stroke:#181818;stroke-width:1.0;"/><text fill="#000000" font-family="sans-serif" font-size="13" lengthAdjust="spacing" textLength="142" x="122" y="367.0669">Credenciales inv&#225;lidas</text></g><!--link Autenticado to *end*NoAutenticado--><g id="link_Autenticado_*end*NoAutenticado"><path d="M290,646.087 C290,678.075 290,701.822 290,716.8229 " fill="none" id="Autenticado-to-*end*NoAutenticado" style="stroke:#181818;stroke-width:1.0;"/><polygon fill="#181818" points="290,722.8229,294,713.8229,290,717.8229,286,713.8229,290,722.8229" style="stroke:#181818;stroke-width:1.0;"/><text fill="#000000" font-family="sans-serif" font-size="13" lengthAdjust="spacing" textLength="85" x="291" y="689.0669">Cerrar sesi&#243;n</text></g><!--SRC=[XP0n2i9044Nxd69g8HUm44GiB9GqseZ5i1bb8Ew6cOsDU1ZFu15oCMV1G18Dbhj_tflTVvoT8CyNi0lB9fAFxB0CC8UDPySXopHYf55wpm2E7swjDGdwCgo4IlAEiI8rVgyD2WT0v-mUi09bZNH5OtypoNOWuRCj-VODZkmlGeebgjcccEGR_caGtzfdnVyDurv6x-XP-dE9J0tPF8cWW99o-_BPesjqgiy2B-on4BOTjRKsXstGc1Hr-qmHr5rcr7XwUkyR]--></g></svg>