<?xml version="1.0" encoding="us-ascii" standalone="no"?><svg xmlns="http://www.w3.org/2000/svg" xmlns:xlink="http://www.w3.org/1999/xlink" contentStyleType="text/css" height="626px" preserveAspectRatio="none" style="width:499px;height:626px;background:#FFFFFF;" version="1.1" viewBox="0 0 499 626" width="499px" zoomAndPan="magnify"><defs/><g><g id="elem_Usuario"><rect fill="#F1F1F1" height="44.5938" style="stroke:#181818;stroke-width:0.5;" width="384" x="108" y="7"/><text fill="#000000" font-family="sans-serif" font-size="14" lengthAdjust="spacing" textLength="51" x="274.5" y="21.9951">Usuario</text><line style="stroke:#181818;stroke-width:0.5;" x1="109" x2="491" y1="27.2969" y2="27.2969"/><text fill="#000000" font-family="sans-serif" font-size="14" lengthAdjust="spacing" textLength="372" x="114" y="44.292">nombreUsuario : torrente@alumnos.uneatlantico.es</text></g><g id="elem_Reserva"><rect fill="#F1F1F1" height="93.4844" style="stroke:#181818;stroke-width:0.5;" width="140" x="230" y="129"/><text fill="#000000" font-family="sans-serif" font-size="14" lengthAdjust="spacing" textLength="57" x="271.5" y="143.9951">Reserva</text><line style="stroke:#181818;stroke-width:0.5;" x1="231" x2="369" y1="149.2969" y2="149.2969"/><text fill="#000000" font-family="sans-serif" font-size="14" lengthAdjust="spacing" textLength="128" x="236" y="166.292">horaInicio : 12:00;</text><text fill="#000000" font-family="sans-serif" font-size="14" lengthAdjust="spacing" textLength="112" x="236" y="182.5889">horaFin : 13:00;</text><text fill="#000000" font-family="sans-serif" font-size="14" lengthAdjust="spacing" textLength="117" x="236" y="198.8857">dia : 12/12/2023;</text><text fill="#000000" font-family="sans-serif" font-size="14" lengthAdjust="spacing" textLength="63" x="236" y="215.1826">pista : 1;</text></g><g id="elem_Notificacion1"><rect fill="#F1F1F1" height="60.8906" style="stroke:#181818;stroke-width:0.5;" width="290" x="7" y="283"/><text fill="#000000" font-family="sans-serif" font-size="14" lengthAdjust="spacing" textLength="95" x="104.5" y="297.9951">Notificacion1</text><line style="stroke:#181818;stroke-width:0.5;" x1="8" x2="296" y1="303.2969" y2="303.2969"/><text fill="#000000" font-family="sans-serif" font-size="14" lengthAdjust="spacing" textLength="278" x="13" y="320.292">Hora : Reserva.horaInicio.minutos - 10;</text><text fill="#000000" font-family="sans-serif" font-size="14" lengthAdjust="spacing" textLength="257" x="13" y="336.5889">Objetivo : ConfirmarInicioActividad;</text></g><g id="elem_Notificacion2"><rect fill="#F1F1F1" height="60.8906" style="stroke:#181818;stroke-width:0.5;" width="264" x="30" y="421"/><text fill="#000000" font-family="sans-serif" font-size="14" lengthAdjust="spacing" textLength="94" x="115" y="435.9951">Notificacion2</text><line style="stroke:#181818;stroke-width:0.5;" x1="31" x2="293" y1="441.2969" y2="441.2969"/><text fill="#000000" font-family="sans-serif" font-size="14" lengthAdjust="spacing" textLength="252" x="36" y="458.292">Hora : Reserva.horaFin.minutos - 3;</text><text fill="#000000" font-family="sans-serif" font-size="14" lengthAdjust="spacing" textLength="240" x="36" y="474.5889">Objetivo : ConfirmarFinActividad;</text></g><g id="elem_Notificacion3"><rect fill="#F1F1F1" height="60.8906" style="stroke:#181818;stroke-width:0.5;" width="178" x="185" y="559"/><text fill="#000000" font-family="sans-serif" font-size="14" lengthAdjust="spacing" textLength="95" x="226.5" y="573.9951">Notificacion3</text><line style="stroke:#181818;stroke-width:0.5;" x1="186" x2="362" y1="579.2969" y2="579.2969"/><text fill="#000000" font-family="sans-serif" font-size="14" lengthAdjust="spacing" textLength="166" x="191" y="596.292">Hora : Reserva.horaFin;</text><text fill="#000000" font-family="sans-serif" font-size="14" lengthAdjust="spacing" textLength="139" x="191" y="612.5889">EstadoPista : Libre;</text></g><!--link Usuario to Reserva--><g id="link_Usuario_Reserva"><path codeLine="26" d="M300,52.058 C300,72.301 300,97.233 300,122.942 " fill="none" id="Usuario-to-Reserva" style="stroke:#181818;stroke-width:1.0;"/><polygon fill="#181818" points="300,128.942,304,119.942,300,123.942,296,119.942,300,128.942" style="stroke:#181818;stroke-width:1.0;"/><text fill="#000000" font-family="sans-serif" font-size="13" lengthAdjust="spacing" textLength="149" x="301" y="95.0669">PermitirNotificaciones()</text></g><!--link Reserva to Notificacion1--><g id="link_Reserva_Notificacion1"><path codeLine="27" d="M250.306,222.164 C228.473,242.228 207.8808,261.1491 188.5518,278.9121 " fill="none" id="Reserva-to-Notificacion1" style="stroke:#181818;stroke-width:1.0;"/><polygon fill="#181818" points="184.134,282.972,193.4673,279.8274,187.8155,279.5887,188.0541,273.9369,184.134,282.972" style="stroke:#181818;stroke-width:1.0;"/></g><!--link Notificacion1 to Notificacion2--><g id="link_Notificacion1_Notificacion2"><path codeLine="28" d="M154.17,344.01 C155.836,366.665 157.6858,391.8362 159.3598,414.5942 " fill="none" id="Notificacion1-to-Notificacion2" style="stroke:#181818;stroke-width:1.0;"/><polygon fill="#181818" points="159.8,420.578,163.129,411.3088,159.4332,415.5915,155.1506,411.8957,159.8,420.578" style="stroke:#181818;stroke-width:1.0;"/><text fill="#000000" font-family="sans-serif" font-size="13" lengthAdjust="spacing" textLength="133" x="159" y="387.0669">ConfirmarActividad()</text></g><!--link Notificacion2 to Notificacion3--><g id="link_Notificacion2_Notificacion3"><path codeLine="29" d="M186.302,482.01 C204.96,504.665 226.8028,531.1887 245.5438,553.9464 " fill="none" id="Notificacion2-to-Notificacion3" style="stroke:#181818;stroke-width:1.0;"/><polygon fill="#181818" points="249.358,558.578,246.7245,549.0878,246.1795,554.7183,240.549,554.1733,249.358,558.578" style="stroke:#181818;stroke-width:1.0;"/><text fill="#000000" font-family="sans-serif" font-size="13" lengthAdjust="spacing" textLength="92" x="226" y="525.0669">ConfirmarFin()</text></g><!--link Notificacion3 to Reserva--><g id="link_Notificacion3_Reserva"><path codeLine="30" d="M308.026,558.721 C315.737,549.9987 322.865,539.8596 327,529 C366.643,424.893 338.2418,296.9612 317.3408,227.9762 " fill="none" id="Notificacion3-to-Reserva" style="stroke:#181818;stroke-width:1.0;"/><polygon fill="#181818" points="315.601,222.234,314.3825,232.0072,317.0508,227.0192,322.0388,229.6875,315.601,222.234" style="stroke:#181818;stroke-width:1.0;"/><text fill="#000000" font-family="sans-serif" font-size="13" lengthAdjust="spacing" textLength="104" x="346" y="387.0669">NuevaReserva()</text></g><!--SRC=[XP71JiCm44Jl-GeVsqD24jzI2O5GAv1GgP3uW6so5OiQBxATN13_piPDIX8f8FdYyVYDTyp73oozUdCDM6Br5Ibbk3vQ79H2UROMZSSxE3UrOPSq1i6VmNWgEK4NVKTyeRoYGzj2eBopXIT3PK1aUP6ccrxTaUaatKiLGN3SoChJN7VQ9paVr8t01_gUFPse146QB6Gy2arSVMpo6vdKP1hFJiKg2o4lWl3KTczvO7CYMuEzMEzBqQc2QYagNugIEKOvUYb6RFzcw3yoEkvMwgZuqBVoJF8_0JLyKXpVNiilr05jJPxiE07TQXqDbiu-QJEQTZi_pyVpN8SHuDGqlwPdDSmkwDcpzmssq6zNwny0]--></g></svg>