<?xml version="1.0" encoding="us-ascii" standalone="no"?><svg xmlns="http://www.w3.org/2000/svg" xmlns:xlink="http://www.w3.org/1999/xlink" contentStyleType="text/css" height="1070px" preserveAspectRatio="none" style="width:583px;height:1070px;background:#FFFFFF;" version="1.1" viewBox="0 0 583 1070" width="583px" zoomAndPan="magnify"><defs/><g><ellipse cx="423" cy="16" fill="#222222" rx="10" ry="10" style="stroke:#222222;stroke-width:1.0;"/><g id="PermitirNotificaciones"><rect fill="#F1F1F1" height="50" rx="12.5" ry="12.5" style="stroke:#181818;stroke-width:0.5;" width="181" x="332.5" y="103"/><line style="stroke:#181818;stroke-width:0.5;" x1="332.5" x2="513.5" y1="129.2969" y2="129.2969"/><text fill="#000000" font-family="sans-serif" font-size="14" lengthAdjust="spacing" textLength="161" x="342.5" y="120.9951">PermitirNotificaciones</text></g><g id="PermisoAceptado"><rect fill="#F1F1F1" height="50" rx="12.5" ry="12.5" style="stroke:#181818;stroke-width:0.5;" width="148" x="263" y="230"/><line style="stroke:#181818;stroke-width:0.5;" x1="263" x2="411" y1="256.2969" y2="256.2969"/><text fill="#000000" font-family="sans-serif" font-size="14" lengthAdjust="spacing" textLength="128" x="273" y="247.9951">PermisoAceptado</text></g><g id="PermisoDenegado"><rect fill="#F1F1F1" height="50" rx="12.5" ry="12.5" style="stroke:#181818;stroke-width:0.5;" width="151" x="425.5" y="310"/><line style="stroke:#181818;stroke-width:0.5;" x1="425.5" x2="576.5" y1="336.2969" y2="336.2969"/><text fill="#000000" font-family="sans-serif" font-size="14" lengthAdjust="spacing" textLength="131" x="435.5" y="327.9951">PermisoDenegado</text></g><g id="NotificacionReserva"><rect fill="#F1F1F1" height="50" rx="12.5" ry="12.5" style="stroke:#181818;stroke-width:0.5;" width="163" x="219.5" y="390"/><line style="stroke:#181818;stroke-width:0.5;" x1="219.5" x2="382.5" y1="416.2969" y2="416.2969"/><text fill="#000000" font-family="sans-serif" font-size="14" lengthAdjust="spacing" textLength="143" x="229.5" y="407.9951">NotificacionReserva</text></g><g id="NotificacionAcceso"><rect fill="#F1F1F1" height="50" rx="12.5" ry="12.5" style="stroke:#181818;stroke-width:0.5;" width="157" x="8.5" y="517"/><line style="stroke:#181818;stroke-width:0.5;" x1="8.5" x2="165.5" y1="543.2969" y2="543.2969"/><text fill="#000000" font-family="sans-serif" font-size="14" lengthAdjust="spacing" textLength="137" x="18.5" y="534.9951">NotificacionAcceso</text></g><g id="ActividadNoIniciada"><rect fill="#F1F1F1" height="50" rx="12.5" ry="12.5" style="stroke:#181818;stroke-width:0.5;" width="160" x="263" y="597"/><line style="stroke:#181818;stroke-width:0.5;" x1="263" x2="423" y1="623.2969" y2="623.2969"/><text fill="#000000" font-family="sans-serif" font-size="14" lengthAdjust="spacing" textLength="140" x="273" y="614.9951">ActividadNoIniciada</text></g><g id="DesarrolloActividad"><rect fill="#F1F1F1" height="50" rx="12.5" ry="12.5" style="stroke:#181818;stroke-width:0.5;" width="160" x="7" y="677"/><line style="stroke:#181818;stroke-width:0.5;" x1="7" x2="167" y1="703.2969" y2="703.2969"/><text fill="#000000" font-family="sans-serif" font-size="14" lengthAdjust="spacing" textLength="140" x="17" y="694.9951">DesarrolloActividad</text></g><g id="NotificacionFin"><rect fill="#F1F1F1" height="50" rx="12.5" ry="12.5" style="stroke:#181818;stroke-width:0.5;" width="127" x="57.5" y="804"/><line style="stroke:#181818;stroke-width:0.5;" x1="57.5" x2="184.5" y1="830.2969" y2="830.2969"/><text fill="#000000" font-family="sans-serif" font-size="14" lengthAdjust="spacing" textLength="107" x="67.5" y="821.9951">NotificacionFin</text></g><g id="PistaLibre"><rect fill="#F1F1F1" height="50" rx="12.5" ry="12.5" style="stroke:#181818;stroke-width:0.5;" width="92" x="326" y="931"/><line style="stroke:#181818;stroke-width:0.5;" x1="326" x2="418" y1="957.2969" y2="957.2969"/><text fill="#000000" font-family="sans-serif" font-size="14" lengthAdjust="spacing" textLength="72" x="336" y="948.9951">PistaLibre</text></g><ellipse cx="458" cy="1053" fill="none" rx="11" ry="11" style="stroke:#222222;stroke-width:1.0;"/><ellipse cx="458" cy="1053" fill="#222222" rx="6" ry="6" style="stroke:#222222;stroke-width:1.0;"/><!--link *start* to PermitirNotificaciones--><g id="link_*start*_PermitirNotificaciones"><path d="M423,26 C423,42.63 423,72.655 423,96.873 " fill="none" id="*start*-to-PermitirNotificaciones" style="stroke:#181818;stroke-width:1.0;"/><polygon fill="#181818" points="423,102.873,427,93.873,423,97.873,419,93.873,423,102.873" style="stroke:#181818;stroke-width:1.0;"/><text fill="#000000" font-family="sans-serif" font-size="13" lengthAdjust="spacing" textLength="37" x="424" y="69.0669">Iniciar</text></g><!--link PermitirNotificaciones to PermisoAceptado--><g id="link_PermitirNotificaciones_PermisoAceptado"><path d="M406.418,153.101 C391.19,175.236 372.1437,202.9178 356.9317,225.0298 " fill="none" id="PermitirNotificaciones-to-PermisoAceptado" style="stroke:#181818;stroke-width:1.0;"/><polygon fill="#181818" points="353.531,229.973,361.9275,224.8253,356.3649,225.8537,355.3366,220.2911,353.531,229.973" style="stroke:#181818;stroke-width:1.0;"/><text fill="#000000" font-family="sans-serif" font-size="13" lengthAdjust="spacing" textLength="50" x="387" y="196.0669">Aceptar</text></g><!--link PermitirNotificaciones to PermisoDenegado--><g id="link_PermitirNotificaciones_PermisoDenegado"><path d="M432.254,153.321 C447.266,192.775 474.6203,264.6692 489.6243,304.1022 " fill="none" id="PermitirNotificaciones-to-PermisoDenegado" style="stroke:#181818;stroke-width:1.0;"/><polygon fill="#181818" points="491.758,309.71,492.2959,299.8758,489.9799,305.0368,484.8189,302.7208,491.758,309.71" style="stroke:#181818;stroke-width:1.0;"/><text fill="#000000" font-family="sans-serif" font-size="13" lengthAdjust="spacing" textLength="60" x="449" y="196.0669">Rechazar</text></g><!--link PermisoAceptado to NotificacionReserva--><g id="link_PermisoAceptado_NotificacionReserva"><path d="M308.696,280.265 C300.775,288.771 293.19,298.979 289,310 C279.117,335.993 283.5802,362.326 290.1822,383.926 " fill="none" id="PermisoAceptado-to-NotificacionReserva" style="stroke:#181818;stroke-width:1.0;"/><polygon fill="#181818" points="291.936,389.664,293.1306,379.8879,290.4745,384.8824,285.48,382.2263,291.936,389.664" style="stroke:#181818;stroke-width:1.0;"/><text fill="#000000" font-family="sans-serif" font-size="13" lengthAdjust="spacing" textLength="117" x="290" y="339.5669">Confirmar reserva</text></g><!--link NotificacionReserva to NotificacionAcceso--><g id="link_NotificacionReserva_NotificacionAcceso"><path d="M219.465,425.802 C165.2,434.194 100.8854,448.398 84,470 C73.8189,483.025 73.7362,496.0293 77.2867,511.0303 " fill="none" id="NotificacionReserva-to-NotificacionAcceso" style="stroke:#181818;stroke-width:1.0;"/><polygon fill="#181818" points="78.6686,516.869,80.4882,507.1897,77.517,512.0034,72.7033,509.0323,78.6686,516.869" style="stroke:#181818;stroke-width:1.0;"/><text fill="#000000" font-family="sans-serif" font-size="13" lengthAdjust="spacing" textLength="186" x="85" y="483.0669">Confirmar acceso con c&#243;digo</text></g><!--link NotificacionReserva to ActividadNoIniciada--><g id="link_NotificacionReserva_ActividadNoIniciada"><path d="M304.279,440.067 C306.269,453.85 309,471.445 312,487 C319.461,525.686 328.7289,564.3489 335.4079,591.0859 " fill="none" id="NotificacionReserva-to-ActividadNoIniciada" style="stroke:#181818;stroke-width:1.0;"/><polygon fill="#181818" points="336.862,596.907,338.5615,587.2059,335.6502,592.0561,330.8,589.1447,336.862,596.907" style="stroke:#181818;stroke-width:1.0;"/><text fill="#000000" font-family="sans-serif" font-size="13" lengthAdjust="spacing" textLength="161" x="313" y="483.0669">C&#243;digo QR no escaneado</text></g><!--link NotificacionAcceso to DesarrolloActividad--><g id="link_NotificacionAcceso_DesarrolloActividad"><path d="M87,567.341 C87,597.119 87,641.219 87,670.89 " fill="none" id="NotificacionAcceso-to-DesarrolloActividad" style="stroke:#181818;stroke-width:1.0;"/><polygon fill="#181818" points="87,676.89,91,667.89,87,671.89,83,667.89,87,676.89" style="stroke:#181818;stroke-width:1.0;"/></g><!--link DesarrolloActividad to NotificacionFin--><g id="link_DesarrolloActividad_NotificacionFin"><path d="M81.9959,727.186 C80.0778,741.165 79.3278,758.915 84,774 C87.2951,784.639 89.9619,790.1926 96.353,798.9856 " fill="none" id="DesarrolloActividad-to-NotificacionFin" style="stroke:#181818;stroke-width:1.0;"/><polygon fill="#181818" points="99.8807,803.839,97.8248,794.2071,96.941,799.7945,91.3536,798.9106,99.8807,803.839" style="stroke:#181818;stroke-width:1.0;"/><text fill="#000000" font-family="sans-serif" font-size="13" lengthAdjust="spacing" textLength="260" x="85" y="770.0669">Confirmar abandono de pista con c&#243;digo</text></g><!--link NotificacionFin to PistaLibre--><g id="link_NotificacionFin_PistaLibre"><path d="M149.91,854.059 C168.937,869.031 194.884,887.868 220,901 C253.876,918.712 289.0991,931.144 319.9631,940.52 " fill="none" id="NotificacionFin-to-PistaLibre" style="stroke:#181818;stroke-width:1.0;"/><polygon fill="#181818" points="325.704,942.264,318.2553,935.8207,320.9199,940.8107,315.9299,943.4753,325.704,942.264" style="stroke:#181818;stroke-width:1.0;"/><text fill="#000000" font-family="sans-serif" font-size="13" lengthAdjust="spacing" textLength="124" x="221" y="897.0669">Actividad finalizada</text></g><!--link ActividadNoIniciada to PistaLibre--><g id="link_ActividadNoIniciada_PistaLibre"><path d="M345.109,647.144 C350.466,708.472 364.0289,863.7398 369.3769,924.9688 " fill="none" id="ActividadNoIniciada-to-PistaLibre" style="stroke:#181818;stroke-width:1.0;"/><polygon fill="#181818" points="369.899,930.946,373.1007,921.6321,369.4639,925.965,365.1311,922.3282,369.899,930.946" style="stroke:#181818;stroke-width:1.0;"/></g><!--link PistaLibre to *end*--><g id="link_PistaLibre_*end*"><path d="M394.147,981.4649 C412.86,1002.1359 434.4983,1026.0383 446.8123,1039.6411 " fill="none" id="PistaLibre-to-*end*" style="stroke:#181818;stroke-width:1.0;"/><polygon fill="#181818" points="450.839,1044.0892,447.7644,1034.7326,447.4834,1040.3824,441.8336,1040.1015,450.839,1044.0892" style="stroke:#181818;stroke-width:1.0;"/></g><!--link PermisoDenegado to *end*--><g id="link_PermisoDenegado_*end*"><path d="M501,360.035 C501,388.187 501,436.229 501,477.5 C501,477.5 501,477.5 501,957 C501,991.7595 480.4505,1023.0463 468.3575,1038.9028 " fill="none" id="PermisoDenegado-to-*end*" style="stroke:#181818;stroke-width:1.0;"/><polygon fill="#181818" points="464.719,1043.6737,473.3574,1038.9431,467.7511,1039.698,466.9962,1034.0917,464.719,1043.6737" style="stroke:#181818;stroke-width:1.0;"/><text fill="#000000" font-family="sans-serif" font-size="13" lengthAdjust="spacing" textLength="56" x="502" y="706.5669">Cancelar</text></g><!--SRC=[ZP51QiD034NtSufP1tA1BWec8L0eeVKsPA5ev5JWI45ZiiYrUeHUB3EU9jYf3TqDcl- -lgJTOk-NorV_GNRYZcsh7JUCWAn2qR_uDs5aC3SZUB1HAwHp1q4JL9x_WTOaT2nGJVW5rpiryCloeKDDaUm22LcfD6mdC6-bvgPqpto5I557E9GIgdZy-Gvyr5cd2Zk-S82mrRARq2SfbF-ilQYdY22Kihk9ljbaJH7Cj6trOUScQd-YRrZ6kGyWGLF7GFxCiOFP4JBPxpshtlbWrD_ftgXXWPQlQHWtDU2OT0EJ_BDRxDtpFN_hEIq8KWjs0m00]--></g></svg>