<?xml version="1.0" encoding="us-ascii" standalone="no"?><svg xmlns="http://www.w3.org/2000/svg" xmlns:xlink="http://www.w3.org/1999/xlink" contentStyleType="text/css" height="1070px" preserveAspectRatio="none" style="width:677px;height:1070px;background:#FFFFFF;" version="1.1" viewBox="0 0 677 1070" width="677px" zoomAndPan="magnify"><defs/><g><ellipse cx="428" cy="16" fill="#222222" rx="10" ry="10" style="stroke:#222222;stroke-width:1.0;"/><g id="PermitirNotificaciones"><rect fill="#F1F1F1" height="50" rx="12.5" ry="12.5" style="stroke:#181818;stroke-width:0.5;" width="181" x="337.5" y="103"/><line style="stroke:#181818;stroke-width:0.5;" x1="337.5" x2="518.5" y1="129.2969" y2="129.2969"/><text fill="#000000" font-family="sans-serif" font-size="14" lengthAdjust="spacing" textLength="161" x="347.5" y="120.9951">PermitirNotificaciones</text></g><g id="PermisoAceptado"><rect fill="#F1F1F1" height="50" rx="12.5" ry="12.5" style="stroke:#181818;stroke-width:0.5;" width="148" x="244" y="230"/><line style="stroke:#181818;stroke-width:0.5;" x1="244" x2="392" y1="256.2969" y2="256.2969"/><text fill="#000000" font-family="sans-serif" font-size="14" lengthAdjust="spacing" textLength="128" x="254" y="247.9951">PermisoAceptado</text></g><g id="PermisoDenegado"><rect fill="#F1F1F1" height="50" rx="12.5" ry="12.5" style="stroke:#181818;stroke-width:0.5;" width="151" x="469.5" y="310"/><line style="stroke:#181818;stroke-width:0.5;" x1="469.5" x2="620.5" y1="336.2969" y2="336.2969"/><text fill="#000000" font-family="sans-serif" font-size="14" lengthAdjust="spacing" textLength="131" x="479.5" y="327.9951">PermisoDenegado</text></g><g id="NotificacionInicio"><rect fill="#F1F1F1" height="50" rx="12.5" ry="12.5" style="stroke:#181818;stroke-width:0.5;" width="144" x="15" y="390"/><line style="stroke:#181818;stroke-width:0.5;" x1="15" x2="159" y1="416.2969" y2="416.2969"/><text fill="#000000" font-family="sans-serif" font-size="14" lengthAdjust="spacing" textLength="124" x="25" y="407.9951">NotificacionInicio</text></g><g id="InicioActividad"><rect fill="#F1F1F1" height="50" rx="12.5" ry="12.5" style="stroke:#181818;stroke-width:0.5;" width="125" x="24.5" y="517"/><line style="stroke:#181818;stroke-width:0.5;" x1="24.5" x2="149.5" y1="543.2969" y2="543.2969"/><text fill="#000000" font-family="sans-serif" font-size="14" lengthAdjust="spacing" textLength="105" x="34.5" y="534.9951">InicioActividad</text></g><g id="DesarrolloActividad"><rect fill="#F1F1F1" height="50" rx="12.5" ry="12.5" style="stroke:#181818;stroke-width:0.5;" width="160" x="7" y="677"/><line style="stroke:#181818;stroke-width:0.5;" x1="7" x2="167" y1="703.2969" y2="703.2969"/><text fill="#000000" font-family="sans-serif" font-size="14" lengthAdjust="spacing" textLength="140" x="17" y="694.9951">DesarrolloActividad</text></g><g id="NotificacionFin"><rect fill="#F1F1F1" height="50" rx="12.5" ry="12.5" style="stroke:#181818;stroke-width:0.5;" width="127" x="23.5" y="804"/><line style="stroke:#181818;stroke-width:0.5;" x1="23.5" x2="150.5" y1="830.2969" y2="830.2969"/><text fill="#000000" font-family="sans-serif" font-size="14" lengthAdjust="spacing" textLength="107" x="33.5" y="821.9951">NotificacionFin</text></g><g id="PistaLibre"><rect fill="#F1F1F1" height="50" rx="12.5" ry="12.5" style="stroke:#181818;stroke-width:0.5;" width="92" x="358" y="931"/><line style="stroke:#181818;stroke-width:0.5;" x1="358" x2="450" y1="957.2969" y2="957.2969"/><text fill="#000000" font-family="sans-serif" font-size="14" lengthAdjust="spacing" textLength="72" x="368" y="948.9951">PistaLibre</text></g><g id="ActividadNoIniciada"><rect fill="#F1F1F1" height="50" rx="12.5" ry="12.5" style="stroke:#181818;stroke-width:0.5;" width="160" x="287" y="597"/><line style="stroke:#181818;stroke-width:0.5;" x1="287" x2="447" y1="623.2969" y2="623.2969"/><text fill="#000000" font-family="sans-serif" font-size="14" lengthAdjust="spacing" textLength="140" x="297" y="614.9951">ActividadNoIniciada</text></g><ellipse cx="550" cy="1053" fill="none" rx="11" ry="11" style="stroke:#222222;stroke-width:1.0;"/><ellipse cx="550" cy="1053" fill="#222222" rx="6" ry="6" style="stroke:#222222;stroke-width:1.0;"/><!--link *start* to PermitirNotificaciones--><g id="link_*start*_PermitirNotificaciones"><path d="M428,26 C428,42.63 428,72.655 428,96.873 " fill="none" id="*start*-to-PermitirNotificaciones" style="stroke:#181818;stroke-width:1.0;"/><polygon fill="#181818" points="428,102.873,432,93.873,428,97.873,424,93.873,428,102.873" style="stroke:#181818;stroke-width:1.0;"/><text fill="#000000" font-family="sans-serif" font-size="13" lengthAdjust="spacing" textLength="37" x="429" y="69.0669">Iniciar</text></g><!--link PermitirNotificaciones to PermisoAceptado--><g id="link_PermitirNotificaciones_PermisoAceptado"><path d="M406.791,153.101 C387.312,175.236 362.5657,203.3567 343.1077,225.4687 " fill="none" id="PermitirNotificaciones-to-PermisoAceptado" style="stroke:#181818;stroke-width:1.0;"/><polygon fill="#181818" points="339.144,229.973,348.0924,225.859,342.4471,226.2194,342.0867,220.574,339.144,229.973" style="stroke:#181818;stroke-width:1.0;"/><text fill="#000000" font-family="sans-serif" font-size="13" lengthAdjust="spacing" textLength="50" x="381" y="196.0669">Aceptar</text></g><!--link PermitirNotificaciones to PermisoDenegado--><g id="link_PermitirNotificaciones_PermisoDenegado"><path d="M441.881,153.321 C464.399,192.775 505.6569,265.066 528.1629,304.499 " fill="none" id="PermitirNotificaciones-to-PermisoDenegado" style="stroke:#181818;stroke-width:1.0;"/><polygon fill="#181818" points="531.137,309.71,530.1498,299.9107,528.6586,305.3675,523.2018,303.8762,531.137,309.71" style="stroke:#181818;stroke-width:1.0;"/><text fill="#000000" font-family="sans-serif" font-size="13" lengthAdjust="spacing" textLength="60" x="468" y="196.0669">Rechazar</text></g><!--link PermisoAceptado to NotificacionInicio--><g id="link_PermisoAceptado_NotificacionInicio"><path d="M282.665,280.169 C239.188,309.906 170.7594,356.7107 127.2834,386.4467 " fill="none" id="PermisoAceptado-to-NotificacionInicio" style="stroke:#181818;stroke-width:1.0;"/><polygon fill="#181818" points="122.331,389.834,132.0178,388.0547,126.458,387.0113,127.5014,381.4515,122.331,389.834" style="stroke:#181818;stroke-width:1.0;"/><text fill="#000000" font-family="sans-serif" font-size="13" lengthAdjust="spacing" textLength="177" x="238" y="339.5669">10 min. antes de hora inicio</text></g><!--link NotificacionInicio to InicioActividad--><g id="link_NotificacionInicio_InicioActividad"><path d="M87,440.101 C87,462.236 87,488.861 87,510.973 " fill="none" id="NotificacionInicio-to-InicioActividad" style="stroke:#181818;stroke-width:1.0;"/><polygon fill="#181818" points="87,516.973,91,507.973,87,511.973,83,507.973,87,516.973" style="stroke:#181818;stroke-width:1.0;"/><text fill="#000000" font-family="sans-serif" font-size="13" lengthAdjust="spacing" textLength="127" x="88" y="483.0669">Confirmar Actividad</text></g><!--link NotificacionInicio to NotificacionInicio--><g id="link_NotificacionInicio_NotificacionInicio"><path d="M159.012,403.446 C178.844,404.004 194,407.855 194,415 C194,422.145 184.8416,425.8272 165.0096,426.3852 " fill="none" id="NotificacionInicio-to-NotificacionInicio" style="stroke:#181818;stroke-width:1.0;"/><polygon fill="#181818" points="159.012,426.554,168.1209,430.2993,164.01,426.4134,167.8959,422.3025,159.012,426.554" style="stroke:#181818;stroke-width:1.0;"/><text fill="#000000" font-family="sans-serif" font-size="13" lengthAdjust="spacing" textLength="370" x="200" y="419.5669">Actividad sin confirmar (entre 10 y 0 mins antes de inicio)</text></g><!--link InicioActividad to DesarrolloActividad--><g id="link_InicioActividad_DesarrolloActividad"><path d="M87,567.341 C87,597.119 87,641.219 87,670.89 " fill="none" id="InicioActividad-to-DesarrolloActividad" style="stroke:#181818;stroke-width:1.0;"/><polygon fill="#181818" points="87,676.89,91,667.89,87,671.89,83,667.89,87,676.89" style="stroke:#181818;stroke-width:1.0;"/></g><!--link DesarrolloActividad to NotificacionFin--><g id="link_DesarrolloActividad_NotificacionFin"><path d="M87,727.101 C87,749.236 87,775.861 87,797.973 " fill="none" id="DesarrolloActividad-to-NotificacionFin" style="stroke:#181818;stroke-width:1.0;"/><polygon fill="#181818" points="87,803.973,91,794.973,87,798.973,83,794.973,87,803.973" style="stroke:#181818;stroke-width:1.0;"/><text fill="#000000" font-family="sans-serif" font-size="13" lengthAdjust="spacing" textLength="153" x="88" y="770.0669">3 min. antes de hora fin</text></g><!--link NotificacionFin to NotificacionFin--><g id="link_NotificacionFin_NotificacionFin"><path d="M150.948,817.393 C170.341,817.684 185.5,821.553 185.5,829 C185.5,836.447 176.3403,840.226 156.9473,840.517 " fill="none" id="NotificacionFin-to-NotificacionFin" style="stroke:#181818;stroke-width:1.0;"/><polygon fill="#181818" points="150.948,840.607,160.007,844.4715,155.9474,840.532,159.887,836.4724,150.948,840.607" style="stroke:#181818;stroke-width:1.0;"/><text fill="#000000" font-family="sans-serif" font-size="13" lengthAdjust="spacing" textLength="170" x="191.5" y="833.5669">Finalizaci&#243;n no confirmada</text></g><!--link NotificacionFin to PistaLibre--><g id="link_NotificacionFin_PistaLibre"><path d="M110.709,854.097 C127.341,869.673 150.845,889.176 175,901 C234.25,930.004 303.9337,943.1182 351.6967,949.4282 " fill="none" id="NotificacionFin-to-PistaLibre" style="stroke:#181818;stroke-width:1.0;"/><polygon fill="#181818" points="357.645,950.214,349.2464,945.0697,352.6881,949.5591,348.1986,953.0008,357.645,950.214" style="stroke:#181818;stroke-width:1.0;"/><text fill="#000000" font-family="sans-serif" font-size="13" lengthAdjust="spacing" textLength="201" x="176" y="897.0669">Confirmar finalizaci&#243;n actividad</text></g><!--link NotificacionInicio to ActividadNoIniciada--><g id="link_NotificacionInicio_ActividadNoIniciada"><path d="M159.285,437.747 C181.081,446.043 204.403,456.764 224,470 C276.959,505.769 321.4342,559.4691 346.0702,592.1631 " fill="none" id="NotificacionInicio-to-ActividadNoIniciada" style="stroke:#181818;stroke-width:1.0;"/><polygon fill="#181818" points="349.681,596.955,347.4593,587.36,346.672,592.9618,341.0702,592.1744,349.681,596.955" style="stroke:#181818;stroke-width:1.0;"/><text fill="#000000" font-family="sans-serif" font-size="13" lengthAdjust="spacing" textLength="159" x="248" y="483.0669">Actividad No Confirmada</text></g><!--link ActividadNoIniciada to PistaLibre--><g id="link_ActividadNoIniciada_PistaLibre"><path d="M369.691,647.144 C376.526,708.472 393.8315,863.7539 400.6545,924.9829 " fill="none" id="ActividadNoIniciada-to-PistaLibre" style="stroke:#181818;stroke-width:1.0;"/><polygon fill="#181818" points="401.319,930.946,404.2977,921.5584,400.7653,925.9768,396.3469,922.4444,401.319,930.946" style="stroke:#181818;stroke-width:1.0;"/></g><!--link PistaLibre to *end*--><g id="link_PistaLibre_*end*"><path d="M441.22,981.2183 C474.845,1003.0975 516.8959,1030.4599 536.1949,1043.0172 " fill="none" id="PistaLibre-to-*end*" style="stroke:#181818;stroke-width:1.0;"/><polygon fill="#181818" points="541.224,1046.2895,535.8619,1038.0283,537.0331,1043.5626,531.4988,1044.7338,541.224,1046.2895" style="stroke:#181818;stroke-width:1.0;"/></g><!--link PermisoDenegado to *end*--><g id="link_PermisoDenegado_*end*"><path d="M564.74,360.418 C584.503,387.389 612,432.924 612,477.5 C612,477.5 612,477.5 612,957 C612,995.7986 579.8773,1027.2793 562.9543,1041.5089 " fill="none" id="PermisoDenegado-to-*end*" style="stroke:#181818;stroke-width:1.0;"/><polygon fill="#181818" points="558.362,1045.3703,567.8248,1042.6397,562.1889,1042.1524,562.6762,1036.5166,558.362,1045.3703" style="stroke:#181818;stroke-width:1.0;"/><text fill="#000000" font-family="sans-serif" font-size="13" lengthAdjust="spacing" textLength="56" x="613" y="706.5669">Cancelar</text></g><!--SRC=[ZPB1IWCn48RlUOevQg5YyTQ3K2o2K9RYjVGm9hDsO7SYIH3iQ_a8lfZ9hcQtQnQyXF1d_d- -6N9O766vl8SzkPO3kye6hbcZPYlaOGrFmfhHgPc2xFLse-ajeB7Hr5__OzgIq6jlUYPzmlElQvINoiS97L9oh6wXPRa1b11J3S79EWJkdbN1aOBwwqO7VcU39gOyMAdPjUWWgtFc8iMGvLb0vxGhak0eGNv01-e7q9xnMarfKfCjUNJEDisWguBs1-WnTb_3NMabDOkQbfRjySI6pr7v-XGGc-Sn2CM8FVk0Etw9auvNML_aO8QUssmUgxBzZulzngkjR0utg4hLbp1gn9LU3ekZcdwv7prnesXgq7q3]--></g></svg>