<?xml version="1.0" encoding="us-ascii" standalone="no"?><svg xmlns="http://www.w3.org/2000/svg" xmlns:xlink="http://www.w3.org/1999/xlink" contentStyleType="text/css" height="693px" preserveAspectRatio="none" style="width:1212px;height:693px;background:#FFFFFF;" version="1.1" viewBox="0 0 1212 693" width="1212px" zoomAndPan="magnify"><defs/><g><rect fill="#F1F1F1" height="33.9688" rx="12.5" ry="12.5" style="stroke:#181818;stroke-width:0.5;" width="51" x="659.5" y="11"/><text fill="#000000" font-family="sans-serif" font-size="12" lengthAdjust="spacing" textLength="31" x="669.5" y="32.1387">Inicio</text><rect fill="#F1F1F1" height="33.9688" rx="12.5" ry="12.5" style="stroke:#181818;stroke-width:0.5;" width="201" x="584.5" y="64.9688"/><text fill="#000000" font-family="sans-serif" font-size="12" lengthAdjust="spacing" textLength="181" x="594.5" y="86.1074">Solicitar uso de notificaciones</text><polygon fill="#F1F1F1" points="614,118.9375,756,118.9375,768,130.9375,756,142.9375,614,142.9375,602,130.9375,614,118.9375" style="stroke:#181818;stroke-width:0.5;"/><text fill="#000000" font-family="sans-serif" font-size="11" lengthAdjust="spacing" textLength="142" x="614" y="134.7456">Notificaciones aceptadas</text><text fill="#000000" font-family="sans-serif" font-size="11" lengthAdjust="spacing" textLength="11" x="591" y="128.3433">S&#237;</text><text fill="#000000" font-family="sans-serif" font-size="11" lengthAdjust="spacing" textLength="15" x="768" y="128.3433">No</text><rect fill="#F1F1F1" height="33.9688" rx="12.5" ry="12.5" style="stroke:#181818;stroke-width:0.5;" width="256" x="281.5" y="152.9375"/><text fill="#000000" font-family="sans-serif" font-size="12" lengthAdjust="spacing" textLength="236" x="291.5" y="174.0762">El sistema notifica al realizar la reserva</text><polygon fill="#F1F1F1" points="276,206.9063,543,206.9063,555,218.9063,543,230.9063,276,230.9063,264,218.9063,276,206.9063" style="stroke:#181818;stroke-width:0.5;"/><text fill="#000000" font-family="sans-serif" font-size="11" lengthAdjust="spacing" textLength="267" x="276" y="222.7144">Acceso confirmado: &#191;QR escaneado con &#233;xito?</text><text fill="#000000" font-family="sans-serif" font-size="11" lengthAdjust="spacing" textLength="11" x="253" y="216.312">S&#237;</text><text fill="#000000" font-family="sans-serif" font-size="11" lengthAdjust="spacing" textLength="15" x="555" y="216.312">No</text><rect fill="#F1F1F1" height="33.9688" rx="12.5" ry="12.5" style="stroke:#181818;stroke-width:0.5;" width="266" x="105" y="240.9063"/><text fill="#000000" font-family="sans-serif" font-size="12" lengthAdjust="spacing" textLength="246" x="115" y="262.0449">El sistema notifica al confirmar el acceso</text><rect fill="#F1F1F1" height="33.9688" rx="12.5" ry="12.5" style="stroke:#181818;stroke-width:0.5;" width="175" x="150.5" y="294.875"/><text fill="#000000" font-family="sans-serif" font-size="12" lengthAdjust="spacing" textLength="155" x="160.5" y="316.0137">Desarrollo de la actividad</text><rect fill="#F1F1F1" height="33.9688" rx="12.5" ry="12.5" style="stroke:#181818;stroke-width:0.5;" width="179" x="148.5" y="404.5542"/><text fill="#000000" font-family="sans-serif" font-size="12" lengthAdjust="spacing" textLength="159" x="158.5" y="425.6929">Finalizaci&#243;n no confirmada</text><polygon fill="#F1F1F1" points="48,348.8438,428,348.8438,440,360.8438,428,372.8438,48,372.8438,36,360.8438,48,348.8438" style="stroke:#181818;stroke-width:0.5;"/><text fill="#000000" font-family="sans-serif" font-size="11" lengthAdjust="spacing" textLength="15" x="242" y="383.0542">No</text><text fill="#000000" font-family="sans-serif" font-size="11" lengthAdjust="spacing" textLength="380" x="48" y="364.6519">Abandono de instalaciones confirmado: &#191;QR escaneado con &#233;xito?</text><text fill="#000000" font-family="sans-serif" font-size="11" lengthAdjust="spacing" textLength="11" x="25" y="358.2495">Si</text><rect fill="#F1F1F1" height="33.9688" rx="12.5" ry="12.5" style="stroke:#181818;stroke-width:0.5;" width="369" x="53.5" y="480.5229"/><text fill="#000000" font-family="sans-serif" font-size="12" lengthAdjust="spacing" textLength="349" x="63.5" y="501.6616">El sistema notifica al confirmar el abandono de instalaci&#243;n</text><rect fill="#F1F1F1" height="33.9688" rx="12.5" ry="12.5" style="stroke:#181818;stroke-width:0.5;" width="218" x="472" y="240.9063"/><text fill="#000000" font-family="sans-serif" font-size="12" lengthAdjust="spacing" textLength="198" x="482" y="262.0449">No se ha desarrollado la activiad</text><polygon fill="#F1F1F1" points="409.5,520.4917,421.5,532.4917,409.5,544.4917,397.5,532.4917,409.5,520.4917" style="stroke:#181818;stroke-width:0.5;"/><rect fill="#F1F1F1" height="33.9688" rx="12.5" ry="12.5" style="stroke:#181818;stroke-width:0.5;" width="171" x="324" y="564.4917"/><text fill="#000000" font-family="sans-serif" font-size="12" lengthAdjust="spacing" textLength="151" x="334" y="585.6304">Pista disponible para uso</text><rect fill="#F1F1F1" height="33.9688" rx="12.5" ry="12.5" style="stroke:#181818;stroke-width:0.5;" width="129" x="896" y="152.9375"/><text fill="#000000" font-family="sans-serif" font-size="12" lengthAdjust="spacing" textLength="105" x="906" y="174.0762">Mostrar mensaje:</text><rect fill="#F1F1F1" height="33.9688" rx="12.5" ry="12.5" style="stroke:#181818;stroke-width:0.5;" width="481" x="720" y="206.9063"/><text fill="#000000" font-family="sans-serif" font-size="12" lengthAdjust="spacing" textLength="461" x="730" y="228.0449">El sistema no mostrar&#225; notificaciones sobre la reserva, active notificaciones</text><polygon fill="#F1F1F1" points="685,604.4604,697,616.4604,685,628.4604,673,616.4604,685,604.4604" style="stroke:#181818;stroke-width:0.5;"/><rect fill="#F1F1F1" height="33.9688" rx="12.5" ry="12.5" style="stroke:#181818;stroke-width:0.5;" width="37" x="666.5" y="648.4604"/><text fill="#000000" font-family="sans-serif" font-size="12" lengthAdjust="spacing" textLength="17" x="676.5" y="669.5991">Fin</text><line style="stroke:#181818;stroke-width:1.0;" x1="685" x2="685" y1="44.9688" y2="64.9688"/><polygon fill="#181818" points="681,54.9688,685,64.9688,689,54.9688,685,58.9688" style="stroke:#181818;stroke-width:1.0;"/><line style="stroke:#181818;stroke-width:1.0;" x1="238" x2="238" y1="274.875" y2="294.875"/><polygon fill="#181818" points="234,284.875,238,294.875,242,284.875,238,288.875" style="stroke:#181818;stroke-width:1.0;"/><line style="stroke:#181818;stroke-width:1.0;" x1="238" x2="238" y1="372.8438" y2="404.5542"/><polygon fill="#181818" points="234,394.5542,238,404.5542,242,394.5542,238,398.5542" style="stroke:#181818;stroke-width:1.0;"/><line style="stroke:#181818;stroke-width:1.0;" x1="238" x2="238" y1="438.5229" y2="448.5229"/><line style="stroke:#181818;stroke-width:1.0;" x1="238" x2="452" y1="448.5229" y2="448.5229"/><polygon fill="#181818" points="448,413.1362,452,403.1362,456,413.1362,452,409.1362" style="stroke:#181818;stroke-width:1.0;"/><line style="stroke:#181818;stroke-width:1.0;" x1="452" x2="452" y1="360.8438" y2="448.5229"/><line style="stroke:#181818;stroke-width:1.0;" x1="452" x2="440" y1="360.8438" y2="360.8438"/><polygon fill="#181818" points="450,356.8438,440,360.8438,450,364.8438,446,360.8438" style="stroke:#181818;stroke-width:1.0;"/><line style="stroke:#181818;stroke-width:1.0;" x1="36" x2="24" y1="360.8438" y2="360.8438"/><polygon fill="#181818" points="20,399.1362,24,409.1362,28,399.1362,24,403.1362" style="stroke:#181818;stroke-width:1.0;"/><line style="stroke:#181818;stroke-width:1.0;" x1="24" x2="24" y1="360.8438" y2="460.5229"/><line style="stroke:#181818;stroke-width:1.0;" x1="24" x2="238" y1="460.5229" y2="460.5229"/><line style="stroke:#181818;stroke-width:1.0;" x1="238" x2="238" y1="460.5229" y2="480.5229"/><polygon fill="#181818" points="234,470.5229,238,480.5229,242,470.5229,238,474.5229" style="stroke:#181818;stroke-width:1.0;"/><line style="stroke:#181818;stroke-width:1.0;" x1="238" x2="238" y1="328.8438" y2="348.8438"/><polygon fill="#181818" points="234,338.8438,238,348.8438,242,338.8438,238,342.8438" style="stroke:#181818;stroke-width:1.0;"/><line style="stroke:#181818;stroke-width:1.0;" x1="264" x2="238" y1="218.9063" y2="218.9063"/><line style="stroke:#181818;stroke-width:1.0;" x1="238" x2="238" y1="218.9063" y2="240.9063"/><polygon fill="#181818" points="234,230.9063,238,240.9063,242,230.9063,238,234.9063" style="stroke:#181818;stroke-width:1.0;"/><line style="stroke:#181818;stroke-width:1.0;" x1="555" x2="581" y1="218.9063" y2="218.9063"/><line style="stroke:#181818;stroke-width:1.0;" x1="581" x2="581" y1="218.9063" y2="240.9063"/><polygon fill="#181818" points="577,230.9063,581,240.9063,585,230.9063,581,234.9063" style="stroke:#181818;stroke-width:1.0;"/><line style="stroke:#181818;stroke-width:1.0;" x1="238" x2="238" y1="514.4917" y2="532.4917"/><line style="stroke:#181818;stroke-width:1.0;" x1="238" x2="397.5" y1="532.4917" y2="532.4917"/><polygon fill="#181818" points="387.5,528.4917,397.5,532.4917,387.5,536.4917,391.5,532.4917" style="stroke:#181818;stroke-width:1.0;"/><line style="stroke:#181818;stroke-width:1.0;" x1="581" x2="581" y1="274.875" y2="532.4917"/><line style="stroke:#181818;stroke-width:1.0;" x1="581" x2="421.5" y1="532.4917" y2="532.4917"/><polygon fill="#181818" points="431.5,528.4917,421.5,532.4917,431.5,536.4917,427.5,532.4917" style="stroke:#181818;stroke-width:1.0;"/><line style="stroke:#181818;stroke-width:1.0;" x1="409.5" x2="409.5" y1="186.9063" y2="206.9063"/><polygon fill="#181818" points="405.5,196.9063,409.5,206.9063,413.5,196.9063,409.5,200.9063" style="stroke:#181818;stroke-width:1.0;"/><line style="stroke:#181818;stroke-width:1.0;" x1="409.5" x2="409.5" y1="544.4917" y2="564.4917"/><polygon fill="#181818" points="405.5,554.4917,409.5,564.4917,413.5,554.4917,409.5,558.4917" style="stroke:#181818;stroke-width:1.0;"/><line style="stroke:#181818;stroke-width:1.0;" x1="960.5" x2="960.5" y1="186.9063" y2="206.9063"/><polygon fill="#181818" points="956.5,196.9063,960.5,206.9063,964.5,196.9063,960.5,200.9063" style="stroke:#181818;stroke-width:1.0;"/><line style="stroke:#181818;stroke-width:1.0;" x1="602" x2="409.5" y1="130.9375" y2="130.9375"/><line style="stroke:#181818;stroke-width:1.0;" x1="409.5" x2="409.5" y1="130.9375" y2="152.9375"/><polygon fill="#181818" points="405.5,142.9375,409.5,152.9375,413.5,142.9375,409.5,146.9375" style="stroke:#181818;stroke-width:1.0;"/><line style="stroke:#181818;stroke-width:1.0;" x1="768" x2="960.5" y1="130.9375" y2="130.9375"/><line style="stroke:#181818;stroke-width:1.0;" x1="960.5" x2="960.5" y1="130.9375" y2="152.9375"/><polygon fill="#181818" points="956.5,142.9375,960.5,152.9375,964.5,142.9375,960.5,146.9375" style="stroke:#181818;stroke-width:1.0;"/><line style="stroke:#181818;stroke-width:1.0;" x1="409.5" x2="409.5" y1="598.4604" y2="616.4604"/><line style="stroke:#181818;stroke-width:1.0;" x1="409.5" x2="673" y1="616.4604" y2="616.4604"/><polygon fill="#181818" points="663,612.4604,673,616.4604,663,620.4604,667,616.4604" style="stroke:#181818;stroke-width:1.0;"/><line style="stroke:#181818;stroke-width:1.0;" x1="960.5" x2="960.5" y1="240.875" y2="616.4604"/><line style="stroke:#181818;stroke-width:1.0;" x1="960.5" x2="697" y1="616.4604" y2="616.4604"/><polygon fill="#181818" points="707,612.4604,697,616.4604,707,620.4604,703,616.4604" style="stroke:#181818;stroke-width:1.0;"/><line style="stroke:#181818;stroke-width:1.0;" x1="685" x2="685" y1="98.9375" y2="118.9375"/><polygon fill="#181818" points="681,108.9375,685,118.9375,689,108.9375,685,112.9375" style="stroke:#181818;stroke-width:1.0;"/><line style="stroke:#181818;stroke-width:1.0;" x1="685" x2="685" y1="628.4604" y2="648.4604"/><polygon fill="#181818" points="681,638.4604,685,648.4604,689,638.4604,685,642.4604" style="stroke:#181818;stroke-width:1.0;"/><!--SRC=[ZP9DJWCn38NtSmelMuaJp2mG4Y2ne09w0ZVng4QPf8f3GTo69GjM7029kHZEJ5Fe3r9t-Nds-_BY-iQpuT1KzJmuNIMCy2G1B84FYLisgDUUfAa0k8N9RESKqD0geKMPGbgIXycy_vYg5A2-SY0iYJhSjW9q40aTlwgDGrqBnJKsGq7kVc4CgRi9lkNOeGqrV7_TFm29GK-wprVGlxzm2kS7bl-RbeOHo2bpDcbAoIK9nXYS6rwjL6WIhzcYBPBd9JjIk0Lw6_mWOoy9NKdXL5wM7E0Mzfhza8NX_jChxsyVBDRaxSPzpgNkr6SUmrMZiJKveHsOMG0zMQBADtba_6qS9Gq5udRyu3ibK3dBAdXUAECA8-RfoSfgtwA-3PAYedNa1H-fXkR8d40tglgtlVa32Oj8VuRcR0GxcDF1UGDPvOYR7m00]--></g></svg>