<?xml version="1.0" encoding="us-ascii" standalone="no"?><svg xmlns="http://www.w3.org/2000/svg" xmlns:xlink="http://www.w3.org/1999/xlink" contentStyleType="text/css" height="693px" preserveAspectRatio="none" style="width:1157px;height:693px;background:#FFFFFF;" version="1.1" viewBox="0 0 1157 693" width="1157px" zoomAndPan="magnify"><defs/><g><rect fill="#F1F1F1" height="33.9688" rx="12.5" ry="12.5" style="stroke:#181818;stroke-width:0.5;" width="51" x="607" y="11"/><text fill="#000000" font-family="sans-serif" font-size="12" lengthAdjust="spacing" textLength="31" x="617" y="32.1387">Inicio</text><rect fill="#F1F1F1" height="33.9688" rx="12.5" ry="12.5" style="stroke:#181818;stroke-width:0.5;" width="201" x="532" y="64.9688"/><text fill="#000000" font-family="sans-serif" font-size="12" lengthAdjust="spacing" textLength="181" x="542" y="86.1074">Solicitar uso de notificaciones</text><polygon fill="#F1F1F1" points="561.5,118.9375,703.5,118.9375,715.5,130.9375,703.5,142.9375,561.5,142.9375,549.5,130.9375,561.5,118.9375" style="stroke:#181818;stroke-width:0.5;"/><text fill="#000000" font-family="sans-serif" font-size="11" lengthAdjust="spacing" textLength="142" x="561.5" y="134.7456">Notificaciones aceptadas</text><text fill="#000000" font-family="sans-serif" font-size="11" lengthAdjust="spacing" textLength="11" x="538.5" y="128.3433">S&#237;</text><text fill="#000000" font-family="sans-serif" font-size="11" lengthAdjust="spacing" textLength="15" x="715.5" y="128.3433">No</text><rect fill="#F1F1F1" height="33.9688" rx="12.5" ry="12.5" style="stroke:#181818;stroke-width:0.5;" width="385" x="166.5" y="152.9375"/><text fill="#000000" font-family="sans-serif" font-size="12" lengthAdjust="spacing" textLength="365" x="176.5" y="174.0762">El sistema notifica 10 minutos antes del inicio de la actividad</text><polygon fill="#F1F1F1" points="213.5,206.9063,504.5,206.9063,516.5,218.9063,504.5,230.9063,213.5,230.9063,201.5,218.9063,213.5,206.9063" style="stroke:#181818;stroke-width:0.5;"/><text fill="#000000" font-family="sans-serif" font-size="11" lengthAdjust="spacing" textLength="291" x="213.5" y="222.7144">Confirmacion de usuario: Desarrollo de la actividad</text><text fill="#000000" font-family="sans-serif" font-size="11" lengthAdjust="spacing" textLength="11" x="190.5" y="216.312">S&#237;</text><text fill="#000000" font-family="sans-serif" font-size="11" lengthAdjust="spacing" textLength="15" x="516.5" y="216.312">No</text><rect fill="#F1F1F1" height="33.9688" rx="12.5" ry="12.5" style="stroke:#181818;stroke-width:0.5;" width="361" x="11" y="240.9063"/><text fill="#000000" font-family="sans-serif" font-size="12" lengthAdjust="spacing" textLength="341" x="21" y="262.0449">El sistema notifica 3 minutos antes del fin de la actividad</text><rect fill="#F1F1F1" height="33.9688" rx="12.5" ry="12.5" style="stroke:#181818;stroke-width:0.5;" width="328" x="27.5" y="294.875"/><text fill="#000000" font-family="sans-serif" font-size="12" lengthAdjust="spacing" textLength="308" x="37.5" y="316.0137">Confirmacion de usuario: Fializaci&#243;n de la actividad</text><rect fill="#F1F1F1" height="33.9688" rx="12.5" ry="12.5" style="stroke:#181818;stroke-width:0.5;" width="179" x="102" y="404.5542"/><text fill="#000000" font-family="sans-serif" font-size="12" lengthAdjust="spacing" textLength="159" x="112" y="425.6929">Finalizaci&#243;n no confirmada</text><polygon fill="#F1F1F1" points="125,348.8438,258,348.8438,270,360.8438,258,372.8438,125,372.8438,113,360.8438,125,348.8438" style="stroke:#181818;stroke-width:0.5;"/><text fill="#000000" font-family="sans-serif" font-size="11" lengthAdjust="spacing" textLength="15" x="195.5" y="383.0542">No</text><text fill="#000000" font-family="sans-serif" font-size="11" lengthAdjust="spacing" textLength="133" x="125" y="364.6519">Finalizaci&#243;n confirmada</text><text fill="#000000" font-family="sans-serif" font-size="11" lengthAdjust="spacing" textLength="11" x="102" y="358.2495">Si</text><rect fill="#F1F1F1" height="33.9688" rx="12.5" ry="12.5" style="stroke:#181818;stroke-width:0.5;" width="168" x="107.5" y="480.5229"/><text fill="#000000" font-family="sans-serif" font-size="12" lengthAdjust="spacing" textLength="148" x="117.5" y="501.6616">Abandono de instalaci&#243;n</text><rect fill="#F1F1F1" height="33.9688" rx="12.5" ry="12.5" style="stroke:#181818;stroke-width:0.5;" width="218" x="417.5" y="240.9063"/><text fill="#000000" font-family="sans-serif" font-size="12" lengthAdjust="spacing" textLength="198" x="427.5" y="262.0449">No se ha desarrollado la activiad</text><polygon fill="#F1F1F1" points="359,520.4917,371,532.4917,359,544.4917,347,532.4917,359,520.4917" style="stroke:#181818;stroke-width:0.5;"/><rect fill="#F1F1F1" height="33.9688" rx="12.5" ry="12.5" style="stroke:#181818;stroke-width:0.5;" width="171" x="273.5" y="564.4917"/><text fill="#000000" font-family="sans-serif" font-size="12" lengthAdjust="spacing" textLength="151" x="283.5" y="585.6304">Pista disponible para uso</text><rect fill="#F1F1F1" height="33.9688" rx="12.5" ry="12.5" style="stroke:#181818;stroke-width:0.5;" width="129" x="841.5" y="152.9375"/><text fill="#000000" font-family="sans-serif" font-size="12" lengthAdjust="spacing" textLength="105" x="851.5" y="174.0762">Mostrar mensaje:</text><rect fill="#F1F1F1" height="33.9688" rx="12.5" ry="12.5" style="stroke:#181818;stroke-width:0.5;" width="481" x="665.5" y="206.9063"/><text fill="#000000" font-family="sans-serif" font-size="12" lengthAdjust="spacing" textLength="461" x="675.5" y="228.0449">El sistema no mostrar&#225; notificaciones sobre la reserva, active notificaciones</text><polygon fill="#F1F1F1" points="632.5,604.4604,644.5,616.4604,632.5,628.4604,620.5,616.4604,632.5,604.4604" style="stroke:#181818;stroke-width:0.5;"/><rect fill="#F1F1F1" height="33.9688" rx="12.5" ry="12.5" style="stroke:#181818;stroke-width:0.5;" width="37" x="614" y="648.4604"/><text fill="#000000" font-family="sans-serif" font-size="12" lengthAdjust="spacing" textLength="17" x="624" y="669.5991">Fin</text><line style="stroke:#181818;stroke-width:1.0;" x1="632.5" x2="632.5" y1="44.9688" y2="64.9688"/><polygon fill="#181818" points="628.5,54.9688,632.5,64.9688,636.5,54.9688,632.5,58.9688" style="stroke:#181818;stroke-width:1.0;"/><line style="stroke:#181818;stroke-width:1.0;" x1="191.5" x2="191.5" y1="274.875" y2="294.875"/><polygon fill="#181818" points="187.5,284.875,191.5,294.875,195.5,284.875,191.5,288.875" style="stroke:#181818;stroke-width:1.0;"/><line style="stroke:#181818;stroke-width:1.0;" x1="191.5" x2="191.5" y1="372.8438" y2="404.5542"/><polygon fill="#181818" points="187.5,394.5542,191.5,404.5542,195.5,394.5542,191.5,398.5542" style="stroke:#181818;stroke-width:1.0;"/><line style="stroke:#181818;stroke-width:1.0;" x1="191.5" x2="191.5" y1="438.5229" y2="448.5229"/><line style="stroke:#181818;stroke-width:1.0;" x1="191.5" x2="293" y1="448.5229" y2="448.5229"/><polygon fill="#181818" points="289,413.1362,293,403.1362,297,413.1362,293,409.1362" style="stroke:#181818;stroke-width:1.0;"/><line style="stroke:#181818;stroke-width:1.0;" x1="293" x2="293" y1="360.8438" y2="448.5229"/><line style="stroke:#181818;stroke-width:1.0;" x1="293" x2="270" y1="360.8438" y2="360.8438"/><polygon fill="#181818" points="280,356.8438,270,360.8438,280,364.8438,276,360.8438" style="stroke:#181818;stroke-width:1.0;"/><line style="stroke:#181818;stroke-width:1.0;" x1="113" x2="90" y1="360.8438" y2="360.8438"/><polygon fill="#181818" points="86,399.1362,90,409.1362,94,399.1362,90,403.1362" style="stroke:#181818;stroke-width:1.0;"/><line style="stroke:#181818;stroke-width:1.0;" x1="90" x2="90" y1="360.8438" y2="460.5229"/><line style="stroke:#181818;stroke-width:1.0;" x1="90" x2="191.5" y1="460.5229" y2="460.5229"/><line style="stroke:#181818;stroke-width:1.0;" x1="191.5" x2="191.5" y1="460.5229" y2="480.5229"/><polygon fill="#181818" points="187.5,470.5229,191.5,480.5229,195.5,470.5229,191.5,474.5229" style="stroke:#181818;stroke-width:1.0;"/><line style="stroke:#181818;stroke-width:1.0;" x1="191.5" x2="191.5" y1="328.8438" y2="348.8438"/><polygon fill="#181818" points="187.5,338.8438,191.5,348.8438,195.5,338.8438,191.5,342.8438" style="stroke:#181818;stroke-width:1.0;"/><line style="stroke:#181818;stroke-width:1.0;" x1="201.5" x2="191.5" y1="218.9063" y2="218.9063"/><line style="stroke:#181818;stroke-width:1.0;" x1="191.5" x2="191.5" y1="218.9063" y2="240.9063"/><polygon fill="#181818" points="187.5,230.9063,191.5,240.9063,195.5,230.9063,191.5,234.9063" style="stroke:#181818;stroke-width:1.0;"/><line style="stroke:#181818;stroke-width:1.0;" x1="516.5" x2="526.5" y1="218.9063" y2="218.9063"/><line style="stroke:#181818;stroke-width:1.0;" x1="526.5" x2="526.5" y1="218.9063" y2="240.9063"/><polygon fill="#181818" points="522.5,230.9063,526.5,240.9063,530.5,230.9063,526.5,234.9063" style="stroke:#181818;stroke-width:1.0;"/><line style="stroke:#181818;stroke-width:1.0;" x1="191.5" x2="191.5" y1="514.4917" y2="532.4917"/><line style="stroke:#181818;stroke-width:1.0;" x1="191.5" x2="347" y1="532.4917" y2="532.4917"/><polygon fill="#181818" points="337,528.4917,347,532.4917,337,536.4917,341,532.4917" style="stroke:#181818;stroke-width:1.0;"/><line style="stroke:#181818;stroke-width:1.0;" x1="526.5" x2="526.5" y1="274.875" y2="532.4917"/><line style="stroke:#181818;stroke-width:1.0;" x1="526.5" x2="371" y1="532.4917" y2="532.4917"/><polygon fill="#181818" points="381,528.4917,371,532.4917,381,536.4917,377,532.4917" style="stroke:#181818;stroke-width:1.0;"/><line style="stroke:#181818;stroke-width:1.0;" x1="359" x2="359" y1="186.9063" y2="206.9063"/><polygon fill="#181818" points="355,196.9063,359,206.9063,363,196.9063,359,200.9063" style="stroke:#181818;stroke-width:1.0;"/><line style="stroke:#181818;stroke-width:1.0;" x1="359" x2="359" y1="544.4917" y2="564.4917"/><polygon fill="#181818" points="355,554.4917,359,564.4917,363,554.4917,359,558.4917" style="stroke:#181818;stroke-width:1.0;"/><line style="stroke:#181818;stroke-width:1.0;" x1="906" x2="906" y1="186.9063" y2="206.9063"/><polygon fill="#181818" points="902,196.9063,906,206.9063,910,196.9063,906,200.9063" style="stroke:#181818;stroke-width:1.0;"/><line style="stroke:#181818;stroke-width:1.0;" x1="549.5" x2="359" y1="130.9375" y2="130.9375"/><line style="stroke:#181818;stroke-width:1.0;" x1="359" x2="359" y1="130.9375" y2="152.9375"/><polygon fill="#181818" points="355,142.9375,359,152.9375,363,142.9375,359,146.9375" style="stroke:#181818;stroke-width:1.0;"/><line style="stroke:#181818;stroke-width:1.0;" x1="715.5" x2="906" y1="130.9375" y2="130.9375"/><line style="stroke:#181818;stroke-width:1.0;" x1="906" x2="906" y1="130.9375" y2="152.9375"/><polygon fill="#181818" points="902,142.9375,906,152.9375,910,142.9375,906,146.9375" style="stroke:#181818;stroke-width:1.0;"/><line style="stroke:#181818;stroke-width:1.0;" x1="359" x2="359" y1="598.4604" y2="616.4604"/><line style="stroke:#181818;stroke-width:1.0;" x1="359" x2="620.5" y1="616.4604" y2="616.4604"/><polygon fill="#181818" points="610.5,612.4604,620.5,616.4604,610.5,620.4604,614.5,616.4604" style="stroke:#181818;stroke-width:1.0;"/><line style="stroke:#181818;stroke-width:1.0;" x1="906" x2="906" y1="240.875" y2="616.4604"/><line style="stroke:#181818;stroke-width:1.0;" x1="906" x2="644.5" y1="616.4604" y2="616.4604"/><polygon fill="#181818" points="654.5,612.4604,644.5,616.4604,654.5,620.4604,650.5,616.4604" style="stroke:#181818;stroke-width:1.0;"/><line style="stroke:#181818;stroke-width:1.0;" x1="632.5" x2="632.5" y1="98.9375" y2="118.9375"/><polygon fill="#181818" points="628.5,108.9375,632.5,118.9375,636.5,108.9375,632.5,112.9375" style="stroke:#181818;stroke-width:1.0;"/><line style="stroke:#181818;stroke-width:1.0;" x1="632.5" x2="632.5" y1="628.4604" y2="648.4604"/><polygon fill="#181818" points="628.5,638.4604,632.5,648.4604,636.5,638.4604,632.5,642.4604" style="stroke:#181818;stroke-width:1.0;"/><!--SRC=[TL9BJiD03Dtd55ws4WiGksI5-4Wig91w0ZVZg4OJknfFYiHjE00hZj2BuIHjwNStyhpVl77vAbopLaKvr-YdZ0awKmW4efaRhj6lXQmg0BY1oUne2bZJAcD0cq9Uai1allcPEXIWV8vWR9bQt4l1tIsqB5rMPqfsVg08F4JeBIEwOEOr1mpLeD9RFgeqdDh1iaTrrc5YBU6935FI6C_8PsckvBc_4ATXkPp5DQv6UM6C_ENppUzLzkUI8y7aXUK0MsyL0qw1hUzt7_WOA7g0tKcIXAtgd7SyPpuiK8BAK0kBPOoZo4YZQ7HaD5FmoH8TlYqKW_u_OVS2D-Dc_DjtBzBXR2iLNhZ_2XFsYzCZYrEByaqj9z-ibiJmWqgeBgm8j2DgytsoUc2wI4EbYOpI6c_6O6ShEZXlGnPzVTKV]--></g></svg>