<?xml version="1.0" encoding="us-ascii" standalone="no"?><svg xmlns="http://www.w3.org/2000/svg" xmlns:xlink="http://www.w3.org/1999/xlink" contentStyleType="text/css" height="1181px" preserveAspectRatio="none" style="width:556px;height:1181px;background:#FFFFFF;" version="1.1" viewBox="0 0 556 1181" width="556px" zoomAndPan="magnify"><defs/><g><ellipse cx="377" cy="16" fill="#222222" rx="10" ry="10" style="stroke:#222222;stroke-width:1.0;"/><g id="PermitirNotificaciones"><rect fill="#F1F1F1" height="50" rx="12.5" ry="12.5" style="stroke:#181818;stroke-width:0.5;" width="181" x="286.5" y="103"/><line style="stroke:#181818;stroke-width:0.5;" x1="286.5" x2="467.5" y1="129.2969" y2="129.2969"/><text fill="#000000" font-family="sans-serif" font-size="14" lengthAdjust="spacing" textLength="161" x="296.5" y="120.9951">PermitirNotificaciones</text></g><g id="PermisoAceptado"><rect fill="#F1F1F1" height="50" rx="12.5" ry="12.5" style="stroke:#181818;stroke-width:0.5;" width="148" x="206" y="230"/><line style="stroke:#181818;stroke-width:0.5;" x1="206" x2="354" y1="256.2969" y2="256.2969"/><text fill="#000000" font-family="sans-serif" font-size="14" lengthAdjust="spacing" textLength="128" x="216" y="247.9951">PermisoAceptado</text></g><g id="PermisoDenegado"><rect fill="#F1F1F1" height="50" rx="12.5" ry="12.5" style="stroke:#181818;stroke-width:0.5;" width="151" x="398.5" y="310"/><line style="stroke:#181818;stroke-width:0.5;" x1="398.5" x2="549.5" y1="336.2969" y2="336.2969"/><text fill="#000000" font-family="sans-serif" font-size="14" lengthAdjust="spacing" textLength="131" x="408.5" y="327.9951">PermisoDenegado</text></g><g id="NotificacionInicio"><rect fill="#F1F1F1" height="50" rx="12.5" ry="12.5" style="stroke:#181818;stroke-width:0.5;" width="144" x="142" y="390"/><line style="stroke:#181818;stroke-width:0.5;" x1="142" x2="286" y1="416.2969" y2="416.2969"/><text fill="#000000" font-family="sans-serif" font-size="14" lengthAdjust="spacing" textLength="124" x="152" y="407.9951">NotificacionInicio</text></g><g id="InicioActividad"><rect fill="#F1F1F1" height="50" rx="12.5" ry="12.5" style="stroke:#181818;stroke-width:0.5;" width="125" x="58.5" y="517"/><line style="stroke:#181818;stroke-width:0.5;" x1="58.5" x2="183.5" y1="543.2969" y2="543.2969"/><text fill="#000000" font-family="sans-serif" font-size="14" lengthAdjust="spacing" textLength="105" x="68.5" y="534.9951">InicioActividad</text></g><g id="DesarrolloActividad"><rect fill="#F1F1F1" height="50" rx="12.5" ry="12.5" style="stroke:#181818;stroke-width:0.5;" width="160" x="41" y="677"/><line style="stroke:#181818;stroke-width:0.5;" x1="41" x2="201" y1="703.2969" y2="703.2969"/><text fill="#000000" font-family="sans-serif" font-size="14" lengthAdjust="spacing" textLength="140" x="51" y="694.9951">DesarrolloActividad</text></g><g id="NotificacionFin"><rect fill="#F1F1F1" height="50" rx="12.5" ry="12.5" style="stroke:#181818;stroke-width:0.5;" width="127" x="58.5" y="804"/><line style="stroke:#181818;stroke-width:0.5;" x1="58.5" x2="185.5" y1="830.2969" y2="830.2969"/><text fill="#000000" font-family="sans-serif" font-size="14" lengthAdjust="spacing" textLength="107" x="68.5" y="821.9951">NotificacionFin</text></g><g id="XXComprobacionPistaLibreXX"><rect fill="#F1F1F1" height="50" rx="12.5" ry="12.5" style="stroke:#181818;stroke-width:0.5;" width="238" x="7" y="931"/><line style="stroke:#181818;stroke-width:0.5;" x1="7" x2="245" y1="957.2969" y2="957.2969"/><text fill="#000000" font-family="sans-serif" font-size="14" lengthAdjust="spacing" textLength="218" x="17" y="948.9951">XXComprobacionPistaLibreXX</text></g><g id="PistaLibre"><rect fill="#F1F1F1" height="50" rx="12.5" ry="12.5" style="stroke:#181818;stroke-width:0.5;" width="92" x="253" y="1042"/><line style="stroke:#181818;stroke-width:0.5;" x1="253" x2="345" y1="1068.2969" y2="1068.2969"/><text fill="#000000" font-family="sans-serif" font-size="14" lengthAdjust="spacing" textLength="72" x="263" y="1059.9951">PistaLibre</text></g><g id="ActividadNoIniciada"><rect fill="#F1F1F1" height="50" rx="12.5" ry="12.5" style="stroke:#181818;stroke-width:0.5;" width="160" x="214" y="597"/><line style="stroke:#181818;stroke-width:0.5;" x1="214" x2="374" y1="623.2969" y2="623.2969"/><text fill="#000000" font-family="sans-serif" font-size="14" lengthAdjust="spacing" textLength="140" x="224" y="614.9951">ActividadNoIniciada</text></g><ellipse cx="420" cy="1164" fill="none" rx="11" ry="11" style="stroke:#222222;stroke-width:1.0;"/><ellipse cx="420" cy="1164" fill="#222222" rx="6" ry="6" style="stroke:#222222;stroke-width:1.0;"/><!--link *start* to PermitirNotificaciones--><g id="link_*start*_PermitirNotificaciones"><path d="M377,26 C377,42.63 377,72.66 377,96.87 " fill="none" id="*start*-to-PermitirNotificaciones" style="stroke:#181818;stroke-width:1.0;"/><polygon fill="#181818" points="377,102.87,381,93.87,377,97.87,373,93.87,377,102.87" style="stroke:#181818;stroke-width:1.0;"/><text fill="#000000" font-family="sans-serif" font-size="13" lengthAdjust="spacing" textLength="37" x="378" y="69.0669">Iniciar</text></g><!--link PermitirNotificaciones to PermisoAceptado--><g id="link_PermitirNotificaciones_PermisoAceptado"><path d="M358.297,153.1 C341.121,175.236 319.4813,203.1207 302.3233,225.2327 " fill="none" id="PermitirNotificaciones-to-PermisoAceptado" style="stroke:#181818;stroke-width:1.0;"/><polygon fill="#181818" points="298.645,229.973,307.3226,225.3147,301.7102,226.0228,301.0022,220.4104,298.645,229.973" style="stroke:#181818;stroke-width:1.0;"/><text fill="#000000" font-family="sans-serif" font-size="13" lengthAdjust="spacing" textLength="50" x="336" y="196.0669">Aceptar</text></g><!--link PermitirNotificaciones to PermisoDenegado--><g id="link_PermitirNotificaciones_PermisoDenegado"><path d="M388.508,153.32 C407.177,192.775 441.2817,264.8535 459.9407,304.2865 " fill="none" id="PermitirNotificaciones-to-PermisoDenegado" style="stroke:#181818;stroke-width:1.0;"/><polygon fill="#181818" points="462.507,309.71,462.2732,299.8639,460.3684,305.1904,455.0419,303.2856,462.507,309.71" style="stroke:#181818;stroke-width:1.0;"/><text fill="#000000" font-family="sans-serif" font-size="13" lengthAdjust="spacing" textLength="60" x="410" y="196.0669">Rechazar</text></g><!--link PermisoAceptado to NotificacionInicio--><g id="link_PermisoAceptado_NotificacionInicio"><path d="M229.973,280.062 C218.774,287.958 208.344,297.891 202,310 C188.925,334.954 194.1075,362.1502 201.7905,384.1962 " fill="none" id="PermisoAceptado-to-NotificacionInicio" style="stroke:#181818;stroke-width:1.0;"/><polygon fill="#181818" points="203.765,389.862,204.5804,380.047,202.1196,385.1405,197.026,382.6797,203.765,389.862" style="stroke:#181818;stroke-width:1.0;"/><text fill="#000000" font-family="sans-serif" font-size="13" lengthAdjust="spacing" textLength="177" x="203" y="339.5669">10 min. antes de hora inicio</text></g><!--link NotificacionInicio to InicioActividad--><g id="link_NotificacionInicio_InicioActividad"><path d="M148.75,440.245 C136.478,447.859 125.24,457.62 118,470 C109.841,483.951 109.6411,496.3324 112.5411,510.8424 " fill="none" id="NotificacionInicio-to-InicioActividad" style="stroke:#181818;stroke-width:1.0;"/><polygon fill="#181818" points="113.717,516.726,115.8756,507.1166,112.7371,511.823,108.0307,508.6845,113.717,516.726" style="stroke:#181818;stroke-width:1.0;"/><text fill="#000000" font-family="sans-serif" font-size="13" lengthAdjust="spacing" textLength="127" x="119" y="483.0669">Confirmar Actividad</text></g><!--link InicioActividad to DesarrolloActividad--><g id="link_InicioActividad_DesarrolloActividad"><path d="M121,567.341 C121,597.119 121,641.219 121,670.89 " fill="none" id="InicioActividad-to-DesarrolloActividad" style="stroke:#181818;stroke-width:1.0;"/><polygon fill="#181818" points="121,676.89,125,667.89,121,671.89,117,667.89,121,676.89" style="stroke:#181818;stroke-width:1.0;"/></g><!--link DesarrolloActividad to NotificacionFin--><g id="link_DesarrolloActividad_NotificacionFin"><path d="M119.02,727.314 C118.143,741.023 117.425,758.466 118,774 C118.361,783.77 118.6157,788.5327 119.3527,797.8467 " fill="none" id="DesarrolloActividad-to-NotificacionFin" style="stroke:#181818;stroke-width:1.0;"/><polygon fill="#181818" points="119.826,803.828,123.1036,794.5405,119.4316,798.8436,115.1285,795.1716,119.826,803.828" style="stroke:#181818;stroke-width:1.0;"/><text fill="#000000" font-family="sans-serif" font-size="13" lengthAdjust="spacing" textLength="153" x="119" y="770.0669">3 min. antes de hora fin</text></g><!--link NotificacionFin to XXComprobacionPistaLibreXX--><g id="link_NotificacionFin_XXComprobacionPistaLibreXX"><path d="M122.771,854.101 C123.48,876.236 124.3323,902.8641 125.0393,924.9761 " fill="none" id="NotificacionFin-to-XXComprobacionPistaLibreXX" style="stroke:#181818;stroke-width:1.0;"/><polygon fill="#181818" points="125.231,930.973,128.9413,921.8498,125.0712,925.9756,120.9454,922.1054,125.231,930.973" style="stroke:#181818;stroke-width:1.0;"/><text fill="#000000" font-family="sans-serif" font-size="13" lengthAdjust="spacing" textLength="86" x="126" y="897.0669">Confirmar Fin</text></g><!--link XXComprobacionPistaLibreXX to PistaLibre--><g id="link_XXComprobacionPistaLibreXX_PistaLibre"><path d="M164.394,981.191 C193.063,999.254 226.9936,1020.6315 255.6366,1038.6785 " fill="none" id="XXComprobacionPistaLibreXX-to-PistaLibre" style="stroke:#181818;stroke-width:1.0;"/><polygon fill="#181818" points="260.713,1041.877,255.2307,1033.695,256.4827,1039.2116,250.9661,1040.4636,260.713,1041.877" style="stroke:#181818;stroke-width:1.0;"/></g><!--link NotificacionInicio to ActividadNoIniciada--><g id="link_NotificacionInicio_ActividadNoIniciada"><path d="M233.092,440.259 C239.466,449.223 246.169,459.713 251,470 C270.988,512.559 282.3922,560.4393 288.4692,590.9843 " fill="none" id="NotificacionInicio-to-ActividadNoIniciada" style="stroke:#181818;stroke-width:1.0;"/><polygon fill="#181818" points="289.64,596.869,291.807,587.2615,288.6644,591.9651,283.9607,588.8225,289.64,596.869" style="stroke:#181818;stroke-width:1.0;"/><text fill="#000000" font-family="sans-serif" font-size="13" lengthAdjust="spacing" textLength="159" x="260" y="483.0669">Actividad No Confirmada</text></g><!--link ActividadNoIniciada to PistaLibre--><g id="link_ActividadNoIniciada_PistaLibre"><path d="M295.366,647.026 C296.847,675.17 299,723.203 299,764.5 C299,764.5 299,764.5 299,957 C299,986.142 299,1013.667 299,1035.756 " fill="none" id="ActividadNoIniciada-to-PistaLibre" style="stroke:#181818;stroke-width:1.0;"/><polygon fill="#181818" points="299,1041.756,303,1032.756,299,1036.756,295,1032.756,299,1041.756" style="stroke:#181818;stroke-width:1.0;"/></g><!--link PistaLibre to *end*--><g id="link_PistaLibre_*end*"><path d="M329.846,1092.2183 C357.154,1113.6578 390.4486,1139.7991 407.0156,1152.8055 " fill="none" id="PistaLibre-to-*end*" style="stroke:#181818;stroke-width:1.0;"/><polygon fill="#181818" points="411.735,1156.5106,407.126,1147.8067,407.8022,1153.423,402.1859,1154.0992,411.735,1156.5106" style="stroke:#181818;stroke-width:1.0;"/></g><!--link PermisoDenegado to *end*--><g id="link_PermisoDenegado_*end*"><path d="M474,360.035 C474,388.187 474,436.229 474,477.5 C474,477.5 474,477.5 474,1068 C474,1105.1838 446.5939,1136.8798 431.7559,1151.681 " fill="none" id="PermisoDenegado-to-*end*" style="stroke:#181818;stroke-width:1.0;"/><polygon fill="#181818" points="427.508,1155.9184,436.7048,1152.3943,431.0479,1152.3873,431.0549,1146.7304,427.508,1155.9184" style="stroke:#181818;stroke-width:1.0;"/><text fill="#000000" font-family="sans-serif" font-size="13" lengthAdjust="spacing" textLength="56" x="475" y="770.0669">Cancelar</text></g><!--SRC=[ZL71QiCm3BtxAtGkT6piriEWj0m69PIT0gK7rLPMGM8LnVImhv_jh6wNfMCtyVJUqvEqc-rXFd-1BMd7WRMIm0rRj2oUUbZ0csVBgEOEeMXxMLew1NGIHKFv7z6QF7qCedUoH_oyg6xy4ltM8KTAYgT7wDW_0FeGNHt1KHI1SzjCA9BHK2vju3CxTD5b9RvXxL2Xe6RCIierzQWgRNl5pGJsA-uh-pZbUIfgmzwCgKbUrolfJYg7Z6wv3xZXWr9T_yWRwUOFQZvp0UuTf0IlPFYrm_p1opgLb8aEpHHxDETQvivkjZVZPt_ZQHdqbbhKBm00]--></g></svg>