<?xml version="1.0" encoding="us-ascii" standalone="no"?><svg xmlns="http://www.w3.org/2000/svg" xmlns:xlink="http://www.w3.org/1999/xlink" contentStyleType="text/css" height="659px" preserveAspectRatio="none" style="width:560px;height:659px;background:#FFFFFF;" version="1.1" viewBox="0 0 560 659" width="560px" zoomAndPan="magnify"><defs/><g><g id="elem_Usuario"><rect fill="#F1F1F1" height="44.5938" style="stroke:#181818;stroke-width:0.5;" width="393" x="157" y="7"/><text fill="#000000" font-family="sans-serif" font-size="14" lengthAdjust="spacing" textLength="51" x="328" y="21.9951">Usuario</text><line style="stroke:#181818;stroke-width:0.5;" x1="158" x2="549" y1="27.2969" y2="27.2969"/><text fill="#000000" font-family="sans-serif" font-size="14" lengthAdjust="spacing" textLength="381" x="163" y="44.292">nombreUsuario : juancarlos@alumnos.uneatlantico.es</text></g><g id="elem_Reserva"><rect fill="#F1F1F1" height="93.4844" style="stroke:#181818;stroke-width:0.5;" width="135" x="286" y="129"/><text fill="#000000" font-family="sans-serif" font-size="14" lengthAdjust="spacing" textLength="57" x="325" y="143.9951">Reserva</text><line style="stroke:#181818;stroke-width:0.5;" x1="287" x2="420" y1="149.2969" y2="149.2969"/><text fill="#000000" font-family="sans-serif" font-size="14" lengthAdjust="spacing" textLength="123" x="292" y="166.292">horaInicio : 12:00</text><text fill="#000000" font-family="sans-serif" font-size="14" lengthAdjust="spacing" textLength="107" x="292" y="182.5889">horaFin : 13:00</text><text fill="#000000" font-family="sans-serif" font-size="14" lengthAdjust="spacing" textLength="112" x="292" y="198.8857">dia : 12/12/2023</text><text fill="#000000" font-family="sans-serif" font-size="14" lengthAdjust="spacing" textLength="58" x="292" y="215.1826">pista : 1</text></g><g id="elem_NotificacionReserva"><rect fill="#F1F1F1" height="60.8906" style="stroke:#181818;stroke-width:0.5;" width="238" x="87.5" y="299"/><text fill="#000000" font-family="sans-serif" font-size="14" lengthAdjust="spacing" textLength="143" x="135" y="313.9951">NotificacionReserva</text><line style="stroke:#181818;stroke-width:0.5;" x1="88.5" x2="324.5" y1="319.2969" y2="319.2969"/><text fill="#000000" font-family="sans-serif" font-size="14" lengthAdjust="spacing" textLength="197" x="93.5" y="336.292">Hora : Reserva.horaReserva</text><text fill="#000000" font-family="sans-serif" font-size="14" lengthAdjust="spacing" textLength="226" x="93.5" y="352.5889">Objetivo : Recordatorio reserva</text></g><g id="elem_NotificacionAcceso"><rect fill="#F1F1F1" height="60.8906" style="stroke:#181818;stroke-width:0.5;" width="351" x="7" y="437"/><text fill="#000000" font-family="sans-serif" font-size="14" lengthAdjust="spacing" textLength="137" x="114" y="451.9951">NotificacionAcceso</text><line style="stroke:#181818;stroke-width:0.5;" x1="8" x2="357" y1="457.2969" y2="457.2969"/><text fill="#000000" font-family="sans-serif" font-size="14" lengthAdjust="spacing" textLength="236" x="13" y="474.292">Hora : Reserva.horaAccesoAPista</text><text fill="#000000" font-family="sans-serif" font-size="14" lengthAdjust="spacing" textLength="339" x="13" y="490.5889">Objetivo : Notificar acceso registrado con &#233;xito</text></g><g id="elem_NotificacionFin"><rect fill="#F1F1F1" height="77.1875" style="stroke:#181818;stroke-width:0.5;" width="500" x="53.5" y="575"/><text fill="#000000" font-family="sans-serif" font-size="14" lengthAdjust="spacing" textLength="107" x="250" y="589.9951">NotificacionFin</text><line style="stroke:#181818;stroke-width:0.5;" x1="54.5" x2="552.5" y1="595.2969" y2="595.2969"/><text fill="#000000" font-family="sans-serif" font-size="14" lengthAdjust="spacing" textLength="228" x="59.5" y="612.292">Hora : Reserva.horaFinActividad</text><text fill="#000000" font-family="sans-serif" font-size="14" lengthAdjust="spacing" textLength="488" x="59.5" y="628.5889">Objetivo : Notificar abandono de instalacciones registrado con &#233;xito</text><text fill="#000000" font-family="sans-serif" font-size="14" lengthAdjust="spacing" textLength="134" x="59.5" y="644.8857">EstadoPista : Libre</text></g><!--link Usuario to Reserva--><g id="link_Usuario_Reserva"><path codeLine="27" d="M353.5,52.058 C353.5,72.301 353.5,97.233 353.5,122.942 " fill="none" id="Usuario-to-Reserva" style="stroke:#181818;stroke-width:1.0;"/><polygon fill="#181818" points="353.5,128.942,357.5,119.942,353.5,123.942,349.5,119.942,353.5,128.942" style="stroke:#181818;stroke-width:1.0;"/><text fill="#000000" font-family="sans-serif" font-size="13" lengthAdjust="spacing" textLength="149" x="354.5" y="95.0669">PermitirNotificaciones()</text></g><!--link Reserva to NotificacionReserva--><g id="link_Reserva_NotificacionReserva"><path codeLine="28" d="M285.895,216.126 C271.441,226.586 257.063,238.711 245.5,252 C233.561,265.72 226.5426,278.2373 219.9556,293.3403 " fill="none" id="Reserva-to-NotificacionReserva" style="stroke:#181818;stroke-width:1.0;"/><polygon fill="#181818" points="217.557,298.84,224.8214,292.1895,219.5559,294.2569,217.4885,288.9914,217.557,298.84" style="stroke:#181818;stroke-width:1.0;"/><text fill="#000000" font-family="sans-serif" font-size="13" lengthAdjust="spacing" textLength="138" x="246.5" y="265.0669">ReservaConfirmada()</text></g><!--link NotificacionReserva to NotificacionAcceso--><g id="link_NotificacionReserva_NotificacionAcceso"><path codeLine="29" d="M201.292,360.01 C197.294,382.665 192.8387,407.9113 188.8227,430.6693 " fill="none" id="NotificacionReserva-to-NotificacionAcceso" style="stroke:#181818;stroke-width:1.0;"/><polygon fill="#181818" points="187.78,436.578,193.2832,428.4101,188.6489,431.6541,185.4049,427.0198,187.78,436.578" style="stroke:#181818;stroke-width:1.0;"/><text fill="#000000" font-family="sans-serif" font-size="13" lengthAdjust="spacing" textLength="163" x="197.5" y="403.0669">EscanearC&#243;digoEntrada()</text></g><!--link NotificacionAcceso to NotificacionFin--><g id="link_NotificacionAcceso_NotificacionFin"><path codeLine="30" d="M186.616,498.199 C189.843,513.312 195.534,531.327 205.5,545 C213.714,556.2691 219.6439,562.6422 230.9419,571.2872 " fill="none" id="NotificacionAcceso-to-NotificacionFin" style="stroke:#181818;stroke-width:1.0;"/><polygon fill="#181818" points="235.707,574.9333,230.9902,566.2874,231.7361,571.8949,226.1287,572.6408,235.707,574.9333" style="stroke:#181818;stroke-width:1.0;"/><text fill="#000000" font-family="sans-serif" font-size="13" lengthAdjust="spacing" textLength="178" x="206.5" y="541.0669">EscanearC&#243;digodigoSalida()</text></g><!--link NotificacionFin to Reserva--><g id="link_NotificacionFin_Reserva"><path codeLine="31" d="M366.245,574.7624 C375.651,566.2085 384.021,556.2653 389.5,545 C446.455,427.893 418.232,379.013 389.5,252 C387.225,241.944 385.8823,237.1398 381.6043,227.5258 " fill="none" id="NotificacionFin-to-Reserva" style="stroke:#181818;stroke-width:1.0;"/><polygon fill="#181818" points="379.165,222.044,379.1694,231.8929,381.1977,226.6122,386.4784,228.6405,379.165,222.044" style="stroke:#181818;stroke-width:1.0;"/><text fill="#000000" font-family="sans-serif" font-size="13" lengthAdjust="spacing" textLength="104" x="423.5" y="403.0669">NuevaReserva()</text></g><!--SRC=[TPB1IiD048RlUOezjeVMsjvo44kfA4WjYWymtTtMAScEp6wA83wGPn-XB-PiiYarDf10-EVFD__iB6tsLWVrwYjW9FMPAUMetB1jbLpjAt0Qk21_2qLLElBZoba81RY0ciRMPryPDPndwoqVeEQy4SE3Grr3hgVvP9B4EtHHcJMAGQZhL_9C9zEPIE_eGoqAk2MlAE0MDGZEdNUv5w1OapIE_FGjnIVvD-21QeCcDX0e3iN9SHa_rzfwwgCtrVawPlpRecMmWeR0TYSk1aDAarF7xmyCrDCq7afFHodDjVH00wQtumQS8KVAM8LEeXMIGR3MzwHGQYakG-jqreyeIu_PsiMFHZUdTUPgRRd4W7mUsVh1C6ijqNvfHwTH5kIso2KOaBykERk4j8PSWcgG2yUBuu_17IrT7APBIUukfBbh7K9yNw30Vv3e_ZltghA7za8DXhy0]--></g></svg>