<?xml version="1.0" encoding="us-ascii" standalone="no"?><svg xmlns="http://www.w3.org/2000/svg" xmlns:xlink="http://www.w3.org/1999/xlink" contentStyleType="text/css" height="802px" preserveAspectRatio="none" style="width:663px;height:802px;background:#FFFFFF;" version="1.1" viewBox="0 0 663 802" width="663px" zoomAndPan="magnify"><defs/><g><!--class Reserva--><g id="elem_Reserva"><rect codeLine="1" fill="#F1F1F1" height="129.4844" id="Reserva" rx="2.5" ry="2.5" style="stroke:#181818;stroke-width:0.5;" width="120" x="210.5" y="194"/><ellipse cx="239.9" cy="210" fill="#ADD1B2" rx="11" ry="11" style="stroke:#181818;stroke-width:1.0;"/><path d="M244.0094,216 L236.2906,216 L236.2906,203.6094 L244.0094,203.6094 L244.0094,205.7656 L238.7438,205.7656 L238.7438,208.4375 L243.5094,208.4375 L243.5094,210.5938 L238.7438,210.5938 L238.7438,213.8438 L244.0094,213.8438 L244.0094,216 Z " fill="#000000"/><text fill="#000000" font-family="sans-serif" font-size="14" lengthAdjust="spacing" textLength="56" x="257.1" y="214.8467">Reserva</text><line style="stroke:#181818;stroke-width:0.5;" x1="211.5" x2="329.5" y1="226" y2="226"/><ellipse cx="221.5" cy="239.6484" fill="none" rx="3" ry="3" style="stroke:#038048;stroke-width:1.0;"/><text fill="#000000" font-family="sans-serif" font-size="14" lengthAdjust="spacing" textLength="33" x="230.5" y="242.9951">pista</text><ellipse cx="221.5" cy="255.9453" fill="none" rx="3" ry="3" style="stroke:#038048;stroke-width:1.0;"/><text fill="#000000" font-family="sans-serif" font-size="14" lengthAdjust="spacing" textLength="38" x="230.5" y="259.292">fecha</text><ellipse cx="221.5" cy="272.2422" fill="none" rx="3" ry="3" style="stroke:#038048;stroke-width:1.0;"/><text fill="#000000" font-family="sans-serif" font-size="14" lengthAdjust="spacing" textLength="31" x="230.5" y="275.5889">hora</text><ellipse cx="221.5" cy="288.5391" fill="none" rx="3" ry="3" style="stroke:#038048;stroke-width:1.0;"/><text fill="#000000" font-family="sans-serif" font-size="14" lengthAdjust="spacing" textLength="94" x="230.5" y="291.8857">disponibilidad</text><ellipse cx="221.5" cy="304.8359" fill="none" rx="3" ry="3" style="stroke:#038048;stroke-width:1.0;"/><text fill="#000000" font-family="sans-serif" font-size="14" lengthAdjust="spacing" textLength="47" x="230.5" y="308.1826">idPago</text><line style="stroke:#181818;stroke-width:0.5;" x1="211.5" x2="329.5" y1="315.4844" y2="315.4844"/></g><g id="elem_GMN3"><path d="M6,231.05 L6,286.4484 A0,0 0 0 0 6,286.4484 L175,286.4484 A0,0 0 0 0 175,286.4484 L175,262.75 L210.21,258.75 L175,254.75 L175,241.05 L165,231.05 L6,231.05 A0,0 0 0 0 6,231.05 " fill="#FEFFDD" style="stroke:#181818;stroke-width:0.5;"/><path d="M165,231.05 L165,241.05 L175,241.05 L165,231.05 " fill="#FEFFDD" style="stroke:#181818;stroke-width:0.5;"/><text fill="#000000" font-family="sans-serif" font-size="13" lengthAdjust="spacing" textLength="102" x="12" y="248.1169">El sistema crea,</text><text fill="#000000" font-family="sans-serif" font-size="13" lengthAdjust="spacing" textLength="118" x="12" y="263.2497">cancela y muestra</text><text fill="#000000" font-family="sans-serif" font-size="13" lengthAdjust="spacing" textLength="148" x="12" y="278.3825">el historial de reservas.</text></g><!--class Usuario--><g id="elem_Usuario"><rect codeLine="15" fill="#F1F1F1" height="96.8906" id="Usuario" rx="2.5" ry="2.5" style="stroke:#181818;stroke-width:0.5;" width="84" x="422.5" y="210.3"/><ellipse cx="437.5" cy="226.3" fill="#ADD1B2" rx="11" ry="11" style="stroke:#181818;stroke-width:1.0;"/><path d="M441.6094,232.3 L433.8906,232.3 L433.8906,219.9094 L441.6094,219.9094 L441.6094,222.0656 L436.3438,222.0656 L436.3438,224.7375 L441.1094,224.7375 L441.1094,226.8937 L436.3438,226.8937 L436.3438,230.1437 L441.6094,230.1437 L441.6094,232.3 Z " fill="#000000"/><text fill="#000000" font-family="sans-serif" font-size="14" lengthAdjust="spacing" textLength="52" x="451.5" y="231.1467">Usuario</text><line style="stroke:#181818;stroke-width:0.5;" x1="423.5" x2="505.5" y1="242.3" y2="242.3"/><ellipse cx="433.5" cy="255.9484" fill="none" rx="3" ry="3" style="stroke:#038048;stroke-width:1.0;"/><text fill="#000000" font-family="sans-serif" font-size="14" lengthAdjust="spacing" textLength="54" x="442.5" y="259.2951">nombre</text><ellipse cx="433.5" cy="272.2453" fill="none" rx="3" ry="3" style="stroke:#038048;stroke-width:1.0;"/><text fill="#000000" font-family="sans-serif" font-size="14" lengthAdjust="spacing" textLength="36" x="442.5" y="275.592">email</text><ellipse cx="433.5" cy="288.5422" fill="none" rx="3" ry="3" style="stroke:#038048;stroke-width:1.0;"/><text fill="#000000" font-family="sans-serif" font-size="14" lengthAdjust="spacing" textLength="57" x="442.5" y="291.8889">telefono</text><line style="stroke:#181818;stroke-width:0.5;" x1="423.5" x2="505.5" y1="299.1906" y2="299.1906"/></g><!--class Pista--><g id="elem_Pista"><rect codeLine="20" fill="#F1F1F1" height="96.8906" id="Pista" rx="2.5" ry="2.5" style="stroke:#181818;stroke-width:0.5;" width="96" x="101.5" y="462.49"/><ellipse cx="130.45" cy="478.49" fill="#ADD1B2" rx="11" ry="11" style="stroke:#181818;stroke-width:1.0;"/><path d="M134.5594,484.49 L126.8406,484.49 L126.8406,472.0994 L134.5594,472.0994 L134.5594,474.2556 L129.2938,474.2556 L129.2938,476.9275 L134.0594,476.9275 L134.0594,479.0838 L129.2938,479.0838 L129.2938,482.3338 L134.5594,482.3338 L134.5594,484.49 Z " fill="#000000"/><text fill="#000000" font-family="sans-serif" font-size="14" lengthAdjust="spacing" textLength="33" x="147.55" y="483.3367">Pista</text><line style="stroke:#181818;stroke-width:0.5;" x1="102.5" x2="196.5" y1="494.49" y2="494.49"/><ellipse cx="112.5" cy="508.1384" fill="none" rx="3" ry="3" style="stroke:#038048;stroke-width:1.0;"/><text fill="#000000" font-family="sans-serif" font-size="14" lengthAdjust="spacing" textLength="54" x="121.5" y="511.4851">n&#250;mero</text><ellipse cx="112.5" cy="524.4353" fill="none" rx="3" ry="3" style="stroke:#038048;stroke-width:1.0;"/><text fill="#000000" font-family="sans-serif" font-size="14" lengthAdjust="spacing" textLength="48" x="121.5" y="527.782">horario</text><ellipse cx="112.5" cy="540.7322" fill="none" rx="3" ry="3" style="stroke:#038048;stroke-width:1.0;"/><text fill="#000000" font-family="sans-serif" font-size="14" lengthAdjust="spacing" textLength="70" x="121.5" y="544.0789">capacidad</text><line style="stroke:#181818;stroke-width:0.5;" x1="102.5" x2="196.5" y1="551.3806" y2="551.3806"/></g><!--class Pago--><g id="elem_Pago"><rect codeLine="26" fill="#F1F1F1" height="96.8906" id="Pago" rx="2.5" ry="2.5" style="stroke:#181818;stroke-width:0.5;" width="115" x="318" y="462.49"/><ellipse cx="354.6" cy="478.49" fill="#ADD1B2" rx="11" ry="11" style="stroke:#181818;stroke-width:1.0;"/><path d="M358.7094,484.49 L350.9906,484.49 L350.9906,472.0994 L358.7094,472.0994 L358.7094,474.2556 L353.4438,474.2556 L353.4438,476.9275 L358.2094,476.9275 L358.2094,479.0838 L353.4438,479.0838 L353.4438,482.3338 L358.7094,482.3338 L358.7094,484.49 Z " fill="#000000"/><text fill="#000000" font-family="sans-serif" font-size="14" lengthAdjust="spacing" textLength="35" x="373.4" y="483.3367">Pago</text><line style="stroke:#181818;stroke-width:0.5;" x1="319" x2="432" y1="494.49" y2="494.49"/><ellipse cx="329" cy="508.1384" fill="none" rx="3" ry="3" style="stroke:#038048;stroke-width:1.0;"/><text fill="#000000" font-family="sans-serif" font-size="14" lengthAdjust="spacing" textLength="12" x="338" y="511.4851">id</text><ellipse cx="329" cy="524.4353" fill="none" rx="3" ry="3" style="stroke:#038048;stroke-width:1.0;"/><text fill="#000000" font-family="sans-serif" font-size="14" lengthAdjust="spacing" textLength="89" x="338" y="527.782">metodoPago</text><ellipse cx="329" cy="540.7322" fill="none" rx="3" ry="3" style="stroke:#038048;stroke-width:1.0;"/><text fill="#000000" font-family="sans-serif" font-size="14" lengthAdjust="spacing" textLength="45" x="338" y="544.0789">monto</text><line style="stroke:#181818;stroke-width:0.5;" x1="319" x2="432" y1="551.3806" y2="551.3806"/></g><!--class Bono--><g id="elem_Bono"><rect codeLine="32" fill="#F1F1F1" height="64.2969" id="Bono" rx="2.5" ry="2.5" style="stroke:#181818;stroke-width:0.5;" width="134" x="308.5" y="714.68"/><ellipse cx="352.75" cy="730.68" fill="#ADD1B2" rx="11" ry="11" style="stroke:#181818;stroke-width:1.0;"/><path d="M356.8594,736.68 L349.1406,736.68 L349.1406,724.2894 L356.8594,724.2894 L356.8594,726.4456 L351.5938,726.4456 L351.5938,729.1175 L356.3594,729.1175 L356.3594,731.2738 L351.5938,731.2738 L351.5938,734.5238 L356.8594,734.5238 L356.8594,736.68 Z " fill="#000000"/><text fill="#000000" font-family="sans-serif" font-size="14" lengthAdjust="spacing" textLength="37" x="373.25" y="735.5267">Bono</text><line style="stroke:#181818;stroke-width:0.5;" x1="309.5" x2="441.5" y1="746.68" y2="746.68"/><ellipse cx="319.5" cy="760.3284" fill="none" rx="3" ry="3" style="stroke:#038048;stroke-width:1.0;"/><text fill="#000000" font-family="sans-serif" font-size="14" lengthAdjust="spacing" textLength="108" x="328.5" y="763.6751">horasAbonadas</text><line style="stroke:#181818;stroke-width:0.5;" x1="309.5" x2="441.5" y1="770.9769" y2="770.9769"/></g><!--class Factura--><g id="elem_Factura"><rect codeLine="36" fill="#F1F1F1" height="96.8906" id="Factura" rx="2.5" ry="2.5" style="stroke:#181818;stroke-width:0.5;" width="118" x="538.5" y="698.38"/><ellipse cx="569.25" cy="714.38" fill="#ADD1B2" rx="11" ry="11" style="stroke:#181818;stroke-width:1.0;"/><path d="M573.3594,720.38 L565.6406,720.38 L565.6406,707.9894 L573.3594,707.9894 L573.3594,710.1456 L568.0938,710.1456 L568.0938,712.8175 L572.8594,712.8175 L572.8594,714.9738 L568.0938,714.9738 L568.0938,718.2238 L573.3594,718.2238 L573.3594,720.38 Z " fill="#000000"/><text fill="#000000" font-family="sans-serif" font-size="14" lengthAdjust="spacing" textLength="51" x="586.75" y="719.2267">Factura</text><line style="stroke:#181818;stroke-width:0.5;" x1="539.5" x2="655.5" y1="730.38" y2="730.38"/><ellipse cx="549.5" cy="744.0284" fill="none" rx="3" ry="3" style="stroke:#038048;stroke-width:1.0;"/><text fill="#000000" font-family="sans-serif" font-size="14" lengthAdjust="spacing" textLength="92" x="558.5" y="747.3751">fechaEmision</text><ellipse cx="549.5" cy="760.3253" fill="none" rx="3" ry="3" style="stroke:#038048;stroke-width:1.0;"/><text fill="#000000" font-family="sans-serif" font-size="14" lengthAdjust="spacing" textLength="30" x="558.5" y="763.672">total</text><ellipse cx="549.5" cy="776.6222" fill="none" rx="3" ry="3" style="stroke:#038048;stroke-width:1.0;"/><text fill="#000000" font-family="sans-serif" font-size="14" lengthAdjust="spacing" textLength="48" x="558.5" y="779.9689">estado</text><line style="stroke:#181818;stroke-width:0.5;" x1="539.5" x2="655.5" y1="787.2706" y2="787.2706"/></g><!--class Tarifa--><g id="elem_Tarifa"><rect codeLine="42" fill="#F1F1F1" height="64.2969" id="Tarifa" rx="2.5" ry="2.5" style="stroke:#181818;stroke-width:0.5;" width="101" x="93" y="714.68"/><ellipse cx="122.4" cy="730.68" fill="#ADD1B2" rx="11" ry="11" style="stroke:#181818;stroke-width:1.0;"/><path d="M126.5094,736.68 L118.7906,736.68 L118.7906,724.2894 L126.5094,724.2894 L126.5094,726.4456 L121.2438,726.4456 L121.2438,729.1175 L126.0094,729.1175 L126.0094,731.2738 L121.2438,731.2738 L121.2438,734.5238 L126.5094,734.5238 L126.5094,736.68 Z " fill="#000000"/><text fill="#000000" font-family="sans-serif" font-size="14" lengthAdjust="spacing" textLength="37" x="139.6" y="735.5267">Tarifa</text><line style="stroke:#181818;stroke-width:0.5;" x1="94" x2="193" y1="746.68" y2="746.68"/><ellipse cx="104" cy="760.3284" fill="none" rx="3" ry="3" style="stroke:#038048;stroke-width:1.0;"/><text fill="#000000" font-family="sans-serif" font-size="14" lengthAdjust="spacing" textLength="75" x="113" y="763.6751">precioHora</text><line style="stroke:#181818;stroke-width:0.5;" x1="94" x2="193" y1="770.9769" y2="770.9769"/></g><!--class SistemaDeReservas--><g id="elem_SistemaDeReservas"><rect fill="#F1F1F1" height="48" id="SistemaDeReservas" rx="2.5" ry="2.5" style="stroke:#181818;stroke-width:0.5;" width="171" x="281" y="7"/><ellipse cx="296" cy="23" fill="#ADD1B2" rx="11" ry="11" style="stroke:#181818;stroke-width:1.0;"/><path d="M298.9688,28.6406 Q298.3906,28.9375 297.75,29.0781 Q297.1094,29.2344 296.4063,29.2344 Q293.9063,29.2344 292.5781,27.5938 Q291.2656,25.9375 291.2656,22.8125 Q291.2656,19.6875 292.5781,18.0313 Q293.9063,16.375 296.4063,16.375 Q297.1094,16.375 297.75,16.5313 Q298.4063,16.6875 298.9688,16.9844 L298.9688,19.7031 Q298.3438,19.125 297.75,18.8594 Q297.1563,18.5781 296.5313,18.5781 Q295.1875,18.5781 294.5,19.6563 Q293.8125,20.7188 293.8125,22.8125 Q293.8125,24.9063 294.5,25.9844 Q295.1875,27.0469 296.5313,27.0469 Q297.1563,27.0469 297.75,26.7813 Q298.3438,26.5 298.9688,25.9219 L298.9688,28.6406 Z " fill="#000000"/><text fill="#000000" font-family="sans-serif" font-size="14" lengthAdjust="spacing" textLength="139" x="310" y="27.8467">SistemaDeReservas</text><line style="stroke:#181818;stroke-width:0.5;" x1="282" x2="451" y1="39" y2="39"/><line style="stroke:#181818;stroke-width:0.5;" x1="282" x2="451" y1="47" y2="47"/></g><!--link SistemaDeReservas to Reserva--><g id="link_SistemaDeReservas_Reserva"><path codeLine="47" d="M356.59,55.31 C342.84,87.64 317.45,147.34 297.8,193.56 " fill="none" id="SistemaDeReservas-Reserva" style="stroke:#181818;stroke-width:1.0;"/><text fill="#000000" font-family="sans-serif" font-size="13" lengthAdjust="spacing" textLength="57" x="331.5" y="129.0669">Gestiona</text></g><!--link SistemaDeReservas to Usuario--><g id="link_SistemaDeReservas_Usuario"><path codeLine="48" d="M376.62,55.31 C392.41,91.7 423.26,162.74 443.87,210.23 " fill="none" id="SistemaDeReservas-Usuario" style="stroke:#181818;stroke-width:1.0;stroke-dasharray:7.0,7.0;"/><polygon fill="#000000" points="417.491,129.1529,416.5851,119.6856,411.1934,122.0261,417.491,129.1529" style="stroke:#000000;stroke-width:1.0;"/><text fill="#000000" font-family="sans-serif" font-size="13" lengthAdjust="spacing" textLength="91" x="424.5" y="129.0669">Crea y elimina</text></g><!--link Reserva to Usuario--><g id="link_Reserva_Usuario"><path codeLine="49" d="M330.82,258.75 C360.41,258.75 395.33,258.75 422.06,258.75 " fill="none" id="Reserva-Usuario" style="stroke:#181818;stroke-width:1.0;"/><polygon fill="#000000" points="348,247.3164,357.0451,250.2553,357.0451,244.3775,348,247.3164" style="stroke:#000000;stroke-width:1.0;"/><text fill="#000000" font-family="sans-serif" font-size="13" lengthAdjust="spacing" textLength="42" x="362" y="251.8169">realiza</text></g><!--link Reserva to Pago--><g id="link_Reserva_Pago"><path codeLine="50" d="M297.4,323.85 C315.51,367 339,422.95 355.46,462.2 " fill="none" id="Reserva-Pago" style="stroke:#181818;stroke-width:1.0;"/><text fill="#000000" font-family="sans-serif" font-size="13" lengthAdjust="spacing" textLength="53" x="331.5" y="397.5569">requiere</text></g><!--link Reserva to Pista--><g id="link_Reserva_Pista"><path codeLine="51" d="M231.05,323.81 C219.91,343 208.19,364.32 198.5,384.49 C186.45,409.57 175.01,438.44 166.23,462.15 " fill="none" id="Reserva-Pista" style="stroke:#181818;stroke-width:1.0;"/><text fill="#000000" font-family="sans-serif" font-size="13" lengthAdjust="spacing" textLength="115" x="199.5" y="397.5569">se lleva a cabo en</text></g><!--link Pista to Tarifa--><g id="link_Pista_Tarifa"><path codeLine="52" d="M148.27,559.83 C147.09,606.07 145.32,674.76 144.31,714.43 " fill="none" id="Pista-Tarifa" style="stroke:#181818;stroke-width:1.0;"/><text fill="#000000" font-family="sans-serif" font-size="13" lengthAdjust="spacing" textLength="160" x="148.5" y="633.4469">se fija el precio mediante</text></g><!--link Pago to Factura--><g id="link_Pago_Factura"><path codeLine="53" d="M433.17,541.21 C466.33,560.26 506.94,587.63 535.5,620.38 C555.22,642.99 570.34,672.98 580.71,697.97 " fill="none" id="Pago-Factura" style="stroke:#181818;stroke-width:1.0;"/><text fill="#000000" font-family="sans-serif" font-size="13" lengthAdjust="spacing" textLength="75" x="548.5" y="633.4469">Que genera</text></g><!--link Pago to Bono--><g id="link_Pago_Bono"><path codeLine="54" d="M375.5,559.83 C375.5,606.07 375.5,674.76 375.5,714.43 " fill="none" id="Pago-Bono" style="stroke:#181818;stroke-width:1.0;"/><polygon fill="#000000" points="380.5,623.9464,377.5611,632.9915,383.4389,632.9915,380.5,623.9464" style="stroke:#000000;stroke-width:1.0;"/><text fill="#000000" font-family="sans-serif" font-size="13" lengthAdjust="spacing" textLength="137" x="389.5" y="633.4469">Puede efectuarse por</text></g><!--SRC=[RL9BJWCn3Dtd5Dv3Uu0HgiIdmBBy3k1EFDGe4vSaWrHGByQMY-4aCwCYiNDY-zdlFPDFd0xmI9721yAN0JY3FSU49UgetTLe9w46bkDUF6_PiKLRljXky5NCqHWlYS1Hbq2w2TJ0sa5KIEeHsa1u3WPQz2qvX0Fq0yKKKF_8mKxB930wi0IXziUbfho5Z6qCrOLVue21PLpOIxyDL48Tmgv4YNGHyNcliMcJUKqjFzyz1PcvALY9MznZMvWTvs6PtTZ6bN5FIQmKrkKfFib9mvME7HioThpSYaUByQJa5jiqX6cRelEwvyZYw_AIiD9GTT2UWZ_hhjriLQ2MvJwRenNcgSfyGwFs4HQBnMH40tSAfXFmdxhbSjQqWHLSgqzg3ZdkMUkdr29xUmAuKfFGyIUQwOBolAnBevdtWKbj-PFA5ZGGzKeSwPzU16v5_JNLd5nJ2PQYZjymtqMbgR9RHgzdK1p9jQEC3JmC1A_aAL_Id2q-D701cu7qe4XbJaf4WVSIVW40]--></g></svg>