<?xml version="1.0" encoding="us-ascii" standalone="no"?><svg xmlns="http://www.w3.org/2000/svg" xmlns:xlink="http://www.w3.org/1999/xlink" contentStyleType="text/css" height="428px" preserveAspectRatio="none" style="width:315px;height:428px;background:#FFFFFF;" version="1.1" viewBox="0 0 315 428" width="315px" zoomAndPan="magnify"><defs/><g><ellipse cx="185.5" cy="20" fill="#222222" rx="10" ry="10" style="stroke:#222222;stroke-width:1.0;"/><rect fill="#F1F1F1" height="33.9688" rx="12.5" ry="12.5" style="stroke:#181818;stroke-width:0.5;" width="55" x="158" y="50"/><text fill="#000000" font-family="sans-serif" font-size="12" lengthAdjust="spacing" textLength="35" x="168" y="71.1387">Iniciar</text><rect fill="#F1F1F1" height="33.9688" rx="12.5" ry="12.5" style="stroke:#181818;stroke-width:0.5;" width="123" x="124" y="103.9688"/><text fill="#000000" font-family="sans-serif" font-size="12" lengthAdjust="spacing" textLength="103" x="134" y="125.1074">Ingresar Detalles</text><rect fill="#F1F1F1" height="33.9688" rx="12.5" ry="12.5" style="stroke:#181818;stroke-width:0.5;" width="148" x="111.5" y="157.9375"/><text fill="#000000" font-family="sans-serif" font-size="12" lengthAdjust="spacing" textLength="128" x="121.5" y="179.0762">Verificar Autorizaci&#243;n</text><polygon fill="#F1F1F1" points="125,211.9063,246,211.9063,258,223.9063,246,235.9063,125,235.9063,113,223.9063,125,211.9063" style="stroke:#181818;stroke-width:0.5;"/><text fill="#000000" font-family="sans-serif" font-size="11" lengthAdjust="spacing" textLength="121" x="125" y="227.7144">Autorizaci&#243;n Exitosa?</text><text fill="#000000" font-family="sans-serif" font-size="11" lengthAdjust="spacing" textLength="21" x="92" y="221.312">yes</text><text fill="#000000" font-family="sans-serif" font-size="11" lengthAdjust="spacing" textLength="14" x="258" y="221.312">no</text><rect fill="#F1F1F1" height="33.9688" rx="12.5" ry="12.5" style="stroke:#181818;stroke-width:0.5;" width="184" x="11" y="245.9063"/><text fill="#000000" font-family="sans-serif" font-size="12" lengthAdjust="spacing" textLength="164" x="21" y="267.0449">Proceso de Pago Completo</text><rect fill="#F1F1F1" height="33.9688" rx="12.5" ry="12.5" style="stroke:#181818;stroke-width:0.5;" width="72" x="232" y="245.9063"/><text fill="#000000" font-family="sans-serif" font-size="12" lengthAdjust="spacing" textLength="52" x="242" y="267.0449">Cancelar</text><ellipse cx="268" cy="310.875" fill="none" rx="11" ry="11" style="stroke:#222222;stroke-width:1.0;"/><ellipse cx="268" cy="310.875" fill="#222222" rx="6" ry="6" style="stroke:#222222;stroke-width:1.0;"/><rect fill="#F1F1F1" height="33.9688" rx="12.5" ry="12.5" style="stroke:#181818;stroke-width:0.5;" width="116" x="127.5" y="341.875"/><text fill="#000000" font-family="sans-serif" font-size="12" lengthAdjust="spacing" textLength="96" x="137.5" y="363.0137">Pago Cancelado</text><ellipse cx="185.5" cy="406.8438" fill="none" rx="11" ry="11" style="stroke:#222222;stroke-width:1.0;"/><ellipse cx="185.5" cy="406.8438" fill="#222222" rx="6" ry="6" style="stroke:#222222;stroke-width:1.0;"/><line style="stroke:#181818;stroke-width:1.0;" x1="185.5" x2="185.5" y1="30" y2="50"/><polygon fill="#181818" points="181.5,40,185.5,50,189.5,40,185.5,44" style="stroke:#181818;stroke-width:1.0;"/><line style="stroke:#181818;stroke-width:1.0;" x1="185.5" x2="185.5" y1="83.9688" y2="103.9688"/><polygon fill="#181818" points="181.5,93.9688,185.5,103.9688,189.5,93.9688,185.5,97.9688" style="stroke:#181818;stroke-width:1.0;"/><line style="stroke:#181818;stroke-width:1.0;" x1="185.5" x2="185.5" y1="137.9375" y2="157.9375"/><polygon fill="#181818" points="181.5,147.9375,185.5,157.9375,189.5,147.9375,185.5,151.9375" style="stroke:#181818;stroke-width:1.0;"/><line style="stroke:#181818;stroke-width:1.0;" x1="268" x2="268" y1="279.875" y2="299.875"/><polygon fill="#181818" points="264,289.875,268,299.875,272,289.875,268,293.875" style="stroke:#181818;stroke-width:1.0;"/><line style="stroke:#181818;stroke-width:1.0;" x1="113" x2="103" y1="223.9063" y2="223.9063"/><line style="stroke:#181818;stroke-width:1.0;" x1="103" x2="103" y1="223.9063" y2="245.9063"/><polygon fill="#181818" points="99,235.9063,103,245.9063,107,235.9063,103,239.9063" style="stroke:#181818;stroke-width:1.0;"/><line style="stroke:#181818;stroke-width:1.0;" x1="258" x2="268" y1="223.9063" y2="223.9063"/><line style="stroke:#181818;stroke-width:1.0;" x1="268" x2="268" y1="223.9063" y2="245.9063"/><polygon fill="#181818" points="264,235.9063,268,245.9063,272,235.9063,268,239.9063" style="stroke:#181818;stroke-width:1.0;"/><line style="stroke:#181818;stroke-width:1.0;" x1="103" x2="103" y1="279.875" y2="326.875"/><line style="stroke:#181818;stroke-width:1.0;" x1="103" x2="185.5" y1="326.875" y2="326.875"/><line style="stroke:#181818;stroke-width:1.0;" x1="185.5" x2="185.5" y1="326.875" y2="341.875"/><polygon fill="#181818" points="181.5,331.875,185.5,341.875,189.5,331.875,185.5,335.875" style="stroke:#181818;stroke-width:1.0;"/><line style="stroke:#181818;stroke-width:1.0;" x1="185.5" x2="185.5" y1="191.9063" y2="211.9063"/><polygon fill="#181818" points="181.5,201.9063,185.5,211.9063,189.5,201.9063,185.5,205.9063" style="stroke:#181818;stroke-width:1.0;"/><line style="stroke:#181818;stroke-width:1.0;" x1="185.5" x2="185.5" y1="375.8438" y2="395.8438"/><polygon fill="#181818" points="181.5,385.8438,185.5,395.8438,189.5,385.8438,185.5,389.8438" style="stroke:#181818;stroke-width:1.0;"/><!--SRC=[LOun3i9030JxUuNBv0jt1KA1WYuLlNLnWgNZ7Db62doB9_0n4bBHhMPtf3L7zH0lbJEZfYrDIeOA9t8iXMnbLr8UEQ_m-71HVc7cpxkcm2CqVmZE2xiO7bhm6rLedcHj08YzIYOJ60Xwd0GwkS-5N5AWOWHDbT-imvgfR4S0p6KEL0SUGzoTlHnMQUk-]--></g></svg>