<?xml version="1.0" encoding="us-ascii" standalone="no"?><svg xmlns="http://www.w3.org/2000/svg" xmlns:xlink="http://www.w3.org/1999/xlink" contentStyleType="text/css" height="585px" preserveAspectRatio="none" style="width:545px;height:585px;background:#FFFFFF;" version="1.1" viewBox="0 0 545 585" width="545px" zoomAndPan="magnify"><defs/><g><ellipse cx="247" cy="16" fill="#222222" rx="10" ry="10" style="stroke:#222222;stroke-width:1.0;"/><rect fill="#F1F1F1" height="40" rx="12.5" ry="12.5" style="stroke:#181818;stroke-width:0.5;" width="136" x="179" y="87"/><text fill="#000000" font-family="sans-serif" font-size="14" lengthAdjust="spacing" textLength="126" x="184" y="111.8467">ElegirMetodoPago</text><rect fill="#F1F1F1" height="40" rx="12.5" ry="12.5" style="stroke:#181818;stroke-width:0.5;" width="120" x="7" y="188"/><text fill="#000000" font-family="sans-serif" font-size="14" lengthAdjust="spacing" textLength="110" x="12" y="212.8467">PagoConTarjeta</text><rect fill="#F1F1F1" height="40" rx="12.5" ry="12.5" style="stroke:#181818;stroke-width:0.5;" width="118" x="188" y="188"/><text fill="#000000" font-family="sans-serif" font-size="14" lengthAdjust="spacing" textLength="108" x="193" y="212.8467">PagoConBonos</text><rect fill="#F1F1F1" height="40" rx="12.5" ry="12.5" style="stroke:#181818;stroke-width:0.5;" width="106" x="143" y="305"/><text fill="#000000" font-family="sans-serif" font-size="14" lengthAdjust="spacing" textLength="96" x="148" y="329.8467">ProcesarPago</text><rect fill="#F1F1F1" height="40" rx="12.5" ry="12.5" style="stroke:#181818;stroke-width:0.5;" width="132" x="28" y="422"/><text fill="#000000" font-family="sans-serif" font-size="14" lengthAdjust="spacing" textLength="122" x="33" y="446.8467">ConfirmarReserva</text><rect fill="#F1F1F1" height="40" rx="12.5" ry="12.5" style="stroke:#181818;stroke-width:0.5;" width="105" x="198.5" y="422"/><text fill="#000000" font-family="sans-serif" font-size="14" lengthAdjust="spacing" textLength="95" x="203.5" y="446.8467">CancelarPago</text><rect fill="#F1F1F1" height="40" rx="12.5" ry="12.5" style="stroke:#181818;stroke-width:0.5;" width="115" x="28.5" y="539"/><text fill="#000000" font-family="sans-serif" font-size="14" lengthAdjust="spacing" textLength="105" x="33.5" y="563.8467">ReservaExitosa</text><rect fill="#F1F1F1" height="40" rx="12.5" ry="12.5" style="stroke:#181818;stroke-width:0.5;" width="88" x="300" y="539"/><text fill="#000000" font-family="sans-serif" font-size="14" lengthAdjust="spacing" textLength="78" x="305" y="563.8467">PagoFallido</text><!--link *start* to ElegirMetodoPago--><g id="link_*start*_ElegirMetodoPago"><path d="M247,26.19 C247,40.4 247,62.02 247,80.74 " fill="none" id="*start*-to-ElegirMetodoPago" style="stroke:#181818;stroke-width:1.0;"/><polygon fill="#181818" points="247,86.74,251,77.74,247,81.74,243,77.74,247,86.74" style="stroke:#181818;stroke-width:1.0;"/></g><!--link ElegirMetodoPago to PagoConTarjeta--><g id="link_ElegirMetodoPago_PagoConTarjeta"><path d="M211.87,127.32 C180.25,144.71 139.2869,167.2377 107.6069,184.6677 " fill="none" id="ElegirMetodoPago-to-PagoConTarjeta" style="stroke:#181818;stroke-width:1.0;"/><polygon fill="#181818" points="102.35,187.56,112.1635,186.7262,106.7307,185.1498,108.3071,179.717,102.35,187.56" style="stroke:#181818;stroke-width:1.0;"/></g><!--link ElegirMetodoPago to PagoConBonos--><g id="link_ElegirMetodoPago_PagoConBonos"><path d="M247,127.09 C247,144.51 247,164.13 247,181.63 " fill="none" id="ElegirMetodoPago-to-PagoConBonos" style="stroke:#181818;stroke-width:1.0;"/><polygon fill="#181818" points="247,187.63,251,178.63,247,182.63,243,178.63,247,187.63" style="stroke:#181818;stroke-width:1.0;"/></g><!--link PagoConTarjeta to ProcesarPago--><g id="link_PagoConTarjeta_ProcesarPago"><path d="M51.34,228.32 C42.04,242.29 33.86,261.07 44,275 C66.44,305.82 102.6781,316.9121 136.9181,321.2721 " fill="none" id="PagoConTarjeta-to-ProcesarPago" style="stroke:#181818;stroke-width:1.0;"/><polygon fill="#181818" points="142.87,322.03,134.4474,316.9252,137.9101,321.3984,133.4368,324.8611,142.87,322.03" style="stroke:#181818;stroke-width:1.0;"/><text fill="#000000" font-family="sans-serif" font-size="13" lengthAdjust="spacing" textLength="165" x="45" y="271.0669">Procesar pago con tarjeta</text></g><!--link PagoConBonos to ProcesarPago--><g id="link_PagoConBonos_ProcesarPago"><path d="M238.46,228.25 C229.05,249.48 216.4237,277.9557 206.9937,299.2057 " fill="none" id="PagoConBonos-to-ProcesarPago" style="stroke:#181818;stroke-width:1.0;"/><polygon fill="#181818" points="204.56,304.69,211.8667,298.0861,206.5881,300.1198,204.5544,294.8411,204.56,304.69" style="stroke:#181818;stroke-width:1.0;"/><text fill="#000000" font-family="sans-serif" font-size="13" lengthAdjust="spacing" textLength="162" x="226" y="271.0669">Procesar pago con bonos</text></g><!--link ProcesarPago to ConfirmarReserva--><g id="link_ProcesarPago_ConfirmarReserva"><path d="M163.56,345.33 C151.71,353.46 138.81,363.67 129,375 C116.95,388.93 109.8778,402.2013 103.8478,416.1713 " fill="none" id="ProcesarPago-to-ConfirmarReserva" style="stroke:#181818;stroke-width:1.0;"/><polygon fill="#181818" points="101.47,421.68,108.7092,415.0021,103.4515,417.0894,101.3642,411.8317,101.47,421.68" style="stroke:#181818;stroke-width:1.0;"/><text fill="#000000" font-family="sans-serif" font-size="13" lengthAdjust="spacing" textLength="82" x="130" y="388.0669">Pago exitoso</text></g><!--link ProcesarPago to CancelarPago--><g id="link_ProcesarPago_CancelarPago"><path d="M205.21,345.25 C215.36,366.48 229.0119,395.0269 239.1719,416.2769 " fill="none" id="ProcesarPago-to-CancelarPago" style="stroke:#181818;stroke-width:1.0;"/><polygon fill="#181818" points="241.76,421.69,241.4866,411.8449,239.6032,417.1791,234.2691,415.2957,241.76,421.69" style="stroke:#181818;stroke-width:1.0;"/><text fill="#000000" font-family="sans-serif" font-size="13" lengthAdjust="spacing" textLength="73" x="228" y="388.0669">Pago fallido</text></g><!--link ConfirmarReserva to ReservaExitosa--><g id="link_ConfirmarReserva_ReservaExitosa"><path d="M88.61,462.39 C86.4,471.32 84.1,482.12 83,492 C81.27,507.62 81.6655,519.4485 82.9555,532.6285 " fill="none" id="ConfirmarReserva-to-ReservaExitosa" style="stroke:#181818;stroke-width:1.0;"/><polygon fill="#181818" points="83.54,538.6,86.6443,529.2532,83.0529,533.6238,78.6823,530.0324,83.54,538.6" style="stroke:#181818;stroke-width:1.0;"/><text fill="#000000" font-family="sans-serif" font-size="13" lengthAdjust="spacing" textLength="127" x="84" y="505.0669">Reserva confirmada</text></g><!--link CancelarPago to PagoFallido--><g id="link_CancelarPago_PagoFallido"><path d="M246.37,462.35 C244.14,476.32 243.52,495.11 252,509 C262.66,526.45 276.2881,535.7406 294.3881,543.2506 " fill="none" id="CancelarPago-to-PagoFallido" style="stroke:#181818;stroke-width:1.0;"/><polygon fill="#181818" points="299.93,545.55,293.1501,538.4063,295.3118,543.6338,290.0842,545.7955,299.93,545.55" style="stroke:#181818;stroke-width:1.0;"/><text fill="#000000" font-family="sans-serif" font-size="13" lengthAdjust="spacing" textLength="154" x="253" y="505.0669">Pago cancelado o fallido</text></g><!--link PagoFallido to ElegirMetodoPago--><g id="link_PagoFallido_ElegirMetodoPago"><path d="M379.37,538.65 C391.12,530.76 403.38,520.72 412,509 C430.32,484.09 434,473.92 434,443 C434,207 434,207 434,207 C434,151.44 374.6027,128.1507 321.1927,117.4307 " fill="none" id="PagoFallido-to-ElegirMetodoPago" style="stroke:#181818;stroke-width:1.0;"/><polygon fill="#181818" points="315.31,116.25,323.3469,121.9429,320.2122,117.2339,324.9212,114.0993,315.31,116.25" style="stroke:#181818;stroke-width:1.0;"/><text fill="#000000" font-family="sans-serif" font-size="13" lengthAdjust="spacing" textLength="102" x="435" y="329.5669">Reintentar pago</text></g><!--SRC=[ZP7B2i8m44Nt-OgiXVw02nTAtGaYxiJ5c4nh9CsK98Z-lSsZjjKYhZAFUy-5oLL9vDYq_iabEc5LwnKPTbgSUL6iUAcnLdQ7dYJjeIRsEOYgK6p87C7UqCDFpPeCEJOrfBqbWGviD2pVBMz3ByXmd-bZq7_EIyeSouAlWrJADc0FwD3U8NZ33X_AawCP0nY1UWWAJmLQAqdi2nOCkIuZCF3xfSXg2Mm2xG-rJTG-H2HDDnW2nxAvduffodWqFj_Y1G00]--></g></svg>