<svg xmlns="http://www.w3.org/2000/svg" xmlns:xlink="http://www.w3.org/1999/xlink" contentStyleType="text/css" height="766px" preserveAspectRatio="none" style="width:561px;height:766px;background:#FFFFFF;" version="1.1" viewBox="0 0 561 766" width="561px" zoomAndPan="magnify"><defs/><g><ellipse cx="65" cy="16" fill="#222222" rx="10" ry="10" style="stroke:#222222;stroke-width:1.0;"/><g id="EditarHorarios"><rect fill="#F1F1F1" height="50" rx="12.5" ry="12.5" style="stroke:#181818;stroke-width:0.5;" width="116" x="7" y="136"/><line style="stroke:#181818;stroke-width:0.5;" x1="7" x2="123" y1="162.2969" y2="162.2969"/><text fill="#000000" font-family="sans-serif" font-size="14" lengthAdjust="spacing" textLength="96" x="17" y="153.9951">EditarHorarios</text></g><g id="ConfirmarEdicion"><rect fill="#F1F1F1" height="50" rx="12.5" ry="12.5" style="stroke:#181818;stroke-width:0.5;" width="136" x="175" y="311"/><line style="stroke:#181818;stroke-width:0.5;" x1="175" x2="311" y1="337.2969" y2="337.2969"/><text fill="#000000" font-family="sans-serif" font-size="14" lengthAdjust="spacing" textLength="116" x="185" y="328.9951">ConfirmarEdicion</text></g><ellipse cx="65" cy="749" fill="none" rx="11" ry="11" style="stroke:#222222;stroke-width:1.0;"/><ellipse cx="65" cy="749" fill="#222222" rx="6" ry="6" style="stroke:#222222;stroke-width:1.0;"/><g id="NotificarUsuarios"><rect fill="#F1F1F1" height="50" rx="12.5" ry="12.5" style="stroke:#181818;stroke-width:0.5;" width="135" x="175.5" y="548"/><line style="stroke:#181818;stroke-width:0.5;" x1="175.5" x2="310.5" y1="574.2969" y2="574.2969"/><text fill="#000000" font-family="sans-serif" font-size="14" lengthAdjust="spacing" textLength="115" x="185.5" y="565.9951">NotificarUsuarios</text></g><!--link *start* to EditarHorarios--><g id="link_*start*_EditarHorarios"><path d="M65,26.38 C65,48.32 65,97.52 65,129.69 " fill="none" id="*start*-to-EditarHorarios" style="stroke:#181818;stroke-width:1.0;"/><polygon fill="#181818" points="65,135.69,69,126.69,65,130.69,61,126.69,65,135.69" style="stroke:#181818;stroke-width:1.0;"/><path d="M70,61 L70,101 L315,101 L315,71 L305,61 L70,61 " fill="#FEFFDD" style="stroke:#181818;stroke-width:0.5;"/><path d="M305,61 L305,71 L315,71 L305,61 " fill="#FEFFDD" style="stroke:#181818;stroke-width:0.5;"/><text fill="#000000" font-family="sans-serif" font-size="13" lengthAdjust="spacing" textLength="11" x="76" y="78.0669">El</text><text fill="#000000" font-family="sans-serif" font-size="13" font-weight="bold" lengthAdjust="spacing" textLength="105" x="91" y="78.0669">Administrador</text><text fill="#000000" font-family="sans-serif" font-size="13" lengthAdjust="spacing" textLength="96" x="200" y="78.0669">edita el horario</text><text fill="#000000" font-family="sans-serif" font-size="13" lengthAdjust="spacing" textLength="66" x="76" y="93.1997">de la Pista</text></g><!--link EditarHorarios to ConfirmarEdicion--><g id="link_EditarHorarios_ConfirmarEdicion"><path d="M90.13,186.42 C124.05,219.39 179.8368,273.6188 213.6968,306.5188 " fill="none" id="EditarHorarios-to-ConfirmarEdicion" style="stroke:#181818;stroke-width:1.0;"/><polygon fill="#181818" points="218,310.7,214.3327,301.5594,214.414,307.2157,208.7577,307.297,218,310.7" style="stroke:#181818;stroke-width:1.0;"/><path d="M190,221 L190,276 L348,276 L348,231 L338,221 L190,221 " fill="#FEFFDD" style="stroke:#181818;stroke-width:0.5;"/><path d="M338,221 L338,231 L348,231 L338,221 " fill="#FEFFDD" style="stroke:#181818;stroke-width:0.5;"/><text fill="#000000" font-family="sans-serif" font-size="13" lengthAdjust="spacing" textLength="11" x="196" y="238.0669">El</text><text fill="#000000" font-family="sans-serif" font-size="13" font-weight="bold" lengthAdjust="spacing" textLength="58" x="211" y="238.0669">sistema</text><text fill="#000000" font-family="sans-serif" font-size="13" lengthAdjust="spacing" textLength="56" x="273" y="238.0669">confirma</text><text fill="#000000" font-family="sans-serif" font-size="13" lengthAdjust="spacing" textLength="128" x="196" y="253.1997">la edici&#243;ndel horario</text><text fill="#000000" font-family="sans-serif" font-size="13" lengthAdjust="spacing" textLength="66" x="196" y="268.3325">de la Pista</text></g><!--link EditarHorarios to *end*--><g id="link_EditarHorarios_*end*"><path d="M58.27,186.42 C49.71,219.73 36,281.4 36,335 C36,335 36,335 36,574 C36,637.09 53.1855,705.5258 60.5155,732.1158 " fill="none" id="EditarHorarios-to-*end*" style="stroke:#FF0000;stroke-width:1.0;"/><polygon fill="#FF0000" points="62.11,737.9,63.5744,728.1606,60.7812,733.0798,55.862,730.2867,62.11,737.9" style="stroke:#FF0000;stroke-width:1.0;"/><path d="M41,427 L41,482 L218,482 L218,437 L208,427 L41,427 " fill="#FEFFDD" style="stroke:#181818;stroke-width:0.5;"/><path d="M208,427 L208,437 L218,437 L208,427 " fill="#FEFFDD" style="stroke:#181818;stroke-width:0.5;"/><text fill="#000000" font-family="sans-serif" font-size="13" lengthAdjust="spacing" textLength="11" x="47" y="444.0669">El</text><text fill="#000000" font-family="sans-serif" font-size="13" font-weight="bold" lengthAdjust="spacing" textLength="58" x="62" y="444.0669">sistema</text><text fill="#000000" font-family="sans-serif" font-size="13" lengthAdjust="spacing" textLength="61" x="124" y="444.0669">notifica al</text><text fill="#000000" font-family="sans-serif" font-size="13" font-weight="bold" lengthAdjust="spacing" textLength="105" x="47" y="459.1997">Administrador</text><text fill="#000000" font-family="sans-serif" font-size="13" lengthAdjust="spacing" textLength="43" x="156" y="459.1997">que se</text><text fill="#000000" font-family="sans-serif" font-size="13" lengthAdjust="spacing" textLength="138" x="47" y="474.3325">ha producido un Error</text></g><!--link ConfirmarEdicion to NotificarUsuarios--><g id="link_ConfirmarEdicion_NotificarUsuarios"><path d="M243,361.26 C243,406.3 243,496.32 243,541.52 " fill="none" id="ConfirmarEdicion-to-NotificarUsuarios" style="stroke:#181818;stroke-width:1.0;"/><polygon fill="#181818" points="243,547.52,247,538.52,243,542.52,239,538.52,243,547.52" style="stroke:#181818;stroke-width:1.0;"/><path d="M248,427 L248,482 L554,482 L554,437 L544,427 L248,427 " fill="#FEFFDD" style="stroke:#181818;stroke-width:0.5;"/><path d="M544,427 L544,437 L554,437 L544,427 " fill="#FEFFDD" style="stroke:#181818;stroke-width:0.5;"/><text fill="#000000" font-family="sans-serif" font-size="13" lengthAdjust="spacing" textLength="11" x="254" y="444.0669">El</text><text fill="#000000" font-family="sans-serif" font-size="13" font-weight="bold" lengthAdjust="spacing" textLength="58" x="269" y="444.0669">sistema</text><text fill="#000000" font-family="sans-serif" font-size="13" lengthAdjust="spacing" textLength="138" x="331" y="444.0669">notifica a los usuarios</text><text fill="#000000" font-family="sans-serif" font-size="13" lengthAdjust="spacing" textLength="285" x="254" y="459.1997">que se ha producido un cambio en el horario</text><text fill="#000000" font-family="sans-serif" font-size="13" lengthAdjust="spacing" textLength="66" x="254" y="474.3325">de la Pista</text></g><!--link NotificarUsuarios to *end*--><g id="link_NotificarUsuarios_*end*"><path d="M218.25,598.19 C177.17,638.35 101.2911,712.5264 76.6611,736.5964 " fill="none" id="NotificarUsuarios-to-*end*" style="stroke:#181818;stroke-width:1.0;"/><polygon fill="#181818" points="72.37,740.79,81.6024,737.3604,75.946,737.2954,76.011,731.6389,72.37,740.79" style="stroke:#181818;stroke-width:1.0;"/><path d="M190,633 L190,703 L442,703 L442,643 L432,633 L190,633 " fill="#FEFFDD" style="stroke:#181818;stroke-width:0.5;"/><path d="M432,633 L432,643 L442,643 L432,633 " fill="#FEFFDD" style="stroke:#181818;stroke-width:0.5;"/><text fill="#000000" font-family="sans-serif" font-size="13" lengthAdjust="spacing" textLength="11" x="196" y="650.0669">El</text><text fill="#000000" font-family="sans-serif" font-size="13" font-weight="bold" lengthAdjust="spacing" textLength="58" x="211" y="650.0669">sistema</text><text fill="#000000" font-family="sans-serif" font-size="13" lengthAdjust="spacing" textLength="139" x="273" y="650.0669">verifica que el cambio</text><text fill="#000000" font-family="sans-serif" font-size="13" lengthAdjust="spacing" textLength="227" x="196" y="665.1997">de horario genera conflictos con las</text><text fill="#000000" font-family="sans-serif" font-size="13" lengthAdjust="spacing" textLength="97" x="196" y="680.3325">reservas de los</text><text fill="#000000" font-family="sans-serif" font-size="13" font-weight="bold" lengthAdjust="spacing" textLength="62" x="297" y="680.3325">usuarios</text><text fill="#000000" font-family="sans-serif" font-size="13" lengthAdjust="spacing" textLength="63" x="359" y="680.3325">, si es as&#237;,</text><text fill="#000000" font-family="sans-serif" font-size="13" lengthAdjust="spacing" textLength="80" x="196" y="695.4653">notifica a los</text><text fill="#000000" font-family="sans-serif" font-size="13" font-weight="bold" lengthAdjust="spacing" textLength="62" x="280" y="695.4653">usuarios</text></g><!--SRC=[XP51JWCn34NtESMNs4Nj5IeXL8aLOiEgceL9N1gHIS2PwQrOSOHU36Sw0wLJoiwIxV_-jpUsmNAv0jO-T2JtMKX2BYRbZf4JOaYlPXrXxQrlGmgb4_9Ph0NN1N34xhW3uncHyAWpP3XvL0tpMtTWtUMq3TAIQC-5d2x0YefmIufnup2CQdDTE7mc_ozsnjtS2FjcXOrjhlAq5xR14IZ2p5E_zup2C3l2csJVk-0p-eIrI9OV_7b4pQt17qPjUIhzNsU-v0HH4_JJpcZXt86ZzbdFmUda9vTlCxCnV4KFWwj-zYn7FzM0Cex0YfXUySA9XOQNnU0w5NPLYmgCS67PQrKTQSFQAO-r2vG0Bg1o-5YOizYdWzyHlW00]--></g></svg>