<?xml version="1.0" encoding="us-ascii" standalone="no"?><svg xmlns="http://www.w3.org/2000/svg" xmlns:xlink="http://www.w3.org/1999/xlink" contentStyleType="text/css" height="734px" preserveAspectRatio="none" style="width:1082px;height:734px;background:#FFFFFF;" version="1.1" viewBox="0 0 1082 734" width="1082px" zoomAndPan="magnify"><defs/><g><ellipse cx="668.5" cy="16" fill="#222222" rx="10" ry="10" style="stroke:#222222;stroke-width:1.0;"/><g id="Inicio"><rect fill="#F1F1F1" height="50" rx="12.5" ry="12.5" style="stroke:#181818;stroke-width:0.5;" width="55" x="641" y="87"/><line style="stroke:#181818;stroke-width:0.5;" x1="641" x2="696" y1="113.2969" y2="113.2969"/><text fill="#000000" font-family="sans-serif" font-size="14" lengthAdjust="spacing" textLength="35" x="651" y="104.9951">Inicio</text></g><g id="PaginaPrincipal"><rect fill="#F1F1F1" height="50" rx="12.5" ry="12.5" style="stroke:#181818;stroke-width:0.5;" width="123" x="607" y="198"/><line style="stroke:#181818;stroke-width:0.5;" x1="607" x2="730" y1="224.2969" y2="224.2969"/><text fill="#000000" font-family="sans-serif" font-size="14" lengthAdjust="spacing" textLength="103" x="617" y="215.9951">PaginaPrincipal</text></g><g id="EditarHorarios"><rect fill="#F1F1F1" height="50" rx="12.5" ry="12.5" style="stroke:#181818;stroke-width:0.5;" width="116" x="610.5" y="325"/><line style="stroke:#181818;stroke-width:0.5;" x1="610.5" x2="726.5" y1="351.2969" y2="351.2969"/><text fill="#000000" font-family="sans-serif" font-size="14" lengthAdjust="spacing" textLength="96" x="620.5" y="342.9951">EditarHorarios</text></g><g id="ConfirmarEdicion"><rect fill="#F1F1F1" height="50" rx="12.5" ry="12.5" style="stroke:#181818;stroke-width:0.5;" width="136" x="525.5" y="452"/><line style="stroke:#181818;stroke-width:0.5;" x1="525.5" x2="661.5" y1="478.2969" y2="478.2969"/><text fill="#000000" font-family="sans-serif" font-size="14" lengthAdjust="spacing" textLength="116" x="535.5" y="469.9951">ConfirmarEdicion</text></g><g id="Error"><rect fill="#F1F1F1" height="50" rx="12.5" ry="12.5" style="stroke:#181818;stroke-width:0.5;" width="53" x="642" y="579"/><line style="stroke:#181818;stroke-width:0.5;" x1="642" x2="695" y1="605.2969" y2="605.2969"/><text fill="#000000" font-family="sans-serif" font-size="14" lengthAdjust="spacing" textLength="33" x="652" y="596.9951">Error</text></g><g id="NotificarUsuarios"><rect fill="#F1F1F1" height="50" rx="12.5" ry="12.5" style="stroke:#181818;stroke-width:0.5;" width="135" x="350" y="579"/><line style="stroke:#181818;stroke-width:0.5;" x1="350" x2="485" y1="605.2969" y2="605.2969"/><text fill="#000000" font-family="sans-serif" font-size="14" lengthAdjust="spacing" textLength="115" x="360" y="596.9951">NotificarUsuarios</text></g><ellipse cx="417.5" cy="717" fill="none" rx="11" ry="11" style="stroke:#222222;stroke-width:1.0;"/><ellipse cx="417.5" cy="717" fill="#222222" rx="6" ry="6" style="stroke:#222222;stroke-width:1.0;"/><g id="elem_GMN18"><path d="M730.5,99.43 L730.5,108 L696.23,112 L730.5,116 L730.5,124.5628 A0,0 0 0 0 730.5,124.5628 L944.5,124.5628 A0,0 0 0 0 944.5,124.5628 L944.5,109.43 L934.5,99.43 L730.5,99.43 A0,0 0 0 0 730.5,99.43 " fill="#FEFFDD" style="stroke:#181818;stroke-width:0.5;"/><path d="M934.5,99.43 L934.5,109.43 L944.5,109.43 L934.5,99.43 " fill="#FEFFDD" style="stroke:#181818;stroke-width:0.5;"/><text fill="#000000" font-family="sans-serif" font-size="13" lengthAdjust="spacing" textLength="193" x="736.5" y="116.4969">Usuario accede a la aplicaci&#243;n</text></g><g id="elem_GMN21"><path d="M765.5,210.43 L765.5,219 L730.02,223 L765.5,227 L765.5,235.5628 A0,0 0 0 0 765.5,235.5628 L1075.5,235.5628 A0,0 0 0 0 1075.5,235.5628 L1075.5,220.43 L1065.5,210.43 L765.5,210.43 A0,0 0 0 0 765.5,210.43 " fill="#FEFFDD" style="stroke:#181818;stroke-width:0.5;"/><path d="M1065.5,210.43 L1065.5,220.43 L1075.5,220.43 L1065.5,210.43 " fill="#FEFFDD" style="stroke:#181818;stroke-width:0.5;"/><text fill="#000000" font-family="sans-serif" font-size="13" lengthAdjust="spacing" textLength="289" x="771.5" y="227.4969">Usuario selecciona "Editar horarios de pistas"</text></g><g id="elem_GMN24"><path d="M761.5,329.87 L761.5,346 L726.64,350 L761.5,354 L761.5,370.1356 A0,0 0 0 0 761.5,370.1356 L1059.5,370.1356 A0,0 0 0 0 1059.5,370.1356 L1059.5,339.87 L1049.5,329.87 L761.5,329.87 A0,0 0 0 0 761.5,329.87 " fill="#FEFFDD" style="stroke:#181818;stroke-width:0.5;"/><path d="M1049.5,329.87 L1049.5,339.87 L1059.5,339.87 L1049.5,329.87 " fill="#FEFFDD" style="stroke:#181818;stroke-width:0.5;"/><text fill="#000000" font-family="sans-serif" font-size="13" lengthAdjust="spacing" textLength="277" x="767.5" y="346.9369">Aqui el usuario ha de seleccionar una pista,</text><text fill="#000000" font-family="sans-serif" font-size="13" lengthAdjust="spacing" textLength="198" x="771.5" y="362.0697">y un nuevo horario de apertura</text></g><g id="elem_GMN27"><path d="M730.5,591.43 L730.5,600 L695.31,604 L730.5,608 L730.5,616.5628 A0,0 0 0 0 730.5,616.5628 L958.5,616.5628 A0,0 0 0 0 958.5,616.5628 L958.5,601.43 L948.5,591.43 L730.5,591.43 A0,0 0 0 0 730.5,591.43 " fill="#FEFFDD" style="stroke:#181818;stroke-width:0.5;"/><path d="M948.5,591.43 L948.5,601.43 L958.5,601.43 L948.5,591.43 " fill="#FEFFDD" style="stroke:#181818;stroke-width:0.5;"/><text fill="#000000" font-family="sans-serif" font-size="13" lengthAdjust="spacing" textLength="207" x="736.5" y="608.4969">Error de permisos o de conexi&#243;n</text></g><g id="elem_GMN30"><path d="M6,583.87 L6,624.1356 A0,0 0 0 0 6,624.1356 L315,624.1356 A0,0 0 0 0 315,624.1356 L315,608 L349.67,604 L315,600 L315,593.87 L305,583.87 L6,583.87 A0,0 0 0 0 6,583.87 " fill="#FEFFDD" style="stroke:#181818;stroke-width:0.5;"/><path d="M305,583.87 L305,593.87 L315,593.87 L305,583.87 " fill="#FEFFDD" style="stroke:#181818;stroke-width:0.5;"/><text fill="#000000" font-family="sans-serif" font-size="13" lengthAdjust="spacing" textLength="275" x="12" y="600.9369">Verificar si alguna reserva ha sido afectada</text><text fill="#000000" font-family="sans-serif" font-size="13" lengthAdjust="spacing" textLength="288" x="12" y="616.0697">por esta modificaci&#243;n, notificar a los usuarios</text></g><!--link *start* to Inicio--><g id="link_*start*_Inicio"><path d="M668.5,26.36 C668.5,40.29 668.5,60.95 668.5,80.65 " fill="none" id="*start*-to-Inicio" style="stroke:#181818;stroke-width:1.0;"/><polygon fill="#181818" points="668.5,86.65,672.5,77.65,668.5,81.65,664.5,77.65,668.5,86.65" style="stroke:#181818;stroke-width:1.0;"/></g><!--link Inicio to PaginaPrincipal--><g id="link_Inicio_PaginaPrincipal"><path d="M668.5,137.46 C668.5,155.41 668.5,173.69 668.5,191.62 " fill="none" id="Inicio-to-PaginaPrincipal" style="stroke:#181818;stroke-width:1.0;"/><polygon fill="#181818" points="668.5,197.62,672.5,188.62,668.5,192.62,664.5,188.62,668.5,197.62" style="stroke:#181818;stroke-width:1.0;"/></g><!--link PaginaPrincipal to EditarHorarios--><g id="link_PaginaPrincipal_EditarHorarios"><path d="M668.5,248.4 C668.5,270.42 668.5,296.66 668.5,318.66 " fill="none" id="PaginaPrincipal-to-EditarHorarios" style="stroke:#181818;stroke-width:1.0;"/><polygon fill="#181818" points="668.5,324.66,672.5,315.66,668.5,319.66,664.5,315.66,668.5,324.66" style="stroke:#181818;stroke-width:1.0;"/><text fill="#000000" font-family="sans-serif" font-size="13" lengthAdjust="spacing" textLength="229" x="669.5" y="291.0669">Usuario selecciona "Editar Horarios"</text></g><!--link EditarHorarios to ConfirmarEdicion--><g id="link_EditarHorarios_ConfirmarEdicion"><path d="M637.35,375.36 C628.21,383.88 618.95,394.06 612.5,405 C604.08,419.29 600.4003,431.4799 597.7503,445.8199 " fill="none" id="EditarHorarios-to-ConfirmarEdicion" style="stroke:#181818;stroke-width:1.0;"/><polygon fill="#181818" points="596.66,451.72,602.2289,443.5967,597.5686,446.8032,594.3621,442.143,596.66,451.72" style="stroke:#181818;stroke-width:1.0;"/><text fill="#000000" font-family="sans-serif" font-size="13" lengthAdjust="spacing" textLength="103" x="613.5" y="418.0669">"editar horarios"</text></g><!--link ConfirmarEdicion to Error--><g id="link_ConfirmarEdicion_Error"><path d="M586.63,502.34 C583.95,516.71 583.06,534.79 590.5,549 C601.2,569.42 618.1274,581.0501 636.1574,589.7601 " fill="none" id="ConfirmarEdicion-to-Error" style="stroke:#181818;stroke-width:1.0;"/><polygon fill="#181818" points="641.56,592.37,635.196,584.8534,637.0578,590.1951,631.7161,592.0569,641.56,592.37" style="stroke:#181818;stroke-width:1.0;"/><text fill="#000000" font-family="sans-serif" font-size="13" lengthAdjust="spacing" textLength="125" x="591.5" y="545.0669">Confirmaci&#243;n fallida</text></g><!--link Error to EditarHorarios--><g id="link_Error_EditarHorarios"><path d="M695.5,583.14 C705.67,574.01 716.08,562.25 721.5,549 C745.72,489.76 745.72,464.24 721.5,405 C716.93,393.81 713.0851,387.8898 704.5451,379.5198 " fill="none" id="Error-to-EditarHorarios" style="stroke:#181818;stroke-width:1.0;"/><polygon fill="#181818" points="700.26,375.32,703.8878,384.4764,703.8309,378.8198,709.4875,378.7629,700.26,375.32" style="stroke:#181818;stroke-width:1.0;"/><text fill="#000000" font-family="sans-serif" font-size="13" lengthAdjust="spacing" textLength="147" x="740.5" y="481.5669">Volver a intentar editar</text></g><!--link ConfirmarEdicion to NotificarUsuarios--><g id="link_ConfirmarEdicion_NotificarUsuarios"><path d="M525.37,488.52 C496.21,496.17 463.8,509.35 441.5,532 C429.18,544.52 424.2968,557.6867 421.3868,572.9067 " fill="none" id="ConfirmarEdicion-to-NotificarUsuarios" style="stroke:#181818;stroke-width:1.0;"/><polygon fill="#181818" points="420.26,578.8,425.879,570.7113,421.199,573.889,418.0213,569.2089,420.26,578.8" style="stroke:#181818;stroke-width:1.0;"/><text fill="#000000" font-family="sans-serif" font-size="13" lengthAdjust="spacing" textLength="134" x="442.5" y="545.0669">Confirmaci&#243;n exitosa</text></g><!--link NotificarUsuarios to *end*--><g id="link_NotificarUsuarios_*end*"><path d="M417.5,629.36 C417.5,653.23 417.5,682.46 417.5,699.71 " fill="none" id="NotificarUsuarios-to-*end*" style="stroke:#181818;stroke-width:1.0;"/><polygon fill="#181818" points="417.5,705.71,421.5,696.71,417.5,700.71,413.5,696.71,417.5,705.71" style="stroke:#181818;stroke-width:1.0;"/><text fill="#000000" font-family="sans-serif" font-size="13" lengthAdjust="spacing" textLength="124" x="418.5" y="672.0669">Notificaci&#243;n exitosa</text></g><!--SRC=[VL9BJiCm4Dtx5ACkKNk1Bf0GGe8DOaCt5OkHCsb7SkqmjYiu5qVWOeoJk5MJbbLYpxnFtilsxWDMgtjuyMmvcE7HtxpXZZs-2NlB7JepEVSxJmqdbESWA1mYhE4zvl8AaHnPPV88Ys49wjR2J525w37ubkM0ehC2Kwe53RZz2JTRwYs81D7rEhJy- -EXHUUuGJDChrhT17Sa0GJsYNnH6WIloxo6n2rRbF4BuqoIlZY5Y6Q-MV1RpNbzOhb46ED38X3UxHE4jdPHiqHhgI4rwX2mSnLko3TGW1FqjBT_AgdHWj9t71Dgo3TOB-Cp3v-PWHpaaNoFXUCi8P1Lf-TS6lZM4_XCnr0bopPs92aBtfGitOqD5eCa1uvgjWVRu3M-UGoEsXuyQy5iI8ORY0peTiMWK2GvOh4VkT6eMx89zR_fL9FKF1n2SsviMOH64gr3lUJANbty0G00]--></g></svg>