<?xml version="1.0" encoding="us-ascii" standalone="no"?><svg xmlns="http://www.w3.org/2000/svg" xmlns:xlink="http://www.w3.org/1999/xlink" contentStyleType="text/css" height="877px" preserveAspectRatio="none" style="width:710px;height:877px;background:#FFFFFF;" version="1.1" viewBox="0 0 710 877" width="710px" zoomAndPan="magnify"><defs/><g><ellipse cx="412" cy="16" fill="#222222" rx="10" ry="10" style="stroke:#222222;stroke-width:1.0;"/><g id="Inicio"><rect fill="#F1F1F1" height="50" rx="12.5" ry="12.5" style="stroke:#181818;stroke-width:0.5;" width="52" x="386" y="87"/><line style="stroke:#181818;stroke-width:0.5;" x1="386" x2="438" y1="114.6094" y2="114.6094"/><text fill="#000000" font-family="sans-serif" font-size="14" lengthAdjust="spacing" textLength="32" x="396" y="106.5332">Inicio</text></g><g id="PaginaPrincipal"><rect fill="#F1F1F1" height="50" rx="12.5" ry="12.5" style="stroke:#181818;stroke-width:0.5;" width="118" x="353" y="233"/><line style="stroke:#181818;stroke-width:0.5;" x1="353" x2="471" y1="260.6094" y2="260.6094"/><text fill="#000000" font-family="sans-serif" font-size="14" lengthAdjust="spacing" textLength="98" x="363" y="252.5332">PaginaPrincipal</text></g><g id="EditarHorarios"><rect fill="#F1F1F1" height="50" rx="12.5" ry="12.5" style="stroke:#181818;stroke-width:0.5;" width="110" x="357" y="379"/><line style="stroke:#181818;stroke-width:0.5;" x1="357" x2="467" y1="406.6094" y2="406.6094"/><text fill="#000000" font-family="sans-serif" font-size="14" lengthAdjust="spacing" textLength="90" x="367" y="398.5332">EditarHorarios</text></g><g id="ConfirmarEdicion"><rect fill="#F1F1F1" height="50" rx="12.5" ry="12.5" style="stroke:#181818;stroke-width:0.5;" width="128" x="195" y="541"/><line style="stroke:#181818;stroke-width:0.5;" x1="195" x2="323" y1="568.6094" y2="568.6094"/><text fill="#000000" font-family="sans-serif" font-size="14" lengthAdjust="spacing" textLength="108" x="205" y="560.5332">ConfirmarEdicion</text></g><g id="Error"><rect fill="#F1F1F1" height="50" rx="12.5" ry="12.5" style="stroke:#181818;stroke-width:0.5;" width="52" x="419" y="687"/><line style="stroke:#181818;stroke-width:0.5;" x1="419" x2="471" y1="714.6094" y2="714.6094"/><text fill="#000000" font-family="sans-serif" font-size="14" lengthAdjust="spacing" textLength="32" x="429" y="706.5332">Error</text></g><g id="NotificarUsuarios"><rect fill="#F1F1F1" height="50" rx="12.5" ry="12.5" style="stroke:#181818;stroke-width:0.5;" width="126" x="7" y="687"/><line style="stroke:#181818;stroke-width:0.5;" x1="7" x2="133" y1="714.6094" y2="714.6094"/><text fill="#000000" font-family="sans-serif" font-size="14" lengthAdjust="spacing" textLength="106" x="17" y="706.5332">NotificarUsuarios</text></g><ellipse cx="70" cy="860" fill="none" rx="11" ry="11" style="stroke:#222222;stroke-width:1.0;"/><ellipse cx="70" cy="860" fill="#222222" rx="6" ry="6" style="stroke:#222222;stroke-width:1.0;"/><!--link *start* to Inicio--><g id="link_*start*_Inicio"><path d="M412,26.01 C412,39.89 412,60.97 412,80.84 " fill="none" id="*start*-to-Inicio" style="stroke:#181818;stroke-width:1.0;"/><polygon fill="#181818" points="412,86.84,416,77.84,412,81.84,408,77.84,412,86.84" style="stroke:#181818;stroke-width:1.0;"/></g><!--link Inicio to PaginaPrincipal--><g id="link_Inicio_PaginaPrincipal"><path d="M412,137.1 C412,163.68 412,200.21 412,226.82 " fill="none" id="Inicio-to-PaginaPrincipal" style="stroke:#181818;stroke-width:1.0;"/><polygon fill="#181818" points="412,232.82,416,223.82,412,227.82,408,223.82,412,232.82" style="stroke:#181818;stroke-width:1.0;"/><path d="M417,172 L417,198 L615,198 L615,182 L605,172 L417,172 " fill="#FEFFDD" style="stroke:#181818;stroke-width:0.5;"/><path d="M605,172 L605,182 L615,182 L605,172 " fill="#FEFFDD" style="stroke:#181818;stroke-width:0.5;"/><text fill="#000000" font-family="sans-serif" font-size="13" lengthAdjust="spacing" textLength="177" x="423" y="190.4951">Usuario accede a la aplicaci&#243;n</text></g><!--link PaginaPrincipal to EditarHorarios--><g id="link_PaginaPrincipal_EditarHorarios"><path d="M412,283.1 C412,309.68 412,346.21 412,372.82 " fill="none" id="PaginaPrincipal-to-EditarHorarios" style="stroke:#181818;stroke-width:1.0;"/><polygon fill="#181818" points="412,378.82,416,369.82,412,373.82,408,369.82,412,378.82" style="stroke:#181818;stroke-width:1.0;"/><path d="M417,318 L417,344 L703,344 L703,328 L693,318 L417,318 " fill="#FEFFDD" style="stroke:#181818;stroke-width:0.5;"/><path d="M693,318 L693,328 L703,328 L693,318 " fill="#FEFFDD" style="stroke:#181818;stroke-width:0.5;"/><text fill="#000000" font-family="sans-serif" font-size="13" lengthAdjust="spacing" textLength="265" x="423" y="336.4951">Usuario selecciona "Editar horarios de pistas"</text></g><!--link EditarHorarios to ConfirmarEdicion--><g id="link_EditarHorarios_ConfirmarEdicion"><path d="M356.98,408.42 C321.85,413.8 278.77,427.02 256,459 C239.13,482.69 242.6284,511.7349 249.0084,534.9249 " fill="none" id="EditarHorarios-to-ConfirmarEdicion" style="stroke:#181818;stroke-width:1.0;"/><polygon fill="#181818" points="250.6,540.71,252.0693,530.9714,249.2737,535.8891,244.3559,533.0935,250.6,540.71" style="stroke:#181818;stroke-width:1.0;"/><path d="M261,464 L261,506 L535,506 L535,474 L525,464 L261,464 " fill="#FEFFDD" style="stroke:#181818;stroke-width:0.5;"/><path d="M525,464 L525,474 L535,474 L525,464 " fill="#FEFFDD" style="stroke:#181818;stroke-width:0.5;"/><text fill="#000000" font-family="sans-serif" font-size="13" lengthAdjust="spacing" textLength="253" x="267" y="482.4951">Aqui el usuario ha de seleccionar una pista,</text><text fill="#000000" font-family="sans-serif" font-size="13" lengthAdjust="spacing" textLength="174" x="271" y="498.8467">y un nuevo horario de apertura</text></g><!--link ConfirmarEdicion to Error--><g id="link_ConfirmarEdicion_Error"><path d="M270.79,591.2 C281.52,611.11 299.03,638.9 321,657 C350.36,681.19 386.4652,694.6923 413.2452,702.5923 " fill="none" id="ConfirmarEdicion-to-Error" style="stroke:#181818;stroke-width:1.0;"/><polygon fill="#181818" points="419,704.29,411.4995,697.907,414.2043,702.8753,409.236,705.5801,419,704.29" style="stroke:#181818;stroke-width:1.0;"/><path d="M326,626 L326,652 L535,652 L535,636 L525,626 L326,626 " fill="#FEFFDD" style="stroke:#181818;stroke-width:0.5;"/><path d="M525,626 L525,636 L535,636 L525,626 " fill="#FEFFDD" style="stroke:#181818;stroke-width:0.5;"/><text fill="#000000" font-family="sans-serif" font-size="13" lengthAdjust="spacing" textLength="188" x="332" y="644.4951">Error de permisos o de conexi&#243;n</text></g><!--link Error to EditarHorarios--><g id="link_Error_EditarHorarios"><path d="M471.38,704.74 C495.06,697.57 528.41,683.26 544,657 C588.92,581.33 593.05,532.06 544,459 C526.82,433.41 500.9472,421.3999 472.9272,414.3199 " fill="none" id="Error-to-EditarHorarios" style="stroke:#181818;stroke-width:1.0;"/><polygon fill="#181818" points="467.11,412.85,474.8559,418.9329,471.9576,414.0749,476.8157,411.1767,467.11,412.85" style="stroke:#181818;stroke-width:1.0;"/><path d="M584,553 L584,579 L698,579 L698,563 L688,553 L584,553 " fill="#FEFFDD" style="stroke:#181818;stroke-width:0.5;"/><path d="M688,553 L688,563 L698,563 L688,553 " fill="#FEFFDD" style="stroke:#181818;stroke-width:0.5;"/><text fill="#000000" font-family="sans-serif" font-size="13" lengthAdjust="spacing" textLength="93" x="590" y="571.4951">Volver a intentar</text></g><!--link ConfirmarEdicion to NotificarUsuarios--><g id="link_ConfirmarEdicion_NotificarUsuarios"><path d="M194.58,576.64 C145.06,585.52 82.58,600.44 67,621 C52.93,639.57 54.7204,661.2109 59.9504,680.9109 " fill="none" id="ConfirmarEdicion-to-NotificarUsuarios" style="stroke:#181818;stroke-width:1.0;"/><polygon fill="#181818" points="61.49,686.71,63.0467,676.985,60.207,681.8774,55.3146,679.0377,61.49,686.71" style="stroke:#181818;stroke-width:1.0;"/><path d="M72,626 L72,652 L276,652 L276,636 L266,626 L72,626 " fill="#FEFFDD" style="stroke:#181818;stroke-width:0.5;"/><path d="M266,626 L266,636 L276,636 L266,626 " fill="#FEFFDD" style="stroke:#181818;stroke-width:0.5;"/><text fill="#000000" font-family="sans-serif" font-size="13" lengthAdjust="spacing" textLength="183" x="78" y="644.4951">Confirmaci&#243;n de la modificaci&#243;n</text></g><!--link NotificarUsuarios to *end*--><g id="link_NotificarUsuarios_*end*"><path d="M70,737.11 C70,769.51 70,819.68 70,842.7 " fill="none" id="NotificarUsuarios-to-*end*" style="stroke:#181818;stroke-width:1.0;"/><polygon fill="#181818" points="70,848.7,74,839.7,70,843.7,66,839.7,70,848.7" style="stroke:#181818;stroke-width:1.0;"/><path d="M75,772 L75,814 L357,814 L357,782 L347,772 L75,772 " fill="#FEFFDD" style="stroke:#181818;stroke-width:0.5;"/><path d="M347,772 L347,782 L357,782 L347,772 " fill="#FEFFDD" style="stroke:#181818;stroke-width:0.5;"/><text fill="#000000" font-family="sans-serif" font-size="13" lengthAdjust="spacing" textLength="247" x="81" y="790.4951">Verificar si alguna reserva ha sido afectada</text><text fill="#000000" font-family="sans-serif" font-size="13" lengthAdjust="spacing" textLength="261" x="81" y="806.8467">por esta modificaci&#243;n, notificar a los usuarios</text></g><!--SRC=[XP91JWCn34NtEONL9MglW8GG4cnGDx2fM5WPjxL8dQcJL70kZi35S39JgXcGkXfDyltVjvtDpHkiLhVm9Emvkk7JJjQuOy6ridZkCJY9cI0A19Ptzv8AgWdHU-e84082ze4zUlx-4aVIGIrmCvVc_D1nHdsCMYtI_yQ90dcB8WYBGG_xiG0Cs7FAc1ONpjIpOUwZR5aFg7PNdQQWksDXe01b1Ewn-bwm2iNOZRDqy6b_88LEyHoZgh4dpKNn4cFE7FfLZJgbjwFM2Ec1aoLkXZuAVKm7E2YlZUqrXXEfxO4bavZiIgJdc7bhsz9ntZExSqrRPWrcwpt4hfNC5lp7gVblx5dD4f8EEaWC67Prkag9z8HrzeaxUqrRyXaxTBsrJ3RvANHPYQE9lJX3bNFwtpW_]--></g></svg>