<?xml version="1.0" encoding="us-ascii" standalone="no"?><svg xmlns="http://www.w3.org/2000/svg" xmlns:xlink="http://www.w3.org/1999/xlink" contentStyleType="text/css" height="877px" preserveAspectRatio="none" style="width:679px;height:877px;background:#FFFFFF;" version="1.1" viewBox="0 0 679 877" width="679px" zoomAndPan="magnify"><defs/><g><ellipse cx="343.5" cy="16" fill="#222222" rx="10" ry="10" style="stroke:#222222;stroke-width:1.0;"/><g id="UsuarioSolicitaPista"><rect fill="#F1F1F1" height="50" rx="12.5" ry="12.5" style="stroke:#181818;stroke-width:0.5;" width="144" x="271.5" y="87"/><line style="stroke:#181818;stroke-width:0.5;" x1="271.5" x2="415.5" y1="114.6094" y2="114.6094"/><text fill="#000000" font-family="sans-serif" font-size="14" lengthAdjust="spacing" textLength="124" x="281.5" y="106.5332">UsuarioSolicitaPista</text></g><g id="SistemaMuestraPista"><rect fill="#F1F1F1" height="50" rx="12.5" ry="12.5" style="stroke:#181818;stroke-width:0.5;" width="152" x="267.5" y="233"/><line style="stroke:#181818;stroke-width:0.5;" x1="267.5" x2="419.5" y1="260.6094" y2="260.6094"/><text fill="#000000" font-family="sans-serif" font-size="14" lengthAdjust="spacing" textLength="132" x="277.5" y="252.5332">SistemaMuestraPista</text></g><g id="UsuarioIntroduceModificaciones"><rect fill="#F1F1F1" height="50" rx="12.5" ry="12.5" style="stroke:#181818;stroke-width:0.5;" width="220" x="39.5" y="379"/><line style="stroke:#181818;stroke-width:0.5;" x1="39.5" x2="259.5" y1="406.6094" y2="406.6094"/><text fill="#000000" font-family="sans-serif" font-size="14" lengthAdjust="spacing" textLength="200" x="49.5" y="398.5332">UsuarioIntroduceModificaciones</text></g><g id="Error"><rect fill="#F1F1F1" height="50" rx="12.5" ry="12.5" style="stroke:#181818;stroke-width:0.5;" width="52" x="446.5" y="541"/><line style="stroke:#181818;stroke-width:0.5;" x1="446.5" x2="498.5" y1="568.6094" y2="568.6094"/><text fill="#000000" font-family="sans-serif" font-size="14" lengthAdjust="spacing" textLength="32" x="456.5" y="560.5332">Error</text></g><g id="SistemaModificaPista"><rect fill="#F1F1F1" height="50" rx="12.5" ry="12.5" style="stroke:#181818;stroke-width:0.5;" width="153" x="7" y="541"/><line style="stroke:#181818;stroke-width:0.5;" x1="7" x2="160" y1="568.6094" y2="568.6094"/><text fill="#000000" font-family="sans-serif" font-size="14" lengthAdjust="spacing" textLength="133" x="17" y="560.5332">SistemaModificaPista</text></g><g id="SistemaMuestraPistaModificada"><rect fill="#F1F1F1" height="50" rx="12.5" ry="12.5" style="stroke:#181818;stroke-width:0.5;" width="220" x="129.5" y="703"/><line style="stroke:#181818;stroke-width:0.5;" x1="129.5" x2="349.5" y1="730.6094" y2="730.6094"/><text fill="#000000" font-family="sans-serif" font-size="14" lengthAdjust="spacing" textLength="200" x="139.5" y="722.5332">SistemaMuestraPistaModificada</text></g><ellipse cx="355.5" cy="860" fill="none" rx="11" ry="11" style="stroke:#222222;stroke-width:1.0;"/><ellipse cx="355.5" cy="860" fill="#222222" rx="6" ry="6" style="stroke:#222222;stroke-width:1.0;"/><!--link *start* to UsuarioSolicitaPista--><g id="link_*start*_UsuarioSolicitaPista"><path d="M343.5,26.01 C343.5,39.89 343.5,60.97 343.5,80.84 " fill="none" id="*start*-to-UsuarioSolicitaPista" style="stroke:#181818;stroke-width:1.0;"/><polygon fill="#181818" points="343.5,86.84,347.5,77.84,343.5,81.84,339.5,77.84,343.5,86.84" style="stroke:#181818;stroke-width:1.0;"/></g><!--link UsuarioSolicitaPista to SistemaMuestraPista--><g id="link_UsuarioSolicitaPista_SistemaMuestraPista"><path d="M343.5,137.1 C343.5,163.68 343.5,200.21 343.5,226.82 " fill="none" id="UsuarioSolicitaPista-to-SistemaMuestraPista" style="stroke:#181818;stroke-width:1.0;"/><polygon fill="#181818" points="343.5,232.82,347.5,223.82,343.5,227.82,339.5,223.82,343.5,232.82" style="stroke:#181818;stroke-width:1.0;"/><path d="M348.5,172 L348.5,198 L529.5,198 L529.5,182 L519.5,172 L348.5,172 " fill="#FEFFDD" style="stroke:#181818;stroke-width:0.5;"/><path d="M519.5,172 L519.5,182 L529.5,182 L519.5,172 " fill="#FEFFDD" style="stroke:#181818;stroke-width:0.5;"/><text fill="#000000" font-family="sans-serif" font-size="13" lengthAdjust="spacing" textLength="160" x="354.5" y="190.4951">El usuario solicita una pista</text></g><!--link SistemaMuestraPista to UsuarioIntroduceModificaciones--><g id="link_SistemaMuestraPista_UsuarioIntroduceModificaciones"><path d="M294.19,283.07 C278.14,291.7 260.59,302.04 245.5,313 C218.33,332.74 194.8847,355.1805 176.2947,374.3705 " fill="none" id="SistemaMuestraPista-to-UsuarioIntroduceModificaciones" style="stroke:#181818;stroke-width:1.0;"/><polygon fill="#181818" points="172.12,378.68,181.2551,374.9989,175.5989,375.0888,175.5091,369.4326,172.12,378.68" style="stroke:#181818;stroke-width:1.0;"/><path d="M250.5,318 L250.5,344 L430.5,344 L430.5,328 L420.5,318 L250.5,318 " fill="#FEFFDD" style="stroke:#181818;stroke-width:0.5;"/><path d="M420.5,318 L420.5,328 L430.5,328 L420.5,318 " fill="#FEFFDD" style="stroke:#181818;stroke-width:0.5;"/><text fill="#000000" font-family="sans-serif" font-size="13" lengthAdjust="spacing" textLength="159" x="256.5" y="336.4951">El sistema muestra la pista</text></g><!--link SistemaMuestraPista to Error--><g id="link_SistemaMuestraPista_Error"><path d="M406.08,283.09 C418.97,290.8 431.15,300.64 439.5,313 C487.55,384.11 482.3372,486.6706 476.7172,534.7106 " fill="none" id="SistemaMuestraPista-to-Error" style="stroke:#181818;stroke-width:1.0;"/><polygon fill="#181818" points="476.02,540.67,481.0386,532.1957,476.601,535.7039,473.0928,531.2662,476.02,540.67" style="stroke:#181818;stroke-width:1.0;"/><path d="M482.5,391 L482.5,417 L672.5,417 L672.5,401 L662.5,391 L482.5,391 " fill="#FEFFDD" style="stroke:#181818;stroke-width:0.5;"/><path d="M662.5,391 L662.5,401 L672.5,401 L662.5,391 " fill="#FEFFDD" style="stroke:#181818;stroke-width:0.5;"/><text fill="#000000" font-family="sans-serif" font-size="13" lengthAdjust="spacing" textLength="169" x="488.5" y="409.4951">La pista no se puede mostrar</text></g><!--link UsuarioIntroduceModificaciones to SistemaModificaPista--><g id="link_UsuarioIntroduceModificaciones_SistemaModificaPista"><path d="M139.48,429.3 C127,459.55 108.1079,505.3433 95.6879,535.4533 " fill="none" id="UsuarioIntroduceModificaciones-to-SistemaModificaPista" style="stroke:#181818;stroke-width:1.0;"/><polygon fill="#181818" points="93.4,541,100.5297,534.2053,95.3066,536.3778,93.1341,531.1547,93.4,541" style="stroke:#181818;stroke-width:1.0;"/><path d="M131.5,464 L131.5,506 L305.5,506 L305.5,474 L295.5,464 L131.5,464 " fill="#FEFFDD" style="stroke:#181818;stroke-width:0.5;"/><path d="M295.5,464 L295.5,474 L305.5,474 L295.5,464 " fill="#FEFFDD" style="stroke:#181818;stroke-width:0.5;"/><text fill="#000000" font-family="sans-serif" font-size="13" lengthAdjust="spacing" textLength="136" x="137.5" y="482.4951">El usuario introduce las</text><text fill="#000000" font-family="sans-serif" font-size="13" lengthAdjust="spacing" textLength="153" x="137.5" y="498.8467">modificaciones necesarias</text></g><!--link SistemaModificaPista to SistemaMuestraPistaModificada--><g id="link_SistemaModificaPista_SistemaMuestraPistaModificada"><path d="M107.19,591.3 C136.68,621.55 182.5512,668.5942 211.9112,698.7042 " fill="none" id="SistemaModificaPista-to-SistemaMuestraPistaModificada" style="stroke:#181818;stroke-width:1.0;"/><polygon fill="#181818" points="216.1,703,212.6807,693.7638,212.6093,699.4202,206.9529,699.3488,216.1,703" style="stroke:#181818;stroke-width:1.0;"/><path d="M190.5,626 L190.5,668 L329.5,668 L329.5,636 L319.5,626 L190.5,626 " fill="#FEFFDD" style="stroke:#181818;stroke-width:0.5;"/><path d="M319.5,626 L319.5,636 L329.5,636 L319.5,626 " fill="#FEFFDD" style="stroke:#181818;stroke-width:0.5;"/><text fill="#000000" font-family="sans-serif" font-size="13" lengthAdjust="spacing" textLength="114" x="196.5" y="644.4951">El sistema modifica</text><text fill="#000000" font-family="sans-serif" font-size="13" lengthAdjust="spacing" textLength="104" x="196.5" y="660.8467">y muestra la pista</text></g><!--link SistemaModificaPista to Error--><g id="link_SistemaModificaPista_Error"><path d="M160.35,566 C248.48,566 382.22,566 440.07,566 " fill="none" id="SistemaModificaPista-to-Error" style="stroke:#181818;stroke-width:1.0;"/><polygon fill="#181818" points="446.07,566,437.07,562,441.07,566,437.07,570,446.07,566" style="stroke:#181818;stroke-width:1.0;"/><path d="M182.25,532 L182.25,558 L424.25,558 L424.25,542 L414.25,532 L182.25,532 " fill="#FEFFDD" style="stroke:#181818;stroke-width:0.5;"/><path d="M414.25,532 L414.25,542 L424.25,542 L414.25,532 " fill="#FEFFDD" style="stroke:#181818;stroke-width:0.5;"/><text fill="#000000" font-family="sans-serif" font-size="13" lengthAdjust="spacing" textLength="221" x="188.25" y="550.4951">El sistema no puede modificar la pista</text></g><!--link Error to *end*--><g id="link_Error_*end*"><path d="M464.7,591.09 C449.72,636.48 415.06,737.46 377.5,819 C372.39,830.09 368.5198,837.1429 363.8098,845.1229 " fill="none" id="Error-to-*end*" style="stroke:#181818;stroke-width:1.0;"/><polygon fill="#181818" points="360.76,850.29,368.7794,844.5725,363.3015,845.9841,361.8899,840.5062,360.76,850.29" style="stroke:#181818;stroke-width:1.0;"/><path d="M429.5,715 L429.5,741 L470.5,741 L470.5,725 L460.5,715 L429.5,715 " fill="#FEFFDD" style="stroke:#181818;stroke-width:0.5;"/><path d="M460.5,715 L460.5,725 L470.5,725 L460.5,715 " fill="#FEFFDD" style="stroke:#181818;stroke-width:0.5;"/><text fill="#000000" font-family="sans-serif" font-size="13" font-weight="bold" lengthAdjust="spacing" textLength="20" x="435.5" y="733.4951">Fin</text></g><!--link SistemaMuestraPistaModificada to *end*--><g id="link_SistemaMuestraPistaModificada_*end*"><path d="M261.05,753.15 C287.65,782.96 327.4551,827.5733 344.4551,846.6233 " fill="none" id="SistemaMuestraPistaModificada-to-*end*" style="stroke:#181818;stroke-width:1.0;"/><polygon fill="#181818" points="348.45,851.1,345.4421,841.7217,345.1209,847.3694,339.4732,847.0483,348.45,851.1" style="stroke:#181818;stroke-width:1.0;"/><path d="M323.5,788 L323.5,814 L364.5,814 L364.5,798 L354.5,788 L323.5,788 " fill="#FEFFDD" style="stroke:#181818;stroke-width:0.5;"/><path d="M354.5,788 L354.5,798 L364.5,798 L354.5,788 " fill="#FEFFDD" style="stroke:#181818;stroke-width:0.5;"/><text fill="#000000" font-family="sans-serif" font-size="13" font-weight="bold" lengthAdjust="spacing" textLength="20" x="329.5" y="806.4951">Fin</text></g><!--SRC=[bP51YiCm34NtEONMXbnXTYqCJA5GkYfT65i5qKGkahsOsuyRExGXQThnobXVxqlV9tE6jls2eoOh50wX8qVHxacZRPOUeVLPViXNxEqkeKQfQWuH8J1qnDS6yjbqa0e1j28WiONR84VsS6zf5bZ5fDf_SvJWayDTy7GXPnq5HbtqqyA2li2W-znj8n9a3lsfXDmDYd1Bw17wS6-M1tLzr6bcjVG-D1ffUGs5eTfFkOmEDMkjpXTyjddvQQFAs_KugwmCyVj1l5DtUPtlaqjEU8otTCk2mO0f-vpCUSupPajipEg7FxR-3-WF]--></g></svg>