<?xml version="1.0" encoding="us-ascii" standalone="no"?><svg xmlns="http://www.w3.org/2000/svg" xmlns:xlink="http://www.w3.org/1999/xlink" contentStyleType="text/css" height="705px" preserveAspectRatio="none" style="width:521px;height:705px;background:#FFFFFF;" version="1.1" viewBox="0 0 521 705" width="521px" zoomAndPan="magnify"><defs/><g><ellipse cx="437" cy="16" fill="#222222" rx="10" ry="10" style="stroke:#222222;stroke-width:1.0;"/><g id="UsuarioSolicitaPista"><rect fill="#F1F1F1" height="50" rx="12.5" ry="12.5" style="stroke:#181818;stroke-width:0.5;" width="144" x="365" y="87"/><line style="stroke:#181818;stroke-width:0.5;" x1="365" x2="509" y1="114.6094" y2="114.6094"/><text fill="#000000" font-family="sans-serif" font-size="14" lengthAdjust="spacing" textLength="124" x="375" y="106.5332">UsuarioSolicitaPista</text></g><g id="SistemaMuestraPista"><rect fill="#F1F1F1" height="50" rx="12.5" ry="12.5" style="stroke:#181818;stroke-width:0.5;" width="152" x="361" y="198"/><line style="stroke:#181818;stroke-width:0.5;" x1="361" x2="513" y1="225.6094" y2="225.6094"/><text fill="#000000" font-family="sans-serif" font-size="14" lengthAdjust="spacing" textLength="132" x="371" y="217.5332">SistemaMuestraPista</text></g><g id="elem_GMN7"><path d="M148.5,99 L148.5,125.3516 A0,0 0 0 0 148.5,125.3516 L329.5,125.3516 A0,0 0 0 0 329.5,125.3516 L329.5,117 L364.61,112 L329.5,109 L329.5,109 L319.5,99 L148.5,99 A0,0 0 0 0 148.5,99 " fill="#FEFFDD" style="stroke:#181818;stroke-width:0.5;"/><path d="M319.5,99 L319.5,109 L329.5,109 L319.5,99 " fill="#FEFFDD" style="stroke:#181818;stroke-width:0.5;"/><text fill="#000000" font-family="sans-serif" font-size="13" lengthAdjust="spacing" textLength="160" x="154.5" y="117.4951">El usuario solicita una pista</text></g><g id="UsuarioIntroduceModificaciones"><rect fill="#F1F1F1" height="50" rx="12.5" ry="12.5" style="stroke:#181818;stroke-width:0.5;" width="220" x="215" y="309"/><line style="stroke:#181818;stroke-width:0.5;" x1="215" x2="435" y1="336.6094" y2="336.6094"/><text fill="#000000" font-family="sans-serif" font-size="14" lengthAdjust="spacing" textLength="200" x="225" y="328.5332">UsuarioIntroduceModificaciones</text></g><g id="elem_GMN12"><path d="M146,210 L146,236.3516 A0,0 0 0 0 146,236.3516 L326,236.3516 A0,0 0 0 0 326,236.3516 L326,228 L360.89,223 L326,220 L326,220 L316,210 L146,210 A0,0 0 0 0 146,210 " fill="#FEFFDD" style="stroke:#181818;stroke-width:0.5;"/><path d="M316,210 L316,220 L326,220 L316,210 " fill="#FEFFDD" style="stroke:#181818;stroke-width:0.5;"/><text fill="#000000" font-family="sans-serif" font-size="13" lengthAdjust="spacing" textLength="159" x="152" y="228.4951">El sistema muestra la pista</text></g><g id="Error"><rect fill="#F1F1F1" height="50" rx="12.5" ry="12.5" style="stroke:#181818;stroke-width:0.5;" width="52" x="462" y="420"/><line style="stroke:#181818;stroke-width:0.5;" x1="462" x2="514" y1="447.6094" y2="447.6094"/><text fill="#000000" font-family="sans-serif" font-size="14" lengthAdjust="spacing" textLength="32" x="472" y="439.5332">Error</text></g><g id="SistemaModificaPista"><rect fill="#F1F1F1" height="50" rx="12.5" ry="12.5" style="stroke:#181818;stroke-width:0.5;" width="153" x="248.5" y="420"/><line style="stroke:#181818;stroke-width:0.5;" x1="248.5" x2="401.5" y1="447.6094" y2="447.6094"/><text fill="#000000" font-family="sans-serif" font-size="14" lengthAdjust="spacing" textLength="133" x="258.5" y="439.5332">SistemaModificaPista</text></g><g id="elem_GMN19"><path d="M6,312.5 L6,355.2031 A0,0 0 0 0 6,355.2031 L180,355.2031 A0,0 0 0 0 180,355.2031 L180,338 L214.9,334 L180,330 L180,322.5 L170,312.5 L6,312.5 A0,0 0 0 0 6,312.5 " fill="#FEFFDD" style="stroke:#181818;stroke-width:0.5;"/><path d="M170,312.5 L170,322.5 L180,322.5 L170,312.5 " fill="#FEFFDD" style="stroke:#181818;stroke-width:0.5;"/><text fill="#000000" font-family="sans-serif" font-size="13" lengthAdjust="spacing" textLength="136" x="12" y="330.9951">El usuario introduce las</text><text fill="#000000" font-family="sans-serif" font-size="13" lengthAdjust="spacing" textLength="153" x="12" y="347.3467">modificaciones necesarias</text></g><g id="SistemaMuestraPistaModificada"><rect fill="#F1F1F1" height="50" rx="12.5" ry="12.5" style="stroke:#181818;stroke-width:0.5;" width="220" x="215" y="531"/><line style="stroke:#181818;stroke-width:0.5;" x1="215" x2="435" y1="558.6094" y2="558.6094"/><text fill="#000000" font-family="sans-serif" font-size="14" lengthAdjust="spacing" textLength="200" x="225" y="550.5332">SistemaMuestraPistaModificada</text></g><g id="elem_GMN24"><path d="M32.5,432 L32.5,458.3516 A0,0 0 0 0 32.5,458.3516 L213.5,458.3516 A0,0 0 0 0 213.5,458.3516 L213.5,450 L248.08,445 L213.5,442 L213.5,442 L203.5,432 L32.5,432 A0,0 0 0 0 32.5,432 " fill="#FEFFDD" style="stroke:#181818;stroke-width:0.5;"/><path d="M203.5,432 L203.5,442 L213.5,442 L203.5,432 " fill="#FEFFDD" style="stroke:#181818;stroke-width:0.5;"/><text fill="#000000" font-family="sans-serif" font-size="13" lengthAdjust="spacing" textLength="160" x="38.5" y="450.4951">El sistema modifica la pista</text></g><g id="elem_GMN28"><path d="M46,534.5 L46,577.2031 A0,0 0 0 0 46,577.2031 L180,577.2031 A0,0 0 0 0 180,577.2031 L180,560 L214.89,556 L180,552 L180,544.5 L170,534.5 L46,534.5 A0,0 0 0 0 46,534.5 " fill="#FEFFDD" style="stroke:#181818;stroke-width:0.5;"/><path d="M170,534.5 L170,544.5 L180,544.5 L170,534.5 " fill="#FEFFDD" style="stroke:#181818;stroke-width:0.5;"/><text fill="#000000" font-family="sans-serif" font-size="13" lengthAdjust="spacing" textLength="113" x="52" y="552.9951">El sistema muestra</text><text fill="#000000" font-family="sans-serif" font-size="13" lengthAdjust="spacing" textLength="108" x="52" y="569.3467">la pista modificada</text></g><ellipse cx="407" cy="688" fill="none" rx="11" ry="11" style="stroke:#222222;stroke-width:1.0;"/><ellipse cx="407" cy="688" fill="#222222" rx="6" ry="6" style="stroke:#222222;stroke-width:1.0;"/><!--link *start* to UsuarioSolicitaPista--><g id="link_*start*_UsuarioSolicitaPista"><path d="M437,26.01 C437,39.89 437,60.97 437,80.84 " fill="none" id="*start*-to-UsuarioSolicitaPista" style="stroke:#181818;stroke-width:1.0;"/><polygon fill="#181818" points="437,86.84,441,77.84,437,81.84,433,77.84,437,86.84" style="stroke:#181818;stroke-width:1.0;"/></g><!--link UsuarioSolicitaPista to SistemaMuestraPista--><g id="link_UsuarioSolicitaPista_SistemaMuestraPista"><path d="M437,137.19 C437,155.25 437,173.83 437,191.88 " fill="none" id="UsuarioSolicitaPista-to-SistemaMuestraPista" style="stroke:#181818;stroke-width:1.0;"/><polygon fill="#181818" points="437,197.88,441,188.88,437,192.88,433,188.88,437,197.88" style="stroke:#181818;stroke-width:1.0;"/></g><!--link SistemaMuestraPista to UsuarioIntroduceModificaciones--><g id="link_SistemaMuestraPista_UsuarioIntroduceModificaciones"><path d="M412.14,248.19 C393.58,266.25 372.6291,286.6446 354.0891,304.6946 " fill="none" id="SistemaMuestraPista-to-UsuarioIntroduceModificaciones" style="stroke:#181818;stroke-width:1.0;"/><polygon fill="#181818" points="349.79,308.88,359.0289,305.4679,353.3726,305.3921,353.4483,299.7358,349.79,308.88" style="stroke:#181818;stroke-width:1.0;"/></g><!--link SistemaMuestraPista to Error--><g id="link_SistemaMuestraPista_Error"><path d="M442.65,248.38 C452.48,290.78 471.2553,371.7549 481.0453,413.9949 " fill="none" id="SistemaMuestraPista-to-Error" style="stroke:#181818;stroke-width:1.0;"/><polygon fill="#181818" points="482.4,419.84,484.2646,410.1693,481.2711,414.9691,476.4712,411.9756,482.4,419.84" style="stroke:#181818;stroke-width:1.0;"/></g><!--link UsuarioIntroduceModificaciones to SistemaModificaPista--><g id="link_UsuarioIntroduceModificaciones_SistemaModificaPista"><path d="M325,359.19 C325,377.25 325,395.83 325,413.88 " fill="none" id="UsuarioIntroduceModificaciones-to-SistemaModificaPista" style="stroke:#181818;stroke-width:1.0;"/><polygon fill="#181818" points="325,419.88,329,410.88,325,414.88,321,410.88,325,419.88" style="stroke:#181818;stroke-width:1.0;"/></g><!--link SistemaModificaPista to SistemaMuestraPistaModificada--><g id="link_SistemaModificaPista_SistemaMuestraPistaModificada"><path d="M325,470.19 C325,488.25 325,506.83 325,524.88 " fill="none" id="SistemaModificaPista-to-SistemaMuestraPistaModificada" style="stroke:#181818;stroke-width:1.0;"/><polygon fill="#181818" points="325,530.88,329,521.88,325,525.88,321,521.88,325,530.88" style="stroke:#181818;stroke-width:1.0;"/></g><!--link SistemaModificaPista to Error--><g id="link_SistemaModificaPista_Error"><path d="M401.72,445 C421.72,445 435.72,445 455.71,445 " fill="none" id="SistemaModificaPista-to-Error" style="stroke:#181818;stroke-width:1.0;"/><polygon fill="#181818" points="461.71,445,452.71,441,456.71,445,452.71,449,461.71,445" style="stroke:#181818;stroke-width:1.0;"/></g><!--link Error to *end*--><g id="link_Error_*end*"><path d="M485.8,470.1 C481.48,509.08 469.59,587.59 440,647 C433.58,659.89 426.5551,668.08 418.9951,675.56 " fill="none" id="Error-to-*end*" style="stroke:#181818;stroke-width:1.0;"/><polygon fill="#181818" points="414.73,679.78,423.9411,676.2934,418.2843,676.2633,418.3144,670.6065,414.73,679.78" style="stroke:#181818;stroke-width:1.0;"/></g><!--link SistemaMuestraPistaModificada to *end*--><g id="link_SistemaMuestraPistaModificada_*end*"><path d="M340.23,581.15 C358.76,610.52 385.8905,653.5242 398.2705,673.1642 " fill="none" id="SistemaMuestraPistaModificada-to-*end*" style="stroke:#181818;stroke-width:1.0;"/><polygon fill="#181818" points="401.47,678.24,400.0546,668.4934,398.8038,674.0102,393.2869,672.7594,401.47,678.24" style="stroke:#181818;stroke-width:1.0;"/><path d="M386,616 L386,642 L427,642 L427,626 L417,616 L386,616 " fill="#FEFFDD" style="stroke:#181818;stroke-width:0.5;"/><path d="M417,616 L417,626 L427,626 L417,616 " fill="#FEFFDD" style="stroke:#181818;stroke-width:0.5;"/><text fill="#000000" font-family="sans-serif" font-size="13" font-weight="bold" lengthAdjust="spacing" textLength="20" x="392" y="634.4951">Fin</text></g><!--SRC=[ZP51YyCW48Nl-HLp5l8NzjR27Wg5igVIWwY1OOspEFh_wwffOzUacrFmFUPzy-OgRZ2E7_35KNga2rbK6EGPESYXzmYZJlPB-ZMpF4N3mLUtes30cYa0JVrvaBw3XLWqu2f2T19-iiCu3RzpXav0IQw3FrtmfACo9z8ueP8AoHbk8NgKbO6B17FHmFwVuE0z-M6VessfIjirRMtpKXWkjeJBaDMvZNL66KvUoNyNMLDiNd5nQTclibdbjSigxfJPClX7c-_EjiBg7p0_BxaF4hr2o45bxwku3RiXJri68mSMtNVE4EA8JeZdt3i0]--></g></svg>