<svg xmlns="http://www.w3.org/2000/svg" xmlns:xlink="http://www.w3.org/1999/xlink" contentStyleType="text/css" height="1007px" preserveAspectRatio="none" style="width:571px;height:1007px;background:#FFFFFF;" version="1.1" viewBox="0 0 571 1007" width="571px" zoomAndPan="magnify"><defs/><g><ellipse cx="89" cy="16" fill="#222222" rx="10" ry="10" style="stroke:#222222;stroke-width:1.0;"/><g id="UsuarioSolicitaPista"><rect fill="#F1F1F1" height="50" rx="12.5" ry="12.5" style="stroke:#181818;stroke-width:0.5;" width="153" x="12.5" y="87"/><line style="stroke:#181818;stroke-width:0.5;" x1="12.5" x2="165.5" y1="113.2969" y2="113.2969"/><text fill="#000000" font-family="sans-serif" font-size="14" lengthAdjust="spacing" textLength="133" x="22.5" y="104.9951">UsuarioSolicitaPista</text></g><g id="SistemaMuestraPista"><rect fill="#F1F1F1" height="50" rx="12.5" ry="12.5" style="stroke:#181818;stroke-width:0.5;" width="164" x="7" y="232"/><line style="stroke:#181818;stroke-width:0.5;" x1="7" x2="171" y1="258.2969" y2="258.2969"/><text fill="#000000" font-family="sans-serif" font-size="14" lengthAdjust="spacing" textLength="144" x="17" y="249.9951">SistemaMuestraPista</text></g><g id="UsuarioIntroduceModificaciones"><rect fill="#F1F1F1" height="50" rx="12.5" ry="12.5" style="stroke:#181818;stroke-width:0.5;" width="240" x="124" y="392"/><line style="stroke:#181818;stroke-width:0.5;" x1="124" x2="364" y1="418.2969" y2="418.2969"/><text fill="#000000" font-family="sans-serif" font-size="14" lengthAdjust="spacing" textLength="220" x="134" y="409.9951">UsuarioIntroduceModificaciones</text></g><ellipse cx="255" cy="990" fill="none" rx="11" ry="11" style="stroke:#222222;stroke-width:1.0;"/><ellipse cx="255" cy="990" fill="#222222" rx="6" ry="6" style="stroke:#222222;stroke-width:1.0;"/><g id="SistemaModificaPista"><rect fill="#F1F1F1" height="50" rx="12.5" ry="12.5" style="stroke:#181818;stroke-width:0.5;" width="164" x="173" y="567"/><line style="stroke:#181818;stroke-width:0.5;" x1="173" x2="337" y1="593.2969" y2="593.2969"/><text fill="#000000" font-family="sans-serif" font-size="14" lengthAdjust="spacing" textLength="144" x="183" y="584.9951">SistemaModificaPista</text></g><g id="SistemaMuestraPistaModificada"><rect fill="#F1F1F1" height="50" rx="12.5" ry="12.5" style="stroke:#181818;stroke-width:0.5;" width="237" x="327.5" y="742"/><line style="stroke:#181818;stroke-width:0.5;" x1="327.5" x2="564.5" y1="768.2969" y2="768.2969"/><text fill="#000000" font-family="sans-serif" font-size="14" lengthAdjust="spacing" textLength="217" x="337.5" y="759.9951">SistemaMuestraPistaModificada</text></g><!--link *start* to UsuarioSolicitaPista--><g id="link_*start*_UsuarioSolicitaPista"><path d="M89,26.36 C89,40.29 89,60.95 89,80.65 " fill="none" id="*start*-to-UsuarioSolicitaPista" style="stroke:#181818;stroke-width:1.0;"/><polygon fill="#181818" points="89,86.65,93,77.65,89,81.65,85,77.65,89,86.65" style="stroke:#181818;stroke-width:1.0;"/></g><!--link UsuarioSolicitaPista to SistemaMuestraPista--><g id="link_UsuarioSolicitaPista_SistemaMuestraPista"><path d="M89,137.26 C89,163.55 89,199.28 89,225.62 " fill="none" id="UsuarioSolicitaPista-to-SistemaMuestraPista" style="stroke:#181818;stroke-width:1.0;"/><polygon fill="#181818" points="89,231.62,93,222.62,89,226.62,85,222.62,89,231.62" style="stroke:#181818;stroke-width:1.0;"/><path d="M94,172 L94,197 L451,197 L451,182 L441,172 L94,172 " fill="#FEFFDD" style="stroke:#181818;stroke-width:0.5;"/><path d="M441,172 L441,182 L451,182 L441,172 " fill="#FEFFDD" style="stroke:#181818;stroke-width:0.5;"/><text fill="#000000" font-family="sans-serif" font-size="13" lengthAdjust="spacing" textLength="11" x="100" y="189.0669">El</text><text fill="#000000" font-family="sans-serif" font-size="13" font-weight="bold" lengthAdjust="spacing" textLength="105" x="115" y="189.0669">Administrador</text><text fill="#000000" font-family="sans-serif" font-size="13" lengthAdjust="spacing" textLength="212" x="224" y="189.0669">selecciona la pista que desea ver</text></g><!--link SistemaMuestraPista to UsuarioIntroduceModificaciones--><g id="link_SistemaMuestraPista_UsuarioIntroduceModificaciones"><path d="M112.88,282.34 C142.01,312.03 186.7479,357.6472 215.8879,387.3472 " fill="none" id="SistemaMuestraPista-to-UsuarioIntroduceModificaciones" style="stroke:#181818;stroke-width:1.0;"/><polygon fill="#181818" points="220.09,391.63,216.6421,382.4044,216.5883,388.061,210.9317,388.0071,220.09,391.63" style="stroke:#181818;stroke-width:1.0;"/><path d="M194,317 L194,357 L389,357 L389,327 L379,317 L194,317 " fill="#FEFFDD" style="stroke:#181818;stroke-width:0.5;"/><path d="M379,317 L379,327 L389,327 L379,317 " fill="#FEFFDD" style="stroke:#181818;stroke-width:0.5;"/><text fill="#000000" font-family="sans-serif" font-size="13" lengthAdjust="spacing" textLength="174" x="200" y="334.0669">El sistema muestra la pista</text><text fill="#000000" font-family="sans-serif" font-size="13" lengthAdjust="spacing" textLength="11" x="200" y="349.1997">al</text><text fill="#000000" font-family="sans-serif" font-size="13" font-weight="bold" lengthAdjust="spacing" textLength="105" x="215" y="349.1997">Administrador</text></g><!--link SistemaMuestraPista to *end*--><g id="link_SistemaMuestraPista_*end*"><path d="M81.68,282.38 C73.09,313.2 60,368.03 60,416 C60,416 60,416 60,918 C60,957.45 196.7743,980.4837 238.0243,986.5737 " fill="none" id="SistemaMuestraPista-to-*end*" style="stroke:#FF0000;stroke-width:1.0;"/><polygon fill="#FF0000" points="243.96,987.45,235.6407,982.1784,239.0136,986.7197,234.4723,990.0926,243.96,987.45" style="stroke:#FF0000;stroke-width:1.0;"/><path d="M65,652 L65,707 L227,707 L227,662 L217,652 L65,652 " fill="#FEFFDD" style="stroke:#181818;stroke-width:0.5;"/><path d="M217,652 L217,662 L227,662 L217,652 " fill="#FEFFDD" style="stroke:#181818;stroke-width:0.5;"/><text fill="#000000" font-family="sans-serif" font-size="13" lengthAdjust="spacing" textLength="15" x="71" y="669.0669">La</text><text fill="#000000" font-family="sans-serif" font-size="13" font-weight="bold" lengthAdjust="spacing" textLength="37" x="90" y="669.0669">pista</text><text fill="#000000" font-family="sans-serif" font-size="13" lengthAdjust="spacing" textLength="79" x="131" y="669.0669">no se puede</text><text fill="#000000" font-family="sans-serif" font-size="13" lengthAdjust="spacing" textLength="137" x="71" y="684.1997">mostrar ya que se ha</text><text fill="#000000" font-family="sans-serif" font-size="13" lengthAdjust="spacing" textLength="118" x="71" y="699.3325">producido un error</text></g><!--link UsuarioIntroduceModificaciones to SistemaModificaPista--><g id="link_UsuarioIntroduceModificaciones_SistemaModificaPista"><path d="M245.55,442.42 C247.65,475.39 250.9778,527.8122 253.0778,560.7122 " fill="none" id="UsuarioIntroduceModificaciones-to-SistemaModificaPista" style="stroke:#181818;stroke-width:1.0;"/><polygon fill="#181818" points="253.46,566.7,256.8786,557.4635,253.1415,561.7102,248.8948,557.9731,253.46,566.7" style="stroke:#181818;stroke-width:1.0;"/><path d="M256,477 L256,532 L465,532 L465,487 L455,477 L256,477 " fill="#FEFFDD" style="stroke:#181818;stroke-width:0.5;"/><path d="M455,477 L455,487 L465,487 L455,477 " fill="#FEFFDD" style="stroke:#181818;stroke-width:0.5;"/><text fill="#000000" font-family="sans-serif" font-size="13" lengthAdjust="spacing" textLength="11" x="262" y="494.0669">El</text><text fill="#000000" font-family="sans-serif" font-size="13" font-weight="bold" lengthAdjust="spacing" textLength="105" x="277" y="494.0669">Administrador</text><text fill="#000000" font-family="sans-serif" font-size="13" lengthAdjust="spacing" textLength="60" x="386" y="494.0669">introduce</text><text fill="#000000" font-family="sans-serif" font-size="13" lengthAdjust="spacing" textLength="117" x="262" y="509.1997">las modificaciones</text><text fill="#000000" font-family="sans-serif" font-size="13" lengthAdjust="spacing" textLength="69" x="262" y="524.3325">necesarias</text></g><!--link SistemaModificaPista to SistemaMuestraPistaModificada--><g id="link_SistemaModificaPista_SistemaMuestraPistaModificada"><path d="M281.96,617.42 C318.36,650.39 378.4026,704.7725 414.7326,737.6725 " fill="none" id="SistemaModificaPista-to-SistemaMuestraPistaModificada" style="stroke:#181818;stroke-width:1.0;"/><polygon fill="#181818" points="419.18,741.7,415.1939,732.6938,415.4738,738.3438,409.8239,738.6237,419.18,741.7" style="stroke:#181818;stroke-width:1.0;"/><path d="M389,659.5 L389,699.5 L545,699.5 L545,669.5 L535,659.5 L389,659.5 " fill="#FEFFDD" style="stroke:#181818;stroke-width:0.5;"/><path d="M535,659.5 L535,669.5 L545,669.5 L535,659.5 " fill="#FEFFDD" style="stroke:#181818;stroke-width:0.5;"/><text fill="#000000" font-family="sans-serif" font-size="13" lengthAdjust="spacing" textLength="11" x="395" y="676.5669">El</text><text fill="#000000" font-family="sans-serif" font-size="13" font-weight="bold" lengthAdjust="spacing" textLength="58" x="410" y="676.5669">sistema</text><text fill="#000000" font-family="sans-serif" font-size="13" lengthAdjust="spacing" textLength="54" x="472" y="676.5669">modifica</text><text fill="#000000" font-family="sans-serif" font-size="13" lengthAdjust="spacing" textLength="46" x="395" y="691.6997">la pista</text></g><!--link SistemaModificaPista to *end*--><g id="link_SistemaModificaPista_*end*"><path d="M253.46,617.4 C250.5,667.78 244.57,786.99 248,887 C249.15,920.53 251.8917,954.1733 253.5217,972.6133 " fill="none" id="SistemaModificaPista-to-*end*" style="stroke:#181818;stroke-width:1.0;"/><polygon fill="#181818" points="254.05,978.59,257.242,969.2728,253.6097,973.6094,249.2731,969.9772,254.05,978.59" style="stroke:#181818;stroke-width:1.0;"/><path d="M253,827 L253,882 L431,882 L431,837 L421,827 L253,827 " fill="#FEFFDD" style="stroke:#181818;stroke-width:0.5;"/><path d="M421,827 L421,837 L431,837 L421,827 " fill="#FEFFDD" style="stroke:#181818;stroke-width:0.5;"/><text fill="#000000" font-family="sans-serif" font-size="13" lengthAdjust="spacing" textLength="11" x="259" y="844.0669">El</text><text fill="#000000" font-family="sans-serif" font-size="13" font-weight="bold" lengthAdjust="spacing" textLength="58" x="274" y="844.0669">sistema</text><text fill="#000000" font-family="sans-serif" font-size="13" lengthAdjust="spacing" textLength="60" x="336" y="844.0669">no puede</text><text fill="#000000" font-family="sans-serif" font-size="13" lengthAdjust="spacing" textLength="156" x="259" y="859.1997">modificar la pista ya que</text><text fill="#000000" font-family="sans-serif" font-size="13" lengthAdjust="spacing" textLength="157" x="259" y="874.3325">se ha producido un error</text></g><!--link SistemaMuestraPistaModificada to *end*--><g id="link_SistemaMuestraPistaModificada_*end*"><path d="M452.33,792.31 C457.53,817.85 461.5,858.22 444,887 C402.74,954.86 305.1851,979.2414 271.5951,985.9114 " fill="none" id="SistemaMuestraPistaModificada-to-*end*" style="stroke:#181818;stroke-width:1.0;"/><polygon fill="#181818" points="265.71,987.08,275.3167,989.2505,270.6142,986.1062,273.7586,981.4037,265.71,987.08" style="stroke:#181818;stroke-width:1.0;"/></g><!--SRC=[bP91IyGm48Nl_HK3tWBx5nOyU11S41PFImz3Ck9Wcgb98_ZldIQjTjrk5tigUSDxt-JbP5hOxVRmaZ96bgDujZpWCwS1cxN3CdtKF-hma2aDSHeECX180C_XlG7z7ZmOS-yw3ZnEEOd6G29Frh8418_G5yUFJE0e4S8dnOQ2Wz6hMGbPeZw68OhBbWxY-9KjZgwKLZbIjOAkUlr45nrNE6zGdEuYkNOF9zDUvZsX-XLxtJU8hWnz9aT5x6IqYV1LrrRj3Q4eVTc6dK0EG37AuYgsLpwhP5B-qmdFjXN4OrBCiu1o7iXIKWnCbxUpJBtsGkOXTurhQac9vlWPQ6hhTkng8N_CjPBI1qo5L8_u-nvhDqMj_MnLqsnkgb2LwXi0]--></g></svg>