<?xml version="1.0" encoding="us-ascii" standalone="no"?><svg xmlns="http://www.w3.org/2000/svg" xmlns:xlink="http://www.w3.org/1999/xlink" contentStyleType="text/css" height="594px" preserveAspectRatio="none" style="width:440px;height:594px;background:#FFFFFF;" version="1.1" viewBox="0 0 440 594" width="440px" zoomAndPan="magnify"><defs/><g><ellipse cx="357" cy="16" fill="#222222" rx="10" ry="10" style="stroke:#222222;stroke-width:1.0;"/><g id="UsuarioSolicitaPista"><rect fill="#F1F1F1" height="50" rx="12.5" ry="12.5" style="stroke:#181818;stroke-width:0.5;" width="144" x="285" y="87"/><line style="stroke:#181818;stroke-width:0.5;" x1="285" x2="429" y1="114.6094" y2="114.6094"/><text fill="#000000" font-family="sans-serif" font-size="14" lengthAdjust="spacing" textLength="124" x="295" y="106.5332">UsuarioSolicitaPista</text></g><g id="SistemaMuestraPista"><rect fill="#F1F1F1" height="50" rx="12.5" ry="12.5" style="stroke:#181818;stroke-width:0.5;" width="152" x="281" y="198"/><line style="stroke:#181818;stroke-width:0.5;" x1="281" x2="433" y1="225.6094" y2="225.6094"/><text fill="#000000" font-family="sans-serif" font-size="14" lengthAdjust="spacing" textLength="132" x="291" y="217.5332">SistemaMuestraPista</text></g><g id="elem_GMN7"><path d="M68.5,99 L68.5,125.3516 A0,0 0 0 0 68.5,125.3516 L249.5,125.3516 A0,0 0 0 0 249.5,125.3516 L249.5,117 L284.61,112 L249.5,109 L249.5,109 L239.5,99 L68.5,99 A0,0 0 0 0 68.5,99 " fill="#FEFFDD" style="stroke:#181818;stroke-width:0.5;"/><path d="M239.5,99 L239.5,109 L249.5,109 L239.5,99 " fill="#FEFFDD" style="stroke:#181818;stroke-width:0.5;"/><text fill="#000000" font-family="sans-serif" font-size="13" lengthAdjust="spacing" textLength="160" x="74.5" y="117.4951">El usuario solicita una pista</text></g><g id="UsuarioSolicitaBorrarPista"><rect fill="#F1F1F1" height="50" rx="12.5" ry="12.5" style="stroke:#181818;stroke-width:0.5;" width="184" x="167" y="309"/><line style="stroke:#181818;stroke-width:0.5;" x1="167" x2="351" y1="336.6094" y2="336.6094"/><text fill="#000000" font-family="sans-serif" font-size="14" lengthAdjust="spacing" textLength="164" x="177" y="328.5332">UsuarioSolicitaBorrarPista</text></g><g id="elem_GMN12"><path d="M66,210 L66,236.3516 A0,0 0 0 0 66,236.3516 L246,236.3516 A0,0 0 0 0 246,236.3516 L246,228 L280.89,223 L246,220 L246,220 L236,210 L66,210 A0,0 0 0 0 66,210 " fill="#FEFFDD" style="stroke:#181818;stroke-width:0.5;"/><path d="M236,210 L236,220 L246,220 L236,210 " fill="#FEFFDD" style="stroke:#181818;stroke-width:0.5;"/><text fill="#000000" font-family="sans-serif" font-size="13" lengthAdjust="spacing" textLength="159" x="72" y="228.4951">El sistema muestra la pista</text></g><g id="Error"><rect fill="#F1F1F1" height="50" rx="12.5" ry="12.5" style="stroke:#181818;stroke-width:0.5;" width="52" x="374" y="420"/><line style="stroke:#181818;stroke-width:0.5;" x1="374" x2="426" y1="447.6094" y2="447.6094"/><text fill="#000000" font-family="sans-serif" font-size="14" lengthAdjust="spacing" textLength="32" x="384" y="439.5332">Error</text></g><g id="SistemaBorraPista"><rect fill="#F1F1F1" height="50" rx="12.5" ry="12.5" style="stroke:#181818;stroke-width:0.5;" width="136" x="203" y="420"/><line style="stroke:#181818;stroke-width:0.5;" x1="203" x2="339" y1="447.6094" y2="447.6094"/><text fill="#000000" font-family="sans-serif" font-size="14" lengthAdjust="spacing" textLength="116" x="213" y="439.5332">SistemaBorraPista</text></g><g id="elem_GMN19"><path d="M8,312.5 L8,355.2031 A0,0 0 0 0 8,355.2031 L132,355.2031 A0,0 0 0 0 132,355.2031 L132,338 L166.74,334 L132,330 L132,322.5 L122,312.5 L8,312.5 A0,0 0 0 0 8,312.5 " fill="#FEFFDD" style="stroke:#181818;stroke-width:0.5;"/><path d="M122,312.5 L122,322.5 L132,322.5 L122,312.5 " fill="#FEFFDD" style="stroke:#181818;stroke-width:0.5;"/><text fill="#000000" font-family="sans-serif" font-size="13" lengthAdjust="spacing" textLength="103" x="14" y="330.9951">El usuario solicita</text><text fill="#000000" font-family="sans-serif" font-size="13" lengthAdjust="spacing" textLength="79" x="14" y="347.3467">borrar la pista</text></g><g id="elem_GMN23"><path d="M6,432 L6,458.3516 A0,0 0 0 0 6,458.3516 L168,458.3516 A0,0 0 0 0 168,458.3516 L168,450 L202.75,445 L168,442 L168,442 L158,432 L6,432 A0,0 0 0 0 6,432 " fill="#FEFFDD" style="stroke:#181818;stroke-width:0.5;"/><path d="M158,432 L158,442 L168,442 L158,432 " fill="#FEFFDD" style="stroke:#181818;stroke-width:0.5;"/><text fill="#000000" font-family="sans-serif" font-size="13" lengthAdjust="spacing" textLength="141" x="12" y="450.4951">El sistema borra la pista</text></g><ellipse cx="335" cy="577" fill="none" rx="11" ry="11" style="stroke:#222222;stroke-width:1.0;"/><ellipse cx="335" cy="577" fill="#222222" rx="6" ry="6" style="stroke:#222222;stroke-width:1.0;"/><!--link *start* to UsuarioSolicitaPista--><g id="link_*start*_UsuarioSolicitaPista"><path d="M357,26.01 C357,39.89 357,60.97 357,80.84 " fill="none" id="*start*-to-UsuarioSolicitaPista" style="stroke:#181818;stroke-width:1.0;"/><polygon fill="#181818" points="357,86.84,361,77.84,357,81.84,353,77.84,357,86.84" style="stroke:#181818;stroke-width:1.0;"/></g><!--link UsuarioSolicitaPista to SistemaMuestraPista--><g id="link_UsuarioSolicitaPista_SistemaMuestraPista"><path d="M357,137.19 C357,155.25 357,173.83 357,191.88 " fill="none" id="UsuarioSolicitaPista-to-SistemaMuestraPista" style="stroke:#181818;stroke-width:1.0;"/><polygon fill="#181818" points="357,197.88,361,188.88,357,192.88,353,188.88,357,197.88" style="stroke:#181818;stroke-width:1.0;"/></g><!--link SistemaMuestraPista to UsuarioSolicitaBorrarPista--><g id="link_SistemaMuestraPista_UsuarioSolicitaBorrarPista"><path d="M335.25,248.19 C319.01,266.25 300.9204,286.3672 284.7004,304.4172 " fill="none" id="SistemaMuestraPista-to-UsuarioSolicitaBorrarPista" style="stroke:#181818;stroke-width:1.0;"/><polygon fill="#181818" points="280.69,308.88,289.6808,304.8593,284.032,305.161,283.7303,299.5122,280.69,308.88" style="stroke:#181818;stroke-width:1.0;"/></g><!--link SistemaMuestraPista to Error--><g id="link_SistemaMuestraPista_Error"><path d="M361.77,248.38 C370.05,290.78 385.8685,371.7115 394.1285,413.9515 " fill="none" id="SistemaMuestraPista-to-Error" style="stroke:#181818;stroke-width:1.0;"/><polygon fill="#181818" points="395.28,419.84,397.4784,410.2396,394.3204,414.9329,389.6271,411.775,395.28,419.84" style="stroke:#181818;stroke-width:1.0;"/></g><!--link UsuarioSolicitaBorrarPista to SistemaBorraPista--><g id="link_UsuarioSolicitaBorrarPista_SistemaBorraPista"><path d="M261.66,359.19 C263.65,377.25 265.7058,395.8658 267.6858,413.9158 " fill="none" id="UsuarioSolicitaBorrarPista-to-SistemaBorraPista" style="stroke:#181818;stroke-width:1.0;"/><polygon fill="#181818" points="268.34,419.88,271.3348,410.4975,267.7948,414.9098,263.3825,411.3698,268.34,419.88" style="stroke:#181818;stroke-width:1.0;"/></g><!--link SistemaBorraPista to Error--><g id="link_SistemaBorraPista_Error"><path d="M339.03,445 C350.62,445 356.21,445 367.8,445 " fill="none" id="SistemaBorraPista-to-Error" style="stroke:#181818;stroke-width:1.0;"/><polygon fill="#181818" points="373.8,445,364.8,441,368.8,445,364.8,449,373.8,445" style="stroke:#181818;stroke-width:1.0;"/></g><!--link Error to *end*--><g id="link_Error_*end*"><path d="M392.21,470.04 C385.77,488.6 375.78,514.63 364,536 C357.46,547.87 351.7173,555.6582 345.3973,563.4582 " fill="none" id="Error-to-*end*" style="stroke:#181818;stroke-width:1.0;"/><polygon fill="#181818" points="341.62,568.12,350.3937,563.6455,344.7677,564.2352,344.178,558.6091,341.62,568.12" style="stroke:#181818;stroke-width:1.0;"/></g><!--link SistemaBorraPista to *end*--><g id="link_SistemaBorraPista_*end*"><path d="M279.88,470.22 C286.96,488.65 297.55,514.43 309,536 C315.06,547.41 319.9314,554.8672 325.5114,562.7772 " fill="none" id="SistemaBorraPista-to-*end*" style="stroke:#181818;stroke-width:1.0;"/><polygon fill="#181818" points="328.97,567.68,327.0506,558.02,326.0878,563.5943,320.5135,562.6315,328.97,567.68" style="stroke:#181818;stroke-width:1.0;"/><path d="M314,505 L314,531 L355,531 L355,515 L345,505 L314,505 " fill="#FEFFDD" style="stroke:#181818;stroke-width:0.5;"/><path d="M345,505 L345,515 L355,515 L345,505 " fill="#FEFFDD" style="stroke:#181818;stroke-width:0.5;"/><text fill="#000000" font-family="sans-serif" font-size="13" font-weight="bold" lengthAdjust="spacing" textLength="20" x="320" y="523.4951">Fin</text></g><!--SRC=[ZP312i8m44Jl_Oez1_8B7WIz2KBnL7g8DeLWcfLDyl_MJRMrRD6SmiuoRtOQrOBMExZ4RCXXZTxTN39d5vEff27eRbolnwyTp2dRc6ZQ3fWiUDidm5xsW_4TFEIYGPn4oC70WpTiwE3bKmc0GbuPxv78a110IZZnOv5WA1hu_-a78gHgEyDNEpp_tStoX8s6U7xblUsqCmuqVR9AfIo2hIfXXe1Wht9Serg9-9QOXm6y2tTsL-heWbAprnC0]--></g></svg>