<svg xmlns="http://www.w3.org/2000/svg" xmlns:xlink="http://www.w3.org/1999/xlink" contentStyleType="text/css" height="898px" preserveAspectRatio="none" style="width:702px;height:898px;background:#FFFFFF;" version="1.1" viewBox="0 0 702 898" width="702px" zoomAndPan="magnify"><defs/><g><ellipse cx="89" cy="16" fill="#222222" rx="10" ry="10" style="stroke:#222222;stroke-width:1.0;"/><g id="UsuarioSolicitaPista"><rect fill="#F1F1F1" height="50" rx="12.5" ry="12.5" style="stroke:#181818;stroke-width:0.5;" width="153" x="12.5" y="87"/><line style="stroke:#181818;stroke-width:0.5;" x1="12.5" x2="165.5" y1="113.2969" y2="113.2969"/><text fill="#000000" font-family="sans-serif" font-size="14" lengthAdjust="spacing" textLength="133" x="22.5" y="104.9951">UsuarioSolicitaPista</text></g><g id="SistemaMuestraPista"><rect fill="#F1F1F1" height="50" rx="12.5" ry="12.5" style="stroke:#181818;stroke-width:0.5;" width="164" x="7" y="232"/><line style="stroke:#181818;stroke-width:0.5;" x1="7" x2="171" y1="258.2969" y2="258.2969"/><text fill="#000000" font-family="sans-serif" font-size="14" lengthAdjust="spacing" textLength="144" x="17" y="249.9951">SistemaMuestraPista</text></g><g id="UsuarioSolicitaBorrarPista"><rect fill="#F1F1F1" height="50" rx="12.5" ry="12.5" style="stroke:#181818;stroke-width:0.5;" width="195" x="170.5" y="392"/><line style="stroke:#181818;stroke-width:0.5;" x1="170.5" x2="365.5" y1="418.2969" y2="418.2969"/><text fill="#000000" font-family="sans-serif" font-size="14" lengthAdjust="spacing" textLength="175" x="180.5" y="409.9951">UsuarioSolicitaBorrarPista</text></g><ellipse cx="326" cy="881" fill="none" rx="11" ry="11" style="stroke:#222222;stroke-width:1.0;"/><ellipse cx="326" cy="881" fill="#222222" rx="6" ry="6" style="stroke:#222222;stroke-width:1.0;"/><g id="SistemaBorraPista"><rect fill="#F1F1F1" height="50" rx="12.5" ry="12.5" style="stroke:#181818;stroke-width:0.5;" width="145" x="253.5" y="552"/><line style="stroke:#181818;stroke-width:0.5;" x1="253.5" x2="398.5" y1="578.2969" y2="578.2969"/><text fill="#000000" font-family="sans-serif" font-size="14" lengthAdjust="spacing" textLength="125" x="263.5" y="569.9951">SistemaBorraPista</text></g><!--link *start* to UsuarioSolicitaPista--><g id="link_*start*_UsuarioSolicitaPista"><path d="M89,26.36 C89,40.29 89,60.95 89,80.65 " fill="none" id="*start*-to-UsuarioSolicitaPista" style="stroke:#181818;stroke-width:1.0;"/><polygon fill="#181818" points="89,86.65,93,77.65,89,81.65,85,77.65,89,86.65" style="stroke:#181818;stroke-width:1.0;"/></g><!--link UsuarioSolicitaPista to SistemaMuestraPista--><g id="link_UsuarioSolicitaPista_SistemaMuestraPista"><path d="M89,137.26 C89,163.55 89,199.28 89,225.62 " fill="none" id="UsuarioSolicitaPista-to-SistemaMuestraPista" style="stroke:#181818;stroke-width:1.0;"/><polygon fill="#181818" points="89,231.62,93,222.62,89,226.62,85,222.62,89,231.62" style="stroke:#181818;stroke-width:1.0;"/><path d="M94,172 L94,197 L345,197 L345,182 L335,172 L94,172 " fill="#FEFFDD" style="stroke:#181818;stroke-width:0.5;"/><path d="M335,172 L335,182 L345,182 L335,172 " fill="#FEFFDD" style="stroke:#181818;stroke-width:0.5;"/><text fill="#000000" font-family="sans-serif" font-size="13" lengthAdjust="spacing" textLength="11" x="100" y="189.0669">El</text><text fill="#000000" font-family="sans-serif" font-size="13" font-weight="bold" lengthAdjust="spacing" textLength="104" x="115" y="189.0669">adminsitrador</text><text fill="#000000" font-family="sans-serif" font-size="13" lengthAdjust="spacing" textLength="107" x="223" y="189.0669">solicita una pista</text></g><!--link SistemaMuestraPista to UsuarioSolicitaBorrarPista--><g id="link_SistemaMuestraPista_UsuarioSolicitaBorrarPista"><path d="M116.58,282.34 C150.21,312.03 202.2416,357.9596 235.8916,387.6596 " fill="none" id="SistemaMuestraPista-to-UsuarioSolicitaBorrarPista" style="stroke:#181818;stroke-width:1.0;"/><polygon fill="#181818" points="240.39,391.63,236.2893,382.6754,236.6413,388.3213,230.9954,388.6734,240.39,391.63" style="stroke:#181818;stroke-width:1.0;"/><path d="M209,317 L209,357 L411,357 L411,327 L401,317 L209,317 " fill="#FEFFDD" style="stroke:#181818;stroke-width:0.5;"/><path d="M401,317 L401,327 L411,327 L401,317 " fill="#FEFFDD" style="stroke:#181818;stroke-width:0.5;"/><text fill="#000000" font-family="sans-serif" font-size="13" lengthAdjust="spacing" textLength="11" x="215" y="334.0669">El</text><text fill="#000000" font-family="sans-serif" font-size="13" font-weight="bold" lengthAdjust="spacing" textLength="58" x="230" y="334.0669">sistema</text><text fill="#000000" font-family="sans-serif" font-size="13" lengthAdjust="spacing" textLength="104" x="292" y="334.0669">muestra la pista</text><text fill="#000000" font-family="sans-serif" font-size="13" lengthAdjust="spacing" textLength="11" x="215" y="349.1997">al</text><text fill="#000000" font-family="sans-serif" font-size="13" font-weight="bold" lengthAdjust="spacing" textLength="104" x="230" y="349.1997">administrador</text></g><!--link SistemaMuestraPista to *end*--><g id="link_SistemaMuestraPista_*end*"><path d="M81.68,282.38 C73.09,313.2 60,368.03 60,416 C60,416 60,416 60,809 C60,862.65 258.5784,876.4922 308.9184,879.1622 " fill="none" id="SistemaMuestraPista-to-*end*" style="stroke:#FF0000;stroke-width:1.0;"/><polygon fill="#FF0000" points="314.91,879.48,306.1345,875.0089,309.917,879.2152,305.7108,882.9977,314.91,879.48" style="stroke:#FF0000;stroke-width:1.0;"/><path d="M65,637 L65,662 L298,662 L298,647 L288,637 L65,637 " fill="#FEFFDD" style="stroke:#181818;stroke-width:0.5;"/><path d="M288,637 L288,647 L298,647 L288,637 " fill="#FEFFDD" style="stroke:#181818;stroke-width:0.5;"/><text fill="#000000" font-family="sans-serif" font-size="13" lengthAdjust="spacing" textLength="11" x="71" y="654.0669">El</text><text fill="#000000" font-family="sans-serif" font-size="13" font-weight="bold" lengthAdjust="spacing" textLength="58" x="86" y="654.0669">sistema</text><text fill="#000000" font-family="sans-serif" font-size="13" lengthAdjust="spacing" textLength="135" x="148" y="654.0669">no encuentra la pista</text></g><!--link UsuarioSolicitaBorrarPista to SistemaBorraPista--><g id="link_UsuarioSolicitaBorrarPista_SistemaBorraPista"><path d="M276.94,442.34 C287.83,472.03 304.0828,516.2974 314.9828,545.9974 " fill="none" id="UsuarioSolicitaBorrarPista-to-SistemaBorraPista" style="stroke:#181818;stroke-width:1.0;"/><polygon fill="#181818" points="317.05,551.63,317.7043,541.8029,315.3273,546.9361,310.1941,544.5592,317.05,551.63" style="stroke:#181818;stroke-width:1.0;"/><path d="M310,477 L310,517 L498,517 L498,487 L488,477 L310,477 " fill="#FEFFDD" style="stroke:#181818;stroke-width:0.5;"/><path d="M488,477 L488,487 L498,487 L488,477 " fill="#FEFFDD" style="stroke:#181818;stroke-width:0.5;"/><text fill="#000000" font-family="sans-serif" font-size="13" lengthAdjust="spacing" textLength="11" x="316" y="494.0669">El</text><text fill="#000000" font-family="sans-serif" font-size="13" font-weight="bold" lengthAdjust="spacing" textLength="104" x="331" y="494.0669">administrador</text><text fill="#000000" font-family="sans-serif" font-size="13" lengthAdjust="spacing" textLength="44" x="439" y="494.0669">solicita</text><text fill="#000000" font-family="sans-serif" font-size="13" lengthAdjust="spacing" textLength="89" x="316" y="509.1997">borrar la pista</text></g><!--link SistemaBorraPista to *end*--><g id="link_SistemaBorraPista_*end*"><path d="M325.17,602.32 C323.99,639.97 322.07,714.63 323,778 C323.49,811.48 324.6626,845.1243 325.3626,863.5843 " fill="none" id="SistemaBorraPista-to-*end*" style="stroke:#FF0000;stroke-width:1.0;"/><polygon fill="#FF0000" points="325.59,869.58,329.2461,860.4349,325.4005,864.5836,321.2518,860.738,325.59,869.58" style="stroke:#FF0000;stroke-width:1.0;"/><path d="M328,733 L328,773 L490,773 L490,743 L480,733 L328,733 " fill="#FEFFDD" style="stroke:#181818;stroke-width:0.5;"/><path d="M480,733 L480,743 L490,743 L480,733 " fill="#FEFFDD" style="stroke:#181818;stroke-width:0.5;"/><text fill="#000000" font-family="sans-serif" font-size="13" lengthAdjust="spacing" textLength="11" x="334" y="750.0669">El</text><text fill="#000000" font-family="sans-serif" font-size="13" font-weight="bold" lengthAdjust="spacing" textLength="58" x="349" y="750.0669">sistema</text><text fill="#000000" font-family="sans-serif" font-size="13" lengthAdjust="spacing" textLength="60" x="411" y="750.0669">no puede</text><text fill="#000000" font-family="sans-serif" font-size="13" lengthAdjust="spacing" textLength="101" x="334" y="765.1997">eliminar la pista</text></g><!--link SistemaBorraPista to *end*--><g id="link_SistemaBorraPista_*end*"><path d="M375.41,602.48 C439.78,637.87 539.59,706.94 499,778 C462.51,841.88 374.4772,868.3206 342.5972,876.1406 " fill="none" id="SistemaBorraPista-to-*end*-1" style="stroke:#181818;stroke-width:1.0;"/><polygon fill="#181818" points="336.77,877.57,346.4638,879.3107,341.626,876.3788,344.5579,871.5411,336.77,877.57" style="stroke:#181818;stroke-width:1.0;"/><path d="M513,740.5 L513,765.5 L695,765.5 L695,750.5 L685,740.5 L513,740.5 " fill="#FEFFDD" style="stroke:#181818;stroke-width:0.5;"/><path d="M685,740.5 L685,750.5 L695,750.5 L685,740.5 " fill="#FEFFDD" style="stroke:#181818;stroke-width:0.5;"/><text fill="#000000" font-family="sans-serif" font-size="13" lengthAdjust="spacing" textLength="11" x="519" y="757.5669">El</text><text fill="#000000" font-family="sans-serif" font-size="13" font-weight="bold" lengthAdjust="spacing" textLength="58" x="534" y="757.5669">sistema</text><text fill="#000000" font-family="sans-serif" font-size="13" lengthAdjust="spacing" textLength="84" x="596" y="757.5669">borra la pista</text></g><!--SRC=[ZP3B2eCm44NtViL0Tu7yWej2buM2T2KkKZEBeN4YYVd_nlXeYsdLbIGtvzoPMZGWPGbt7vGZMrb3BGtgHdvGHUumfQluXvsw1lI3cyDi1mJBO8YV1SJlOa08fJjYJp6bhHC2_Co2m0hwz11Pm_Yuo51ptSxMEUN-IVq4YhfkOe5PP6D6hSN8ByLsMjGdXxefeHRDhfCj8BS1-KkyydzFyxdQTBoxs7V_TR4fyKZGZ7n3NqQJXsVh0sg4T8c6OecigCYff3oeIVstr1S0]--></g></svg>