<?xml version="1.0" encoding="us-ascii" standalone="no"?><svg xmlns="http://www.w3.org/2000/svg" xmlns:xlink="http://www.w3.org/1999/xlink" contentStyleType="text/css" height="715px" preserveAspectRatio="none" style="width:586px;height:715px;background:#FFFFFF;" version="1.1" viewBox="0 0 586 715" width="586px" zoomAndPan="magnify"><defs/><g><ellipse cx="242" cy="16" fill="#222222" rx="10" ry="10" style="stroke:#222222;stroke-width:1.0;"/><g id="UsuarioSolicitaPista"><rect fill="#F1F1F1" height="50" rx="12.5" ry="12.5" style="stroke:#181818;stroke-width:0.5;" width="144" x="170" y="87"/><line style="stroke:#181818;stroke-width:0.5;" x1="170" x2="314" y1="114.6094" y2="114.6094"/><text fill="#000000" font-family="sans-serif" font-size="14" lengthAdjust="spacing" textLength="124" x="180" y="106.5332">UsuarioSolicitaPista</text></g><g id="SistemaMuestraPista"><rect fill="#F1F1F1" height="50" rx="12.5" ry="12.5" style="stroke:#181818;stroke-width:0.5;" width="152" x="166" y="233"/><line style="stroke:#181818;stroke-width:0.5;" x1="166" x2="318" y1="260.6094" y2="260.6094"/><text fill="#000000" font-family="sans-serif" font-size="14" lengthAdjust="spacing" textLength="132" x="176" y="252.5332">SistemaMuestraPista</text></g><g id="UsuarioSolicitaBorrarPista"><rect fill="#F1F1F1" height="50" rx="12.5" ry="12.5" style="stroke:#181818;stroke-width:0.5;" width="184" x="9" y="379"/><line style="stroke:#181818;stroke-width:0.5;" x1="9" x2="193" y1="406.6094" y2="406.6094"/><text fill="#000000" font-family="sans-serif" font-size="14" lengthAdjust="spacing" textLength="164" x="19" y="398.5332">UsuarioSolicitaBorrarPista</text></g><g id="Error"><rect fill="#F1F1F1" height="50" rx="12.5" ry="12.5" style="stroke:#181818;stroke-width:0.5;" width="52" x="332" y="541"/><line style="stroke:#181818;stroke-width:0.5;" x1="332" x2="384" y1="568.6094" y2="568.6094"/><text fill="#000000" font-family="sans-serif" font-size="14" lengthAdjust="spacing" textLength="32" x="342" y="560.5332">Error</text></g><g id="SistemaBorraPista"><rect fill="#F1F1F1" height="50" rx="12.5" ry="12.5" style="stroke:#181818;stroke-width:0.5;" width="136" x="7" y="541"/><line style="stroke:#181818;stroke-width:0.5;" x1="7" x2="143" y1="568.6094" y2="568.6094"/><text fill="#000000" font-family="sans-serif" font-size="14" lengthAdjust="spacing" textLength="116" x="17" y="560.5332">SistemaBorraPista</text></g><ellipse cx="216" cy="698" fill="none" rx="11" ry="11" style="stroke:#222222;stroke-width:1.0;"/><ellipse cx="216" cy="698" fill="#222222" rx="6" ry="6" style="stroke:#222222;stroke-width:1.0;"/><!--link *start* to UsuarioSolicitaPista--><g id="link_*start*_UsuarioSolicitaPista"><path d="M242,26.01 C242,39.89 242,60.97 242,80.84 " fill="none" id="*start*-to-UsuarioSolicitaPista" style="stroke:#181818;stroke-width:1.0;"/><polygon fill="#181818" points="242,86.84,246,77.84,242,81.84,238,77.84,242,86.84" style="stroke:#181818;stroke-width:1.0;"/></g><!--link UsuarioSolicitaPista to SistemaMuestraPista--><g id="link_UsuarioSolicitaPista_SistemaMuestraPista"><path d="M242,137.1 C242,163.68 242,200.21 242,226.82 " fill="none" id="UsuarioSolicitaPista-to-SistemaMuestraPista" style="stroke:#181818;stroke-width:1.0;"/><polygon fill="#181818" points="242,232.82,246,223.82,242,227.82,238,223.82,242,232.82" style="stroke:#181818;stroke-width:1.0;"/><path d="M247,172 L247,198 L428,198 L428,182 L418,172 L247,172 " fill="#FEFFDD" style="stroke:#181818;stroke-width:0.5;"/><path d="M418,172 L418,182 L428,182 L418,172 " fill="#FEFFDD" style="stroke:#181818;stroke-width:0.5;"/><text fill="#000000" font-family="sans-serif" font-size="13" lengthAdjust="spacing" textLength="160" x="253" y="190.4951">El usuario solicita una pista</text></g><!--link SistemaMuestraPista to UsuarioSolicitaBorrarPista--><g id="link_SistemaMuestraPista_UsuarioSolicitaBorrarPista"><path d="M177.27,283.13 C162.61,290.92 148.1,300.79 137,313 C120.13,331.55 112.1559,353.1693 107.2259,372.8793 " fill="none" id="SistemaMuestraPista-to-UsuarioSolicitaBorrarPista" style="stroke:#181818;stroke-width:1.0;"/><polygon fill="#181818" points="105.77,378.7,111.8343,370.9396,106.9833,373.8494,104.0734,368.9984,105.77,378.7" style="stroke:#181818;stroke-width:1.0;"/><path d="M142,318 L142,344 L322,344 L322,328 L312,318 L142,318 " fill="#FEFFDD" style="stroke:#181818;stroke-width:0.5;"/><path d="M312,318 L312,328 L322,328 L312,318 " fill="#FEFFDD" style="stroke:#181818;stroke-width:0.5;"/><text fill="#000000" font-family="sans-serif" font-size="13" lengthAdjust="spacing" textLength="159" x="148" y="336.4951">El sistema muestra la pista</text></g><!--link SistemaMuestraPista to Error--><g id="link_SistemaMuestraPista_Error"><path d="M299.36,283.17 C311.65,290.95 323.25,300.8 331,313 C376.9,385.23 369.465,487.227 362.845,534.917 " fill="none" id="SistemaMuestraPista-to-Error" style="stroke:#181818;stroke-width:1.0;"/><polygon fill="#181818" points="362.02,540.86,367.2195,532.4955,362.7075,535.9075,359.2954,531.3955,362.02,540.86" style="stroke:#181818;stroke-width:1.0;"/><path d="M371,391 L371,417 L579,417 L579,401 L569,391 L371,391 " fill="#FEFFDD" style="stroke:#181818;stroke-width:0.5;"/><path d="M569,391 L569,401 L579,401 L569,391 " fill="#FEFFDD" style="stroke:#181818;stroke-width:0.5;"/><text fill="#000000" font-family="sans-serif" font-size="13" lengthAdjust="spacing" textLength="187" x="377" y="409.4951">El sistema no encuentra la pista</text></g><!--link UsuarioSolicitaBorrarPista to SistemaBorraPista--><g id="link_UsuarioSolicitaBorrarPista_SistemaBorraPista"><path d="M97.05,429.3 C92.14,459.55 84.7518,504.9676 79.8618,535.0776 " fill="none" id="UsuarioSolicitaBorrarPista-to-SistemaBorraPista" style="stroke:#181818;stroke-width:1.0;"/><polygon fill="#181818" points="78.9,541,84.291,532.7576,79.7015,536.0647,76.3945,531.4752,78.9,541" style="stroke:#181818;stroke-width:1.0;"/><path d="M97,464 L97,506 L221,506 L221,474 L211,464 L97,464 " fill="#FEFFDD" style="stroke:#181818;stroke-width:0.5;"/><path d="M211,464 L211,474 L221,474 L211,464 " fill="#FEFFDD" style="stroke:#181818;stroke-width:0.5;"/><text fill="#000000" font-family="sans-serif" font-size="13" lengthAdjust="spacing" textLength="103" x="103" y="482.4951">El usuario solicita</text><text fill="#000000" font-family="sans-serif" font-size="13" lengthAdjust="spacing" textLength="79" x="103" y="498.8467">borrar la pista</text></g><!--link SistemaBorraPista to Error--><g id="link_SistemaBorraPista_Error"><path d="M143.15,566 C203.82,566 283.38,566 325.9,566 " fill="none" id="SistemaBorraPista-to-Error" style="stroke:#181818;stroke-width:1.0;"/><polygon fill="#181818" points="331.9,566,322.9,562,326.9,566,322.9,570,331.9,566" style="stroke:#181818;stroke-width:1.0;"/><path d="M165.5,516 L165.5,558 L309.5,558 L309.5,526 L299.5,516 L165.5,516 " fill="#FEFFDD" style="stroke:#181818;stroke-width:0.5;"/><path d="M299.5,516 L299.5,526 L309.5,526 L299.5,516 " fill="#FEFFDD" style="stroke:#181818;stroke-width:0.5;"/><text fill="#000000" font-family="sans-serif" font-size="13" lengthAdjust="spacing" textLength="119" x="171.5" y="534.4951">El sistema no puede</text><text fill="#000000" font-family="sans-serif" font-size="13" lengthAdjust="spacing" textLength="91" x="171.5" y="550.8467">eliminar la pista</text></g><!--link Error to *end*--><g id="link_Error_*end*"><path d="M347.47,591.07 C337.8,610.9 321.8,638.64 301,657 C278.25,677.07 249.4443,687.3905 232.2443,692.4705 " fill="none" id="Error-to-*end*" style="stroke:#181818;stroke-width:1.0;"/><polygon fill="#181818" points="226.49,694.17,236.2544,695.4569,231.2852,692.7537,233.9884,687.7845,226.49,694.17" style="stroke:#181818;stroke-width:1.0;"/><path d="M336,626 L336,652 L377,652 L377,636 L367,626 L336,626 " fill="#FEFFDD" style="stroke:#181818;stroke-width:0.5;"/><path d="M367,626 L367,636 L377,636 L367,626 " fill="#FEFFDD" style="stroke:#181818;stroke-width:0.5;"/><text fill="#000000" font-family="sans-serif" font-size="13" font-weight="bold" lengthAdjust="spacing" textLength="20" x="342" y="644.4951">Fin</text></g><!--link SistemaBorraPista to *end*--><g id="link_SistemaBorraPista_*end*"><path d="M83.42,591.23 C91.42,611.15 105.18,638.94 125,657 C148.98,678.85 180.9901,688.7613 199.4001,693.2413 " fill="none" id="SistemaBorraPista-to-*end*" style="stroke:#181818;stroke-width:1.0;"/><polygon fill="#181818" points="205.23,694.66,197.431,688.6454,200.3718,693.4778,195.5394,696.4186,205.23,694.66" style="stroke:#181818;stroke-width:1.0;"/><path d="M130,626 L130,652 L292,652 L292,636 L282,626 L130,626 " fill="#FEFFDD" style="stroke:#181818;stroke-width:0.5;"/><path d="M282,626 L282,636 L292,636 L282,626 " fill="#FEFFDD" style="stroke:#181818;stroke-width:0.5;"/><text fill="#000000" font-family="sans-serif" font-size="13" lengthAdjust="spacing" textLength="141" x="136" y="644.4951">El sistema borra la pista</text></g><!--SRC=[ZP2x2iCm34LtVuLcWt-XGw7T2eNGAMHm4msYZXpa-F-Rse6-x11FHezpxrMhEp3c0BSGhP1llAEUPdkbC5jLAe8Pbl5c-U9eBn73BEiq-nd1CpZYXuBbdHp4J82m8Y2oXIcD8m_mMb45LXRvaJzw4IjrhP0vC6OGkFrA9n4lcr3sWDn7v3AvRlNhNgc-_rgfVa-iUfet4upipJ95711I0nsDn4K5bLWvGQkxVwZMPsAjDprLbpySfOm50qy0]--></g></svg>