<svg xmlns="http://www.w3.org/2000/svg" xmlns:xlink="http://www.w3.org/1999/xlink" contentStyleType="text/css" height="798px" preserveAspectRatio="none" style="width:1242px;height:798px;background:#FFFFFF;" version="1.1" viewBox="0 0 1242 798" width="1242px" zoomAndPan="magnify"><defs/><g><ellipse cx="127" cy="16" fill="#222222" rx="10" ry="10" style="stroke:#222222;stroke-width:1.0;"/><g id="UsuarioSolicitaMenuCrearPista"><rect fill="#F1F1F1" height="50" rx="12.5" ry="12.5" style="stroke:#181818;stroke-width:0.5;" width="229" x="12.5" y="87"/><line style="stroke:#181818;stroke-width:0.5;" x1="12.5" x2="241.5" y1="113.2969" y2="113.2969"/><text fill="#000000" font-family="sans-serif" font-size="14" lengthAdjust="spacing" textLength="209" x="22.5" y="104.9951">UsuarioSolicitaMenuCrearPista</text></g><g id="SistemaMuestraMenuCrearPista"><rect fill="#F1F1F1" height="50" rx="12.5" ry="12.5" style="stroke:#181818;stroke-width:0.5;" width="240" x="7" y="324"/><line style="stroke:#181818;stroke-width:0.5;" x1="7" x2="247" y1="350.2969" y2="350.2969"/><text fill="#000000" font-family="sans-serif" font-size="14" lengthAdjust="spacing" textLength="220" x="17" y="341.9951">SistemaMuestraMenuCrearPista</text></g><g id="UsuarioIntroduceDatosPista"><rect fill="#F1F1F1" height="50" rx="12.5" ry="12.5" style="stroke:#181818;stroke-width:0.5;" width="212" x="465" y="324"/><line style="stroke:#181818;stroke-width:0.5;" x1="465" x2="677" y1="350.2969" y2="350.2969"/><text fill="#000000" font-family="sans-serif" font-size="14" lengthAdjust="spacing" textLength="192" x="475" y="341.9951">UsuarioIntroduceDatosPista</text></g><g id="UsuarioSolicitaCrearPista"><rect fill="#F1F1F1" height="50" rx="12.5" ry="12.5" style="stroke:#181818;stroke-width:0.5;" width="190" x="476" y="484"/><line style="stroke:#181818;stroke-width:0.5;" x1="476" x2="666" y1="510.2969" y2="510.2969"/><text fill="#000000" font-family="sans-serif" font-size="14" lengthAdjust="spacing" textLength="170" x="486" y="501.9951">UsuarioSolicitaCrearPista</text></g><g id="SistemaCreaPista"><rect fill="#F1F1F1" height="50" rx="12.5" ry="12.5" style="stroke:#181818;stroke-width:0.5;" width="140" x="902" y="484"/><line style="stroke:#181818;stroke-width:0.5;" x1="902" x2="1042" y1="510.2969" y2="510.2969"/><text fill="#000000" font-family="sans-serif" font-size="14" lengthAdjust="spacing" textLength="120" x="912" y="501.9951">SistemaCreaPista</text></g><g id="SistemaMuestraNuevaPista"><rect fill="#F1F1F1" height="50" rx="12.5" ry="12.5" style="stroke:#181818;stroke-width:0.5;" width="207" x="775.5" y="659"/><line style="stroke:#181818;stroke-width:0.5;" x1="775.5" x2="982.5" y1="685.2969" y2="685.2969"/><text fill="#000000" font-family="sans-serif" font-size="14" lengthAdjust="spacing" textLength="187" x="785.5" y="676.9951">SistemaMuestraNuevaPista</text></g><ellipse cx="966" cy="781" fill="none" rx="11" ry="11" style="stroke:#222222;stroke-width:1.0;"/><ellipse cx="966" cy="781" fill="#222222" rx="6" ry="6" style="stroke:#222222;stroke-width:1.0;"/><!--link *start* to UsuarioSolicitaMenuCrearPista--><g id="link_*start*_UsuarioSolicitaMenuCrearPista"><path d="M127,26.36 C127,40.29 127,60.95 127,80.65 " fill="none" id="*start*-to-UsuarioSolicitaMenuCrearPista" style="stroke:#181818;stroke-width:1.0;"/><polygon fill="#181818" points="127,86.65,131,77.65,127,81.65,123,77.65,127,86.65" style="stroke:#181818;stroke-width:1.0;"/></g><!--link UsuarioSolicitaMenuCrearPista to SistemaMuestraMenuCrearPista--><g id="link_UsuarioSolicitaMenuCrearPista_SistemaMuestraMenuCrearPista"><path d="M127,137.26 C127,182.3 127,272.32 127,317.52 " fill="none" id="UsuarioSolicitaMenuCrearPista-to-SistemaMuestraMenuCrearPista" style="stroke:#181818;stroke-width:1.0;"/><polygon fill="#181818" points="127,323.52,131,314.52,127,318.52,123,314.52,127,323.52" style="stroke:#181818;stroke-width:1.0;"/><path d="M132,203 L132,258 L379,258 L379,213 L369,203 L132,203 " fill="#FEFFDD" style="stroke:#181818;stroke-width:0.5;"/><path d="M369,203 L369,213 L379,213 L369,203 " fill="#FEFFDD" style="stroke:#181818;stroke-width:0.5;"/><text fill="#000000" font-family="sans-serif" font-size="13" lengthAdjust="spacing" textLength="11" x="138" y="220.0669">El</text><text fill="#000000" font-family="sans-serif" font-size="13" font-weight="bold" lengthAdjust="spacing" textLength="104" x="153" y="220.0669">administrador</text><text fill="#000000" font-family="sans-serif" font-size="13" lengthAdjust="spacing" textLength="99" x="261" y="220.0669">solicita acceder</text><text fill="#000000" font-family="sans-serif" font-size="13" lengthAdjust="spacing" textLength="109" x="138" y="235.1997">al menu de crear</text><text fill="#000000" font-family="sans-serif" font-size="13" lengthAdjust="spacing" textLength="31" x="138" y="250.3325">pista</text></g><!--link SistemaMuestraMenuCrearPista to UsuarioIntroduceDatosPista--><g id="link_SistemaMuestraMenuCrearPista_UsuarioIntroduceDatosPista"><path d="M247.45,349 C315.24,349 393.15,349 458.52,349 " fill="none" id="SistemaMuestraMenuCrearPista-to-UsuarioIntroduceDatosPista" style="stroke:#181818;stroke-width:1.0;"/><polygon fill="#181818" points="464.52,349,455.52,345,459.52,349,455.52,353,464.52,349" style="stroke:#181818;stroke-width:1.0;"/><path d="M269,286 L269,341 L443,341 L443,296 L433,286 L269,286 " fill="#FEFFDD" style="stroke:#181818;stroke-width:0.5;"/><path d="M433,286 L433,296 L443,296 L433,286 " fill="#FEFFDD" style="stroke:#181818;stroke-width:0.5;"/><text fill="#000000" font-family="sans-serif" font-size="13" lengthAdjust="spacing" textLength="11" x="275" y="303.0669">El</text><text fill="#000000" font-family="sans-serif" font-size="13" font-weight="bold" lengthAdjust="spacing" textLength="58" x="290" y="303.0669">sistema</text><text fill="#000000" font-family="sans-serif" font-size="13" lengthAdjust="spacing" textLength="54" x="352" y="303.0669">muestra</text><text fill="#000000" font-family="sans-serif" font-size="13" lengthAdjust="spacing" textLength="153" x="275" y="318.1997">el menu  para introducir</text><text fill="#000000" font-family="sans-serif" font-size="13" lengthAdjust="spacing" textLength="128" x="275" y="333.3325">los datos de la pista</text></g><!--link UsuarioIntroduceDatosPista to UsuarioSolicitaCrearPista--><g id="link_UsuarioIntroduceDatosPista_UsuarioSolicitaCrearPista"><path d="M571,374.34 C571,404.03 571,447.93 571,477.63 " fill="none" id="UsuarioIntroduceDatosPista-to-UsuarioSolicitaCrearPista" style="stroke:#181818;stroke-width:1.0;"/><polygon fill="#181818" points="571,483.63,575,474.63,571,478.63,567,474.63,571,483.63" style="stroke:#181818;stroke-width:1.0;"/><path d="M576,409 L576,449 L842,449 L842,419 L832,409 L576,409 " fill="#FEFFDD" style="stroke:#181818;stroke-width:0.5;"/><path d="M832,409 L832,419 L842,419 L832,409 " fill="#FEFFDD" style="stroke:#181818;stroke-width:0.5;"/><text fill="#000000" font-family="sans-serif" font-size="13" lengthAdjust="spacing" textLength="11" x="582" y="426.0669">El</text><text fill="#000000" font-family="sans-serif" font-size="13" font-weight="bold" lengthAdjust="spacing" textLength="104" x="597" y="426.0669">administrador</text><text fill="#000000" font-family="sans-serif" font-size="13" lengthAdjust="spacing" textLength="122" x="705" y="426.0669">introduce los datos</text><text fill="#000000" font-family="sans-serif" font-size="13" lengthAdjust="spacing" textLength="66" x="582" y="441.1997">de la pista</text></g><!--link UsuarioSolicitaCrearPista to SistemaCreaPista--><g id="link_UsuarioSolicitaCrearPista_SistemaCreaPista"><path d="M666.29,509 C738.55,509 830.27,509 895.58,509 " fill="none" id="UsuarioSolicitaCrearPista-to-SistemaCreaPista" style="stroke:#181818;stroke-width:1.0;"/><polygon fill="#181818" points="901.58,509,892.58,505,896.58,509,892.58,513,901.58,509" style="stroke:#181818;stroke-width:1.0;"/><path d="M688,461 L688,501 L880,501 L880,471 L870,461 L688,461 " fill="#FEFFDD" style="stroke:#181818;stroke-width:0.5;"/><path d="M870,461 L870,471 L880,471 L870,461 " fill="#FEFFDD" style="stroke:#181818;stroke-width:0.5;"/><text fill="#000000" font-family="sans-serif" font-size="13" lengthAdjust="spacing" textLength="11" x="694" y="478.0669">El</text><text fill="#000000" font-family="sans-serif" font-size="13" font-weight="bold" lengthAdjust="spacing" textLength="104" x="709" y="478.0669">administrador</text><text fill="#000000" font-family="sans-serif" font-size="13" lengthAdjust="spacing" textLength="44" x="817" y="478.0669">solicita</text><text fill="#000000" font-family="sans-serif" font-size="13" lengthAdjust="spacing" textLength="83" x="694" y="493.1997">crear la pista</text></g><!--link SistemaCreaPista to SistemaMuestraNuevaPista--><g id="link_SistemaCreaPista_SistemaMuestraNuevaPista"><path d="M927.94,534.24 C916.9,542.33 906.17,552.31 899,564 C881.15,593.11 877.9176,627.39 877.9276,652.82 " fill="none" id="SistemaCreaPista-to-SistemaMuestraNuevaPista" style="stroke:#181818;stroke-width:1.0;"/><polygon fill="#181818" points="877.93,658.82,881.93,649.82,877.93,653.82,873.93,649.82,877.93,658.82" style="stroke:#181818;stroke-width:1.0;"/><path d="M904,569 L904,624 L1022,624 L1022,579 L1012,569 L904,569 " fill="#FEFFDD" style="stroke:#181818;stroke-width:0.5;"/><path d="M1012,569 L1012,579 L1022,579 L1012,569 " fill="#FEFFDD" style="stroke:#181818;stroke-width:0.5;"/><text fill="#000000" font-family="sans-serif" font-size="13" lengthAdjust="spacing" textLength="11" x="910" y="586.0669">El</text><text fill="#000000" font-family="sans-serif" font-size="13" font-weight="bold" lengthAdjust="spacing" textLength="58" x="925" y="586.0669">sistema</text><text fill="#000000" font-family="sans-serif" font-size="13" lengthAdjust="spacing" textLength="4" x="983" y="586.0669">&#160;</text><text fill="#000000" font-family="sans-serif" font-size="13" lengthAdjust="spacing" textLength="97" x="910" y="601.1997">crea y muestra</text><text fill="#000000" font-family="sans-serif" font-size="13" lengthAdjust="spacing" textLength="89" x="910" y="616.3325">la nueva pista</text></g><!--link SistemaCreaPista to *end*--><g id="link_SistemaCreaPista_*end*"><path d="M1007.9,534.24 C1017.18,542.49 1025.96,552.56 1031,564 C1042.64,590.44 1036.31,600.6 1031,629 C1020.25,686.51 988.1317,743.6039 974.5317,766.1239 " fill="none" id="SistemaCreaPista-to-*end*" style="stroke:#FF0000;stroke-width:1.0;"/><polygon fill="#FF0000" points="971.43,771.26,979.5066,765.6237,974.0148,766.9799,972.6585,761.4881,971.43,771.26" style="stroke:#FF0000;stroke-width:1.0;"/><path d="M1028,664 L1028,704 L1235,704 L1235,674 L1225,664 L1028,664 " fill="#FEFFDD" style="stroke:#181818;stroke-width:0.5;"/><path d="M1225,664 L1225,674 L1235,674 L1225,664 " fill="#FEFFDD" style="stroke:#181818;stroke-width:0.5;"/><text fill="#000000" font-family="sans-serif" font-size="13" lengthAdjust="spacing" textLength="11" x="1034" y="681.0669">El</text><text fill="#000000" font-family="sans-serif" font-size="13" font-weight="bold" lengthAdjust="spacing" textLength="58" x="1049" y="681.0669">sistema</text><text fill="#000000" font-family="sans-serif" font-size="13" lengthAdjust="spacing" textLength="109" x="1111" y="681.0669">muestra un error</text><text fill="#000000" font-family="sans-serif" font-size="13" lengthAdjust="spacing" textLength="98" x="1034" y="696.1997">al crear la pista</text></g><!--link SistemaMuestraNuevaPista to *end*--><g id="link_SistemaMuestraNuevaPista_*end*"><path d="M901.4,709.46 C920.33,730.14 942.2468,754.066 954.7068,767.666 " fill="none" id="SistemaMuestraNuevaPista-to-*end*" style="stroke:#181818;stroke-width:1.0;"/><polygon fill="#181818" points="958.76,772.09,955.6296,762.7519,955.3824,768.4033,949.7309,768.1561,958.76,772.09" style="stroke:#181818;stroke-width:1.0;"/></g><!--SRC=[dP8zJiGm48NxdE99T9Po1HgWe5Y4jAAAKepYAImSUpMsL-Bss4wMXOI45Quip_XxRtuwrQDjx_4M4ednHs_DO28TsAK7OP9N4o8rkz7yFmEE-SeZ7HA7ACl_paU6Tx36lJV8vyb2ATAZSQQaQozA8Snuq32mPa5D9Oinqw0PGo5EhwVAPQTHsCsUEbgv5lZiedYT1dwawCEUkp0XiwznejOGpsvm8Y6OcMQa1gqFq8LRp5fQcjosW5QlP_2jWXiRUB73LoSrUS_DBsgrNtD7o_E_PbXJfe6jjPTmh3Ve9V6PRflFbnG-Vimgwxf2-LkzknFMVVQ0JlMtxWEI0ujukQpfLhNDLcMrxApu2G00]--></g></svg>