<?xml version="1.0" encoding="us-ascii" standalone="no"?><svg xmlns="http://www.w3.org/2000/svg" xmlns:xlink="http://www.w3.org/1999/xlink" contentStyleType="text/css" height="523px" preserveAspectRatio="none" style="width:944px;height:523px;background:#FFFFFF;" version="1.1" viewBox="0 0 944 523" width="944px" zoomAndPan="magnify"><defs/><g><ellipse cx="156.5" cy="32" fill="#222222" rx="10" ry="10" style="stroke:#222222;stroke-width:1.0;"/><g id="UsuarioSolicitaMenuCrearPista"><rect fill="#F1F1F1" height="50" rx="12.5" ry="12.5" style="stroke:#181818;stroke-width:0.5;" width="215" x="202" y="7"/><line style="stroke:#181818;stroke-width:0.5;" x1="202" x2="417" y1="34.6094" y2="34.6094"/><text fill="#000000" font-family="sans-serif" font-size="14" lengthAdjust="spacing" textLength="195" x="212" y="26.5332">UsuarioSolicitaMenuCrearPista</text></g><g id="SistemaMuestraMenuCrearPista"><rect fill="#F1F1F1" height="50" rx="12.5" ry="12.5" style="stroke:#181818;stroke-width:0.5;" width="223" x="198" y="122.5"/><line style="stroke:#181818;stroke-width:0.5;" x1="198" x2="421" y1="150.1094" y2="150.1094"/><text fill="#000000" font-family="sans-serif" font-size="14" lengthAdjust="spacing" textLength="203" x="208" y="142.0332">SistemaMuestraMenuCrearPista</text></g><g id="elem_GMN7"><path d="M452.5,10.5 L452.5,28 L417.34,32 L452.5,36 L452.5,53.2031 A0,0 0 0 0 452.5,53.2031 L630.5,53.2031 A0,0 0 0 0 630.5,53.2031 L630.5,20.5 L620.5,10.5 L452.5,10.5 A0,0 0 0 0 452.5,10.5 " fill="#FEFFDD" style="stroke:#181818;stroke-width:0.5;"/><path d="M620.5,10.5 L620.5,20.5 L630.5,20.5 L620.5,10.5 " fill="#FEFFDD" style="stroke:#181818;stroke-width:0.5;"/><text fill="#000000" font-family="sans-serif" font-size="13" lengthAdjust="spacing" textLength="153" x="458.5" y="28.9951">El usuario solicita acceder</text><text fill="#000000" font-family="sans-serif" font-size="13" lengthAdjust="spacing" textLength="129" x="458.5" y="45.3467">al menu de crear pista</text></g><g id="UsuarioIntroduceDatosPista"><rect fill="#F1F1F1" height="50" rx="12.5" ry="12.5" style="stroke:#181818;stroke-width:0.5;" width="195" x="456" y="122.5"/><line style="stroke:#181818;stroke-width:0.5;" x1="456" x2="651" y1="150.1094" y2="150.1094"/><text fill="#000000" font-family="sans-serif" font-size="14" lengthAdjust="spacing" textLength="175" x="466" y="142.0332">UsuarioIntroduceDatosPista</text></g><g id="elem_GMN12"><path d="M6,118 L6,177.0547 A0,0 0 0 0 6,177.0547 L163,177.0547 A0,0 0 0 0 163,177.0547 L163,151.5 L197.75,147.5 L163,143.5 L163,128 L153,118 L6,118 A0,0 0 0 0 6,118 " fill="#FEFFDD" style="stroke:#181818;stroke-width:0.5;"/><path d="M153,118 L153,128 L163,128 L153,118 " fill="#FEFFDD" style="stroke:#181818;stroke-width:0.5;"/><text fill="#000000" font-family="sans-serif" font-size="13" lengthAdjust="spacing" textLength="113" x="12" y="136.4951">El sistema muestra</text><text fill="#000000" font-family="sans-serif" font-size="13" lengthAdjust="spacing" textLength="136" x="12" y="152.8467">el menu  para introducir</text><text fill="#000000" font-family="sans-serif" font-size="13" lengthAdjust="spacing" textLength="117" x="12" y="169.1982">los datos de la pista</text></g><g id="UsuarioSolicitaCrearPista"><rect fill="#F1F1F1" height="50" rx="12.5" ry="12.5" style="stroke:#181818;stroke-width:0.5;" width="180" x="463.5" y="238"/><line style="stroke:#181818;stroke-width:0.5;" x1="463.5" x2="643.5" y1="265.6094" y2="265.6094"/><text fill="#000000" font-family="sans-serif" font-size="14" lengthAdjust="spacing" textLength="160" x="473.5" y="257.5332">UsuarioSolicitaCrearPista</text></g><g id="elem_GMN17"><path d="M686,126 L686,143.5 L651,147.5 L686,151.5 L686,168.7031 A0,0 0 0 0 686,168.7031 L879,168.7031 A0,0 0 0 0 879,168.7031 L879,136 L869,126 L686,126 A0,0 0 0 0 686,126 " fill="#FEFFDD" style="stroke:#181818;stroke-width:0.5;"/><path d="M869,126 L869,136 L879,136 L869,126 " fill="#FEFFDD" style="stroke:#181818;stroke-width:0.5;"/><text fill="#000000" font-family="sans-serif" font-size="13" lengthAdjust="spacing" textLength="172" x="692" y="144.4951">El usuario introduce los datos</text><text fill="#000000" font-family="sans-serif" font-size="13" lengthAdjust="spacing" textLength="60" x="692" y="160.8467">de la pista</text></g><g id="SistemaCreaPista"><rect fill="#F1F1F1" height="50" rx="12.5" ry="12.5" style="stroke:#181818;stroke-width:0.5;" width="132" x="678.5" y="238"/><line style="stroke:#181818;stroke-width:0.5;" x1="678.5" x2="810.5" y1="265.6094" y2="265.6094"/><text fill="#000000" font-family="sans-serif" font-size="14" lengthAdjust="spacing" textLength="112" x="688.5" y="257.5332">SistemaCreaPista</text></g><g id="elem_GMN22"><path d="M300.5,241.5 L300.5,284.2031 A0,0 0 0 0 300.5,284.2031 L428.5,284.2031 A0,0 0 0 0 428.5,284.2031 L428.5,267 L463.33,263 L428.5,259 L428.5,251.5 L418.5,241.5 L300.5,241.5 A0,0 0 0 0 300.5,241.5 " fill="#FEFFDD" style="stroke:#181818;stroke-width:0.5;"/><path d="M418.5,241.5 L418.5,251.5 L428.5,251.5 L418.5,241.5 " fill="#FEFFDD" style="stroke:#181818;stroke-width:0.5;"/><text fill="#000000" font-family="sans-serif" font-size="13" lengthAdjust="spacing" textLength="103" x="306.5" y="259.9951">El usuario solicita</text><text fill="#000000" font-family="sans-serif" font-size="13" lengthAdjust="spacing" textLength="75" x="306.5" y="276.3467">crear la pista</text></g><g id="SistemaMuestraNuevaPista"><rect fill="#F1F1F1" height="50" rx="12.5" ry="12.5" style="stroke:#181818;stroke-width:0.5;" width="192" x="448.5" y="349"/><line style="stroke:#181818;stroke-width:0.5;" x1="448.5" x2="640.5" y1="376.6094" y2="376.6094"/><text fill="#000000" font-family="sans-serif" font-size="14" lengthAdjust="spacing" textLength="172" x="458.5" y="368.5332">SistemaMuestraNuevaPista</text></g><g id="elem_GMN27"><path d="M845.5,241.5 L845.5,259 L810.54,263 L845.5,267 L845.5,284.2031 A0,0 0 0 0 845.5,284.2031 L937.5,284.2031 A0,0 0 0 0 937.5,284.2031 L937.5,251.5 L927.5,241.5 L845.5,241.5 A0,0 0 0 0 845.5,241.5 " fill="#FEFFDD" style="stroke:#181818;stroke-width:0.5;"/><path d="M927.5,241.5 L927.5,251.5 L937.5,251.5 L927.5,241.5 " fill="#FEFFDD" style="stroke:#181818;stroke-width:0.5;"/><text fill="#000000" font-family="sans-serif" font-size="13" lengthAdjust="spacing" textLength="62" x="851.5" y="259.9951">El sistema</text><text fill="#000000" font-family="sans-serif" font-size="13" lengthAdjust="spacing" textLength="71" x="851.5" y="276.3467">crea la pista</text></g><g id="Error"><rect fill="#F1F1F1" height="50" rx="12.5" ry="12.5" style="stroke:#181818;stroke-width:0.5;" width="52" x="848.5" y="349"/><line style="stroke:#181818;stroke-width:0.5;" x1="848.5" x2="900.5" y1="376.6094" y2="376.6094"/><text fill="#000000" font-family="sans-serif" font-size="14" lengthAdjust="spacing" textLength="32" x="858.5" y="368.5332">Error</text></g><ellipse cx="709.5" cy="506" fill="none" rx="11" ry="11" style="stroke:#222222;stroke-width:1.0;"/><ellipse cx="709.5" cy="506" fill="#222222" rx="6" ry="6" style="stroke:#222222;stroke-width:1.0;"/><g id="elem_GMN35"><path d="M675.5,352.5 L675.5,370 L640.59,374 L675.5,378 L675.5,395.2031 A0,0 0 0 0 675.5,395.2031 L813.5,395.2031 A0,0 0 0 0 813.5,395.2031 L813.5,362.5 L803.5,352.5 L675.5,352.5 A0,0 0 0 0 675.5,352.5 " fill="#FEFFDD" style="stroke:#181818;stroke-width:0.5;"/><path d="M803.5,352.5 L803.5,362.5 L813.5,362.5 L803.5,352.5 " fill="#FEFFDD" style="stroke:#181818;stroke-width:0.5;"/><text fill="#000000" font-family="sans-serif" font-size="13" lengthAdjust="spacing" textLength="113" x="681.5" y="370.9951">El sistema muestra</text><text fill="#000000" font-family="sans-serif" font-size="13" lengthAdjust="spacing" textLength="79" x="681.5" y="387.3467">la nueva pista</text></g><!--link *start* to UsuarioSolicitaMenuCrearPista--><g id="link_*start*_UsuarioSolicitaMenuCrearPista"><path d="M166.66,32 C178.38,32 184.09,32 195.81,32 " fill="none" id="*start*-to-UsuarioSolicitaMenuCrearPista" style="stroke:#181818;stroke-width:1.0;"/><polygon fill="#181818" points="201.81,32,192.81,28,196.81,32,192.81,36,201.81,32" style="stroke:#181818;stroke-width:1.0;"/></g><!--link UsuarioSolicitaMenuCrearPista to SistemaMuestraMenuCrearPista--><g id="link_UsuarioSolicitaMenuCrearPista_SistemaMuestraMenuCrearPista"><path d="M309.5,57.07 C309.5,76.33 309.5,97.21 309.5,116.46 " fill="none" id="UsuarioSolicitaMenuCrearPista-to-SistemaMuestraMenuCrearPista" style="stroke:#181818;stroke-width:1.0;"/><polygon fill="#181818" points="309.5,122.46,313.5,113.46,309.5,117.46,305.5,113.46,309.5,122.46" style="stroke:#181818;stroke-width:1.0;"/></g><!--link SistemaMuestraMenuCrearPista to UsuarioIntroduceDatosPista--><g id="link_SistemaMuestraMenuCrearPista_UsuarioIntroduceDatosPista"><path d="M421.02,147.5 C432.66,147.5 438.3,147.5 449.95,147.5 " fill="none" id="SistemaMuestraMenuCrearPista-to-UsuarioIntroduceDatosPista" style="stroke:#181818;stroke-width:1.0;"/><polygon fill="#181818" points="455.95,147.5,446.95,143.5,450.95,147.5,446.95,151.5,455.95,147.5" style="stroke:#181818;stroke-width:1.0;"/></g><!--link UsuarioIntroduceDatosPista to UsuarioSolicitaCrearPista--><g id="link_UsuarioIntroduceDatosPista_UsuarioSolicitaCrearPista"><path d="M553.5,172.57 C553.5,191.83 553.5,212.71 553.5,231.96 " fill="none" id="UsuarioIntroduceDatosPista-to-UsuarioSolicitaCrearPista" style="stroke:#181818;stroke-width:1.0;"/><polygon fill="#181818" points="553.5,237.96,557.5,228.96,553.5,232.96,549.5,228.96,553.5,237.96" style="stroke:#181818;stroke-width:1.0;"/></g><!--link UsuarioSolicitaCrearPista to SistemaCreaPista--><g id="link_UsuarioSolicitaCrearPista_SistemaCreaPista"><path d="M643.78,263 C655.32,263 660.86,263 672.4,263 " fill="none" id="UsuarioSolicitaCrearPista-to-SistemaCreaPista" style="stroke:#181818;stroke-width:1.0;"/><polygon fill="#181818" points="678.4,263,669.4,259,673.4,263,669.4,267,678.4,263" style="stroke:#181818;stroke-width:1.0;"/></g><!--link SistemaCreaPista to SistemaMuestraNuevaPista--><g id="link_SistemaCreaPista_SistemaMuestraNuevaPista"><path d="M700.11,288.19 C666.97,306.25 627.1484,327.9588 594.0284,346.0088 " fill="none" id="SistemaCreaPista-to-SistemaMuestraNuevaPista" style="stroke:#181818;stroke-width:1.0;"/><polygon fill="#181818" points="588.76,348.88,598.5768,348.0854,593.1503,346.4873,594.7485,341.0609,588.76,348.88" style="stroke:#181818;stroke-width:1.0;"/></g><!--link SistemaCreaPista to Error--><g id="link_SistemaCreaPista_Error"><path d="M773.35,288.19 C795.79,307.01 822.0621,329.0352 843.7821,347.2452 " fill="none" id="SistemaCreaPista-to-Error" style="stroke:#181818;stroke-width:1.0;"/><polygon fill="#181818" points="848.38,351.1,844.0531,342.2525,844.5485,347.8876,838.9133,348.383,848.38,351.1" style="stroke:#181818;stroke-width:1.0;"/></g><!--link Error to *end*--><g id="link_Error_*end*"><path d="M848.36,395.6 C810.19,425.67 745.9122,476.3058 722.3522,494.8758 " fill="none" id="Error-to-*end*" style="stroke:#181818;stroke-width:1.0;"/><polygon fill="#181818" points="717.64,498.59,727.1844,496.1602,721.5668,495.4949,722.2322,489.8773,717.64,498.59" style="stroke:#181818;stroke-width:1.0;"/></g><!--link SistemaMuestraNuevaPista to *end*--><g id="link_SistemaMuestraNuevaPista_*end*"><path d="M575.15,399.15 C613.92,429.69 673.6669,476.767 696.4769,494.737 " fill="none" id="SistemaMuestraNuevaPista-to-*end*" style="stroke:#181818;stroke-width:1.0;"/><polygon fill="#181818" points="701.19,498.45,696.5957,489.7384,697.2624,495.3558,691.645,496.0225,701.19,498.45" style="stroke:#181818;stroke-width:1.0;"/><path d="M661.5,434 L661.5,460 L702.5,460 L702.5,444 L692.5,434 L661.5,434 " fill="#FEFFDD" style="stroke:#181818;stroke-width:0.5;"/><path d="M692.5,434 L692.5,444 L702.5,444 L692.5,434 " fill="#FEFFDD" style="stroke:#181818;stroke-width:0.5;"/><text fill="#000000" font-family="sans-serif" font-size="13" font-weight="bold" lengthAdjust="spacing" textLength="20" x="667.5" y="452.4951">Fin</text></g><!--SRC=[ZPB1JiCm38RlVGgV8_KLkC2GE0mXJPoc7Qp6WuWicPo4vwTnIYbPMkYXQfFV-J__yL6TeEV-3bv3GZR-uAqPJCGzkNJFXFnYGiHkSnTwFHvm63_fWlj48N9TxtmaOFFs7i6V__22yTbPI4K4OL813WDfOX01MhYCPQ09XbmALwabfo5xTLiqlnf-Sf6zJWCzOFHXGMlfBB2RVKsieMZWKaIoJ1CXN94Hp6HZM3Qj3w2pOMx0Oas_pbQohW9SjDPEkjLa5VCt8FsmYMIBh-4lqKwHvUL6eAl5gpSl6-MQRrbgizOqFYVwnDOatf1M5pex_zjun-ovaxVy7zMfMuE1MR4nSGlszhGLo97FPMLDAITx1zQuZw9Kwj4ufMR95m00]--></g></svg>