<?xml version="1.0" encoding="us-ascii" standalone="no"?><svg xmlns="http://www.w3.org/2000/svg" xmlns:xlink="http://www.w3.org/1999/xlink" contentStyleType="text/css" height="701px" preserveAspectRatio="none" style="width:1168px;height:701px;background:#FFFFFF;" version="1.1" viewBox="0 0 1168 701" width="1168px" zoomAndPan="magnify"><defs/><g><ellipse cx="16" cy="32" fill="#222222" rx="10" ry="10" style="stroke:#222222;stroke-width:1.0;"/><g id="UsuarioSolicitaMenuCrearPista"><rect fill="#F1F1F1" height="50" rx="12.5" ry="12.5" style="stroke:#181818;stroke-width:0.5;" width="215" x="61.5" y="7"/><line style="stroke:#181818;stroke-width:0.5;" x1="61.5" x2="276.5" y1="34.6094" y2="34.6094"/><text fill="#000000" font-family="sans-serif" font-size="14" lengthAdjust="spacing" textLength="195" x="71.5" y="26.5332">UsuarioSolicitaMenuCrearPista</text></g><g id="SistemaMuestraMenuCrearPista"><rect fill="#F1F1F1" height="50" rx="12.5" ry="12.5" style="stroke:#181818;stroke-width:0.5;" width="223" x="57.5" y="186"/><line style="stroke:#181818;stroke-width:0.5;" x1="57.5" x2="280.5" y1="213.6094" y2="213.6094"/><text fill="#000000" font-family="sans-serif" font-size="14" lengthAdjust="spacing" textLength="203" x="67.5" y="205.5332">SistemaMuestraMenuCrearPista</text></g><g id="UsuarioIntroduceDatosPista"><rect fill="#F1F1F1" height="50" rx="12.5" ry="12.5" style="stroke:#181818;stroke-width:0.5;" width="195" x="482.5" y="186"/><line style="stroke:#181818;stroke-width:0.5;" x1="482.5" x2="677.5" y1="213.6094" y2="213.6094"/><text fill="#000000" font-family="sans-serif" font-size="14" lengthAdjust="spacing" textLength="175" x="492.5" y="205.5332">UsuarioIntroduceDatosPista</text></g><g id="UsuarioSolicitaCrearPista"><rect fill="#F1F1F1" height="50" rx="12.5" ry="12.5" style="stroke:#181818;stroke-width:0.5;" width="180" x="490" y="348"/><line style="stroke:#181818;stroke-width:0.5;" x1="490" x2="670" y1="375.6094" y2="375.6094"/><text fill="#000000" font-family="sans-serif" font-size="14" lengthAdjust="spacing" textLength="160" x="500" y="367.5332">UsuarioSolicitaCrearPista</text></g><g id="SistemaCreaPista"><rect fill="#F1F1F1" height="50" rx="12.5" ry="12.5" style="stroke:#181818;stroke-width:0.5;" width="132" x="843" y="348"/><line style="stroke:#181818;stroke-width:0.5;" x1="843" x2="975" y1="375.6094" y2="375.6094"/><text fill="#000000" font-family="sans-serif" font-size="14" lengthAdjust="spacing" textLength="112" x="853" y="367.5332">SistemaCreaPista</text></g><g id="SistemaMuestraNuevaPista"><rect fill="#F1F1F1" height="50" rx="12.5" ry="12.5" style="stroke:#181818;stroke-width:0.5;" width="192" x="734" y="527"/><line style="stroke:#181818;stroke-width:0.5;" x1="734" x2="926" y1="554.6094" y2="554.6094"/><text fill="#000000" font-family="sans-serif" font-size="14" lengthAdjust="spacing" textLength="172" x="744" y="546.5332">SistemaMuestraNuevaPista</text></g><g id="Error"><rect fill="#F1F1F1" height="50" rx="12.5" ry="12.5" style="stroke:#181818;stroke-width:0.5;" width="52" x="961" y="527"/><line style="stroke:#181818;stroke-width:0.5;" x1="961" x2="1013" y1="554.6094" y2="554.6094"/><text fill="#000000" font-family="sans-serif" font-size="14" lengthAdjust="spacing" textLength="32" x="971" y="546.5332">Error</text></g><ellipse cx="908" cy="684" fill="none" rx="11" ry="11" style="stroke:#222222;stroke-width:1.0;"/><ellipse cx="908" cy="684" fill="#222222" rx="6" ry="6" style="stroke:#222222;stroke-width:1.0;"/><!--link *start* to UsuarioSolicitaMenuCrearPista--><g id="link_*start*_UsuarioSolicitaMenuCrearPista"><path d="M26.16,32 C37.88,32 43.59,32 55.31,32 " fill="none" id="*start*-to-UsuarioSolicitaMenuCrearPista" style="stroke:#181818;stroke-width:1.0;"/><polygon fill="#181818" points="61.31,32,52.31,28,56.31,32,52.31,36,61.31,32" style="stroke:#181818;stroke-width:1.0;"/></g><!--link UsuarioSolicitaMenuCrearPista to SistemaMuestraMenuCrearPista--><g id="link_UsuarioSolicitaMenuCrearPista_SistemaMuestraMenuCrearPista"><path d="M169,57.24 C169,91.04 169,145.97 169,179.77 " fill="none" id="UsuarioSolicitaMenuCrearPista-to-SistemaMuestraMenuCrearPista" style="stroke:#181818;stroke-width:1.0;"/><polygon fill="#181818" points="169,185.77,173,176.77,169,180.77,165,176.77,169,185.77" style="stroke:#181818;stroke-width:1.0;"/><path d="M174,92 L174,151 L352,151 L352,102 L342,92 L174,92 " fill="#FEFFDD" style="stroke:#181818;stroke-width:0.5;"/><path d="M342,92 L342,102 L352,102 L342,92 " fill="#FEFFDD" style="stroke:#181818;stroke-width:0.5;"/><text fill="#000000" font-family="sans-serif" font-size="13" lengthAdjust="spacing" textLength="153" x="180" y="110.4951">El usuario solicita acceder</text><text fill="#000000" font-family="sans-serif" font-size="13" lengthAdjust="spacing" textLength="97" x="180" y="126.8467">al menu de crear</text><text fill="#000000" font-family="sans-serif" font-size="13" lengthAdjust="spacing" textLength="28" x="180" y="143.1982">pista</text></g><!--link SistemaMuestraMenuCrearPista to UsuarioIntroduceDatosPista--><g id="link_SistemaMuestraMenuCrearPista_UsuarioIntroduceDatosPista"><path d="M280.76,211 C343.76,211 415.7,211 476.25,211 " fill="none" id="SistemaMuestraMenuCrearPista-to-UsuarioIntroduceDatosPista" style="stroke:#181818;stroke-width:1.0;"/><polygon fill="#181818" points="482.25,211,473.25,207,477.25,211,473.25,215,482.25,211" style="stroke:#181818;stroke-width:1.0;"/><path d="M303,144 L303,203 L460,203 L460,154 L450,144 L303,144 " fill="#FEFFDD" style="stroke:#181818;stroke-width:0.5;"/><path d="M450,144 L450,154 L460,154 L450,144 " fill="#FEFFDD" style="stroke:#181818;stroke-width:0.5;"/><text fill="#000000" font-family="sans-serif" font-size="13" lengthAdjust="spacing" textLength="113" x="309" y="162.4951">El sistema muestra</text><text fill="#000000" font-family="sans-serif" font-size="13" lengthAdjust="spacing" textLength="136" x="309" y="178.8467">el menu  para introducir</text><text fill="#000000" font-family="sans-serif" font-size="13" lengthAdjust="spacing" textLength="117" x="309" y="195.1982">los datos de la pista</text></g><!--link UsuarioIntroduceDatosPista to UsuarioSolicitaCrearPista--><g id="link_UsuarioIntroduceDatosPista_UsuarioSolicitaCrearPista"><path d="M580,236.3 C580,266.55 580,311.89 580,342 " fill="none" id="UsuarioIntroduceDatosPista-to-UsuarioSolicitaCrearPista" style="stroke:#181818;stroke-width:1.0;"/><polygon fill="#181818" points="580,348,584,339,580,343,576,339,580,348" style="stroke:#181818;stroke-width:1.0;"/><path d="M585,271 L585,313 L778,313 L778,281 L768,271 L585,271 " fill="#FEFFDD" style="stroke:#181818;stroke-width:0.5;"/><path d="M768,271 L768,281 L778,281 L768,271 " fill="#FEFFDD" style="stroke:#181818;stroke-width:0.5;"/><text fill="#000000" font-family="sans-serif" font-size="13" lengthAdjust="spacing" textLength="172" x="591" y="289.4951">El usuario introduce los datos</text><text fill="#000000" font-family="sans-serif" font-size="13" lengthAdjust="spacing" textLength="60" x="591" y="305.8467">de la pista</text></g><!--link UsuarioSolicitaCrearPista to SistemaCreaPista--><g id="link_UsuarioSolicitaCrearPista_SistemaCreaPista"><path d="M670.34,373 C724.93,373 787.31,373 836.87,373 " fill="none" id="UsuarioSolicitaCrearPista-to-SistemaCreaPista" style="stroke:#181818;stroke-width:1.0;"/><polygon fill="#181818" points="842.87,373,833.87,369,837.87,373,833.87,377,842.87,373" style="stroke:#181818;stroke-width:1.0;"/><path d="M692.5,323 L692.5,365 L820.5,365 L820.5,333 L810.5,323 L692.5,323 " fill="#FEFFDD" style="stroke:#181818;stroke-width:0.5;"/><path d="M810.5,323 L810.5,333 L820.5,333 L810.5,323 " fill="#FEFFDD" style="stroke:#181818;stroke-width:0.5;"/><text fill="#000000" font-family="sans-serif" font-size="13" lengthAdjust="spacing" textLength="103" x="698.5" y="341.4951">El usuario solicita</text><text fill="#000000" font-family="sans-serif" font-size="13" lengthAdjust="spacing" textLength="75" x="698.5" y="357.8467">crear la pista</text></g><!--link SistemaCreaPista to SistemaMuestraNuevaPista--><g id="link_SistemaCreaPista_SistemaMuestraNuevaPista"><path d="M852.18,398.27 C840.51,406 829.74,415.81 823,428 C806.03,458.7 811.9755,494.7843 819.6655,520.9043 " fill="none" id="SistemaCreaPista-to-SistemaMuestraNuevaPista" style="stroke:#181818;stroke-width:1.0;"/><polygon fill="#181818" points="821.36,526.66,822.6553,516.8967,819.9479,521.8636,814.981,519.1561,821.36,526.66" style="stroke:#181818;stroke-width:1.0;"/><path d="M828,433 L828,492 L936,492 L936,443 L926,433 L828,433 " fill="#FEFFDD" style="stroke:#181818;stroke-width:0.5;"/><path d="M926,433 L926,443 L936,443 L926,433 " fill="#FEFFDD" style="stroke:#181818;stroke-width:0.5;"/><text fill="#000000" font-family="sans-serif" font-size="13" lengthAdjust="spacing" textLength="62" x="834" y="451.4951">El sistema</text><text fill="#000000" font-family="sans-serif" font-size="13" lengthAdjust="spacing" textLength="87" x="834" y="467.8467">crea y muestra</text><text fill="#000000" font-family="sans-serif" font-size="13" lengthAdjust="spacing" textLength="79" x="834" y="484.1982">la nueva pista</text></g><!--link SistemaCreaPista to Error--><g id="link_SistemaCreaPista_Error"><path d="M929.59,398.12 C936.47,407.07 943.73,417.59 949,428 C965.45,460.5 975.0392,495.6272 980.7892,521.1072 " fill="none" id="SistemaCreaPista-to-Error" style="stroke:#181818;stroke-width:1.0;"/><polygon fill="#181818" points="982.11,526.96,984.0307,517.3002,981.0093,522.0826,976.2269,519.0613,982.11,526.96" style="stroke:#181818;stroke-width:1.0;"/><path d="M979,441.5 L979,483.5 L1161,483.5 L1161,451.5 L1151,441.5 L979,441.5 " fill="#FEFFDD" style="stroke:#181818;stroke-width:0.5;"/><path d="M1151,441.5 L1151,451.5 L1161,451.5 L1151,441.5 " fill="#FEFFDD" style="stroke:#181818;stroke-width:0.5;"/><text fill="#000000" font-family="sans-serif" font-size="13" lengthAdjust="spacing" textLength="161" x="985" y="459.9951">El sistema muestra un error</text><text fill="#000000" font-family="sans-serif" font-size="13" lengthAdjust="spacing" textLength="89" x="985" y="476.3467">al crear la pista</text></g><!--link Error to *end*--><g id="link_Error_*end*"><path d="M972.33,577.15 C954.48,606.52 928.375,649.4719 916.445,669.1119 " fill="none" id="Error-to-*end*" style="stroke:#181818;stroke-width:1.0;"/><polygon fill="#181818" points="913.33,674.24,921.4211,668.6245,915.9258,669.9666,914.5837,664.4713,913.33,674.24" style="stroke:#181818;stroke-width:1.0;"/><path d="M957,612 L957,638 L998,638 L998,622 L988,612 L957,612 " fill="#FEFFDD" style="stroke:#181818;stroke-width:0.5;"/><path d="M988,612 L988,622 L998,622 L988,612 " fill="#FEFFDD" style="stroke:#181818;stroke-width:0.5;"/><text fill="#000000" font-family="sans-serif" font-size="13" font-weight="bold" lengthAdjust="spacing" textLength="20" x="963" y="630.4951">Fin</text></g><!--link SistemaMuestraNuevaPista to *end*--><g id="link_SistemaMuestraNuevaPista_*end*"><path d="M840.66,577.03 C849.27,595.59 862.19,621.63 876,643 C883.72,654.95 890.3341,663.0788 897.1741,670.8788 " fill="none" id="SistemaMuestraNuevaPista-to-*end*" style="stroke:#181818;stroke-width:1.0;"/><polygon fill="#181818" points="901.13,675.39,898.2035,665.986,897.8334,671.6307,892.1887,671.2606,901.13,675.39" style="stroke:#181818;stroke-width:1.0;"/><path d="M881,612 L881,638 L922,638 L922,622 L912,612 L881,612 " fill="#FEFFDD" style="stroke:#181818;stroke-width:0.5;"/><path d="M912,612 L912,622 L922,622 L912,612 " fill="#FEFFDD" style="stroke:#181818;stroke-width:0.5;"/><text fill="#000000" font-family="sans-serif" font-size="13" font-weight="bold" lengthAdjust="spacing" textLength="20" x="887" y="630.4951">Fin</text></g><!--SRC=[bP8zRiCm38Ltd-BD0do5Bcq2T4XH8EWKP20i3a9bAQ2a0BrzBSbf6YTsNKy2IN_lyUUWZcYbVS97I2J6xxqrdOcqOvUUXKdUJOZKB6RHwW6m7vxSqovnY3Bzt_d8y0xMkCy6mxUnI9M9C491NSUQ1QM0BFg10SteCgT6JuN6JYCJcoNDcxPUNHIlKySl57sOznGg47qbbZ2FJd0Y8PYHPAGahG_GcPcDMfeQd9UlGvlCzPVxnP5TJF1LlvGiUNYWKIOqpZ27_x6hagYBkLUS8XyTo5lYC_szY1yTVDqiPH1rcR1EUYFYPSt2aHou58ytEDTY8HRsGHtloKfjZLDgxbAlpMCzuni0]--></g></svg>