<?xml version="1.0" encoding="us-ascii" standalone="no"?><svg xmlns="http://www.w3.org/2000/svg" xmlns:xlink="http://www.w3.org/1999/xlink" contentStyleType="text/css" height="569px" preserveAspectRatio="none" style="width:666px;height:569px;background:#FFFFFF;" version="1.1" viewBox="0 0 666 569" width="666px" zoomAndPan="magnify"><defs/><g><ellipse cx="401" cy="16" fill="#222222" rx="10" ry="10" style="stroke:#222222;stroke-width:1.0;"/><g id="UsuarioSolicitaPistas"><rect fill="#F1F1F1" height="50" rx="12.5" ry="12.5" style="stroke:#181818;stroke-width:0.5;" width="151" x="325.5" y="87"/><line style="stroke:#181818;stroke-width:0.5;" x1="325.5" x2="476.5" y1="114.6094" y2="114.6094"/><text fill="#000000" font-family="sans-serif" font-size="14" lengthAdjust="spacing" textLength="131" x="335.5" y="106.5332">UsuarioSolicitaPistas</text></g><g id="SistemaMuestraPistas"><rect fill="#F1F1F1" height="50" rx="12.5" ry="12.5" style="stroke:#181818;stroke-width:0.5;" width="159" x="159.5" y="233"/><line style="stroke:#181818;stroke-width:0.5;" x1="159.5" x2="318.5" y1="260.6094" y2="260.6094"/><text fill="#000000" font-family="sans-serif" font-size="14" lengthAdjust="spacing" textLength="139" x="169.5" y="252.5332">SistemaMuestraPistas</text></g><g id="UsuarioDecideProximaOperacion"><rect fill="#F1F1F1" height="50" rx="12.5" ry="12.5" style="stroke:#181818;stroke-width:0.5;" width="228" x="125" y="395"/><line style="stroke:#181818;stroke-width:0.5;" x1="125" x2="353" y1="422.6094" y2="422.6094"/><text fill="#000000" font-family="sans-serif" font-size="14" lengthAdjust="spacing" textLength="208" x="135" y="414.5332">UsuarioDecideProximaOperacion</text></g><g id="Error"><rect fill="#F1F1F1" height="50" rx="12.5" ry="12.5" style="stroke:#181818;stroke-width:0.5;" width="52" x="7" y="395"/><line style="stroke:#181818;stroke-width:0.5;" x1="7" x2="59" y1="422.6094" y2="422.6094"/><text fill="#000000" font-family="sans-serif" font-size="14" lengthAdjust="spacing" textLength="32" x="17" y="414.5332">Error</text></g><ellipse cx="120" cy="552" fill="none" rx="11" ry="11" style="stroke:#222222;stroke-width:1.0;"/><ellipse cx="120" cy="552" fill="#222222" rx="6" ry="6" style="stroke:#222222;stroke-width:1.0;"/><!--link *start* to UsuarioSolicitaPistas--><g id="link_*start*_UsuarioSolicitaPistas"><path d="M401,26.01 C401,39.89 401,60.97 401,80.84 " fill="none" id="*start*-to-UsuarioSolicitaPistas" style="stroke:#181818;stroke-width:1.0;"/><polygon fill="#181818" points="401,86.84,405,77.84,401,81.84,397,77.84,401,86.84" style="stroke:#181818;stroke-width:1.0;"/></g><!--link UsuarioSolicitaPistas to SistemaMuestraPistas--><g id="link_UsuarioSolicitaPistas_SistemaMuestraPistas"><path d="M325.25,136.2 C308.52,143.98 291.95,154.07 279,167 C260.85,185.12 251.8868,207.1404 246.2068,227.0404 " fill="none" id="UsuarioSolicitaPistas-to-SistemaMuestraPistas" style="stroke:#181818;stroke-width:1.0;"/><polygon fill="#181818" points="244.56,232.81,250.8766,225.2535,245.9323,228.002,243.1838,223.0578,244.56,232.81" style="stroke:#181818;stroke-width:1.0;"/><path d="M284,172 L284,198 L532,198 L532,182 L522,172 L284,172 " fill="#FEFFDD" style="stroke:#181818;stroke-width:0.5;"/><path d="M522,172 L522,182 L532,182 L522,172 " fill="#FEFFDD" style="stroke:#181818;stroke-width:0.5;"/><text fill="#000000" font-family="sans-serif" font-size="13" lengthAdjust="spacing" textLength="227" x="290" y="190.4951">El usuario solicita las pistas al sistema</text></g><!--link SistemaMuestraPistas to UsuarioDecideProximaOperacion--><g id="link_SistemaMuestraPistas_UsuarioDecideProximaOperacion"><path d="M237.37,283.18 C236.82,292.5 236.27,303.24 236,313 C235.36,336.1 235.36,341.9 236,365 C236.27,374.76 236.4665,379.5104 237.0165,388.8304 " fill="none" id="SistemaMuestraPistas-to-UsuarioDecideProximaOperacion" style="stroke:#181818;stroke-width:1.0;"/><polygon fill="#181818" points="237.37,394.82,240.8329,385.6,237.0754,389.8287,232.8468,386.0713,237.37,394.82" style="stroke:#181818;stroke-width:1.0;"/><path d="M241,318 L241,360 L532,360 L532,328 L522,318 L241,318 " fill="#FEFFDD" style="stroke:#181818;stroke-width:0.5;"/><path d="M522,318 L522,328 L532,328 L522,318 " fill="#FEFFDD" style="stroke:#181818;stroke-width:0.5;"/><text fill="#000000" font-family="sans-serif" font-size="13" lengthAdjust="spacing" textLength="233" x="247" y="336.4951">El sistema muestra las pistas al usuario</text><text fill="#000000" font-family="sans-serif" font-size="13" lengthAdjust="spacing" textLength="270" x="247" y="352.8467">para que este decida que hacer a continuacion</text></g><!--link UsuarioDecideProximaOperacion to UsuarioSolicitaPistas--><g id="link_UsuarioDecideProximaOperacion_UsuarioSolicitaPistas"><path d="M353.29,413.46 C428.36,407.16 516.98,393.69 541,365 C597.48,297.52 590.79,239.56 541,167 C526.19,145.41 507.1509,134.2586 482.5409,126.4786 " fill="none" id="UsuarioDecideProximaOperacion-to-UsuarioSolicitaPistas" style="stroke:#181818;stroke-width:1.0;"/><polygon fill="#181818" points="476.82,124.67,484.1957,131.1968,481.5874,126.1771,486.6071,123.5689,476.82,124.67" style="stroke:#181818;stroke-width:1.0;"/><path d="M585,245 L585,271 L659,271 L659,255 L649,245 L585,245 " fill="#FEFFDD" style="stroke:#181818;stroke-width:0.5;"/><path d="M649,245 L649,255 L659,255 L649,245 " fill="#FEFFDD" style="stroke:#181818;stroke-width:0.5;"/><text fill="#000000" font-family="sans-serif" font-size="13" font-weight="bold" lengthAdjust="spacing" textLength="53" x="591" y="263.4951">Recarga</text></g><!--link SistemaMuestraPistas to Error--><g id="link_SistemaMuestraPistas_Error"><path d="M159.32,269.39 C107.28,278 46.09,292.22 30,313 C12.08,336.14 15.9106,365.664 22.6506,389.084 " fill="none" id="SistemaMuestraPistas-to-Error" style="stroke:#181818;stroke-width:1.0;"/><polygon fill="#181818" points="24.31,394.85,25.6649,385.0948,22.9272,390.045,17.9769,387.3073,24.31,394.85" style="stroke:#181818;stroke-width:1.0;"/><path d="M35,318 L35,360 L223,360 L223,328 L213,318 L35,318 " fill="#FEFFDD" style="stroke:#181818;stroke-width:0.5;"/><path d="M213,318 L213,328 L223,328 L213,318 " fill="#FEFFDD" style="stroke:#181818;stroke-width:0.5;"/><text fill="#000000" font-family="sans-serif" font-size="13" lengthAdjust="spacing" textLength="167" x="41" y="336.4951">El sistema no puede mostrar</text><text fill="#000000" font-family="sans-serif" font-size="13" lengthAdjust="spacing" textLength="116" x="41" y="352.8467">las pistas al usuario</text></g><!--link Error to *end*--><g id="link_Error_*end*"><path d="M49.01,445.09 C61.07,463.23 78.04,488.7 93,511 C100.28,521.85 105.3479,529.3605 110.8279,537.4605 " fill="none" id="Error-to-*end*" style="stroke:#181818;stroke-width:1.0;"/><polygon fill="#181818" points="114.19,542.43,112.4599,532.7343,111.3882,538.2887,105.8338,537.2171,114.19,542.43" style="stroke:#181818;stroke-width:1.0;"/><path d="M98,480 L98,506 L139,506 L139,490 L129,480 L98,480 " fill="#FEFFDD" style="stroke:#181818;stroke-width:0.5;"/><path d="M129,480 L129,490 L139,490 L129,480 " fill="#FEFFDD" style="stroke:#181818;stroke-width:0.5;"/><text fill="#000000" font-family="sans-serif" font-size="13" font-weight="bold" lengthAdjust="spacing" textLength="20" x="104" y="498.4951">Fin</text></g><!--link UsuarioDecideProximaOperacion to *end*--><g id="link_UsuarioDecideProximaOperacion_*end*"><path d="M216.9,445.15 C189.47,475.11 148.2818,520.1147 131.0318,538.9547 " fill="none" id="UsuarioDecideProximaOperacion-to-*end*" style="stroke:#181818;stroke-width:1.0;"/><polygon fill="#181818" points="126.98,543.38,136.0079,539.4433,130.3565,539.6923,130.1075,534.0409,126.98,543.38" style="stroke:#181818;stroke-width:1.0;"/><path d="M192,480 L192,506 L469,506 L469,490 L459,480 L192,480 " fill="#FEFFDD" style="stroke:#181818;stroke-width:0.5;"/><path d="M459,480 L459,490 L469,490 L459,480 " fill="#FEFFDD" style="stroke:#181818;stroke-width:0.5;"/><text fill="#000000" font-family="sans-serif" font-size="13" lengthAdjust="spacing" textLength="256" x="198" y="498.4951">El usuario decidira que hacer a continuacion</text></g><!--SRC=[ZP8zRiCm38LtduAp05yXKzEjID2WKv21a8YKg2owb0Jq-9Kj9mXInOqc_P3VUtpGqPoWxpVm4JCgoq4yMqwuvvWmTirRw5rfE9Gz3VYMAIQzr0T911B0S_ZgeAojXrmP41S8-88OAmaznChfA3YOshiMk4ekRbx8igEzoWyFk1j9qRA4flO2Xw72xgGNPtFnYENvEnEKGW8tITJp9rfIGB0I4eTSjQvcLosj1Fl7h37lP57FQCmpKMnLHLT73W9Z9aSmoDIiytjx_glUJAq2HtDgcNpbS6lmd_4VWcw-nHmrwpDX_m80]--></g></svg>