<?xml version="1.0" encoding="us-ascii" standalone="no"?><svg xmlns="http://www.w3.org/2000/svg" xmlns:xlink="http://www.w3.org/1999/xlink" contentStyleType="text/css" height="482px" preserveAspectRatio="none" style="width:733px;height:482px;background:#FFFFFF;" version="1.1" viewBox="0 0 733 482" width="733px" zoomAndPan="magnify"><defs/><g><ellipse cx="554.5" cy="16" fill="#222222" rx="10" ry="10" style="stroke:#222222;stroke-width:1.0;"/><g id="UsuarioSolicitaPistas"><rect fill="#F1F1F1" height="50" rx="12.5" ry="12.5" style="stroke:#181818;stroke-width:0.5;" width="161" x="474" y="87"/><line style="stroke:#181818;stroke-width:0.5;" x1="474" x2="635" y1="113.2969" y2="113.2969"/><text fill="#000000" font-family="sans-serif" font-size="14" lengthAdjust="spacing" textLength="141" x="484" y="104.9951">UsuarioSolicitaPistas</text></g><g id="SistemaMuestraPistas"><rect fill="#F1F1F1" height="50" rx="12.5" ry="12.5" style="stroke:#181818;stroke-width:0.5;" width="172" x="361.5" y="198"/><line style="stroke:#181818;stroke-width:0.5;" x1="361.5" x2="533.5" y1="224.2969" y2="224.2969"/><text fill="#000000" font-family="sans-serif" font-size="14" lengthAdjust="spacing" textLength="152" x="371.5" y="215.9951">SistemaMuestraPistas</text></g><g id="elem_GMN7"><path d="M174,99.43 L174,124.5628 A0,0 0 0 0 174,124.5628 L439,124.5628 A0,0 0 0 0 439,124.5628 L439,117.43 L473.89,112 L439,109.43 L439,109.43 L429,99.43 L174,99.43 A0,0 0 0 0 174,99.43 " fill="#FEFFDD" style="stroke:#181818;stroke-width:0.5;"/><path d="M429,99.43 L429,109.43 L439,109.43 L429,99.43 " fill="#FEFFDD" style="stroke:#181818;stroke-width:0.5;"/><text fill="#000000" font-family="sans-serif" font-size="13" lengthAdjust="spacing" textLength="244" x="180" y="116.4969">El usuario solicita las pistas al sistema</text></g><g id="UsuarioDecideProximaOperacion"><rect fill="#F1F1F1" height="50" rx="12.5" ry="12.5" style="stroke:#181818;stroke-width:0.5;" width="246" x="480.5" y="309"/><line style="stroke:#181818;stroke-width:0.5;" x1="480.5" x2="726.5" y1="335.2969" y2="335.2969"/><text fill="#000000" font-family="sans-serif" font-size="14" lengthAdjust="spacing" textLength="226" x="490.5" y="326.9951">UsuarioDecideProximaOperacion</text></g><g id="elem_GMN12"><path d="M6,202.87 L6,243.1356 A0,0 0 0 0 6,243.1356 L327,243.1356 A0,0 0 0 0 327,243.1356 L327,227 L361.11,223 L327,219 L327,212.87 L317,202.87 L6,202.87 A0,0 0 0 0 6,202.87 " fill="#FEFFDD" style="stroke:#181818;stroke-width:0.5;"/><path d="M317,202.87 L317,212.87 L327,212.87 L317,202.87 " fill="#FEFFDD" style="stroke:#181818;stroke-width:0.5;"/><text fill="#000000" font-family="sans-serif" font-size="13" lengthAdjust="spacing" textLength="254" x="12" y="219.9369">El sistema muestra las pistas al usuario</text><text fill="#000000" font-family="sans-serif" font-size="13" lengthAdjust="spacing" textLength="300" x="12" y="235.0697">para que este decida que hacer a continuacion</text></g><g id="Error"><rect fill="#F1F1F1" height="50" rx="12.5" ry="12.5" style="stroke:#181818;stroke-width:0.5;" width="53" x="56" y="309"/><line style="stroke:#181818;stroke-width:0.5;" x1="56" x2="109" y1="335.2969" y2="335.2969"/><text fill="#000000" font-family="sans-serif" font-size="14" lengthAdjust="spacing" textLength="33" x="66" y="326.9951">Error</text></g><ellipse cx="342.5" cy="465" fill="none" rx="11" ry="11" style="stroke:#222222;stroke-width:1.0;"/><ellipse cx="342.5" cy="465" fill="#222222" rx="6" ry="6" style="stroke:#222222;stroke-width:1.0;"/><g id="elem_GMN21"><path d="M143.5,321.43 L143.5,346.5628 A0,0 0 0 0 143.5,346.5628 L445.5,346.5628 A0,0 0 0 0 445.5,346.5628 L445.5,339.43 L480.13,334 L445.5,331.43 L445.5,331.43 L435.5,321.43 L143.5,321.43 A0,0 0 0 0 143.5,321.43 " fill="#FEFFDD" style="stroke:#181818;stroke-width:0.5;"/><path d="M435.5,321.43 L435.5,331.43 L445.5,331.43 L435.5,321.43 " fill="#FEFFDD" style="stroke:#181818;stroke-width:0.5;"/><text fill="#000000" font-family="sans-serif" font-size="13" lengthAdjust="spacing" textLength="281" x="149.5" y="338.4969">El usuario decidira que hacer a continuacion</text></g><!--link *start* to UsuarioSolicitaPistas--><g id="link_*start*_UsuarioSolicitaPistas"><path d="M554.5,26.36 C554.5,40.29 554.5,60.95 554.5,80.65 " fill="none" id="*start*-to-UsuarioSolicitaPistas" style="stroke:#181818;stroke-width:1.0;"/><polygon fill="#181818" points="554.5,86.65,558.5,77.65,554.5,81.65,550.5,77.65,554.5,86.65" style="stroke:#181818;stroke-width:1.0;"/></g><!--link UsuarioSolicitaPistas to SistemaMuestraPistas--><g id="link_UsuarioSolicitaPistas_SistemaMuestraPistas"><path d="M530.49,137.46 C512.87,155.41 493.2443,175.4093 475.6343,193.3393 " fill="none" id="UsuarioSolicitaPistas-to-SistemaMuestraPistas" style="stroke:#181818;stroke-width:1.0;"/><polygon fill="#181818" points="471.43,197.62,480.5902,194.0018,474.9336,194.0528,474.8826,188.3962,471.43,197.62" style="stroke:#181818;stroke-width:1.0;"/></g><!--link SistemaMuestraPistas to UsuarioDecideProximaOperacion--><g id="link_SistemaMuestraPistas_UsuarioDecideProximaOperacion"><path d="M482.51,248.46 C508.2,266.41 538.0211,287.2542 563.6911,305.1842 " fill="none" id="SistemaMuestraPistas-to-UsuarioDecideProximaOperacion" style="stroke:#181818;stroke-width:1.0;"/><polygon fill="#181818" points="568.61,308.62,563.5222,300.1871,564.5109,305.7569,558.9411,306.7456,568.61,308.62" style="stroke:#181818;stroke-width:1.0;"/></g><!--link UsuarioDecideProximaOperacion to UsuarioSolicitaPistas--><g id="link_UsuarioDecideProximaOperacion_UsuarioSolicitaPistas"><path d="M598.04,308.51 C588.61,266.14 570.6545,185.5265 561.2345,143.2365 " fill="none" id="UsuarioDecideProximaOperacion-to-UsuarioSolicitaPistas" style="stroke:#181818;stroke-width:1.0;"/><polygon fill="#181818" points="559.93,137.38,557.9825,147.0344,561.0171,142.2604,565.7911,145.295,559.93,137.38" style="stroke:#181818;stroke-width:1.0;"/><path d="M589.5,210.5 L589.5,235.5 L671.5,235.5 L671.5,220.5 L661.5,210.5 L589.5,210.5 " fill="#FEFFDD" style="stroke:#181818;stroke-width:0.5;"/><path d="M661.5,210.5 L661.5,220.5 L671.5,220.5 L661.5,210.5 " fill="#FEFFDD" style="stroke:#181818;stroke-width:0.5;"/><text fill="#000000" font-family="sans-serif" font-size="13" font-weight="bold" lengthAdjust="spacing" textLength="61" x="595.5" y="227.5669">Recarga</text></g><!--link SistemaMuestraPistas to Error--><g id="link_SistemaMuestraPistas_Error"><path d="M361.37,244.33 C281.52,263.63 168.88,292.12 126.5,309 C120.84,311.25 120.3016,311.2795 114.7816,314.1795 " fill="none" id="SistemaMuestraPistas-to-Error" style="stroke:#181818;stroke-width:1.0;"/><polygon fill="#181818" points="109.47,316.97,119.2977,316.3253,113.8963,314.6446,115.5771,309.2432,109.47,316.97" style="stroke:#181818;stroke-width:1.0;"/></g><!--link Error to *end*--><g id="link_Error_*end*"><path d="M109.39,349.92 C115.01,352.98 120.93,356.13 126.5,359 C205.07,399.5 296.2038,442.3907 327.0738,456.8107 " fill="none" id="Error-to-*end*" style="stroke:#181818;stroke-width:1.0;"/><polygon fill="#181818" points="332.51,459.35,326.0487,451.9169,327.9799,457.2339,322.6629,459.1651,332.51,459.35" style="stroke:#181818;stroke-width:1.0;"/><path d="M259.5,394 L259.5,419 L302.5,419 L302.5,404 L292.5,394 L259.5,394 " fill="#FEFFDD" style="stroke:#181818;stroke-width:0.5;"/><path d="M292.5,394 L292.5,404 L302.5,404 L292.5,394 " fill="#FEFFDD" style="stroke:#181818;stroke-width:0.5;"/><text fill="#000000" font-family="sans-serif" font-size="13" font-weight="bold" lengthAdjust="spacing" textLength="22" x="265.5" y="411.0669">Fin</text></g><!--link UsuarioDecideProximaOperacion to *end*--><g id="link_UsuarioDecideProximaOperacion_*end*"><path d="M554.1,359.42 C490.55,390.82 389.8788,440.5814 357.5288,456.5714 " fill="none" id="UsuarioDecideProximaOperacion-to-*end*" style="stroke:#181818;stroke-width:1.0;"/><polygon fill="#181818" points="352.15,459.23,361.9906,458.8279,356.6323,457.0145,358.4458,451.6562,352.15,459.23" style="stroke:#181818;stroke-width:1.0;"/></g><!--SRC=[ZP6nRWCX38Ptdi8pqhr2fYPRrAXHfoY3nJcD5Gwk1gG-VWcGDZdTfML0O9l__x0F-WXTjuBta53Oxxrbmn5t7286DHk5hiyFzlbC0suJXIYtUkSZWQLJ17zQa8IyrXPIJK9eMR1PUApwQ25KTKMkXwkeKdD-bQJvl93XddRYltZ0rv443NltY3GBtOYQ9GmrEG5glALun9p-J0IvaA2_-jRx6Gq981Zl8hjK0Nw-y9JpoH3A3tA5PNSf_bg_aK7vGAr_rPVxinRneifU0mTzd1FTiBiN_0FtGMWoyeLHJ4PV6iVoZzPz0m00]--></g></svg>