<?xml version="1.0" encoding="us-ascii" standalone="no"?><svg xmlns="http://www.w3.org/2000/svg" xmlns:xlink="http://www.w3.org/1999/xlink" contentStyleType="text/css" height="483px" preserveAspectRatio="none" style="width:682px;height:483px;background:#FFFFFF;" version="1.1" viewBox="0 0 682 483" width="682px" zoomAndPan="magnify"><defs/><g><ellipse cx="513.5" cy="16" fill="#222222" rx="10" ry="10" style="stroke:#222222;stroke-width:1.0;"/><g id="UsuarioSolicitaPistas"><rect fill="#F1F1F1" height="50" rx="12.5" ry="12.5" style="stroke:#181818;stroke-width:0.5;" width="151" x="438" y="87"/><line style="stroke:#181818;stroke-width:0.5;" x1="438" x2="589" y1="114.6094" y2="114.6094"/><text fill="#000000" font-family="sans-serif" font-size="14" lengthAdjust="spacing" textLength="131" x="448" y="106.5332">UsuarioSolicitaPistas</text></g><g id="SistemaMuestraPistas"><rect fill="#F1F1F1" height="50" rx="12.5" ry="12.5" style="stroke:#181818;stroke-width:0.5;" width="159" x="332" y="198"/><line style="stroke:#181818;stroke-width:0.5;" x1="332" x2="491" y1="225.6094" y2="225.6094"/><text fill="#000000" font-family="sans-serif" font-size="14" lengthAdjust="spacing" textLength="139" x="342" y="217.5332">SistemaMuestraPistas</text></g><g id="elem_GMN7"><path d="M154.5,99 L154.5,125.3516 A0,0 0 0 0 154.5,125.3516 L402.5,125.3516 A0,0 0 0 0 402.5,125.3516 L402.5,117 L437.88,112 L402.5,109 L402.5,109 L392.5,99 L154.5,99 A0,0 0 0 0 154.5,99 " fill="#FEFFDD" style="stroke:#181818;stroke-width:0.5;"/><path d="M392.5,99 L392.5,109 L402.5,109 L392.5,99 " fill="#FEFFDD" style="stroke:#181818;stroke-width:0.5;"/><text fill="#000000" font-family="sans-serif" font-size="13" lengthAdjust="spacing" textLength="227" x="160.5" y="117.4951">El usuario solicita las pistas al sistema</text></g><g id="UsuarioDecideProximaOperacion"><rect fill="#F1F1F1" height="50" rx="12.5" ry="12.5" style="stroke:#181818;stroke-width:0.5;" width="228" x="447.5" y="309"/><line style="stroke:#181818;stroke-width:0.5;" x1="447.5" x2="675.5" y1="336.6094" y2="336.6094"/><text fill="#000000" font-family="sans-serif" font-size="14" lengthAdjust="spacing" textLength="208" x="457.5" y="328.5332">UsuarioDecideProximaOperacion</text></g><g id="elem_GMN12"><path d="M6,201.5 L6,244.2031 A0,0 0 0 0 6,244.2031 L297,244.2031 A0,0 0 0 0 297,244.2031 L297,227 L331.61,223 L297,219 L297,211.5 L287,201.5 L6,201.5 A0,0 0 0 0 6,201.5 " fill="#FEFFDD" style="stroke:#181818;stroke-width:0.5;"/><path d="M287,201.5 L287,211.5 L297,211.5 L287,201.5 " fill="#FEFFDD" style="stroke:#181818;stroke-width:0.5;"/><text fill="#000000" font-family="sans-serif" font-size="13" lengthAdjust="spacing" textLength="233" x="12" y="219.9951">El sistema muestra las pistas al usuario</text><text fill="#000000" font-family="sans-serif" font-size="13" lengthAdjust="spacing" textLength="270" x="12" y="236.3467">para que este decida que hacer a continuacion</text></g><g id="Error"><rect fill="#F1F1F1" height="50" rx="12.5" ry="12.5" style="stroke:#181818;stroke-width:0.5;" width="52" x="47.5" y="309"/><line style="stroke:#181818;stroke-width:0.5;" x1="47.5" x2="99.5" y1="336.6094" y2="336.6094"/><text fill="#000000" font-family="sans-serif" font-size="14" lengthAdjust="spacing" textLength="32" x="57.5" y="328.5332">Error</text></g><ellipse cx="317.5" cy="466" fill="none" rx="11" ry="11" style="stroke:#222222;stroke-width:1.0;"/><ellipse cx="317.5" cy="466" fill="#222222" rx="6" ry="6" style="stroke:#222222;stroke-width:1.0;"/><g id="elem_GMN21"><path d="M135,321 L135,347.3516 A0,0 0 0 0 135,347.3516 L412,347.3516 A0,0 0 0 0 412,347.3516 L412,339 L447.45,334 L412,331 L412,331 L402,321 L135,321 A0,0 0 0 0 135,321 " fill="#FEFFDD" style="stroke:#181818;stroke-width:0.5;"/><path d="M402,321 L402,331 L412,331 L402,321 " fill="#FEFFDD" style="stroke:#181818;stroke-width:0.5;"/><text fill="#000000" font-family="sans-serif" font-size="13" lengthAdjust="spacing" textLength="256" x="141" y="339.4951">El usuario decidira que hacer a continuacion</text></g><!--link *start* to UsuarioSolicitaPistas--><g id="link_*start*_UsuarioSolicitaPistas"><path d="M513.5,26.01 C513.5,39.89 513.5,60.97 513.5,80.84 " fill="none" id="*start*-to-UsuarioSolicitaPistas" style="stroke:#181818;stroke-width:1.0;"/><polygon fill="#181818" points="513.5,86.84,517.5,77.84,513.5,81.84,509.5,77.84,513.5,86.84" style="stroke:#181818;stroke-width:1.0;"/></g><!--link UsuarioSolicitaPistas to SistemaMuestraPistas--><g id="link_UsuarioSolicitaPistas_SistemaMuestraPistas"><path d="M490.86,137.19 C473.96,155.25 455.0595,175.4489 438.1695,193.4989 " fill="none" id="UsuarioSolicitaPistas-to-SistemaMuestraPistas" style="stroke:#181818;stroke-width:1.0;"/><polygon fill="#181818" points="434.07,197.88,443.14,194.0414,437.4863,194.2291,437.2986,188.5754,434.07,197.88" style="stroke:#181818;stroke-width:1.0;"/></g><!--link SistemaMuestraPistas to UsuarioDecideProximaOperacion--><g id="link_SistemaMuestraPistas_UsuarioDecideProximaOperacion"><path d="M444.79,248.19 C469.65,266.25 498.6168,287.302 523.4468,305.352 " fill="none" id="SistemaMuestraPistas-to-UsuarioDecideProximaOperacion" style="stroke:#181818;stroke-width:1.0;"/><polygon fill="#181818" points="528.3,308.88,523.3722,300.3526,524.2557,305.94,518.6682,306.8235,528.3,308.88" style="stroke:#181818;stroke-width:1.0;"/></g><!--link UsuarioDecideProximaOperacion to UsuarioSolicitaPistas--><g id="link_UsuarioDecideProximaOperacion_UsuarioSolicitaPistas"><path d="M556.23,308.84 C547.01,266.6 529.3489,185.6421 520.0989,143.2421 " fill="none" id="UsuarioDecideProximaOperacion-to-UsuarioSolicitaPistas" style="stroke:#181818;stroke-width:1.0;"/><polygon fill="#181818" points="518.82,137.38,516.8302,147.0258,519.8857,142.2651,524.6464,145.3206,518.82,137.38" style="stroke:#181818;stroke-width:1.0;"/><path d="M548.5,210 L548.5,236 L622.5,236 L622.5,220 L612.5,210 L548.5,210 " fill="#FEFFDD" style="stroke:#181818;stroke-width:0.5;"/><path d="M612.5,210 L612.5,220 L622.5,220 L612.5,210 " fill="#FEFFDD" style="stroke:#181818;stroke-width:0.5;"/><text fill="#000000" font-family="sans-serif" font-size="13" font-weight="bold" lengthAdjust="spacing" textLength="53" x="554.5" y="228.4951">Recarga</text></g><!--link SistemaMuestraPistas to Error--><g id="link_SistemaMuestraPistas_Error"><path d="M331.95,244.9 C258.88,264.48 156.25,293.05 117.5,309 C111.55,311.45 110.6572,311.6722 104.8672,314.7522 " fill="none" id="SistemaMuestraPistas-to-Error" style="stroke:#181818;stroke-width:1.0;"/><polygon fill="#181818" points="99.57,317.57,109.3943,316.8747,103.9843,315.2218,105.6372,309.8118,99.57,317.57" style="stroke:#181818;stroke-width:1.0;"/></g><!--link Error to *end*--><g id="link_Error_*end*"><path d="M99.53,349.27 C105.43,352.48 111.68,355.87 117.5,359 C190.53,398.27 273.7283,442.0198 302.5883,457.1798 " fill="none" id="Error-to-*end*" style="stroke:#181818;stroke-width:1.0;"/><polygon fill="#181818" points="307.9,459.97,301.7925,452.2435,303.4735,457.6448,298.0722,459.3258,307.9,459.97" style="stroke:#181818;stroke-width:1.0;"/><path d="M246.5,394 L246.5,420 L287.5,420 L287.5,404 L277.5,394 L246.5,394 " fill="#FEFFDD" style="stroke:#181818;stroke-width:0.5;"/><path d="M277.5,394 L277.5,404 L287.5,404 L277.5,394 " fill="#FEFFDD" style="stroke:#181818;stroke-width:0.5;"/><text fill="#000000" font-family="sans-serif" font-size="13" font-weight="bold" lengthAdjust="spacing" textLength="20" x="252.5" y="412.4951">Fin</text></g><!--link UsuarioDecideProximaOperacion to *end*--><g id="link_UsuarioDecideProximaOperacion_*end*"><path d="M516.18,359.15 C457.19,390.57 363.285,440.6081 332.325,457.1081 " fill="none" id="UsuarioDecideProximaOperacion-to-*end*" style="stroke:#181818;stroke-width:1.0;"/><polygon fill="#181818" points="327.03,459.93,336.8537,459.2271,331.4425,457.5784,333.0912,452.1671,327.03,459.93" style="stroke:#181818;stroke-width:1.0;"/></g><!--SRC=[ZP6nRWCX38Ptdi8pqhr2fYPRrAXHfoY3nJcD5Gwk1gG-VWcGDZdTfML0O9l__x0F-WXTjuBta53Oxxrbmn5t7286DHk5hiyFzlbC0suJXIYtUkSZWQLJ17zQa8IyrXPIJK9eMR1PUApwQ25KTKMkXwkeKdD-bQJvl93XddRYltZ0rv443NltY3GBtOYQ9GmrEG5glALun9p-J0IvaA2_-jRx6Gq981Zl8hjK0Nw-y9JpoH3A3tA5PNSf_bg_aK7vGAr_rPVxinRneifU0mTzd1FTiBiN_0FtGMWoyeLHJ4PV6iVodzPz0m00]--></g></svg>