<?xml version="1.0" encoding="us-ascii" standalone="no"?><svg xmlns="http://www.w3.org/2000/svg" xmlns:xlink="http://www.w3.org/1999/xlink" contentStyleType="text/css" height="164px" preserveAspectRatio="none" style="width:399px;height:164px;background:#FFFFFF;" version="1.1" viewBox="0 0 399 164" width="399px" zoomAndPan="magnify"><defs/><g><g id="elem_Usuario"><rect fill="#F1F1F1" height="36.2969" style="stroke:#181818;stroke-width:0.5;" width="66" x="7" y="8.4259"/><text fill="#000000" font-family="sans-serif" font-size="14" lengthAdjust="spacing" textLength="52" x="14" y="23.421">Usuario</text><line style="stroke:#181818;stroke-width:0.5;" x1="8" x2="72" y1="28.7228" y2="28.7228"/></g><g id="elem_Aplicacion"><rect fill="#F1F1F1" height="36.2969" style="stroke:#181818;stroke-width:0.5;" width="83" x="287.5" y="8.4259"/><text fill="#000000" font-family="sans-serif" font-size="14" lengthAdjust="spacing" textLength="69" x="294.5" y="23.421">Aplicacion</text><line style="stroke:#181818;stroke-width:0.5;" x1="288.5" x2="369.5" y1="28.7228" y2="28.7228"/></g><g id="elem_Reservas"><rect fill="#F1F1F1" height="36.2969" style="stroke:#181818;stroke-width:0.5;" width="78" x="290" y="121.7159"/><text fill="#000000" font-family="sans-serif" font-size="14" lengthAdjust="spacing" textLength="64" x="297" y="136.711">Reservas</text><line style="stroke:#181818;stroke-width:0.5;" x1="291" x2="367" y1="142.0128" y2="142.0128"/></g><!--link Usuario to Aplicacion--><g id="link_Usuario_Aplicacion"><path codeLine="5" d="M73.49,34.0759 C95.93,38.7059 126.2,44.1959 153.25,46.5659 C199.14,50.5959 245.7014,44.1865 281.2714,37.2365 " fill="none" id="Usuario-to-Aplicacion" style="stroke:#181818;stroke-width:1.0;"/><polygon fill="#181818" points="287.16,36.0859,277.56,33.886,282.2528,37.0447,279.0941,41.7376,287.16,36.0859" style="stroke:#181818;stroke-width:1.0;"/><text fill="#000000" font-family="sans-serif" font-size="13" lengthAdjust="spacing" textLength="52" x="154.25" y="42.6328">Acceder</text></g><!--link Usuario to Aplicacion--><g id="link_Usuario_Aplicacion"><path codeLine="6" d="M73.43,26.5659 C126.33,26.5659 223.22,26.5659 281.01,26.5659 " fill="none" id="Usuario-to-Aplicacion-1" style="stroke:#181818;stroke-width:1.0;"/><polygon fill="#181818" points="287.01,26.5659,278.01,22.5659,282.01,26.5659,278.01,30.5659,287.01,26.5659" style="stroke:#181818;stroke-width:1.0;"/><text fill="#000000" font-family="sans-serif" font-size="13" lengthAdjust="spacing" textLength="178" x="91.25" y="19.6328">Ver estados de las reservas</text></g><!--link Aplicacion to Reservas--><g id="link_Aplicacion_Reservas"><path codeLine="7" d="M329,44.9559 C329,65.7459 329,94.3359 329,115.2359 " fill="none" id="Aplicacion-to-Reservas" style="stroke:#181818;stroke-width:1.0;"/><polygon fill="#181818" points="329,121.2359,333,112.2359,329,116.2359,325,112.2359,329,121.2359" style="stroke:#181818;stroke-width:1.0;"/><text fill="#000000" font-family="sans-serif" font-size="13" lengthAdjust="spacing" textLength="61" x="330" y="87.7828">Visualizar</text></g><!--SRC=[NOsn3O1030Fxdo8Bi0054YiWGH_oAO9U12KF1TC3WXU8qlRPrd5Yoj3xYYOQz9RjaeIGHEVYTEni6te83mfLyy6WXfQ88zkR_u613TWpHdM830aThAn-mAjNtgwMd7j9ThG3]--></g></svg>