<?xml version="1.0" encoding="us-ascii" standalone="no"?><svg xmlns="http://www.w3.org/2000/svg" xmlns:xlink="http://www.w3.org/1999/xlink" contentStyleType="text/css" height="190px" preserveAspectRatio="none" style="width:303px;height:190px;background:#FFFFFF;" version="1.1" viewBox="0 0 303 190" width="303px" zoomAndPan="magnify"><defs/><g><ellipse cx="151.5" cy="20" fill="#222222" rx="10" ry="10" style="stroke:#222222;stroke-width:1.0;"/><rect fill="#F1F1F1" height="33.9688" rx="12.5" ry="12.5" style="stroke:#181818;stroke-width:0.5;" width="165" x="69" y="50"/><text fill="#000000" font-family="sans-serif" font-size="12" lengthAdjust="spacing" textLength="145" x="79" y="71.1387">Acceder a la aplicaci&#243;n</text><rect fill="#F1F1F1" height="33.9688" rx="12.5" ry="12.5" style="stroke:#181818;stroke-width:0.5;" width="281" x="11" y="103.9688"/><text fill="#000000" font-family="sans-serif" font-size="12" lengthAdjust="spacing" textLength="261" x="21" y="125.1074">Seleccionar "ver estados de las reservas"</text><ellipse cx="151.5" cy="168.9375" fill="none" rx="11" ry="11" style="stroke:#222222;stroke-width:1.0;"/><ellipse cx="151.5" cy="168.9375" fill="#222222" rx="6" ry="6" style="stroke:#222222;stroke-width:1.0;"/><line style="stroke:#181818;stroke-width:1.0;" x1="151.5" x2="151.5" y1="30" y2="50"/><polygon fill="#181818" points="147.5,40,151.5,50,155.5,40,151.5,44" style="stroke:#181818;stroke-width:1.0;"/><line style="stroke:#181818;stroke-width:1.0;" x1="151.5" x2="151.5" y1="83.9688" y2="103.9688"/><polygon fill="#181818" points="147.5,93.9688,151.5,103.9688,155.5,93.9688,151.5,97.9688" style="stroke:#181818;stroke-width:1.0;"/><line style="stroke:#181818;stroke-width:1.0;" x1="151.5" x2="151.5" y1="137.9375" y2="157.9375"/><polygon fill="#181818" points="147.5,147.9375,151.5,157.9375,155.5,147.9375,151.5,151.9375" style="stroke:#181818;stroke-width:1.0;"/><!--SRC=[3Sgn3S0W30J0dYciZ05LPiW4B_C54W9aMooM4R9OkFeyO97ohSfA4qY7OFMcqFQzewJyi5ErpG6JQvz33zJfKdcoYz5f6twLv37N3m00]--></g></svg>