<?xml version="1.0" standalone="no"?>
<!DOCTYPE svg PUBLIC "-//W3C//DTD SVG 20010904//EN"
 "http://www.w3.org/TR/2001/REC-SVG-20010904/DTD/svg10.dtd">
<svg version="1.0" xmlns="http://www.w3.org/2000/svg"
 width="808.000000pt" height="1327.000000pt" viewBox="0 0 808.000000 1327.000000"
 preserveAspectRatio="xMidYMid meet">

<g transform="translate(0.000000,1327.000000) scale(0.100000,-0.100000)"
fill="#000000" stroke="none">
<path d="M2709 13141 c-38 -38 -39 -87 -4 -129 22 -26 83 -53 69 -31 -3 5 -14
9 -24 9 -10 0 -28 12 -39 26 -67 86 43 191 125 120 37 -31 38 -84 4 -121 -13
-14 -31 -25 -39 -26 -10 0 -11 -3 -4 -5 36 -15 89 62 77 111 -9 38 -59 75
-101 75 -25 0 -43 -8 -64 -29z"/>
<path d="M2758 13109 c-27 -15 -24 -68 5 -78 24 -9 47 -4 47 11 0 5 -8 7 -19
3 -10 -3 -24 1 -31 10 -11 13 -11 19 3 32 13 13 19 14 31 3 13 -10 16 -10 16
3 0 8 -7 18 -16 21 -19 7 -15 8 -36 -5z"/>
<path d="M2917 13114 c-15 -15 -6 -34 18 -40 35 -9 34 -38 -1 -31 -16 3 -22 1
-16 -5 15 -15 46 -5 50 15 2 11 -6 20 -22 27 -27 10 -36 30 -13 30 7 0 19 -6
26 -12 11 -11 13 -10 9 2 -5 16 -39 25 -51 14z"/>
<path d="M3098 13110 c-5 -17 3 -80 11 -80 7 0 6 79 -2 86 -3 3 -7 0 -9 -6z"/>
<path d="M3400 13075 c0 -45 1 -46 28 -43 24 3 27 7 27 43 0 36 -3 40 -27 43
-27 3 -28 2 -28 -43z m45 0 c0 -20 -6 -31 -17 -33 -15 -3 -18 4 -18 33 0 29 3
36 18 33 11 -2 17 -13 17 -33z"/>
<path d="M3560 13075 c0 -25 5 -45 10 -45 6 0 10 9 10 20 0 26 15 25 34 -2 9
-12 16 -17 16 -11 0 7 -5 15 -10 18 -8 5 -7 11 1 21 18 22 3 44 -31 44 -29 0
-30 -2 -30 -45z m60 20 c0 -8 -9 -15 -20 -15 -11 0 -20 7 -20 15 0 8 9 15 20
15 11 0 20 -7 20 -15z"/>
<path d="M2993 13065 c0 -22 2 -30 4 -17 2 12 2 30 0 40 -3 9 -5 -1 -4 -23z"/>
<path d="M3030 13085 c0 -9 7 -18 15 -21 8 -4 15 -11 15 -16 0 -6 -7 -8 -15
-4 -8 3 -15 1 -15 -4 0 -14 27 -12 36 2 4 6 0 16 -9 23 -21 15 -22 29 -2 21 8
-3 15 -1 15 4 0 6 -9 10 -20 10 -11 0 -20 -7 -20 -15z"/>
<path d="M3147 13094 c-4 -4 -7 -18 -7 -31 0 -27 26 -41 43 -23 9 10 7 11 -10
5 -14 -4 -23 -2 -23 4 0 6 9 11 21 11 14 0 19 5 17 17 -3 19 -29 29 -41 17z
m28 -14 c3 -5 -1 -10 -9 -10 -9 0 -16 5 -16 10 0 6 4 10 9 10 6 0 13 -4 16
-10z"/>
<path d="M3211 13060 c1 -34 1 -34 8 -6 9 42 29 44 34 4 l4 -33 1 33 c1 17 6
32 11 32 6 0 12 -15 14 -32 l4 -33 1 37 c2 37 2 37 -38 35 -39 -1 -40 -2 -39
-37z"/>
<path d="M3326 13091 c-3 -5 3 -7 14 -4 11 3 20 0 20 -6 0 -6 -9 -11 -20 -11
-13 0 -20 -7 -20 -20 0 -15 6 -19 25 -18 22 2 26 7 23 33 -3 30 -30 47 -42 26z
m29 -41 c-3 -5 -10 -10 -16 -10 -5 0 -9 5 -9 10 0 6 7 10 16 10 8 0 12 -4 9
-10z"/>
<path d="M3497 13094 c-4 -4 -7 -18 -7 -31 0 -27 26 -41 43 -23 9 10 7 11 -10
5 -14 -4 -23 -2 -23 4 0 6 9 11 21 11 14 0 19 5 17 17 -3 19 -29 29 -41 17z
m28 -14 c3 -5 -1 -10 -9 -10 -9 0 -16 5 -16 10 0 6 4 10 9 10 6 0 13 -4 16
-10z"/>
<path d="M3667 13094 c-4 -4 -7 -18 -7 -31 0 -27 26 -41 43 -23 9 10 7 11 -10
5 -14 -4 -23 -2 -23 4 0 6 9 11 21 11 14 0 19 5 17 17 -3 19 -29 29 -41 17z
m28 -14 c3 -5 -1 -10 -9 -10 -9 0 -16 5 -16 10 0 6 4 10 9 10 6 0 13 -4 16
-10z"/>
<path d="M3735 13090 c-9 -14 1 -27 25 -33 11 -3 18 -1 14 4 -3 5 -12 9 -20 9
-20 0 -18 18 4 23 15 4 15 5 0 6 -9 0 -20 -3 -23 -9z"/>
<path d="M3807 13094 c-4 -4 -7 -18 -7 -31 0 -26 26 -41 42 -25 8 8 5 9 -11 5
-12 -3 -21 -1 -21 6 0 6 9 11 21 11 14 0 19 5 17 17 -3 19 -29 29 -41 17z m28
-14 c3 -5 -1 -10 -9 -10 -9 0 -16 5 -16 10 0 6 4 10 9 10 6 0 13 -4 16 -10z"/>
<path d="M3871 13063 c1 -28 3 -31 6 -13 3 14 10 31 15 38 8 9 6 12 -6 12 -12
0 -16 -9 -15 -37z"/>
<path d="M3923 13065 c6 -19 13 -35 17 -35 4 0 11 16 17 35 6 19 7 33 2 29 -5
-3 -9 -12 -9 -20 0 -8 -4 -14 -10 -14 -5 0 -10 6 -10 14 0 8 -4 17 -9 20 -5 4
-4 -10 2 -29z"/>
<path d="M3995 13091 c-3 -6 0 -8 8 -5 8 3 18 1 22 -5 3 -7 -2 -11 -14 -11
-14 0 -21 -6 -21 -20 0 -15 6 -19 25 -18 22 2 26 7 23 33 -3 30 -30 46 -43 26z
m30 -41 c-3 -5 -10 -10 -16 -10 -5 0 -9 5 -9 10 0 6 7 10 16 10 8 0 12 -4 9
-10z"/>
<path d="M4065 13090 c-9 -14 1 -27 25 -33 11 -3 18 -1 14 4 -3 5 -12 9 -20 9
-20 0 -18 18 4 23 15 4 15 5 0 6 -9 0 -20 -3 -23 -9z"/>
<path d="M3738 13038 c5 -5 16 -8 23 -6 8 3 3 7 -10 11 -17 4 -21 3 -13 -5z"/>
<path d="M4068 13038 c5 -5 16 -8 23 -6 8 3 3 7 -10 11 -17 4 -21 3 -13 -5z"/>
<path d="M3395 12205 c0 -330 1 -464 2 -297 2 167 2 437 0 600 -1 163 -2 27
-2 -303z"/>
<path d="M3417 12242 c6 -4 13 -23 16 -42 l4 -35 1 37 c2 25 7 38 20 41 9 3 1
5 -18 6 -19 0 -30 -3 -23 -7z"/>
<path d="M3482 12200 c0 -19 2 -27 5 -17 2 9 2 25 0 35 -3 9 -5 1 -5 -18z"/>
<path d="M3514 12215 c-13 -32 23 -63 40 -36 4 5 -3 7 -14 4 -11 -3 -20 -1
-20 5 0 6 10 13 23 15 21 4 21 4 -3 6 -23 2 -24 3 -5 11 18 8 18 9 2 9 -10 1
-20 -6 -23 -14z"/>
<path d="M3581 12198 c2 -30 2 -30 6 -6 2 15 12 29 21 31 12 3 10 5 -5 6 -20
1 -23 -4 -22 -31z"/>
<path d="M3657 12224 c-13 -13 -7 -24 14 -24 11 0 19 5 17 12 -5 14 -22 21
-31 12z"/>
<path d="M3660 12176 c7 -7 13 -7 20 0 6 6 3 10 -10 10 -13 0 -16 -4 -10 -10z"/>
<path d="M3091 11556 c-30 -16 -50 -52 -51 -88 0 -36 46 -86 85 -93 29 -5 29
-5 -4 8 -74 28 -93 97 -42 148 20 20 39 29 61 29 22 0 41 -9 61 -29 29 -30 39
-30 16 0 -29 38 -83 49 -126 25z"/>
<path d="M3109 11518 c0 -2 -1 -22 -2 -46 l-2 -42 38 0 c26 0 37 4 37 15 0 8
-6 12 -14 9 -9 -3 -13 1 -13 13 1 10 -4 17 -10 16 -7 -2 -13 2 -13 7 0 6 7 10
15 10 8 0 15 -4 15 -10 0 -5 5 -10 10 -10 6 0 10 9 10 20 0 16 -7 20 -35 20
-19 0 -35 -1 -36 -2z"/>
<path d="M3334 11478 c1 -39 3 -43 26 -43 23 0 25 4 26 45 l2 45 -7 -40 c-9
-57 -38 -61 -44 -6 l-4 41 1 -42z"/>
<path d="M3415 11490 c-8 -14 3 -30 21 -30 8 0 14 -5 14 -11 0 -7 -9 -9 -21
-6 -16 4 -19 3 -11 -5 12 -12 42 -4 42 13 0 6 -9 13 -20 16 -11 3 -20 10 -20
15 0 6 9 8 20 5 11 -3 18 -1 14 4 -7 12 -31 11 -39 -1z"/>
<path d="M3483 11468 c1 -26 7 -33 25 -34 19 -1 22 3 21 35 -1 35 -2 35 -8 7
-8 -40 -28 -44 -35 -7 l-6 31 3 -32z"/>
<path d="M3556 11491 c-3 -5 3 -7 14 -4 11 3 20 0 20 -6 0 -6 -9 -11 -20 -11
-13 0 -20 -7 -20 -20 0 -15 6 -19 25 -18 22 2 26 7 23 33 -3 30 -30 47 -42 26z
m29 -41 c-3 -5 -10 -10 -16 -10 -5 0 -9 5 -9 10 0 6 7 10 16 10 8 0 12 -4 9
-10z"/>
<path d="M3621 11463 c2 -35 2 -35 6 -8 3 16 10 33 16 37 8 5 6 8 -5 8 -14 0
-18 -8 -17 -37z"/>
<path d="M3663 11465 c0 -22 2 -30 4 -17 2 12 2 30 0 40 -3 9 -5 -1 -4 -23z"/>
<path d="M3695 11481 c-14 -44 24 -67 48 -29 8 12 7 21 -2 32 -18 21 -38 20
-46 -3z m38 -4 c3 -8 1 -20 -4 -28 -11 -19 -34 3 -26 25 8 20 23 21 30 3z"/>
<path d="M6495 11477 c-18 -15 -28 -36 -32 -64 -5 -37 -2 -45 25 -73 17 -16
39 -30 49 -30 11 0 5 7 -17 18 -57 28 -66 97 -18 142 44 40 127 13 142 -46 10
-39 -12 -84 -48 -100 -17 -7 -24 -13 -16 -14 24 0 56 27 70 59 37 90 -81 172
-155 108z"/>
<path d="M3230 11474 c-1 -28 -24 -65 -51 -80 -13 -7 -19 -13 -13 -14 35 -1
91 86 70 107 -3 4 -6 -2 -6 -13z"/>
<path d="M6529 11448 c0 -2 -1 -22 -2 -46 l-2 -42 38 0 c26 0 37 4 37 15 0 10
-7 14 -22 12 -13 -2 -17 -2 -10 0 6 3 12 11 12 20 0 9 -6 13 -15 9 -8 -3 -15
-1 -15 5 0 7 10 9 26 5 19 -5 25 -3 22 6 -4 11 -67 26 -69 16z"/>
<path d="M6751 11403 c1 -26 4 -38 6 -26 3 13 13 23 26 25 34 5 29 42 -5 46
-27 3 -28 2 -27 -45z m49 22 c0 -8 -9 -15 -20 -15 -11 0 -20 7 -20 15 0 8 9
15 20 15 11 0 20 -7 20 -15z"/>
<path d="M6836 11421 c-3 -5 3 -7 14 -4 11 3 20 0 20 -6 0 -6 -9 -11 -20 -11
-13 0 -20 -7 -20 -20 0 -15 6 -19 25 -18 22 2 26 7 23 33 -3 30 -30 47 -42 26z
m29 -41 c-3 -5 -10 -10 -16 -10 -5 0 -9 5 -9 10 0 6 7 10 16 10 8 0 12 -4 9
-10z"/>
<path d="M6904 11416 c-9 -25 1 -51 19 -50 24 2 21 -5 -5 -16 -23 -10 -23 -10
2 -7 22 2 25 7 28 45 3 37 1 42 -18 42 -11 0 -23 -6 -26 -14z m31 -21 c0 -10
-6 -20 -12 -22 -8 -3 -13 5 -13 22 0 17 5 25 13 23 6 -3 12 -13 12 -23z"/>
<path d="M6974 11416 c-10 -26 0 -51 21 -51 16 0 20 7 20 30 0 33 -30 49 -41
21z m36 -21 c0 -26 -14 -33 -25 -15 -9 14 1 40 15 40 5 0 10 -11 10 -25z"/>
<path d="M7045 11420 c-9 -14 1 -27 25 -33 11 -3 18 -1 14 4 -3 5 -12 9 -20 9
-20 0 -18 18 4 23 15 4 15 5 0 6 -9 0 -20 -3 -23 -9z"/>
<path d="M7048 11368 c5 -5 16 -8 23 -6 8 3 3 7 -10 11 -17 4 -21 3 -13 -5z"/>
<path d="M4990 11326 c0 -2 11 -6 25 -8 14 -3 25 -1 25 3 0 5 -11 9 -25 9 -14
0 -25 -2 -25 -4z"/>
<path d="M5203 11290 c0 -25 2 -35 4 -22 2 12 2 32 0 45 -2 12 -4 2 -4 -23z"/>
<path d="M5077 11304 c-13 -13 -7 -24 14 -24 11 0 19 5 17 12 -5 14 -22 21
-31 12z"/>
<path d="M5153 11304 c18 -6 18 -6 0 -20 -15 -12 -15 -13 -1 -8 10 3 18 -1 21
-13 3 -10 5 -5 4 12 -2 22 -7 30 -22 32 -17 2 -17 1 -2 -3z"/>
<path d="M5232 11280 c0 -19 2 -27 5 -17 2 9 2 25 0 35 -3 9 -5 1 -5 -18z"/>
<path d="M5268 11303 c6 -2 18 -2 25 0 6 3 1 5 -13 5 -14 0 -19 -2 -12 -5z"/>
<path d="M5334 11301 c18 -7 18 -8 3 -14 -24 -9 -21 -37 3 -37 16 0 20 7 20
30 0 25 -4 30 -22 29 -21 0 -21 -1 -4 -8z m16 -31 c0 -5 -4 -10 -10 -10 -5 0
-10 5 -10 10 0 6 5 10 10 10 6 0 10 -4 10 -10z"/>
<path d="M5010 11290 c-14 -4 -19 -8 -11 -9 8 -1 24 -9 35 -18 19 -16 19 -16
7 -1 -7 9 -10 22 -6 28 3 5 5 10 3 9 -2 -1 -14 -5 -28 -9z"/>
<path d="M2411 11239 c-1 -42 1 -46 22 -45 18 1 22 7 22 31 0 20 -5 30 -15 30
-8 0 -18 7 -22 15 -4 8 -7 -6 -7 -31z m39 -14 c0 -26 -14 -33 -25 -15 -9 14 1
40 15 40 5 0 10 -11 10 -25z"/>
<path d="M2780 11240 c0 -38 -12 -53 -23 -30 -3 6 -4 5 -3 -2 1 -7 10 -14 19
-16 14 -3 17 5 17 42 0 25 -2 46 -5 46 -3 0 -5 -18 -5 -40z"/>
<path d="M2980 11235 c0 -40 2 -45 23 -45 29 0 47 18 47 45 0 27 -18 45 -47
45 -21 0 -23 -5 -23 -45z m55 16 c8 -26 -4 -51 -26 -51 -15 0 -19 7 -19 35 0
28 4 35 19 35 11 0 22 -8 26 -19z"/>
<path d="M5080 11256 c7 -7 13 -7 20 0 6 6 3 10 -10 10 -13 0 -16 -4 -10 -10z"/>
<path d="M2152 11223 c1 -38 1 -38 5 -5 5 40 25 38 35 -4 6 -27 6 -27 5 6 -2
28 -6 36 -24 38 -21 3 -23 -1 -21 -35z"/>
<path d="M2234 11246 c-10 -26 0 -51 21 -51 16 0 20 7 20 30 0 33 -30 49 -41
21z m31 -21 c0 -10 -6 -20 -12 -22 -8 -3 -13 5 -13 22 0 17 5 25 13 23 6 -3
12 -13 12 -23z"/>
<path d="M2301 11220 c1 -34 1 -34 8 -6 9 42 29 44 34 4 l4 -33 1 33 c1 17 6
32 11 32 6 0 12 -15 14 -32 l4 -33 1 37 c2 37 2 37 -38 35 -39 -1 -40 -2 -39
-37z"/>
<path d="M2491 11223 c2 -35 2 -35 6 -8 3 16 10 33 16 37 8 5 6 8 -5 8 -14 0
-18 -8 -17 -37z"/>
<path d="M2547 11254 c-4 -4 -7 -18 -7 -31 0 -26 26 -41 42 -25 8 8 5 9 -11 5
-12 -3 -21 -1 -21 6 0 6 9 11 21 11 14 0 19 5 17 17 -3 19 -29 29 -41 17z m28
-14 c3 -5 -1 -10 -9 -10 -9 0 -16 5 -16 10 0 6 4 10 9 10 6 0 13 -4 16 -10z"/>
<path d="M2825 11241 c-14 -44 24 -67 48 -29 8 12 7 21 -2 32 -18 21 -38 20
-46 -3z m38 -4 c3 -8 1 -20 -4 -28 -11 -19 -34 3 -26 25 8 20 23 21 30 3z"/>
<path d="M2901 11223 c1 -36 2 -36 8 -9 9 42 29 44 34 4 l4 -33 1 38 c2 33 0
37 -23 37 -22 0 -25 -4 -24 -37z"/>
<path d="M3075 11241 c-14 -44 24 -67 48 -29 8 12 7 21 -2 32 -18 21 -38 20
-46 -3z m38 -4 c3 -8 1 -20 -4 -28 -11 -19 -34 3 -26 25 8 20 23 21 30 3z"/>
<path d="M3157 11254 c-4 -4 -7 -18 -7 -31 0 -27 26 -41 43 -24 9 9 8 11 -4 6
-10 -4 -20 -2 -24 4 -3 7 3 11 15 11 15 0 20 5 18 17 -3 19 -29 29 -41 17z
m33 -14 c0 -5 -7 -10 -16 -10 -8 0 -12 5 -9 10 3 6 10 10 16 10 5 0 9 -4 9
-10z"/>
<path d="M5263 11253 c9 -2 23 -2 30 0 6 3 -1 5 -18 5 -16 0 -22 -2 -12 -5z"/>
<path d="M5890 11172 c0 -22 3 -43 8 -45 8 -6 7 71 -2 80 -3 4 -6 -12 -6 -35z"/>
<path d="M6050 11200 c0 -5 -6 -10 -14 -10 -21 0 -29 -17 -22 -46 4 -15 14
-24 26 -24 17 0 20 7 20 45 0 25 -2 45 -5 45 -3 0 -5 -4 -5 -10z m0 -45 c0
-26 -14 -33 -25 -15 -9 14 1 40 15 40 5 0 10 -11 10 -25z"/>
<path d="M6170 11165 c0 -40 2 -45 23 -45 29 0 47 18 47 45 0 27 -18 45 -47
45 -21 0 -23 -5 -23 -45z m55 16 c8 -26 -4 -51 -26 -51 -15 0 -19 7 -19 35 0
28 4 35 19 35 11 0 22 -8 26 -19z"/>
<path d="M6341 11163 c1 -27 4 -38 6 -26 3 13 13 23 26 25 14 2 23 11 25 26 3
19 -1 22 -27 22 -30 0 -31 -1 -30 -47z m49 22 c0 -8 -9 -15 -20 -15 -11 0 -20
7 -20 15 0 8 9 15 20 15 11 0 20 -7 20 -15z"/>
<path d="M6808 11203 c7 -2 12 -22 12 -44 0 -21 5 -39 10 -39 6 0 10 18 10 39
0 22 5 42 13 44 6 3 -4 5 -23 5 -19 0 -29 -2 -22 -5z"/>
<path d="M7120 11172 c0 -22 3 -43 8 -45 8 -6 7 71 -2 80 -3 4 -6 -12 -6 -35z"/>
<path d="M7322 11203 c-1 -7 -8 -13 -16 -13 -18 0 -29 -31 -20 -54 8 -20 33
-21 40 -2 3 8 4 29 1 48 -2 18 -5 27 -5 21z m-2 -48 c0 -26 -14 -33 -25 -15
-9 14 1 40 15 40 5 0 10 -11 10 -25z"/>
<path d="M7490 11189 c-17 -31 2 -72 32 -67 12 2 23 9 24 16 1 7 0 8 -3 2 -8
-16 -40 -12 -47 6 -10 25 3 54 24 54 10 0 21 -5 23 -10 3 -6 4 -5 3 2 -5 23
-44 21 -56 -3z"/>
<path d="M7742 11203 c-1 -7 -8 -13 -16 -13 -18 0 -29 -31 -20 -54 8 -20 33
-21 40 -2 3 8 4 29 1 48 -2 18 -5 27 -5 21z m-2 -48 c0 -26 -14 -33 -25 -15
-9 14 1 40 15 40 5 0 10 -11 10 -25z"/>
<path d="M7818 11200 c-5 -17 3 -80 11 -80 7 0 6 79 -2 86 -3 3 -7 0 -9 -6z"/>
<path d="M4940 11193 c316 -7 590 -7 590 0 0 4 -161 6 -357 5 -197 -1 -302 -4
-233 -5z"/>
<path d="M5701 11151 l1 -36 9 33 c5 17 14 32 19 32 6 0 11 -15 11 -32 l1 -33
7 30 c8 38 24 38 33 -1 6 -28 6 -27 5 6 -2 34 -3 35 -44 36 -43 1 -43 1 -42
-35z"/>
<path d="M5815 11171 c-8 -26 4 -51 26 -51 10 0 19 4 19 10 0 5 -6 7 -14 4 -8
-3 -17 -1 -21 5 -4 7 4 11 20 11 23 0 24 2 15 20 -13 25 -37 26 -45 1z m35 -1
c0 -5 -7 -10 -16 -10 -8 0 -12 5 -9 10 3 6 10 10 16 10 5 0 9 -4 9 -10z"/>
<path d="M5944 11176 c-10 -26 0 -51 21 -51 16 0 20 7 20 30 0 33 -30 49 -41
21z m31 -21 c0 -10 -6 -20 -12 -22 -8 -3 -13 5 -13 22 0 17 5 25 13 23 6 -3
12 -13 12 -23z"/>
<path d="M6094 11176 c-10 -26 0 -51 21 -51 16 0 20 7 20 30 0 33 -30 49 -41
21z m31 -21 c0 -10 -6 -20 -12 -22 -8 -3 -13 5 -13 22 0 17 5 25 13 23 6 -3
12 -13 12 -23z"/>
<path d="M6265 11171 c-8 -26 4 -51 26 -51 10 0 19 4 19 10 0 5 -6 7 -14 4 -8
-3 -17 -1 -21 5 -4 7 4 11 20 11 23 0 24 2 15 20 -13 25 -37 26 -45 1z m35 -1
c0 -5 -7 -10 -16 -10 -8 0 -12 5 -9 10 3 6 10 10 16 10 5 0 9 -4 9 -10z"/>
<path d="M6436 11181 c-3 -5 3 -7 14 -4 11 3 20 0 20 -6 0 -6 -9 -11 -20 -11
-13 0 -20 -7 -20 -20 0 -15 6 -19 25 -18 22 2 26 7 23 33 -3 30 -30 47 -42 26z
m29 -41 c-3 -5 -10 -10 -16 -10 -5 0 -9 5 -9 10 0 6 7 10 16 10 8 0 12 -4 9
-10z"/>
<path d="M6511 11171 c-12 -22 9 -58 27 -47 7 4 12 5 12 1 0 -3 -10 -10 -22
-15 -23 -9 -23 -9 -2 -9 24 -1 34 16 34 60 0 22 -5 29 -20 29 -10 0 -24 -8
-29 -19z m34 -16 c0 -10 -6 -20 -12 -22 -8 -3 -13 5 -13 22 0 17 5 25 13 23 6
-3 12 -13 12 -23z"/>
<path d="M6585 11171 c-14 -44 24 -67 48 -29 8 12 7 21 -2 32 -18 21 -38 20
-46 -3z m38 -4 c3 -8 1 -20 -4 -28 -11 -19 -34 3 -26 25 8 20 23 21 30 3z"/>
<path d="M6881 11153 c2 -35 2 -35 6 -8 3 16 10 33 16 37 8 5 6 8 -5 8 -14 0
-18 -8 -17 -37z"/>
<path d="M6936 11181 c-3 -5 3 -7 14 -4 11 3 20 0 20 -6 0 -6 -9 -11 -20 -11
-13 0 -20 -7 -20 -20 0 -15 6 -19 25 -18 22 2 26 7 23 33 -3 30 -30 47 -42 26z
m29 -41 c-3 -5 -10 -10 -16 -10 -5 0 -9 5 -9 10 0 6 7 10 16 10 8 0 12 -4 9
-10z"/>
<path d="M7012 11153 c-1 -23 -8 -44 -14 -46 -10 -4 -10 -6 0 -6 17 -1 24 20
19 61 -3 30 -4 30 -5 -9z"/>
<path d="M7045 11171 c-8 -26 4 -51 26 -51 10 0 19 4 19 10 0 5 -6 7 -14 4 -8
-3 -17 -1 -21 5 -4 7 4 11 20 11 23 0 24 2 15 20 -13 25 -37 26 -45 1z m35 -1
c0 -5 -7 -10 -16 -10 -8 0 -12 5 -9 10 3 6 10 10 16 10 5 0 9 -4 9 -10z"/>
<path d="M7164 11179 c-4 -8 0 -9 15 -4 11 3 21 2 21 -3 0 -5 -9 -12 -21 -15
-26 -7 -20 -31 9 -35 19 -3 22 1 22 32 0 29 -4 36 -19 36 -11 0 -23 -5 -27
-11z m36 -39 c0 -5 -7 -10 -15 -10 -8 0 -15 5 -15 10 0 6 7 10 15 10 8 0 15
-4 15 -10z"/>
<path d="M7367 11184 c-4 -4 -7 -18 -7 -31 0 -27 26 -41 43 -24 9 9 8 11 -4 6
-10 -4 -20 -2 -24 4 -3 7 3 11 15 11 15 0 20 5 18 17 -3 19 -29 29 -41 17z
m33 -14 c0 -5 -7 -10 -16 -10 -8 0 -12 5 -9 10 3 6 10 10 16 10 5 0 9 -4 9
-10z"/>
<path d="M7581 11153 c2 -35 2 -35 6 -8 3 16 10 33 16 37 8 5 6 8 -5 8 -14 0
-18 -8 -17 -37z"/>
<path d="M7637 11184 c-4 -4 -7 -18 -7 -31 0 -26 26 -41 42 -25 8 8 5 9 -11 5
-12 -3 -21 -1 -21 6 0 6 9 11 21 11 14 0 19 5 17 17 -3 19 -29 29 -41 17z m28
-14 c3 -5 -1 -10 -9 -10 -9 0 -16 5 -16 10 0 6 4 10 9 10 6 0 13 -4 16 -10z"/>
<path d="M7783 11155 c0 -22 2 -30 4 -17 2 12 2 30 0 40 -3 9 -5 -1 -4 -23z"/>
<path d="M7864 11176 c-10 -26 0 -51 21 -51 16 0 20 7 20 30 0 33 -30 49 -41
21z m36 -21 c0 -26 -14 -33 -25 -15 -9 14 1 40 15 40 5 0 10 -11 10 -25z"/>
<path d="M2443 11095 c0 -27 2 -38 4 -22 2 15 2 37 0 50 -2 12 -4 0 -4 -28z"/>
<path d="M2642 11103 c-2 -41 -15 -57 -25 -30 -4 9 -6 9 -6 0 -1 -17 19 -27
31 -15 5 5 8 27 5 48 l-4 39 -1 -42z"/>
<path d="M2870 11095 c0 -46 0 -46 33 -43 30 3 32 5 32 43 0 38 -2 40 -32 43
-33 3 -33 3 -33 -43z m55 0 c0 -20 -6 -31 -17 -33 -15 -3 -18 4 -18 33 0 29 3
36 18 33 11 -2 17 -13 17 -33z"/>
<path d="M3136 11124 c-23 -22 -21 -81 3 -94 29 -15 57 -12 72 8 11 14 11 15
-1 5 -18 -16 -52 -17 -68 -1 -17 17 -15 63 3 78 24 20 65 4 65 -25 0 -13 -5
-27 -11 -31 -8 -5 -10 1 -7 18 4 22 1 25 -21 24 -21 -1 -26 -6 -26 -26 0 -20
5 -25 25 -26 32 -2 50 13 50 40 0 44 -52 62 -84 30z m44 -38 c0 -16 -18 -31
-27 -22 -8 8 5 36 17 36 5 0 10 -6 10 -14z"/>
<path d="M3323 11095 c0 -27 2 -38 4 -22 2 15 2 37 0 50 -2 12 -4 0 -4 -28z"/>
<path d="M4028 11130 c-5 -17 3 -80 11 -80 7 0 6 79 -2 86 -3 3 -7 0 -9 -6z"/>
<path d="M4143 11095 c0 -27 2 -38 4 -22 2 15 2 37 0 50 -2 12 -4 0 -4 -28z"/>
<path d="M4328 11130 c-5 -17 3 -80 11 -80 7 0 6 79 -2 86 -3 3 -7 0 -9 -6z"/>
<path d="M2157 11114 c-4 -4 -7 -18 -7 -31 0 -26 26 -41 42 -25 8 8 5 9 -11 5
-12 -3 -21 -1 -21 6 0 6 9 11 21 11 14 0 19 5 17 17 -3 19 -29 29 -41 17z m28
-14 c3 -5 -1 -10 -9 -10 -9 0 -16 5 -16 10 0 6 4 10 9 10 6 0 13 -4 16 -10z"/>
<path d="M2221 11081 l1 -36 9 33 c5 17 14 32 19 32 6 0 11 -15 11 -32 l1 -33
7 30 c8 38 24 38 33 -1 6 -28 6 -27 5 6 -2 34 -3 35 -44 36 -43 1 -43 1 -42
-35z"/>
<path d="M2336 11111 c-4 -5 3 -7 14 -4 11 3 20 1 20 -5 0 -5 -9 -12 -21 -15
-22 -6 -22 -29 -1 -33 7 -1 8 0 2 3 -15 7 -12 23 4 23 8 0 17 -8 19 -17 3 -10
5 -1 6 20 1 30 -2 37 -18 37 -11 0 -22 -4 -25 -9z"/>
<path d="M2413 11085 c0 -22 2 -30 4 -17 2 12 2 30 0 40 -3 9 -5 -1 -4 -23z"/>
<path d="M2684 11106 c-10 -26 0 -51 21 -51 16 0 20 7 20 30 0 33 -30 49 -41
21z m31 -21 c0 -10 -6 -20 -12 -22 -8 -3 -13 5 -13 22 0 17 5 25 13 23 6 -3
12 -13 12 -23z"/>
<path d="M2751 11083 l1 -38 9 33 c5 17 14 32 19 32 5 0 11 -15 13 -32 4 -32
4 -32 5 5 2 33 0 37 -23 37 -22 0 -25 -4 -24 -37z"/>
<path d="M2974 11106 c-10 -26 0 -51 21 -51 16 0 20 7 20 30 0 33 -30 49 -41
21z m31 -21 c0 -10 -6 -20 -12 -22 -8 -3 -13 5 -13 22 0 17 5 25 13 23 6 -3
12 -13 12 -23z"/>
<path d="M3047 11114 c-4 -4 -7 -18 -7 -31 0 -27 26 -41 43 -24 9 9 8 11 -4 6
-10 -4 -20 -2 -24 4 -3 7 3 11 15 11 15 0 20 5 18 17 -3 19 -29 29 -41 17z
m33 -14 c0 -5 -7 -10 -16 -10 -8 0 -12 5 -9 10 3 6 10 10 16 10 5 0 9 -4 9
-10z"/>
<path d="M3255 11111 c-3 -6 0 -8 8 -5 8 3 18 1 22 -5 3 -7 -2 -11 -14 -11
-14 0 -21 -6 -21 -20 0 -15 6 -19 25 -18 22 2 26 7 23 33 -3 30 -30 46 -43 26z
m30 -41 c-3 -5 -10 -10 -16 -10 -5 0 -9 5 -9 10 0 6 7 10 16 10 8 0 12 -4 9
-10z"/>
<path d="M3362 11088 c-2 -35 0 -38 23 -36 22 2 25 7 24 38 l-1 35 -9 -32 c-5
-18 -14 -33 -19 -33 -5 0 -11 15 -13 33 -4 32 -4 32 -5 -5z"/>
<path d="M3431 11080 c1 -34 1 -34 8 -6 9 42 29 44 34 4 l4 -33 1 33 c1 17 6
32 11 32 6 0 12 -15 14 -32 l4 -33 1 37 c2 37 2 37 -38 35 -39 -1 -40 -2 -39
-37z"/>
<path d="M3541 11083 c1 -36 2 -36 8 -9 9 42 29 44 34 4 l4 -33 1 38 c2 33 0
37 -23 37 -22 0 -25 -4 -24 -37z"/>
<path d="M3624 11106 c-10 -26 0 -51 21 -51 16 0 20 7 20 30 0 33 -30 49 -41
21z m31 -21 c0 -10 -6 -20 -12 -22 -8 -3 -13 5 -13 22 0 17 5 25 13 23 6 -3
12 -13 12 -23z"/>
<path d="M3695 11110 c-9 -14 1 -27 25 -33 11 -3 18 -1 14 4 -3 5 -12 9 -20 9
-20 0 -18 18 4 23 15 4 15 5 0 6 -9 0 -20 -3 -23 -9z"/>
<path d="M3803 11091 c1 -21 8 -36 17 -39 12 -4 13 -2 3 9 -6 8 -13 25 -16 39
-4 17 -5 15 -4 -9z"/>
<path d="M3843 11085 c0 -22 2 -30 4 -17 2 12 2 30 0 40 -3 9 -5 -1 -4 -23z"/>
<path d="M3882 11083 c1 -38 1 -38 5 -5 5 40 25 38 35 -4 6 -27 6 -27 5 6 -2
28 -6 36 -24 38 -21 3 -23 -1 -21 -35z"/>
<path d="M3957 11114 c-4 -4 -7 -18 -7 -31 0 -27 26 -41 43 -24 9 9 8 11 -4 6
-10 -4 -20 -2 -24 4 -3 7 3 11 15 11 15 0 20 5 18 17 -3 19 -29 29 -41 17z
m33 -14 c0 -5 -7 -10 -16 -10 -8 0 -12 5 -9 10 3 6 10 10 16 10 5 0 9 -4 9
-10z"/>
<path d="M4076 11111 c-3 -5 3 -7 14 -4 11 3 20 0 20 -6 0 -6 -9 -11 -20 -11
-13 0 -20 -7 -20 -20 0 -15 6 -19 25 -18 22 2 26 7 23 33 -3 30 -30 47 -42 26z
m29 -41 c-3 -5 -10 -10 -16 -10 -5 0 -9 5 -9 10 0 6 7 10 16 10 8 0 12 -4 9
-10z"/>
<path d="M4186 11111 c-3 -5 3 -7 14 -4 11 3 20 0 20 -6 0 -6 -9 -11 -20 -11
-13 0 -20 -7 -20 -20 0 -15 6 -19 25 -18 22 2 26 7 23 33 -3 30 -30 47 -42 26z
m29 -41 c-3 -5 -10 -10 -16 -10 -5 0 -9 5 -9 10 0 6 7 10 16 10 8 0 12 -4 9
-10z"/>
<path d="M4251 11083 l1 -38 9 33 c5 17 14 32 19 32 5 0 11 -15 13 -32 4 -32
4 -32 5 5 2 33 0 37 -23 37 -22 0 -25 -4 -24 -37z"/>
<path d="M4373 11085 c0 -22 2 -30 4 -17 2 12 2 30 0 40 -3 9 -5 -1 -4 -23z"/>
<path d="M4417 11113 c-4 -3 -7 -17 -7 -30 0 -27 26 -41 43 -23 9 10 7 11 -10
5 -20 -5 -23 -3 -23 20 0 20 4 26 15 21 8 -3 15 -1 15 4 0 11 -23 13 -33 3z"/>
<path d="M4475 11101 c-14 -44 24 -67 48 -29 8 12 7 21 -2 32 -18 21 -38 20
-46 -3z m38 -4 c3 -8 1 -20 -4 -28 -11 -19 -34 3 -26 25 8 20 23 21 30 3z"/>
<path d="M4597 11114 c-4 -4 -7 -18 -7 -31 0 -27 26 -41 43 -24 9 9 8 11 -4 6
-10 -4 -20 -2 -24 4 -3 7 3 11 15 11 15 0 20 5 18 17 -3 19 -29 29 -41 17z
m33 -14 c0 -5 -7 -10 -16 -10 -8 0 -12 5 -9 10 3 6 10 10 16 10 5 0 9 -4 9
-10z"/>
<path d="M4670 11100 c0 -11 7 -20 15 -20 8 0 15 -5 15 -11 0 -6 -9 -9 -20 -6
-11 3 -18 1 -14 -4 7 -13 31 -11 40 3 4 6 0 16 -9 23 -21 15 -22 29 -1 21 8
-3 12 -2 9 4 -11 18 -35 11 -35 -10z"/>
<path d="M3698 11058 c5 -5 16 -8 23 -6 8 3 3 7 -10 11 -17 4 -21 3 -13 -5z"/>
<path d="M5978 11060 c-5 -17 3 -80 11 -80 7 0 6 79 -2 86 -3 3 -7 0 -9 -6z"/>
<path d="M6263 11055 c-3 -9 -3 -19 1 -22 3 -3 1 -12 -4 -18 -13 -16 14 -40
35 -31 18 6 20 36 3 36 -9 0 -9 3 -1 11 14 14 6 39 -13 39 -8 0 -17 -7 -21
-15z m27 -10 c0 -8 -4 -15 -10 -15 -5 0 -10 7 -10 15 0 8 5 15 10 15 6 0 10
-7 10 -15z m2 -40 c0 -5 -5 -11 -11 -13 -6 -2 -11 4 -11 13 0 9 5 15 11 13 6
-2 11 -8 11 -13z"/>
<path d="M6340 11050 c-10 -18 -8 -20 22 -19 31 1 31 1 8 9 l-25 7 25 11 c24
10 24 11 3 11 -13 1 -27 -8 -33 -19z"/>
<path d="M5701 11011 l1 -36 9 33 c5 17 14 32 19 32 6 0 11 -15 11 -32 l1 -33
7 30 c8 38 24 38 33 -1 6 -28 6 -27 5 6 -2 34 -3 35 -44 36 -43 1 -43 1 -42
-35z"/>
<path d="M5824 11036 c-10 -26 0 -51 21 -51 16 0 20 7 20 30 0 33 -30 49 -41
21z m31 -21 c0 -10 -6 -20 -12 -22 -8 -3 -13 5 -13 22 0 17 5 25 13 23 6 -3
12 -13 12 -23z"/>
<path d="M5902 11013 c1 -38 1 -38 5 -5 5 40 25 38 35 -4 6 -27 6 -27 5 6 -2
28 -6 36 -24 38 -21 3 -23 -1 -21 -35z"/>
<path d="M6034 11036 c-10 -26 0 -51 21 -51 16 0 20 7 20 30 0 33 -30 49 -41
21z m31 -21 c0 -10 -6 -20 -12 -22 -8 -3 -13 5 -13 22 0 17 5 25 13 23 6 -3
12 -13 12 -23z"/>
<path d="M6340 11000 c6 -11 20 -20 33 -19 21 0 21 1 -3 11 -24 10 -24 10 -5
18 17 8 16 9 -8 9 -25 1 -27 -1 -17 -19z"/>
<path d="M2148 10990 c-5 -17 3 -80 11 -80 7 0 6 79 -2 86 -3 3 -7 0 -9 -6z"/>
<path d="M2273 10955 c0 -27 2 -38 4 -22 2 15 2 37 0 50 -2 12 -4 0 -4 -28z"/>
<path d="M2388 10988 c-2 -7 -1 -29 3 -48 l6 -35 2 33 c0 17 1 35 0 38 0 4 5
11 13 15 10 7 9 9 -3 9 -9 0 -19 -6 -21 -12z"/>
<path d="M2846 10991 c-3 -5 3 -7 14 -4 22 6 29 -22 8 -30 -10 -4 -10 -6 0 -6
6 -1 12 -8 12 -17 0 -12 -6 -15 -21 -11 -16 4 -19 3 -11 -5 21 -21 41 -1 39
39 -2 37 -27 58 -41 34z"/>
<path d="M2941 10981 c-8 -14 -8 -21 -2 -17 6 4 11 0 11 -9 0 -11 -5 -15 -15
-11 -8 3 -15 1 -15 -4 0 -6 6 -10 14 -10 8 0 16 -5 18 -12 8 -23 14 16 8 52
-6 35 -6 35 -19 11z"/>
<path d="M3059 10983 c-8 -10 -9 -14 -2 -10 8 5 13 -5 16 -30 3 -35 4 -34 5
10 2 52 1 55 -19 30z"/>
<path d="M3120 10990 c0 -5 6 -7 14 -4 24 9 29 -17 7 -40 -28 -29 -27 -36 7
-35 24 2 25 2 4 6 l-24 5 22 23 c13 14 20 31 17 39 -7 17 -47 22 -47 6z"/>
<path d="M3200 10991 c0 -6 7 -8 17 -4 13 5 15 2 11 -15 -3 -11 -1 -23 5 -25
6 -2 7 -9 3 -16 -5 -7 -14 -10 -22 -7 -8 3 -14 1 -14 -4 0 -15 40 -12 45 3 8
21 -11 72 -28 75 -9 2 -17 -1 -17 -7z"/>
<path d="M3293 10973 c-28 -38 -28 -43 -4 -43 11 0 21 -5 23 -12 8 -23 14 16
8 52 l-5 35 -22 -32z m17 -18 c0 -8 -7 -15 -16 -15 -14 0 -14 3 -4 15 7 8 14
15 16 15 2 0 4 -7 4 -15z"/>
<path d="M3360 10991 c0 -5 -3 -16 -6 -24 -4 -12 0 -14 15 -10 17 4 21 1 21
-17 0 -18 -4 -21 -21 -17 -16 4 -19 3 -11 -5 16 -16 42 -2 42 22 0 11 -7 23
-15 26 -20 8 -19 21 3 27 13 4 11 5 -5 6 -13 0 -23 -3 -23 -8z"/>
<path d="M3434 10986 c-3 -8 -4 -27 -2 -43 2 -20 8 -28 23 -28 29 0 34 45 6
52 -12 3 -21 10 -21 15 0 6 9 8 20 5 11 -3 18 -1 14 4 -8 14 -34 11 -40 -5z
m34 -43 c-5 -25 -28 -28 -28 -4 0 12 6 21 16 21 9 0 14 -7 12 -17z"/>
<path d="M3523 10993 c12 -3 16 -10 13 -20 -3 -8 -8 -27 -11 -41 -4 -23 -3
-22 7 5 7 17 16 35 21 39 14 15 6 24 -20 23 -19 -1 -22 -3 -10 -6z"/>
<path d="M3593 10985 c-3 -9 -3 -19 1 -22 3 -3 1 -12 -4 -18 -13 -16 14 -40
35 -31 18 6 20 36 3 36 -9 0 -9 3 -1 11 14 14 6 39 -13 39 -8 0 -17 -7 -21
-15z m27 -10 c0 -8 -4 -15 -10 -15 -5 0 -10 7 -10 15 0 8 5 15 10 15 6 0 10
-7 10 -15z m2 -40 c0 -5 -5 -11 -11 -13 -6 -2 -11 4 -11 13 0 9 5 15 11 13 6
-2 11 -8 11 -13z"/>
<path d="M3667 10993 c-14 -14 -6 -45 13 -50 11 -3 20 -10 20 -15 0 -6 -9 -8
-20 -5 -11 3 -18 1 -14 -4 21 -34 63 25 44 62 -11 19 -31 25 -43 12z m33 -23
c0 -11 -4 -20 -9 -20 -14 0 -23 18 -16 30 10 17 25 11 25 -10z"/>
<path d="M2195 10961 c-8 -26 4 -51 26 -51 10 0 19 4 19 10 0 5 -6 7 -14 4 -8
-3 -17 -1 -21 5 -4 7 4 11 20 11 23 0 24 2 15 20 -13 25 -37 26 -45 1z m35 -1
c0 -5 -7 -10 -16 -10 -8 0 -12 5 -9 10 3 6 10 10 16 10 5 0 9 -4 9 -10z"/>
<path d="M2317 10974 c-4 -4 -7 -18 -7 -31 0 -26 26 -41 42 -25 8 8 5 9 -11 5
-12 -3 -21 -1 -21 6 0 6 9 11 21 11 14 0 19 5 17 17 -3 19 -29 29 -41 17z m28
-14 c3 -5 -1 -10 -9 -10 -9 0 -16 5 -16 10 0 6 4 10 9 10 6 0 13 -4 16 -10z"/>
<path d="M2434 10966 c-10 -26 0 -51 21 -51 16 0 20 7 20 30 0 33 -30 49 -41
21z m36 -21 c0 -26 -14 -33 -25 -15 -9 14 1 40 15 40 5 0 10 -11 10 -25z"/>
<path d="M2512 10943 c1 -38 1 -38 5 -5 5 40 25 38 35 -4 6 -27 6 -27 5 6 -2
28 -6 36 -24 38 -21 3 -23 -1 -21 -35z"/>
<path d="M2594 10966 c-10 -26 0 -51 21 -51 16 0 20 7 20 30 0 33 -30 49 -41
21z m31 -21 c0 -10 -6 -20 -12 -22 -8 -3 -13 5 -13 22 0 17 5 25 13 23 6 -3
12 -13 12 -23z"/>
<path d="M2774 10966 c-8 -9 -7 -15 3 -24 8 -8 13 -9 13 -2 0 5 8 10 18 11 13
0 14 2 2 6 -8 3 -17 9 -20 13 -3 4 -10 2 -16 -4z"/>
<path d="M6616 10825 c-9 -26 -7 -32 5 -12 6 10 9 21 6 23 -2 3 -7 -2 -11 -11z"/>
<path d="M3395 10185 c0 -330 1 -464 2 -297 2 167 2 437 0 600 -1 163 -2 27
-2 -303z"/>
<path d="M3936 10772 c26 -24 134 -103 134 -98 0 6 -128 106 -137 106 -4 0 -3
-4 3 -8z"/>
<path d="M6586 10755 c-9 -26 -7 -32 5 -12 6 10 9 21 6 23 -2 3 -7 -2 -11 -11z"/>
<path d="M6556 10685 c-9 -26 -7 -32 5 -12 6 10 9 21 6 23 -2 3 -7 -2 -11 -11z"/>
<path d="M4080 10666 c0 -2 8 -10 18 -17 15 -13 16 -12 3 4 -13 16 -21 21 -21
13z"/>
<path d="M4120 10636 c0 -2 8 -10 18 -17 15 -13 16 -12 3 4 -13 16 -21 21 -21
13z"/>
<path d="M6526 10615 c-9 -26 -7 -32 5 -12 6 10 9 21 6 23 -2 3 -7 -2 -11 -11z"/>
<path d="M4160 10606 c0 -2 8 -10 18 -17 15 -13 16 -12 3 4 -13 16 -21 21 -21
13z"/>
<path d="M4200 10575 c0 -2 63 -52 140 -110 77 -58 140 -103 140 -101 0 3 -37
33 -82 68 -133 101 -198 148 -198 143z"/>
<path d="M6502 10555 c-17 -37 -14 -45 4 -12 9 16 14 31 11 33 -2 2 -9 -7 -15
-21z"/>
<path d="M6472 10485 c-17 -37 -14 -45 4 -12 9 16 14 31 11 33 -2 2 -9 -7 -15
-21z"/>
<path d="M6446 10425 c-9 -26 -7 -32 5 -12 6 10 9 21 6 23 -2 3 -7 -2 -11 -11z"/>
<path d="M6416 10355 c-9 -26 -7 -32 5 -12 6 10 9 21 6 23 -2 3 -7 -2 -11 -11z"/>
<path d="M4490 10356 c0 -2 8 -10 18 -17 15 -13 16 -12 3 4 -13 16 -21 21 -21
13z"/>
<path d="M4530 10326 c0 -2 8 -10 18 -17 15 -13 16 -12 3 4 -13 16 -21 21 -21
13z"/>
<path d="M4570 10296 c0 -2 8 -10 18 -17 15 -13 16 -12 3 4 -13 16 -21 21 -21
13z"/>
<path d="M6386 10285 c-9 -26 -7 -32 5 -12 6 10 9 21 6 23 -2 3 -7 -2 -11 -11z"/>
<path d="M4610 10266 c0 -3 63 -53 140 -111 77 -58 140 -103 140 -101 0 3 -63
53 -140 111 -77 58 -140 103 -140 101z"/>
<path d="M6356 10215 c-9 -26 -7 -32 5 -12 6 10 9 21 6 23 -2 3 -7 -2 -11 -11z"/>
<path d="M3413 10180 c0 -25 2 -35 4 -22 3 13 12 22 23 22 11 0 20 -9 23 -22
2 -13 4 -3 4 22 1 25 -1 37 -4 28 -2 -10 -13 -18 -23 -18 -10 0 -21 8 -23 18
-3 9 -5 -3 -4 -28z"/>
<path d="M4832 10208 c-27 -27 -5 -69 34 -66 15 2 21 10 22 32 3 40 -30 60
-56 34z m46 -24 c3 -22 -21 -39 -39 -28 -11 6 -12 38 -2 48 13 13 38 1 41 -20z"/>
<path d="M5253 10180 c0 -25 2 -35 4 -22 2 12 2 32 0 45 -2 12 -4 2 -4 -23z"/>
<path d="M6410 10216 c0 -2 9 -6 20 -9 11 -3 18 -1 14 4 -5 9 -34 13 -34 5z"/>
<path d="M3514 10191 c18 -7 18 -8 3 -14 -24 -9 -21 -37 3 -37 16 0 20 7 20
30 0 25 -4 30 -22 29 -21 0 -21 -1 -4 -8z m16 -31 c0 -5 -4 -10 -10 -10 -5 0
-10 5 -10 10 0 6 5 10 10 10 6 0 10 -4 10 -10z"/>
<path d="M3564 10185 c-9 -23 3 -45 23 -44 17 1 17 2 1 6 -10 2 -18 13 -18 23
0 10 8 21 18 23 16 4 16 5 -1 6 -10 0 -20 -6 -23 -14z"/>
<path d="M3624 10186 c-12 -33 23 -65 40 -37 4 5 -3 7 -14 4 -11 -3 -20 0 -20
6 0 6 9 11 21 11 12 0 19 5 17 13 -7 18 -37 21 -44 3z m33 -2 c-3 -3 -12 -4
-19 -1 -8 3 -5 6 6 6 11 1 17 -2 13 -5z"/>
<path d="M4921 10173 c-1 -27 3 -33 19 -33 16 0 20 6 19 33 -2 30 -2 30 -6 5
-2 -16 -8 -28 -13 -28 -5 0 -11 12 -13 28 -4 25 -4 25 -6 -5z"/>
<path d="M4984 10186 c-12 -33 23 -65 40 -37 4 5 -3 7 -14 4 -11 -3 -20 0 -20
6 0 6 9 11 21 11 12 0 19 5 17 13 -7 18 -37 21 -44 3z m33 -2 c-3 -3 -12 -4
-19 -1 -8 3 -5 6 6 6 11 1 17 -2 13 -5z"/>
<path d="M5098 10193 c7 -3 16 -2 19 1 4 3 -2 6 -13 5 -11 0 -14 -3 -6 -6z"/>
<path d="M5157 10194 c-13 -13 -7 -24 14 -24 11 0 19 5 17 12 -5 14 -22 21
-31 12z"/>
<path d="M5284 10186 c-12 -33 23 -65 40 -37 4 5 -3 7 -14 4 -11 -3 -20 0 -20
6 0 6 9 11 21 11 12 0 19 5 17 13 -7 18 -37 21 -44 3z m33 -2 c-3 -3 -12 -4
-19 -1 -8 3 -5 6 6 6 11 1 17 -2 13 -5z"/>
<path d="M5409 10192 c11 -8 10 -11 -5 -15 -16 -4 -15 -5 4 -6 25 -1 26 20 1
27 -12 3 -12 2 0 -6z"/>
<path d="M5461 10168 c2 -30 2 -31 6 -5 5 34 20 35 26 2 4 -23 4 -23 3 2 -1
18 -7 29 -18 31 -15 3 -18 -3 -17 -30z"/>
<path d="M5560 10170 c0 -16 2 -30 4 -30 2 0 6 14 8 30 3 17 1 30 -4 30 -4 0
-8 -13 -8 -30z"/>
<path d="M5604 10185 c-13 -32 23 -63 40 -36 4 5 -3 7 -14 4 -11 -3 -20 -1
-20 5 0 6 10 13 23 15 21 4 21 4 -3 6 -23 2 -24 3 -5 11 18 8 18 9 2 9 -10 1
-20 -6 -23 -14z"/>
<path d="M5675 10190 c-3 -6 1 -7 9 -4 12 4 16 0 16 -16 0 -17 -4 -21 -17 -16
-16 5 -16 5 0 -8 18 -14 18 -14 0 -20 -15 -4 -15 -5 2 -3 15 2 21 11 23 40 2
28 -1 37 -12 37 -8 0 -18 -4 -21 -10z"/>
<path d="M5754 10191 c18 -7 18 -8 3 -14 -24 -9 -21 -37 3 -37 16 0 20 7 20
30 0 25 -4 30 -22 29 -21 0 -21 -1 -4 -8z m16 -31 c0 -5 -4 -10 -10 -10 -5 0
-10 5 -10 10 0 6 5 10 10 10 6 0 10 -4 10 -10z"/>
<path d="M6484 10170 c1 -24 36 -44 36 -21 0 6 -6 8 -14 5 -10 -4 -16 3 -19
18 -4 22 -4 21 -3 -2z"/>
<path d="M6554 10185 c-13 -32 23 -63 40 -36 4 5 -3 7 -14 4 -11 -3 -20 -1
-20 5 0 6 10 13 23 15 21 4 21 4 -3 6 -23 2 -24 3 -5 11 18 8 18 9 2 9 -10 1
-20 -6 -23 -14z"/>
<path d="M6656 10185 c-8 -22 3 -45 23 -46 13 0 12 -2 -4 -10 l-20 -9 20 3
c15 2 21 11 23 40 3 31 0 37 -16 37 -11 0 -22 -7 -26 -15z m34 -15 c0 -21 -15
-27 -25 -10 -7 12 2 30 16 30 5 0 9 -9 9 -20z"/>
<path d="M6724 10186 c-12 -33 23 -65 40 -37 4 5 -3 7 -14 4 -11 -3 -20 0 -20
6 0 6 9 11 21 11 12 0 19 5 17 13 -7 18 -37 21 -44 3z m33 -2 c-3 -3 -12 -4
-19 -1 -8 3 -5 6 6 6 11 1 17 -2 13 -5z"/>
<path d="M6791 10168 c2 -30 2 -30 6 -6 2 15 12 29 21 31 12 3 10 5 -5 6 -20
1 -23 -4 -22 -31z"/>
<path d="M6867 10194 c-13 -13 -7 -24 14 -24 11 0 19 5 17 12 -5 14 -22 21
-31 12z"/>
<path d="M6930 10170 c0 -16 2 -30 4 -30 2 0 6 14 8 30 3 17 1 30 -4 30 -4 0
-8 -13 -8 -30z"/>
<path d="M6985 10192 c13 -10 18 -42 6 -42 -5 0 -12 6 -14 13 -3 7 -6 5 -6 -5
-1 -12 6 -18 19 -18 16 0 20 7 20 30 0 22 -5 30 -17 30 -10 0 -14 -4 -8 -8z"/>
<path d="M5105 10168 c19 -11 19 -11 0 -19 -16 -6 -17 -8 -3 -8 23 -1 34 19
17 30 -8 5 -18 9 -24 9 -5 -1 -1 -6 10 -12z"/>
<path d="M6332 10155 c-17 -37 -14 -45 4 -12 9 16 14 31 11 33 -2 2 -9 -7 -15
-21z"/>
<path d="M5160 10146 c7 -7 13 -7 20 0 6 6 3 10 -10 10 -13 0 -16 -4 -10 -10z"/>
<path d="M5400 10146 c7 -7 13 -7 20 0 6 6 3 10 -10 10 -13 0 -16 -4 -10 -10z"/>
<path d="M6421 10151 c-10 -7 -7 -9 12 -8 14 1 23 5 20 10 -6 9 -15 9 -32 -2z"/>
<path d="M6870 10146 c7 -7 13 -7 20 0 6 6 3 10 -10 10 -13 0 -16 -4 -10 -10z"/>
<path d="M6306 10095 c-9 -26 -7 -32 5 -12 6 10 9 21 6 23 -2 3 -7 -2 -11 -11z"/>
<path d="M4900 10046 c0 -2 8 -10 18 -17 15 -13 16 -12 3 4 -13 16 -21 21 -21
13z"/>
<path d="M6276 10025 c-9 -26 -7 -32 5 -12 6 10 9 21 6 23 -2 3 -7 -2 -11 -11z"/>
<path d="M4940 10016 c0 -2 8 -10 18 -17 15 -13 16 -12 3 4 -13 16 -21 21 -21
13z"/>
<path d="M4980 9986 c0 -2 8 -10 18 -17 15 -13 16 -12 3 4 -13 16 -21 21 -21
13z"/>
<path d="M6246 9955 c-9 -26 -7 -32 5 -12 6 10 9 21 6 23 -2 3 -7 -2 -11 -11z"/>
<path d="M5020 9956 c0 -3 63 -53 140 -111 77 -58 140 -103 140 -101 0 3 -63
53 -140 111 -77 58 -140 103 -140 101z"/>
<path d="M6216 9885 c-9 -26 -7 -32 5 -12 6 10 9 21 6 23 -2 3 -7 -2 -11 -11z"/>
<path d="M6192 9825 c-17 -37 -14 -45 4 -12 9 16 14 31 11 33 -2 2 -9 -7 -15
-21z"/>
<path d="M6162 9755 c-17 -37 -14 -45 4 -12 9 16 14 31 11 33 -2 2 -9 -7 -15
-21z"/>
<path d="M5310 9737 c0 -3 17 -17 37 -33 20 -15 33 -23 29 -16 -8 13 -66 56
-66 49z"/>
<path d="M6136 9695 c-9 -26 -7 -32 5 -12 6 10 9 21 6 23 -2 3 -7 -2 -11 -11z"/>
<path d="M5390 9676 c0 -2 8 -10 18 -17 15 -13 16 -12 3 4 -13 16 -21 21 -21
13z"/>
<path d="M5434 9642 c8 -13 66 -56 66 -49 0 3 -17 17 -37 33 -20 15 -33 23
-29 16z"/>
<path d="M6101 9613 c-10 -26 -10 -27 4 -9 8 11 15 23 15 28 0 15 -7 8 -19
-19z"/>
<path d="M3050 9522 c-16 -17 -30 -39 -30 -49 0 -11 7 -5 18 17 28 57 97 66
142 18 43 -46 12 -129 -53 -144 -17 -4 -27 -9 -20 -11 21 -7 80 27 92 53 30
67 -4 131 -76 141 -37 5 -45 2 -73 -25z"/>
<path d="M5639 9535 c-29 -16 -53 -64 -46 -92 3 -12 5 -8 6 10 1 40 51 87 91
87 37 0 90 -47 90 -79 0 -89 -106 -132 -160 -64 -11 14 -20 21 -20 16 0 -5 12
-20 26 -34 34 -32 93 -32 128 0 86 81 -11 212 -115 156z"/>
<path d="M3301 9453 c1 -27 4 -38 6 -25 2 12 10 22 17 22 8 0 21 -10 30 -22
14 -20 15 -20 7 -2 -5 11 -6 26 -1 34 14 22 0 40 -31 40 -28 0 -29 -1 -28 -47z
m54 22 c0 -5 -10 -11 -22 -13 -16 -2 -23 2 -23 13 0 11 7 15 23 13 12 -2 22
-7 22 -13z"/>
<path d="M5881 9453 c1 -27 4 -38 6 -26 2 12 12 24 21 26 15 4 15 5 0 6 -26 2
-22 29 5 34 19 4 18 4 -5 6 -27 1 -28 -1 -27 -46z"/>
<path d="M6098 9490 c-5 -17 3 -80 11 -80 7 0 6 79 -2 86 -3 3 -7 0 -9 -6z"/>
<path d="M3085 9450 c0 -40 0 -40 38 -40 26 0 37 4 37 15 0 8 -4 15 -10 15 -5
0 -10 -4 -10 -10 0 -14 -27 -13 -36 2 -5 8 -2 9 9 5 12 -5 17 -1 17 13 0 13
-5 18 -15 14 -8 -4 -15 -1 -15 5 0 15 37 14 43 -1 3 -8 6 -6 6 5 1 13 -7 17
-31 17 -32 0 -33 -2 -33 -40z"/>
<path d="M5655 9450 c0 -40 0 -40 38 -40 28 0 37 4 37 17 0 13 -3 14 -12 5
-15 -15 -38 -16 -38 -1 0 5 4 8 8 5 9 -6 42 29 42 44 0 6 -17 10 -37 10 -38 0
-38 0 -38 -40z m55 26 c0 -2 -7 -6 -15 -10 -8 -3 -15 -1 -15 4 0 6 7 10 15 10
8 0 15 -2 15 -4z"/>
<path d="M3397 9474 c-4 -4 -7 -18 -7 -31 0 -27 26 -41 43 -24 9 9 8 11 -4 6
-10 -4 -20 -2 -24 4 -3 7 3 11 15 11 15 0 20 5 18 17 -3 19 -29 29 -41 17z
m33 -14 c0 -5 -7 -10 -16 -10 -8 0 -12 5 -9 10 3 6 10 10 16 10 5 0 9 -4 9
-10z"/>
<path d="M3465 9470 c-8 -14 3 -30 21 -30 8 0 14 -5 14 -11 0 -7 -9 -9 -21 -6
-16 4 -19 3 -11 -5 12 -12 42 -4 42 13 0 6 -9 13 -20 16 -11 3 -20 10 -20 15
0 6 9 8 20 5 11 -3 18 -1 14 4 -7 12 -31 11 -39 -1z"/>
<path d="M3537 9474 c-4 -4 -7 -18 -7 -31 0 -27 26 -41 43 -24 9 9 8 11 -4 6
-10 -4 -20 -2 -24 4 -3 7 3 11 15 11 15 0 20 5 18 17 -3 19 -29 29 -41 17z
m33 -14 c0 -5 -7 -10 -16 -10 -8 0 -12 5 -9 10 3 6 10 10 16 10 5 0 9 -4 9
-10z"/>
<path d="M3611 9443 c2 -35 2 -35 6 -8 3 16 10 33 16 37 8 5 6 8 -5 8 -14 0
-18 -8 -17 -37z"/>
<path d="M3650 9473 c0 -6 5 -24 11 -40 l11 -28 15 34 c8 18 12 36 9 38 -3 3
-8 -8 -12 -23 l-7 -29 -13 30 c-7 17 -13 25 -14 18z"/>
<path d="M3726 9471 c-3 -5 3 -7 14 -4 11 3 20 0 20 -6 0 -6 -9 -11 -20 -11
-13 0 -20 -7 -20 -20 0 -15 6 -19 25 -18 22 2 26 7 23 33 -3 30 -30 47 -42 26z
m29 -41 c-3 -5 -10 -10 -16 -10 -5 0 -9 5 -9 10 0 6 7 10 16 10 8 0 12 -4 9
-10z"/>
<path d="M5965 9471 c-3 -6 0 -8 8 -5 8 3 18 1 22 -5 3 -7 -2 -11 -14 -11 -14
0 -21 -6 -21 -20 0 -15 6 -19 25 -18 22 2 26 7 23 33 -3 30 -30 46 -43 26z
m30 -41 c-3 -5 -10 -10 -16 -10 -5 0 -9 5 -9 10 0 6 7 10 16 10 8 0 12 -4 9
-10z"/>
<path d="M6037 9473 c-4 -3 -7 -17 -7 -30 0 -26 26 -41 42 -25 8 8 5 9 -11 5
-18 -4 -21 -1 -21 22 0 22 4 26 20 22 11 -3 18 -1 14 4 -6 11 -28 12 -37 2z"/>
<path d="M6143 9448 c1 -26 7 -33 25 -34 19 -1 22 3 21 35 -1 35 -2 35 -8 7
-8 -40 -28 -44 -35 -7 l-6 31 3 -32z"/>
<path d="M6211 9443 c1 -35 1 -36 9 -11 4 14 11 31 15 37 3 6 -1 11 -9 11 -12
0 -16 -10 -15 -37z"/>
<path d="M6266 9471 c-4 -5 3 -7 14 -4 11 3 20 1 20 -5 0 -5 -9 -12 -21 -15
-22 -6 -22 -29 -1 -33 7 -1 8 0 2 3 -15 7 -12 23 4 23 8 0 17 -8 19 -17 3 -10
5 -1 6 20 1 30 -2 37 -18 37 -11 0 -22 -4 -25 -9z"/>
<path d="M3020 9427 c0 -21 43 -67 62 -67 7 1 2 7 -12 15 -14 7 -30 26 -37 42
-8 19 -12 22 -13 10z"/>
<path d="M141 9396 c-67 -37 -66 -131 1 -170 92 -55 192 71 119 148 -14 14
-29 26 -34 26 -5 0 2 -9 16 -20 68 -54 25 -160 -64 -160 -32 0 -79 53 -79 89
0 39 36 80 80 91 28 6 30 8 10 9 -14 0 -36 -6 -49 -13z"/>
<path d="M1524 9368 c-7 -11 22 -39 40 -37 6 0 1 5 -11 11 -28 14 -30 32 -3
25 11 -3 18 -1 14 4 -7 13 -31 11 -40 -3z"/>
<path d="M2393 9340 c0 -25 2 -35 4 -22 2 12 2 32 0 45 -2 12 -4 2 -4 -23z"/>
<path d="M330 9346 c-15 -20 -9 -56 12 -70 14 -8 21 -6 35 9 16 17 17 18 1 6
-25 -18 -48 -7 -48 24 0 31 24 42 48 24 15 -13 16 -12 3 4 -16 21 -35 22 -51
3z"/>
<path d="M703 9315 c0 -27 2 -38 4 -22 2 15 2 37 0 50 -2 12 -4 0 -4 -28z"/>
<path d="M851 9313 c1 -27 4 -38 6 -25 2 12 10 22 17 22 8 0 21 -10 30 -22 14
-20 15 -20 7 -2 -5 11 -6 26 -1 34 14 22 0 40 -31 40 -28 0 -29 -1 -28 -47z
m54 22 c0 -5 -10 -11 -22 -13 -16 -2 -23 2 -23 13 0 11 7 15 23 13 12 -2 22
-7 22 -13z"/>
<path d="M1619 9352 c11 -8 10 -11 -5 -15 -16 -4 -15 -5 4 -6 25 -1 26 20 1
27 -12 3 -12 2 0 -6z"/>
<path d="M1701 9318 c0 -24 3 -37 6 -30 2 6 11 12 19 12 8 0 14 4 14 10 0 5
-7 7 -15 4 -11 -4 -15 0 -15 16 0 16 4 20 15 16 8 -3 15 -1 15 4 0 6 -9 10
-20 10 -17 0 -20 -6 -19 -42z"/>
<path d="M1771 9333 c-1 -27 3 -33 19 -33 16 0 20 6 19 33 -2 30 -2 30 -6 5
-2 -16 -8 -28 -13 -28 -5 0 -11 12 -13 28 -4 25 -4 25 -6 -5z"/>
<path d="M1834 9346 c-12 -33 23 -65 40 -37 4 5 -3 7 -14 4 -11 -3 -20 0 -20
6 0 6 9 11 21 11 12 0 19 5 17 13 -7 18 -37 21 -44 3z m33 -2 c-3 -3 -12 -4
-19 -1 -8 3 -5 6 6 6 11 1 17 -2 13 -5z"/>
<path d="M1904 9345 c-4 -8 -4 -22 0 -30 6 -16 36 -21 36 -5 0 5 -7 7 -15 4
-11 -4 -15 0 -15 16 0 16 4 20 15 16 8 -3 15 -1 15 4 0 16 -30 11 -36 -5z"/>
<path d="M1977 9354 c-13 -13 -7 -24 14 -24 11 0 19 5 17 12 -5 14 -22 21 -31
12z"/>
<path d="M2074 9345 c-4 -8 -4 -22 0 -30 6 -16 36 -21 36 -5 0 5 -7 7 -15 4
-11 -4 -15 0 -15 16 0 16 4 20 16 16 8 -3 12 -2 9 4 -9 15 -25 12 -31 -5z"/>
<path d="M2148 9353 c7 -3 16 -2 19 1 4 3 -2 6 -13 5 -11 0 -14 -3 -6 -6z"/>
<path d="M2201 9328 c2 -31 2 -31 6 -5 2 15 8 27 13 27 5 0 11 -12 13 -27 4
-26 4 -26 6 5 1 26 -3 32 -19 32 -16 0 -20 -6 -19 -32z"/>
<path d="M2270 9352 c0 -4 9 -8 19 -8 11 0 17 4 15 8 -3 4 -12 8 -20 8 -8 0
-14 -4 -14 -8z"/>
<path d="M2349 9352 c11 -8 10 -11 -5 -15 -16 -4 -15 -5 4 -6 25 -1 26 20 1
27 -12 3 -12 2 0 -6z"/>
<path d="M2443 9354 c18 -6 18 -6 0 -20 -15 -12 -15 -13 -1 -8 10 3 18 -1 21
-13 3 -10 5 -5 4 12 -2 22 -7 30 -22 32 -17 2 -17 1 -2 -3z"/>
<path d="M2491 9328 c2 -28 2 -29 6 -8 3 14 10 28 17 32 7 5 5 8 -6 8 -14 0
-18 -8 -17 -32z"/>
<path d="M155 9310 c0 -40 0 -40 38 -40 26 0 37 4 37 15 0 8 -4 15 -10 15 -5
0 -10 -4 -10 -10 0 -5 -7 -10 -15 -10 -8 0 -15 5 -15 10 0 6 6 9 13 8 6 -2 12
4 12 12 0 8 -6 14 -12 13 -7 -2 -13 2 -13 7 0 6 7 10 15 10 8 0 15 -4 15 -10
0 -5 5 -10 10 -10 6 0 10 7 10 15 0 11 -11 15 -37 15 -38 0 -38 0 -38 -40z"/>
<path d="M416 9331 c-3 -5 3 -7 14 -4 11 3 20 0 20 -6 0 -6 -9 -11 -20 -11
-13 0 -20 -7 -20 -20 0 -15 6 -19 25 -18 22 2 26 7 23 33 -3 30 -30 47 -42 26z
m29 -41 c-3 -5 -10 -10 -16 -10 -5 0 -9 5 -9 10 0 6 7 10 16 10 8 0 12 -4 9
-10z"/>
<path d="M481 9303 l1 -38 9 33 c5 17 14 32 19 32 5 0 11 -15 13 -32 4 -32 4
-32 5 5 2 33 0 37 -23 37 -22 0 -25 -4 -24 -37z"/>
<path d="M567 9333 c-4 -3 -7 -17 -7 -30 0 -27 26 -41 43 -23 9 10 7 11 -10 5
-20 -5 -23 -3 -23 20 0 20 4 26 15 21 8 -3 15 -1 15 4 0 11 -23 13 -33 3z"/>
<path d="M625 9321 c-8 -26 4 -51 26 -51 10 0 19 4 19 10 0 5 -6 7 -14 4 -8
-3 -17 -1 -21 5 -4 7 4 11 20 11 23 0 24 2 15 20 -13 25 -37 26 -45 1z m35 -1
c0 -5 -7 -10 -16 -10 -8 0 -12 5 -9 10 3 6 10 10 16 10 5 0 9 -4 9 -10z"/>
<path d="M736 9331 c-3 -5 3 -7 14 -4 11 3 20 0 20 -6 0 -6 -9 -11 -20 -11
-13 0 -20 -7 -20 -20 0 -15 6 -19 25 -18 22 2 26 7 23 33 -3 30 -30 47 -42 26z
m29 -41 c-3 -5 -10 -10 -16 -10 -5 0 -9 5 -9 10 0 6 7 10 16 10 8 0 12 -4 9
-10z"/>
<path d="M801 9303 c1 -35 1 -36 9 -11 4 14 11 31 15 37 3 6 -1 11 -9 11 -12
0 -16 -10 -15 -37z"/>
<path d="M945 9321 c-8 -26 4 -51 26 -51 10 0 19 4 19 10 0 5 -6 7 -14 4 -8
-3 -17 -1 -21 5 -4 7 4 11 20 11 23 0 24 2 15 20 -13 25 -37 26 -45 1z m35 -1
c0 -5 -7 -10 -16 -10 -8 0 -12 5 -9 10 3 6 10 10 16 10 5 0 9 -4 9 -10z"/>
<path d="M1020 9320 c0 -11 7 -20 15 -20 8 0 15 -5 15 -11 0 -6 -9 -9 -20 -6
-11 3 -18 1 -14 -4 7 -13 31 -11 40 3 4 6 0 16 -9 23 -21 15 -22 29 -1 21 8
-3 12 -2 9 4 -11 18 -35 11 -35 -10z"/>
<path d="M1087 9334 c-4 -4 -7 -18 -7 -31 0 -27 26 -41 43 -24 9 9 8 11 -4 6
-10 -4 -20 -2 -24 4 -3 7 3 11 15 11 15 0 20 5 18 17 -3 19 -29 29 -41 17z
m33 -14 c0 -5 -7 -10 -16 -10 -8 0 -12 5 -9 10 3 6 10 10 16 10 5 0 9 -4 9
-10z"/>
<path d="M1161 9303 c2 -35 2 -35 6 -8 3 16 10 33 16 37 8 5 6 8 -5 8 -14 0
-18 -8 -17 -37z"/>
<path d="M1200 9333 c0 -6 5 -24 11 -40 l11 -28 15 34 c8 18 12 36 9 38 -3 3
-8 -8 -12 -23 l-7 -29 -13 30 c-7 17 -13 25 -14 18z"/>
<path d="M1276 9331 c-3 -5 3 -7 14 -4 11 3 20 0 20 -6 0 -6 -9 -11 -20 -11
-13 0 -20 -7 -20 -20 0 -15 6 -19 25 -18 22 2 26 7 23 33 -3 30 -30 47 -42 26z
m29 -41 c-3 -5 -10 -10 -16 -10 -5 0 -9 5 -9 10 0 6 7 10 16 10 8 0 12 -4 9
-10z"/>
<path d="M2141 9331 c-18 -11 -6 -30 19 -28 10 1 17 5 14 9 -3 4 -12 5 -22 2
-14 -5 -14 -3 2 10 21 17 11 22 -13 7z"/>
<path d="M1528 9308 c5 -5 16 -8 23 -6 8 3 3 7 -10 11 -17 4 -21 3 -13 -5z"/>
<path d="M1610 9306 c7 -7 13 -7 20 0 6 6 3 10 -10 10 -13 0 -16 -4 -10 -10z"/>
<path d="M1980 9306 c7 -7 13 -7 20 0 6 6 3 10 -10 10 -13 0 -16 -4 -10 -10z"/>
<path d="M2280 9306 c7 -7 13 -7 20 0 6 6 3 10 -10 10 -13 0 -16 -4 -10 -10z"/>
<path d="M2340 9306 c7 -7 13 -7 20 0 6 6 3 10 -10 10 -13 0 -16 -4 -10 -10z"/>
<path d="M2858 9248 c-2 -7 -1 -29 3 -48 6 -35 6 -35 8 -5 2 17 4 38 6 48 4
19 -11 24 -17 5z"/>
<path d="M3042 9215 c0 -47 0 -48 9 -17 5 17 14 32 19 32 5 0 11 -15 13 -32 4
-32 4 -31 5 6 2 33 0 38 -17 33 -13 -3 -21 1 -24 12 -3 9 -5 -6 -5 -34z"/>
<path d="M3203 9215 c0 -27 2 -38 4 -22 2 15 2 37 0 50 -2 12 -4 0 -4 -28z"/>
<path d="M3690 9245 c-8 -9 -8 -15 -2 -15 6 0 13 -15 15 -32 3 -25 4 -22 5 15
2 51 1 54 -18 32z"/>
<path d="M3759 9239 c-12 -23 1 -69 20 -69 20 0 34 41 22 66 -13 30 -27 30
-42 3z m31 -24 c0 -37 -13 -47 -24 -19 -8 20 2 54 15 54 5 0 9 -16 9 -35z"/>
<path d="M3879 9239 c-12 -23 1 -69 20 -69 20 0 34 41 22 66 -13 30 -27 30
-42 3z m31 -24 c0 -37 -13 -47 -24 -19 -8 20 2 54 15 54 5 0 9 -16 9 -35z"/>
<path d="M3954 9236 c-8 -34 4 -68 24 -64 24 5 24 81 0 86 -12 2 -19 -5 -24
-22z m36 -22 c0 -24 -4 -34 -12 -32 -24 8 -22 68 2 68 5 0 10 -16 10 -36z"/>
<path d="M5178 9248 c-2 -7 -1 -29 3 -48 6 -35 6 -35 8 -5 2 17 4 38 6 48 4
19 -11 24 -17 5z"/>
<path d="M5362 9215 c0 -39 2 -43 7 -21 9 42 29 44 34 4 l5 -33 -2 35 c-1 24
-6 35 -16 35 -8 0 -18 7 -22 15 -4 8 -6 -7 -6 -35z"/>
<path d="M5510 9215 l0 -45 38 1 c30 2 32 3 10 6 -34 5 -37 30 -5 36 l22 4
-22 2 c-13 0 -23 7 -23 15 0 8 10 17 23 19 16 3 13 5 -10 6 -33 1 -33 0 -33
-44z"/>
<path d="M6144 9246 c-10 -26 1 -71 18 -74 20 -4 32 29 24 64 -7 26 -33 33
-42 10z m31 -31 c0 -16 -6 -30 -12 -32 -9 -3 -13 7 -13 32 0 25 4 35 13 33 6
-3 12 -17 12 -33z"/>
<path d="M6229 9243 c-8 -10 -9 -14 -2 -10 8 5 13 -5 16 -30 3 -35 4 -34 5 10
2 52 1 55 -19 30z"/>
<path d="M6301 9244 c0 -11 3 -14 6 -6 3 7 2 16 -1 19 -3 4 -6 -2 -5 -13z"/>
<path d="M6334 9236 c-8 -34 4 -68 24 -64 24 5 24 81 0 86 -12 2 -19 -5 -24
-22z m36 -22 c0 -24 -4 -34 -12 -32 -24 8 -22 68 2 68 5 0 10 -16 10 -36z"/>
<path d="M6420 9245 c-8 -9 -8 -15 -2 -15 6 0 13 -15 15 -32 3 -25 4 -22 5 15
2 51 1 54 -18 32z"/>
<path d="M6493 9245 c-3 -9 -3 -18 -1 -21 3 -3 8 4 11 16 6 23 -1 27 -10 5z"/>
<path d="M6526 9251 c-3 -5 3 -7 14 -4 26 7 26 -18 0 -42 -27 -25 -25 -35 8
-34 18 1 21 3 9 6 -17 4 -17 6 -2 23 9 10 15 27 13 37 -4 20 -33 30 -42 14z"/>
<path d="M6604 9247 c-3 -9 -4 -28 -2 -44 2 -20 8 -28 23 -28 17 0 20 7 20 40
0 30 -4 41 -18 43 -9 2 -20 -3 -23 -11z m31 -32 c0 -16 -6 -30 -12 -32 -9 -3
-13 7 -13 32 0 25 4 35 13 33 6 -3 12 -17 12 -33z"/>
<path d="M6698 9249 c25 -9 23 -18 -11 -56 l-20 -23 34 1 c25 1 28 3 11 6
l-24 5 21 22 c26 27 19 56 -13 55 -20 0 -20 -1 2 -10z"/>
<path d="M6767 9231 c-21 -35 -21 -41 -3 -41 8 0 17 -6 19 -12 10 -24 23 10
19 47 -5 43 -12 44 -35 6z m13 -16 c0 -8 -4 -15 -10 -15 -5 0 -7 7 -4 15 4 8
8 15 10 15 2 0 4 -7 4 -15z"/>
<path d="M1350 9243 c0 -5 299 -8 665 -8 366 0 665 3 665 8 0 4 -299 7 -665 7
-366 0 -665 -3 -665 -7z"/>
<path d="M2907 9234 c-4 -4 -7 -18 -7 -31 0 -26 26 -41 42 -25 8 8 5 9 -11 5
-12 -3 -21 -1 -21 6 0 6 9 11 21 11 14 0 19 5 17 17 -3 19 -29 29 -41 17z m28
-14 c3 -5 -1 -10 -9 -10 -9 0 -16 5 -16 10 0 6 4 10 9 10 6 0 13 -4 16 -10z"/>
<path d="M2980 9225 c-6 -8 -9 -23 -5 -35 6 -20 29 -27 39 -11 3 5 -2 8 -12 7
-11 -1 -17 6 -17 19 0 13 6 20 17 19 10 -1 15 2 12 7 -8 13 -20 11 -34 -6z"/>
<path d="M3126 9231 c-4 -5 3 -7 14 -4 11 3 20 1 20 -5 0 -5 -9 -12 -21 -15
-22 -6 -22 -29 -1 -33 7 -1 8 0 2 3 -15 7 -12 23 4 23 8 0 17 -8 19 -17 3 -10
5 -1 6 20 1 30 -2 37 -18 37 -11 0 -22 -4 -25 -9z"/>
<path d="M3241 9203 c1 -36 2 -36 8 -9 9 42 29 44 34 4 l4 -33 1 38 c2 33 0
37 -23 37 -22 0 -25 -4 -24 -37z"/>
<path d="M3323 9205 c0 -22 2 -30 4 -17 2 12 2 30 0 40 -3 9 -5 -1 -4 -23z"/>
<path d="M3360 9225 c-6 -8 -9 -23 -5 -35 6 -20 29 -27 39 -11 3 5 -2 8 -12 7
-11 -1 -17 6 -17 19 0 13 6 20 17 19 10 -1 15 2 12 7 -8 13 -20 11 -34 -6z"/>
<path d="M3423 9205 c0 -22 2 -30 4 -17 2 12 2 30 0 40 -3 9 -5 -1 -4 -23z"/>
<path d="M3464 9226 c-10 -26 0 -51 21 -51 16 0 20 7 20 30 0 33 -30 49 -41
21z m36 -21 c0 -26 -14 -33 -25 -15 -9 14 1 40 15 40 5 0 10 -11 10 -25z"/>
<path d="M5227 9234 c-4 -4 -7 -18 -7 -31 0 -27 26 -41 43 -23 9 10 7 11 -10
5 -14 -4 -23 -2 -23 4 0 6 9 11 21 11 14 0 19 5 17 17 -3 19 -29 29 -41 17z
m28 -14 c3 -5 -1 -10 -9 -10 -9 0 -16 5 -16 10 0 6 4 10 9 10 6 0 13 -4 16
-10z"/>
<path d="M5294 9216 c-3 -14 -3 -30 1 -35 8 -13 32 -14 39 -2 3 5 -2 8 -12 7
-11 -1 -17 6 -17 19 0 13 6 20 17 19 10 -1 15 2 12 7 -10 18 -34 9 -40 -15z"/>
<path d="M5445 9231 c-3 -6 0 -8 8 -5 8 3 18 1 22 -5 3 -7 -2 -11 -14 -11 -14
0 -21 -6 -21 -20 0 -15 6 -19 25 -18 22 2 26 7 23 33 -3 30 -30 46 -43 26z
m30 -41 c-3 -5 -10 -10 -16 -10 -5 0 -9 5 -9 10 0 6 7 10 16 10 8 0 12 -4 9
-10z"/>
<path d="M5601 9200 c1 -34 1 -34 8 -6 9 42 29 44 34 4 l4 -33 1 33 c1 17 6
32 11 32 6 0 12 -15 14 -32 l4 -33 1 37 c2 37 2 37 -38 35 -39 -1 -40 -2 -39
-37z"/>
<path d="M5713 9205 c0 -22 2 -30 4 -17 2 12 2 30 0 40 -3 9 -5 -1 -4 -23z"/>
<path d="M5750 9220 c0 -11 7 -20 15 -20 8 0 15 -5 15 -11 0 -6 -9 -9 -20 -6
-11 3 -18 1 -14 -4 7 -13 31 -11 40 3 4 6 0 16 -9 23 -21 15 -22 29 -1 21 8
-3 12 -2 9 4 -11 18 -35 11 -35 -10z"/>
<path d="M5813 9205 c0 -22 2 -30 4 -17 2 12 2 30 0 40 -3 9 -5 -1 -4 -23z"/>
<path d="M5854 9226 c-10 -26 0 -51 21 -51 16 0 20 7 20 30 0 33 -30 49 -41
21z m31 -21 c0 -10 -6 -20 -12 -22 -8 -3 -13 5 -13 22 0 17 5 25 13 23 6 -3
12 -13 12 -23z"/>
<path d="M5932 9203 c1 -38 1 -38 5 -5 5 40 25 38 35 -4 6 -27 6 -27 5 6 -2
28 -6 36 -24 38 -21 3 -23 -1 -21 -35z"/>
<path d="M6291 9213 c-1 -6 -4 -20 -7 -30 -5 -17 -5 -17 6 0 6 10 9 23 6 30
-3 9 -5 9 -5 0z"/>
<path d="M6481 9194 c0 -11 3 -14 6 -6 3 7 2 16 -1 19 -3 4 -6 -2 -5 -13z"/>
<path d="M2858 9108 c-2 -7 -1 -29 3 -48 6 -35 6 -35 8 -5 2 17 4 38 6 48 4
19 -11 24 -17 5z"/>
<path d="M3053 9075 c0 -27 2 -38 4 -22 2 15 2 37 0 50 -2 12 -4 0 -4 -28z"/>
<path d="M3211 9073 c1 -27 4 -38 6 -26 2 12 12 24 21 26 15 4 15 5 0 6 -26 2
-22 29 5 34 19 4 18 4 -5 6 -27 1 -28 -1 -27 -46z"/>
<path d="M3519 9103 c-8 -10 -9 -14 -2 -10 8 5 13 -5 16 -30 3 -35 4 -34 5 10
2 52 1 55 -19 30z"/>
<path d="M3585 9103 c-15 -12 -16 -14 -3 -10 13 5 18 -1 21 -31 3 -33 4 -32 5
11 1 26 1 47 0 47 -2 0 -12 -8 -23 -17z"/>
<path d="M3694 9096 c-8 -34 4 -68 24 -64 24 5 24 81 0 86 -12 2 -19 -5 -24
-22z m36 -22 c0 -24 -4 -34 -12 -32 -24 8 -22 68 2 68 5 0 10 -16 10 -36z"/>
<path d="M3774 9107 c-3 -9 -4 -28 -2 -44 2 -20 8 -28 23 -28 17 0 20 7 20 40
0 30 -4 41 -18 43 -9 2 -20 -3 -23 -11z m31 -32 c0 -16 -6 -30 -12 -32 -9 -3
-13 7 -13 32 0 25 4 35 13 33 6 -3 12 -17 12 -33z"/>
<path d="M5178 9110 c-5 -17 3 -80 11 -80 7 0 6 79 -2 86 -3 3 -7 0 -9 -6z"/>
<path d="M5300 9082 c0 -22 3 -43 8 -45 8 -6 7 71 -2 80 -3 4 -6 -12 -6 -35z"/>
<path d="M5433 9075 c0 -27 2 -38 4 -22 2 15 2 37 0 50 -2 12 -4 0 -4 -28z"/>
<path d="M5617 9106 c-4 -9 -1 -18 5 -22 7 -4 6 -9 -2 -14 -18 -11 -4 -40 19
-40 19 0 35 23 23 35 -3 3 -7 16 -7 28 0 25 -30 35 -38 13z m33 -11 c0 -8 -4
-15 -10 -15 -5 0 -10 7 -10 15 0 8 5 15 10 15 6 0 10 -7 10 -15z m0 -40 c0 -8
-4 -15 -9 -15 -13 0 -22 16 -14 24 11 11 23 6 23 -9z"/>
<path d="M5702 9108 c-29 -29 -3 -85 35 -75 14 4 14 5 -4 6 -30 1 -40 21 -11
22 23 1 23 1 -2 9 l-25 8 25 2 25 2 -25 8 c-25 7 -24 9 20 23 10 4 8 6 -5 6
-12 1 -26 -4 -33 -11z"/>
<path d="M2907 9094 c-4 -4 -7 -18 -7 -31 0 -26 26 -41 42 -25 8 8 5 9 -11 5
-12 -3 -21 -1 -21 6 0 6 9 11 21 11 14 0 19 5 17 17 -3 19 -29 29 -41 17z m28
-14 c3 -5 -1 -10 -9 -10 -9 0 -16 5 -16 10 0 6 4 10 9 10 6 0 13 -4 16 -10z"/>
<path d="M2987 9093 c-4 -3 -7 -17 -7 -30 0 -27 26 -41 43 -23 9 10 7 11 -10
5 -20 -5 -23 -3 -23 20 0 20 4 26 15 21 8 -3 15 -1 15 4 0 11 -23 13 -33 3z"/>
<path d="M3077 9089 c6 -8 13 -25 16 -39 4 -17 5 -15 4 9 -1 21 -8 36 -17 39
-12 4 -13 2 -3 -9z"/>
<path d="M3135 9091 c-3 -6 0 -8 8 -5 8 3 18 1 22 -5 3 -7 -2 -11 -14 -11 -14
0 -21 -6 -21 -20 0 -15 6 -19 25 -18 22 2 26 7 23 33 -3 30 -30 46 -43 26z
m30 -41 c-3 -5 -10 -10 -16 -10 -5 0 -9 5 -9 10 0 6 7 10 16 10 8 0 12 -4 9
-10z"/>
<path d="M3293 9065 c0 -22 2 -30 4 -17 2 12 2 30 0 40 -3 9 -5 -1 -4 -23z"/>
<path d="M3332 9063 c1 -38 1 -38 5 -5 5 40 25 38 35 -4 6 -27 6 -27 5 6 -2
28 -6 36 -24 38 -21 3 -23 -1 -21 -35z"/>
<path d="M5224 9086 c-10 -26 0 -51 21 -51 16 0 20 7 20 30 0 33 -30 49 -41
21z m36 -21 c0 -26 -14 -33 -25 -15 -9 14 1 40 15 40 5 0 10 -11 10 -25z"/>
<path d="M5355 9091 c-3 -6 0 -8 8 -5 8 3 18 1 22 -5 3 -7 -2 -11 -14 -11 -14
0 -21 -6 -21 -20 0 -15 6 -19 25 -18 22 2 26 7 23 33 -3 30 -30 46 -43 26z
m30 -41 c-3 -5 -10 -10 -16 -10 -5 0 -9 5 -9 10 0 6 7 10 16 10 8 0 12 -4 9
-10z"/>
<path d="M3162 8865 c-17 -37 -14 -45 4 -12 9 16 14 31 11 33 -2 2 -9 -7 -15
-21z"/>
<path d="M3580 8819 c0 -14 31 -81 36 -76 3 3 -4 22 -15 44 -11 21 -20 35 -21
32z"/>
<path d="M3126 8785 c-9 -26 -7 -32 5 -12 6 10 9 21 6 23 -2 3 -7 -2 -11 -11z"/>
<path d="M3106 8735 c-9 -26 -7 -32 5 -12 6 10 9 21 6 23 -2 3 -7 -2 -11 -11z"/>
<path d="M3631 8705 c0 -5 6 -21 14 -35 8 -14 14 -20 14 -15 0 6 -6 21 -14 35
-8 14 -14 21 -14 15z"/>
<path d="M3071 8639 c-12 -35 -21 -68 -20 -73 0 -6 11 20 25 58 13 38 22 71
20 73 -2 2 -13 -24 -25 -58z"/>
<path d="M3671 8615 c0 -5 8 -26 19 -45 11 -19 19 -30 19 -25 0 6 -8 26 -19
45 -11 19 -19 31 -19 25z"/>
<path d="M3041 8534 c0 -11 3 -14 6 -6 3 7 2 16 -1 19 -3 4 -6 -2 -5 -13z"/>
<path d="M3032 8490 c0 -14 2 -19 5 -12 2 6 2 18 0 25 -3 6 -5 1 -5 -13z"/>
<path d="M3731 8485 c0 -5 6 -21 14 -35 8 -14 14 -20 14 -15 0 6 -6 21 -14 35
-8 14 -14 21 -14 15z"/>
<path d="M3022 8425 c0 -16 2 -22 5 -12 2 9 2 23 0 30 -3 6 -5 -1 -5 -18z"/>
<path d="M3781 8375 c0 -5 6 -21 14 -35 8 -14 14 -20 14 -15 0 6 -6 21 -14 35
-8 14 -14 21 -14 15z"/>
<path d="M3015 5695 c0 -1468 1 -2068 2 -1332 2 736 2 1938 0 2670 -1 733 -2
131 -2 -1338z"/>
<path d="M3864 8328 c-7 -11 22 -39 40 -37 6 0 1 5 -11 11 -28 14 -30 32 -3
25 11 -3 18 -1 14 4 -7 13 -31 11 -40 -3z"/>
<path d="M4213 8300 c0 -25 2 -35 4 -22 2 12 2 32 0 45 -2 12 -4 2 -4 -23z"/>
<path d="M3934 8306 c-12 -33 23 -65 40 -37 4 5 -3 7 -14 4 -11 -3 -20 0 -20
6 0 6 9 11 21 11 12 0 19 5 17 13 -7 18 -37 21 -44 3z m33 -2 c-3 -3 -12 -4
-19 -1 -8 3 -5 6 6 6 11 1 17 -2 13 -5z"/>
<path d="M4040 8290 c0 -16 2 -30 4 -30 2 0 6 14 8 30 3 17 1 30 -4 30 -4 0
-8 -13 -8 -30z"/>
<path d="M4087 8314 c-13 -13 -7 -24 14 -24 11 0 19 5 17 12 -5 14 -22 21 -31
12z"/>
<path d="M4163 8314 c18 -6 18 -6 0 -20 -15 -12 -15 -13 -1 -8 10 3 18 -1 21
-13 3 -10 5 -5 4 12 -2 22 -7 30 -22 32 -17 2 -17 1 -2 -3z"/>
<path d="M4242 8290 c0 -19 2 -27 5 -17 2 9 2 25 0 35 -3 9 -5 1 -5 -18z"/>
<path d="M4278 8313 c6 -2 18 -2 25 0 6 3 1 5 -13 5 -14 0 -19 -2 -12 -5z"/>
<path d="M4345 8312 c13 -10 18 -42 6 -42 -5 0 -12 6 -14 13 -3 7 -6 5 -6 -5
-1 -12 6 -18 19 -18 16 0 20 7 20 30 0 22 -5 30 -17 30 -10 0 -14 -4 -8 -8z"/>
<path d="M4437 8314 c-13 -13 -7 -24 14 -24 11 0 19 5 17 12 -5 14 -22 21 -31
12z"/>
<path d="M4501 8288 c2 -30 2 -31 6 -5 5 34 20 35 26 2 4 -23 4 -23 3 2 -1 18
-7 29 -18 31 -15 3 -18 -3 -17 -30z"/>
<path d="M3810 8301 c0 -5 5 -13 10 -16 6 -3 10 -2 10 4 0 5 -4 13 -10 16 -5
3 -10 2 -10 -4z"/>
<path d="M3868 8268 c5 -5 16 -8 23 -6 8 3 3 7 -10 11 -17 4 -21 3 -13 -5z"/>
<path d="M4090 8266 c7 -7 13 -7 20 0 6 6 3 10 -10 10 -13 0 -16 -4 -10 -10z"/>
<path d="M4440 8266 c7 -7 13 -7 20 0 6 6 3 10 -10 10 -13 0 -16 -4 -10 -10z"/>
<path d="M3831 8265 c0 -5 6 -21 14 -35 8 -14 14 -20 14 -15 0 6 -6 21 -14 35
-8 14 -14 21 -14 15z"/>
<path d="M4273 8263 c9 -2 23 -2 30 0 6 3 -1 5 -18 5 -16 0 -22 -2 -12 -5z"/>
<path d="M3871 8175 c0 -5 8 -26 19 -45 11 -19 19 -30 19 -25 0 6 -8 26 -19
45 -11 19 -19 31 -19 25z"/>
<path d="M3920 8069 c0 -13 42 -101 47 -96 2 3 -7 27 -21 54 -14 26 -25 45
-26 42z"/>
<path d="M3971 7955 c0 -5 8 -26 19 -45 11 -19 19 -30 19 -25 0 6 -8 26 -19
45 -11 19 -19 31 -19 25z"/>
<path d="M4020 7843 c1 -11 39 -80 40 -72 0 11 -30 79 -35 79 -3 0 -5 -3 -5
-7z"/>
<path d="M4070 7735 c0 -5 5 -17 10 -25 5 -8 10 -10 10 -5 0 6 -5 17 -10 25
-5 8 -10 11 -10 5z"/>
<path d="M3983 7655 c-91 -39 -59 -185 42 -185 51 0 95 44 95 95 0 49 -15 74
-55 91 -41 17 -42 17 -82 -1z m105 -27 c31 -30 30 -91 -3 -123 -55 -56 -145
-16 -145 63 0 80 87 116 148 60z"/>
<path d="M3996 7568 c1 -39 4 -43 29 -46 34 -4 54 13 37 30 -9 9 -12 9 -12 0
0 -7 -7 -12 -15 -12 -8 0 -15 5 -15 11 0 5 5 7 10 4 6 -3 10 3 10 15 0 12 5
18 10 15 6 -3 10 1 10 9 0 11 -10 16 -32 16 -32 0 -33 -1 -32 -42z"/>
<path d="M4211 7573 c1 -27 4 -38 6 -26 3 13 13 23 26 25 14 2 23 11 25 26 3
19 -1 22 -27 22 -30 0 -31 -1 -30 -47z m49 22 c0 -8 -9 -15 -20 -15 -11 0 -20
7 -20 15 0 8 9 15 20 15 11 0 20 -7 20 -15z"/>
<path d="M4398 7610 c-5 -17 3 -80 11 -80 7 0 6 79 -2 86 -3 3 -7 0 -9 -6z"/>
<path d="M4303 7565 c0 -22 2 -30 4 -17 2 12 2 30 0 40 -3 9 -5 -1 -4 -23z"/>
<path d="M4330 7585 c0 -9 7 -18 15 -21 8 -4 15 -11 15 -16 0 -6 -7 -8 -15 -4
-8 3 -15 1 -15 -4 0 -14 27 -12 36 2 4 6 0 16 -9 23 -21 15 -22 29 -2 21 8 -3
15 -1 15 4 0 6 -9 10 -20 10 -11 0 -20 -7 -20 -15z"/>
<path d="M4445 7591 c-3 -6 0 -8 8 -5 8 3 18 1 22 -5 3 -7 -2 -11 -14 -11 -14
0 -21 -6 -21 -20 0 -15 6 -19 25 -18 22 2 26 7 23 33 -3 30 -30 46 -43 26z
m30 -41 c-3 -5 -10 -10 -16 -10 -5 0 -9 5 -9 10 0 6 7 10 16 10 8 0 12 -4 9
-10z"/>
<path d="M4510 7585 c0 -9 7 -18 15 -21 8 -4 15 -11 15 -16 0 -6 -7 -8 -15 -4
-8 3 -15 1 -15 -4 0 -14 27 -12 36 2 4 6 0 16 -9 23 -21 15 -22 29 -2 21 8 -3
15 -1 15 4 0 6 -9 10 -20 10 -11 0 -20 -7 -20 -15z"/>
<path d="M5784 7575 c-25 -17 -48 -68 -41 -87 3 -7 6 -3 6 9 1 12 13 35 27 52
21 25 33 31 65 31 73 0 109 -63 74 -129 -16 -33 -33 -41 -80 -41 -25 0 -40 8
-59 31 -14 17 -26 25 -26 19 0 -6 11 -22 25 -35 17 -18 35 -25 64 -25 55 0 90
32 98 87 5 37 2 45 -25 73 -34 34 -92 41 -128 15z"/>
<path d="M5815 7495 c0 -44 1 -45 33 -45 27 0 32 4 31 23 0 12 -3 16 -6 10 -6
-15 -43 -18 -43 -3 0 5 7 7 15 4 10 -4 15 0 15 11 0 11 -5 15 -15 11 -8 -3
-15 -1 -15 5 0 7 10 9 25 5 18 -5 25 -2 25 9 0 10 -10 15 -32 15 -32 0 -33 -1
-33 -45z"/>
<path d="M6028 7533 c7 -2 12 -22 12 -44 0 -21 5 -39 10 -39 6 0 10 18 10 39
0 22 5 42 13 44 6 3 -4 5 -23 5 -19 0 -29 -2 -22 -5z"/>
<path d="M6258 7528 c-2 -7 -1 -29 3 -48 6 -35 6 -35 8 -5 2 17 4 38 6 48 4
19 -11 24 -17 5z"/>
<path d="M6096 7511 c-4 -5 3 -7 14 -4 11 3 20 1 20 -5 0 -5 -9 -12 -21 -15
-22 -6 -22 -29 -1 -33 7 -1 8 0 2 3 -15 7 -12 23 4 23 8 0 17 -8 19 -17 3 -10
5 -1 6 20 1 30 -2 37 -18 37 -11 0 -22 -4 -25 -9z"/>
<path d="M6171 7483 c2 -35 2 -35 6 -8 3 16 10 33 16 37 8 5 6 8 -5 8 -14 0
-18 -8 -17 -37z"/>
<path d="M6223 7485 c0 -22 2 -30 4 -17 2 12 2 30 0 40 -3 9 -5 -1 -4 -23z"/>
<path d="M6305 7511 c-3 -6 0 -8 8 -5 8 3 18 1 22 -5 3 -7 -2 -11 -14 -11 -14
0 -21 -6 -21 -20 0 -15 6 -19 25 -18 22 2 26 7 23 33 -3 30 -30 46 -43 26z
m30 -41 c-3 -5 -10 -10 -16 -10 -5 0 -9 5 -9 10 0 6 7 10 16 10 8 0 12 -4 9
-10z"/>
<path d="M6375 7510 c-8 -14 3 -30 21 -30 8 0 14 -5 14 -11 0 -7 -9 -9 -21 -6
-16 4 -19 3 -11 -5 12 -12 42 -4 42 13 0 6 -9 13 -20 16 -11 3 -20 10 -20 15
0 6 9 8 20 5 11 -3 18 -1 14 4 -7 12 -31 11 -39 -1z"/>
<path d="M5033 7493 c12 -3 17 -16 19 -41 l1 -37 4 35 c3 19 10 38 16 42 7 4
-4 7 -23 7 -19 -1 -27 -3 -17 -6z"/>
<path d="M5102 7450 c0 -19 2 -27 5 -17 2 9 2 25 0 35 -3 9 -5 1 -5 -18z"/>
<path d="M5134 7465 c-13 -32 23 -63 40 -36 4 5 -3 7 -14 4 -11 -3 -20 -1 -20
5 0 6 10 13 23 15 21 4 21 4 -3 6 -23 2 -24 3 -5 11 18 8 18 9 2 9 -10 1 -20
-6 -23 -14z"/>
<path d="M5201 7448 c2 -31 2 -31 6 -5 2 15 8 27 13 27 5 0 11 -12 13 -27 4
-26 4 -26 6 5 1 26 -3 32 -19 32 -16 0 -20 -6 -19 -32z"/>
<path d="M5289 7472 c11 -8 10 -11 -5 -15 -16 -4 -15 -5 4 -6 25 -1 26 20 1
27 -12 3 -12 2 0 -6z"/>
<path d="M5280 7426 c7 -7 13 -7 20 0 6 6 3 10 -10 10 -13 0 -16 -4 -10 -10z"/>
<path d="M4070 7337 c0 -44 2 -48 23 -45 29 4 37 55 10 65 -10 4 -21 11 -25
17 -4 6 -8 -11 -8 -37z m35 -12 c0 -10 -6 -20 -12 -22 -8 -3 -13 5 -13 22 0
17 5 25 13 23 6 -3 12 -13 12 -23z"/>
<path d="M4421 7333 c1 -26 4 -38 6 -26 3 13 13 23 26 25 34 5 29 42 -5 46
-27 3 -28 2 -27 -45z m49 22 c0 -8 -9 -15 -20 -15 -11 0 -20 7 -20 15 0 8 9
15 20 15 11 0 20 -7 20 -15z"/>
<path d="M4622 7373 c-1 -7 -8 -13 -16 -13 -18 0 -29 -31 -20 -54 8 -20 33
-21 40 -2 3 8 4 29 1 48 -2 18 -5 27 -5 21z m-2 -48 c0 -26 -14 -33 -25 -15
-9 14 1 40 15 40 5 0 10 -11 10 -25z"/>
<path d="M4743 7335 c0 -27 2 -38 4 -22 2 15 2 37 0 50 -2 12 -4 0 -4 -28z"/>
<path d="M4860 7358 c0 -5 140 -8 310 -8 171 0 310 3 310 8 0 4 -139 7 -310 7
-170 0 -310 -3 -310 -7z"/>
<path d="M3801 7323 c1 -36 2 -36 8 -9 9 42 29 44 34 4 l4 -33 1 38 c2 33 0
37 -23 37 -22 0 -25 -4 -24 -37z"/>
<path d="M3884 7346 c-10 -26 0 -51 21 -51 16 0 20 7 20 30 0 33 -30 49 -41
21z m31 -21 c0 -10 -6 -20 -12 -22 -8 -3 -13 5 -13 22 0 17 5 25 13 23 6 -3
12 -13 12 -23z"/>
<path d="M3962 7323 c1 -37 1 -37 5 -5 2 17 8 32 14 32 5 0 10 -15 10 -32 l1
-33 7 29 c9 42 29 44 34 4 l5 -33 -2 35 c-1 33 -3 35 -38 38 -38 2 -38 2 -36
-35z"/>
<path d="M4141 7323 c1 -35 1 -36 9 -11 4 14 11 31 15 37 3 6 -1 11 -9 11 -12
0 -16 -10 -15 -37z"/>
<path d="M4207 7354 c-4 -4 -7 -18 -7 -31 0 -27 26 -41 43 -23 9 10 7 11 -10
5 -14 -4 -23 -2 -23 4 0 6 9 11 21 11 14 0 19 5 17 17 -3 19 -29 29 -41 17z
m28 -14 c3 -5 -1 -10 -9 -10 -9 0 -16 5 -16 10 0 6 4 10 9 10 6 0 13 -4 16
-10z"/>
<path d="M4515 7351 c-3 -6 0 -8 8 -5 8 3 18 1 22 -5 3 -7 -2 -11 -14 -11 -14
0 -21 -6 -21 -20 0 -15 6 -19 25 -18 22 2 26 7 23 33 -3 30 -30 46 -43 26z
m30 -41 c-3 -5 -10 -10 -16 -10 -5 0 -9 5 -9 10 0 6 7 10 16 10 8 0 12 -4 9
-10z"/>
<path d="M4667 7354 c-4 -4 -7 -18 -7 -31 0 -27 26 -41 43 -24 9 9 8 11 -4 6
-10 -4 -20 -2 -24 4 -3 7 3 11 15 11 15 0 20 5 18 17 -3 19 -29 29 -41 17z
m33 -14 c0 -5 -7 -10 -16 -10 -8 0 -12 5 -9 10 3 6 10 10 16 10 5 0 9 -4 9
-10z"/>
<path d="M6053 7255 c0 -27 2 -40 4 -27 3 13 12 22 23 22 11 0 20 -9 23 -22 2
-13 4 0 4 27 0 28 -2 40 -4 28 -3 -14 -12 -23 -23 -23 -11 0 -20 9 -23 23 -2
12 -4 0 -4 -28z"/>
<path d="M6453 7285 c-3 -9 -3 -19 1 -22 3 -3 1 -12 -4 -18 -13 -16 14 -40 35
-31 18 6 20 36 3 36 -9 0 -9 3 -1 11 14 14 6 39 -13 39 -8 0 -17 -7 -21 -15z
m27 -10 c0 -8 -4 -15 -10 -15 -5 0 -10 7 -10 15 0 8 5 15 10 15 6 0 10 -7 10
-15z m2 -40 c0 -5 -5 -11 -11 -13 -6 -2 -11 4 -11 13 0 9 5 15 11 13 6 -2 11
-8 11 -13z"/>
<path d="M6529 7284 c-7 -9 -14 -22 -15 -29 -3 -20 32 -47 53 -42 15 4 14 5
-4 6 -30 1 -40 21 -11 22 23 1 23 1 -2 9 l-25 8 25 2 25 2 -25 8 c-25 7 -24 9
20 23 10 4 8 6 -6 6 -12 1 -28 -6 -35 -15z"/>
<path d="M5660 7231 c0 -25 4 -41 8 -35 4 6 15 13 25 17 28 10 19 62 -10 63
-21 1 -23 -3 -23 -45z m40 14 c0 -16 -6 -25 -15 -25 -15 0 -21 31 -8 43 13 14
23 6 23 -18z"/>
<path d="M5731 7243 c1 -35 1 -36 9 -11 4 14 11 31 15 37 3 6 -1 11 -9 11 -12
0 -16 -10 -15 -37z"/>
<path d="M5797 7274 c-4 -4 -7 -18 -7 -31 0 -27 26 -41 43 -23 9 10 7 11 -10
5 -14 -4 -23 -2 -23 4 0 6 9 11 21 11 14 0 19 5 17 17 -3 19 -29 29 -41 17z
m28 -14 c3 -5 -1 -10 -9 -10 -9 0 -16 5 -16 10 0 6 4 10 9 10 6 0 13 -4 16
-10z"/>
<path d="M5864 7256 c-3 -14 -3 -30 1 -35 8 -13 32 -14 39 -2 3 5 -2 8 -12 7
-11 -1 -17 6 -17 19 0 13 6 20 17 19 10 -1 15 2 12 7 -10 18 -34 9 -40 -15z"/>
<path d="M5933 7245 c0 -22 2 -30 4 -17 2 12 2 30 0 40 -3 9 -5 -1 -4 -23z"/>
<path d="M5974 7266 c-10 -26 0 -51 21 -51 16 0 20 7 20 30 0 33 -30 49 -41
21z m31 -21 c0 -10 -6 -20 -12 -22 -8 -3 -13 5 -13 22 0 17 5 25 13 23 6 -3
12 -13 12 -23z"/>
<path d="M6145 7261 c-14 -44 24 -67 48 -29 8 12 7 21 -2 32 -18 21 -38 20
-46 -3z m38 -4 c3 -8 1 -20 -4 -28 -11 -19 -34 3 -26 25 8 20 23 21 30 3z"/>
<path d="M6221 7243 c1 -28 3 -31 6 -13 3 14 10 31 15 38 8 9 6 12 -6 12 -12
0 -16 -9 -15 -37z"/>
<path d="M6276 7271 c-4 -5 3 -7 14 -4 11 3 20 1 20 -5 0 -5 -9 -12 -21 -15
-22 -6 -22 -29 -1 -33 7 -1 8 0 2 3 -15 7 -12 23 4 23 8 0 17 -8 19 -17 3 -10
5 -1 6 20 1 30 -2 37 -18 37 -11 0 -22 -4 -25 -9z"/>
<path d="M4240 7230 c0 -5 -6 -10 -14 -10 -21 0 -29 -17 -22 -46 4 -15 14 -24
26 -24 17 0 20 7 20 45 0 25 -2 45 -5 45 -3 0 -5 -4 -5 -10z m0 -45 c0 -26
-14 -33 -25 -15 -9 14 1 40 15 40 5 0 10 -11 10 -25z"/>
<path d="M4390 7230 c0 -5 -6 -10 -14 -10 -21 0 -29 -17 -22 -46 4 -15 14 -24
26 -24 17 0 20 7 20 45 0 25 -2 45 -5 45 -3 0 -5 -4 -5 -10z m0 -45 c0 -26
-14 -33 -25 -15 -9 14 1 40 15 40 5 0 10 -11 10 -25z"/>
<path d="M4537 7211 c-21 -35 -21 -41 -3 -41 8 0 17 -6 19 -12 10 -24 23 10
19 47 -5 43 -12 44 -35 6z m13 -16 c0 -8 -4 -15 -10 -15 -5 0 -7 7 -4 15 4 8
8 15 10 15 2 0 4 -7 4 -15z"/>
<path d="M3804 7196 c-3 -14 -3 -30 1 -35 8 -13 32 -14 39 -2 3 5 -2 8 -12 7
-11 -1 -17 6 -17 19 0 13 6 20 17 19 10 -1 15 2 12 7 -10 18 -34 9 -40 -15z"/>
<path d="M3876 7211 c-3 -5 3 -7 14 -4 11 3 20 0 20 -6 0 -6 -9 -11 -20 -11
-13 0 -20 -7 -20 -20 0 -15 6 -19 25 -18 22 2 26 7 23 33 -3 30 -30 47 -42 26z
m29 -41 c-3 -5 -10 -10 -16 -10 -5 0 -9 5 -9 10 0 6 7 10 16 10 8 0 12 -4 9
-10z"/>
<path d="M3941 7170 c0 -25 3 -39 6 -32 2 6 10 12 18 12 20 0 37 27 30 49 -4
14 -14 20 -31 19 -22 -2 -24 -7 -23 -48z m46 24 c1 -5 -2 -16 -7 -24 -9 -13
-11 -13 -19 -1 -5 8 -7 20 -4 28 6 15 25 13 30 -3z"/>
<path d="M4026 7211 c-4 -5 3 -7 14 -4 11 3 20 1 20 -5 0 -5 -9 -12 -21 -15
-22 -6 -22 -29 -1 -33 7 -1 8 0 2 3 -15 7 -12 23 4 23 8 0 17 -8 19 -17 3 -10
5 -1 6 20 1 30 -2 37 -18 37 -11 0 -22 -4 -25 -9z"/>
<path d="M4107 7213 c-4 -3 -7 -17 -7 -30 0 -27 26 -41 43 -23 9 10 7 11 -10
5 -20 -5 -23 -3 -23 20 0 20 4 26 15 21 8 -3 15 -1 15 4 0 11 -23 13 -33 3z"/>
<path d="M4163 7185 c0 -22 2 -30 4 -17 2 12 2 30 0 40 -3 9 -5 -1 -4 -23z"/>
<path d="M4285 7211 c-3 -6 0 -8 8 -5 8 3 18 1 22 -5 3 -7 -2 -11 -14 -11 -14
0 -21 -6 -21 -20 0 -15 6 -19 25 -18 22 2 26 7 23 33 -3 30 -30 46 -43 26z
m30 -41 c-3 -5 -10 -10 -16 -10 -5 0 -9 5 -9 10 0 6 7 10 16 10 8 0 12 -4 9
-10z"/>
<path d="M4292 7000 c0 -14 2 -19 5 -12 2 6 2 18 0 25 -3 6 -5 1 -5 -13z"/>
<path d="M4302 6935 c0 -16 2 -22 5 -12 2 9 2 23 0 30 -3 6 -5 -1 -5 -18z"/>
<path d="M4312 6875 c0 -16 2 -22 5 -12 2 9 2 23 0 30 -3 6 -5 -1 -5 -18z"/>
<path d="M4322 6810 c0 -14 2 -19 5 -12 2 6 2 18 0 25 -3 6 -5 1 -5 -13z"/>
<path d="M4332 6745 c0 -16 2 -22 5 -12 2 9 2 23 0 30 -3 6 -5 -1 -5 -18z"/>
<path d="M4342 6680 c0 -14 2 -19 5 -12 2 6 2 18 0 25 -3 6 -5 1 -5 -13z"/>
<path d="M4352 6615 c0 -16 2 -22 5 -12 2 9 2 23 0 30 -3 6 -5 -1 -5 -18z"/>
<path d="M4362 6550 c0 -14 2 -19 5 -12 2 6 2 18 0 25 -3 6 -5 1 -5 -13z"/>
<path d="M4372 6485 c0 -16 2 -22 5 -12 2 9 2 23 0 30 -3 6 -5 -1 -5 -18z"/>
<path d="M4382 6420 c0 -14 2 -19 5 -12 2 6 2 18 0 25 -3 6 -5 1 -5 -13z"/>
<path d="M4392 6355 c0 -16 2 -22 5 -12 2 9 2 23 0 30 -3 6 -5 -1 -5 -18z"/>
<path d="M4402 6295 c0 -16 2 -22 5 -12 2 9 2 23 0 30 -3 6 -5 -1 -5 -18z"/>
<path d="M4412 6235 c0 -16 2 -22 5 -12 2 9 2 23 0 30 -3 6 -5 -1 -5 -18z"/>
<path d="M4422 6165 c0 -16 2 -22 5 -12 2 9 2 23 0 30 -3 6 -5 -1 -5 -18z"/>
<path d="M4432 6100 c0 -14 2 -19 5 -12 2 6 2 18 0 25 -3 6 -5 1 -5 -13z"/>
<path d="M4442 6035 c0 -16 2 -22 5 -12 2 9 2 23 0 30 -3 6 -5 -1 -5 -18z"/>
<path d="M4451 5974 c0 -11 3 -14 6 -6 3 7 2 16 -1 19 -3 4 -6 -2 -5 -13z"/>
<path d="M4229 5891 c-39 -39 -41 -100 -4 -136 13 -14 29 -25 35 -25 6 0 -2
12 -19 26 -63 53 -28 154 54 154 106 0 117 -149 12 -175 -15 -4 -26 -10 -23
-12 11 -11 75 20 90 42 42 65 -4 155 -79 155 -27 0 -44 -8 -66 -29z"/>
<path d="M4481 5823 c1 -27 4 -38 6 -26 3 13 13 23 26 25 14 2 23 11 25 26 3
19 -1 22 -27 22 -30 0 -31 -1 -30 -47z m49 22 c0 -8 -9 -15 -20 -15 -11 0 -20
7 -20 15 0 8 9 15 20 15 11 0 20 -7 20 -15z"/>
<path d="M4680 5861 c0 -5 -9 -11 -21 -14 -30 -8 -23 -62 9 -63 20 -1 22 3 22
42 0 24 -2 44 -5 44 -3 0 -5 -4 -5 -9z m-5 -46 c0 -10 -6 -20 -12 -22 -8 -3
-13 5 -13 22 0 17 5 25 13 23 6 -3 12 -13 12 -23z"/>
<path d="M4793 5825 c0 -27 2 -38 4 -22 2 15 2 37 0 50 -2 12 -4 0 -4 -28z"/>
<path d="M4265 5820 c0 -40 0 -40 38 -40 26 0 37 4 37 15 0 8 -4 15 -10 15 -5
0 -10 -4 -10 -10 0 -5 -7 -10 -15 -10 -8 0 -15 5 -15 11 0 5 5 7 10 4 6 -3 10
3 10 15 0 12 -4 18 -10 15 -5 -3 -10 -1 -10 4 0 15 27 14 33 -1 3 -8 6 -6 6 5
1 13 -7 17 -31 17 -32 0 -33 -2 -33 -40z"/>
<path d="M4575 5841 c-3 -6 0 -8 8 -5 8 3 18 1 22 -5 3 -7 -2 -11 -14 -11 -14
0 -21 -6 -21 -20 0 -15 6 -19 25 -18 22 2 26 7 23 33 -3 30 -30 46 -43 26z
m30 -41 c-3 -5 -10 -10 -16 -10 -5 0 -9 5 -9 10 0 6 7 10 16 10 8 0 12 -4 9
-10z"/>
<path d="M4717 5844 c-4 -4 -7 -18 -7 -31 0 -27 26 -41 43 -24 9 9 8 11 -4 6
-10 -4 -20 -2 -24 4 -3 7 3 11 15 11 15 0 20 5 18 17 -3 19 -29 29 -41 17z
m33 -14 c0 -5 -7 -10 -16 -10 -8 0 -12 5 -9 10 3 6 10 10 16 10 5 0 9 -4 9
-10z"/>
<path d="M3072 5680 c0 -19 2 -27 5 -17 2 9 2 25 0 35 -3 9 -5 1 -5 -18z"/>
<path d="M3129 5702 c11 -8 10 -11 -5 -15 -16 -4 -15 -5 4 -6 25 -1 26 20 1
27 -12 3 -12 2 0 -6z"/>
<path d="M3181 5678 c2 -30 2 -31 6 -5 5 34 20 35 26 2 4 -23 4 -23 3 2 -1 18
-7 29 -18 31 -15 3 -18 -3 -17 -30z"/>
<path d="M3269 5702 c11 -8 10 -11 -5 -15 -16 -4 -15 -5 4 -6 25 -1 26 20 1
27 -12 3 -12 2 0 -6z"/>
<path d="M3120 5656 c7 -7 13 -7 20 0 6 6 3 10 -10 10 -13 0 -16 -4 -10 -10z"/>
<path d="M3260 5656 c7 -7 13 -7 20 0 6 6 3 10 -10 10 -13 0 -16 -4 -10 -10z"/>
<path d="M3900 5609 c-17 -31 2 -72 32 -67 12 2 23 9 24 16 1 7 0 8 -3 2 -8
-16 -40 -12 -47 6 -10 25 3 54 24 54 10 0 21 -5 23 -10 3 -6 4 -5 3 2 -5 23
-44 21 -56 -3z"/>
<path d="M4350 5621 c0 -5 -9 -11 -21 -14 -30 -8 -23 -62 9 -63 20 -1 22 3 22
42 0 24 -2 44 -5 44 -3 0 -5 -4 -5 -9z m-5 -46 c0 -10 -6 -20 -12 -22 -8 -3
-13 5 -13 22 0 17 5 25 13 23 6 -3 12 -13 12 -23z"/>
<path d="M4500 5621 c0 -5 -9 -11 -21 -14 -30 -8 -23 -62 9 -63 20 -1 22 3 22
42 0 24 -2 44 -5 44 -3 0 -5 -4 -5 -9z m-5 -46 c0 -10 -6 -20 -12 -22 -8 -3
-13 5 -13 22 0 17 5 25 13 23 6 -3 12 -13 12 -23z"/>
<path d="M4531 5583 l2 -48 7 40 c4 22 8 35 9 28 0 -6 6 -24 12 -40 8 -22 12
-24 19 -13 6 8 9 22 9 30 0 10 -3 8 -8 -5 -7 -17 -10 -15 -20 18 -17 51 -31
46 -30 -10z"/>
<path d="M4597 5623 c-3 -5 -1 -26 3 -48 l8 -40 1 48 c1 45 -2 56 -12 40z"/>
<path d="M5143 5600 c-20 -32 -21 -35 -5 -39 9 -2 20 -8 23 -13 10 -16 15 14
9 52 l-5 35 -22 -35z m13 -27 c-10 -10 -19 5 -10 18 6 11 8 11 12 0 2 -7 1
-15 -2 -18z"/>
<path d="M3984 5599 c-4 -8 0 -9 15 -4 11 3 21 2 21 -3 0 -5 -9 -12 -21 -15
-26 -7 -20 -31 9 -35 19 -3 22 1 22 32 0 29 -4 36 -19 36 -11 0 -23 -5 -27
-11z m36 -39 c0 -5 -7 -10 -15 -10 -8 0 -15 5 -15 10 0 6 7 10 15 10 8 0 15
-4 15 -10z"/>
<path d="M4060 5561 c0 -25 4 -41 8 -35 4 6 15 13 25 17 28 10 19 62 -10 63
-21 1 -23 -3 -23 -45z m40 14 c0 -16 -6 -25 -15 -25 -15 0 -21 31 -8 43 13 14
23 6 23 -18z"/>
<path d="M4134 5599 c-4 -8 0 -9 15 -4 11 3 21 2 21 -3 0 -5 -9 -12 -21 -15
-26 -7 -20 -31 9 -35 19 -3 22 1 22 32 0 29 -4 36 -19 36 -11 0 -23 -5 -27
-11z m36 -39 c0 -5 -7 -10 -15 -10 -8 0 -15 5 -15 10 0 6 7 10 15 10 8 0 15
-4 15 -10z"/>
<path d="M4210 5590 c0 -11 7 -20 15 -20 8 0 15 -5 15 -11 0 -6 -9 -9 -20 -6
-11 3 -18 1 -14 -4 7 -13 31 -11 40 3 4 6 0 16 -9 23 -21 15 -22 29 -1 21 8
-3 12 -2 9 4 -11 18 -35 11 -35 -10z"/>
<path d="M4273 5575 c0 -22 2 -30 4 -17 2 12 2 30 0 40 -3 9 -5 -1 -4 -23z"/>
<path d="M4386 5601 c-4 -5 3 -7 14 -4 11 3 20 1 20 -5 0 -5 -9 -12 -21 -15
-22 -6 -22 -29 -1 -33 7 -1 8 0 2 3 -15 7 -12 23 4 23 8 0 17 -8 19 -17 3 -10
5 -1 6 20 1 30 -2 37 -18 37 -11 0 -22 -4 -25 -9z"/>
<path d="M4646 5601 c-3 -5 3 -7 14 -4 11 3 20 0 20 -6 0 -6 -9 -11 -20 -11
-13 0 -20 -7 -20 -20 0 -15 6 -19 25 -18 22 2 26 7 23 33 -3 30 -30 47 -42 26z
m29 -41 c-3 -5 -10 -10 -16 -10 -5 0 -9 5 -9 10 0 6 7 10 16 10 8 0 12 -4 9
-10z"/>
<path d="M4736 5595 c-11 -8 -16 -15 -12 -15 5 0 3 -7 -4 -15 -7 -9 -11 -17
-9 -20 2 -2 14 12 27 31 25 38 25 39 -2 19z"/>
<path d="M4783 5575 c0 -22 2 -30 4 -17 2 12 2 30 0 40 -3 9 -5 -1 -4 -23z"/>
<path d="M4811 5571 l1 -36 9 33 c5 17 14 32 19 32 6 0 11 -15 11 -32 l1 -33
7 30 c8 38 24 38 33 -1 6 -28 6 -27 5 6 -2 34 -3 35 -44 36 -43 1 -43 1 -42
-35z"/>
<path d="M4926 5601 c-4 -5 3 -7 14 -4 11 3 20 1 20 -5 0 -5 -9 -12 -21 -15
-22 -6 -22 -29 -1 -33 7 -1 8 0 2 3 -15 7 -12 23 4 23 8 0 17 -8 19 -17 3 -10
5 -1 6 20 1 30 -2 37 -18 37 -11 0 -22 -4 -25 -9z"/>
<path d="M4513 5370 c0 -25 2 -35 4 -22 2 12 2 32 0 45 -2 12 -4 2 -4 -23z"/>
<path d="M4523 5215 c0 -38 2 -53 4 -32 2 20 2 52 0 70 -2 17 -4 1 -4 -38z"/>
<path d="M4533 5055 c0 -33 2 -45 4 -27 2 18 2 45 0 60 -2 15 -4 0 -4 -33z"/>
<path d="M4543 4890 c0 -36 2 -50 4 -32 2 17 2 47 0 65 -2 17 -4 3 -4 -33z"/>
<path d="M4573 4853 c12 -3 17 -16 19 -41 l1 -37 4 35 c3 19 10 38 16 42 7 4
-4 7 -23 7 -19 -1 -27 -3 -17 -6z"/>
<path d="M4677 4834 c-13 -13 -7 -24 14 -24 11 0 19 5 17 12 -5 14 -22 21 -31
12z"/>
<path d="M4741 4808 c2 -30 2 -31 6 -5 5 34 20 35 26 2 4 -23 4 -23 3 2 -1 18
-7 29 -18 31 -15 3 -18 -3 -17 -30z"/>
<path d="M4804 4826 c-12 -33 23 -65 40 -37 4 5 -3 7 -14 4 -11 -3 -20 0 -20
6 0 6 9 11 21 11 12 0 19 5 17 13 -7 18 -37 21 -44 3z m33 -2 c-3 -3 -12 -4
-19 -1 -8 3 -5 6 6 6 11 1 17 -2 13 -5z"/>
<path d="M4680 4786 c7 -7 13 -7 20 0 6 6 3 10 -10 10 -13 0 -16 -4 -10 -10z"/>
<path d="M4553 4720 c0 -36 2 -50 4 -32 2 17 2 47 0 65 -2 17 -4 3 -4 -33z"/>
<path d="M4563 4550 c0 -36 2 -50 4 -32 2 17 2 47 0 65 -2 17 -4 3 -4 -33z"/>
<path d="M4573 4385 c0 -33 2 -45 4 -27 2 18 2 45 0 60 -2 15 -4 0 -4 -33z"/>
<path d="M4582 4250 c0 -19 2 -27 5 -17 2 9 2 25 0 35 -3 9 -5 1 -5 -18z"/>
<path d="M4059 4151 c-21 -22 -29 -39 -29 -66 0 -41 44 -95 77 -95 11 1 6 6
-14 15 -57 25 -71 92 -28 139 51 55 149 18 149 -57 0 -42 -35 -86 -68 -88 -18
-1 -18 -2 -3 -6 27 -7 64 22 77 61 31 96 -89 169 -161 97z"/>
<path d="M4095 4085 l0 -45 38 0 c26 0 37 4 37 15 0 10 -7 14 -22 12 -13 -2
-17 -2 -10 0 16 6 9 29 -7 26 -6 -2 -11 2 -11 8 0 7 10 9 26 5 19 -5 25 -3 22
6 -3 7 -20 14 -39 16 l-34 3 0 -46z"/>
<path d="M4310 4085 c0 -46 0 -46 33 -43 30 3 32 5 32 43 0 38 -2 40 -32 43
-33 3 -33 3 -33 -43z m55 0 c0 -20 -6 -31 -17 -33 -15 -3 -18 4 -18 33 0 29 3
36 18 33 11 -2 17 -13 17 -33z"/>
<path d="M4782 4085 c0 -39 2 -43 7 -21 8 37 31 47 31 13 0 -14 -5 -28 -10
-30 -6 -3 -5 -4 2 -3 19 4 17 61 -2 61 -8 0 -18 7 -22 15 -4 8 -6 -7 -6 -35z"/>
<path d="M4893 4085 c0 -27 2 -38 4 -22 2 15 2 37 0 50 -2 12 -4 0 -4 -28z"/>
<path d="M5010 4121 c0 -5 -9 -11 -21 -14 -30 -8 -23 -62 9 -63 20 -1 22 3 22
42 0 24 -2 44 -5 44 -3 0 -5 -4 -5 -9z m-5 -46 c0 -10 -6 -20 -12 -22 -8 -3
-13 5 -13 22 0 17 5 25 13 23 6 -3 12 -13 12 -23z"/>
<path d="M5160 4121 c0 -5 -9 -11 -21 -14 -30 -8 -23 -62 9 -63 20 -1 22 3 22
42 0 24 -2 44 -5 44 -3 0 -5 -4 -5 -9z m-5 -46 c0 -10 -6 -20 -12 -22 -8 -3
-13 5 -13 22 0 17 5 25 13 23 6 -3 12 -13 12 -23z"/>
<path d="M4413 4075 c0 -22 2 -30 4 -17 2 12 2 30 0 40 -3 9 -5 -1 -4 -23z"/>
<path d="M4445 4100 c-8 -14 3 -30 21 -30 8 0 14 -5 14 -11 0 -7 -9 -9 -21 -6
-16 4 -19 3 -11 -5 12 -12 42 -4 42 13 0 6 -9 13 -20 16 -11 3 -20 10 -20 15
0 6 9 8 20 5 11 -3 18 -1 14 4 -7 12 -31 11 -39 -1z"/>
<path d="M4511 4060 c0 -25 3 -39 6 -32 2 6 10 12 18 12 20 0 37 27 30 49 -4
14 -14 20 -31 19 -22 -2 -24 -7 -23 -48z m46 24 c1 -5 -2 -16 -7 -24 -9 -13
-11 -13 -19 -1 -5 8 -7 20 -4 28 6 15 25 13 30 -3z"/>
<path d="M4594 4096 c-10 -26 0 -51 21 -51 16 0 20 7 20 30 0 33 -30 49 -41
21z m36 -21 c0 -26 -14 -33 -25 -15 -9 14 1 40 15 40 5 0 10 -11 10 -25z"/>
<path d="M4672 4073 c1 -38 1 -38 5 -5 5 40 25 38 35 -4 6 -27 6 -27 5 6 -2
28 -6 36 -24 38 -21 3 -23 -1 -21 -35z"/>
<path d="M4743 4075 c0 -22 2 -30 4 -17 2 12 2 30 0 40 -3 9 -5 -1 -4 -23z"/>
<path d="M4863 4075 c0 -22 2 -30 4 -17 2 12 2 30 0 40 -3 9 -5 -1 -4 -23z"/>
<path d="M4933 4075 c0 -22 2 -30 4 -17 2 12 2 30 0 40 -3 9 -5 -1 -4 -23z"/>
<path d="M5046 4101 c-4 -5 3 -7 14 -4 11 3 20 1 20 -5 0 -5 -9 -12 -21 -15
-22 -6 -22 -29 -1 -33 7 -1 8 0 2 3 -15 7 -12 23 4 23 8 0 17 -8 19 -17 3 -10
5 -1 6 20 1 30 -2 37 -18 37 -11 0 -22 -4 -25 -9z"/>
<path d="M3652 3845 c0 -39 2 -43 7 -21 9 42 29 44 34 4 l5 -33 -2 35 c-1 24
-6 35 -16 35 -8 0 -18 7 -22 15 -4 8 -6 -7 -6 -35z"/>
<path d="M4000 3845 c0 -40 2 -45 23 -45 29 0 47 18 47 45 0 27 -18 45 -47 45
-21 0 -23 -5 -23 -45z m55 0 c0 -23 -5 -31 -22 -33 -20 -3 -23 1 -23 33 0 32
3 36 23 33 17 -2 22 -10 22 -33z"/>
<path d="M4461 3850 c-1 -38 2 -46 18 -47 27 -2 44 21 36 47 -5 15 -13 20 -25
17 -12 -3 -21 1 -23 12 -3 9 -5 -4 -6 -29z m46 -6 c1 -5 -2 -16 -7 -24 -9 -13
-11 -13 -19 -1 -5 8 -7 20 -4 28 6 15 25 13 30 -3z"/>
<path d="M4543 3845 c0 -27 2 -38 4 -22 2 15 2 37 0 50 -2 12 -4 0 -4 -28z"/>
<path d="M4830 3875 c-8 -9 -8 -15 -2 -15 6 0 13 -15 15 -32 3 -25 4 -22 5 15
2 51 1 54 -18 32z"/>
<path d="M4894 3866 c-8 -34 4 -68 24 -64 24 5 24 81 0 86 -12 2 -19 -5 -24
-22z m36 -22 c0 -24 -4 -34 -12 -32 -24 8 -22 68 2 68 5 0 10 -16 10 -36z"/>
<path d="M5014 3866 c-8 -34 4 -68 24 -64 24 5 24 81 0 86 -12 2 -19 -5 -24
-22z m36 -22 c0 -24 -4 -34 -12 -32 -24 8 -22 68 2 68 5 0 10 -16 10 -36z"/>
<path d="M5094 3876 c-10 -26 1 -71 18 -74 20 -4 32 29 24 64 -7 26 -33 33
-42 10z m31 -31 c0 -16 -6 -30 -12 -32 -9 -3 -13 7 -13 32 0 25 4 35 13 33 6
-3 12 -17 12 -33z"/>
<path d="M5315 3873 c-15 -12 -16 -14 -3 -10 13 5 18 -1 21 -31 3 -33 4 -32 5
11 1 26 1 47 0 47 -2 0 -12 -8 -23 -17z"/>
<path d="M5377 3883 c-14 -14 -6 -45 13 -50 11 -3 20 -10 20 -15 0 -6 -9 -8
-20 -5 -11 3 -18 1 -14 -4 21 -34 63 25 44 62 -11 19 -31 25 -43 12z m33 -23
c0 -21 -15 -27 -25 -10 -7 12 2 30 16 30 5 0 9 -9 9 -20z"/>
<path d="M5499 3869 c-12 -23 1 -69 20 -69 20 0 34 41 22 66 -13 30 -27 30
-42 3z m31 -24 c0 -37 -13 -47 -24 -19 -8 20 2 54 15 54 5 0 9 -16 9 -35z"/>
<path d="M5574 3877 c-3 -9 -4 -28 -2 -44 2 -20 8 -28 23 -28 17 0 20 7 20 40
0 30 -4 41 -18 43 -9 2 -20 -3 -23 -11z m31 -32 c0 -16 -6 -30 -12 -32 -9 -3
-13 7 -13 32 0 25 4 35 13 33 6 -3 12 -17 12 -33z"/>
<path d="M3734 3856 c-10 -26 0 -51 21 -51 16 0 20 7 20 30 0 33 -30 49 -41
21z m31 -21 c0 -10 -6 -20 -12 -22 -8 -3 -13 5 -13 22 0 17 5 25 13 23 6 -3
12 -13 12 -23z"/>
<path d="M3801 3833 c1 -35 1 -36 9 -11 4 14 11 31 15 37 3 6 -1 11 -9 11 -12
0 -16 -10 -15 -37z"/>
<path d="M3856 3861 c-4 -5 3 -7 14 -4 11 3 20 1 20 -5 0 -5 -9 -12 -21 -15
-22 -6 -22 -29 -1 -33 7 -1 8 0 2 3 -15 7 -12 23 4 23 8 0 17 -8 19 -17 3 -10
5 -1 6 20 1 30 -2 37 -18 37 -11 0 -22 -4 -25 -9z"/>
<path d="M3930 3855 c0 -9 7 -18 15 -21 8 -4 15 -11 15 -16 0 -6 -7 -8 -15 -4
-8 3 -15 1 -15 -4 0 -14 27 -12 36 2 4 6 0 16 -9 23 -21 15 -22 29 -2 21 8 -3
15 -1 15 4 0 6 -9 10 -20 10 -11 0 -20 -7 -20 -15z"/>
<path d="M4093 3835 c0 -22 2 -30 4 -17 2 12 2 30 0 40 -3 9 -5 -1 -4 -23z"/>
<path d="M4130 3855 c0 -9 7 -18 15 -21 8 -4 15 -11 15 -16 0 -6 -7 -8 -15 -4
-8 3 -15 1 -15 -4 0 -14 27 -12 36 2 4 6 0 16 -9 23 -21 15 -22 29 -2 21 8 -3
15 -1 15 4 0 6 -9 10 -20 10 -11 0 -20 -7 -20 -15z"/>
<path d="M4200 3821 c0 -25 4 -41 8 -35 4 6 15 13 25 17 28 10 19 62 -10 63
-21 1 -23 -3 -23 -45z m40 14 c0 -16 -6 -25 -15 -25 -15 0 -21 31 -8 43 13 14
23 6 23 -18z"/>
<path d="M4284 3856 c-10 -26 0 -51 21 -51 16 0 20 7 20 30 0 33 -30 49 -41
21z m31 -21 c0 -10 -6 -20 -12 -22 -8 -3 -13 5 -13 22 0 17 5 25 13 23 6 -3
12 -13 12 -23z"/>
<path d="M4351 3833 c1 -36 2 -36 8 -9 9 42 29 44 34 4 l4 -33 1 38 c2 33 0
37 -23 37 -22 0 -25 -4 -24 -37z"/>
<path d="M4433 3835 c0 -22 2 -30 4 -17 2 12 2 30 0 40 -3 9 -5 -1 -4 -23z"/>
<path d="M4587 3864 c-4 -4 -7 -18 -7 -31 0 -27 26 -41 43 -23 9 10 7 11 -10
5 -14 -4 -23 -2 -23 4 0 6 9 11 21 11 14 0 19 5 17 17 -3 19 -29 29 -41 17z
m28 -14 c3 -5 -1 -10 -9 -10 -9 0 -16 5 -16 10 0 6 4 10 9 10 6 0 13 -4 16
-10z"/>
<path d="M4655 3860 c-9 -14 1 -27 25 -33 11 -3 18 -1 14 4 -3 5 -12 9 -20 9
-20 0 -18 18 4 23 15 4 15 5 0 6 -9 0 -20 -3 -23 -9z"/>
<path d="M3547 3853 c-3 -5 5 -8 18 -8 13 0 21 3 18 8 -2 4 -10 7 -18 7 -8 0
-16 -3 -18 -7z"/>
<path d="M5208 3833 c7 -3 16 -2 19 1 4 3 -2 6 -13 5 -11 0 -14 -3 -6 -6z"/>
<path d="M3547 3808 c2 -5 10 -8 18 -8 8 0 16 3 18 8 3 4 -5 7 -18 7 -13 0
-21 -3 -18 -7z"/>
<path d="M4658 3808 c5 -5 16 -8 23 -6 8 3 3 7 -10 11 -17 4 -21 3 -13 -5z"/>
<path d="M4405 3610 c-9 -16 -13 -30 -11 -30 3 0 12 14 21 30 9 17 13 30 11
30 -3 0 -12 -13 -21 -30z"/>
<path d="M4377 3563 c-2 -5 -17 -30 -32 -58 -16 -27 -24 -45 -18 -40 14 14 66
105 60 105 -3 0 -8 -3 -10 -7z"/>
<path d="M4300 3430 c-6 -11 -8 -20 -6 -20 3 0 10 9 16 20 6 11 8 20 6 20 -3
0 -10 -9 -16 -20z"/>
<path d="M4265 3370 c-9 -16 -13 -30 -11 -30 3 0 12 14 21 30 9 17 13 30 11
30 -3 0 -12 -13 -21 -30z"/>
<path d="M4230 3310 c-6 -11 -8 -20 -6 -20 3 0 10 9 16 20 6 11 8 20 6 20 -3
0 -10 -9 -16 -20z"/>
<path d="M4195 3250 c-9 -16 -13 -30 -11 -30 3 0 12 14 21 30 9 17 13 30 11
30 -3 0 -12 -13 -21 -30z"/>
<path d="M4167 3203 c-2 -5 -17 -30 -32 -58 -16 -27 -24 -45 -18 -40 14 14 66
105 60 105 -3 0 -8 -3 -10 -7z"/>
<path d="M4153 3113 c12 -3 17 -16 19 -41 l1 -37 4 35 c3 19 10 38 16 42 7 4
-4 7 -23 7 -19 -1 -27 -3 -17 -6z"/>
<path d="M4257 3094 c-13 -13 -7 -24 14 -24 11 0 19 5 17 12 -5 14 -22 21 -31
12z"/>
<path d="M4321 3068 c2 -30 2 -31 6 -5 5 34 20 35 26 2 4 -23 4 -23 3 2 -1 18
-7 29 -18 31 -15 3 -18 -3 -17 -30z"/>
<path d="M4384 3086 c-12 -33 23 -65 40 -37 4 5 -3 7 -14 4 -11 -3 -20 0 -20
6 0 6 9 11 21 11 12 0 19 5 17 13 -7 18 -37 21 -44 3z m33 -2 c-3 -3 -12 -4
-19 -1 -8 3 -5 6 6 6 11 1 17 -2 13 -5z"/>
<path d="M4090 3070 c-6 -11 -8 -20 -6 -20 3 0 10 9 16 20 6 11 8 20 6 20 -3
0 -10 -9 -16 -20z"/>
<path d="M4260 3046 c7 -7 13 -7 20 0 6 6 3 10 -10 10 -13 0 -16 -4 -10 -10z"/>
<path d="M4050 3000 c-6 -11 -8 -20 -6 -20 3 0 10 9 16 20 6 11 8 20 6 20 -3
0 -10 -9 -16 -20z"/>
<path d="M3022 2975 c0 -16 2 -22 5 -12 2 9 2 23 0 30 -3 6 -5 -1 -5 -18z"/>
<path d="M4015 2940 c-9 -16 -13 -30 -11 -30 3 0 12 14 21 30 9 17 13 30 11
30 -3 0 -12 -13 -21 -30z"/>
<path d="M3031 2924 c0 -11 3 -14 6 -6 3 7 2 16 -1 19 -3 4 -6 -2 -5 -13z"/>
<path d="M3041 2890 c0 -8 4 -22 9 -30 12 -18 12 -2 0 25 -6 13 -9 15 -9 5z"/>
<path d="M3980 2880 c-6 -11 -8 -20 -6 -20 3 0 10 9 16 20 6 11 8 20 6 20 -3
0 -10 -9 -16 -20z"/>
<path d="M3945 2820 c-9 -16 -13 -30 -11 -30 3 0 12 14 21 30 9 17 13 30 11
30 -3 0 -12 -13 -21 -30z"/>
<path d="M3060 2835 c0 -5 5 -17 10 -25 5 -8 10 -10 10 -5 0 6 -5 17 -10 25
-5 8 -10 11 -10 5z"/>
<path d="M3910 2760 c-6 -11 -8 -20 -6 -20 3 0 10 9 16 20 6 11 8 20 6 20 -3
0 -10 -9 -16 -20z"/>
<path d="M3103 2745 c9 -16 23 -39 32 -50 9 -11 7 -2 -6 20 -27 49 -47 72 -26
30z"/>
<path d="M3875 2700 c-9 -16 -13 -30 -11 -30 3 0 12 14 21 30 9 17 13 30 11
30 -3 0 -12 -13 -21 -30z"/>
<path d="M3840 2640 c-6 -11 -8 -20 -6 -20 3 0 10 9 16 20 6 11 8 20 6 20 -3
0 -10 -9 -16 -20z"/>
<path d="M3190 2606 c0 -2 8 -10 18 -17 15 -13 16 -12 3 4 -13 16 -21 21 -21
13z"/>
<path d="M3805 2580 c-9 -16 -13 -30 -11 -30 3 0 12 14 21 30 9 17 13 30 11
30 -3 0 -12 -13 -21 -30z"/>
<path d="M3241 2546 c9 -12 23 -32 32 -46 10 -13 17 -20 17 -14 0 6 -15 26
-32 45 -18 20 -26 26 -17 15z"/>
<path d="M3770 2520 c-6 -11 -8 -20 -6 -20 3 0 10 9 16 20 6 11 8 20 6 20 -3
0 -10 -9 -16 -20z"/>
<path d="M3187 2420 c-34 -27 -44 -78 -23 -118 19 -37 44 -52 86 -52 42 0 67
15 86 52 48 92 -67 183 -149 118z m108 4 c19 -8 45 -55 45 -83 0 -11 -12 -33
-26 -50 -20 -25 -34 -31 -64 -31 -30 0 -44 6 -64 31 -14 17 -26 39 -26 50 0
26 26 76 42 82 19 8 74 8 93 1z"/>
<path d="M3216 2348 c1 -42 2 -43 38 -46 32 -3 36 -1 35 20 0 13 -3 17 -6 11
-6 -15 -43 -18 -43 -3 0 5 7 7 15 4 10 -4 15 0 15 11 0 11 -5 15 -15 11 -8 -3
-15 -1 -15 5 0 7 10 9 25 5 18 -5 25 -2 25 9 0 11 -11 15 -37 15 l-38 0 1 -42z"/>
<path d="M3422 2378 c-16 -16 -15 -53 3 -68 18 -15 47 -10 53 10 5 13 3 13
-11 1 -23 -19 -47 -7 -47 24 0 31 24 42 48 24 15 -13 16 -12 3 4 -16 20 -32
22 -49 5z"/>
<path d="M3583 2345 c0 -27 2 -38 4 -22 2 15 2 37 0 50 -2 12 -4 0 -4 -28z"/>
<path d="M3800 2380 c0 -5 -6 -10 -14 -10 -21 0 -29 -17 -22 -46 4 -15 14 -24
26 -24 17 0 20 7 20 45 0 25 -2 45 -5 45 -3 0 -5 -4 -5 -10z m0 -45 c0 -26
-14 -33 -25 -15 -9 14 1 40 15 40 5 0 10 -11 10 -25z"/>
<path d="M3504 2359 c-4 -8 0 -9 15 -4 11 3 21 2 21 -3 0 -5 -9 -12 -21 -15
-26 -7 -20 -31 9 -35 19 -3 22 1 22 32 0 29 -4 36 -19 36 -11 0 -23 -5 -27
-11z m36 -39 c0 -5 -7 -10 -15 -10 -8 0 -15 5 -15 10 0 6 7 10 15 10 8 0 15
-4 15 -10z"/>
<path d="M3615 2351 c-8 -26 4 -51 26 -51 10 0 19 4 19 10 0 5 -6 7 -14 4 -8
-3 -17 -1 -21 5 -4 7 4 11 20 11 23 0 24 2 15 20 -13 25 -37 26 -45 1z m35 -1
c0 -5 -7 -10 -16 -10 -8 0 -12 5 -9 10 3 6 10 10 16 10 5 0 9 -4 9 -10z"/>
<path d="M3692 2333 c1 -38 1 -38 5 -5 5 40 25 38 35 -4 6 -27 6 -27 5 6 -2
28 -6 36 -24 38 -21 3 -23 -1 -21 -35z"/>
<path d="M3845 2361 c-3 -6 0 -8 8 -5 8 3 18 1 22 -5 3 -7 -2 -11 -14 -11 -14
0 -21 -6 -21 -20 0 -15 6 -19 25 -18 22 2 26 7 23 33 -3 30 -30 46 -43 26z
m30 -41 c-3 -5 -10 -10 -16 -10 -5 0 -9 5 -9 10 0 6 7 10 16 10 8 0 12 -4 9
-10z"/>
<path d="M3911 2333 c1 -28 3 -31 6 -13 3 14 10 31 15 38 8 9 6 12 -6 12 -12
0 -16 -9 -15 -37z"/>
<path d="M3963 2335 c0 -22 2 -30 4 -17 2 12 2 30 0 40 -3 9 -5 -1 -4 -23z"/>
<path d="M3995 2351 c-14 -44 24 -67 48 -29 8 12 7 21 -2 32 -18 21 -38 20
-46 -3z m38 -4 c3 -8 1 -20 -4 -28 -11 -19 -34 3 -26 25 8 20 23 21 30 3z"/>
<path d="M3468 2140 c-5 -17 3 -80 11 -80 7 0 6 79 -2 86 -3 3 -7 0 -9 -6z"/>
<path d="M3812 2108 c-2 -46 -1 -48 26 -47 22 1 23 2 5 6 -18 3 -23 13 -26 46
l-4 42 -1 -47z"/>
<path d="M3921 2110 c-1 -38 2 -46 18 -47 27 -2 44 21 36 47 -5 15 -13 20 -25
17 -12 -3 -21 1 -23 12 -3 9 -5 -4 -6 -29z m46 -6 c1 -5 -2 -16 -7 -24 -9 -13
-11 -13 -19 -1 -5 8 -7 20 -4 28 6 15 25 13 30 -3z"/>
<path d="M3165 2111 c-8 -26 4 -51 26 -51 10 0 19 4 19 10 0 5 -6 7 -14 4 -8
-3 -17 -1 -21 5 -4 7 4 11 20 11 23 0 24 2 15 20 -13 25 -37 26 -45 1z m35 -1
c0 -5 -7 -10 -16 -10 -8 0 -12 5 -9 10 3 6 10 10 16 10 5 0 9 -4 9 -10z"/>
<path d="M3240 2123 c0 -6 5 -24 11 -40 l11 -28 15 34 c8 18 12 36 9 38 -3 3
-8 -8 -12 -23 l-7 -29 -13 30 c-7 17 -13 25 -14 18z"/>
<path d="M3317 2124 c-4 -4 -7 -18 -7 -31 0 -27 26 -41 43 -24 9 9 8 11 -4 6
-10 -4 -20 -2 -24 4 -3 7 3 11 15 11 15 0 20 5 18 17 -3 19 -29 29 -41 17z
m33 -14 c0 -5 -7 -10 -16 -10 -8 0 -12 5 -9 10 3 6 10 10 16 10 5 0 9 -4 9
-10z"/>
<path d="M3391 2093 c1 -36 2 -36 8 -9 9 42 29 44 34 4 l4 -33 1 38 c2 33 0
37 -23 37 -22 0 -25 -4 -24 -37z"/>
<path d="M3515 2111 c-14 -44 24 -67 48 -29 8 12 7 21 -2 32 -18 21 -38 20
-46 -3z m38 -4 c3 -8 1 -20 -4 -28 -11 -19 -34 3 -26 25 8 20 23 21 30 3z"/>
<path d="M3595 2120 c-9 -14 1 -27 25 -33 11 -3 18 -1 14 4 -3 5 -12 9 -20 9
-20 0 -18 18 4 23 15 4 15 5 0 6 -9 0 -20 -3 -23 -9z"/>
<path d="M3883 2095 c0 -22 2 -30 4 -17 2 12 2 30 0 40 -3 9 -5 -1 -4 -23z"/>
<path d="M4001 2093 c1 -28 3 -31 6 -13 3 14 10 31 15 38 8 9 6 12 -6 12 -12
0 -16 -9 -15 -37z"/>
<path d="M4057 2124 c-4 -4 -7 -18 -7 -31 0 -27 26 -41 43 -24 9 9 8 11 -4 6
-10 -4 -20 -2 -24 4 -3 7 3 11 15 11 15 0 20 5 18 17 -3 19 -29 29 -41 17z
m33 -14 c0 -5 -7 -10 -16 -10 -8 0 -12 5 -9 10 3 6 10 10 16 10 5 0 9 -4 9
-10z"/>
<path d="M3598 2068 c5 -5 16 -8 23 -6 8 3 3 7 -10 11 -17 4 -21 3 -13 -5z"/>
<path d="M3476 1905 c-9 -26 -7 -32 5 -12 6 10 9 21 6 23 -2 3 -7 -2 -11 -11z"/>
<path d="M3710 1915 c0 -5 5 -17 10 -25 5 -8 10 -10 10 -5 0 6 -5 17 -10 25
-5 8 -10 11 -10 5z"/>
<path d="M3456 1855 c-9 -26 -7 -32 5 -12 6 10 9 21 6 23 -2 3 -7 -2 -11 -11z"/>
<path d="M3731 1865 c0 -5 9 -28 20 -50 10 -22 16 -29 13 -15 -7 28 -33 80
-33 65z"/>
<path d="M3436 1805 c-9 -26 -7 -32 5 -12 6 10 9 21 6 23 -2 3 -7 -2 -11 -11z"/>
<path d="M3416 1755 c-9 -26 -7 -32 5 -12 6 10 9 21 6 23 -2 3 -7 -2 -11 -11z"/>
<path d="M3770 1765 c0 -5 5 -17 10 -25 5 -8 10 -10 10 -5 0 6 -5 17 -10 25
-5 8 -10 11 -10 5z"/>
<path d="M3396 1705 c-9 -26 -7 -32 5 -12 6 10 9 21 6 23 -2 3 -7 -2 -11 -11z"/>
<path d="M3791 1718 c-1 -12 31 -89 35 -85 3 2 -4 24 -15 48 -11 24 -20 41
-20 37z"/>
<path d="M3376 1655 c-9 -26 -7 -32 5 -12 6 10 9 21 6 23 -2 3 -7 -2 -11 -11z"/>
<path d="M3830 1615 c0 -5 5 -17 10 -25 5 -8 10 -10 10 -5 0 6 -5 17 -10 25
-5 8 -10 11 -10 5z"/>
<path d="M3850 1565 c0 -5 5 -17 10 -25 5 -8 10 -10 10 -5 0 6 -5 17 -10 25
-5 8 -10 11 -10 5z"/>
<path d="M3870 1515 c0 -5 5 -17 10 -25 5 -8 10 -10 10 -5 0 6 -5 17 -10 25
-5 8 -10 11 -10 5z"/>
<path d="M3306 1475 c-9 -26 -7 -32 5 -12 6 10 9 21 6 23 -2 3 -7 -2 -11 -11z"/>
<path d="M3890 1465 c0 -5 5 -17 10 -25 5 -8 10 -10 10 -5 0 6 -5 17 -10 25
-5 8 -10 11 -10 5z"/>
<path d="M3286 1425 c-9 -26 -7 -32 5 -12 6 10 9 21 6 23 -2 3 -7 -2 -11 -11z"/>
<path d="M3910 1415 c0 -5 5 -17 10 -25 5 -8 10 -10 10 -5 0 6 -5 17 -10 25
-5 8 -10 11 -10 5z"/>
<path d="M3266 1375 c-9 -26 -7 -32 5 -12 6 10 9 21 6 23 -2 3 -7 -2 -11 -11z"/>
<path d="M3246 1325 c-9 -26 -7 -32 5 -12 6 10 9 21 6 23 -2 3 -7 -2 -11 -11z"/>
<path d="M3217 1248 c-9 -23 -15 -43 -13 -45 2 -2 11 15 20 38 9 23 15 43 13
45 -2 2 -11 -15 -20 -38z"/>
<path d="M4000 1195 c0 -5 5 -17 10 -25 5 -8 10 -10 10 -5 0 6 -5 17 -10 25
-5 8 -10 11 -10 5z"/>
<path d="M3186 1175 c-9 -26 -7 -32 5 -12 6 10 9 21 6 23 -2 3 -7 -2 -11 -11z"/>
<path d="M4020 1145 c0 -5 5 -17 10 -25 5 -8 10 -10 10 -5 0 6 -5 17 -10 25
-5 8 -10 11 -10 5z"/>
<path d="M3166 1125 c-9 -26 -7 -32 5 -12 6 10 9 21 6 23 -2 3 -7 -2 -11 -11z"/>
<path d="M4040 1095 c0 -5 5 -17 10 -25 5 -8 10 -10 10 -5 0 6 -5 17 -10 25
-5 8 -10 11 -10 5z"/>
<path d="M3146 1075 c-9 -26 -7 -32 5 -12 6 10 9 21 6 23 -2 3 -7 -2 -11 -11z"/>
<path d="M4060 1045 c0 -5 5 -17 10 -25 5 -8 10 -10 10 -5 0 6 -5 17 -10 25
-5 8 -10 11 -10 5z"/>
<path d="M3120 1010 c-7 -17 -10 -33 -8 -36 3 -3 11 9 17 27 14 42 7 49 -9 9z"/>
<path d="M4080 995 c0 -5 5 -17 10 -25 5 -8 10 -10 10 -5 0 6 -5 17 -10 25 -5
8 -10 11 -10 5z"/>
<path d="M4100 945 c0 -5 5 -17 10 -25 5 -8 10 -10 10 -5 0 6 -5 17 -10 25 -5
8 -10 11 -10 5z"/>
<path d="M4120 895 c0 -5 5 -17 10 -25 5 -8 10 -10 10 -5 0 6 -5 17 -10 25 -5
8 -10 11 -10 5z"/>
<path d="M4140 845 c0 -5 5 -17 10 -25 5 -8 10 -10 10 -5 0 6 -5 17 -10 25 -5
8 -10 11 -10 5z"/>
<path d="M2645 815 c-14 -13 -25 -29 -25 -35 0 -6 12 2 26 19 53 63 154 28
154 -54 0 -82 -101 -117 -154 -54 -14 17 -26 25 -26 19 0 -6 11 -22 25 -35 57
-58 165 -12 165 70 0 82 -108 128 -165 70z"/>
<path d="M2685 745 c0 -44 1 -45 33 -45 27 0 32 4 31 23 0 12 -3 16 -6 10 -6
-15 -43 -18 -43 -3 0 5 7 7 15 4 10 -4 15 0 15 11 0 11 -5 15 -15 11 -8 -3
-15 -1 -15 4 0 14 24 12 38 -2 9 -9 12 -7 12 10 0 18 -6 22 -32 22 -32 0 -33
-1 -33 -45z"/>
<path d="M2871 743 c1 -27 4 -38 6 -26 2 13 13 24 26 26 l22 4 -22 2 c-33 2
-29 29 5 34 25 4 25 4 -5 6 -33 1 -33 1 -32 -46z"/>
<path d="M3093 745 c0 -27 2 -38 4 -22 2 15 2 37 0 50 -2 12 -4 0 -4 -28z"/>
<path d="M2957 764 c-4 -4 -7 -18 -7 -31 0 -26 26 -41 42 -25 8 8 5 9 -11 5
-12 -3 -21 -1 -21 6 0 6 9 11 21 11 14 0 19 5 17 17 -3 19 -29 29 -41 17z m28
-14 c3 -5 -1 -10 -9 -10 -9 0 -16 5 -16 10 0 6 4 10 9 10 6 0 13 -4 16 -10z"/>
<path d="M3024 746 c-3 -14 -3 -30 1 -35 8 -13 32 -14 39 -2 3 5 -2 8 -12 7
-11 -1 -17 6 -17 19 0 13 6 20 17 19 10 -1 15 2 12 7 -10 18 -34 9 -40 -15z"/>
<path d="M3117 759 c6 -8 13 -25 16 -39 4 -17 5 -15 4 9 -1 21 -8 36 -17 39
-12 4 -13 2 -3 -9z"/>
<path d="M3166 761 c-4 -5 3 -7 14 -4 11 3 20 1 20 -5 0 -5 -9 -12 -21 -15
-22 -6 -22 -29 -1 -33 7 -1 8 0 2 3 -15 7 -12 23 4 23 8 0 17 -8 19 -17 3 -10
5 -1 6 20 1 30 -2 37 -18 37 -11 0 -22 -4 -25 -9z"/>
<path d="M4016 744 c-58 -59 -14 -164 69 -164 83 0 127 105 69 164 -15 14 -36
25 -48 25 -20 -1 -20 -2 -1 -6 98 -24 81 -173 -20 -173 -101 0 -118 149 -20
173 19 4 19 5 -1 6 -12 0 -33 -11 -48 -25z"/>
<path d="M2611 744 c0 -11 3 -14 6 -6 3 7 2 16 -1 19 -3 4 -6 -2 -5 -13z"/>
<path d="M4055 675 l0 -45 38 0 c26 0 37 4 37 15 0 11 -7 14 -25 9 -16 -4 -25
-2 -25 6 0 6 5 8 10 5 6 -3 10 3 10 15 0 12 5 18 10 15 6 -3 10 1 10 9 0 11
-10 16 -32 16 -32 0 -33 -1 -33 -45z"/>
<path d="M4273 675 c0 -27 2 -40 4 -27 3 15 11 22 28 22 17 0 25 -7 28 -22 2
-13 4 0 4 27 0 28 -2 40 -4 28 -3 -16 -11 -23 -28 -23 -17 0 -25 7 -28 23 -2
12 -4 0 -4 -28z"/>
<path d="M4364 686 c-10 -26 0 -51 21 -51 16 0 20 7 20 30 0 33 -30 49 -41 21z
m36 -21 c0 -26 -14 -33 -25 -15 -9 14 1 40 15 40 5 0 10 -11 10 -25z"/>
<path d="M4431 663 c1 -35 1 -36 9 -11 4 14 11 31 15 37 3 6 -1 11 -9 11 -12
0 -16 -10 -15 -37z"/>
<path d="M4486 691 c-3 -5 3 -7 14 -4 11 3 20 0 20 -6 0 -6 -9 -11 -20 -11
-13 0 -20 -7 -20 -20 0 -15 6 -19 25 -18 22 2 26 7 23 33 -3 30 -30 47 -42 26z
m29 -41 c-3 -5 -10 -10 -16 -10 -5 0 -9 5 -9 10 0 6 7 10 16 10 8 0 12 -4 9
-10z"/>
<path d="M4555 690 c-9 -14 1 -27 25 -33 11 -3 18 -1 14 4 -3 5 -12 9 -20 9
-20 0 -18 18 4 23 15 4 15 5 0 6 -9 0 -20 -3 -23 -9z"/>
<path d="M4558 638 c5 -5 16 -8 23 -6 8 3 3 7 -10 11 -17 4 -21 3 -13 -5z"/>
<path d="M2670 540 c0 -5 -6 -10 -14 -10 -21 0 -29 -17 -22 -46 4 -15 14 -24
26 -24 17 0 20 7 20 45 0 25 -2 45 -5 45 -3 0 -5 -4 -5 -10z m0 -45 c0 -26
-14 -33 -25 -15 -9 14 1 40 15 40 5 0 10 -11 10 -25z"/>
<path d="M2964 537 c-3 -9 -4 -28 -2 -44 2 -20 8 -28 23 -28 17 0 20 7 20 40
0 30 -4 41 -18 43 -9 2 -20 -3 -23 -11z m31 -32 c0 -16 -6 -30 -12 -32 -9 -3
-13 7 -13 32 0 25 4 35 13 33 6 -3 12 -17 12 -33z"/>
<path d="M3043 535 c-3 -9 -3 -19 1 -22 3 -3 1 -12 -4 -18 -13 -16 14 -40 35
-31 18 6 20 36 3 36 -9 0 -9 3 -1 11 14 14 6 39 -13 39 -8 0 -17 -7 -21 -15z
m27 -10 c0 -8 -4 -15 -10 -15 -5 0 -10 7 -10 15 0 8 5 15 10 15 6 0 10 -7 10
-15z m2 -40 c0 -5 -5 -11 -11 -13 -6 -2 -11 4 -11 13 0 9 5 15 11 13 6 -2 11
-8 11 -13z"/>
<path d="M2713 495 c0 -22 2 -30 4 -17 2 12 2 30 0 40 -3 9 -5 -1 -4 -23z"/>
<path d="M2744 519 c-4 -8 0 -9 15 -4 11 3 21 2 21 -3 0 -5 -9 -12 -21 -15
-26 -7 -20 -31 9 -35 19 -3 22 1 22 32 0 29 -4 36 -19 36 -11 0 -23 -5 -27
-11z m36 -39 c0 -5 -7 -10 -15 -10 -8 0 -15 5 -15 10 0 6 7 10 15 10 8 0 15
-4 15 -10z"/>
<path d="M3862 435 c0 -39 2 -43 7 -21 9 42 29 44 34 4 l5 -33 -2 35 c-1 24
-6 35 -16 35 -8 0 -18 7 -22 15 -4 8 -6 -7 -6 -35z"/>
<path d="M4300 465 c-8 -9 -8 -15 -2 -15 6 0 13 -15 15 -32 3 -25 4 -22 5 15
2 51 1 54 -18 32z"/>
<path d="M4369 459 c-12 -23 1 -69 20 -69 20 0 34 41 22 66 -13 30 -27 30 -42
3z m31 -24 c0 -37 -13 -47 -24 -19 -8 20 2 54 15 54 5 0 9 -16 9 -35z"/>
<path d="M4489 459 c-12 -23 1 -69 20 -69 20 0 34 41 22 66 -13 30 -27 30 -42
3z m31 -24 c0 -37 -13 -47 -24 -19 -8 20 2 54 15 54 5 0 9 -16 9 -35z"/>
<path d="M4564 456 c-8 -34 4 -68 24 -64 24 5 24 81 0 86 -12 2 -19 -5 -24
-22z m36 -22 c0 -24 -4 -34 -12 -32 -24 8 -22 68 2 68 5 0 10 -16 10 -36z"/>
<path d="M3944 446 c-10 -26 0 -51 21 -51 16 0 20 7 20 30 0 33 -30 49 -41 21z
m31 -21 c0 -10 -6 -20 -12 -22 -8 -3 -13 5 -13 22 0 17 5 25 13 23 6 -3 12
-13 12 -23z"/>
<path d="M4021 423 c2 -35 2 -35 6 -8 3 16 10 33 16 37 8 5 6 8 -5 8 -14 0
-18 -8 -17 -37z"/>
<path d="M4075 451 c-3 -6 0 -8 8 -5 8 3 18 1 22 -5 3 -7 -2 -11 -14 -11 -14
0 -21 -6 -21 -20 0 -15 6 -19 25 -18 22 2 26 7 23 33 -3 30 -30 46 -43 26z
m30 -41 c-3 -5 -10 -10 -16 -10 -5 0 -9 5 -9 10 0 6 7 10 16 10 8 0 12 -4 9
-10z"/>
<path d="M3044 397 c-3 -9 -4 -28 -2 -44 2 -20 8 -28 23 -28 17 0 20 7 20 40
0 30 -4 41 -18 43 -9 2 -20 -3 -23 -11z m31 -32 c0 -16 -6 -30 -12 -32 -9 -3
-13 7 -13 32 0 25 4 35 13 33 6 -3 12 -17 12 -33z"/>
<path d="M3135 393 c-15 -12 -16 -14 -3 -10 13 5 18 -1 21 -31 3 -33 4 -32 5
11 1 26 1 47 0 47 -2 0 -12 -8 -23 -17z"/>
<path d="M2631 350 c1 -34 1 -34 8 -6 9 42 29 44 34 4 l4 -33 1 33 c1 17 6 32
11 32 6 0 12 -15 14 -32 l4 -33 1 37 c2 37 2 37 -38 35 -39 -1 -40 -2 -39 -37z"/>
<path d="M2745 371 c-8 -26 4 -51 26 -51 10 0 19 4 19 10 0 5 -6 7 -14 4 -8
-3 -17 -1 -21 5 -4 7 4 11 20 11 23 0 24 2 15 20 -13 25 -37 26 -45 1z m35 -1
c0 -5 -7 -10 -16 -10 -8 0 -12 5 -9 10 3 6 10 10 16 10 5 0 9 -4 9 -10z"/>
<path d="M2825 380 c-8 -14 3 -30 21 -30 8 0 14 -5 14 -11 0 -7 -9 -9 -21 -6
-16 4 -19 3 -11 -5 12 -12 42 -4 42 13 0 6 -9 13 -20 16 -11 3 -20 10 -20 15
0 6 9 8 20 5 11 -3 18 -1 14 4 -7 12 -31 11 -39 -1z"/>
<path d="M4168 330 c-5 -17 3 -80 11 -80 7 0 6 79 -2 86 -3 3 -7 0 -9 -6z"/>
<path d="M4480 325 c-8 -9 -8 -15 -2 -15 6 0 13 -15 15 -32 3 -25 4 -22 5 15
2 51 1 54 -18 32z"/>
<path d="M4550 325 c-8 -9 -8 -15 -2 -15 6 0 13 -15 15 -32 3 -25 4 -22 5 15
2 51 1 54 -18 32z"/>
<path d="M4664 316 c-8 -34 4 -68 24 -64 24 5 24 81 0 86 -12 2 -19 -5 -24
-22z m36 -22 c0 -24 -4 -34 -12 -32 -24 8 -22 68 2 68 5 0 10 -16 10 -36z"/>
<path d="M4744 316 c-8 -34 4 -68 24 -64 24 5 24 81 0 86 -12 2 -19 -5 -24
-22z m36 -22 c0 -24 -4 -34 -12 -32 -24 8 -22 68 2 68 5 0 10 -16 10 -36z"/>
<path d="M3861 280 c1 -34 1 -34 8 -6 9 42 29 44 34 4 l4 -33 1 33 c1 17 6 32
11 32 6 0 12 -15 14 -32 l4 -33 1 37 c2 37 2 37 -38 35 -39 -1 -40 -2 -39 -37z"/>
<path d="M3973 285 c0 -22 2 -30 4 -17 2 12 2 30 0 40 -3 9 -5 -1 -4 -23z"/>
<path d="M4011 283 c1 -36 2 -36 8 -9 9 42 29 44 34 4 l4 -33 1 38 c2 33 0 37
-23 37 -22 0 -25 -4 -24 -37z"/>
<path d="M4093 291 c1 -21 8 -36 17 -39 12 -4 13 -2 3 9 -6 8 -13 25 -16 39
-4 17 -5 15 -4 -9z"/>
<path d="M4133 285 c0 -22 2 -30 4 -17 2 12 2 30 0 40 -3 9 -5 -1 -4 -23z"/>
<path d="M4215 301 c-14 -44 24 -67 48 -29 8 12 7 21 -2 32 -18 21 -38 20 -46
-3z m38 -4 c3 -8 1 -20 -4 -28 -11 -19 -34 3 -26 25 8 20 23 21 30 3z"/>
<path d="M4295 310 c-8 -14 3 -30 21 -30 8 0 14 -5 14 -11 0 -7 -9 -9 -21 -6
-16 4 -19 3 -11 -5 12 -12 42 -4 42 13 0 6 -9 13 -20 16 -11 3 -20 10 -20 15
0 6 9 8 20 5 11 -3 18 -1 14 4 -7 12 -31 11 -39 -1z"/>
<path d="M2710 272 c0 -4 9 -8 20 -9 11 -1 20 2 20 5 0 4 -9 8 -20 9 -11 1
-20 -2 -20 -5z"/>
<path d="M2996 261 c-3 -5 3 -7 14 -4 26 7 26 -18 0 -42 -27 -25 -25 -35 8
-34 25 1 25 1 4 7 l-23 7 21 18 c12 10 20 26 18 35 -4 19 -33 28 -42 13z"/>
<path d="M3074 256 c-10 -26 1 -71 18 -74 20 -4 32 29 24 64 -7 26 -33 33 -42
10z m31 -31 c0 -16 -6 -30 -12 -32 -9 -3 -13 7 -13 32 0 25 4 35 13 33 6 -3
12 -17 12 -33z"/>
<path d="M3146 261 c-3 -5 3 -7 14 -4 26 7 26 -18 0 -42 -27 -25 -25 -35 8
-34 25 1 25 1 4 7 l-23 7 21 18 c12 10 20 26 18 35 -4 19 -33 28 -42 13z"/>
<path d="M3233 240 c-20 -32 -21 -35 -5 -39 9 -2 20 -8 23 -13 10 -16 15 14 9
52 l-5 35 -22 -35z m13 -27 c-10 -10 -19 5 -10 18 6 11 8 11 12 0 2 -7 1 -15
-2 -18z"/>
<path d="M2636 241 c-4 -5 3 -7 14 -4 11 3 20 1 20 -5 0 -5 -9 -12 -21 -15
-22 -6 -22 -29 -1 -33 7 -1 8 0 2 3 -15 7 -12 23 4 23 8 0 17 -8 19 -17 3 -10
5 -1 6 20 1 30 -2 37 -18 37 -11 0 -22 -4 -25 -9z"/>
<path d="M2712 213 c1 -38 1 -38 5 -5 5 40 25 38 35 -4 6 -27 6 -27 5 6 -2 28
-6 36 -24 38 -21 3 -23 -1 -21 -35z"/>
<path d="M2784 236 c-10 -26 0 -51 21 -51 16 0 20 7 20 30 0 33 -30 49 -41 21z
m36 -21 c0 -26 -14 -33 -25 -15 -9 14 1 40 15 40 5 0 10 -11 10 -25z"/>
</g>
</svg>
