<?xml version="1.0" encoding="us-ascii" standalone="no"?><svg xmlns="http://www.w3.org/2000/svg" xmlns:xlink="http://www.w3.org/1999/xlink" contentStyleType="text/css" height="1550px" preserveAspectRatio="none" style="width:944px;height:1550px;background:#FFFFFF;" version="1.1" viewBox="0 0 944 1550" width="944px" zoomAndPan="magnify"><defs/><g><!--class Pistas--><g id="elem_Pistas"><rect codeLine="1" fill="#F1F1F1" height="80.5938" id="Pistas" rx="2.5" ry="2.5" style="stroke:#181818;stroke-width:0.5;" width="145" x="423" y="650"/><ellipse cx="470.25" cy="666" fill="#ADD1B2" rx="11" ry="11" style="stroke:#181818;stroke-width:1.0;"/><path d="M469.0469,666.875 L470.5,666.875 L470.5,666.9844 C470.5,667.3906 470.5313,667.5469 470.6094,667.7031 C470.7656,667.9531 471.0469,668.1094 471.3438,668.1094 C471.5938,668.1094 471.8594,667.9688 472.0156,667.75 C472.1406,667.5938 472.1719,667.4375 472.1719,666.9844 L472.1719,665.0625 C472.1719,664.9063 472.1719,664.8594 472.1563,664.7031 C472.0938,664.2344 471.7813,663.9219 471.3281,663.9219 C471.0781,663.9219 470.8125,664.0625 470.6406,664.2813 C470.5313,664.4531 470.5,664.6094 470.5,665.0625 L470.5,665.1875 L469.0469,665.1875 L469.0469,662.7813 L473.0313,662.7813 L473.0313,663.6406 C473.0313,664.0469 473.0625,664.2188 473.1406,664.375 C473.3125,664.625 473.5938,664.7813 473.875,664.7813 C474.1406,664.7813 474.4063,664.6406 474.5781,664.4219 C474.6875,664.25 474.7188,664.1094 474.7188,663.6406 L474.7188,661.0938 L467.0938,661.0938 C466.6563,661.0938 466.5313,661.1094 466.375,661.2031 C466.125,661.3594 465.9688,661.6563 465.9688,661.9375 C465.9688,662.2188 466.1094,662.4688 466.3281,662.6406 C466.4844,662.75 466.6719,662.7813 467.0938,662.7813 L467.3438,662.7813 L467.3438,669.2969 L467.0938,669.2969 C466.6875,669.2969 466.5313,669.3125 466.375,669.4219 C466.125,669.5938 465.9688,669.8594 465.9688,670.1563 C465.9688,670.4219 466.1094,670.6719 466.3281,670.8281 C466.4688,670.9531 466.7031,671 467.0938,671 L475.0938,671 L475.0938,668.4219 C475.0938,667.9844 475.0625,667.8438 474.9844,667.6875 C474.8125,667.4375 474.5313,667.2813 474.25,667.2813 C473.9844,667.2813 473.7188,667.3906 473.5469,667.6406 C473.4375,667.7969 473.4063,667.9375 473.4063,668.4219 L473.4063,669.2969 L469.0469,669.2969 L469.0469,666.875 Z " fill="#000000"/><text fill="#000000" font-family="sans-serif" font-size="14" lengthAdjust="spacing" textLength="42" x="490.75" y="670.8467">Pistas</text><line style="stroke:#181818;stroke-width:0.5;" x1="424" x2="567" y1="682" y2="682"/><ellipse cx="434" cy="695.6484" fill="none" rx="3" ry="3" style="stroke:#038048;stroke-width:1.0;"/><text fill="#000000" font-family="sans-serif" font-size="14" lengthAdjust="spacing" textLength="119" x="443" y="698.9951">nombre: "Padel"</text><ellipse cx="434" cy="711.9453" fill="none" rx="3" ry="3" style="stroke:#038048;stroke-width:1.0;"/><text fill="#000000" font-family="sans-serif" font-size="14" lengthAdjust="spacing" textLength="98" x="443" y="715.292">capacidad "4"</text><line style="stroke:#181818;stroke-width:0.5;" x1="424" x2="567" y1="722.5938" y2="722.5938"/></g><!--class Padel--><g id="elem_Padel"><rect codeLine="6" fill="#F1F1F1" height="64.2969" id="Padel" rx="2.5" ry="2.5" style="stroke:#181818;stroke-width:0.5;" width="184" x="433.5" y="854"/><ellipse cx="501.75" cy="870" fill="#ADD1B2" rx="11" ry="11" style="stroke:#181818;stroke-width:1.0;"/><path d="M500.5469,870.875 L502,870.875 L502,870.9844 C502,871.3906 502.0313,871.5469 502.1094,871.7031 C502.2656,871.9531 502.5469,872.1094 502.8438,872.1094 C503.0938,872.1094 503.3594,871.9688 503.5156,871.75 C503.6406,871.5938 503.6719,871.4375 503.6719,870.9844 L503.6719,869.0625 C503.6719,868.9063 503.6719,868.8594 503.6563,868.7031 C503.5938,868.2344 503.2813,867.9219 502.8281,867.9219 C502.5781,867.9219 502.3125,868.0625 502.1406,868.2813 C502.0313,868.4531 502,868.6094 502,869.0625 L502,869.1875 L500.5469,869.1875 L500.5469,866.7813 L504.5313,866.7813 L504.5313,867.6406 C504.5313,868.0469 504.5625,868.2188 504.6406,868.375 C504.8125,868.625 505.0938,868.7813 505.375,868.7813 C505.6406,868.7813 505.9063,868.6406 506.0781,868.4219 C506.1875,868.25 506.2188,868.1094 506.2188,867.6406 L506.2188,865.0938 L498.5938,865.0938 C498.1563,865.0938 498.0313,865.1094 497.875,865.2031 C497.625,865.3594 497.4688,865.6563 497.4688,865.9375 C497.4688,866.2188 497.6094,866.4688 497.8281,866.6406 C497.9844,866.75 498.1719,866.7813 498.5938,866.7813 L498.8438,866.7813 L498.8438,873.2969 L498.5938,873.2969 C498.1875,873.2969 498.0313,873.3125 497.875,873.4219 C497.625,873.5938 497.4688,873.8594 497.4688,874.1563 C497.4688,874.4219 497.6094,874.6719 497.8281,874.8281 C497.9688,874.9531 498.2031,875 498.5938,875 L506.5938,875 L506.5938,872.4219 C506.5938,871.9844 506.5625,871.8438 506.4844,871.6875 C506.3125,871.4375 506.0313,871.2813 505.75,871.2813 C505.4844,871.2813 505.2188,871.3906 505.0469,871.6406 C504.9375,871.7969 504.9063,871.9375 504.9063,872.4219 L504.9063,873.2969 L500.5469,873.2969 L500.5469,870.875 Z " fill="#000000"/><text fill="#000000" font-family="sans-serif" font-size="14" lengthAdjust="spacing" textLength="39" x="522.25" y="874.8467">Padel</text><line style="stroke:#181818;stroke-width:0.5;" x1="434.5" x2="616.5" y1="886" y2="886"/><ellipse cx="444.5" cy="899.6484" fill="none" rx="3" ry="3" style="stroke:#038048;stroke-width:1.0;"/><text fill="#000000" font-family="sans-serif" font-size="14" lengthAdjust="spacing" textLength="158" x="453.5" y="902.9951">CapasidadMaxima: "4"</text><line style="stroke:#181818;stroke-width:0.5;" x1="434.5" x2="616.5" y1="910.2969" y2="910.2969"/></g><!--class Calendario--><g id="elem_Calendario"><rect codeLine="12" fill="#F1F1F1" height="64.2969" id="Calendario" rx="2.5" ry="2.5" style="stroke:#181818;stroke-width:0.5;" width="144" x="348.5" y="1260"/><ellipse cx="379.7" cy="1276" fill="#ADD1B2" rx="11" ry="11" style="stroke:#181818;stroke-width:1.0;"/><path d="M378.4969,1276.875 L379.95,1276.875 L379.95,1276.9844 C379.95,1277.3906 379.9813,1277.5469 380.0594,1277.7031 C380.2156,1277.9531 380.4969,1278.1094 380.7938,1278.1094 C381.0438,1278.1094 381.3094,1277.9688 381.4656,1277.75 C381.5906,1277.5938 381.6219,1277.4375 381.6219,1276.9844 L381.6219,1275.0625 C381.6219,1274.9063 381.6219,1274.8594 381.6063,1274.7031 C381.5438,1274.2344 381.2313,1273.9219 380.7781,1273.9219 C380.5281,1273.9219 380.2625,1274.0625 380.0906,1274.2813 C379.9813,1274.4531 379.95,1274.6094 379.95,1275.0625 L379.95,1275.1875 L378.4969,1275.1875 L378.4969,1272.7813 L382.4813,1272.7813 L382.4813,1273.6406 C382.4813,1274.0469 382.5125,1274.2188 382.5906,1274.375 C382.7625,1274.625 383.0438,1274.7813 383.325,1274.7813 C383.5906,1274.7813 383.8563,1274.6406 384.0281,1274.4219 C384.1375,1274.25 384.1688,1274.1094 384.1688,1273.6406 L384.1688,1271.0938 L376.5438,1271.0938 C376.1063,1271.0938 375.9813,1271.1094 375.825,1271.2031 C375.575,1271.3594 375.4188,1271.6563 375.4188,1271.9375 C375.4188,1272.2188 375.5594,1272.4688 375.7781,1272.6406 C375.9344,1272.75 376.1219,1272.7813 376.5438,1272.7813 L376.7938,1272.7813 L376.7938,1279.2969 L376.5438,1279.2969 C376.1375,1279.2969 375.9813,1279.3125 375.825,1279.4219 C375.575,1279.5938 375.4188,1279.8594 375.4188,1280.1563 C375.4188,1280.4219 375.5594,1280.6719 375.7781,1280.8281 C375.9188,1280.9531 376.1531,1281 376.5438,1281 L384.5438,1281 L384.5438,1278.4219 C384.5438,1277.9844 384.5125,1277.8438 384.4344,1277.6875 C384.2625,1277.4375 383.9813,1277.2813 383.7,1277.2813 C383.4344,1277.2813 383.1688,1277.3906 382.9969,1277.6406 C382.8875,1277.7969 382.8563,1277.9375 382.8563,1278.4219 L382.8563,1279.2969 L378.4969,1279.2969 L378.4969,1276.875 Z " fill="#000000"/><text fill="#000000" font-family="sans-serif" font-size="14" lengthAdjust="spacing" textLength="76" x="397.3" y="1280.8467">Calendario</text><line style="stroke:#181818;stroke-width:0.5;" x1="349.5" x2="491.5" y1="1292" y2="1292"/><ellipse cx="359.5" cy="1305.6484" fill="none" rx="3" ry="3" style="stroke:#038048;stroke-width:1.0;"/><text fill="#000000" font-family="sans-serif" font-size="14" lengthAdjust="spacing" textLength="118" x="368.5" y="1308.9951">eventos: "Libre"</text><line style="stroke:#181818;stroke-width:0.5;" x1="349.5" x2="491.5" y1="1316.2969" y2="1316.2969"/></g><!--class Usuario--><g id="elem_Usuario"><rect codeLine="16" fill="#F1F1F1" height="96.8906" id="Usuario" rx="2.5" ry="2.5" style="stroke:#181818;stroke-width:0.5;" width="333" x="230" y="194"/><ellipse cx="366.75" cy="210" fill="#ADD1B2" rx="11" ry="11" style="stroke:#181818;stroke-width:1.0;"/><path d="M365.5469,210.875 L367,210.875 L367,210.9844 C367,211.3906 367.0313,211.5469 367.1094,211.7031 C367.2656,211.9531 367.5469,212.1094 367.8438,212.1094 C368.0938,212.1094 368.3594,211.9688 368.5156,211.75 C368.6406,211.5938 368.6719,211.4375 368.6719,210.9844 L368.6719,209.0625 C368.6719,208.9063 368.6719,208.8594 368.6563,208.7031 C368.5938,208.2344 368.2813,207.9219 367.8281,207.9219 C367.5781,207.9219 367.3125,208.0625 367.1406,208.2813 C367.0313,208.4531 367,208.6094 367,209.0625 L367,209.1875 L365.5469,209.1875 L365.5469,206.7813 L369.5313,206.7813 L369.5313,207.6406 C369.5313,208.0469 369.5625,208.2188 369.6406,208.375 C369.8125,208.625 370.0938,208.7813 370.375,208.7813 C370.6406,208.7813 370.9063,208.6406 371.0781,208.4219 C371.1875,208.25 371.2188,208.1094 371.2188,207.6406 L371.2188,205.0938 L363.5938,205.0938 C363.1563,205.0938 363.0313,205.1094 362.875,205.2031 C362.625,205.3594 362.4688,205.6563 362.4688,205.9375 C362.4688,206.2188 362.6094,206.4688 362.8281,206.6406 C362.9844,206.75 363.1719,206.7813 363.5938,206.7813 L363.8438,206.7813 L363.8438,213.2969 L363.5938,213.2969 C363.1875,213.2969 363.0313,213.3125 362.875,213.4219 C362.625,213.5938 362.4688,213.8594 362.4688,214.1563 C362.4688,214.4219 362.6094,214.6719 362.8281,214.8281 C362.9688,214.9531 363.2031,215 363.5938,215 L371.5938,215 L371.5938,212.4219 C371.5938,211.9844 371.5625,211.8438 371.4844,211.6875 C371.3125,211.4375 371.0313,211.2813 370.75,211.2813 C370.4844,211.2813 370.2188,211.3906 370.0469,211.6406 C369.9375,211.7969 369.9063,211.9375 369.9063,212.4219 L369.9063,213.2969 L365.5469,213.2969 L365.5469,210.875 Z " fill="#000000"/><text fill="#000000" font-family="sans-serif" font-size="14" lengthAdjust="spacing" textLength="51" x="387.25" y="214.8467">Usuario</text><line style="stroke:#181818;stroke-width:0.5;" x1="231" x2="562" y1="226" y2="226"/><ellipse cx="241" cy="239.6484" fill="none" rx="3" ry="3" style="stroke:#038048;stroke-width:1.0;"/><text fill="#000000" font-family="sans-serif" font-size="14" lengthAdjust="spacing" textLength="131" x="250" y="242.9951">nombre: "JonDoe"</text><ellipse cx="241" cy="255.9453" fill="none" rx="3" ry="3" style="stroke:#038048;stroke-width:1.0;"/><text fill="#000000" font-family="sans-serif" font-size="14" lengthAdjust="spacing" textLength="307" x="250" y="259.292">email: "Jon.Doe@alumnos.unetalantico.es"</text><ellipse cx="241" cy="272.2422" fill="none" rx="3" ry="3" style="stroke:#038048;stroke-width:1.0;"/><text fill="#000000" font-family="sans-serif" font-size="14" lengthAdjust="spacing" textLength="191" x="250" y="275.5889">telefono:"+34 123456789"</text><line style="stroke:#181818;stroke-width:0.5;" x1="231" x2="562" y1="282.8906" y2="282.8906"/></g><!--class Pagos--><g id="elem_Pagos"><rect codeLine="22" fill="#F1F1F1" height="80.5938" id="Pagos" rx="2.5" ry="2.5" style="stroke:#181818;stroke-width:0.5;" width="292" x="645.5" y="202"/><ellipse cx="766.25" cy="218" fill="#ADD1B2" rx="11" ry="11" style="stroke:#181818;stroke-width:1.0;"/><path d="M765.0469,218.875 L766.5,218.875 L766.5,218.9844 C766.5,219.3906 766.5313,219.5469 766.6094,219.7031 C766.7656,219.9531 767.0469,220.1094 767.3438,220.1094 C767.5938,220.1094 767.8594,219.9688 768.0156,219.75 C768.1406,219.5938 768.1719,219.4375 768.1719,218.9844 L768.1719,217.0625 C768.1719,216.9063 768.1719,216.8594 768.1563,216.7031 C768.0938,216.2344 767.7813,215.9219 767.3281,215.9219 C767.0781,215.9219 766.8125,216.0625 766.6406,216.2813 C766.5313,216.4531 766.5,216.6094 766.5,217.0625 L766.5,217.1875 L765.0469,217.1875 L765.0469,214.7813 L769.0313,214.7813 L769.0313,215.6406 C769.0313,216.0469 769.0625,216.2188 769.1406,216.375 C769.3125,216.625 769.5938,216.7813 769.875,216.7813 C770.1406,216.7813 770.4063,216.6406 770.5781,216.4219 C770.6875,216.25 770.7188,216.1094 770.7188,215.6406 L770.7188,213.0938 L763.0938,213.0938 C762.6563,213.0938 762.5313,213.1094 762.375,213.2031 C762.125,213.3594 761.9688,213.6563 761.9688,213.9375 C761.9688,214.2188 762.1094,214.4688 762.3281,214.6406 C762.4844,214.75 762.6719,214.7813 763.0938,214.7813 L763.3438,214.7813 L763.3438,221.2969 L763.0938,221.2969 C762.6875,221.2969 762.5313,221.3125 762.375,221.4219 C762.125,221.5938 761.9688,221.8594 761.9688,222.1563 C761.9688,222.4219 762.1094,222.6719 762.3281,222.8281 C762.4688,222.9531 762.7031,223 763.0938,223 L771.0938,223 L771.0938,220.4219 C771.0938,219.9844 771.0625,219.8438 770.9844,219.6875 C770.8125,219.4375 770.5313,219.2813 770.25,219.2813 C769.9844,219.2813 769.7188,219.3906 769.5469,219.6406 C769.4375,219.7969 769.4063,219.9375 769.4063,220.4219 L769.4063,221.2969 L765.0469,221.2969 L765.0469,218.875 Z " fill="#000000"/><text fill="#000000" font-family="sans-serif" font-size="14" lengthAdjust="spacing" textLength="42" x="786.75" y="222.8467">Pagos</text><line style="stroke:#181818;stroke-width:0.5;" x1="646.5" x2="936.5" y1="234" y2="234"/><ellipse cx="656.5" cy="247.6484" fill="none" rx="3" ry="3" style="stroke:#038048;stroke-width:1.0;"/><text fill="#000000" font-family="sans-serif" font-size="14" lengthAdjust="spacing" textLength="266" x="665.5" y="250.9951">metodoDePago: "Trajeta de Credito"</text><ellipse cx="656.5" cy="263.9453" fill="none" rx="3" ry="3" style="stroke:#038048;stroke-width:1.0;"/><text fill="#000000" font-family="sans-serif" font-size="14" lengthAdjust="spacing" textLength="88" x="665.5" y="267.292">monto: "8&#8364;"</text><line style="stroke:#181818;stroke-width:0.5;" x1="646.5" x2="936.5" y1="274.5938" y2="274.5938"/></g><!--class Factura--><g id="elem_Factura"><rect codeLine="27" fill="#F1F1F1" height="80.5938" id="Factura" rx="2.5" ry="2.5" style="stroke:#181818;stroke-width:0.5;" width="228" x="582.5" y="430"/><ellipse cx="665.75" cy="446" fill="#ADD1B2" rx="11" ry="11" style="stroke:#181818;stroke-width:1.0;"/><path d="M664.5469,446.875 L666,446.875 L666,446.9844 C666,447.3906 666.0313,447.5469 666.1094,447.7031 C666.2656,447.9531 666.5469,448.1094 666.8438,448.1094 C667.0938,448.1094 667.3594,447.9688 667.5156,447.75 C667.6406,447.5938 667.6719,447.4375 667.6719,446.9844 L667.6719,445.0625 C667.6719,444.9063 667.6719,444.8594 667.6563,444.7031 C667.5938,444.2344 667.2813,443.9219 666.8281,443.9219 C666.5781,443.9219 666.3125,444.0625 666.1406,444.2813 C666.0313,444.4531 666,444.6094 666,445.0625 L666,445.1875 L664.5469,445.1875 L664.5469,442.7813 L668.5313,442.7813 L668.5313,443.6406 C668.5313,444.0469 668.5625,444.2188 668.6406,444.375 C668.8125,444.625 669.0938,444.7813 669.375,444.7813 C669.6406,444.7813 669.9063,444.6406 670.0781,444.4219 C670.1875,444.25 670.2188,444.1094 670.2188,443.6406 L670.2188,441.0938 L662.5938,441.0938 C662.1563,441.0938 662.0313,441.1094 661.875,441.2031 C661.625,441.3594 661.4688,441.6563 661.4688,441.9375 C661.4688,442.2188 661.6094,442.4688 661.8281,442.6406 C661.9844,442.75 662.1719,442.7813 662.5938,442.7813 L662.8438,442.7813 L662.8438,449.2969 L662.5938,449.2969 C662.1875,449.2969 662.0313,449.3125 661.875,449.4219 C661.625,449.5938 661.4688,449.8594 661.4688,450.1563 C661.4688,450.4219 661.6094,450.6719 661.8281,450.8281 C661.9688,450.9531 662.2031,451 662.5938,451 L670.5938,451 L670.5938,448.4219 C670.5938,447.9844 670.5625,447.8438 670.4844,447.6875 C670.3125,447.4375 670.0313,447.2813 669.75,447.2813 C669.4844,447.2813 669.2188,447.3906 669.0469,447.6406 C668.9375,447.7969 668.9063,447.9375 668.9063,448.4219 L668.9063,449.2969 L664.5469,449.2969 L664.5469,446.875 Z " fill="#000000"/><text fill="#000000" font-family="sans-serif" font-size="14" lengthAdjust="spacing" textLength="53" x="686.25" y="450.8467">Factura</text><line style="stroke:#181818;stroke-width:0.5;" x1="583.5" x2="809.5" y1="462" y2="462"/><ellipse cx="593.5" cy="475.6484" fill="none" rx="3" ry="3" style="stroke:#038048;stroke-width:1.0;"/><text fill="#000000" font-family="sans-serif" font-size="14" lengthAdjust="spacing" textLength="202" x="602.5" y="478.9951">fechaEmision: "01/01/2024 "</text><ellipse cx="593.5" cy="491.9453" fill="none" rx="3" ry="3" style="stroke:#038048;stroke-width:1.0;"/><text fill="#000000" font-family="sans-serif" font-size="14" lengthAdjust="spacing" textLength="75" x="602.5" y="495.292">total: "8&#8364;"</text><line style="stroke:#181818;stroke-width:0.5;" x1="583.5" x2="809.5" y1="502.5938" y2="502.5938"/></g><!--class Tarifas--><g id="elem_Tarifas"><rect codeLine="32" fill="#F1F1F1" height="64.2969" id="Tarifas" rx="2.5" ry="2.5" style="stroke:#181818;stroke-width:0.5;" width="141" x="640" y="658.5"/><ellipse cx="682.45" cy="674.5" fill="#ADD1B2" rx="11" ry="11" style="stroke:#181818;stroke-width:1.0;"/><path d="M681.2469,675.375 L682.7,675.375 L682.7,675.4844 C682.7,675.8906 682.7313,676.0469 682.8094,676.2031 C682.9656,676.4531 683.2469,676.6094 683.5438,676.6094 C683.7938,676.6094 684.0594,676.4688 684.2156,676.25 C684.3406,676.0938 684.3719,675.9375 684.3719,675.4844 L684.3719,673.5625 C684.3719,673.4063 684.3719,673.3594 684.3563,673.2031 C684.2938,672.7344 683.9813,672.4219 683.5281,672.4219 C683.2781,672.4219 683.0125,672.5625 682.8406,672.7813 C682.7313,672.9531 682.7,673.1094 682.7,673.5625 L682.7,673.6875 L681.2469,673.6875 L681.2469,671.2813 L685.2313,671.2813 L685.2313,672.1406 C685.2313,672.5469 685.2625,672.7188 685.3406,672.875 C685.5125,673.125 685.7938,673.2813 686.075,673.2813 C686.3406,673.2813 686.6063,673.1406 686.7781,672.9219 C686.8875,672.75 686.9188,672.6094 686.9188,672.1406 L686.9188,669.5938 L679.2938,669.5938 C678.8563,669.5938 678.7313,669.6094 678.575,669.7031 C678.325,669.8594 678.1688,670.1563 678.1688,670.4375 C678.1688,670.7188 678.3094,670.9688 678.5281,671.1406 C678.6844,671.25 678.8719,671.2813 679.2938,671.2813 L679.5438,671.2813 L679.5438,677.7969 L679.2938,677.7969 C678.8875,677.7969 678.7313,677.8125 678.575,677.9219 C678.325,678.0938 678.1688,678.3594 678.1688,678.6563 C678.1688,678.9219 678.3094,679.1719 678.5281,679.3281 C678.6688,679.4531 678.9031,679.5 679.2938,679.5 L687.2938,679.5 L687.2938,676.9219 C687.2938,676.4844 687.2625,676.3438 687.1844,676.1875 C687.0125,675.9375 686.7313,675.7813 686.45,675.7813 C686.1844,675.7813 685.9188,675.8906 685.7469,676.1406 C685.6375,676.2969 685.6063,676.4375 685.6063,676.9219 L685.6063,677.7969 L681.2469,677.7969 L681.2469,675.375 Z " fill="#000000"/><text fill="#000000" font-family="sans-serif" font-size="14" lengthAdjust="spacing" textLength="48" x="702.55" y="679.3467">Tarifas</text><line style="stroke:#181818;stroke-width:0.5;" x1="641" x2="780" y1="690.5" y2="690.5"/><ellipse cx="651" cy="704.1484" fill="none" rx="3" ry="3" style="stroke:#038048;stroke-width:1.0;"/><text fill="#000000" font-family="sans-serif" font-size="14" lengthAdjust="spacing" textLength="115" x="660" y="707.4951">precioHora:"8&#8364;"</text><line style="stroke:#181818;stroke-width:0.5;" x1="641" x2="780" y1="714.7969" y2="714.7969"/></g><!--class Disponibilidad--><g id="elem_Disponibilidad"><rect codeLine="36" fill="#F1F1F1" height="64.2969" id="Disponibilidad" rx="2.5" ry="2.5" style="stroke:#181818;stroke-width:0.5;" width="264" x="405.5" y="1057"/><ellipse cx="482.25" cy="1073" fill="#ADD1B2" rx="11" ry="11" style="stroke:#181818;stroke-width:1.0;"/><path d="M481.0469,1073.875 L482.5,1073.875 L482.5,1073.9844 C482.5,1074.3906 482.5313,1074.5469 482.6094,1074.7031 C482.7656,1074.9531 483.0469,1075.1094 483.3438,1075.1094 C483.5938,1075.1094 483.8594,1074.9688 484.0156,1074.75 C484.1406,1074.5938 484.1719,1074.4375 484.1719,1073.9844 L484.1719,1072.0625 C484.1719,1071.9063 484.1719,1071.8594 484.1563,1071.7031 C484.0938,1071.2344 483.7813,1070.9219 483.3281,1070.9219 C483.0781,1070.9219 482.8125,1071.0625 482.6406,1071.2813 C482.5313,1071.4531 482.5,1071.6094 482.5,1072.0625 L482.5,1072.1875 L481.0469,1072.1875 L481.0469,1069.7813 L485.0313,1069.7813 L485.0313,1070.6406 C485.0313,1071.0469 485.0625,1071.2188 485.1406,1071.375 C485.3125,1071.625 485.5938,1071.7813 485.875,1071.7813 C486.1406,1071.7813 486.4063,1071.6406 486.5781,1071.4219 C486.6875,1071.25 486.7188,1071.1094 486.7188,1070.6406 L486.7188,1068.0938 L479.0938,1068.0938 C478.6563,1068.0938 478.5313,1068.1094 478.375,1068.2031 C478.125,1068.3594 477.9688,1068.6563 477.9688,1068.9375 C477.9688,1069.2188 478.1094,1069.4688 478.3281,1069.6406 C478.4844,1069.75 478.6719,1069.7813 479.0938,1069.7813 L479.3438,1069.7813 L479.3438,1076.2969 L479.0938,1076.2969 C478.6875,1076.2969 478.5313,1076.3125 478.375,1076.4219 C478.125,1076.5938 477.9688,1076.8594 477.9688,1077.1563 C477.9688,1077.4219 478.1094,1077.6719 478.3281,1077.8281 C478.4688,1077.9531 478.7031,1078 479.0938,1078 L487.0938,1078 L487.0938,1075.4219 C487.0938,1074.9844 487.0625,1074.8438 486.9844,1074.6875 C486.8125,1074.4375 486.5313,1074.2813 486.25,1074.2813 C485.9844,1074.2813 485.7188,1074.3906 485.5469,1074.6406 C485.4375,1074.7969 485.4063,1074.9375 485.4063,1075.4219 L485.4063,1076.2969 L481.0469,1076.2969 L481.0469,1073.875 Z " fill="#000000"/><text fill="#000000" font-family="sans-serif" font-size="14" lengthAdjust="spacing" textLength="102" x="502.75" y="1077.8467">Disponibilidad</text><line style="stroke:#181818;stroke-width:0.5;" x1="406.5" x2="668.5" y1="1089" y2="1089"/><ellipse cx="416.5" cy="1102.6484" fill="none" rx="3" ry="3" style="stroke:#038048;stroke-width:1.0;"/><text fill="#000000" font-family="sans-serif" font-size="14" lengthAdjust="spacing" textLength="238" x="425.5" y="1105.9951">horasDisponibles:"10:00 - 19:00"</text><line style="stroke:#181818;stroke-width:0.5;" x1="406.5" x2="668.5" y1="1113.2969" y2="1113.2969"/></g><!--class Reserva--><g id="elem_Reserva"><rect codeLine="40" fill="#F1F1F1" height="80.5938" id="Reserva" rx="2.5" ry="2.5" style="stroke:#181818;stroke-width:0.5;" width="168" x="312.5" y="430"/><ellipse cx="363.75" cy="446" fill="#ADD1B2" rx="11" ry="11" style="stroke:#181818;stroke-width:1.0;"/><path d="M362.5469,446.875 L364,446.875 L364,446.9844 C364,447.3906 364.0313,447.5469 364.1094,447.7031 C364.2656,447.9531 364.5469,448.1094 364.8438,448.1094 C365.0938,448.1094 365.3594,447.9688 365.5156,447.75 C365.6406,447.5938 365.6719,447.4375 365.6719,446.9844 L365.6719,445.0625 C365.6719,444.9063 365.6719,444.8594 365.6563,444.7031 C365.5938,444.2344 365.2813,443.9219 364.8281,443.9219 C364.5781,443.9219 364.3125,444.0625 364.1406,444.2813 C364.0313,444.4531 364,444.6094 364,445.0625 L364,445.1875 L362.5469,445.1875 L362.5469,442.7813 L366.5313,442.7813 L366.5313,443.6406 C366.5313,444.0469 366.5625,444.2188 366.6406,444.375 C366.8125,444.625 367.0938,444.7813 367.375,444.7813 C367.6406,444.7813 367.9063,444.6406 368.0781,444.4219 C368.1875,444.25 368.2188,444.1094 368.2188,443.6406 L368.2188,441.0938 L360.5938,441.0938 C360.1563,441.0938 360.0313,441.1094 359.875,441.2031 C359.625,441.3594 359.4688,441.6563 359.4688,441.9375 C359.4688,442.2188 359.6094,442.4688 359.8281,442.6406 C359.9844,442.75 360.1719,442.7813 360.5938,442.7813 L360.8438,442.7813 L360.8438,449.2969 L360.5938,449.2969 C360.1875,449.2969 360.0313,449.3125 359.875,449.4219 C359.625,449.5938 359.4688,449.8594 359.4688,450.1563 C359.4688,450.4219 359.6094,450.6719 359.8281,450.8281 C359.9688,450.9531 360.2031,451 360.5938,451 L368.5938,451 L368.5938,448.4219 C368.5938,447.9844 368.5625,447.8438 368.4844,447.6875 C368.3125,447.4375 368.0313,447.2813 367.75,447.2813 C367.4844,447.2813 367.2188,447.3906 367.0469,447.6406 C366.9375,447.7969 366.9063,447.9375 366.9063,448.4219 L366.9063,449.2969 L362.5469,449.2969 L362.5469,446.875 Z " fill="#000000"/><text fill="#000000" font-family="sans-serif" font-size="14" lengthAdjust="spacing" textLength="57" x="384.25" y="450.8467">Reserva</text><line style="stroke:#181818;stroke-width:0.5;" x1="313.5" x2="479.5" y1="462" y2="462"/><ellipse cx="323.5" cy="475.6484" fill="none" rx="3" ry="3" style="stroke:#038048;stroke-width:1.0;"/><text fill="#000000" font-family="sans-serif" font-size="14" lengthAdjust="spacing" textLength="142" x="332.5" y="478.9951">fechaInicio: "10:00"</text><ellipse cx="323.5" cy="491.9453" fill="none" rx="3" ry="3" style="stroke:#038048;stroke-width:1.0;"/><text fill="#000000" font-family="sans-serif" font-size="14" lengthAdjust="spacing" textLength="121" x="332.5" y="495.292">fechaFin:"11:00"</text><line style="stroke:#181818;stroke-width:0.5;" x1="313.5" x2="479.5" y1="502.5938" y2="502.5938"/></g><!--class CancelarReserva--><g id="elem_CancelarReserva"><rect codeLine="45" fill="#F1F1F1" height="48" id="CancelarReserva" rx="2.5" ry="2.5" style="stroke:#181818;stroke-width:0.5;" width="151" x="7" y="446.5"/><ellipse cx="22" cy="462.5" fill="#ADD1B2" rx="11" ry="11" style="stroke:#181818;stroke-width:1.0;"/><path d="M20.7969,463.375 L22.25,463.375 L22.25,463.4844 C22.25,463.8906 22.2813,464.0469 22.3594,464.2031 C22.5156,464.4531 22.7969,464.6094 23.0938,464.6094 C23.3438,464.6094 23.6094,464.4688 23.7656,464.25 C23.8906,464.0938 23.9219,463.9375 23.9219,463.4844 L23.9219,461.5625 C23.9219,461.4063 23.9219,461.3594 23.9063,461.2031 C23.8438,460.7344 23.5313,460.4219 23.0781,460.4219 C22.8281,460.4219 22.5625,460.5625 22.3906,460.7813 C22.2813,460.9531 22.25,461.1094 22.25,461.5625 L22.25,461.6875 L20.7969,461.6875 L20.7969,459.2813 L24.7813,459.2813 L24.7813,460.1406 C24.7813,460.5469 24.8125,460.7188 24.8906,460.875 C25.0625,461.125 25.3438,461.2813 25.625,461.2813 C25.8906,461.2813 26.1563,461.1406 26.3281,460.9219 C26.4375,460.75 26.4688,460.6094 26.4688,460.1406 L26.4688,457.5938 L18.8438,457.5938 C18.4063,457.5938 18.2813,457.6094 18.125,457.7031 C17.875,457.8594 17.7188,458.1563 17.7188,458.4375 C17.7188,458.7188 17.8594,458.9688 18.0781,459.1406 C18.2344,459.25 18.4219,459.2813 18.8438,459.2813 L19.0938,459.2813 L19.0938,465.7969 L18.8438,465.7969 C18.4375,465.7969 18.2813,465.8125 18.125,465.9219 C17.875,466.0938 17.7188,466.3594 17.7188,466.6563 C17.7188,466.9219 17.8594,467.1719 18.0781,467.3281 C18.2188,467.4531 18.4531,467.5 18.8438,467.5 L26.8438,467.5 L26.8438,464.9219 C26.8438,464.4844 26.8125,464.3438 26.7344,464.1875 C26.5625,463.9375 26.2813,463.7813 26,463.7813 C25.7344,463.7813 25.4688,463.8906 25.2969,464.1406 C25.1875,464.2969 25.1563,464.4375 25.1563,464.9219 L25.1563,465.7969 L20.7969,465.7969 L20.7969,463.375 Z " fill="#000000"/><text fill="#000000" font-family="sans-serif" font-size="14" lengthAdjust="spacing" textLength="119" x="36" y="467.3467">CancelarReserva</text><line style="stroke:#181818;stroke-width:0.5;" x1="8" x2="157" y1="478.5" y2="478.5"/><line style="stroke:#181818;stroke-width:0.5;" x1="8" x2="157" y1="486.5" y2="486.5"/></g><!--class Fecha--><g id="elem_Fecha"><rect codeLine="48" fill="#F1F1F1" height="96.8906" id="Fecha" rx="2.5" ry="2.5" style="stroke:#181818;stroke-width:0.5;" width="108" x="286.5" y="1447"/><ellipse cx="316.8" cy="1463" fill="#ADD1B2" rx="11" ry="11" style="stroke:#181818;stroke-width:1.0;"/><path d="M315.5969,1463.875 L317.05,1463.875 L317.05,1463.9844 C317.05,1464.3906 317.0813,1464.5469 317.1594,1464.7031 C317.3156,1464.9531 317.5969,1465.1094 317.8938,1465.1094 C318.1438,1465.1094 318.4094,1464.9688 318.5656,1464.75 C318.6906,1464.5938 318.7219,1464.4375 318.7219,1463.9844 L318.7219,1462.0625 C318.7219,1461.9063 318.7219,1461.8594 318.7063,1461.7031 C318.6438,1461.2344 318.3313,1460.9219 317.8781,1460.9219 C317.6281,1460.9219 317.3625,1461.0625 317.1906,1461.2813 C317.0813,1461.4531 317.05,1461.6094 317.05,1462.0625 L317.05,1462.1875 L315.5969,1462.1875 L315.5969,1459.7813 L319.5813,1459.7813 L319.5813,1460.6406 C319.5813,1461.0469 319.6125,1461.2188 319.6906,1461.375 C319.8625,1461.625 320.1438,1461.7813 320.425,1461.7813 C320.6906,1461.7813 320.9563,1461.6406 321.1281,1461.4219 C321.2375,1461.25 321.2688,1461.1094 321.2688,1460.6406 L321.2688,1458.0938 L313.6438,1458.0938 C313.2063,1458.0938 313.0813,1458.1094 312.925,1458.2031 C312.675,1458.3594 312.5188,1458.6563 312.5188,1458.9375 C312.5188,1459.2188 312.6594,1459.4688 312.8781,1459.6406 C313.0344,1459.75 313.2219,1459.7813 313.6438,1459.7813 L313.8938,1459.7813 L313.8938,1466.2969 L313.6438,1466.2969 C313.2375,1466.2969 313.0813,1466.3125 312.925,1466.4219 C312.675,1466.5938 312.5188,1466.8594 312.5188,1467.1563 C312.5188,1467.4219 312.6594,1467.6719 312.8781,1467.8281 C313.0188,1467.9531 313.2531,1468 313.6438,1468 L321.6438,1468 L321.6438,1465.4219 C321.6438,1464.9844 321.6125,1464.8438 321.5344,1464.6875 C321.3625,1464.4375 321.0813,1464.2813 320.8,1464.2813 C320.5344,1464.2813 320.2688,1464.3906 320.0969,1464.6406 C319.9875,1464.7969 319.9563,1464.9375 319.9563,1465.4219 L319.9563,1466.2969 L315.5969,1466.2969 L315.5969,1463.875 Z " fill="#000000"/><text fill="#000000" font-family="sans-serif" font-size="14" lengthAdjust="spacing" textLength="42" x="334.2" y="1467.8467">Fecha</text><line style="stroke:#181818;stroke-width:0.5;" x1="287.5" x2="393.5" y1="1479" y2="1479"/><ellipse cx="297.5" cy="1492.6484" fill="none" rx="3" ry="3" style="stroke:#038048;stroke-width:1.0;"/><text fill="#000000" font-family="sans-serif" font-size="14" lengthAdjust="spacing" textLength="61" x="306.5" y="1495.9951">dia: "08"</text><ellipse cx="297.5" cy="1508.9453" fill="none" rx="3" ry="3" style="stroke:#038048;stroke-width:1.0;"/><text fill="#000000" font-family="sans-serif" font-size="14" lengthAdjust="spacing" textLength="71" x="306.5" y="1512.292">mes: "01"</text><ellipse cx="297.5" cy="1525.2422" fill="none" rx="3" ry="3" style="stroke:#038048;stroke-width:1.0;"/><text fill="#000000" font-family="sans-serif" font-size="14" lengthAdjust="spacing" textLength="82" x="306.5" y="1528.5889">a&#241;o: "2024"</text><line style="stroke:#181818;stroke-width:0.5;" x1="287.5" x2="393.5" y1="1535.8906" y2="1535.8906"/></g><!--class Horas--><g id="elem_Horas"><rect codeLine="54" fill="#F1F1F1" height="80.5938" id="Horas" rx="2.5" ry="2.5" style="stroke:#181818;stroke-width:0.5;" width="143" x="430" y="1455"/><ellipse cx="477.25" cy="1471" fill="#ADD1B2" rx="11" ry="11" style="stroke:#181818;stroke-width:1.0;"/><path d="M476.0469,1471.875 L477.5,1471.875 L477.5,1471.9844 C477.5,1472.3906 477.5313,1472.5469 477.6094,1472.7031 C477.7656,1472.9531 478.0469,1473.1094 478.3438,1473.1094 C478.5938,1473.1094 478.8594,1472.9688 479.0156,1472.75 C479.1406,1472.5938 479.1719,1472.4375 479.1719,1471.9844 L479.1719,1470.0625 C479.1719,1469.9063 479.1719,1469.8594 479.1563,1469.7031 C479.0938,1469.2344 478.7813,1468.9219 478.3281,1468.9219 C478.0781,1468.9219 477.8125,1469.0625 477.6406,1469.2813 C477.5313,1469.4531 477.5,1469.6094 477.5,1470.0625 L477.5,1470.1875 L476.0469,1470.1875 L476.0469,1467.7813 L480.0313,1467.7813 L480.0313,1468.6406 C480.0313,1469.0469 480.0625,1469.2188 480.1406,1469.375 C480.3125,1469.625 480.5938,1469.7813 480.875,1469.7813 C481.1406,1469.7813 481.4063,1469.6406 481.5781,1469.4219 C481.6875,1469.25 481.7188,1469.1094 481.7188,1468.6406 L481.7188,1466.0938 L474.0938,1466.0938 C473.6563,1466.0938 473.5313,1466.1094 473.375,1466.2031 C473.125,1466.3594 472.9688,1466.6563 472.9688,1466.9375 C472.9688,1467.2188 473.1094,1467.4688 473.3281,1467.6406 C473.4844,1467.75 473.6719,1467.7813 474.0938,1467.7813 L474.3438,1467.7813 L474.3438,1474.2969 L474.0938,1474.2969 C473.6875,1474.2969 473.5313,1474.3125 473.375,1474.4219 C473.125,1474.5938 472.9688,1474.8594 472.9688,1475.1563 C472.9688,1475.4219 473.1094,1475.6719 473.3281,1475.8281 C473.4688,1475.9531 473.7031,1476 474.0938,1476 L482.0938,1476 L482.0938,1473.4219 C482.0938,1472.9844 482.0625,1472.8438 481.9844,1472.6875 C481.8125,1472.4375 481.5313,1472.2813 481.25,1472.2813 C480.9844,1472.2813 480.7188,1472.3906 480.5469,1472.6406 C480.4375,1472.7969 480.4063,1472.9375 480.4063,1473.4219 L480.4063,1474.2969 L476.0469,1474.2969 L476.0469,1471.875 Z " fill="#000000"/><text fill="#000000" font-family="sans-serif" font-size="14" lengthAdjust="spacing" textLength="40" x="497.75" y="1475.8467">Horas</text><line style="stroke:#181818;stroke-width:0.5;" x1="431" x2="572" y1="1487" y2="1487"/><ellipse cx="441" cy="1500.6484" fill="none" rx="3" ry="3" style="stroke:#038048;stroke-width:1.0;"/><text fill="#000000" font-family="sans-serif" font-size="14" lengthAdjust="spacing" textLength="96" x="450" y="1503.9951">hora: "10:00"</text><ellipse cx="441" cy="1516.9453" fill="none" rx="3" ry="3" style="stroke:#038048;stroke-width:1.0;"/><text fill="#000000" font-family="sans-serif" font-size="14" lengthAdjust="spacing" textLength="117" x="450" y="1520.292">minutos "11:00"</text><line style="stroke:#181818;stroke-width:0.5;" x1="431" x2="572" y1="1527.5938" y2="1527.5938"/></g><!--class SistemaDeReservas--><g id="elem_SistemaDeReservas"><rect fill="#F1F1F1" height="48" id="SistemaDeReservas" rx="2.5" ry="2.5" style="stroke:#181818;stroke-width:0.5;" width="174" x="309.5" y="7"/><ellipse cx="324.5" cy="23" fill="#ADD1B2" rx="11" ry="11" style="stroke:#181818;stroke-width:1.0;"/><path d="M326.8438,18.6719 C325.9063,18.2344 325.3125,18.0938 324.4375,18.0938 C321.8125,18.0938 319.8125,20.1719 319.8125,22.8906 L319.8125,24.0156 C319.8125,26.5938 321.9219,28.4844 324.8125,28.4844 C326.0313,28.4844 327.1875,28.1875 327.9375,27.6406 C328.5156,27.2344 328.8438,26.7813 328.8438,26.3906 C328.8438,25.9375 328.4531,25.5469 327.9844,25.5469 C327.7656,25.5469 327.5625,25.625 327.375,25.8125 C326.9219,26.2969 326.9219,26.2969 326.7344,26.3906 C326.3125,26.6563 325.625,26.7813 324.8594,26.7813 C322.8125,26.7813 321.5156,25.6875 321.5156,23.9844 L321.5156,22.8906 C321.5156,21.1094 322.7656,19.7969 324.5,19.7969 C325.0781,19.7969 325.6875,19.9531 326.1563,20.2031 C326.6406,20.4844 326.8125,20.7031 326.9063,21.1094 C326.9688,21.5156 327,21.6406 327.1406,21.7656 C327.2813,21.9063 327.5156,22.0156 327.7344,22.0156 C328,22.0156 328.2656,21.875 328.4375,21.6563 C328.5469,21.5 328.5781,21.3125 328.5781,20.8906 L328.5781,19.4688 C328.5781,19.0313 328.5625,18.9063 328.4688,18.75 C328.3125,18.4844 328.0313,18.3438 327.7344,18.3438 C327.4375,18.3438 327.2344,18.4375 327.0156,18.75 L326.8438,18.6719 Z " fill="#000000"/><text fill="#000000" font-family="sans-serif" font-size="14" lengthAdjust="spacing" textLength="142" x="338.5" y="27.8467">SistemaDeReservas</text><line style="stroke:#181818;stroke-width:0.5;" x1="310.5" x2="482.5" y1="39" y2="39"/><line style="stroke:#181818;stroke-width:0.5;" x1="310.5" x2="482.5" y1="47" y2="47"/></g><!--link SistemaDeReservas to Usuario--><g id="link_SistemaDeReservas_Usuario"><path codeLine="61" d="M396.5,55.22 C396.5,88.46 396.5,150.36 396.5,193.65 " fill="none" id="SistemaDeReservas-Usuario" style="stroke:#181818;stroke-width:1.0;"/><text fill="#000000" font-family="sans-serif" font-size="13" lengthAdjust="spacing" textLength="35" x="397.5" y="129.0669">Tiene</text></g><!--link Usuario to Reserva--><g id="link_Usuario_Reserva"><path codeLine="62" d="M396.5,291.15 C396.5,332.33 396.5,391.16 396.5,429.83 " fill="none" id="Usuario-Reserva" style="stroke:#181818;stroke-width:1.0;"/><text fill="#000000" font-family="sans-serif" font-size="13" lengthAdjust="spacing" textLength="32" x="397.5" y="365.0669">Hace</text></g><!--link Calendario to Reserva--><g id="link_Calendario_Reserva"><path codeLine="63" d="M384.907,1259.612 C368.454,1241.6 352.5,1217.445 352.5,1191.5 C352.5,579.5 352.5,579.5 352.5,579.5 C352.5,555.711 361.769,531.01 371.799,511.24 " fill="none" id="Calendario-Reserva" style="stroke:#181818;stroke-width:1.0;"/><text fill="#000000" font-family="sans-serif" font-size="13" lengthAdjust="spacing" textLength="32" x="353.5" y="890.5669">tiene</text></g><!--link Usuario to Pagos--><g id="link_Usuario_Pagos"><path codeLine="64" d="M563.157,242.5 C590.442,242.5 618.533,242.5 645.276,242.5 " fill="none" id="Usuario-Pagos" style="stroke:#181818;stroke-width:1.0;"/><text fill="#000000" font-family="sans-serif" font-size="13" lengthAdjust="spacing" textLength="46" x="581.25" y="235.5669">Realiza</text></g><!--link Pagos to Factura--><g id="link_Pagos_Factura"><path codeLine="65" d="M774.844,283.12 C757.496,324.39 730.478,388.67 713.137,429.92 " fill="none" id="Pagos-Factura" style="stroke:#181818;stroke-width:1.0;"/><text fill="#000000" font-family="sans-serif" font-size="13" lengthAdjust="spacing" textLength="75" x="746.5" y="365.0669">Que genera</text></g><!--link Factura to Usuario--><g id="link_Factura_Usuario"><path codeLine="66" d="M643.835,429.83 C592.509,391.16 514.422,332.33 459.756,291.15 " fill="none" id="Factura-Usuario" style="stroke:#181818;stroke-width:1.0;"/><text fill="#000000" font-family="sans-serif" font-size="13" lengthAdjust="spacing" textLength="114" x="563.5" y="365.0669">Que se le entrega</text></g><!--link Reserva to Pistas--><g id="link_Reserva_Pistas"><path codeLine="67" d="M414.543,511.23 C432.39,550.53 459.552,610.342 477.414,649.674 " fill="none" id="Reserva-Pistas" style="stroke:#181818;stroke-width:1.0;"/><text fill="#000000" font-family="sans-serif" font-size="13" lengthAdjust="spacing" textLength="82" x="449.5" y="585.0669">Se realiza en</text></g><!--link CancelarReserva to Reserva--><g id="link_CancelarReserva_Reserva"><path codeLine="68" d="M158.11,470.5 C204.657,470.5 264.397,470.5 312.428,470.5 " fill="none" id="CancelarReserva-Reserva" style="stroke:#181818;stroke-width:1.0;"/><text fill="#000000" font-family="sans-serif" font-size="13" lengthAdjust="spacing" textLength="118" x="176.25" y="463.5669">Se puede cancelar</text></g><!--link Pistas to Padel--><g id="link_Pistas_Padel"><path codeLine="69" d="M501.643,731.125 C507.266,767.391 515.475,820.342 520.65,853.716 " fill="none" id="Pistas-Padel" style="stroke:#181818;stroke-width:1.0;"/></g><!--link Pistas to Tarifas--><g id="link_Pistas_Tarifas"><path codeLine="71" d="M568.289,690.5 C591.435,690.5 616.987,690.5 639.971,690.5 " fill="none" id="Pistas-Tarifas" style="stroke:#181818;stroke-width:1.0;"/><text fill="#000000" font-family="sans-serif" font-size="13" lengthAdjust="spacing" textLength="35" x="586.5" y="683.5669">Tiene</text></g><!--link Padel to Disponibilidad--><g id="link_Padel_Disponibilidad"><path codeLine="72" d="M527.375,918.406 C529.629,956.167 533.39,1019.152 535.638,1056.814 " fill="none" id="Padel-Disponibilidad" style="stroke:#181818;stroke-width:1.0;"/><text fill="#000000" font-family="sans-serif" font-size="13" lengthAdjust="spacing" textLength="35" x="532.5" y="992.0669">Tiene</text></g><!--link Disponibilidad to Calendario--><g id="link_Disponibilidad_Calendario"><path codeLine="73" d="M519.219,1121.406 C497.238,1159.167 460.576,1222.152 438.653,1259.814 " fill="none" id="Disponibilidad-Calendario" style="stroke:#181818;stroke-width:1.0;"/><text fill="#000000" font-family="sans-serif" font-size="13" lengthAdjust="spacing" textLength="35" x="483.5" y="1195.0669">Tiene</text></g><!--link Calendario to Fecha--><g id="link_Calendario_Fecha"><path codeLine="74" d="M408.175,1324.043 C395.158,1356.83 374.471,1408.936 359.392,1446.9158 " fill="none" id="Calendario-Fecha" style="stroke:#181818;stroke-width:1.0;"/></g><!--link Calendario to Horas--><g id="link_Calendario_Horas"><path codeLine="75" d="M432.979,1324.043 C447.091,1359.148 470.106,1416.401 485.52,1454.7484 " fill="none" id="Calendario-Horas" style="stroke:#181818;stroke-width:1.0;"/></g><!--SRC=[RLDTRjim37xNAGY_5iwSDDjQFGr8LdH31tHjTW3MPb8DiXH8Th4Vx6NdsSlEi9lq9ACiEP6p0G6Ca1y_VYG_aUbKznLkbU_GmtS1S0R6jW-E91Its90kXbYDUwnLWmqKoqBy489IOO2akXLZVC1ym2-gHJb23-0LQZ8DEcLJ1Jrnndf6tYXkcHD_ydq6F4XwRytQKjH4BIeTOpCEla7TjyRwMM-eGutCKziP-GZkIDFM6YkBi_Cbp1VdovUlNbzSJcVPsN47BNMsiMiACMwnSVYPIQ4XM3bgL6SZQsjPF-Sldd_-ogckiEvwXubiI_KZlcsLLzOmk9g_uD-YMYmXQREizpyi6zx0zd2MlQDQsMlhKFw3N2k_jqOzA3tSA1OyCjIF6KrU5lDALXMKCB_aRrv_HvxSqqJlEwEu7QiQYefZuaePPfgVCApGrAJH7PcoROIonDseO8pg8ksF_B2G-0___0uDmsPowZ2opsQQQcgLwTb3a4aIufxzpFPOKvBZeIpBqLCIDeeCYT5Y8PLm4gwn9Z4EKTwKcMabTDEwkp9wHd8vQlKDHRHG84mEaF2n9zXn6Rj1ZBQOY0a0Jw09U5v7EposPrXycHBk2Lnimh0JWPFD3z1zJspLEcL491demdiLAJ1Ca4msBYK-w02TUchCJwC1boyeOh9tFgmYdFyqE1prBm00]--></g></svg>
