<?xml version="1.0" encoding="us-ascii" standalone="no"?><svg xmlns="http://www.w3.org/2000/svg" xmlns:xlink="http://www.w3.org/1999/xlink" contentStyleType="text/css" height="348px" preserveAspectRatio="none" style="width:431px;height:348px;background:#FFFFFF;" version="1.1" viewBox="0 0 431 348" width="431px" zoomAndPan="magnify"><defs/><g><ellipse cx="189.5727" cy="16" fill="#222222" rx="10" ry="10" style="stroke:#222222;stroke-width:1.0;"/><g id="Disponible"><rect fill="#F1F1F1" height="50" rx="12.5" ry="12.5" style="stroke:#181818;stroke-width:0.5;" width="97" x="141.0727" y="103"/><line style="stroke:#181818;stroke-width:0.5;" x1="141.0727" x2="238.0727" y1="129.2969" y2="129.2969"/><text fill="#000000" font-family="sans-serif" font-size="14" lengthAdjust="spacing" textLength="77" x="151.0727" y="120.9951">Disponible</text></g><g id="Reservado"><rect fill="#F1F1F1" height="50" rx="12.5" ry="12.5" style="stroke:#181818;stroke-width:0.5;" width="95" x="94.0725" y="292"/><line style="stroke:#181818;stroke-width:0.5;" x1="94.0725" x2="189.0725" y1="318.2969" y2="318.2969"/><text fill="#000000" font-family="sans-serif" font-size="14" lengthAdjust="spacing" textLength="75" x="104.0725" y="309.9951">Reservado</text></g><g id="Utilizado"><rect fill="#F1F1F1" height="50" rx="12.5" ry="12.5" style="stroke:#181818;stroke-width:0.5;" width="82" x="342.5727" y="292"/><line style="stroke:#181818;stroke-width:0.5;" x1="342.5727" x2="424.5727" y1="318.2969" y2="318.2969"/><text fill="#000000" font-family="sans-serif" font-size="14" lengthAdjust="spacing" textLength="62" x="352.5727" y="309.9951">Utilizado</text></g><!--link *start* to Disponible--><g id="link_*start*_Disponible"><path d="M189.5727,26.002 C189.5727,42.627 189.5727,72.655 189.5727,96.873 " fill="none" id="*start*-to-Disponible" style="stroke:#181818;stroke-width:1.0;"/><polygon fill="#181818" points="189.5727,102.873,193.5727,93.873,189.5727,97.873,185.5727,93.873,189.5727,102.873" style="stroke:#181818;stroke-width:1.0;"/><text fill="#000000" font-family="sans-serif" font-size="13" lengthAdjust="spacing" textLength="69" x="190.5727" y="69.0669">Inicializado</text></g><!--link Disponible to Reservado--><g id="link_Disponible_Reservado"><path d="M140.7747,140.026 C102.5786,151.501 51.9754,173.638 27.5725,214 C6,249.6806 48.2933,277.4974 88.4624,295.5807 " fill="none" id="Disponible-to-Reservado" style="stroke:#181818;stroke-width:1.0;"/><polygon fill="#181818" points="93.9336,298.0437,87.3689,290.7018,89.3743,295.9912,84.0849,297.9966,93.9336,298.0437" style="stroke:#181818;stroke-width:1.0;"/><text fill="#000000" font-family="sans-serif" font-size="13" lengthAdjust="spacing" textLength="117" x="28.5725" y="227.0669">Reserva solicitada</text></g><!--link Reservado to Disponible--><g id="link_Reservado_Disponible"><path d="M147.8017,291.732 C157.0237,255.8065 172.713,194.6836 181.904,158.8756 " fill="none" id="Reservado-to-Disponible" style="stroke:#181818;stroke-width:1.0;"/><polygon fill="#181818" points="183.3957,153.064,177.2838,160.787,182.1526,157.907,185.0326,162.7759,183.3957,153.064" style="stroke:#181818;stroke-width:1.0;"/><text fill="#000000" font-family="sans-serif" font-size="13" lengthAdjust="spacing" textLength="122" x="168.5727" y="227.0669">Reserva cancelada</text></g><!--link Reservado to Utilizado--><g id="link_Reservado_Utilizado"><path d="M189.0947,317 C233.6937,317 293.7257,317 336.2057,317 " fill="none" id="Reservado-to-Utilizado" style="stroke:#181818;stroke-width:1.0;"/><polygon fill="#181818" points="342.2057,317,333.2057,313,337.2057,317,333.2057,321,342.2057,317" style="stroke:#181818;stroke-width:1.0;"/><text fill="#000000" font-family="sans-serif" font-size="13" lengthAdjust="spacing" textLength="117" x="207.3227" y="310.0669">Confirmar reserva</text></g><!--link Utilizado to Disponible--><g id="link_Utilizado_Disponible"><path d="M365.9597,291.6158 C349.8557,270.0925 324.7727,238.43 299.5727,214 C276.3527,191.49 252.1781,172.7533 229.7631,156.6743 " fill="none" id="Utilizado-to-Disponible" style="stroke:#181818;stroke-width:1.0;"/><polygon fill="#181818" points="224.8877,153.177,229.8692,161.6731,228.9505,156.0914,234.5323,155.1726,224.8877,153.177" style="stroke:#181818;stroke-width:1.0;"/><text fill="#000000" font-family="sans-serif" font-size="13" lengthAdjust="spacing" textLength="94" x="315.5727" y="227.0669">Liberar cancha</text></g><!--SRC=[YzQALT3LjLDmoImkoC_BJCf9LR1IyCpBJCvCpCciIap9vr90bjCjoapFA05f24ejJYqg0oe0geUo5OhpSu0QIn9J4e6w40fqCIo0QKXEp4jEpS5G3xSaj2GJuWgW7kVylBJCejp48eKYY4gW7eGyfXq-cKcfHK3L83io4W40]--></g></svg>