<?xml version="1.0" encoding="UTF-8" standalone="no"?><svg xmlns="http://www.w3.org/2000/svg" xmlns:xlink="http://www.w3.org/1999/xlink" contentStyleType="text/css" height="773px" preserveAspectRatio="none" style="width:952px;height:773px;background:#FFFFFF;" version="1.1" viewBox="0 0 952 773" width="952px" zoomAndPan="magnify"><defs/><g><!--MD5=[fa6161e1ff48dc2b887fe015192a5110]
cluster NoHayCanchas--><g id="cluster_NoHayCanchas"><path d="M666.5,548 L789.5,548 A12.5,12.5 0 0 1 802,560.5 L802,575.6094 L654,575.6094 L654,560.5 A12.5,12.5 0 0 1 666.5,548 " fill="#F1F1F1" style="stroke:#F1F1F1;stroke-width:1.0;"/><rect fill="none" height="219" rx="12.5" ry="12.5" style="stroke:#181818;stroke-width:0.5;" width="148" x="654" y="548"/><line style="stroke:#181818;stroke-width:0.5;" x1="654" x2="802" y1="575.6094" y2="575.6094"/><text fill="#000000" font-family="sans-serif" font-size="14" lengthAdjust="spacing" textLength="97" x="679.5" y="566.5332">NoHayCanchas</text></g><!--MD5=[95798b4c5aede0acc54579c02b1a5d4f]
cluster HayCanchas--><g id="cluster_HayCanchas"><path d="M19.5,7 L882.5,7 A12.5,12.5 0 0 1 895,19.5 L895,34.6094 L7,34.6094 L7,19.5 A12.5,12.5 0 0 1 19.5,7 " fill="#F1F1F1" style="stroke:#F1F1F1;stroke-width:1.0;"/><rect fill="none" height="475" rx="12.5" ry="12.5" style="stroke:#181818;stroke-width:0.5;" width="888" x="7" y="7"/><line style="stroke:#181818;stroke-width:0.5;" x1="7" x2="895" y1="34.6094" y2="34.6094"/><text fill="#000000" font-family="sans-serif" font-size="14" lengthAdjust="spacing" textLength="80" x="411" y="25.5332">HayCanchas</text></g><ellipse cx="732" cy="622" fill="#222222" rx="10" ry="10" style="stroke:none;stroke-width:1.0;"/><g id="NoHayCanchas.AñadirPista"><rect fill="#F1F1F1" height="50" rx="12.5" ry="12.5" style="stroke:#181818;stroke-width:0.5;" width="92" x="686" y="693"/><line style="stroke:#181818;stroke-width:0.5;" x1="686" x2="778" y1="720.6094" y2="720.6094"/><text fill="#000000" font-family="sans-serif" font-size="14" lengthAdjust="spacing" textLength="72" x="696" y="712.5332">AñadirPista</text></g><ellipse cx="233" cy="81" fill="#222222" rx="10" ry="10" style="stroke:none;stroke-width:1.0;"/><g id="HayCanchas.MostrarOpciones"><rect fill="#F1F1F1" height="50" rx="12.5" ry="12.5" style="stroke:#181818;stroke-width:0.5;" width="128" x="169" y="152"/><line style="stroke:#181818;stroke-width:0.5;" x1="169" x2="297" y1="179.6094" y2="179.6094"/><text fill="#000000" font-family="sans-serif" font-size="14" lengthAdjust="spacing" textLength="108" x="179" y="171.5332">MostrarOpciones</text></g><g id="HayCanchas.OpcionAñadir"><rect fill="#F1F1F1" height="50" rx="12.5" ry="12.5" style="stroke:#181818;stroke-width:0.5;" width="106" x="31" y="280"/><line style="stroke:#181818;stroke-width:0.5;" x1="31" x2="137" y1="307.6094" y2="307.6094"/><text fill="#000000" font-family="sans-serif" font-size="14" lengthAdjust="spacing" textLength="86" x="41" y="299.5332">OpcionAñadir</text></g><g id="HayCanchas.OpcionModificar"><rect fill="#F1F1F1" height="50" rx="12.5" ry="12.5" style="stroke:#181818;stroke-width:0.5;" width="122" x="172" y="280"/><line style="stroke:#181818;stroke-width:0.5;" x1="172" x2="294" y1="307.6094" y2="307.6094"/><text fill="#000000" font-family="sans-serif" font-size="14" lengthAdjust="spacing" textLength="102" x="182" y="299.5332">OpcionModificar</text></g><g id="HayCanchas.OpcionEliminar"><rect fill="#F1F1F1" height="50" rx="12.5" ry="12.5" style="stroke:#181818;stroke-width:0.5;" width="115" x="538.5" y="280"/><line style="stroke:#181818;stroke-width:0.5;" x1="538.5" x2="653.5" y1="307.6094" y2="307.6094"/><text fill="#000000" font-family="sans-serif" font-size="14" lengthAdjust="spacing" textLength="95" x="548.5" y="299.5332">OpcionEliminar</text></g><g id="HayCanchas.SolicitarCanchas"><rect fill="#F1F1F1" height="50" rx="12.5" ry="12.5" style="stroke:#181818;stroke-width:0.5;" width="126" x="546" y="408"/><line style="stroke:#181818;stroke-width:0.5;" x1="546" x2="672" y1="435.6094" y2="435.6094"/><text fill="#000000" font-family="sans-serif" font-size="14" lengthAdjust="spacing" textLength="106" x="556" y="427.5332">SolicitarCanchas</text></g><ellipse cx="745" cy="433" fill="none" rx="10" ry="10" style="stroke:#222222;stroke-width:1.0;"/><ellipse cx="745.5" cy="433.5" fill="#222222" rx="6" ry="6" style="stroke:none;stroke-width:1.0;"/><ellipse cx="585" cy="622" fill="#222222" rx="10" ry="10" style="stroke:none;stroke-width:1.0;"/><!--MD5=[e8cb7b9fdfbf291df9eb893f58ef9337]
link *start to NoHayCanchas--><g id="link_*start_NoHayCanchas"><path d="M595.07,622 C604.85,622 620.1675,622 633.6825,622 C640.44,622 646.7469,622 651.6856,622 C652.303,622 652.8989,622 653.4717,622 C653.6149,622 653.7567,622 653.897,622 " fill="none" id="*start-to-NoHayCanchas" style="stroke:#181818;stroke-width:1.0;"/><polygon fill="#181818" points="653.897,622,644.897,618,648.897,622,644.897,626,653.897,622" style="stroke:#181818;stroke-width:1.0;"/><text fill="#000000" font-family="sans-serif" font-size="13" lengthAdjust="spacing" textLength="30" x="613.32" y="615.4951">Inicio</text></g><!--MD5=[44263879ebf096ea5fc22160b95f0655]
link *start*NoHayCanchas to AñadirPista--><g id="link_*start*NoHayCanchas_AñadirPista"><path d="M732,632.01 C732,644.7 732,668.41 732,687.57 " fill="none" id="*start*NoHayCanchas-to-AñadirPista" style="stroke:#181818;stroke-width:1.0;"/><polygon fill="#181818" points="732,692.84,736,683.84,732,687.84,728,683.84,732,692.84" style="stroke:#181818;stroke-width:1.0;"/></g><!--MD5=[4f54a3992868d08aee5527fbd23b916c]
link AñadirPista to HayCanchas--><g id="link_AñadirPista_HayCanchas"><path d="M753.88,692.88 C787.15,654.68 849.66,576.49 879,498 C880.215,494.7488 881.2531,491.3464 882.1394,487.8772 C882.5825,486.1427 882.9877,484.3914 883.358,482.6339 C883.3812,482.5241 883.4042,482.4142 883.4271,482.3043 " fill="none" id="AñadirPista-to-HayCanchas" style="stroke:#181818;stroke-width:1.0;"/><polygon fill="#181818" points="883.4271,482.3043,877.6768,490.3003,882.4081,487.1994,885.509,491.9306,883.4271,482.3043" style="stroke:#181818;stroke-width:1.0;"/><text fill="#000000" font-family="sans-serif" font-size="13" lengthAdjust="spacing" textLength="79" x="865" y="627.4951">Pista añadida</text></g><!--MD5=[24ec75ddb6f4cbfd279be31a147028c0]
link *start*HayCanchas to MostrarOpciones--><g id="link_*start*HayCanchas_MostrarOpciones"><path d="M233,91.01 C233,103.7 233,127.41 233,146.57 " fill="none" id="*start*HayCanchas-to-MostrarOpciones" style="stroke:#181818;stroke-width:1.0;"/><polygon fill="#181818" points="233,151.84,237,142.84,233,146.84,229,142.84,233,151.84" style="stroke:#181818;stroke-width:1.0;"/></g><!--MD5=[38bdda018cf6882d4bdb54d636c6e48a]
link MostrarOpciones to OpcionAñadir--><g id="link_MostrarOpciones_OpcionAñadir"><path d="M168.97,198.71 C150.85,206.9 132.21,217.82 118,232 C106.13,243.84 97.88,260.63 92.48,275.01 " fill="none" id="MostrarOpciones-to-OpcionAñadir" style="stroke:#181818;stroke-width:1.0;"/><polygon fill="#181818" points="90.75,279.78,97.5658,272.6705,92.4461,275.0765,90.0402,269.9568,90.75,279.78" style="stroke:#181818;stroke-width:1.0;"/><text fill="#000000" font-family="sans-serif" font-size="13" lengthAdjust="spacing" textLength="105" x="119" y="246.4951">Selecciona Añadir</text></g><!--MD5=[767e58d25db05880f5af413f2f8f34dd]
link MostrarOpciones to OpcionModificar--><g id="link_MostrarOpciones_OpcionModificar"><path d="M233,202.29 C233,222.95 233,252.67 233,274.65 " fill="none" id="MostrarOpciones-to-OpcionModificar" style="stroke:#181818;stroke-width:1.0;"/><polygon fill="#181818" points="233,279.78,237,270.78,233,274.78,229,270.78,233,279.78" style="stroke:#181818;stroke-width:1.0;"/><text fill="#000000" font-family="sans-serif" font-size="13" lengthAdjust="spacing" textLength="120" x="234" y="246.4951">Selecciona Modificar</text></g><!--MD5=[4af3c11268a7f70587651f63062b67fe]
link MostrarOpciones to OpcionEliminar--><g id="link_MostrarOpciones_OpcionEliminar"><path d="M297.06,200.24 C363.61,223.34 467.08,259.25 533.18,282.19 " fill="none" id="MostrarOpciones-to-OpcionEliminar" style="stroke:#181818;stroke-width:1.0;"/><polygon fill="#181818" points="538.26,283.96,531.0594,277.2406,533.534,282.3274,528.4472,284.8021,538.26,283.96" style="stroke:#181818;stroke-width:1.0;"/><text fill="#000000" font-family="sans-serif" font-size="13" lengthAdjust="spacing" textLength="115" x="437" y="246.4951">Selecciona Eliminar</text></g><!--MD5=[0e40bd8ad13c58a34c32b3899c01c127]
link OpcionEliminar to OpcionEliminar--><g id="link_OpcionEliminar_OpcionEliminar"><path d="M653.81,293 C673.08,293 688.5,297 688.5,305 C688.5,312.25 675.84,316.21 659.12,316.89 " fill="none" id="OpcionEliminar-to-OpcionEliminar" style="stroke:#181818;stroke-width:1.0;"/><polygon fill="#181818" points="653.81,317,662.8882,320.8192,658.809,316.9,662.7282,312.8208,653.81,317" style="stroke:#181818;stroke-width:1.0;"/><text fill="#000000" font-family="sans-serif" font-size="13" lengthAdjust="spacing" textLength="179" x="694.5" y="310.4951">Selecciona Cancha Inexistente</text></g><!--MD5=[9f4376c4a31598639495da35cf027cdc]
link OpcionModificar to OpcionModificar--><g id="link_OpcionModificar_OpcionModificar"><path d="M294.4,293.01 C313.74,293.19 329,297.19 329,305 C329,312.08 316.47,316.03 299.72,316.84 " fill="none" id="OpcionModificar-to-OpcionModificar" style="stroke:#181818;stroke-width:1.0;"/><polygon fill="#181818" points="294.4,316.99,303.5106,320.7313,299.398,316.8472,303.2821,312.7346,294.4,316.99" style="stroke:#181818;stroke-width:1.0;"/><text fill="#000000" font-family="sans-serif" font-size="13" lengthAdjust="spacing" textLength="179" x="335" y="310.4951">Selecciona Cancha Inexistente</text></g><!--MD5=[c0c84eddc791a8b972a97878e9587cba]
link OpcionAñadir to SolicitarCanchas--><g id="link_OpcionAñadir_SolicitarCanchas"><path d="M124.39,330.09 C153.15,346.15 193.25,366.38 231,378 C336.03,410.34 463.54,423.44 540.37,428.66 " fill="none" id="OpcionAñadir-to-SolicitarCanchas" style="stroke:#181818;stroke-width:1.0;"/><polygon fill="#181818" points="545.81,429.02,537.0925,424.4368,540.8208,428.6912,536.5664,432.4195,545.81,429.02" style="stroke:#181818;stroke-width:1.0;"/><text fill="#000000" font-family="sans-serif" font-size="13" lengthAdjust="spacing" textLength="95" x="232" y="374.4951">Cancha Añadida</text></g><!--MD5=[10d0b49cb2e544aa406287020fb38c78]
link OpcionModificar to SolicitarCanchas--><g id="link_OpcionModificar_SolicitarCanchas"><path d="M275,330.1 C303.36,345.55 342.03,365.06 378,378 C431.28,397.16 493.96,411.32 540.58,420.32 " fill="none" id="OpcionModificar-to-SolicitarCanchas" style="stroke:#181818;stroke-width:1.0;"/><polygon fill="#181818" points="545.61,421.28,537.5249,415.6558,540.6996,420.3379,536.0175,423.5125,545.61,421.28" style="stroke:#181818;stroke-width:1.0;"/><text fill="#000000" font-family="sans-serif" font-size="13" lengthAdjust="spacing" textLength="110" x="379" y="374.4951">Cancha Modificada</text></g><!--MD5=[f79ada05dd1b0c4c7f7cf30ac63a05ac]
link OpcionEliminar to SolicitarCanchas--><g id="link_OpcionEliminar_SolicitarCanchas"><path d="M538.32,325.73 C512.05,338.14 489.5,355.98 503,378 C511.9,392.52 526.07,403.29 541.18,411.22 " fill="none" id="OpcionEliminar-to-SolicitarCanchas" style="stroke:#181818;stroke-width:1.0;"/><polygon fill="#181818" points="545.9,413.59,539.6487,405.9794,541.4307,411.3482,536.0619,413.1302,545.9,413.59" style="stroke:#181818;stroke-width:1.0;"/><text fill="#000000" font-family="sans-serif" font-size="13" lengthAdjust="spacing" textLength="105" x="504" y="374.4951">Cancha Eliminada</text></g><!--MD5=[ca130df0783a5363417efd91d8db2831]
link SolicitarCanchas to HayCanchas--><g id="link_SolicitarCanchas_HayCanchas"><path d="M651.89,407.94 C681.46,392.16 722.27,373.27 761,365 C778.39,361.29 824.79,357.69 841,365 C864.25,375.48 866.4,385.83 879,408 C884.04,416.88 886.39,429.36 886.89,432.34 " fill="none" id="SolicitarCanchas-to-HayCanchas" style="stroke:#181818;stroke-width:1.0;"/><polygon fill="#181818" points="886.89,432.34,889.3456,422.8022,886.0626,427.4089,881.4559,424.126,886.89,432.34" style="stroke:#181818;stroke-width:1.0;"/><text fill="#000000" font-family="sans-serif" font-size="13" lengthAdjust="spacing" textLength="78" x="762" y="374.4951">Hay Canchas</text></g><!--MD5=[7c9fd747ff2d6c0f9ef8d13f816c365d]
link SolicitarCanchas to NoHayCanchas--><g id="link_SolicitarCanchas_NoHayCanchas"><path d="M615.82,458.06 C622.865,482.92 634.1625,522.78 643.82,556.8525 C646.2344,565.3706 648.5463,573.527 650.6636,580.9969 C651.7222,584.7319 652.7322,588.2952 653.6821,591.6462 C653.7414,591.8557 653.8006,592.0643 653.8595,592.2721 " fill="none" id="SolicitarCanchas-to-NoHayCanchas" style="stroke:#181818;stroke-width:1.0;"/><polygon fill="#181818" points="653.8595,592.2721,655.2535,582.5224,652.4959,587.4616,647.5567,584.704,653.8595,592.2721" style="stroke:#181818;stroke-width:1.0;"/><text fill="#000000" font-family="sans-serif" font-size="13" lengthAdjust="spacing" textLength="98" x="634" y="520.4951">No Hay Canchas</text></g><!--MD5=[2b7d704cd2ea0fa4719400731addc4d3]
link SolicitarCanchas to *end*HayCanchas--><g id="link_SolicitarCanchas_*end*HayCanchas"><path d="M672.22,433 C693.53,433 715.47,433 729.61,433 " fill="none" id="SolicitarCanchas-to-*end*HayCanchas" style="stroke:#181818;stroke-width:1.0;"/><polygon fill="#181818" points="734.81,433,725.81,429,729.81,433,725.81,437,734.81,433" style="stroke:#181818;stroke-width:1.0;"/><text fill="#000000" font-family="sans-serif" font-size="13" lengthAdjust="spacing" textLength="26" x="690.5" y="426.4951">Salir</text></g><!--MD5=[ed85a73cad38717033f0f04a83eddd00]
@startuml
[*] -> NoHayCanchas : Inicio

state NoHayCanchas {
    [*] - -> AñadirPista
    AñadirPista - -> HayCanchas : Pista añadida
}

state HayCanchas {
    [*] - -> MostrarOpciones 
    MostrarOpciones - -> OpcionAñadir : Selecciona Añadir
    MostrarOpciones - -> OpcionModificar : Selecciona Modificar
    MostrarOpciones - -> OpcionEliminar : Selecciona Eliminar
    OpcionEliminar - -> OpcionEliminar: Selecciona Cancha Inexistente
    OpcionModificar - -> OpcionModificar: Selecciona Cancha Inexistente
    OpcionAñadir - -> SolicitarCanchas: Cancha Añadida
    OpcionModificar - -> SolicitarCanchas: Cancha Modificada
    OpcionEliminar - -> SolicitarCanchas: Cancha Eliminada
    SolicitarCanchas -> HayCanchas : Hay Canchas
    SolicitarCanchas - -> NoHayCanchas : No Hay Canchas
    SolicitarCanchas -> [*] : Salir
}


@enduml

PlantUML version 1.2022.7(Mon Aug 22 19:01:30 CEST 2022)
(GPL source distribution)
Java Runtime: Java(TM) SE Runtime Environment
JVM: Java HotSpot(TM) 64-Bit Server VM
Default Encoding: Cp1252
Language: es
Country: ES
--></g></svg>