<?xml version="1.0" encoding="us-ascii" standalone="no"?><svg xmlns="http://www.w3.org/2000/svg" xmlns:xlink="http://www.w3.org/1999/xlink" contentStyleType="text/css" height="545px" preserveAspectRatio="none" style="width:429px;height:545px;background:#FFFFFF;" version="1.1" viewBox="0 0 429 545" width="429px" zoomAndPan="magnify"><defs/><g><ellipse cx="291" cy="16" fill="#222222" rx="10" ry="10" style="stroke:#222222;stroke-width:1.0;"/><g id="Pendiente"><rect fill="#F1F1F1" height="50" rx="12.5" ry="12.5" style="stroke:#181818;stroke-width:0.5;" width="94" x="244" y="103"/><line style="stroke:#181818;stroke-width:0.5;" x1="244" x2="338" y1="129.2969" y2="129.2969"/><text fill="#000000" font-family="sans-serif" font-size="14" lengthAdjust="spacing" textLength="74" x="254" y="120.9951">Pendiente</text></g><g id="Aprobado"><rect fill="#F1F1F1" height="50" rx="12.5" ry="12.5" style="stroke:#181818;stroke-width:0.5;" width="91" x="156.5" y="230"/><line style="stroke:#181818;stroke-width:0.5;" x1="156.5" x2="247.5" y1="256.2969" y2="256.2969"/><text fill="#000000" font-family="sans-serif" font-size="14" lengthAdjust="spacing" textLength="71" x="166.5" y="247.9951">Aprobado</text></g><g id="Cancelado"><rect fill="#F1F1F1" height="50" rx="12.5" ry="12.5" style="stroke:#181818;stroke-width:0.5;" width="94" x="328" y="310"/><line style="stroke:#181818;stroke-width:0.5;" x1="328" x2="422" y1="336.2969" y2="336.2969"/><text fill="#000000" font-family="sans-serif" font-size="14" lengthAdjust="spacing" textLength="74" x="338" y="327.9951">Cancelado</text></g><g id="Completo"><rect fill="#F1F1F1" height="50" rx="12.5" ry="12.5" style="stroke:#181818;stroke-width:0.5;" width="92" x="7" y="390"/><line style="stroke:#181818;stroke-width:0.5;" x1="7" x2="99" y1="416.2969" y2="416.2969"/><text fill="#000000" font-family="sans-serif" font-size="14" lengthAdjust="spacing" textLength="72" x="17" y="407.9951">Completo</text></g><g id="Rechazado"><rect fill="#F1F1F1" height="50" rx="12.5" ry="12.5" style="stroke:#181818;stroke-width:0.5;" width="98" x="153" y="390"/><line style="stroke:#181818;stroke-width:0.5;" x1="153" x2="251" y1="416.2969" y2="416.2969"/><text fill="#000000" font-family="sans-serif" font-size="14" lengthAdjust="spacing" textLength="78" x="163" y="407.9951">Rechazado</text></g><ellipse cx="202" cy="528" fill="none" rx="11" ry="11" style="stroke:#222222;stroke-width:1.0;"/><ellipse cx="202" cy="528" fill="#222222" rx="6" ry="6" style="stroke:#222222;stroke-width:1.0;"/><!--link *start* to Pendiente--><g id="link_*start*_Pendiente"><path d="M291,26.002 C291,42.627 291,72.655 291,96.873 " fill="none" id="*start*-to-Pendiente" style="stroke:#181818;stroke-width:1.0;"/><polygon fill="#181818" points="291,102.873,295,93.873,291,97.873,287,93.873,291,102.873" style="stroke:#181818;stroke-width:1.0;"/><text fill="#000000" font-family="sans-serif" font-size="13" lengthAdjust="spacing" textLength="37" x="292" y="69.0669">Iniciar</text></g><!--link Pendiente to Aprobado--><g id="link_Pendiente_Aprobado"><path d="M248.802,153.119 C237.663,161.309 226.634,171.377 219,183 C209.885,196.878 206.4516,209.1992 204.4856,223.7282 " fill="none" id="Pendiente-to-Aprobado" style="stroke:#181818;stroke-width:1.0;"/><polygon fill="#181818" points="203.681,229.674,208.8517,221.2917,204.3515,224.7192,200.924,220.2189,203.681,229.674" style="stroke:#181818;stroke-width:1.0;"/><text fill="#000000" font-family="sans-serif" font-size="13" lengthAdjust="spacing" textLength="104" x="220" y="196.0669">IngresarDetalles</text></g><!--link Pendiente to Cancelado--><g id="link_Pendiente_Cancelado"><path d="M310.529,153.244 C317.069,162.207 323.968,172.7 329,183 C349.752,225.475 362.1366,273.4085 368.8476,303.9815 " fill="none" id="Pendiente-to-Cancelado" style="stroke:#181818;stroke-width:1.0;"/><polygon fill="#181818" points="370.134,309.842,372.1114,300.1937,369.062,304.9583,364.2974,301.9089,370.134,309.842" style="stroke:#181818;stroke-width:1.0;"/><text fill="#000000" font-family="sans-serif" font-size="13" lengthAdjust="spacing" textLength="56" x="337" y="196.0669">Cancelar</text></g><!--link Aprobado to Completo--><g id="link_Aprobado_Completo"><path d="M156.3,258.929 C121.382,263.849 75.3952,276.713 52,310 C35.6992,333.193 38.3363,361.2274 43.9214,383.9484 " fill="none" id="Aprobado-to-Completo" style="stroke:#181818;stroke-width:1.0;"/><polygon fill="#181818" points="45.3536,389.775,47.0896,380.0803,44.1601,384.9195,39.3209,381.99,45.3536,389.775" style="stroke:#181818;stroke-width:1.0;"/><text fill="#000000" font-family="sans-serif" font-size="13" lengthAdjust="spacing" textLength="126" x="53" y="339.5669">AutorizacionExitosa</text></g><!--link Aprobado to Rechazado--><g id="link_Aprobado_Rechazado"><path d="M194.874,280.241 C192.504,289.469 190.17,300.137 189,310 C186.381,332.067 186.381,337.933 189,360 C190.17,369.863 191.0115,374.7196 193.3815,383.9476 " fill="none" id="Aprobado-to-Rechazado" style="stroke:#181818;stroke-width:1.0;"/><polygon fill="#181818" points="194.874,389.759,196.5095,380.0469,193.6302,384.9162,188.7609,382.0369,194.874,389.759" style="stroke:#181818;stroke-width:1.0;"/><text fill="#000000" font-family="sans-serif" font-size="13" lengthAdjust="spacing" textLength="119" x="190" y="339.5669">AutorizacionFallida</text></g><!--link Completo to *end*--><g id="link_Completo_*end*"><path d="M74.1218,440.2436 C87.7017,454.9202 106.2586,473.371 125,487 C147.174,503.125 171.2061,514.2138 186.4451,520.6218 " fill="none" id="Completo-to-*end*" style="stroke:#181818;stroke-width:1.0;"/><polygon fill="#181818" points="191.976,522.9475,185.2301,515.7716,187.3669,521.0094,182.1291,523.1462,191.976,522.9475" style="stroke:#181818;stroke-width:1.0;"/><text fill="#000000" font-family="sans-serif" font-size="13" lengthAdjust="spacing" textLength="67" x="126" y="483.0669">Completar</text></g><!--link Rechazado to *end*--><g id="link_Rechazado_*end*"><path d="M202,440.0853 C202,464.0597 202,493.6954 202,510.9353 " fill="none" id="Rechazado-to-*end*" style="stroke:#181818;stroke-width:1.0;"/><polygon fill="#181818" points="202,516.9353,206,507.9353,202,511.9353,198,507.9353,202,516.9353" style="stroke:#181818;stroke-width:1.0;"/><text fill="#000000" font-family="sans-serif" font-size="13" lengthAdjust="spacing" textLength="60" x="203" y="483.0669">Rechazar</text></g><!--link Cancelado to *end*--><g id="link_Cancelado_*end*"><path d="M362.988,360.194 C346.138,392.271 312.914,449.2154 272,487 C253.491,504.0934 231.9291,514.5875 217.4771,520.6995 " fill="none" id="Cancelado-to-*end*" style="stroke:#181818;stroke-width:1.0;"/><polygon fill="#181818" points="211.951,523.0366,221.7982,523.215,216.5561,521.089,218.6821,515.8469,211.951,523.0366" style="stroke:#181818;stroke-width:1.0;"/><text fill="#000000" font-family="sans-serif" font-size="13" lengthAdjust="spacing" textLength="56" x="346" y="419.5669">Cancelar</text></g><!--SRC=[NO_D2i8m48JlUOgSXRv03qBn1xo9r-9XJHPTYDcoYI1zUfCsDjNRCllDx6o_kUgcsUepUale8-fMdpmP0b5LoqGt2D_0yWJS1GF87YCuX-6Ft84tw6QqpA8M-qJmSt0OCz2z8WkDO8ZzuKsH0_oo5pGF6EUqDNnCfyc2Mh8otATtsczykbhDTLiqKRNdobhwVW00]--></g></svg>