<?xml version="1.0" encoding="us-ascii" standalone="no"?><svg xmlns="http://www.w3.org/2000/svg" xmlns:xlink="http://www.w3.org/1999/xlink" contentStyleType="text/css" height="651px" preserveAspectRatio="none" style="width:1375px;height:651px;background:#FFFFFF;" version="1.1" viewBox="0 0 1375 651" width="1375px" zoomAndPan="magnify"><defs/><g><ellipse cx="684.4" cy="16" fill="#222222" rx="10" ry="10" style="stroke:#222222;stroke-width:1.0;"/><rect fill="#F1F1F1" height="40" rx="12.5" ry="12.5" style="stroke:#181818;stroke-width:0.5;" width="50" x="659.4" y="87"/><text fill="#000000" font-family="sans-serif" font-size="14" lengthAdjust="spacing" textLength="40" x="664.4" y="111.8467">INICIO</text><path d="M19.5,222 L1349.29,222 A12.5,12.5 0 0 1 1361.79,234.5 L1361.79,248.2969 L7,248.2969 L7,234.5 A12.5,12.5 0 0 1 19.5,222 " fill="#F1F1F1" style="stroke:#F1F1F1;stroke-width:1.0;"/><rect fill="none" height="306.2969" rx="12.5" ry="12.5" style="stroke:#181818;stroke-width:0.5;" width="1354.79" x="7" y="222"/><line style="stroke:#181818;stroke-width:0.5;" x1="7" x2="1361.79" y1="248.2969" y2="248.2969"/><text fill="#000000" font-family="sans-serif" font-size="14" lengthAdjust="spacing" textLength="98" x="635.395" y="239.9951">BookingUneat</text><ellipse cx="635.79" cy="269.2969" fill="#222222" rx="10" ry="10" style="stroke:#222222;stroke-width:1.0;"/><rect fill="#F1F1F1" height="40" rx="12.5" ry="12.5" style="stroke:#181818;stroke-width:0.5;" width="120" x="575.79" y="316.2969"/><text fill="#000000" font-family="sans-serif" font-size="14" lengthAdjust="spacing" textLength="110" x="580.79" y="341.1436">PantallaPrincipal</text><rect fill="#F1F1F1" height="40" rx="12.5" ry="12.5" style="stroke:#181818;stroke-width:0.5;" width="141" x="41.29" y="469.7969"/><text fill="#000000" font-family="sans-serif" font-size="14" lengthAdjust="spacing" textLength="131" x="46.29" y="494.6436">GestionarReservas</text><rect fill="#F1F1F1" height="40" rx="12.5" ry="12.5" style="stroke:#181818;stroke-width:0.5;" width="137" x="412.29" y="469.7969"/><text fill="#000000" font-family="sans-serif" font-size="14" lengthAdjust="spacing" textLength="127" x="417.29" y="494.6436">GestionarUsuarios</text><rect fill="#F1F1F1" height="40" rx="12.5" ry="12.5" style="stroke:#181818;stroke-width:0.5;" width="118" x="669.79" y="469.7969"/><text fill="#000000" font-family="sans-serif" font-size="14" lengthAdjust="spacing" textLength="108" x="674.79" y="494.6436">GestionarPistas</text><rect fill="#F1F1F1" height="40" rx="12.5" ry="12.5" style="stroke:#181818;stroke-width:0.5;" width="120" x="1088.79" y="469.7969"/><text fill="#000000" font-family="sans-serif" font-size="14" lengthAdjust="spacing" textLength="110" x="1093.79" y="494.6436">GestionarPagos</text><!--link *start*BookingUneat to PantallaPrincipal--><g id="link_*start*BookingUneat_PantallaPrincipal"><path d="M635.79,279.6069 C635.79,289.0169 635.79,297.8369 635.79,309.8169 " fill="none" id="*start*BookingUneat-to-PantallaPrincipal" style="stroke:#181818;stroke-width:1.0;"/><polygon fill="#181818" points="635.79,315.8169,639.79,306.8169,635.79,310.8169,631.79,306.8169,635.79,315.8169" style="stroke:#181818;stroke-width:1.0;"/></g><!--link PantallaPrincipal to GestionarReservas--><g id="link_PantallaPrincipal_GestionarReservas"><path d="M575.41,338.8269 C427.17,342.8769 56.01,354.9069 37.79,374.2969 C18,395.3469 24.18,413.8169 37.79,439.2969 C44.49,451.8369 50.8663,458.5384 62.7763,466.1084 " fill="none" id="PantallaPrincipal-to-GestionarReservas" style="stroke:#181818;stroke-width:1.0;"/><polygon fill="#181818" points="67.84,469.3269,62.3901,461.1233,63.6202,466.6448,58.0988,467.8749,67.84,469.3269" style="stroke:#181818;stroke-width:1.0;"/><path d="M42.79,379.2969 L42.79,434.2969 L223.79,434.2969 L223.79,389.2969 L213.79,379.2969 L42.79,379.2969 " fill="#FEFFDD" style="stroke:#181818;stroke-width:0.5;"/><path d="M213.79,379.2969 L213.79,389.2969 L223.79,389.2969 L213.79,379.2969 " fill="#FEFFDD" style="stroke:#181818;stroke-width:0.5;"/><text fill="#000000" font-family="sans-serif" font-size="13" lengthAdjust="spacing" textLength="105" x="48.79" y="396.3638">Realizar Reserva</text><text fill="#000000" font-family="sans-serif" font-size="13" lengthAdjust="spacing" textLength="111" x="48.79" y="411.4966">Cancelar Reserva</text><text fill="#000000" font-family="sans-serif" font-size="13" lengthAdjust="spacing" textLength="160" x="48.79" y="426.6294">Ver Historial de Reservas</text></g><!--link GestionarReservas to GestionarReservas--><g id="link_GestionarReservas_GestionarReservas"><path d="M182.62,475.6769 C193.16,477.8769 200.29,482.5869 200.29,489.7969 C200.29,497.0069 199.0334,500.4909 188.4934,502.6909 " fill="none" id="GestionarReservas-to-GestionarReservas" style="stroke:#181818;stroke-width:1.0;"/><polygon fill="#181818" points="182.62,503.9169,192.2474,505.9936,187.5145,502.8952,190.6128,498.1623,182.62,503.9169" style="stroke:#181818;stroke-width:1.0;"/><path d="M205.29,462.2969 L205.29,517.2969 L386.29,517.2969 L386.29,472.2969 L376.29,462.2969 L205.29,462.2969 " fill="#FEFFDD" style="stroke:#181818;stroke-width:0.5;"/><path d="M376.29,462.2969 L376.29,472.2969 L386.29,472.2969 L376.29,462.2969 " fill="#FEFFDD" style="stroke:#181818;stroke-width:0.5;"/><text fill="#000000" font-family="sans-serif" font-size="13" lengthAdjust="spacing" textLength="105" x="211.29" y="479.3638">Realizar Reserva</text><text fill="#000000" font-family="sans-serif" font-size="13" lengthAdjust="spacing" textLength="111" x="211.29" y="494.4966">Cancelar Reserva</text><text fill="#000000" font-family="sans-serif" font-size="13" lengthAdjust="spacing" textLength="160" x="211.29" y="509.6294">Ver Historial de Reservas</text></g><!--link GestionarReservas to PantallaPrincipal--><g id="link_GestionarReservas_PantallaPrincipal"><path d="M180.94,469.3669 C198.1,462.0569 215.4,452.2569 228.79,439.2969 C251.65,417.1669 232.86,392.7369 258.79,374.2969 C283.98,356.3869 469.4971,345.1194 569.4571,340.2394 " fill="none" id="GestionarReservas-to-PantallaPrincipal" style="stroke:#181818;stroke-width:1.0;"/><polygon fill="#181818" points="575.45,339.9469,566.2657,336.3905,570.4559,340.1907,566.6558,344.381,575.45,339.9469" style="stroke:#181818;stroke-width:1.0;"/><path d="M263.79,394.2969 L263.79,419.2969 L389.79,419.2969 L389.79,404.2969 L379.79,394.2969 L263.79,394.2969 " fill="#FEFFDD" style="stroke:#181818;stroke-width:0.5;"/><path d="M379.79,394.2969 L379.79,404.2969 L389.79,404.2969 L379.79,394.2969 " fill="#FEFFDD" style="stroke:#181818;stroke-width:0.5;"/><text fill="#000000" font-family="sans-serif" font-size="13" lengthAdjust="spacing" textLength="105" x="269.79" y="411.3638">Regresar a inicio</text></g><!--link PantallaPrincipal to GestionarUsuarios--><g id="link_PantallaPrincipal_GestionarUsuarios"><path d="M575.45,338.7169 C516.13,341.5269 431.54,349.8569 410.79,374.2969 C392.09,396.3169 397.51,413.6369 410.79,439.2969 C417.22,451.7269 423.3704,458.3797 434.9004,466.0297 " fill="none" id="PantallaPrincipal-to-GestionarUsuarios" style="stroke:#181818;stroke-width:1.0;"/><polygon fill="#181818" points="439.9,469.3469,434.612,461.038,435.7336,466.5826,430.1891,467.7042,439.9,469.3469" style="stroke:#181818;stroke-width:1.0;"/><path d="M415.79,394.2969 L415.79,419.2969 L529.79,419.2969 L529.79,404.2969 L519.79,394.2969 L415.79,394.2969 " fill="#FEFFDD" style="stroke:#181818;stroke-width:0.5;"/><path d="M519.79,394.2969 L519.79,404.2969 L529.79,404.2969 L519.79,394.2969 " fill="#FEFFDD" style="stroke:#181818;stroke-width:0.5;"/><text fill="#000000" font-family="sans-serif" font-size="13" lengthAdjust="spacing" textLength="93" x="421.79" y="411.3638">Borrar Usuario</text></g><!--link GestionarUsuarios to GestionarUsuarios--><g id="link_GestionarUsuarios_GestionarUsuarios"><path d="M549.67,475.6069 C560.16,477.7669 567.29,482.5069 567.29,489.7969 C567.29,497.0869 566.0367,500.6168 555.5467,502.7768 " fill="none" id="GestionarUsuarios-to-GestionarUsuarios" style="stroke:#181818;stroke-width:1.0;"/><polygon fill="#181818" points="549.67,503.9869,559.2918,506.0896,554.5673,502.9785,557.6783,498.254,549.67,503.9869" style="stroke:#181818;stroke-width:1.0;"/></g><!--link GestionarUsuarios to PantallaPrincipal--><g id="link_GestionarUsuarios_PantallaPrincipal"><path d="M507.35,469.5169 C517.19,461.1969 527.67,450.7469 534.79,439.2969 C550.69,413.7469 534.04,397.0069 553.79,374.2969 C559.94,367.2269 562.4959,364.4056 570.7859,359.6856 " fill="none" id="GestionarUsuarios-to-PantallaPrincipal" style="stroke:#181818;stroke-width:1.0;"/><polygon fill="#181818" points="576,356.7169,566.1997,357.6939,571.6549,359.1908,570.158,364.646,576,356.7169" style="stroke:#181818;stroke-width:1.0;"/><path d="M558.79,394.2969 L558.79,419.2969 L684.79,419.2969 L684.79,404.2969 L674.79,394.2969 L558.79,394.2969 " fill="#FEFFDD" style="stroke:#181818;stroke-width:0.5;"/><path d="M674.79,394.2969 L674.79,404.2969 L684.79,404.2969 L674.79,394.2969 " fill="#FEFFDD" style="stroke:#181818;stroke-width:0.5;"/><text fill="#000000" font-family="sans-serif" font-size="13" lengthAdjust="spacing" textLength="105" x="564.79" y="411.3638">Regresar a inicio</text></g><!--link PantallaPrincipal to GestionarPistas--><g id="link_PantallaPrincipal_GestionarPistas"><path d="M674.84,356.7569 C681.91,361.6969 688.66,367.5469 693.79,374.2969 C699.64,381.9969 713.9025,433.1526 722.1225,463.7326 " fill="none" id="PantallaPrincipal-to-GestionarPistas" style="stroke:#181818;stroke-width:1.0;"/><polygon fill="#181818" points="723.68,469.5269,725.2066,459.797,722.3821,464.6983,717.4808,461.8738,723.68,469.5269" style="stroke:#181818;stroke-width:1.0;"/><path d="M720.79,394.2969 L720.79,419.2969 L884.79,419.2969 L884.79,404.2969 L874.79,394.2969 L720.79,394.2969 " fill="#FEFFDD" style="stroke:#181818;stroke-width:0.5;"/><path d="M874.79,394.2969 L874.79,404.2969 L884.79,404.2969 L874.79,394.2969 " fill="#FEFFDD" style="stroke:#181818;stroke-width:0.5;"/><text fill="#000000" font-family="sans-serif" font-size="13" lengthAdjust="spacing" textLength="143" x="726.79" y="411.3638">Leer Hoarios de Pistas</text></g><!--link GestionarPistas to GestionarPistas--><g id="link_GestionarPistas_GestionarPistas"><path d="M788.19,475.2069 C798.57,477.1569 805.79,482.0169 805.79,489.7969 C805.79,497.5769 804.4668,501.3291 794.0868,503.2791 " fill="none" id="GestionarPistas-to-GestionarPistas" style="stroke:#181818;stroke-width:1.0;"/><polygon fill="#181818" points="788.19,504.3869,797.7738,506.6564,793.104,503.4637,796.2967,498.794,788.19,504.3869" style="stroke:#181818;stroke-width:1.0;"/><path d="M810.79,477.2969 L810.79,502.2969 L974.79,502.2969 L974.79,487.2969 L964.79,477.2969 L810.79,477.2969 " fill="#FEFFDD" style="stroke:#181818;stroke-width:0.5;"/><path d="M964.79,477.2969 L964.79,487.2969 L974.79,487.2969 L964.79,477.2969 " fill="#FEFFDD" style="stroke:#181818;stroke-width:0.5;"/><text fill="#000000" font-family="sans-serif" font-size="13" lengthAdjust="spacing" textLength="143" x="816.79" y="494.3638">Leer Hoarios de Pistas</text></g><!--link GestionarPistas to PantallaPrincipal--><g id="link_GestionarPistas_PantallaPrincipal"><path d="M788.13,487.3669 C824.06,483.0469 867.35,470.9769 890.79,439.2969 C907.98,416.0769 909.69,396.1369 890.79,374.2969 C866.13,345.7969 769.4586,338.9179 702.1486,337.4479 " fill="none" id="GestionarPistas-to-PantallaPrincipal" style="stroke:#181818;stroke-width:1.0;"/><polygon fill="#181818" points="696.15,337.3169,705.0605,341.5124,701.1488,337.426,705.2352,333.5143,696.15,337.3169" style="stroke:#181818;stroke-width:1.0;"/><path d="M909.79,394.2969 L909.79,419.2969 L1035.79,419.2969 L1035.79,404.2969 L1025.79,394.2969 L909.79,394.2969 " fill="#FEFFDD" style="stroke:#181818;stroke-width:0.5;"/><path d="M1025.79,394.2969 L1025.79,404.2969 L1035.79,404.2969 L1025.79,394.2969 " fill="#FEFFDD" style="stroke:#181818;stroke-width:0.5;"/><text fill="#000000" font-family="sans-serif" font-size="13" lengthAdjust="spacing" textLength="105" x="915.79" y="411.3638">Regresar a inicio</text></g><!--link PantallaPrincipal to GestionarPagos--><g id="link_PantallaPrincipal_GestionarPagos"><path d="M696.17,339.3769 C803.12,343.5569 1017.22,354.3169 1044.79,374.2969 C1070.26,392.7569 1052.52,415.2369 1072.79,439.2969 C1082.94,451.3369 1091.6221,458.4117 1104.6921,466.3517 " fill="none" id="PantallaPrincipal-to-GestionarPagos" style="stroke:#181818;stroke-width:1.0;"/><polygon fill="#181818" points="1109.82,469.4669,1104.2049,461.3755,1105.5467,466.8709,1100.0513,468.2127,1109.82,469.4669" style="stroke:#181818;stroke-width:1.0;"/><path d="M1077.79,386.7969 L1077.79,426.7969 L1198.79,426.7969 L1198.79,396.7969 L1188.79,386.7969 L1077.79,386.7969 " fill="#FEFFDD" style="stroke:#181818;stroke-width:0.5;"/><path d="M1188.79,386.7969 L1188.79,396.7969 L1198.79,396.7969 L1188.79,386.7969 " fill="#FEFFDD" style="stroke:#181818;stroke-width:0.5;"/><text fill="#000000" font-family="sans-serif" font-size="13" lengthAdjust="spacing" textLength="94" x="1083.79" y="403.8638">Pagos Reserva</text><text fill="#000000" font-family="sans-serif" font-size="13" lengthAdjust="spacing" textLength="100" x="1083.79" y="418.9966">Comprar Bonos</text></g><!--link GestionarPagos to GestionarPagos--><g id="link_GestionarPagos_GestionarPagos"><path d="M1208.97,475.2069 C1219.48,477.1569 1226.79,482.0169 1226.79,489.7969 C1226.79,497.5769 1225.3793,501.3423 1214.8693,503.2923 " fill="none" id="GestionarPagos-to-GestionarPagos" style="stroke:#181818;stroke-width:1.0;"/><polygon fill="#181818" points="1208.97,504.3869,1218.5487,506.6779,1213.8861,503.4748,1217.0893,498.8122,1208.97,504.3869" style="stroke:#181818;stroke-width:1.0;"/><path d="M1231.79,469.7969 L1231.79,509.7969 L1352.79,509.7969 L1352.79,479.7969 L1342.79,469.7969 L1231.79,469.7969 " fill="#FEFFDD" style="stroke:#181818;stroke-width:0.5;"/><path d="M1342.79,469.7969 L1342.79,479.7969 L1352.79,479.7969 L1342.79,469.7969 " fill="#FEFFDD" style="stroke:#181818;stroke-width:0.5;"/><text fill="#000000" font-family="sans-serif" font-size="13" lengthAdjust="spacing" textLength="94" x="1237.79" y="486.8638">Pagos Reserva</text><text fill="#000000" font-family="sans-serif" font-size="13" lengthAdjust="spacing" textLength="100" x="1237.79" y="501.9966">Comprar Bonos</text></g><!--link GestionarPagos to PantallaPrincipal--><g id="link_GestionarPagos_PantallaPrincipal"><path d="M1179.06,469.3669 C1188.84,461.3569 1198.51,451.1469 1203.79,439.2969 C1215.54,412.9069 1223.54,395.3769 1203.79,374.2969 C1169.65,337.8569 841.3299,335.8633 702.1299,336.6433 " fill="none" id="GestionarPagos-to-PantallaPrincipal" style="stroke:#181818;stroke-width:1.0;"/><polygon fill="#181818" points="696.13,336.6769,705.1523,340.6264,701.1299,336.6489,705.1074,332.6265,696.13,336.6769" style="stroke:#181818;stroke-width:1.0;"/><path d="M1219.79,394.2969 L1219.79,419.2969 L1345.79,419.2969 L1345.79,404.2969 L1335.79,394.2969 L1219.79,394.2969 " fill="#FEFFDD" style="stroke:#181818;stroke-width:0.5;"/><path d="M1335.79,394.2969 L1335.79,404.2969 L1345.79,404.2969 L1335.79,394.2969 " fill="#FEFFDD" style="stroke:#181818;stroke-width:0.5;"/><text fill="#000000" font-family="sans-serif" font-size="13" lengthAdjust="spacing" textLength="105" x="1225.79" y="411.3638">Regresar a inicio</text></g><ellipse cx="684.4" cy="634.3" fill="none" rx="11" ry="11" style="stroke:#222222;stroke-width:1.0;"/><ellipse cx="684.4" cy="634.3" fill="#222222" rx="6" ry="6" style="stroke:#222222;stroke-width:1.0;"/><!--link *start* to INICIO--><g id="link_*start*_INICIO"><path d="M684.4,26.19 C684.4,40.4 684.4,62.03 684.4,80.75 " fill="none" id="*start*-to-INICIO" style="stroke:#181818;stroke-width:1.0;"/><polygon fill="#181818" points="684.4,86.75,688.4,77.75,684.4,81.75,680.4,77.75,684.4,86.75" style="stroke:#181818;stroke-width:1.0;"/></g><!--link INICIO to BookingUneat--><g id="link_INICIO_BookingUneat"><path d="M684.4,127.14 C684.4,148.12 684.4,177.86 684.4,215.74 " fill="none" id="INICIO-to-BookingUneat" style="stroke:#181818;stroke-width:1.0;"/><polygon fill="#181818" points="684.4,221.74,688.4,212.74,684.4,216.74,680.4,212.74,684.4,221.74" style="stroke:#181818;stroke-width:1.0;"/><path d="M689.4,162 L689.4,187 L794.4,187 L794.4,172 L784.4,162 L689.4,162 " fill="#FEFFDD" style="stroke:#181818;stroke-width:0.5;"/><path d="M784.4,162 L784.4,172 L794.4,172 L784.4,162 " fill="#FEFFDD" style="stroke:#181818;stroke-width:0.5;"/><text fill="#000000" font-family="sans-serif" font-size="13" lengthAdjust="spacing" textLength="84" x="695.4" y="179.0669">Iniciar Sesi&#243;n</text></g><!--link BookingUneat to *end*--><g id="link_BookingUneat_*end*"><path d="M684.4,528.71 C684.4,568.72 684.4,599.53 684.4,616.86 " fill="none" id="BookingUneat-to-*end*" style="stroke:#181818;stroke-width:1.0;"/><polygon fill="#181818" points="684.4,622.86,688.4,613.86,684.4,617.86,680.4,613.86,684.4,622.86" style="stroke:#181818;stroke-width:1.0;"/><path d="M689.4,563.3 L689.4,588.3 L792.4,588.3 L792.4,573.3 L782.4,563.3 L689.4,563.3 " fill="#FEFFDD" style="stroke:#181818;stroke-width:0.5;"/><path d="M782.4,563.3 L782.4,573.3 L792.4,573.3 L782.4,563.3 " fill="#FEFFDD" style="stroke:#181818;stroke-width:0.5;"/><text fill="#000000" font-family="sans-serif" font-size="13" lengthAdjust="spacing" textLength="82" x="695.4" y="580.3669">Cerar Sesi&#243;n</text></g><!--SRC=[rLD1JiCm4Bpx5JuZzGiSqWD4Gb0LbGlYi4fNOLLtDx8D4Y1UnHFu6BRJXbPnBP2AK7E9uftrpEni7cc96jUTVz5BT8sbpfEmKlTd3teoETVrTJsjRrJ_IYULo8guNJ22LomUjR0sn2kbmrCpDGHMtwAZpmzMo4iTGKhjzgMB0iMuVuess-qy1EJU7M-fOIjq1kp169XPueOwCAawEatO2tJH9TWvEhJFu19sf2K-SmH3hq7I1ZeKfi0DcapX3gs-9EV5Kg0BqzqZ6Hp5Zv6E4r2Nd_D1XRtArg8BOa1JN0yPgj_v_Y2iXNi2Ir8OHoKsRiy6M72qlQf0aCVctH_89kVwLuvd8QXI_5SOqvHUNiXo1v_ttGCESHoLfBGiVpOlQ4lhaShZNqNMNToQIbYAjbBtV_0TUuhg_Gi0]--></g></svg>