<?xml version="1.0" encoding="us-ascii" standalone="no"?><svg xmlns="http://www.w3.org/2000/svg" xmlns:xlink="http://www.w3.org/1999/xlink" contentStyleType="text/css" height="715px" preserveAspectRatio="none" style="width:2593px;height:715px;background:#FFFFFF;" version="1.1" viewBox="0 0 2593 715" width="2593px" zoomAndPan="magnify"><defs/><g><ellipse cx="1293.35" cy="16" fill="#222222" rx="10" ry="10" style="stroke:#222222;stroke-width:1.0;"/><rect fill="#F1F1F1" height="40" rx="12.5" ry="12.5" style="stroke:#181818;stroke-width:0.5;" width="50" x="1268.36" y="87"/><text fill="#000000" font-family="sans-serif" font-size="14" lengthAdjust="spacing" textLength="40" x="1273.36" y="111.8467">INICIO</text><path d="M19.5,222 L2567.21,222 A12.5,12.5 0 0 1 2579.71,234.5 L2579.71,248.2969 L7,248.2969 L7,234.5 A12.5,12.5 0 0 1 19.5,222 " fill="#F1F1F1" style="stroke:#F1F1F1;stroke-width:1.0;"/><rect fill="none" height="370.2969" rx="12.5" ry="12.5" style="stroke:#181818;stroke-width:0.5;" width="2572.71" x="7" y="222"/><line style="stroke:#181818;stroke-width:0.5;" x1="7" x2="2579.71" y1="248.2969" y2="248.2969"/><text fill="#000000" font-family="sans-serif" font-size="14" lengthAdjust="spacing" textLength="98" x="1244.355" y="239.9951">BookingUneat</text><ellipse cx="1212.21" cy="269.2969" fill="#222222" rx="10" ry="10" style="stroke:#222222;stroke-width:1.0;"/><rect fill="#F1F1F1" height="40" rx="12.5" ry="12.5" style="stroke:#181818;stroke-width:0.5;" width="120" x="1152.21" y="365.2969"/><text fill="#000000" font-family="sans-serif" font-size="14" lengthAdjust="spacing" textLength="110" x="1157.21" y="390.1436">PantallaPrincipal</text><rect fill="#F1F1F1" height="40" rx="12.5" ry="12.5" style="stroke:#181818;stroke-width:0.5;" width="122" x="46.21" y="518.7969"/><text fill="#000000" font-family="sans-serif" font-size="14" lengthAdjust="spacing" textLength="112" x="51.21" y="543.6436">GestionarBonos</text><rect fill="#F1F1F1" height="40" rx="12.5" ry="12.5" style="stroke:#181818;stroke-width:0.5;" width="141" x="407.71" y="518.7969"/><text fill="#000000" font-family="sans-serif" font-size="14" lengthAdjust="spacing" textLength="131" x="412.71" y="543.6436">GestionarReservas</text><rect fill="#F1F1F1" height="40" rx="12.5" ry="12.5" style="stroke:#181818;stroke-width:0.5;" width="137" x="710.71" y="518.7969"/><text fill="#000000" font-family="sans-serif" font-size="14" lengthAdjust="spacing" textLength="127" x="715.71" y="543.6436">GestionarUsuarios</text><rect fill="#F1F1F1" height="40" rx="12.5" ry="12.5" style="stroke:#181818;stroke-width:0.5;" width="118" x="1153.21" y="518.7969"/><text fill="#000000" font-family="sans-serif" font-size="14" lengthAdjust="spacing" textLength="108" x="1158.21" y="543.6436">GestionarPistas</text><rect fill="#F1F1F1" height="40" rx="12.5" ry="12.5" style="stroke:#181818;stroke-width:0.5;" width="120" x="1742.21" y="518.7969"/><text fill="#000000" font-family="sans-serif" font-size="14" lengthAdjust="spacing" textLength="110" x="1747.21" y="543.6436">GestionarPagos</text><rect fill="#F1F1F1" height="40" rx="12.5" ry="12.5" style="stroke:#181818;stroke-width:0.5;" width="173" x="2197.71" y="518.7969"/><text fill="#000000" font-family="sans-serif" font-size="14" lengthAdjust="spacing" textLength="163" x="2202.71" y="543.6436">GestionarNotificaciones</text><!--link *start*BookingUneat to PantallaPrincipal--><g id="link_*start*BookingUneat_PantallaPrincipal"><path d="M1212.21,279.6269 C1212.21,298.2369 1212.21,334.3169 1212.21,359.0769 " fill="none" id="*start*BookingUneat-to-PantallaPrincipal" style="stroke:#181818;stroke-width:1.0;"/><polygon fill="#181818" points="1212.21,365.0769,1216.21,356.0769,1212.21,360.0769,1208.21,356.0769,1212.21,365.0769" style="stroke:#181818;stroke-width:1.0;"/><path d="M1217.21,302.2969 L1217.21,342.2969 L1377.21,342.2969 L1377.21,312.2969 L1367.21,302.2969 L1217.21,302.2969 " fill="#FEFFDD" style="stroke:#181818;stroke-width:0.5;"/><path d="M1367.21,302.2969 L1367.21,312.2969 L1377.21,312.2969 L1367.21,302.2969 " fill="#FEFFDD" style="stroke:#181818;stroke-width:0.5;"/><text fill="#000000" font-family="sans-serif" font-size="13" lengthAdjust="spacing" textLength="139" x="1223.21" y="319.3638">Diferente pagina para</text><text fill="#000000" font-family="sans-serif" font-size="13" lengthAdjust="spacing" textLength="130" x="1223.21" y="334.4966">cada tipo de usuario</text></g><!--link PantallaPrincipal to GestionarBonos--><g id="link_PantallaPrincipal_GestionarBonos"><path d="M1151.77,385.9069 C917.98,384.7069 84,383.2569 45.21,423.2969 C18,451.3869 51.4099,489.7946 78.8299,514.3446 " fill="none" id="PantallaPrincipal-to-GestionarBonos" style="stroke:#181818;stroke-width:1.0;"/><polygon fill="#181818" points="83.3,518.3469,79.263,509.3634,79.5749,515.0117,73.9266,515.3236,83.3,518.3469" style="stroke:#181818;stroke-width:1.0;"/><path d="M50.21,435.7969 L50.21,460.7969 L143.21,460.7969 L143.21,445.7969 L133.21,435.7969 L50.21,435.7969 " fill="#FEFFDD" style="stroke:#181818;stroke-width:0.5;"/><path d="M133.21,435.7969 L133.21,445.7969 L143.21,445.7969 L133.21,435.7969 " fill="#FEFFDD" style="stroke:#181818;stroke-width:0.5;"/><text fill="#000000" font-family="sans-serif" font-size="13" lengthAdjust="spacing" textLength="72" x="56.21" y="452.8638">Leer Bonos</text></g><!--link GestionarBonos to GestionarBonos--><g id="link_GestionarBonos_GestionarBonos"><path d="M168.49,522.9569 C178.96,525.1169 186.21,530.3969 186.21,538.7969 C186.21,547.1969 184.8363,551.2646 174.3663,553.4246 " fill="none" id="GestionarBonos-to-GestionarBonos" style="stroke:#181818;stroke-width:1.0;"/><polygon fill="#181818" points="168.49,554.6369,178.1126,556.7359,173.3869,553.6266,176.4962,548.9009,168.49,554.6369" style="stroke:#181818;stroke-width:1.0;"/><path d="M191.21,503.7969 L191.21,573.7969 L319.21,573.7969 L319.21,513.7969 L309.21,503.7969 L191.21,503.7969 " fill="#FEFFDD" style="stroke:#181818;stroke-width:0.5;"/><path d="M309.21,503.7969 L309.21,513.7969 L319.21,513.7969 L309.21,503.7969 " fill="#FEFFDD" style="stroke:#181818;stroke-width:0.5;"/><text fill="#000000" font-family="sans-serif" font-size="13" lengthAdjust="spacing" textLength="79" x="197.21" y="520.8638">Crear Bonos</text><text fill="#000000" font-family="sans-serif" font-size="13" lengthAdjust="spacing" textLength="107" x="197.21" y="535.9966">Actualizar Bonos</text><text fill="#000000" font-family="sans-serif" font-size="13" lengthAdjust="spacing" textLength="84" x="197.21" y="551.1294">Borrar Bonos</text><text fill="#000000" font-family="sans-serif" font-size="13" lengthAdjust="spacing" textLength="72" x="197.21" y="566.2622">Leer Bonos</text></g><!--link GestionarBonos to PantallaPrincipal--><g id="link_GestionarBonos_PantallaPrincipal"><path d="M119.53,518.4069 C140.26,485.7969 179.91,423.4669 180.21,423.2969 C222.52,399.0969 931.8704,389.3738 1146.0804,386.9838 " fill="none" id="GestionarBonos-to-PantallaPrincipal" style="stroke:#181818;stroke-width:1.0;"/><polygon fill="#181818" points="1152.08,386.9169,1143.0359,383.0175,1147.0803,386.9727,1143.1252,391.017,1152.08,386.9169" style="stroke:#181818;stroke-width:1.0;"/><path d="M185.21,435.7969 L185.21,460.7969 L311.21,460.7969 L311.21,445.7969 L301.21,435.7969 L185.21,435.7969 " fill="#FEFFDD" style="stroke:#181818;stroke-width:0.5;"/><path d="M301.21,435.7969 L301.21,445.7969 L311.21,445.7969 L301.21,435.7969 " fill="#FEFFDD" style="stroke:#181818;stroke-width:0.5;"/><text fill="#000000" font-family="sans-serif" font-size="13" lengthAdjust="spacing" textLength="105" x="191.21" y="452.8638">Regresar a inicio</text></g><!--link PantallaPrincipal to GestionarReservas--><g id="link_PantallaPrincipal_GestionarReservas"><path d="M1151.75,386.5669 C957.25,387.7169 358.62,393.6669 330.21,423.2969 C314.83,439.3369 318.03,454.7069 330.21,473.2969 C347.57,499.7869 372.7219,513.6494 401.7919,522.8894 " fill="none" id="PantallaPrincipal-to-GestionarReservas" style="stroke:#181818;stroke-width:1.0;"/><polygon fill="#181818" points="407.51,524.7069,400.1445,518.1685,402.7449,523.1923,397.7212,525.7927,407.51,524.7069" style="stroke:#181818;stroke-width:1.0;"/><path d="M335.21,435.7969 L335.21,460.7969 L516.21,460.7969 L516.21,445.7969 L506.21,435.7969 L335.21,435.7969 " fill="#FEFFDD" style="stroke:#181818;stroke-width:0.5;"/><path d="M506.21,435.7969 L506.21,445.7969 L516.21,445.7969 L506.21,435.7969 " fill="#FEFFDD" style="stroke:#181818;stroke-width:0.5;"/><text fill="#000000" font-family="sans-serif" font-size="13" lengthAdjust="spacing" textLength="160" x="341.21" y="452.8638">Ver Historial de Reservas</text></g><!--link GestionarReservas to PantallaPrincipal--><g id="link_GestionarReservas_PantallaPrincipal"><path d="M491.22,518.3369 C499.76,505.5469 511.17,488.4369 521.21,473.2969 C535.93,451.1069 531.13,436.5669 554.21,423.2969 C605.2,393.9769 992.8002,387.9363 1145.7302,386.6763 " fill="none" id="GestionarReservas-to-PantallaPrincipal" style="stroke:#181818;stroke-width:1.0;"/><polygon fill="#181818" points="1151.73,386.6269,1142.6974,382.7012,1146.7302,386.6681,1142.7633,390.7009,1151.73,386.6269" style="stroke:#181818;stroke-width:1.0;"/><path d="M559.21,435.7969 L559.21,460.7969 L685.21,460.7969 L685.21,445.7969 L675.21,435.7969 L559.21,435.7969 " fill="#FEFFDD" style="stroke:#181818;stroke-width:0.5;"/><path d="M675.21,435.7969 L675.21,445.7969 L685.21,445.7969 L675.21,435.7969 " fill="#FEFFDD" style="stroke:#181818;stroke-width:0.5;"/><text fill="#000000" font-family="sans-serif" font-size="13" lengthAdjust="spacing" textLength="105" x="565.21" y="452.8638">Regresar a inicio</text></g><!--link PantallaPrincipal to GestionarUsuarios--><g id="link_PantallaPrincipal_GestionarUsuarios"><path d="M1151.73,386.1869 C1023.42,386.5769 733.19,391.0569 703.21,423.2969 C688.08,439.5669 693.88,453.1269 703.21,473.2969 C711.93,492.1469 724.2483,504.0795 740.1083,515.0695 " fill="none" id="PantallaPrincipal-to-GestionarUsuarios" style="stroke:#181818;stroke-width:1.0;"/><polygon fill="#181818" points="745.04,518.4869,739.9207,510.073,740.9303,515.6391,735.3642,516.6486,745.04,518.4869" style="stroke:#181818;stroke-width:1.0;"/><path d="M708.21,435.7969 L708.21,460.7969 L829.21,460.7969 L829.21,445.7969 L819.21,435.7969 L708.21,435.7969 " fill="#FEFFDD" style="stroke:#181818;stroke-width:0.5;"/><path d="M819.21,435.7969 L819.21,445.7969 L829.21,445.7969 L819.21,435.7969 " fill="#FEFFDD" style="stroke:#181818;stroke-width:0.5;"/><text fill="#000000" font-family="sans-serif" font-size="13" lengthAdjust="spacing" textLength="100" x="714.21" y="452.8638">Borrar Usuarios</text></g><!--link GestionarUsuarios to GestionarUsuarios--><g id="link_GestionarUsuarios_GestionarUsuarios"><path d="M848.09,523.3269 C858.58,525.6869 865.71,530.8469 865.71,538.7969 C865.71,546.7469 864.4337,550.5899 853.9437,552.9499 " fill="none" id="GestionarUsuarios-to-GestionarUsuarios" style="stroke:#181818;stroke-width:1.0;"/><polygon fill="#181818" points="848.09,554.2669,857.7485,556.1939,852.9681,553.1694,855.9926,548.389,848.09,554.2669" style="stroke:#181818;stroke-width:1.0;"/><path d="M870.71,526.2969 L870.71,551.2969 L991.71,551.2969 L991.71,536.2969 L981.71,526.2969 L870.71,526.2969 " fill="#FEFFDD" style="stroke:#181818;stroke-width:0.5;"/><path d="M981.71,526.2969 L981.71,536.2969 L991.71,536.2969 L981.71,526.2969 " fill="#FEFFDD" style="stroke:#181818;stroke-width:0.5;"/><text fill="#000000" font-family="sans-serif" font-size="13" lengthAdjust="spacing" textLength="100" x="876.71" y="543.3638">Borrar Usuarios</text></g><!--link GestionarUsuarios to PantallaPrincipal--><g id="link_GestionarUsuarios_PantallaPrincipal"><path d="M797.03,518.3269 C808.17,505.8169 822.56,489.0269 834.21,473.2969 C849.92,452.0969 843.77,437.1769 866.21,423.2969 C912.58,394.6169 1059.5708,388.0857 1145.7808,386.6657 " fill="none" id="GestionarUsuarios-to-PantallaPrincipal" style="stroke:#181818;stroke-width:1.0;"/><polygon fill="#181818" points="1151.78,386.5669,1142.7153,382.7156,1146.7807,386.6492,1142.8471,390.7146,1151.78,386.5669" style="stroke:#181818;stroke-width:1.0;"/><path d="M871.21,435.7969 L871.21,460.7969 L997.21,460.7969 L997.21,445.7969 L987.21,435.7969 L871.21,435.7969 " fill="#FEFFDD" style="stroke:#181818;stroke-width:0.5;"/><path d="M987.21,435.7969 L987.21,445.7969 L997.21,445.7969 L987.21,435.7969 " fill="#FEFFDD" style="stroke:#181818;stroke-width:0.5;"/><text fill="#000000" font-family="sans-serif" font-size="13" lengthAdjust="spacing" textLength="105" x="877.21" y="452.8638">Regresar a inicio</text></g><!--link PantallaPrincipal to GestionarPistas--><g id="link_PantallaPrincipal_GestionarPistas"><path d="M1151.76,389.4569 C1100.7,393.5469 1033.23,402.7669 1016.21,423.2969 C1002.03,440.4069 1003.18,455.2969 1016.21,473.2969 C1047.19,516.1069 1101.5748,530.3518 1147.1648,535.2818 " fill="none" id="PantallaPrincipal-to-GestionarPistas" style="stroke:#181818;stroke-width:1.0;"/><polygon fill="#181818" points="1153.13,535.9269,1144.6122,530.9825,1148.159,535.3893,1143.7521,538.9361,1153.13,535.9269" style="stroke:#181818;stroke-width:1.0;"/><path d="M1021.21,435.7969 L1021.21,460.7969 L1185.21,460.7969 L1185.21,445.7969 L1175.21,435.7969 L1021.21,435.7969 " fill="#FEFFDD" style="stroke:#181818;stroke-width:0.5;"/><path d="M1175.21,435.7969 L1175.21,445.7969 L1185.21,445.7969 L1175.21,435.7969 " fill="#FEFFDD" style="stroke:#181818;stroke-width:0.5;"/><text fill="#000000" font-family="sans-serif" font-size="13" lengthAdjust="spacing" textLength="143" x="1027.21" y="452.8638">Leer Hoarios de Pistas</text></g><!--link GestionarPistas to GestionarPistas--><g id="link_GestionarPistas_GestionarPistas"><path d="M1271.62,522.8869 C1281.99,525.0069 1289.21,530.3169 1289.21,538.7969 C1289.21,547.2769 1287.8684,551.3851 1277.4984,553.5051 " fill="none" id="GestionarPistas-to-GestionarPistas" style="stroke:#181818;stroke-width:1.0;"/><polygon fill="#181818" points="1271.62,554.7069,1281.2388,556.8232,1276.5187,553.7054,1279.6365,548.9853,1271.62,554.7069" style="stroke:#181818;stroke-width:1.0;"/><path d="M1294.21,496.2969 L1294.21,581.2969 L1498.21,581.2969 L1498.21,506.2969 L1488.21,496.2969 L1294.21,496.2969 " fill="#FEFFDD" style="stroke:#181818;stroke-width:0.5;"/><path d="M1488.21,496.2969 L1488.21,506.2969 L1498.21,506.2969 L1488.21,496.2969 " fill="#FEFFDD" style="stroke:#181818;stroke-width:0.5;"/><text fill="#000000" font-family="sans-serif" font-size="13" lengthAdjust="spacing" textLength="82" x="1300.21" y="513.3638">Borrar Pistas</text><text fill="#000000" font-family="sans-serif" font-size="13" lengthAdjust="spacing" textLength="77" x="1300.21" y="528.4966">Crear Pistas</text><text fill="#000000" font-family="sans-serif" font-size="13" lengthAdjust="spacing" textLength="105" x="1300.21" y="543.6294">Actualizar Pistas</text><text fill="#000000" font-family="sans-serif" font-size="13" lengthAdjust="spacing" textLength="70" x="1300.21" y="558.7622">Leer Pistas</text><text fill="#000000" font-family="sans-serif" font-size="13" lengthAdjust="spacing" textLength="183" x="1300.21" y="573.895">Actualizar Horarios de Pistas</text></g><!--link GestionarPistas to PantallaPrincipal--><g id="link_GestionarPistas_PantallaPrincipal"><path d="M1212.21,518.3769 C1212.21,489.3269 1212.21,440.8869 1212.21,411.7969 " fill="none" id="GestionarPistas-to-PantallaPrincipal" style="stroke:#181818;stroke-width:1.0;"/><polygon fill="#181818" points="1212.21,405.7969,1208.21,414.7969,1212.21,410.7969,1216.21,414.7969,1212.21,405.7969" style="stroke:#181818;stroke-width:1.0;"/><path d="M1217.21,435.7969 L1217.21,460.7969 L1343.21,460.7969 L1343.21,445.7969 L1333.21,435.7969 L1217.21,435.7969 " fill="#FEFFDD" style="stroke:#181818;stroke-width:0.5;"/><path d="M1333.21,435.7969 L1333.21,445.7969 L1343.21,445.7969 L1333.21,435.7969 " fill="#FEFFDD" style="stroke:#181818;stroke-width:0.5;"/><text fill="#000000" font-family="sans-serif" font-size="13" lengthAdjust="spacing" textLength="105" x="1223.21" y="452.8638">Regresar a inicio</text></g><!--link PantallaPrincipal to GestionarPagos--><g id="link_PantallaPrincipal_GestionarPagos"><path d="M1272.53,388.1469 C1345.36,391.3869 1462.66,400.1369 1499.21,423.2969 C1521.5,437.4169 1509.7,458.0169 1531.21,473.2969 C1593.9,517.8269 1677.2759,531.4897 1735.9959,535.7797 " fill="none" id="PantallaPrincipal-to-GestionarPagos" style="stroke:#181818;stroke-width:1.0;"/><polygon fill="#181818" points="1741.98,536.2169,1733.2954,531.5717,1736.9933,535.8526,1732.7125,539.5505,1741.98,536.2169" style="stroke:#181818;stroke-width:1.0;"/><path d="M1536.21,435.7969 L1536.21,460.7969 L1698.21,460.7969 L1698.21,445.7969 L1688.21,435.7969 L1536.21,435.7969 " fill="#FEFFDD" style="stroke:#181818;stroke-width:0.5;"/><path d="M1688.21,435.7969 L1688.21,445.7969 L1698.21,445.7969 L1688.21,435.7969 " fill="#FEFFDD" style="stroke:#181818;stroke-width:0.5;"/><text fill="#000000" font-family="sans-serif" font-size="13" lengthAdjust="spacing" textLength="141" x="1542.21" y="452.8638">Ver Historial de Pagos</text></g><!--link GestionarPagos to PantallaPrincipal--><g id="link_GestionarPagos_PantallaPrincipal"><path d="M1823.63,518.6669 C1848.68,494.0669 1883.56,451.1969 1857.21,423.2969 C1837.31,402.2169 1434.8585,391.1919 1278.4285,387.6719 " fill="none" id="GestionarPagos-to-PantallaPrincipal" style="stroke:#181818;stroke-width:1.0;"/><polygon fill="#181818" points="1272.43,387.5369,1281.3377,391.7383,1277.4287,387.6494,1281.5177,383.7404,1272.43,387.5369" style="stroke:#181818;stroke-width:1.0;"/><path d="M1872.21,435.7969 L1872.21,460.7969 L1998.21,460.7969 L1998.21,445.7969 L1988.21,435.7969 L1872.21,435.7969 " fill="#FEFFDD" style="stroke:#181818;stroke-width:0.5;"/><path d="M1988.21,435.7969 L1988.21,445.7969 L1998.21,445.7969 L1988.21,435.7969 " fill="#FEFFDD" style="stroke:#181818;stroke-width:0.5;"/><text fill="#000000" font-family="sans-serif" font-size="13" lengthAdjust="spacing" textLength="105" x="1878.21" y="452.8638">Regresar a inicio</text></g><!--link PantallaPrincipal to GestionarNotificaciones--><g id="link_PantallaPrincipal_GestionarNotificaciones"><path d="M1272.53,385.7669 C1468.55,384.4369 2079.53,383.5669 2158.21,423.2969 C2183.61,436.1269 2177.78,453.4869 2198.21,473.2969 C2215.63,490.1869 2232.6102,503.1267 2249.9502,515.1567 " fill="none" id="PantallaPrincipal-to-GestionarNotificaciones" style="stroke:#181818;stroke-width:1.0;"/><polygon fill="#181818" points="2254.88,518.5769,2249.7654,510.1602,2250.7719,515.7268,2245.2052,516.7332,2254.88,518.5769" style="stroke:#181818;stroke-width:1.0;"/><path d="M2203.21,435.7969 L2203.21,460.7969 L2345.21,460.7969 L2345.21,445.7969 L2335.21,435.7969 L2203.21,435.7969 " fill="#FEFFDD" style="stroke:#181818;stroke-width:0.5;"/><path d="M2335.21,435.7969 L2335.21,445.7969 L2345.21,445.7969 L2335.21,435.7969 " fill="#FEFFDD" style="stroke:#181818;stroke-width:0.5;"/><text fill="#000000" font-family="sans-serif" font-size="13" lengthAdjust="spacing" textLength="121" x="2209.21" y="452.8638">Leer Notificaciones</text></g><!--link GestionarNotificaciones to GestionarNotificaciones--><g id="link_GestionarNotificaciones_GestionarNotificaciones"><path d="M2371.1,524.1169 C2381.74,526.7469 2388.71,531.6369 2388.71,538.7969 C2388.71,545.9569 2387.5647,549.4071 2376.9247,552.0371 " fill="none" id="GestionarNotificaciones-to-GestionarNotificaciones" style="stroke:#181818;stroke-width:1.0;"/><polygon fill="#181818" points="2371.1,553.4769,2380.7969,555.2004,2375.9539,552.2771,2378.8772,547.4341,2371.1,553.4769" style="stroke:#181818;stroke-width:1.0;"/><path d="M2393.71,503.7969 L2393.71,573.7969 L2570.71,573.7969 L2570.71,513.7969 L2560.71,503.7969 L2393.71,503.7969 " fill="#FEFFDD" style="stroke:#181818;stroke-width:0.5;"/><path d="M2560.71,503.7969 L2560.71,513.7969 L2570.71,513.7969 L2560.71,503.7969 " fill="#FEFFDD" style="stroke:#181818;stroke-width:0.5;"/><text fill="#000000" font-family="sans-serif" font-size="13" lengthAdjust="spacing" textLength="128" x="2399.71" y="520.8638">Crear Notificaciones</text><text fill="#000000" font-family="sans-serif" font-size="13" lengthAdjust="spacing" textLength="156" x="2399.71" y="535.9966">Actualizar Notificaciones</text><text fill="#000000" font-family="sans-serif" font-size="13" lengthAdjust="spacing" textLength="133" x="2399.71" y="551.1294">Borrar Notificaciones</text><text fill="#000000" font-family="sans-serif" font-size="13" lengthAdjust="spacing" textLength="121" x="2399.71" y="566.2622">Leer Notificaciones</text></g><!--link GestionarNotificaciones to PantallaPrincipal--><g id="link_GestionarNotificaciones_PantallaPrincipal"><path d="M2309.23,518.4869 C2337.97,494.0769 2377.82,451.8169 2350.21,423.2969 C2312.47,384.3069 1507.9099,384.9613 1278.3199,385.9413 " fill="none" id="GestionarNotificaciones-to-PantallaPrincipal" style="stroke:#181818;stroke-width:1.0;"/><polygon fill="#181818" points="1272.32,385.9669,1281.337,389.9284,1277.32,385.9455,1281.3028,381.9285,1272.32,385.9669" style="stroke:#181818;stroke-width:1.0;"/><path d="M2364.21,435.7969 L2364.21,460.7969 L2490.21,460.7969 L2490.21,445.7969 L2480.21,435.7969 L2364.21,435.7969 " fill="#FEFFDD" style="stroke:#181818;stroke-width:0.5;"/><path d="M2480.21,435.7969 L2480.21,445.7969 L2490.21,445.7969 L2480.21,435.7969 " fill="#FEFFDD" style="stroke:#181818;stroke-width:0.5;"/><text fill="#000000" font-family="sans-serif" font-size="13" lengthAdjust="spacing" textLength="105" x="2370.21" y="452.8638">Regresar a inicio</text></g><!--link GestionarPistas to PantallaPrincipal--><g id="link_GestionarPistas_PantallaPrincipal"><path d="M1271.4,525.5369 C1300.11,516.2969 1332.03,500.3769 1349.21,473.2969 C1361.12,454.5369 1362.72,440.9369 1349.21,423.2969 C1339.51,410.6269 1310.4646,402.4264 1278.2946,396.3164 " fill="none" id="GestionarPistas-to-PantallaPrincipal-1" style="stroke:#181818;stroke-width:1.0;"/><polygon fill="#181818" points="1272.4,395.1969,1280.4956,400.806,1277.3122,396.1298,1281.9883,392.9465,1272.4,395.1969" style="stroke:#181818;stroke-width:1.0;"/><path d="M1364.21,435.7969 L1364.21,460.7969 L1490.21,460.7969 L1490.21,445.7969 L1480.21,435.7969 L1364.21,435.7969 " fill="#FEFFDD" style="stroke:#181818;stroke-width:0.5;"/><path d="M1480.21,435.7969 L1480.21,445.7969 L1490.21,445.7969 L1480.21,435.7969 " fill="#FEFFDD" style="stroke:#181818;stroke-width:0.5;"/><text fill="#000000" font-family="sans-serif" font-size="13" lengthAdjust="spacing" textLength="105" x="1370.21" y="452.8638">Regresar a inicio</text></g><!--link PantallaPrincipal to GestionarPagos--><g id="link_PantallaPrincipal_GestionarPagos"><path d="M1272.58,387.2669 C1396.21,389.7569 1669.43,398.0769 1703.21,423.2969 C1722.26,437.5169 1708.25,454.0569 1722.21,473.2969 C1735.2,491.2069 1749.464,503.4569 1765.784,514.8769 " fill="none" id="PantallaPrincipal-to-GestionarPagos-1" style="stroke:#181818;stroke-width:1.0;"/><polygon fill="#181818" points="1770.7,518.3169,1765.6194,509.8796,1766.6034,515.4502,1761.0328,516.4342,1770.7,518.3169" style="stroke:#181818;stroke-width:1.0;"/><path d="M1727.21,428.2969 L1727.21,468.2969 L1848.21,468.2969 L1848.21,438.2969 L1838.21,428.2969 L1727.21,428.2969 " fill="#FEFFDD" style="stroke:#181818;stroke-width:0.5;"/><path d="M1838.21,428.2969 L1838.21,438.2969 L1848.21,438.2969 L1838.21,428.2969 " fill="#FEFFDD" style="stroke:#181818;stroke-width:0.5;"/><text fill="#000000" font-family="sans-serif" font-size="13" lengthAdjust="spacing" textLength="94" x="1733.21" y="445.3638">Pagos Reserva</text><text fill="#000000" font-family="sans-serif" font-size="13" lengthAdjust="spacing" textLength="100" x="1733.21" y="460.4966">Comprar Bonos</text></g><!--link GestionarPagos to GestionarPagos--><g id="link_GestionarPagos_GestionarPagos"><path d="M1862.39,522.8869 C1872.9,525.0069 1880.21,530.3169 1880.21,538.7969 C1880.21,547.2769 1878.7815,551.4005 1868.2715,553.5205 " fill="none" id="GestionarPagos-to-GestionarPagos" style="stroke:#181818;stroke-width:1.0;"/><polygon fill="#181818" points="1862.39,554.7069,1872.0032,556.8483,1867.2913,553.7182,1870.4214,549.0063,1862.39,554.7069" style="stroke:#181818;stroke-width:1.0;"/><path d="M1885.21,518.7969 L1885.21,558.7969 L2006.21,558.7969 L2006.21,528.7969 L1996.21,518.7969 L1885.21,518.7969 " fill="#FEFFDD" style="stroke:#181818;stroke-width:0.5;"/><path d="M1996.21,518.7969 L1996.21,528.7969 L2006.21,528.7969 L1996.21,518.7969 " fill="#FEFFDD" style="stroke:#181818;stroke-width:0.5;"/><text fill="#000000" font-family="sans-serif" font-size="13" lengthAdjust="spacing" textLength="94" x="1891.21" y="535.8638">Pagos Reserva</text><text fill="#000000" font-family="sans-serif" font-size="13" lengthAdjust="spacing" textLength="100" x="1891.21" y="550.9966">Comprar Bonos</text></g><!--link GestionarPagos to PantallaPrincipal--><g id="link_GestionarPagos_PantallaPrincipal"><path d="M1862.48,536.9069 C1910.27,532.6169 1974.33,518.1169 2007.21,473.2969 C2020.36,455.3769 2022.55,439.3669 2007.21,423.2969 C1981.94,396.8269 1459.9396,388.8921 1278.6696,386.9221 " fill="none" id="GestionarPagos-to-PantallaPrincipal-1" style="stroke:#181818;stroke-width:1.0;"/><polygon fill="#181818" points="1272.67,386.8569,1281.626,390.9544,1277.6697,386.9112,1281.7129,382.9549,1272.67,386.8569" style="stroke:#181818;stroke-width:1.0;"/><path d="M2023.21,435.7969 L2023.21,460.7969 L2149.21,460.7969 L2149.21,445.7969 L2139.21,435.7969 L2023.21,435.7969 " fill="#FEFFDD" style="stroke:#181818;stroke-width:0.5;"/><path d="M2139.21,435.7969 L2139.21,445.7969 L2149.21,445.7969 L2139.21,435.7969 " fill="#FEFFDD" style="stroke:#181818;stroke-width:0.5;"/><text fill="#000000" font-family="sans-serif" font-size="13" lengthAdjust="spacing" textLength="105" x="2029.21" y="452.8638">Regresar a inicio</text></g><ellipse cx="1293.35" cy="698.3" fill="none" rx="11" ry="11" style="stroke:#222222;stroke-width:1.0;"/><ellipse cx="1293.35" cy="698.3" fill="#222222" rx="6" ry="6" style="stroke:#222222;stroke-width:1.0;"/><!--link *start* to INICIO--><g id="link_*start*_INICIO"><path d="M1293.35,26.19 C1293.35,40.4 1293.35,62.03 1293.35,80.75 " fill="none" id="*start*-to-INICIO" style="stroke:#181818;stroke-width:1.0;"/><polygon fill="#181818" points="1293.35,86.75,1297.35,77.75,1293.35,81.75,1289.35,77.75,1293.35,86.75" style="stroke:#181818;stroke-width:1.0;"/></g><!--link INICIO to BookingUneat--><g id="link_INICIO_BookingUneat"><path d="M1293.35,127.11 C1293.35,147.8 1293.35,177.07 1293.35,215.71 " fill="none" id="INICIO-to-BookingUneat" style="stroke:#181818;stroke-width:1.0;"/><polygon fill="#181818" points="1293.35,221.71,1297.35,212.71,1293.35,216.71,1289.35,212.71,1293.35,221.71" style="stroke:#181818;stroke-width:1.0;"/><path d="M1298.35,162 L1298.35,187 L1403.35,187 L1403.35,172 L1393.35,162 L1298.35,162 " fill="#FEFFDD" style="stroke:#181818;stroke-width:0.5;"/><path d="M1393.35,162 L1393.35,172 L1403.35,172 L1393.35,162 " fill="#FEFFDD" style="stroke:#181818;stroke-width:0.5;"/><text fill="#000000" font-family="sans-serif" font-size="13" lengthAdjust="spacing" textLength="84" x="1304.35" y="179.0669">Iniciar Sesi&#243;n</text></g><!--link BookingUneat to *end*--><g id="link_BookingUneat_*end*"><path d="M1293.35,592.5 C1293.35,633.58 1293.35,664.02 1293.35,681.07 " fill="none" id="BookingUneat-to-*end*" style="stroke:#181818;stroke-width:1.0;"/><polygon fill="#181818" points="1293.35,687.07,1297.35,678.07,1293.35,682.07,1289.35,678.07,1293.35,687.07" style="stroke:#181818;stroke-width:1.0;"/><path d="M1298.35,627.3 L1298.35,652.3 L1401.35,652.3 L1401.35,637.3 L1391.35,627.3 L1298.35,627.3 " fill="#FEFFDD" style="stroke:#181818;stroke-width:0.5;"/><path d="M1391.35,627.3 L1391.35,637.3 L1401.35,637.3 L1391.35,627.3 " fill="#FEFFDD" style="stroke:#181818;stroke-width:0.5;"/><text fill="#000000" font-family="sans-serif" font-size="13" lengthAdjust="spacing" textLength="82" x="1304.35" y="644.3669">Cerar Sesi&#243;n</text></g><!--SRC=[nLN1QiCm3BtxAtmUz1S6QmThO7IbexkC7KIYPcAf7MHti8rzrJvXFpR7IPkaILhIbSQ715jFqfFqZ5yfGedhr7x824t8b5hIIeZdgnSv6btBO1PCWWUH__p9MEitKl5I8LYXj4MfbKn8lGdfLg0e963vY8P-VvH05SaC94JLpmToAPh-4-HMRsF18Minlhp3bkWSb8KaWJcJ2Yc5n5iRyRDrIojaLCwIGamAt8zXPmqX0cafrQuXScCsmAIziIIJxHhvF8ixD5d_WCTQQTDDuHwHPOdPXSus_bCFr2lsX16gmRDr4zeD9FJPC8mrS-Fm4BiMOZrQly2OqRY482bJoWcTNQ11VeS33NXoxATah6PopcwADPTwiaRO0IfQvY8xK54nfHgmVIfRo8KoNBPHSpTKE7QhfZgdv-PUmRVNaWDwvIWQLO6LTsxli7BfzYoUQ3Twghbl3KDC0sBTvnQM-8v2Cli0TSoqfHM5u9mL7bDN2xYzcZhmj8ovgbhGUthfG1HIxR3-kvppJUbRz9JqK9hE9Ley5UMOz3gjFwB717xfVEVhuXy0]--></g></svg>