<?xml version="1.0" encoding="us-ascii" standalone="no"?><svg xmlns="http://www.w3.org/2000/svg" xmlns:xlink="http://www.w3.org/1999/xlink" contentStyleType="text/css" height="663px" preserveAspectRatio="none" style="width:267px;height:663px;background:#FFFFFF;" version="1.1" viewBox="0 0 267 663" width="267px" zoomAndPan="magnify"><defs/><g><ellipse cx="102" cy="16" fill="#222222" rx="10" ry="10" style="stroke:#222222;stroke-width:1.0;"/><g id="Inicio"><rect fill="#F1F1F1" height="50" rx="12.5" ry="12.5" style="stroke:#181818;stroke-width:0.5;" width="58" x="73" y="87"/><line style="stroke:#181818;stroke-width:0.5;" x1="73" x2="131" y1="113.2969" y2="113.2969"/><text fill="#000000" font-family="sans-serif" font-size="14" lengthAdjust="spacing" textLength="38" x="83" y="104.9951">Inicio</text></g><g id="Formulario"><rect fill="#F1F1F1" height="106.1406" rx="12.5" ry="12.5" style="stroke:#181818;stroke-width:0.5;" width="141" x="31.5" y="214"/><line style="stroke:#181818;stroke-width:0.5;" x1="31.5" x2="172.5" y1="240.2969" y2="240.2969"/><text fill="#000000" font-family="sans-serif" font-size="14" lengthAdjust="spacing" textLength="76" x="64" y="231.9951">Formulario</text><text fill="#000000" font-family="sans-serif" font-size="12" lengthAdjust="spacing" textLength="20" x="36.5" y="256.4355">DNI</text><text fill="#000000" font-family="sans-serif" font-size="12" lengthAdjust="spacing" textLength="31" x="36.5" y="270.4043">Email</text><text fill="#000000" font-family="sans-serif" font-size="12" lengthAdjust="spacing" textLength="48" x="36.5" y="284.373">Nombre</text><text fill="#000000" font-family="sans-serif" font-size="12" lengthAdjust="spacing" textLength="121" x="36.5" y="298.3418">Numero de telefono</text><text fill="#000000" font-family="sans-serif" font-size="12" lengthAdjust="spacing" textLength="84" x="36.5" y="312.3105">Codigo postal</text></g><g id="DatosValidados"><rect fill="#F1F1F1" height="50.2656" rx="12.5" ry="12.5" style="stroke:#181818;stroke-width:0.5;" width="130" x="37" y="397"/><line style="stroke:#181818;stroke-width:0.5;" x1="37" x2="167" y1="423.2969" y2="423.2969"/><text fill="#000000" font-family="sans-serif" font-size="14" lengthAdjust="spacing" textLength="110" x="47" y="414.9951">DatosValidados</text><text fill="#000000" font-family="sans-serif" font-size="12" lengthAdjust="spacing" textLength="88" x="42" y="439.4355">Verificar datos</text></g><g id="CuentaCreada"><rect fill="#F1F1F1" height="50.2656" rx="12.5" ry="12.5" style="stroke:#181818;stroke-width:0.5;" width="190" x="7" y="524"/><line style="stroke:#181818;stroke-width:0.5;" x1="7" x2="197" y1="550.2969" y2="550.2969"/><text fill="#000000" font-family="sans-serif" font-size="14" lengthAdjust="spacing" textLength="101" x="51.5" y="541.9951">CuentaCreada</text><text fill="#000000" font-family="sans-serif" font-size="12" lengthAdjust="spacing" textLength="170" x="12" y="566.4355">Usuario recibe confirmaci&#243;n</text></g><ellipse cx="102" cy="646" fill="none" rx="11" ry="11" style="stroke:#222222;stroke-width:1.0;"/><ellipse cx="102" cy="646" fill="#222222" rx="6" ry="6" style="stroke:#222222;stroke-width:1.0;"/><!--link *start* to Inicio--><g id="link_*start*_Inicio"><path d="M102,26.013 C102,39.891 102,60.965 102,80.84 " fill="none" id="*start*-to-Inicio" style="stroke:#181818;stroke-width:1.0;"/><polygon fill="#181818" points="102,86.84,106,77.84,102,81.84,98,77.84,102,86.84" style="stroke:#181818;stroke-width:1.0;"/></g><!--link Inicio to Formulario--><g id="link_Inicio_Formulario"><path d="M102,137.243 C102,157.803 102,182.009 102,207.998 " fill="none" id="Inicio-to-Formulario" style="stroke:#181818;stroke-width:1.0;"/><polygon fill="#181818" points="102,213.998,106,204.998,102,208.998,98,204.998,102,213.998" style="stroke:#181818;stroke-width:1.0;"/><text fill="#000000" font-family="sans-serif" font-size="13" lengthAdjust="spacing" textLength="156" x="103" y="180.0669">Usuario accede a la web</text></g><!--link Formulario to DatosValidados--><g id="link_Formulario_DatosValidados"><path d="M41.0246,320.198 C33.6893,329.343 27.2888,339.367 23,350 C15.3434,368.983 24.1612,381.5621 42.2905,393.4491 " fill="none" id="Formulario-to-DatosValidados" style="stroke:#181818;stroke-width:1.0;"/><polygon fill="#181818" points="47.3081,396.739,41.975,388.459,43.1268,393.9974,37.5884,395.1492,47.3081,396.739" style="stroke:#181818;stroke-width:1.0;"/><text fill="#000000" font-family="sans-serif" font-size="13" lengthAdjust="spacing" textLength="110" x="24" y="363.0669">Enviar formulario</text></g><!--link DatosValidados to Formulario--><g id="link_DatosValidados_Formulario"><path d="M123.119,396.839 C129.51,388.046 135.705,377.639 139,367 C143.777,351.576 143.0688,340.6515 137.2328,325.6135 " fill="none" id="DatosValidados-to-Formulario" style="stroke:#181818;stroke-width:1.0;"/><polygon fill="#181818" points="135.062,320.02,134.5891,329.8575,136.871,324.6813,142.0472,326.9631,135.062,320.02" style="stroke:#181818;stroke-width:1.0;"/><text fill="#000000" font-family="sans-serif" font-size="13" lengthAdjust="spacing" textLength="98" x="142" y="363.0669">Datos inv&#225;lidos</text></g><!--link DatosValidados to CuentaCreada--><g id="link_DatosValidados_CuentaCreada"><path d="M102,447.101 C102,469.236 102,495.861 102,517.973 " fill="none" id="DatosValidados-to-CuentaCreada" style="stroke:#181818;stroke-width:1.0;"/><polygon fill="#181818" points="102,523.973,106,514.973,102,518.973,98,514.973,102,523.973" style="stroke:#181818;stroke-width:1.0;"/><text fill="#000000" font-family="sans-serif" font-size="13" lengthAdjust="spacing" textLength="87" x="103" y="490.0669">Datos v&#225;lidos</text></g><!--link CuentaCreada to *end*--><g id="link_CuentaCreada_*end*"><path d="M102,574.4649 C102,594.0364 102,614.4921 102,628.7967 " fill="none" id="CuentaCreada-to-*end*" style="stroke:#181818;stroke-width:1.0;"/><polygon fill="#181818" points="102,634.7967,106,625.7967,102,629.7967,98,625.7967,102,634.7967" style="stroke:#181818;stroke-width:1.0;"/></g><!--SRC=[RP0z3i8m34Rtdi8p4XTWO2aWiR31GXdSn4MM4XkvBPo7Ct04BaPI1AB0vFoyxyNEVdA0wNGEQs77MZpBSB9IYtr0IziPRDj-MA5pv0aG0iA5wc84BJRhIfOHELIoqLWRfTf7CeMKwIXGewALbEhvg73IjiFmgSZFBh3JTeU1FNfjatKfPqQ3veqLFyYEZ1jsYVBvwXl8sh8dwR0qGe-vrKp0-NvDpF_0UB81Pta7ldIlxp5oN1CubOOjekFxJSPiLkydXmS0]--></g></svg>