<?xml version="1.0" encoding="us-ascii" standalone="no"?><svg xmlns="http://www.w3.org/2000/svg" xmlns:xlink="http://www.w3.org/1999/xlink" contentStyleType="text/css" height="470px" preserveAspectRatio="none" style="width:518px;height:470px;background:#FFFFFF;" version="1.1" viewBox="0 0 518 470" width="518px" zoomAndPan="magnify"><defs/><g><ellipse cx="259" cy="20" fill="#222222" rx="10" ry="10" style="stroke:#222222;stroke-width:1.0;"/><rect fill="#F1F1F1" height="33.9688" rx="12.5" ry="12.5" style="stroke:#181818;stroke-width:0.5;" width="170" x="174" y="50"/><text fill="#000000" font-family="sans-serif" font-size="12" lengthAdjust="spacing" textLength="150" x="184" y="71.1387">Acceder a la p&#225;gina web</text><rect fill="#F1F1F1" height="33.9688" rx="12.5" ry="12.5" style="stroke:#181818;stroke-width:0.5;" width="276" x="121" y="103.9688"/><text fill="#000000" font-family="sans-serif" font-size="12" lengthAdjust="spacing" textLength="256" x="131" y="125.1074">Seleccionar opci&#243;n de creaci&#243;n de cuenta</text><rect fill="#F1F1F1" height="33.9688" rx="12.5" ry="12.5" style="stroke:#181818;stroke-width:0.5;" width="496" x="11" y="157.9375"/><text fill="#000000" font-family="sans-serif" font-size="12" lengthAdjust="spacing" textLength="476" x="21" y="179.0762">Llenar formulario con: DNI, c&#243;digo postal, n&#250;mero de tel&#233;fono, email y nombre</text><rect fill="#F1F1F1" height="33.9688" rx="12.5" ry="12.5" style="stroke:#181818;stroke-width:0.5;" width="121" x="198.5" y="211.9063"/><text fill="#000000" font-family="sans-serif" font-size="12" lengthAdjust="spacing" textLength="101" x="208.5" y="233.0449">Enviar formulario</text><polygon fill="#F1F1F1" points="222,265.875,296,265.875,308,277.875,296,289.875,222,289.875,210,277.875,222,265.875" style="stroke:#181818;stroke-width:0.5;"/><text fill="#000000" font-family="sans-serif" font-size="11" lengthAdjust="spacing" textLength="74" x="222" y="281.6831">Validar datos</text><text fill="#000000" font-family="sans-serif" font-size="11" lengthAdjust="spacing" textLength="40" x="170" y="275.2808">v&#225;lidos</text><text fill="#000000" font-family="sans-serif" font-size="11" lengthAdjust="spacing" textLength="50" x="308" y="275.2808">inv&#225;lidos</text><rect fill="#F1F1F1" height="33.9688" rx="12.5" ry="12.5" style="stroke:#181818;stroke-width:0.5;" width="188" x="56.75" y="299.875"/><text fill="#000000" font-family="sans-serif" font-size="12" lengthAdjust="spacing" textLength="168" x="66.75" y="321.0137">Procesar y almacenar datos</text><rect fill="#F1F1F1" height="33.9688" rx="12.5" ry="12.5" style="stroke:#181818;stroke-width:0.5;" width="198" x="51.75" y="353.8438"/><text fill="#000000" font-family="sans-serif" font-size="12" lengthAdjust="spacing" textLength="178" x="61.75" y="374.9824">Confirmar creaci&#243;n de cuenta</text><rect fill="#F1F1F1" height="33.9688" rx="12.5" ry="12.5" style="stroke:#181818;stroke-width:0.5;" width="176" x="279.25" y="299.875"/><text fill="#000000" font-family="sans-serif" font-size="12" lengthAdjust="spacing" textLength="156" x="289.25" y="321.0137">Mostrar mensaje de error</text><rect fill="#F1F1F1" height="33.9688" rx="12.5" ry="12.5" style="stroke:#181818;stroke-width:0.5;" width="195" x="269.75" y="353.8438"/><text fill="#000000" font-family="sans-serif" font-size="12" lengthAdjust="spacing" textLength="175" x="279.75" y="374.9824">Solicitar correcci&#243;n de datos</text><polygon fill="#F1F1F1" points="259,393.8125,271,405.8125,259,417.8125,247,405.8125,259,393.8125" style="stroke:#181818;stroke-width:0.5;"/><ellipse cx="259" cy="448.8125" fill="none" rx="11" ry="11" style="stroke:#222222;stroke-width:1.0;"/><ellipse cx="259" cy="448.8125" fill="#222222" rx="6" ry="6" style="stroke:#222222;stroke-width:1.0;"/><line style="stroke:#181818;stroke-width:1.0;" x1="259" x2="259" y1="30" y2="50"/><polygon fill="#181818" points="255,40,259,50,263,40,259,44" style="stroke:#181818;stroke-width:1.0;"/><line style="stroke:#181818;stroke-width:1.0;" x1="259" x2="259" y1="83.9688" y2="103.9688"/><polygon fill="#181818" points="255,93.9688,259,103.9688,263,93.9688,259,97.9688" style="stroke:#181818;stroke-width:1.0;"/><line style="stroke:#181818;stroke-width:1.0;" x1="259" x2="259" y1="137.9375" y2="157.9375"/><polygon fill="#181818" points="255,147.9375,259,157.9375,263,147.9375,259,151.9375" style="stroke:#181818;stroke-width:1.0;"/><line style="stroke:#181818;stroke-width:1.0;" x1="259" x2="259" y1="191.9063" y2="211.9063"/><polygon fill="#181818" points="255,201.9063,259,211.9063,263,201.9063,259,205.9063" style="stroke:#181818;stroke-width:1.0;"/><line style="stroke:#181818;stroke-width:1.0;" x1="150.75" x2="150.75" y1="333.8438" y2="353.8438"/><polygon fill="#181818" points="146.75,343.8438,150.75,353.8438,154.75,343.8438,150.75,347.8438" style="stroke:#181818;stroke-width:1.0;"/><line style="stroke:#181818;stroke-width:1.0;" x1="367.25" x2="367.25" y1="333.8438" y2="353.8438"/><polygon fill="#181818" points="363.25,343.8438,367.25,353.8438,371.25,343.8438,367.25,347.8438" style="stroke:#181818;stroke-width:1.0;"/><line style="stroke:#181818;stroke-width:1.0;" x1="210" x2="150.75" y1="277.875" y2="277.875"/><line style="stroke:#181818;stroke-width:1.0;" x1="150.75" x2="150.75" y1="277.875" y2="299.875"/><polygon fill="#181818" points="146.75,289.875,150.75,299.875,154.75,289.875,150.75,293.875" style="stroke:#181818;stroke-width:1.0;"/><line style="stroke:#181818;stroke-width:1.0;" x1="308" x2="367.25" y1="277.875" y2="277.875"/><line style="stroke:#181818;stroke-width:1.0;" x1="367.25" x2="367.25" y1="277.875" y2="299.875"/><polygon fill="#181818" points="363.25,289.875,367.25,299.875,371.25,289.875,367.25,293.875" style="stroke:#181818;stroke-width:1.0;"/><line style="stroke:#181818;stroke-width:1.0;" x1="150.75" x2="150.75" y1="387.8125" y2="405.8125"/><line style="stroke:#181818;stroke-width:1.0;" x1="150.75" x2="247" y1="405.8125" y2="405.8125"/><polygon fill="#181818" points="237,401.8125,247,405.8125,237,409.8125,241,405.8125" style="stroke:#181818;stroke-width:1.0;"/><line style="stroke:#181818;stroke-width:1.0;" x1="367.25" x2="367.25" y1="387.8125" y2="405.8125"/><line style="stroke:#181818;stroke-width:1.0;" x1="367.25" x2="271" y1="405.8125" y2="405.8125"/><polygon fill="#181818" points="281,401.8125,271,405.8125,281,409.8125,277,405.8125" style="stroke:#181818;stroke-width:1.0;"/><line style="stroke:#181818;stroke-width:1.0;" x1="259" x2="259" y1="245.875" y2="265.875"/><polygon fill="#181818" points="255,255.875,259,265.875,263,255.875,259,259.875" style="stroke:#181818;stroke-width:1.0;"/><line style="stroke:#181818;stroke-width:1.0;" x1="259" x2="259" y1="417.8125" y2="437.8125"/><polygon fill="#181818" points="255,427.8125,259,437.8125,263,427.8125,259,431.8125" style="stroke:#181818;stroke-width:1.0;"/><!--SRC=[RP2nQWCn38RtUmgDLxWdk9jAsw7Gba2WksBhKXLREcGd9O-JiNEshdwnsaUW13hgrwTFibD6ozruxnnvCa0824ivxraGlcWtTUEM0Zd7AcYWY-Do4V04pWZ_YWD9nWg_16hSh1OF0OqLdCe8Zs_F0xXoyRnNM3Hb30D8-ObaskOpXV8zg-W05943d40qxeogyacEVAESEfwXVyV0lkOUiwOxo1yaq1_BkQQrxW36ZQcZL94JO8ZerijMV6hj1vMPBTRitwTGI0GzoutojPvkTIAI9FoanfEPsYhSQc37kGdLhFtPLNdTIU9vxbBMvHS0]--></g></svg>