<?xml version="1.0" encoding="us-ascii" standalone="no"?><svg xmlns="http://www.w3.org/2000/svg" xmlns:xlink="http://www.w3.org/1999/xlink" contentStyleType="text/css" height="470px" preserveAspectRatio="none" style="width:488px;height:470px;background:#1B1B1B;" version="1.1" viewBox="0 0 488 470" width="488px" zoomAndPan="magnify"><defs/><g><rect fill="#1B1B1B" height="470" style="stroke:none;stroke-width:1.0;" width="488" x="0" y="0"/><ellipse cx="244" cy="20" fill="#DDDDDD" rx="10" ry="10" style="stroke:#DDDDDD;stroke-width:1.0;"/><rect fill="#313139" height="33.9688" rx="12.5" ry="12.5" style="stroke:#E7E7E7;stroke-width:0.5;" width="170" x="159" y="50"/><text fill="#FFFFFF" font-family="sans-serif" font-size="12" lengthAdjust="spacing" textLength="150" x="169" y="71.1387">Acceder a la p&#225;gina web</text><rect fill="#313139" height="33.9688" rx="12.5" ry="12.5" style="stroke:#E7E7E7;stroke-width:0.5;" width="276" x="106" y="103.9688"/><text fill="#FFFFFF" font-family="sans-serif" font-size="12" lengthAdjust="spacing" textLength="256" x="116" y="125.1074">Seleccionar opci&#243;n de creaci&#243;n de cuenta</text><rect fill="#313139" height="33.9688" rx="12.5" ry="12.5" style="stroke:#E7E7E7;stroke-width:0.5;" width="466" x="11" y="157.9375"/><text fill="#FFFFFF" font-family="sans-serif" font-size="12" lengthAdjust="spacing" textLength="446" x="21" y="179.0762">Llenar formulario con DNI, a&#241;o de nacimiento, nombre completo, y correo</text><rect fill="#313139" height="33.9688" rx="12.5" ry="12.5" style="stroke:#E7E7E7;stroke-width:0.5;" width="121" x="183.5" y="211.9063"/><text fill="#FFFFFF" font-family="sans-serif" font-size="12" lengthAdjust="spacing" textLength="101" x="193.5" y="233.0449">Enviar formulario</text><polygon fill="#313139" points="207,265.875,281,265.875,293,277.875,281,289.875,207,289.875,195,277.875,207,265.875" style="stroke:#E7E7E7;stroke-width:0.5;"/><text fill="#FFFFFF" font-family="sans-serif" font-size="11" lengthAdjust="spacing" textLength="74" x="207" y="281.6831">Validar datos</text><text fill="#FFFFFF" font-family="sans-serif" font-size="11" lengthAdjust="spacing" textLength="40" x="155" y="275.2808">v&#225;lidos</text><text fill="#FFFFFF" font-family="sans-serif" font-size="11" lengthAdjust="spacing" textLength="50" x="293" y="275.2808">inv&#225;lidos</text><rect fill="#313139" height="33.9688" rx="12.5" ry="12.5" style="stroke:#E7E7E7;stroke-width:0.5;" width="188" x="41.75" y="299.875"/><text fill="#FFFFFF" font-family="sans-serif" font-size="12" lengthAdjust="spacing" textLength="168" x="51.75" y="321.0137">Procesar y almacenar datos</text><rect fill="#313139" height="33.9688" rx="12.5" ry="12.5" style="stroke:#E7E7E7;stroke-width:0.5;" width="198" x="36.75" y="353.8438"/><text fill="#FFFFFF" font-family="sans-serif" font-size="12" lengthAdjust="spacing" textLength="178" x="46.75" y="374.9824">Confirmar creaci&#243;n de cuenta</text><rect fill="#313139" height="33.9688" rx="12.5" ry="12.5" style="stroke:#E7E7E7;stroke-width:0.5;" width="176" x="264.25" y="299.875"/><text fill="#FFFFFF" font-family="sans-serif" font-size="12" lengthAdjust="spacing" textLength="156" x="274.25" y="321.0137">Mostrar mensaje de error</text><rect fill="#313139" height="33.9688" rx="12.5" ry="12.5" style="stroke:#E7E7E7;stroke-width:0.5;" width="195" x="254.75" y="353.8438"/><text fill="#FFFFFF" font-family="sans-serif" font-size="12" lengthAdjust="spacing" textLength="175" x="264.75" y="374.9824">Solicitar correcci&#243;n de datos</text><polygon fill="#313139" points="244,393.8125,256,405.8125,244,417.8125,232,405.8125,244,393.8125" style="stroke:#E7E7E7;stroke-width:0.5;"/><ellipse cx="244" cy="448.8125" fill="none" rx="11" ry="11" style="stroke:#DDDDDD;stroke-width:1.0;"/><ellipse cx="244" cy="448.8125" fill="#DDDDDD" rx="6" ry="6" style="stroke:#DDDDDD;stroke-width:1.0;"/><line style="stroke:#E7E7E7;stroke-width:1.0;" x1="244" x2="244" y1="30" y2="50"/><polygon fill="#E7E7E7" points="240,40,244,50,248,40,244,44" style="stroke:#E7E7E7;stroke-width:1.0;"/><line style="stroke:#E7E7E7;stroke-width:1.0;" x1="244" x2="244" y1="83.9688" y2="103.9688"/><polygon fill="#E7E7E7" points="240,93.9688,244,103.9688,248,93.9688,244,97.9688" style="stroke:#E7E7E7;stroke-width:1.0;"/><line style="stroke:#E7E7E7;stroke-width:1.0;" x1="244" x2="244" y1="137.9375" y2="157.9375"/><polygon fill="#E7E7E7" points="240,147.9375,244,157.9375,248,147.9375,244,151.9375" style="stroke:#E7E7E7;stroke-width:1.0;"/><line style="stroke:#E7E7E7;stroke-width:1.0;" x1="244" x2="244" y1="191.9063" y2="211.9063"/><polygon fill="#E7E7E7" points="240,201.9063,244,211.9063,248,201.9063,244,205.9063" style="stroke:#E7E7E7;stroke-width:1.0;"/><line style="stroke:#E7E7E7;stroke-width:1.0;" x1="135.75" x2="135.75" y1="333.8438" y2="353.8438"/><polygon fill="#E7E7E7" points="131.75,343.8438,135.75,353.8438,139.75,343.8438,135.75,347.8438" style="stroke:#E7E7E7;stroke-width:1.0;"/><line style="stroke:#E7E7E7;stroke-width:1.0;" x1="352.25" x2="352.25" y1="333.8438" y2="353.8438"/><polygon fill="#E7E7E7" points="348.25,343.8438,352.25,353.8438,356.25,343.8438,352.25,347.8438" style="stroke:#E7E7E7;stroke-width:1.0;"/><line style="stroke:#E7E7E7;stroke-width:1.0;" x1="195" x2="135.75" y1="277.875" y2="277.875"/><line style="stroke:#E7E7E7;stroke-width:1.0;" x1="135.75" x2="135.75" y1="277.875" y2="299.875"/><polygon fill="#E7E7E7" points="131.75,289.875,135.75,299.875,139.75,289.875,135.75,293.875" style="stroke:#E7E7E7;stroke-width:1.0;"/><line style="stroke:#E7E7E7;stroke-width:1.0;" x1="293" x2="352.25" y1="277.875" y2="277.875"/><line style="stroke:#E7E7E7;stroke-width:1.0;" x1="352.25" x2="352.25" y1="277.875" y2="299.875"/><polygon fill="#E7E7E7" points="348.25,289.875,352.25,299.875,356.25,289.875,352.25,293.875" style="stroke:#E7E7E7;stroke-width:1.0;"/><line style="stroke:#E7E7E7;stroke-width:1.0;" x1="135.75" x2="135.75" y1="387.8125" y2="405.8125"/><line style="stroke:#E7E7E7;stroke-width:1.0;" x1="135.75" x2="232" y1="405.8125" y2="405.8125"/><polygon fill="#E7E7E7" points="222,401.8125,232,405.8125,222,409.8125,226,405.8125" style="stroke:#E7E7E7;stroke-width:1.0;"/><line style="stroke:#E7E7E7;stroke-width:1.0;" x1="352.25" x2="352.25" y1="387.8125" y2="405.8125"/><line style="stroke:#E7E7E7;stroke-width:1.0;" x1="352.25" x2="256" y1="405.8125" y2="405.8125"/><polygon fill="#E7E7E7" points="266,401.8125,256,405.8125,266,409.8125,262,405.8125" style="stroke:#E7E7E7;stroke-width:1.0;"/><line style="stroke:#E7E7E7;stroke-width:1.0;" x1="244" x2="244" y1="245.875" y2="265.875"/><polygon fill="#E7E7E7" points="240,255.875,244,265.875,248,255.875,244,259.875" style="stroke:#E7E7E7;stroke-width:1.0;"/><line style="stroke:#E7E7E7;stroke-width:1.0;" x1="244" x2="244" y1="417.8125" y2="437.8125"/><polygon fill="#E7E7E7" points="240,427.8125,244,437.8125,248,427.8125,244,431.8125" style="stroke:#E7E7E7;stroke-width:1.0;"/><!--SRC=[ROz1IWH134NtVOeiMvWJJAz4NGWgme3xJ3gjaQgaITMCp77c2E8H-cAc6b46t5L-lVygLIfwxRRNH3oo0q92c9VpgoZ21- -7RhlZn4HYYWusaonV2YC3EUFVS62j6F13uiPDvlcGqCM0JE7swNu3k7nQOpLgMOAt3QZblKVTyfou1QSukxE5wawFSg4QEfcWVy4aO-GZLYjNKDzOeJykvqXZxW2spsx49P0JOCf8wqOhFhJh6zD9F4VsxnSu5OPUz4BvQALwD39hmNTkFBkRhyAT9I6fJTXsfr_bpvkieqnTgJP_0m00]--></g></svg>