<?xml version="1.0" encoding="us-ascii" standalone="no"?><svg xmlns="http://www.w3.org/2000/svg" xmlns:xlink="http://www.w3.org/1999/xlink" contentStyleType="text/css" height="232px" preserveAspectRatio="none" style="width:104px;height:232px;background:#FFFFFF;" version="1.1" viewBox="0 0 104 232" width="104px" zoomAndPan="magnify"><defs/><g><ellipse cx="52.5" cy="16" fill="#222222" rx="10" ry="10" style="stroke:#222222;stroke-width:1.0;"/><rect fill="#F1F1F1" height="40" rx="12.5" ry="12.5" style="stroke:#181818;stroke-width:0.5;" width="72" x="16.5" y="86"/><text fill="#000000" font-family="sans-serif" font-size="14" lengthAdjust="spacing" textLength="62" x="21.5" y="110.8467">Ocupada</text><rect fill="#F1F1F1" height="40" rx="12.5" ry="12.5" style="stroke:#181818;stroke-width:0.5;" width="91" x="7" y="186"/><text fill="#000000" font-family="sans-serif" font-size="14" lengthAdjust="spacing" textLength="81" x="12" y="210.8467">NoOcupada</text><!--link *start* to Ocupada--><g id="link_*start*_Ocupada"><path d="M52.5,26.42 C52.5,40.52 52.5,61.42 52.5,79.78 " fill="none" id="*start*-to-Ocupada" style="stroke:#181818;stroke-width:1.0;"/><polygon fill="#181818" points="52.5,85.78,56.5,76.78,52.5,80.78,48.5,76.78,52.5,85.78" style="stroke:#181818;stroke-width:1.0;"/></g><!--link Ocupada to NoOcupada--><g id="link_Ocupada_NoOcupada"><path d="M42.1,126.36 C38.96,143.54 37.8906,162.6079 41.0306,179.7779 " fill="none" id="Ocupada-to-NoOcupada" style="stroke:#181818;stroke-width:1.0;"/><polygon fill="#181818" points="42.11,185.68,44.4257,176.1073,41.2105,180.7616,36.5562,177.5464,42.11,185.68" style="stroke:#181818;stroke-width:1.0;"/></g><!--link NoOcupada to Ocupada--><g id="link_NoOcupada_Ocupada"><path d="M63.5,185.68 C66.83,168.51 67.9684,149.431 64.6484,132.251 " fill="none" id="NoOcupada-to-Ocupada" style="stroke:#181818;stroke-width:1.0;"/><polygon fill="#181818" points="63.51,126.36,61.2903,135.9555,64.4587,131.2692,69.145,134.4376,63.51,126.36" style="stroke:#181818;stroke-width:1.0;"/></g><!--SRC=[oyXCILL8pIqegLH8IIrEBieiACdCp-EArefLqDMrK_1FBYr8J4daWj9WCRzyc2YSXQGK0000]--></g></svg>