<?xml version="1.0" encoding="us-ascii" standalone="no"?><svg xmlns="http://www.w3.org/2000/svg" xmlns:xlink="http://www.w3.org/1999/xlink" contentStyleType="text/css" height="651px" preserveAspectRatio="none" style="width:781px;height:651px;background:#FFFFFF;" version="1.1" viewBox="0 0 781 651" width="781px" zoomAndPan="magnify"><defs/><g><ellipse cx="336" cy="16" fill="#222222" rx="10" ry="10" style="stroke:#222222;stroke-width:1.0;"/><g id="Inicio"><rect fill="#F1F1F1" height="50" rx="12.5" ry="12.5" style="stroke:#181818;stroke-width:0.5;" width="55" x="308.5" y="87"/><line style="stroke:#181818;stroke-width:0.5;" x1="308.5" x2="363.5" y1="113.2969" y2="113.2969"/><text fill="#000000" font-family="sans-serif" font-size="14" lengthAdjust="spacing" textLength="35" x="318.5" y="104.9951">Inicio</text></g><g id="PaginaPrincipal"><rect fill="#F1F1F1" height="50" rx="12.5" ry="12.5" style="stroke:#181818;stroke-width:0.5;" width="123" x="274.5" y="214"/><line style="stroke:#181818;stroke-width:0.5;" x1="274.5" x2="397.5" y1="240.2969" y2="240.2969"/><text fill="#000000" font-family="sans-serif" font-size="14" lengthAdjust="spacing" textLength="103" x="284.5" y="231.9951">PaginaPrincipal</text></g><g id="EditarHorarios"><rect fill="#F1F1F1" height="50" rx="12.5" ry="12.5" style="stroke:#181818;stroke-width:0.5;" width="116" x="7" y="341.14"/><line style="stroke:#181818;stroke-width:0.5;" x1="7" x2="123" y1="367.4369" y2="367.4369"/><text fill="#000000" font-family="sans-serif" font-size="14" lengthAdjust="spacing" textLength="96" x="17" y="359.1351">EditarHorarios</text></g><g id="ConfirmarEdicion"><rect fill="#F1F1F1" height="50" rx="12.5" ry="12.5" style="stroke:#181818;stroke-width:0.5;" width="136" x="191" y="468.27"/><line style="stroke:#181818;stroke-width:0.5;" x1="191" x2="327" y1="494.5669" y2="494.5669"/><text fill="#000000" font-family="sans-serif" font-size="14" lengthAdjust="spacing" textLength="116" x="201" y="486.2651">ConfirmarEdicion</text></g><g id="Error"><rect fill="#F1F1F1" height="50" rx="12.5" ry="12.5" style="stroke:#181818;stroke-width:0.5;" width="53" x="9.5" y="595.27"/><line style="stroke:#181818;stroke-width:0.5;" x1="9.5" x2="62.5" y1="621.5669" y2="621.5669"/><text fill="#000000" font-family="sans-serif" font-size="14" lengthAdjust="spacing" textLength="33" x="19.5" y="613.2651">Error</text></g><g id="Reservas"><rect fill="#F1F1F1" height="50.2656" rx="12.5" ry="12.5" style="stroke:#181818;stroke-width:0.5;" width="203" x="506.5" y="341"/><line style="stroke:#181818;stroke-width:0.5;" x1="506.5" x2="709.5" y1="367.2969" y2="367.2969"/><text fill="#000000" font-family="sans-serif" font-size="14" lengthAdjust="spacing" textLength="64" x="576" y="358.9951">Reservas</text><text fill="#000000" font-family="sans-serif" font-size="12" lengthAdjust="spacing" textLength="183" x="511.5" y="383.4355">Usuario visualiza las reservas</text></g><ellipse cx="608" cy="493.27" fill="none" rx="11" ry="11" style="stroke:#222222;stroke-width:1.0;"/><ellipse cx="608" cy="493.27" fill="#222222" rx="6" ry="6" style="stroke:#222222;stroke-width:1.0;"/><!--link *start* to Inicio--><g id="link_*start*_Inicio"><path d="M336,26.36 C336,40.29 336,60.96 336,80.65 " fill="none" id="*start*-to-Inicio" style="stroke:#181818;stroke-width:1.0;"/><polygon fill="#181818" points="336,86.65,340,77.65,336,81.65,332,77.65,336,86.65" style="stroke:#181818;stroke-width:1.0;"/></g><!--link Inicio to PaginaPrincipal--><g id="link_Inicio_PaginaPrincipal"><path d="M336,137.4 C336,159.43 336,185.66 336,207.67 " fill="none" id="Inicio-to-PaginaPrincipal" style="stroke:#181818;stroke-width:1.0;"/><polygon fill="#181818" points="336,213.67,340,204.67,336,208.67,332,204.67,336,213.67" style="stroke:#181818;stroke-width:1.0;"/><text fill="#000000" font-family="sans-serif" font-size="13" lengthAdjust="spacing" textLength="193" x="337" y="180.0669">Usuario accede a la aplicaci&#243;n</text></g><!--link PaginaPrincipal to EditarHorarios--><g id="link_PaginaPrincipal_EditarHorarios"><path d="M274.11,245.22 C206.96,252.19 105.75,266.91 79,294 C66.97,306.19 63.9061,319.5015 63.5561,334.9315 " fill="none" id="PaginaPrincipal-to-EditarHorarios" style="stroke:#181818;stroke-width:1.0;"/><polygon fill="#181818" points="63.42,340.93,67.6231,332.023,63.5334,335.9313,59.6251,331.8416,63.42,340.93" style="stroke:#181818;stroke-width:1.0;"/><text fill="#000000" font-family="sans-serif" font-size="13" lengthAdjust="spacing" textLength="229" x="80" y="307.0669">Usuario selecciona "Editar Horarios"</text></g><!--link EditarHorarios to ConfirmarEdicion--><g id="link_EditarHorarios_ConfirmarEdicion"><path d="M56.68,391.57 C53.23,406.51 52.03,425.2 62,438.27 C64.06,440.98 128.6757,458.3301 184.7357,473.0101 " fill="none" id="EditarHorarios-to-ConfirmarEdicion" style="stroke:#181818;stroke-width:1.0;"/><polygon fill="#181818" points="190.54,474.53,182.8468,468.3806,185.7031,473.2634,180.8203,476.1196,190.54,474.53" style="stroke:#181818;stroke-width:1.0;"/><text fill="#000000" font-family="sans-serif" font-size="13" lengthAdjust="spacing" textLength="246" x="63" y="434.3369">Usuario realiza cambios y los confirma</text></g><!--link ConfirmarEdicion to PaginaPrincipal--><g id="link_ConfirmarEdicion_PaginaPrincipal"><path d="M291.17,467.81 C300,459.43 308.62,449.34 314,438.27 C341.94,380.81 341.4427,309.1758 338.7627,270.3058 " fill="none" id="ConfirmarEdicion-to-PaginaPrincipal" style="stroke:#181818;stroke-width:1.0;"/><polygon fill="#181818" points="338.35,264.32,334.9785,273.5738,338.6939,269.3082,342.9596,273.0235,338.35,264.32" style="stroke:#181818;stroke-width:1.0;"/><text fill="#000000" font-family="sans-serif" font-size="13" lengthAdjust="spacing" textLength="134" x="339" y="370.7069">Confirmaci&#243;n exitosa</text></g><!--link ConfirmarEdicion to Error--><g id="link_ConfirmarEdicion_Error"><path d="M215.47,518.67 C170.22,544.03 106.054,580.0066 68.174,601.2366 " fill="none" id="ConfirmarEdicion-to-Error" style="stroke:#181818;stroke-width:1.0;"/><polygon fill="#181818" points="62.94,604.17,72.7467,603.2592,67.3017,601.7255,68.8354,596.2805,62.94,604.17" style="stroke:#181818;stroke-width:1.0;"/><text fill="#000000" font-family="sans-serif" font-size="13" lengthAdjust="spacing" textLength="281" x="162" y="561.3369">Confirmaci&#243;n fallida (permisos insuficientes)</text></g><!--link Error to EditarHorarios--><g id="link_Error_EditarHorarios"><path d="M30.06,594.98 C23.64,564.95 15.39,512.41 24,468.27 C29.37,440.75 39.5682,416.6273 49.4682,396.6273 " fill="none" id="Error-to-EditarHorarios" style="stroke:#181818;stroke-width:1.0;"/><polygon fill="#181818" points="52.13,391.25,44.5525,397.5414,49.9119,395.7311,51.7222,401.0904,52.13,391.25" style="stroke:#181818;stroke-width:1.0;"/><text fill="#000000" font-family="sans-serif" font-size="13" lengthAdjust="spacing" textLength="147" x="25" y="497.8369">Volver a intentar editar</text></g><!--link PaginaPrincipal to Reservas--><g id="link_PaginaPrincipal_Reservas"><path d="M389.09,264.43 C436.86,286.41 501.259,316.0326 549.129,338.0526 " fill="none" id="PaginaPrincipal-to-Reservas" style="stroke:#181818;stroke-width:1.0;"/><polygon fill="#181818" points="554.58,340.56,548.0752,333.1649,550.0375,338.4705,544.732,340.4328,554.58,340.56" style="stroke:#181818;stroke-width:1.0;"/><text fill="#000000" font-family="sans-serif" font-size="13" lengthAdjust="spacing" textLength="283" x="490" y="307.0669">Usuario selecciona "Ver estados de reserva"</text></g><!--link Reservas to *end*--><g id="link_Reservas_*end*"><path d="M608,391.56 C608,419.02 608,456.31 608,475.96 " fill="none" id="Reservas-to-*end*" style="stroke:#181818;stroke-width:1.0;"/><polygon fill="#181818" points="608,481.96,612,472.96,608,476.96,604,472.96,608,481.96" style="stroke:#181818;stroke-width:1.0;"/></g><!--SRC=[TP51QiCm44NtEiNWLHh81Rh8fWJQNIWqcv35L1wNWR5aPXpJzbezGY_MaPtGa3WRoqZlVKbV- -K1Lgirl2IEdCCqZ3DR_E24M-KKkKE1HtYp8wglOenK4o080dR24IF__gHmRPIKJSqzwdFMOjf5Y95GzBqIGZL1SAQgS6MLeAUS6jOMrTUATX6bXCBV217Rzu9_WVWtdeHmOyxVxeoDTm7wv3xR7NcZclL6QL24QuH5Hzgo-H4usR5nZL9FzX0cRRQLNPQ1r2jbHrCfWqPajjDNCj81xxMvyo2o7cjFzcVIYQx2Z3Qm_upTYS-VIFidosxxvU4F]--></g></svg>