<?xml version="1.0" encoding="us-ascii" standalone="no"?><svg xmlns="http://www.w3.org/2000/svg" xmlns:xlink="http://www.w3.org/1999/xlink" contentStyleType="text/css" height="725px" preserveAspectRatio="none" style="width:1276px;height:725px;background:#FFFFFF;" version="1.1" viewBox="0 0 1276 725" width="1276px" zoomAndPan="magnify"><defs/><g><ellipse cx="635" cy="16" fill="#222222" rx="10" ry="10" style="stroke:#222222;stroke-width:1.0;"/><path d="M19.5,103 L1250,103 A12.5,12.5 0 0 1 1262.5,115.5 L1262.5,129.2969 L7,129.2969 L7,115.5 A12.5,12.5 0 0 1 19.5,103 " fill="#F1F1F1" style="stroke:#F1F1F1;stroke-width:1.0;"/><rect fill="none" height="616.8906" rx="12.5" ry="12.5" style="stroke:#181818;stroke-width:0.5;" width="1255.5" x="7" y="103"/><line style="stroke:#181818;stroke-width:0.5;" x1="7" x2="1262.5" y1="129.2969" y2="129.2969"/><text fill="#000000" font-family="sans-serif" font-size="14" lengthAdjust="spacing" textLength="38" x="615.75" y="120.9951">Menu</text><ellipse cx="636" cy="150.2969" fill="#222222" rx="10" ry="10" style="stroke:#222222;stroke-width:1.0;"/><path d="M31.5,213.2969 L1241,213.2969 A12.5,12.5 0 0 1 1253.5,225.7969 L1253.5,239.5938 L19,239.5938 L19,225.7969 A12.5,12.5 0 0 1 31.5,213.2969 " fill="#F1F1F1" style="stroke:#F1F1F1;stroke-width:1.0;"/><rect fill="none" height="496.5938" rx="12.5" ry="12.5" style="stroke:#181818;stroke-width:0.5;" width="1234.5" x="19" y="213.2969"/><line style="stroke:#181818;stroke-width:0.5;" x1="19" x2="1253.5" y1="239.5938" y2="239.5938"/><text fill="#000000" font-family="sans-serif" font-size="14" lengthAdjust="spacing" textLength="129" x="571.75" y="231.292">PantallaGestiones</text><ellipse cx="529" cy="260.5938" fill="#222222" rx="10" ry="10" style="stroke:#222222;stroke-width:1.0;"/><g id="Menu.PantallaGestiones.EsperandoEleccionOpcion"><rect fill="#F1F1F1" height="50" rx="12.5" ry="12.5" style="stroke:#181818;stroke-width:0.5;" width="207" x="425.5" y="323.5938"/><line style="stroke:#181818;stroke-width:0.5;" x1="425.5" x2="632.5" y1="349.8906" y2="349.8906"/><text fill="#000000" font-family="sans-serif" font-size="14" lengthAdjust="spacing" textLength="187" x="435.5" y="341.5889">EsperandoEleccionOpcion</text></g><path d="M43.5,426.5938 L399,426.5938 A12.5,12.5 0 0 1 411.5,439.0938 L411.5,452.8906 L31,452.8906 L31,439.0938 A12.5,12.5 0 0 1 43.5,426.5938 " fill="#F1F1F1" style="stroke:#F1F1F1;stroke-width:1.0;"/><rect fill="none" height="273.2969" rx="12.5" ry="12.5" style="stroke:#181818;stroke-width:0.5;" width="380.5" x="31" y="426.5938"/><line style="stroke:#181818;stroke-width:0.5;" x1="31" x2="411.5" y1="452.8906" y2="452.8906"/><text fill="#000000" font-family="sans-serif" font-size="14" lengthAdjust="spacing" textLength="114" x="164.25" y="444.5889">GestionarBonos</text><ellipse cx="180.5" cy="473.8906" fill="#222222" rx="10" ry="10" style="stroke:#222222;stroke-width:1.0;"/><g id="Menu.PantallaGestiones.GestionarBonos.EsperandoAccionBonos"><rect fill="#F1F1F1" height="50" rx="12.5" ry="12.5" style="stroke:#181818;stroke-width:0.5;" width="188" x="86.5" y="536.8906"/><line style="stroke:#181818;stroke-width:0.5;" x1="86.5" x2="274.5" y1="563.1875" y2="563.1875"/><text fill="#000000" font-family="sans-serif" font-size="14" lengthAdjust="spacing" textLength="168" x="96.5" y="554.8857">EsperandoAccionBonos</text></g><g id="Menu.PantallaGestiones.GestionarBonos.A&#241;adirBono"><rect fill="#F1F1F1" height="50" rx="12.5" ry="12.5" style="stroke:#181818;stroke-width:0.5;" width="103" x="43" y="639.8906"/><line style="stroke:#181818;stroke-width:0.5;" x1="43" x2="146" y1="666.1875" y2="666.1875"/><text fill="#000000" font-family="sans-serif" font-size="14" lengthAdjust="spacing" textLength="83" x="53" y="657.8857">A&#241;adirBono</text></g><g id="Menu.PantallaGestiones.GestionarBonos.EditarBono"><rect fill="#F1F1F1" height="50" rx="12.5" ry="12.5" style="stroke:#181818;stroke-width:0.5;" width="100" x="217.5" y="639.8906"/><line style="stroke:#181818;stroke-width:0.5;" x1="217.5" x2="317.5" y1="666.1875" y2="666.1875"/><text fill="#000000" font-family="sans-serif" font-size="14" lengthAdjust="spacing" textLength="80" x="227.5" y="657.8857">EditarBono</text></g><!--link *start*GestionarBonos to EsperandoAccionBonos--><g id="link_*start*GestionarBonos_EsperandoAccionBonos"><path d="M180.5,484.0946 C180.5,496.5736 180.5,513.3126 180.5,530.8206 " fill="none" id="*start*GestionarBonos-to-EsperandoAccionBonos" style="stroke:#181818;stroke-width:1.0;"/><polygon fill="#181818" points="180.5,536.8206,184.5,527.8206,180.5,531.8206,176.5,527.8206,180.5,536.8206" style="stroke:#181818;stroke-width:1.0;"/><text fill="#000000" font-family="sans-serif" font-size="13" lengthAdjust="spacing" textLength="81" x="181.5" y="514.9575">Listan bonos</text></g><!--link EsperandoAccionBonos to A?adirBono--><g id="link_EsperandoAccionBonos_A&#241;adirBono"><path d="M112.9148,586.9096 C106.0652,591.8643 99.9904,597.7979 95.5,604.8906 C89.0337,615.1043 87.7373,622.4656 88.8426,633.8725 " fill="none" id="EsperandoAccionBonos-to-A&#241;adirBono" style="stroke:#181818;stroke-width:1.0;"/><polygon fill="#181818" points="89.4213,639.8445,92.5346,630.5007,88.9391,634.8678,84.5719,631.2723,89.4213,639.8445" style="stroke:#181818;stroke-width:1.0;"/><text fill="#000000" font-family="sans-serif" font-size="13" lengthAdjust="spacing" textLength="148" x="96.5" y="617.9575">Selecciona a&#241;adir bono</text></g><!--link EsperandoAccionBonos to EditarBono--><g id="link_EsperandoAccionBonos_EditarBono"><path d="M226.253,587.0186 C233.357,592.2123 240.113,598.1884 245.5,604.8906 C253.581,614.9452 257.1906,622.5109 260.5626,633.9507 " fill="none" id="EsperandoAccionBonos-to-EditarBono" style="stroke:#181818;stroke-width:1.0;"/><polygon fill="#181818" points="262.259,639.7059,263.5512,629.9422,260.8453,634.9099,255.8776,632.2041,262.259,639.7059" style="stroke:#181818;stroke-width:1.0;"/><text fill="#000000" font-family="sans-serif" font-size="13" lengthAdjust="spacing" textLength="145" x="256.5" y="617.9575">Selecciona editar bono</text></g><path d="M441.5,426.5938 L1232,426.5938 A12.5,12.5 0 0 1 1244.5,439.0938 L1244.5,452.8906 L429,452.8906 L429,439.0938 A12.5,12.5 0 0 1 441.5,426.5938 " fill="#F1F1F1" style="stroke:#F1F1F1;stroke-width:1.0;"/><rect fill="none" height="273.2969" rx="12.5" ry="12.5" style="stroke:#181818;stroke-width:0.5;" width="815.5" x="429" y="426.5938"/><line style="stroke:#181818;stroke-width:0.5;" x1="429" x2="1244.5" y1="452.8906" y2="452.8906"/><text fill="#000000" font-family="sans-serif" font-size="14" lengthAdjust="spacing" textLength="128" x="772.75" y="444.5889">GestionarUsuarios</text><ellipse cx="779.5" cy="473.8906" fill="#222222" rx="10" ry="10" style="stroke:#222222;stroke-width:1.0;"/><g id="Menu.PantallaGestiones.GestionarUsuarios.EsperandoAccionUsuarios"><rect fill="#F1F1F1" height="50" rx="12.5" ry="12.5" style="stroke:#181818;stroke-width:0.5;" width="202" x="678.5" y="536.8906"/><line style="stroke:#181818;stroke-width:0.5;" x1="678.5" x2="880.5" y1="563.1875" y2="563.1875"/><text fill="#000000" font-family="sans-serif" font-size="14" lengthAdjust="spacing" textLength="182" x="688.5" y="554.8857">EsperandoAccionUsuarios</text></g><g id="Menu.PantallaGestiones.GestionarUsuarios.A&#241;adirUsuario"><rect fill="#F1F1F1" height="50" rx="12.5" ry="12.5" style="stroke:#181818;stroke-width:0.5;" width="117" x="441" y="639.8906"/><line style="stroke:#181818;stroke-width:0.5;" x1="441" x2="558" y1="666.1875" y2="666.1875"/><text fill="#000000" font-family="sans-serif" font-size="14" lengthAdjust="spacing" textLength="97" x="451" y="657.8857">A&#241;adirUsuario</text></g><g id="Menu.PantallaGestiones.GestionarUsuarios.EditarUsuario"><rect fill="#F1F1F1" height="50" rx="12.5" ry="12.5" style="stroke:#181818;stroke-width:0.5;" width="114" x="630.5" y="639.8906"/><line style="stroke:#181818;stroke-width:0.5;" x1="630.5" x2="744.5" y1="666.1875" y2="666.1875"/><text fill="#000000" font-family="sans-serif" font-size="14" lengthAdjust="spacing" textLength="94" x="640.5" y="657.8857">EditarUsuario</text></g><g id="Menu.PantallaGestiones.GestionarUsuarios.BorrarUsuario"><rect fill="#F1F1F1" height="50" rx="12.5" ry="12.5" style="stroke:#181818;stroke-width:0.5;" width="116" x="814.5" y="639.8906"/><line style="stroke:#181818;stroke-width:0.5;" x1="814.5" x2="930.5" y1="666.1875" y2="666.1875"/><text fill="#000000" font-family="sans-serif" font-size="14" lengthAdjust="spacing" textLength="96" x="824.5" y="657.8857">BorrarUsuario</text></g><g id="Menu.PantallaGestiones.GestionarUsuarios.DesactivarUsuario"><rect fill="#F1F1F1" height="50" rx="12.5" ry="12.5" style="stroke:#181818;stroke-width:0.5;" width="147" x="986" y="639.8906"/><line style="stroke:#181818;stroke-width:0.5;" x1="986" x2="1133" y1="666.1875" y2="666.1875"/><text fill="#000000" font-family="sans-serif" font-size="14" lengthAdjust="spacing" textLength="127" x="996" y="657.8857">DesactivarUsuario</text></g><!--link *start*GestionarUsuarios to EsperandoAccionUsuarios--><g id="link_*start*GestionarUsuarios_EsperandoAccionUsuarios"><path d="M779.5,484.0946 C779.5,496.5736 779.5,513.3126 779.5,530.8206 " fill="none" id="*start*GestionarUsuarios-to-EsperandoAccionUsuarios" style="stroke:#181818;stroke-width:1.0;"/><polygon fill="#181818" points="779.5,536.8206,783.5,527.8206,779.5,531.8206,775.5,527.8206,779.5,536.8206" style="stroke:#181818;stroke-width:1.0;"/><text fill="#000000" font-family="sans-serif" font-size="13" lengthAdjust="spacing" textLength="97" x="780.5" y="514.9575">Listan Usuarios</text></g><!--link EsperandoAccionUsuarios to A?adirUsuario--><g id="link_EsperandoAccionUsuarios_A&#241;adirUsuario"><path d="M678.329,567.5736 C613.942,572.6416 538.3318,583.1516 514.5,604.8906 C504.8958,613.6515 501.743,621.6531 500.3474,633.7963 " fill="none" id="EsperandoAccionUsuarios-to-A&#241;adirUsuario" style="stroke:#181818;stroke-width:1.0;"/><polygon fill="#181818" points="499.6623,639.757,504.6637,631.2726,500.2332,634.7897,496.7161,630.3592,499.6623,639.757" style="stroke:#181818;stroke-width:1.0;"/><text fill="#000000" font-family="sans-serif" font-size="13" lengthAdjust="spacing" textLength="163" x="515.5" y="617.9575">Selecciona a&#241;adir usuario</text></g><!--link EsperandoAccionUsuarios to EditarUsuario--><g id="link_EsperandoAccionUsuarios_EditarUsuario"><path d="M705.931,587.1576 C699.111,592.0442 693.061,597.8938 688.5,604.8906 C681.899,615.0176 680.5789,622.3734 681.7119,633.7983 " fill="none" id="EsperandoAccionUsuarios-to-EditarUsuario" style="stroke:#181818;stroke-width:1.0;"/><polygon fill="#181818" points="682.304,639.769,685.3963,630.4182,681.8106,634.7934,677.4354,631.2077,682.304,639.769" style="stroke:#181818;stroke-width:1.0;"/><text fill="#000000" font-family="sans-serif" font-size="13" lengthAdjust="spacing" textLength="160" x="689.5" y="617.9575">Selecciona editar usuario</text></g><!--link EsperandoAccionUsuarios to BorrarUsuario--><g id="link_EsperandoAccionUsuarios_BorrarUsuario"><path d="M830.207,586.9616 C837.699,592.106 844.802,598.0808 850.5,604.8906 C858.848,614.8676 862.5272,622.5526 865.8532,634.0912 " fill="none" id="EsperandoAccionUsuarios-to-BorrarUsuario" style="stroke:#181818;stroke-width:1.0;"/><polygon fill="#181818" points="867.515,639.8564,868.8658,630.1006,866.1301,635.052,861.1787,632.3164,867.515,639.8564" style="stroke:#181818;stroke-width:1.0;"/><text fill="#000000" font-family="sans-serif" font-size="13" lengthAdjust="spacing" textLength="162" x="861.5" y="617.9575">Selecciona borrar usuario</text></g><!--link EsperandoAccionUsuarios to DesactivarUsuario--><g id="link_EsperandoAccionUsuarios_DesactivarUsuario"><path d="M880.688,570.8496 C938.856,577.1566 1004.937,587.8166 1028.5,604.8906 C1040.118,613.3095 1045.5805,621.823 1050.3665,634.1311 " fill="none" id="EsperandoAccionUsuarios-to-DesactivarUsuario" style="stroke:#181818;stroke-width:1.0;"/><polygon fill="#181818" points="1052.541,639.7232,1053.0073,629.8854,1050.7289,635.0631,1045.5512,632.7847,1052.541,639.7232" style="stroke:#181818;stroke-width:1.0;"/><text fill="#000000" font-family="sans-serif" font-size="13" lengthAdjust="spacing" textLength="190" x="1044.5" y="617.9575">Selecciona desactivar usuario</text></g><!--link *start*PantallaGestiones to EsperandoEleccionOpcion--><g id="link_*start*PantallaGestiones_EsperandoEleccionOpcion"><path d="M529,270.7978 C529,283.2768 529,300.0158 529,317.5238 " fill="none" id="*start*PantallaGestiones-to-EsperandoEleccionOpcion" style="stroke:#181818;stroke-width:1.0;"/><polygon fill="#181818" points="529,323.5238,533,314.5238,529,318.5238,525,314.5238,529,323.5238" style="stroke:#181818;stroke-width:1.0;"/><text fill="#000000" font-family="sans-serif" font-size="13" lengthAdjust="spacing" textLength="99" x="530" y="301.6606">Listan opciones</text></g><!--link EsperandoEleccionOpcion to GestionarBonos--><g id="link_EsperandoEleccionOpcion_GestionarBonos"><path d="M493.968,373.7638 C472.368,388.6668 447.7216,405.6704 415.9716,427.5764 " fill="none" id="EsperandoEleccionOpcion-to-GestionarBonos" style="stroke:#181818;stroke-width:1.0;"/><polygon fill="#181818" points="411.033,430.9838,420.7125,429.1651,415.1485,428.1443,416.1693,422.5803,411.033,430.9838" style="stroke:#181818;stroke-width:1.0;"/><text fill="#000000" font-family="sans-serif" font-size="13" lengthAdjust="spacing" textLength="174" x="464" y="404.6606">selecciona gestionar bonos</text></g><!--link EsperandoEleccionOpcion to GestionarUsuarios--><g id="link_EsperandoEleccionOpcion_GestionarUsuarios"><path d="M606.217,373.6238 C618.88,378.8008 631.582,384.7958 643,391.5938 C660.338,401.9158 672.8056,410.2361 689.4416,422.9411 " fill="none" id="EsperandoEleccionOpcion-to-GestionarUsuarios" style="stroke:#181818;stroke-width:1.0;"/><polygon fill="#181818" points="694.21,426.5828,689.4851,417.9413,690.2363,423.548,684.6295,424.2992,694.21,426.5828" style="stroke:#181818;stroke-width:1.0;"/><text fill="#000000" font-family="sans-serif" font-size="13" lengthAdjust="spacing" textLength="189" x="667" y="404.6606">selecciona gestionar usuarios</text></g><!--link *start*Menu to PantallaGestiones--><g id="link_*start*Menu_PantallaGestiones"><path d="M636,160.5599 C636,171.1209 636,183.9769 636,207.2819 " fill="none" id="*start*Menu-to-PantallaGestiones" style="stroke:#181818;stroke-width:1.0;"/><polygon fill="#181818" points="636,213.2819,640,204.2819,636,208.2819,632,204.2819,636,213.2819" style="stroke:#181818;stroke-width:1.0;"/><text fill="#000000" font-family="sans-serif" font-size="13" lengthAdjust="spacing" textLength="227" x="637" y="191.3638">Administrador selecciona gestiones</text></g><!--link *start* to Menu--><g id="link_*start*_Menu"><path d="M635,26.339 C635,40.131 635,62.117 635,96.988 " fill="none" id="*start*-to-Menu" style="stroke:#181818;stroke-width:1.0;"/><polygon fill="#181818" points="635,102.988,639,93.988,635,97.988,631,93.988,635,102.988" style="stroke:#181818;stroke-width:1.0;"/><text fill="#000000" font-family="sans-serif" font-size="13" lengthAdjust="spacing" textLength="141" x="636" y="69.0669">Usuario administrador</text></g><!--SRC=[ZP91QiCm44NtFiMi2xb05WM7ccnQMWXTXIucrX04hXGakPkGG-KClLWbUUI8o4wzCKX__jF_W_TFNx1QFSCRgHxMy6bxD583Yc-ff7K6XJPLPHqw6cRE5S2UJH-e77OTRiawgHLPJwXp9rZgg6szXd1CGnvGNHApHEGFDFP41fNG3MFUJ-7hdtdrJw027S-HEJSRE4n7iz5AXvHbBZHm2E9I4czg5jQpVgjw5sAoPnqvAIMNB7BbKy5U_rvHoCZrhjqj3Wv293m2D48wdF1Jl1_iPOzn1G-gP6lYDkccp3FEPftI3pbPYtVy3saeDmdYViiu6stC3ESGfOMS5xBOElapmnAZFF8kVm00]--></g></svg>