<?xml version="1.0" encoding="us-ascii" standalone="no"?><svg xmlns="http://www.w3.org/2000/svg" xmlns:xlink="http://www.w3.org/1999/xlink" contentStyleType="text/css" height="736px" preserveAspectRatio="none" style="width:1591px;height:736px;background:#FFFFFF;" version="1.1" viewBox="0 0 1591 736" width="1591px" zoomAndPan="magnify"><defs><filter height="300%" id="fu0slcbbjfk3k" width="300%" x="-1" y="-1"><feGaussianBlur result="blurOut" stdDeviation="2.0"/><feColorMatrix in="blurOut" result="blurOut2" type="matrix" values="0 0 0 0 0 0 0 0 0 0 0 0 0 0 0 0 0 0 .4 0"/><feOffset dx="4.0" dy="4.0" in="blurOut2" result="blurOut3"/><feBlend in="SourceGraphic" in2="blurOut3" mode="normal"/></filter></defs><g><text fill="#000000" font-family="sans-serif" font-size="14" font-weight="bold" lengthAdjust="spacing" textLength="281" x="653.75" y="32.9951">Flujo de gestiones (administrador)</text><ellipse cx="807.25" cy="57.2969" fill="#000000" filter="url(#fu0slcbbjfk3k)" rx="10" ry="10" style="stroke:#000000;stroke-width:1.0;"/><rect fill="#FEFECE" filter="url(#fu0slcbbjfk3k)" height="33.9688" rx="12.5" ry="12.5" style="stroke:#A80036;stroke-width:1.5;" width="148" x="733.25" y="87.2969"/><text fill="#000000" font-family="sans-serif" font-size="12" lengthAdjust="spacing" textLength="128" x="743.25" y="108.4355">Pantalla de gestiones</text><rect fill="#000000" filter="url(#fu0slcbbjfk3k)" height="6" rx="2.5" ry="2.5" style="stroke:#000000;stroke-width:1.0;" width="1542.5" x="11" y="185.2656"/><rect fill="#FEFECE" filter="url(#fu0slcbbjfk3k)" height="33.9688" rx="12.5" ry="12.5" style="stroke:#A80036;stroke-width:1.5;" width="124" x="248.5" y="211.2656"/><text fill="#000000" font-family="sans-serif" font-size="12" lengthAdjust="spacing" textLength="100" x="262.5" y="232.4043">Gestionar Bonos</text><rect fill="#FEFECE" filter="url(#fu0slcbbjfk3k)" height="33.9688" rx="12.5" ry="12.5" style="stroke:#A80036;stroke-width:1.5;" width="98" x="261.5" y="265.2344"/><text fill="#000000" font-family="sans-serif" font-size="12" lengthAdjust="spacing" textLength="74" x="275.5" y="286.373">Listar Bonos</text><rect fill="#000000" filter="url(#fu0slcbbjfk3k)" height="6" rx="2.5" ry="2.5" style="stroke:#000000;stroke-width:1.0;" width="575" x="23" y="319.2031"/><rect fill="#FEFECE" filter="url(#fu0slcbbjfk3k)" height="33.9688" rx="12.5" ry="12.5" style="stroke:#A80036;stroke-width:1.5;" width="92" x="120.5" y="345.2031"/><text fill="#000000" font-family="sans-serif" font-size="12" lengthAdjust="spacing" textLength="68" x="134.5" y="366.3418">Crear bono</text><rect fill="#FEFECE" filter="url(#fu0slcbbjfk3k)" height="33.9688" rx="12.5" ry="12.5" style="stroke:#A80036;stroke-width:1.5;" width="107" x="113" y="414.1719"/><text fill="#000000" font-family="sans-serif" font-size="12" lengthAdjust="spacing" textLength="83" x="127" y="435.3105">Introducir info</text><polygon fill="#FEFECE" filter="url(#fu0slcbbjfk3k)" points="132,483.1406,201,483.1406,213,495.1406,201,507.1406,132,507.1406,120,495.1406,132,483.1406" style="stroke:#A80036;stroke-width:1.5;"/><text fill="#000000" font-family="sans-serif" font-size="11" lengthAdjust="spacing" textLength="69" x="132" y="498.9487">info invalida</text><text fill="#000000" font-family="sans-serif" font-size="11" lengthAdjust="spacing" textLength="11" x="109" y="492.5464">Si</text><text fill="#000000" font-family="sans-serif" font-size="11" lengthAdjust="spacing" textLength="15" x="213" y="492.5464">No</text><rect fill="#FEFECE" filter="url(#fu0slcbbjfk3k)" height="33.9688" rx="12.5" ry="12.5" style="stroke:#A80036;stroke-width:1.5;" width="128" x="35" y="517.1406"/><text fill="#000000" font-family="sans-serif" font-size="12" lengthAdjust="spacing" textLength="104" x="49" y="538.2793">Mensaje de Error</text><rect fill="#FEFECE" filter="url(#fu0slcbbjfk3k)" height="33.9688" rx="12.5" ry="12.5" style="stroke:#A80036;stroke-width:1.5;" width="102" x="183" y="517.1406"/><text fill="#000000" font-family="sans-serif" font-size="12" lengthAdjust="spacing" textLength="78" x="197" y="538.2793">Bono creado</text><polygon fill="#FEFECE" filter="url(#fu0slcbbjfk3k)" points="166.5,557.1094,178.5,569.1094,166.5,581.1094,154.5,569.1094,166.5,557.1094" style="stroke:#A80036;stroke-width:1.5;"/><rect fill="#FEFECE" filter="url(#fu0slcbbjfk3k)" height="33.9688" rx="12.5" ry="12.5" style="stroke:#A80036;stroke-width:1.5;" width="93" x="418.75" y="345.2031"/><text fill="#000000" font-family="sans-serif" font-size="12" lengthAdjust="spacing" textLength="69" x="432.75" y="366.3418">Editar Bono</text><rect fill="#FEFECE" filter="url(#fu0slcbbjfk3k)" height="33.9688" rx="12.5" ry="12.5" style="stroke:#A80036;stroke-width:1.5;" width="99" x="415.75" y="414.1719"/><text fill="#000000" font-family="sans-serif" font-size="12" lengthAdjust="spacing" textLength="75" x="429.75" y="435.3105">Cambiar info</text><polygon fill="#FEFECE" filter="url(#fu0slcbbjfk3k)" points="430.75,483.1406,499.75,483.1406,511.75,495.1406,499.75,507.1406,430.75,507.1406,418.75,495.1406,430.75,483.1406" style="stroke:#A80036;stroke-width:1.5;"/><text fill="#000000" font-family="sans-serif" font-size="11" lengthAdjust="spacing" textLength="69" x="430.75" y="498.9487">info invalida</text><text fill="#000000" font-family="sans-serif" font-size="11" lengthAdjust="spacing" textLength="11" x="407.75" y="492.5464">Si</text><text fill="#000000" font-family="sans-serif" font-size="11" lengthAdjust="spacing" textLength="15" x="511.75" y="492.5464">No</text><rect fill="#FEFECE" filter="url(#fu0slcbbjfk3k)" height="33.9688" rx="12.5" ry="12.5" style="stroke:#A80036;stroke-width:1.5;" width="128" x="333" y="517.1406"/><text fill="#000000" font-family="sans-serif" font-size="12" lengthAdjust="spacing" textLength="104" x="347" y="538.2793">Mensaje de Error</text><rect fill="#FEFECE" filter="url(#fu0slcbbjfk3k)" height="33.9688" rx="12.5" ry="12.5" style="stroke:#A80036;stroke-width:1.5;" width="105" x="481" y="517.1406"/><text fill="#000000" font-family="sans-serif" font-size="12" lengthAdjust="spacing" textLength="81" x="495" y="538.2793">Bono editado</text><polygon fill="#FEFECE" filter="url(#fu0slcbbjfk3k)" points="465.25,557.1094,477.25,569.1094,465.25,581.1094,453.25,569.1094,465.25,557.1094" style="stroke:#A80036;stroke-width:1.5;"/><rect fill="#000000" filter="url(#fu0slcbbjfk3k)" height="6" rx="2.5" ry="2.5" style="stroke:#000000;stroke-width:1.0;" width="575" x="23" y="601.1094"/><rect fill="#FEFECE" filter="url(#fu0slcbbjfk3k)" height="33.9688" rx="12.5" ry="12.5" style="stroke:#A80036;stroke-width:1.5;" width="135" x="1015.25" y="211.2656"/><text fill="#000000" font-family="sans-serif" font-size="12" lengthAdjust="spacing" textLength="115" x="1025.25" y="232.4043">Gestionar Usuarios</text><rect fill="#FEFECE" filter="url(#fu0slcbbjfk3k)" height="33.9688" rx="12.5" ry="12.5" style="stroke:#A80036;stroke-width:1.5;" width="109" x="1028.25" y="265.2344"/><text fill="#000000" font-family="sans-serif" font-size="12" lengthAdjust="spacing" textLength="89" x="1038.25" y="286.373">Listar Usuarios</text><rect fill="#000000" filter="url(#fu0slcbbjfk3k)" height="6" rx="2.5" ry="2.5" style="stroke:#000000;stroke-width:1.0;" width="933.5" x="608" y="319.2031"/><rect fill="#FEFECE" filter="url(#fu0slcbbjfk3k)" height="33.9688" rx="12.5" ry="12.5" style="stroke:#A80036;stroke-width:1.5;" width="123" x="731" y="345.2031"/><text fill="#000000" font-family="sans-serif" font-size="12" lengthAdjust="spacing" textLength="99" x="745" y="366.3418">Agregar Usuario</text><rect fill="#FEFECE" filter="url(#fu0slcbbjfk3k)" height="33.9688" rx="12.5" ry="12.5" style="stroke:#A80036;stroke-width:1.5;" width="107" x="739" y="414.1719"/><text fill="#000000" font-family="sans-serif" font-size="12" lengthAdjust="spacing" textLength="83" x="753" y="435.3105">Introducir info</text><polygon fill="#FEFECE" filter="url(#fu0slcbbjfk3k)" points="706,483.1406,879,483.1406,891,495.1406,879,507.1406,706,507.1406,694,495.1406,706,483.1406" style="stroke:#A80036;stroke-width:1.5;"/><text fill="#000000" font-family="sans-serif" font-size="11" lengthAdjust="spacing" textLength="173" x="706" y="498.9487">usuario existente/info invalida</text><text fill="#000000" font-family="sans-serif" font-size="11" lengthAdjust="spacing" textLength="11" x="683" y="492.5464">Si</text><text fill="#000000" font-family="sans-serif" font-size="11" lengthAdjust="spacing" textLength="15" x="891" y="492.5464">No</text><rect fill="#FEFECE" filter="url(#fu0slcbbjfk3k)" height="33.9688" rx="12.5" ry="12.5" style="stroke:#A80036;stroke-width:1.5;" width="128" x="620" y="517.1406"/><text fill="#000000" font-family="sans-serif" font-size="12" lengthAdjust="spacing" textLength="104" x="634" y="538.2793">Mensaje de Error</text><rect fill="#FEFECE" filter="url(#fu0slcbbjfk3k)" height="33.9688" rx="12.5" ry="12.5" style="stroke:#A80036;stroke-width:1.5;" width="117" x="842.5" y="517.1406"/><text fill="#000000" font-family="sans-serif" font-size="12" lengthAdjust="spacing" textLength="93" x="856.5" y="538.2793">Usuario creado</text><polygon fill="#FEFECE" filter="url(#fu0slcbbjfk3k)" points="792.5,557.1094,804.5,569.1094,792.5,581.1094,780.5,569.1094,792.5,557.1094" style="stroke:#A80036;stroke-width:1.5;"/><rect fill="#FEFECE" filter="url(#fu0slcbbjfk3k)" height="33.9688" rx="12.5" ry="12.5" style="stroke:#A80036;stroke-width:1.5;" width="108" x="1051.5" y="345.2031"/><text fill="#000000" font-family="sans-serif" font-size="12" lengthAdjust="spacing" textLength="84" x="1065.5" y="366.3418">Editar Usuario</text><rect fill="#FEFECE" filter="url(#fu0slcbbjfk3k)" height="33.9688" rx="12.5" ry="12.5" style="stroke:#A80036;stroke-width:1.5;" width="99" x="1056" y="414.1719"/><text fill="#000000" font-family="sans-serif" font-size="12" lengthAdjust="spacing" textLength="75" x="1070" y="435.3105">Cambiar info</text><polygon fill="#FEFECE" filter="url(#fu0slcbbjfk3k)" points="1071,483.1406,1140,483.1406,1152,495.1406,1140,507.1406,1071,507.1406,1059,495.1406,1071,483.1406" style="stroke:#A80036;stroke-width:1.5;"/><text fill="#000000" font-family="sans-serif" font-size="11" lengthAdjust="spacing" textLength="69" x="1071" y="498.9487">info invalida</text><text fill="#000000" font-family="sans-serif" font-size="11" lengthAdjust="spacing" textLength="11" x="1048" y="492.5464">Si</text><text fill="#000000" font-family="sans-serif" font-size="11" lengthAdjust="spacing" textLength="15" x="1152" y="492.5464">No</text><rect fill="#FEFECE" filter="url(#fu0slcbbjfk3k)" height="33.9688" rx="12.5" ry="12.5" style="stroke:#A80036;stroke-width:1.5;" width="128" x="969.5" y="517.1406"/><text fill="#000000" font-family="sans-serif" font-size="12" lengthAdjust="spacing" textLength="104" x="983.5" y="538.2793">Mensaje de Error</text><rect fill="#FEFECE" filter="url(#fu0slcbbjfk3k)" height="33.9688" rx="12.5" ry="12.5" style="stroke:#A80036;stroke-width:1.5;" width="120" x="1117.5" y="517.1406"/><text fill="#000000" font-family="sans-serif" font-size="12" lengthAdjust="spacing" textLength="96" x="1131.5" y="538.2793">Usuario editado</text><polygon fill="#FEFECE" filter="url(#fu0slcbbjfk3k)" points="1105.5,557.1094,1117.5,569.1094,1105.5,581.1094,1093.5,569.1094,1105.5,557.1094" style="stroke:#A80036;stroke-width:1.5;"/><rect fill="#FEFECE" filter="url(#fu0slcbbjfk3k)" height="33.9688" rx="12.5" ry="12.5" style="stroke:#A80036;stroke-width:1.5;" width="138" x="1247.5" y="446.1719"/><text fill="#000000" font-family="sans-serif" font-size="12" lengthAdjust="spacing" textLength="114" x="1261.5" y="467.3105">Desactivar Usuario</text><rect fill="#FEFECE" filter="url(#fu0slcbbjfk3k)" height="33.9688" rx="12.5" ry="12.5" style="stroke:#A80036;stroke-width:1.5;" width="120" x="1395.5" y="363.2852"/><text fill="#000000" font-family="sans-serif" font-size="12" lengthAdjust="spacing" textLength="96" x="1409.5" y="384.4238">Eliminar Usuario</text><rect fill="#FEFECE" filter="url(#fu0slcbbjfk3k)" height="33.9688" rx="12.5" ry="12.5" style="stroke:#A80036;stroke-width:1.5;" width="120" x="1395.5" y="480.6563"/><text fill="#000000" font-family="sans-serif" font-size="12" lengthAdjust="spacing" textLength="96" x="1409.5" y="501.7949">Eliminar Usuario</text><polygon fill="#FEFECE" filter="url(#fu0slcbbjfk3k)" points="1415,432.2539,1496,432.2539,1508,444.2539,1496,456.2539,1415,456.2539,1403,444.2539,1415,432.2539" style="stroke:#A80036;stroke-width:1.5;"/><text fill="#000000" font-family="sans-serif" font-size="11" lengthAdjust="spacing" textLength="11" x="1459.5" y="466.4644">Si</text><text fill="#000000" font-family="sans-serif" font-size="11" lengthAdjust="spacing" textLength="81" x="1415" y="448.062">Estas Seguro?</text><text fill="#000000" font-family="sans-serif" font-size="11" lengthAdjust="spacing" textLength="15" x="1508" y="441.6597">No</text><polygon fill="#FEFECE" filter="url(#fu0slcbbjfk3k)" points="1455.5,539.0273,1467.5,551.0273,1455.5,563.0273,1443.5,551.0273,1455.5,539.0273" style="stroke:#A80036;stroke-width:1.5;"/><rect fill="#000000" filter="url(#fu0slcbbjfk3k)" height="6" rx="2.5" ry="2.5" style="stroke:#000000;stroke-width:1.0;" width="933.5" x="608" y="601.1094"/><rect fill="#000000" filter="url(#fu0slcbbjfk3k)" height="6" rx="2.5" ry="2.5" style="stroke:#000000;stroke-width:1.0;" width="1542.5" x="11" y="627.1094"/><polygon fill="#FEFECE" filter="url(#fu0slcbbjfk3k)" points="807.25,141.2656,819.25,153.2656,807.25,165.2656,795.25,153.2656,807.25,141.2656" style="stroke:#A80036;stroke-width:1.5;"/><polygon fill="#FEFECE" filter="url(#fu0slcbbjfk3k)" points="778.75,653.1094,835.75,653.1094,847.75,665.1094,835.75,677.1094,778.75,677.1094,766.75,665.1094,778.75,653.1094" style="stroke:#A80036;stroke-width:1.5;"/><text fill="#000000" font-family="sans-serif" font-size="11" lengthAdjust="spacing" textLength="57" x="778.75" y="668.9175">Terminar?</text><ellipse cx="807.25" cy="708.1094" fill="none" filter="url(#fu0slcbbjfk3k)" rx="11" ry="11" style="stroke:#000000;stroke-width:1.0;"/><ellipse cx="807.25" cy="708.1094" fill="#000000" rx="6" ry="6" style="stroke:#000000;stroke-width:1.0;"/><line style="stroke:#A80036;stroke-width:1.5;" x1="807.25" x2="807.25" y1="67.2969" y2="87.2969"/><polygon fill="#A80036" points="803.25,77.2969,807.25,87.2969,811.25,77.2969,807.25,81.2969" style="stroke:#A80036;stroke-width:1.0;"/><line style="stroke:#A80036;stroke-width:1.5;" x1="310.5" x2="310.5" y1="245.2344" y2="265.2344"/><polygon fill="#A80036" points="306.5,255.2344,310.5,265.2344,314.5,255.2344,310.5,259.2344" style="stroke:#A80036;stroke-width:1.0;"/><line style="stroke:#A80036;stroke-width:1.5;" x1="166.5" x2="166.5" y1="379.1719" y2="414.1719"/><polygon fill="#A80036" points="162.5,404.1719,166.5,414.1719,170.5,404.1719,166.5,408.1719" style="stroke:#A80036;stroke-width:1.0;"/><line style="stroke:#A80036;stroke-width:1.5;" x1="120" x2="99" y1="495.1406" y2="495.1406"/><line style="stroke:#A80036;stroke-width:1.5;" x1="99" x2="99" y1="495.1406" y2="517.1406"/><polygon fill="#A80036" points="95,507.1406,99,517.1406,103,507.1406,99,511.1406" style="stroke:#A80036;stroke-width:1.0;"/><line style="stroke:#A80036;stroke-width:1.5;" x1="213" x2="234" y1="495.1406" y2="495.1406"/><line style="stroke:#A80036;stroke-width:1.5;" x1="234" x2="234" y1="495.1406" y2="517.1406"/><polygon fill="#A80036" points="230,507.1406,234,517.1406,238,507.1406,234,511.1406" style="stroke:#A80036;stroke-width:1.0;"/><line style="stroke:#A80036;stroke-width:1.5;" x1="99" x2="99" y1="551.1094" y2="569.1094"/><line style="stroke:#A80036;stroke-width:1.5;" x1="99" x2="154.5" y1="569.1094" y2="569.1094"/><polygon fill="#A80036" points="144.5,565.1094,154.5,569.1094,144.5,573.1094,148.5,569.1094" style="stroke:#A80036;stroke-width:1.0;"/><line style="stroke:#A80036;stroke-width:1.5;" x1="234" x2="234" y1="551.1094" y2="569.1094"/><line style="stroke:#A80036;stroke-width:1.5;" x1="234" x2="178.5" y1="569.1094" y2="569.1094"/><polygon fill="#A80036" points="188.5,565.1094,178.5,569.1094,188.5,573.1094,184.5,569.1094" style="stroke:#A80036;stroke-width:1.0;"/><line style="stroke:#A80036;stroke-width:1.5;" x1="166.5" x2="166.5" y1="448.1406" y2="483.1406"/><polygon fill="#A80036" points="162.5,473.1406,166.5,483.1406,170.5,473.1406,166.5,477.1406" style="stroke:#A80036;stroke-width:1.0;"/><line style="stroke:#A80036;stroke-width:1.5;" x1="465.25" x2="465.25" y1="379.1719" y2="414.1719"/><polygon fill="#A80036" points="461.25,404.1719,465.25,414.1719,469.25,404.1719,465.25,408.1719" style="stroke:#A80036;stroke-width:1.0;"/><line style="stroke:#A80036;stroke-width:1.5;" x1="418.75" x2="397" y1="495.1406" y2="495.1406"/><line style="stroke:#A80036;stroke-width:1.5;" x1="397" x2="397" y1="495.1406" y2="517.1406"/><polygon fill="#A80036" points="393,507.1406,397,517.1406,401,507.1406,397,511.1406" style="stroke:#A80036;stroke-width:1.0;"/><line style="stroke:#A80036;stroke-width:1.5;" x1="511.75" x2="533.5" y1="495.1406" y2="495.1406"/><line style="stroke:#A80036;stroke-width:1.5;" x1="533.5" x2="533.5" y1="495.1406" y2="517.1406"/><polygon fill="#A80036" points="529.5,507.1406,533.5,517.1406,537.5,507.1406,533.5,511.1406" style="stroke:#A80036;stroke-width:1.0;"/><line style="stroke:#A80036;stroke-width:1.5;" x1="397" x2="397" y1="551.1094" y2="569.1094"/><line style="stroke:#A80036;stroke-width:1.5;" x1="397" x2="453.25" y1="569.1094" y2="569.1094"/><polygon fill="#A80036" points="443.25,565.1094,453.25,569.1094,443.25,573.1094,447.25,569.1094" style="stroke:#A80036;stroke-width:1.0;"/><line style="stroke:#A80036;stroke-width:1.5;" x1="533.5" x2="533.5" y1="551.1094" y2="569.1094"/><line style="stroke:#A80036;stroke-width:1.5;" x1="533.5" x2="477.25" y1="569.1094" y2="569.1094"/><polygon fill="#A80036" points="487.25,565.1094,477.25,569.1094,487.25,573.1094,483.25,569.1094" style="stroke:#A80036;stroke-width:1.0;"/><line style="stroke:#A80036;stroke-width:1.5;" x1="465.25" x2="465.25" y1="448.1406" y2="483.1406"/><polygon fill="#A80036" points="461.25,473.1406,465.25,483.1406,469.25,473.1406,465.25,477.1406" style="stroke:#A80036;stroke-width:1.0;"/><line style="stroke:#A80036;stroke-width:1.5;" x1="166.5" x2="166.5" y1="325.2031" y2="345.2031"/><polygon fill="#A80036" points="162.5,335.2031,166.5,345.2031,170.5,335.2031,166.5,339.2031" style="stroke:#A80036;stroke-width:1.0;"/><line style="stroke:#A80036;stroke-width:1.5;" x1="465.25" x2="465.25" y1="325.2031" y2="345.2031"/><polygon fill="#A80036" points="461.25,335.2031,465.25,345.2031,469.25,335.2031,465.25,339.2031" style="stroke:#A80036;stroke-width:1.0;"/><line style="stroke:#A80036;stroke-width:1.5;" x1="166.5" x2="166.5" y1="581.1094" y2="601.1094"/><polygon fill="#A80036" points="162.5,591.1094,166.5,601.1094,170.5,591.1094,166.5,595.1094" style="stroke:#A80036;stroke-width:1.0;"/><line style="stroke:#A80036;stroke-width:1.5;" x1="465.25" x2="465.25" y1="581.1094" y2="601.1094"/><polygon fill="#A80036" points="461.25,591.1094,465.25,601.1094,469.25,591.1094,465.25,595.1094" style="stroke:#A80036;stroke-width:1.0;"/><line style="stroke:#A80036;stroke-width:1.5;" x1="310.5" x2="310.5" y1="299.2031" y2="319.2031"/><polygon fill="#A80036" points="306.5,309.2031,310.5,319.2031,314.5,309.2031,310.5,313.2031" style="stroke:#A80036;stroke-width:1.0;"/><line style="stroke:#A80036;stroke-width:1.5;" x1="1082.75" x2="1082.75" y1="245.2344" y2="265.2344"/><polygon fill="#A80036" points="1078.75,255.2344,1082.75,265.2344,1086.75,255.2344,1082.75,259.2344" style="stroke:#A80036;stroke-width:1.0;"/><line style="stroke:#A80036;stroke-width:1.5;" x1="792.5" x2="792.5" y1="379.1719" y2="414.1719"/><polygon fill="#A80036" points="788.5,404.1719,792.5,414.1719,796.5,404.1719,792.5,408.1719" style="stroke:#A80036;stroke-width:1.0;"/><line style="stroke:#A80036;stroke-width:1.5;" x1="694" x2="684" y1="495.1406" y2="495.1406"/><line style="stroke:#A80036;stroke-width:1.5;" x1="684" x2="684" y1="495.1406" y2="517.1406"/><polygon fill="#A80036" points="680,507.1406,684,517.1406,688,507.1406,684,511.1406" style="stroke:#A80036;stroke-width:1.0;"/><line style="stroke:#A80036;stroke-width:1.5;" x1="891" x2="901" y1="495.1406" y2="495.1406"/><line style="stroke:#A80036;stroke-width:1.5;" x1="901" x2="901" y1="495.1406" y2="517.1406"/><polygon fill="#A80036" points="897,507.1406,901,517.1406,905,507.1406,901,511.1406" style="stroke:#A80036;stroke-width:1.0;"/><line style="stroke:#A80036;stroke-width:1.5;" x1="684" x2="684" y1="551.1094" y2="569.1094"/><line style="stroke:#A80036;stroke-width:1.5;" x1="684" x2="780.5" y1="569.1094" y2="569.1094"/><polygon fill="#A80036" points="770.5,565.1094,780.5,569.1094,770.5,573.1094,774.5,569.1094" style="stroke:#A80036;stroke-width:1.0;"/><line style="stroke:#A80036;stroke-width:1.5;" x1="901" x2="901" y1="551.1094" y2="569.1094"/><line style="stroke:#A80036;stroke-width:1.5;" x1="901" x2="804.5" y1="569.1094" y2="569.1094"/><polygon fill="#A80036" points="814.5,565.1094,804.5,569.1094,814.5,573.1094,810.5,569.1094" style="stroke:#A80036;stroke-width:1.0;"/><line style="stroke:#A80036;stroke-width:1.5;" x1="792.5" x2="792.5" y1="448.1406" y2="483.1406"/><polygon fill="#A80036" points="788.5,473.1406,792.5,483.1406,796.5,473.1406,792.5,477.1406" style="stroke:#A80036;stroke-width:1.0;"/><line style="stroke:#A80036;stroke-width:1.5;" x1="1105.5" x2="1105.5" y1="379.1719" y2="414.1719"/><polygon fill="#A80036" points="1101.5,404.1719,1105.5,414.1719,1109.5,404.1719,1105.5,408.1719" style="stroke:#A80036;stroke-width:1.0;"/><line style="stroke:#A80036;stroke-width:1.5;" x1="1059" x2="1033.5" y1="495.1406" y2="495.1406"/><line style="stroke:#A80036;stroke-width:1.5;" x1="1033.5" x2="1033.5" y1="495.1406" y2="517.1406"/><polygon fill="#A80036" points="1029.5,507.1406,1033.5,517.1406,1037.5,507.1406,1033.5,511.1406" style="stroke:#A80036;stroke-width:1.0;"/><line style="stroke:#A80036;stroke-width:1.5;" x1="1152" x2="1177.5" y1="495.1406" y2="495.1406"/><line style="stroke:#A80036;stroke-width:1.5;" x1="1177.5" x2="1177.5" y1="495.1406" y2="517.1406"/><polygon fill="#A80036" points="1173.5,507.1406,1177.5,517.1406,1181.5,507.1406,1177.5,511.1406" style="stroke:#A80036;stroke-width:1.0;"/><line style="stroke:#A80036;stroke-width:1.5;" x1="1033.5" x2="1033.5" y1="551.1094" y2="569.1094"/><line style="stroke:#A80036;stroke-width:1.5;" x1="1033.5" x2="1093.5" y1="569.1094" y2="569.1094"/><polygon fill="#A80036" points="1083.5,565.1094,1093.5,569.1094,1083.5,573.1094,1087.5,569.1094" style="stroke:#A80036;stroke-width:1.0;"/><line style="stroke:#A80036;stroke-width:1.5;" x1="1177.5" x2="1177.5" y1="551.1094" y2="569.1094"/><line style="stroke:#A80036;stroke-width:1.5;" x1="1177.5" x2="1117.5" y1="569.1094" y2="569.1094"/><polygon fill="#A80036" points="1127.5,565.1094,1117.5,569.1094,1127.5,573.1094,1123.5,569.1094" style="stroke:#A80036;stroke-width:1.0;"/><line style="stroke:#A80036;stroke-width:1.5;" x1="1105.5" x2="1105.5" y1="448.1406" y2="483.1406"/><polygon fill="#A80036" points="1101.5,473.1406,1105.5,483.1406,1109.5,473.1406,1105.5,477.1406" style="stroke:#A80036;stroke-width:1.0;"/><line style="stroke:#A80036;stroke-width:1.5;" x1="1455.5" x2="1455.5" y1="456.2539" y2="480.6563"/><polygon fill="#A80036" points="1451.5,470.6563,1455.5,480.6563,1459.5,470.6563,1455.5,474.6563" style="stroke:#A80036;stroke-width:1.0;"/><line style="stroke:#A80036;stroke-width:1.5;" x1="1508" x2="1525.5" y1="444.2539" y2="444.2539"/><polygon fill="#A80036" points="1521.5,487.6406,1525.5,497.6406,1529.5,487.6406,1525.5,491.6406" style="stroke:#A80036;stroke-width:1.5;"/><line style="stroke:#A80036;stroke-width:1.5;" x1="1525.5" x2="1525.5" y1="444.2539" y2="551.0273"/><line style="stroke:#A80036;stroke-width:1.5;" x1="1525.5" x2="1467.5" y1="551.0273" y2="551.0273"/><polygon fill="#A80036" points="1477.5,547.0273,1467.5,551.0273,1477.5,555.0273,1473.5,551.0273" style="stroke:#A80036;stroke-width:1.0;"/><line style="stroke:#A80036;stroke-width:1.5;" x1="1455.5" x2="1455.5" y1="514.625" y2="539.0273"/><polygon fill="#A80036" points="1451.5,529.0273,1455.5,539.0273,1459.5,529.0273,1455.5,533.0273" style="stroke:#A80036;stroke-width:1.0;"/><line style="stroke:#A80036;stroke-width:1.5;" x1="1455.5" x2="1455.5" y1="397.2539" y2="432.2539"/><polygon fill="#A80036" points="1451.5,422.2539,1455.5,432.2539,1459.5,422.2539,1455.5,426.2539" style="stroke:#A80036;stroke-width:1.0;"/><line style="stroke:#A80036;stroke-width:1.5;" x1="792.5" x2="792.5" y1="325.2031" y2="345.2031"/><polygon fill="#A80036" points="788.5,335.2031,792.5,345.2031,796.5,335.2031,792.5,339.2031" style="stroke:#A80036;stroke-width:1.0;"/><line style="stroke:#A80036;stroke-width:1.5;" x1="1105.5" x2="1105.5" y1="325.2031" y2="345.2031"/><polygon fill="#A80036" points="1101.5,335.2031,1105.5,345.2031,1109.5,335.2031,1105.5,339.2031" style="stroke:#A80036;stroke-width:1.0;"/><line style="stroke:#A80036;stroke-width:1.5;" x1="1316.5" x2="1316.5" y1="325.2031" y2="446.1719"/><polygon fill="#A80036" points="1312.5,436.1719,1316.5,446.1719,1320.5,436.1719,1316.5,440.1719" style="stroke:#A80036;stroke-width:1.0;"/><line style="stroke:#A80036;stroke-width:1.5;" x1="1455.5" x2="1455.5" y1="325.2031" y2="363.2852"/><polygon fill="#A80036" points="1451.5,353.2852,1455.5,363.2852,1459.5,353.2852,1455.5,357.2852" style="stroke:#A80036;stroke-width:1.0;"/><line style="stroke:#A80036;stroke-width:1.5;" x1="792.5" x2="792.5" y1="581.1094" y2="601.1094"/><polygon fill="#A80036" points="788.5,591.1094,792.5,601.1094,796.5,591.1094,792.5,595.1094" style="stroke:#A80036;stroke-width:1.0;"/><line style="stroke:#A80036;stroke-width:1.5;" x1="1105.5" x2="1105.5" y1="581.1094" y2="601.1094"/><polygon fill="#A80036" points="1101.5,591.1094,1105.5,601.1094,1109.5,591.1094,1105.5,595.1094" style="stroke:#A80036;stroke-width:1.0;"/><line style="stroke:#A80036;stroke-width:1.5;" x1="1316.5" x2="1316.5" y1="480.1406" y2="601.1094"/><polygon fill="#A80036" points="1312.5,591.1094,1316.5,601.1094,1320.5,591.1094,1316.5,595.1094" style="stroke:#A80036;stroke-width:1.0;"/><line style="stroke:#A80036;stroke-width:1.5;" x1="1455.5" x2="1455.5" y1="563.0273" y2="601.1094"/><polygon fill="#A80036" points="1451.5,591.1094,1455.5,601.1094,1459.5,591.1094,1455.5,595.1094" style="stroke:#A80036;stroke-width:1.0;"/><line style="stroke:#A80036;stroke-width:1.5;" x1="1082.75" x2="1082.75" y1="299.2031" y2="319.2031"/><polygon fill="#A80036" points="1078.75,309.2031,1082.75,319.2031,1086.75,309.2031,1082.75,313.2031" style="stroke:#A80036;stroke-width:1.0;"/><line style="stroke:#A80036;stroke-width:1.5;" x1="310.5" x2="310.5" y1="191.2656" y2="211.2656"/><polygon fill="#A80036" points="306.5,201.2656,310.5,211.2656,314.5,201.2656,310.5,205.2656" style="stroke:#A80036;stroke-width:1.0;"/><line style="stroke:#A80036;stroke-width:1.5;" x1="1082.75" x2="1082.75" y1="191.2656" y2="211.2656"/><polygon fill="#A80036" points="1078.75,201.2656,1082.75,211.2656,1086.75,201.2656,1082.75,205.2656" style="stroke:#A80036;stroke-width:1.0;"/><line style="stroke:#A80036;stroke-width:1.5;" x1="310.5" x2="310.5" y1="607.1094" y2="627.1094"/><polygon fill="#A80036" points="306.5,617.1094,310.5,627.1094,314.5,617.1094,310.5,621.1094" style="stroke:#A80036;stroke-width:1.0;"/><line style="stroke:#A80036;stroke-width:1.5;" x1="1082.75" x2="1082.75" y1="607.1094" y2="627.1094"/><polygon fill="#A80036" points="1078.75,617.1094,1082.75,627.1094,1086.75,617.1094,1082.75,621.1094" style="stroke:#A80036;stroke-width:1.0;"/><line style="stroke:#A80036;stroke-width:1.5;" x1="807.25" x2="807.25" y1="165.2656" y2="185.2656"/><polygon fill="#A80036" points="803.25,175.2656,807.25,185.2656,811.25,175.2656,807.25,179.2656" style="stroke:#A80036;stroke-width:1.0;"/><line style="stroke:#A80036;stroke-width:1.5;" x1="847.75" x2="1565.5" y1="665.1094" y2="665.1094"/><polygon fill="#A80036" points="1561.5,404.1875,1565.5,394.1875,1569.5,404.1875,1565.5,400.1875" style="stroke:#A80036;stroke-width:1.5;"/><line style="stroke:#A80036;stroke-width:1.5;" x1="1565.5" x2="1565.5" y1="153.2656" y2="665.1094"/><line style="stroke:#A80036;stroke-width:1.5;" x1="1565.5" x2="819.25" y1="153.2656" y2="153.2656"/><polygon fill="#A80036" points="829.25,149.2656,819.25,153.2656,829.25,157.2656,825.25,153.2656" style="stroke:#A80036;stroke-width:1.0;"/><line style="stroke:#A80036;stroke-width:1.5;" x1="807.25" x2="807.25" y1="633.1094" y2="653.1094"/><polygon fill="#A80036" points="803.25,643.1094,807.25,653.1094,811.25,643.1094,807.25,647.1094" style="stroke:#A80036;stroke-width:1.0;"/><line style="stroke:#A80036;stroke-width:1.5;" x1="807.25" x2="807.25" y1="121.2656" y2="141.2656"/><polygon fill="#A80036" points="803.25,131.2656,807.25,141.2656,811.25,131.2656,807.25,135.2656" style="stroke:#A80036;stroke-width:1.0;"/><line style="stroke:#A80036;stroke-width:1.5;" x1="807.25" x2="807.25" y1="677.1094" y2="697.1094"/><polygon fill="#A80036" points="803.25,687.1094,807.25,697.1094,811.25,687.1094,807.25,691.1094" style="stroke:#A80036;stroke-width:1.0;"/><!--SRC=[nPJFRi8m3CRlUGeVszFkS40ROzEaRPh4zW26c6882N9IjiTVilAdXPPfGXEzj7M-EFxbi-oNR46S9wK21qFmOCg50qrGa0_iB7d8KA_OiW-2sackbF819IZLUqCRq1XiwFjA2Qq9WmAOELd6Ltfwy5WfKE3EMHTrkuLdJWcRqThEIZGKYff9rFGRyISRnEbooW9iPur5da6MOd5XWuOrvX3cP24RSrwJfImlP3qkA86CH9pKqv3n1DchEzwJweLfB4itJYMhuydxG081B91je-oHvXrpasU8gmdZTM0e5NM69ltiZJa1wnqC_l0b2jSytbfy73zn-ROGAWx2FrbTLdk0lk9XP0FT_EDzRGkyrFzMpYkrm0xfjoxePBedZzF0cpQkhcim76TB-qKat55i6mzZAafnWsxSSsdQSBkwUlzPJJ3ud7ESYTaxoK_wGPvcdrj_0m00]--></g></svg>