<?xml version="1.0" encoding="windows-1252" standalone="no"?>
<svg xmlns="http://www.w3.org/2000/svg" xmlns:xlink="http://www.w3.org/1999/xlink" contentStyleType="text/css" height="348px" preserveAspectRatio="none" style="width:730px;height:348px;background:#FFFFFF;" version="1.1" viewBox="0 0 730 348" width="730px" zoomAndPan="magnify"><defs/><g><!--class User--><g id="elem_User"><rect codeLine="1" fill="#F1F1F1" height="80.5938" id="User" rx="2.5" ry="2.5" style="stroke:#181818;stroke-width:0.5;" width="188" x="7" y="31"/><ellipse cx="80.75" cy="47" fill="#B4A7E5" rx="11" ry="11" style="stroke:#181818;stroke-width:1.0;"/><path d="M81.7031,43.7813 L83.4219,43.7813 C83.8125,43.7813 84,43.75 84.125,43.6719 C84.3906,43.5156 84.5313,43.2344 84.5313,42.9375 C84.5313,42.6719 84.4219,42.4063 84.1875,42.2344 C84.0156,42.125 83.875,42.0938 83.4219,42.0938 L78.2813,42.0938 C77.8438,42.0938 77.7188,42.1094 77.5625,42.2031 C77.3125,42.3594 77.1563,42.6563 77.1563,42.9375 C77.1563,43.2188 77.2969,43.4688 77.5156,43.6406 C77.6719,43.75 77.8594,43.7813 78.2813,43.7813 L80,43.7813 L80,50.2969 L78.2813,50.2969 C77.8438,50.2969 77.7188,50.3125 77.5625,50.4219 C77.3125,50.5781 77.1563,50.8594 77.1563,51.1563 C77.1563,51.4063 77.2969,51.6719 77.5156,51.8281 C77.6719,51.9531 77.875,52 78.2813,52 L83.4219,52 C84.1719,52 84.5313,51.7188 84.5313,51.1563 C84.5313,50.875 84.4219,50.625 84.1875,50.4531 C84.0156,50.3281 83.875,50.2969 83.4219,50.2969 L81.7031,50.2969 L81.7031,43.7813 Z " fill="#000000"/><text fill="#000000" font-family="sans-serif" font-size="14" font-style="italic" lengthAdjust="spacing" textLength="32" x="101.25" y="51.8467">User</text><line style="stroke:#181818;stroke-width:0.5;" x1="8" x2="194" y1="63" y2="63"/><rect fill="none" height="6" style="stroke:#C82930;stroke-width:1.0;" width="6" x="15" y="73.6484"/><text fill="#000000" font-family="sans-serif" font-size="14" lengthAdjust="spacing" textLength="126" x="27" y="79.9951">userInfo: UserInfo</text><line style="stroke:#181818;stroke-width:0.5;" x1="8" x2="194" y1="87.2969" y2="87.2969"/><ellipse cx="18" cy="100.9453" fill="#84BE84" rx="3" ry="3" style="stroke:#038048;stroke-width:1.0;"/><text fill="#000000" font-family="sans-serif" font-size="14" lengthAdjust="spacing" textLength="162" x="27" y="104.292">getUserInfo(): UserInfo</text></g><!--class Bonus--><g id="elem_Bonus"><rect codeLine="7" fill="#F1F1F1" height="80.5938" id="Bonus" rx="2.5" ry="2.5" style="stroke:#181818;stroke-width:0.5;" width="212" x="511" y="31"/><ellipse cx="590.75" cy="47" fill="#B4A7E5" rx="11" ry="11" style="stroke:#181818;stroke-width:1.0;"/><path d="M591.7031,43.7813 L593.4219,43.7813 C593.8125,43.7813 594,43.75 594.125,43.6719 C594.3906,43.5156 594.5313,43.2344 594.5313,42.9375 C594.5313,42.6719 594.4219,42.4063 594.1875,42.2344 C594.0156,42.125 593.875,42.0938 593.4219,42.0938 L588.2813,42.0938 C587.8438,42.0938 587.7188,42.1094 587.5625,42.2031 C587.3125,42.3594 587.1563,42.6563 587.1563,42.9375 C587.1563,43.2188 587.2969,43.4688 587.5156,43.6406 C587.6719,43.75 587.8594,43.7813 588.2813,43.7813 L590,43.7813 L590,50.2969 L588.2813,50.2969 C587.8438,50.2969 587.7188,50.3125 587.5625,50.4219 C587.3125,50.5781 587.1563,50.8594 587.1563,51.1563 C587.1563,51.4063 587.2969,51.6719 587.5156,51.8281 C587.6719,51.9531 587.875,52 588.2813,52 L593.4219,52 C594.1719,52 594.5313,51.7188 594.5313,51.1563 C594.5313,50.875 594.4219,50.625 594.1875,50.4531 C594.0156,50.3281 593.875,50.2969 593.4219,50.2969 L591.7031,50.2969 L591.7031,43.7813 Z " fill="#000000"/><text fill="#000000" font-family="sans-serif" font-size="14" font-style="italic" lengthAdjust="spacing" textLength="44" x="611.25" y="51.8467">Bonus</text><line style="stroke:#181818;stroke-width:0.5;" x1="512" x2="722" y1="63" y2="63"/><rect fill="none" height="6" style="stroke:#C82930;stroke-width:1.0;" width="6" x="519" y="73.6484"/><text fill="#000000" font-family="sans-serif" font-size="14" lengthAdjust="spacing" textLength="151" x="531" y="79.9951">bonusInfo: BonusInfo</text><line style="stroke:#181818;stroke-width:0.5;" x1="512" x2="722" y1="87.2969" y2="87.2969"/><ellipse cx="522" cy="100.9453" fill="#84BE84" rx="3" ry="3" style="stroke:#038048;stroke-width:1.0;"/><text fill="#000000" font-family="sans-serif" font-size="14" lengthAdjust="spacing" textLength="186" x="531" y="104.292">getBonusInfo(): BonusInfo</text></g><!--class Gestiones--><g id="elem_Gestiones"><rect codeLine="13" fill="#F1F1F1" height="129.4844" id="Gestiones" rx="2.5" ry="2.5" style="stroke:#181818;stroke-width:0.5;" width="245" x="230.5" y="7"/><ellipse cx="312.75" cy="23" fill="#ADD1B2" rx="11" ry="11" style="stroke:#181818;stroke-width:1.0;"/><path d="M315.0938,18.6719 C314.1563,18.2344 313.5625,18.0938 312.6875,18.0938 C310.0625,18.0938 308.0625,20.1719 308.0625,22.8906 L308.0625,24.0156 C308.0625,26.5938 310.1719,28.4844 313.0625,28.4844 C314.2813,28.4844 315.4375,28.1875 316.1875,27.6406 C316.7656,27.2344 317.0938,26.7813 317.0938,26.3906 C317.0938,25.9375 316.7031,25.5469 316.2344,25.5469 C316.0156,25.5469 315.8125,25.625 315.625,25.8125 C315.1719,26.2969 315.1719,26.2969 314.9844,26.3906 C314.5625,26.6563 313.875,26.7813 313.1094,26.7813 C311.0625,26.7813 309.7656,25.6875 309.7656,23.9844 L309.7656,22.8906 C309.7656,21.1094 311.0156,19.7969 312.75,19.7969 C313.3281,19.7969 313.9375,19.9531 314.4063,20.2031 C314.8906,20.4844 315.0625,20.7031 315.1563,21.1094 C315.2188,21.5156 315.25,21.6406 315.3906,21.7656 C315.5313,21.9063 315.7656,22.0156 315.9844,22.0156 C316.25,22.0156 316.5156,21.875 316.6875,21.6563 C316.7969,21.5 316.8281,21.3125 316.8281,20.8906 L316.8281,19.4688 C316.8281,19.0313 316.8125,18.9063 316.7188,18.75 C316.5625,18.4844 316.2813,18.3438 315.9844,18.3438 C315.6875,18.3438 315.4844,18.4375 315.2656,18.75 L315.0938,18.6719 Z " fill="#000000"/><text fill="#000000" font-family="sans-serif" font-size="14" lengthAdjust="spacing" textLength="72" x="333.25" y="27.8467">Gestiones</text><line style="stroke:#181818;stroke-width:0.5;" x1="231.5" x2="474.5" y1="39" y2="39"/><rect fill="none" height="6" style="stroke:#C82930;stroke-width:1.0;" width="6" x="238.5" y="49.6484"/><text fill="#000000" font-family="sans-serif" font-size="14" lengthAdjust="spacing" textLength="182" x="250.5" y="55.9951">isAuthenticated: boolean</text><rect fill="none" height="6" style="stroke:#C82930;stroke-width:1.0;" width="6" x="238.5" y="65.9453"/><text fill="#000000" font-family="sans-serif" font-size="14" lengthAdjust="spacing" textLength="219" x="250.5" y="72.292">adminUsers: GestionarUsuarios</text><rect fill="none" height="6" style="stroke:#C82930;stroke-width:1.0;" width="6" x="238.5" y="82.2422"/><text fill="#000000" font-family="sans-serif" font-size="14" lengthAdjust="spacing" textLength="210" x="250.5" y="88.5889">adminBonus: GestionarBonos</text><line style="stroke:#181818;stroke-width:0.5;" x1="231.5" x2="474.5" y1="95.8906" y2="95.8906"/><ellipse cx="241.5" cy="109.5391" fill="#84BE84" rx="3" ry="3" style="stroke:#038048;stroke-width:1.0;"/><text fill="#000000" font-family="sans-serif" font-size="14" lengthAdjust="spacing" textLength="169" x="250.5" y="112.8857">goToAdminUsers(): void</text><ellipse cx="241.5" cy="125.8359" fill="#84BE84" rx="3" ry="3" style="stroke:#038048;stroke-width:1.0;"/><text fill="#000000" font-family="sans-serif" font-size="14" lengthAdjust="spacing" textLength="174" x="250.5" y="129.1826">goToAdminBonus(): void</text></g><!--class GestionarUsuarios--><g id="elem_GestionarUsuarios"><rect codeLine="22" fill="#F1F1F1" height="145.7813" id="GestionarUsuarios" rx="2.5" ry="2.5" style="stroke:#181818;stroke-width:0.5;" width="253" x="30.5" y="196"/><ellipse cx="88.75" cy="212" fill="#ADD1B2" rx="11" ry="11" style="stroke:#181818;stroke-width:1.0;"/><path d="M91.0938,207.6719 C90.1563,207.2344 89.5625,207.0938 88.6875,207.0938 C86.0625,207.0938 84.0625,209.1719 84.0625,211.8906 L84.0625,213.0156 C84.0625,215.5938 86.1719,217.4844 89.0625,217.4844 C90.2813,217.4844 91.4375,217.1875 92.1875,216.6406 C92.7656,216.2344 93.0938,215.7813 93.0938,215.3906 C93.0938,214.9375 92.7031,214.5469 92.2344,214.5469 C92.0156,214.5469 91.8125,214.625 91.625,214.8125 C91.1719,215.2969 91.1719,215.2969 90.9844,215.3906 C90.5625,215.6563 89.875,215.7813 89.1094,215.7813 C87.0625,215.7813 85.7656,214.6875 85.7656,212.9844 L85.7656,211.8906 C85.7656,210.1094 87.0156,208.7969 88.75,208.7969 C89.3281,208.7969 89.9375,208.9531 90.4063,209.2031 C90.8906,209.4844 91.0625,209.7031 91.1563,210.1094 C91.2188,210.5156 91.25,210.6406 91.3906,210.7656 C91.5313,210.9063 91.7656,211.0156 91.9844,211.0156 C92.25,211.0156 92.5156,210.875 92.6875,210.6563 C92.7969,210.5 92.8281,210.3125 92.8281,209.8906 L92.8281,208.4688 C92.8281,208.0313 92.8125,207.9063 92.7188,207.75 C92.5625,207.4844 92.2813,207.3438 91.9844,207.3438 C91.6875,207.3438 91.4844,207.4375 91.2656,207.75 L91.0938,207.6719 Z " fill="#000000"/><text fill="#000000" font-family="sans-serif" font-size="14" lengthAdjust="spacing" textLength="128" x="109.25" y="216.8467">GestionarUsuarios</text><line style="stroke:#181818;stroke-width:0.5;" x1="31.5" x2="282.5" y1="228" y2="228"/><rect fill="none" height="6" style="stroke:#C82930;stroke-width:1.0;" width="6" x="38.5" y="238.6484"/><text fill="#000000" font-family="sans-serif" font-size="14" lengthAdjust="spacing" textLength="148" x="50.5" y="244.9951">users: Object&lt;User&gt;</text><line style="stroke:#181818;stroke-width:0.5;" x1="31.5" x2="282.5" y1="252.2969" y2="252.2969"/><ellipse cx="41.5" cy="265.9453" fill="#84BE84" rx="3" ry="3" style="stroke:#038048;stroke-width:1.0;"/><text fill="#000000" font-family="sans-serif" font-size="14" lengthAdjust="spacing" textLength="123" x="50.5" y="269.292">showUsers(): void</text><ellipse cx="41.5" cy="282.2422" fill="#84BE84" rx="3" ry="3" style="stroke:#038048;stroke-width:1.0;"/><text fill="#000000" font-family="sans-serif" font-size="14" lengthAdjust="spacing" textLength="176" x="50.5" y="285.5889">addUser(user: User): void</text><ellipse cx="41.5" cy="298.5391" fill="#84BE84" rx="3" ry="3" style="stroke:#038048;stroke-width:1.0;"/><text fill="#000000" font-family="sans-serif" font-size="14" lengthAdjust="spacing" textLength="179" x="50.5" y="301.8857">editUser(user: User): void</text><ellipse cx="41.5" cy="314.8359" fill="#84BE84" rx="3" ry="3" style="stroke:#038048;stroke-width:1.0;"/><text fill="#000000" font-family="sans-serif" font-size="14" lengthAdjust="spacing" textLength="227" x="50.5" y="318.1826">deactivateUser(user: User): void</text><ellipse cx="41.5" cy="331.1328" fill="#84BE84" rx="3" ry="3" style="stroke:#038048;stroke-width:1.0;"/><text fill="#000000" font-family="sans-serif" font-size="14" lengthAdjust="spacing" textLength="197" x="50.5" y="334.4795">deleteUser(user: User): void</text></g><!--class GestionarBonos--><g id="elem_GestionarBonos"><rect codeLine="32" fill="#F1F1F1" height="113.1875" id="GestionarBonos" rx="2.5" ry="2.5" style="stroke:#181818;stroke-width:0.5;" width="260" x="431" y="212.5"/><ellipse cx="499.75" cy="228.5" fill="#ADD1B2" rx="11" ry="11" style="stroke:#181818;stroke-width:1.0;"/><path d="M502.0938,224.1719 C501.1563,223.7344 500.5625,223.5938 499.6875,223.5938 C497.0625,223.5938 495.0625,225.6719 495.0625,228.3906 L495.0625,229.5156 C495.0625,232.0938 497.1719,233.9844 500.0625,233.9844 C501.2813,233.9844 502.4375,233.6875 503.1875,233.1406 C503.7656,232.7344 504.0938,232.2813 504.0938,231.8906 C504.0938,231.4375 503.7031,231.0469 503.2344,231.0469 C503.0156,231.0469 502.8125,231.125 502.625,231.3125 C502.1719,231.7969 502.1719,231.7969 501.9844,231.8906 C501.5625,232.1563 500.875,232.2813 500.1094,232.2813 C498.0625,232.2813 496.7656,231.1875 496.7656,229.4844 L496.7656,228.3906 C496.7656,226.6094 498.0156,225.2969 499.75,225.2969 C500.3281,225.2969 500.9375,225.4531 501.4063,225.7031 C501.8906,225.9844 502.0625,226.2031 502.1563,226.6094 C502.2188,227.0156 502.25,227.1406 502.3906,227.2656 C502.5313,227.4063 502.7656,227.5156 502.9844,227.5156 C503.25,227.5156 503.5156,227.375 503.6875,227.1563 C503.7969,227 503.8281,226.8125 503.8281,226.3906 L503.8281,224.9688 C503.8281,224.5313 503.8125,224.4063 503.7188,224.25 C503.5625,223.9844 503.2813,223.8438 502.9844,223.8438 C502.6875,223.8438 502.4844,223.9375 502.2656,224.25 L502.0938,224.1719 Z " fill="#000000"/><text fill="#000000" font-family="sans-serif" font-size="14" lengthAdjust="spacing" textLength="114" x="520.25" y="233.3467">GestionarBonos</text><line style="stroke:#181818;stroke-width:0.5;" x1="432" x2="690" y1="244.5" y2="244.5"/><rect fill="none" height="6" style="stroke:#C82930;stroke-width:1.0;" width="6" x="439" y="255.1484"/><text fill="#000000" font-family="sans-serif" font-size="14" lengthAdjust="spacing" textLength="182" x="451" y="261.4951">bonuses: Object&lt;Bonus&gt;</text><line style="stroke:#181818;stroke-width:0.5;" x1="432" x2="690" y1="268.7969" y2="268.7969"/><ellipse cx="442" cy="282.4453" fill="#84BE84" rx="3" ry="3" style="stroke:#038048;stroke-width:1.0;"/><text fill="#000000" font-family="sans-serif" font-size="14" lengthAdjust="spacing" textLength="144" x="451" y="285.792">showBonuses(): void</text><ellipse cx="442" cy="298.7422" fill="#84BE84" rx="3" ry="3" style="stroke:#038048;stroke-width:1.0;"/><text fill="#000000" font-family="sans-serif" font-size="14" lengthAdjust="spacing" textLength="234" x="451" y="302.0889">createBonus(bonus: Bonus): void</text><ellipse cx="442" cy="315.0391" fill="#84BE84" rx="3" ry="3" style="stroke:#038048;stroke-width:1.0;"/><text fill="#000000" font-family="sans-serif" font-size="14" lengthAdjust="spacing" textLength="216" x="451" y="318.3857">editBonus(bonus: Bonus): void</text></g><!--reverse link User to GestionarUsuarios--><g id="link_User_GestionarUsuarios"><path d="M117.289,129.366 C124.161,153.355 128.181,167.39 136.283,195.676 " fill="none" id="User-backto-GestionarUsuarios" style="stroke:#181818;stroke-width:1.0;stroke-dasharray:7.0,7.0;"/><polygon fill="none" points="112.332,112.062,111.521,131.0183,123.057,127.7137,112.332,112.062" style="stroke:#181818;stroke-width:1.0;"/></g><!--reverse link Bonus to GestionarBonos--><g id="link_Bonus_GestionarBonos"><path d="M600.7111,129.366 C592.4651,158.152 586.144,180.219 576.984,212.198 " fill="none" id="Bonus-backto-GestionarBonos" style="stroke:#181818;stroke-width:1.0;stroke-dasharray:7.0,7.0;"/><polygon fill="none" points="605.668,112.062,594.9431,127.7137,606.4791,131.0183,605.668,112.062" style="stroke:#181818;stroke-width:1.0;"/></g><!--link Gestiones to GestionarUsuarios--><g id="link_Gestiones_GestionarUsuarios"><path codeLine="40" d="M289.093,136.243 C269.991,155.298 253.1621,172.0838 233.5601,191.6358 " fill="none" id="Gestiones-to-GestionarUsuarios" style="stroke:#181818;stroke-width:1.0;"/><polygon fill="#181818" points="229.312,195.873,238.5089,192.3492,232.852,192.342,232.8593,186.6851,229.312,195.873" style="stroke:#181818;stroke-width:1.0;"/></g><!--link Gestiones to GestionarBonos--><g id="link_Gestiones_GestionarBonos"><path codeLine="41" d="M420.819,136.243 C446.901,160.757 472.078,184.4218 497.3,208.1278 " fill="none" id="Gestiones-to-GestionarBonos" style="stroke:#181818;stroke-width:1.0;"/><polygon fill="#181818" points="501.672,212.237,497.8535,203.1585,498.0287,208.8127,492.3745,208.9878,501.672,212.237" style="stroke:#181818;stroke-width:1.0;"/></g><!--SRC=[VLBBRiCW4BpxApYcglm3LXKflbGzzT9y08PDivKD5OlJGzL_xmB5-57djkmCipCBQ3ouYrGWpWHEV5T2r6BayiLSR1EReQgu_oZUmUV6uM46_bGLJZgjDIFz2NMXJafjBYUfgHEq2inYgfT4uXd8epMGnP1Eex-2yQYa1zsmkkr1cWXAFQ09XgZ95wKxqoWTMYgCE6R6u7E4aoVxPa-JJd1riwYNK1IOeBNNCbBWyDd3m6vflLcU_zfzWF9F0JZcwNIrNzl1KklGF8IBQUDp53JwEx06gJpUU5jtIJti4hO1uyRcwJRl3ILWn1O9syHOP5GEs6BQR9SUA1xMIVSPRBFybhe-_lC5Tl0OvnS0]--></g></svg>