<svg xmlns="http://www.w3.org/2000/svg" xmlns:xlink="http://www.w3.org/1999/xlink" contentStyleType="text/css" height="826px" preserveAspectRatio="none" style="width:637px;height:826px;background:#FFFFFF;" version="1.1" viewBox="0 0 637 826" width="637px" zoomAndPan="magnify"><defs/><g><text fill="#000000" font-family="sans-serif" font-size="14" font-weight="bold" lengthAdjust="spacing" textLength="198" x="212.5" y="22.9951">Actualizar Bonos (Admin)</text><ellipse cx="215" cy="53.2969" fill="#222222" rx="10" ry="10" style="stroke:#222222;stroke-width:1.0;"/><g id="Inicio"><rect fill="#F1F1F1" height="50" rx="12.5" ry="12.5" style="stroke:#181818;stroke-width:0.5;" width="55" x="187.5" y="158.2969"/><line style="stroke:#181818;stroke-width:0.5;" x1="187.5" x2="242.5" y1="184.5938" y2="184.5938"/><text fill="#000000" font-family="sans-serif" font-size="14" lengthAdjust="spacing" textLength="35" x="197.5" y="176.292">Inicio</text></g><g id="ListaDeBonos"><rect fill="#F1F1F1" height="50" rx="12.5" ry="12.5" style="stroke:#181818;stroke-width:0.5;" width="116" x="157" y="318.2969"/><line style="stroke:#181818;stroke-width:0.5;" x1="157" x2="273" y1="344.5938" y2="344.5938"/><text fill="#000000" font-family="sans-serif" font-size="14" lengthAdjust="spacing" textLength="96" x="167" y="336.292">ListaDeBonos</text></g><g id="EditarBonos"><rect fill="#F1F1F1" height="50" rx="12.5" ry="12.5" style="stroke:#181818;stroke-width:0.5;" width="104" x="7" y="478.2969"/><line style="stroke:#181818;stroke-width:0.5;" x1="7" x2="111" y1="504.5938" y2="504.5938"/><text fill="#000000" font-family="sans-serif" font-size="14" lengthAdjust="spacing" textLength="84" x="17" y="496.292">EditarBonos</text></g><g id="BonosActualizados"><rect fill="#F1F1F1" height="50" rx="12.5" ry="12.5" style="stroke:#181818;stroke-width:0.5;" width="152" x="135" y="638.2969"/><line style="stroke:#181818;stroke-width:0.5;" x1="135" x2="287" y1="664.5938" y2="664.5938"/><text fill="#000000" font-family="sans-serif" font-size="14" lengthAdjust="spacing" textLength="132" x="145" y="656.292">BonosActualizados</text></g><ellipse cx="211" cy="809.2969" fill="none" rx="11" ry="11" style="stroke:#222222;stroke-width:1.0;"/><ellipse cx="211" cy="809.2969" fill="#222222" rx="6" ry="6" style="stroke:#222222;stroke-width:1.0;"/><!--link *start* to Inicio--><g id="link_*start*_Inicio"><path d="M215,63.5069 C215,83.0469 215,123.2569 215,151.9369 " fill="none" id="*start*-to-Inicio" style="stroke:#181818;stroke-width:1.0;"/><polygon fill="#181818" points="215,157.9369,219,148.9369,215,152.9369,211,148.9369,215,157.9369" style="stroke:#181818;stroke-width:1.0;"/><path d="M220,98.2969 L220,123.2969 L571,123.2969 L571,108.2969 L561,98.2969 L220,98.2969 " fill="#FEFFDD" style="stroke:#181818;stroke-width:0.5;"/><path d="M561,98.2969 L561,108.2969 L571,108.2969 L561,98.2969 " fill="#FEFFDD" style="stroke:#181818;stroke-width:0.5;"/><text fill="#000000" font-family="sans-serif" font-size="13" lengthAdjust="spacing" textLength="11" x="226" y="115.3638">El</text><text fill="#000000" font-family="sans-serif" font-size="13" font-weight="bold" lengthAdjust="spacing" textLength="104" x="241" y="115.3638">administrador</text><text fill="#000000" font-family="sans-serif" font-size="13" lengthAdjust="spacing" textLength="207" x="349" y="115.3638">accede desde la p&#225;gina de inicio</text></g><!--link Inicio to ListaDeBonos--><g id="link_Inicio_ListaDeBonos"><path d="M215,208.6369 C215,238.3269 215,282.2269 215,311.9269 " fill="none" id="Inicio-to-ListaDeBonos" style="stroke:#181818;stroke-width:1.0;"/><polygon fill="#181818" points="215,317.9269,219,308.9269,215,312.9269,211,308.9269,215,317.9269" style="stroke:#181818;stroke-width:1.0;"/><path d="M220,243.2969 L220,283.2969 L487,283.2969 L487,253.2969 L477,243.2969 L220,243.2969 " fill="#FEFFDD" style="stroke:#181818;stroke-width:0.5;"/><path d="M477,243.2969 L477,253.2969 L487,253.2969 L477,243.2969 " fill="#FEFFDD" style="stroke:#181818;stroke-width:0.5;"/><text fill="#000000" font-family="sans-serif" font-size="13" lengthAdjust="spacing" textLength="11" x="226" y="260.3638">El</text><text fill="#000000" font-family="sans-serif" font-size="13" font-weight="bold" lengthAdjust="spacing" textLength="104" x="241" y="260.3638">administrador</text><text fill="#000000" font-family="sans-serif" font-size="13" lengthAdjust="spacing" textLength="119" x="349" y="260.3638">accede a la opci&#243;n</text><text fill="#000000" font-family="sans-serif" font-size="13" lengthAdjust="spacing" textLength="149" x="226" y="275.4966">de ver la lista de Bonos</text></g><!--link ListaDeBonos to EditarBonos--><g id="link_ListaDeBonos_EditarBonos"><path d="M156.65,349.8569 C124.28,356.1969 86.36,369.6869 65,398.2969 C48.01,421.0469 48.6216,449.0872 52.4016,471.9572 " fill="none" id="ListaDeBonos-to-EditarBonos" style="stroke:#181818;stroke-width:1.0;"/><polygon fill="#181818" points="53.38,477.8769,55.8588,468.3451,52.5647,472.9438,47.9659,469.6496,53.38,477.8769" style="stroke:#181818;stroke-width:1.0;"/><path d="M70,403.2969 L70,443.2969 L337,443.2969 L337,413.2969 L327,403.2969 L70,403.2969 " fill="#FEFFDD" style="stroke:#181818;stroke-width:0.5;"/><path d="M327,403.2969 L327,413.2969 L337,413.2969 L327,403.2969 " fill="#FEFFDD" style="stroke:#181818;stroke-width:0.5;"/><text fill="#000000" font-family="sans-serif" font-size="13" lengthAdjust="spacing" textLength="11" x="76" y="420.3638">El</text><text fill="#000000" font-family="sans-serif" font-size="13" font-weight="bold" lengthAdjust="spacing" textLength="104" x="91" y="420.3638">administrador</text><text fill="#000000" font-family="sans-serif" font-size="13" lengthAdjust="spacing" textLength="123" x="199" y="420.3638">selecciona un bono</text><text fill="#000000" font-family="sans-serif" font-size="13" lengthAdjust="spacing" textLength="135" x="76" y="435.4966">de la lista para editar</text></g><!--link EditarBonos to BonosActualizados--><g id="link_EditarBonos_BonosActualizados"><path d="M49.25,528.5669 C41.83,551.3169 35.45,585.1969 52,608.2969 C71.02,634.8369 97.9767,647.178 128.8667,654.138 " fill="none" id="EditarBonos-to-BonosActualizados" style="stroke:#181818;stroke-width:1.0;"/><polygon fill="#181818" points="134.72,655.4569,126.8193,649.5765,129.8423,654.3578,125.0609,657.3808,134.72,655.4569" style="stroke:#181818;stroke-width:1.0;"/><path d="M57,563.2969 L57,603.2969 L337,603.2969 L337,573.2969 L327,563.2969 L57,563.2969 " fill="#FEFFDD" style="stroke:#181818;stroke-width:0.5;"/><path d="M327,563.2969 L327,573.2969 L337,573.2969 L327,563.2969 " fill="#FEFFDD" style="stroke:#181818;stroke-width:0.5;"/><text fill="#000000" font-family="sans-serif" font-size="13" lengthAdjust="spacing" textLength="11" x="63" y="580.3638">El</text><text fill="#000000" font-family="sans-serif" font-size="13" font-weight="bold" lengthAdjust="spacing" textLength="104" x="78" y="580.3638">administrador</text><text fill="#000000" font-family="sans-serif" font-size="13" lengthAdjust="spacing" textLength="136" x="186" y="580.3638">confirma los cambios</text><text fill="#000000" font-family="sans-serif" font-size="13" lengthAdjust="spacing" textLength="136" x="63" y="595.4966">realizados en el bono</text></g><!--link BonosActualizados to ListaDeBonos--><g id="link_BonosActualizados_ListaDeBonos"><path d="M287.36,648.8969 C310.03,640.9769 332.41,628.3669 346,608.2969 C398.33,531.0069 397.92,475.8569 346,398.2969 C329.72,373.9669 306.0465,362.1831 279.1965,354.8231 " fill="none" id="BonosActualizados-to-ListaDeBonos" style="stroke:#181818;stroke-width:1.0;"/><polygon fill="#181818" points="273.41,353.2369,281.0324,359.4738,278.2321,354.5587,283.1473,351.7585,273.41,353.2369" style="stroke:#181818;stroke-width:1.0;"/><path d="M390,483.2969 L390,523.2969 L630,523.2969 L630,493.2969 L620,483.2969 L390,483.2969 " fill="#FEFFDD" style="stroke:#181818;stroke-width:0.5;"/><path d="M620,483.2969 L620,493.2969 L630,493.2969 L620,483.2969 " fill="#FEFFDD" style="stroke:#181818;stroke-width:0.5;"/><text fill="#000000" font-family="sans-serif" font-size="13" lengthAdjust="spacing" textLength="11" x="396" y="500.3638">El</text><text fill="#000000" font-family="sans-serif" font-size="13" font-weight="bold" lengthAdjust="spacing" textLength="104" x="411" y="500.3638">administrador</text><text fill="#000000" font-family="sans-serif" font-size="13" lengthAdjust="spacing" textLength="96" x="519" y="500.3638">elige actualizar</text><text fill="#000000" font-family="sans-serif" font-size="13" lengthAdjust="spacing" textLength="62" x="396" y="515.4966">otro bono</text></g><!--link BonosActualizados to *end*--><g id="link_BonosActualizados_*end*"><path d="M211,688.7269 C211,720.6569 211,769.1969 211,791.9069 " fill="none" id="BonosActualizados-to-*end*" style="stroke:#181818;stroke-width:1.0;"/><polygon fill="#181818" points="211,797.9069,215,788.9069,211,792.9069,207,788.9069,211,797.9069" style="stroke:#181818;stroke-width:1.0;"/><path d="M216,723.2969 L216,763.2969 L474,763.2969 L474,733.2969 L464,723.2969 L216,723.2969 " fill="#FEFFDD" style="stroke:#181818;stroke-width:0.5;"/><path d="M464,723.2969 L464,733.2969 L474,733.2969 L464,723.2969 " fill="#FEFFDD" style="stroke:#181818;stroke-width:0.5;"/><text fill="#000000" font-family="sans-serif" font-size="13" lengthAdjust="spacing" textLength="11" x="222" y="740.3638">El</text><text fill="#000000" font-family="sans-serif" font-size="13" font-weight="bold" lengthAdjust="spacing" textLength="104" x="237" y="740.3638">administrador</text><text fill="#000000" font-family="sans-serif" font-size="13" lengthAdjust="spacing" textLength="114" x="345" y="740.3638">finaliza el proceso</text><text fill="#000000" font-family="sans-serif" font-size="13" lengthAdjust="spacing" textLength="166" x="222" y="755.4966">de actualizaci&#243;n de bonos</text></g><!--SRC=[bP91JiGm34NtEOMNK6ckW3I8MI1n0yJ2JJp58dKgDyE2st06ZZ0Nmqb4wMWsdKtKMF5_t_tEd2F1tkSJHlv2XSSaQOQxVHXPxfrxxTvWjtk0Ps7FoKdA1Ch3UuOa45a-71mYT1sMzpndnP2qwm2zfq0GQBOp8apdxu45hG3Sf4W253ddcdR5l9W4Fb4pSJCD2obDdiy_0gwmFabBBHRPSg_2A_G5hnWu1CwexTbc_4oHl8rWyvq4Uckky0KyeI9GLLwnLwYAhbzB4k4M0px9aNKqdcbv77ksRb3wKm8IeDYS_Hku0bv5iDq1HHuiW6MF7AIiQHlHTcmxw6XRL9hBF9CcJtFxsGkwfM-L_YBhNm00]--></g></svg>