<?xml version="1.0" encoding="us-ascii" standalone="no"?><svg xmlns="http://www.w3.org/2000/svg" xmlns:xlink="http://www.w3.org/1999/xlink" contentStyleType="text/css" height="660px" preserveAspectRatio="none" style="width:810px;height:660px;background:#FFFFFF;" version="1.1" viewBox="0 0 810 660" width="810px" zoomAndPan="magnify"><defs/><g><text fill="#000000" font-family="sans-serif" font-size="14" font-weight="bold" lengthAdjust="spacing" textLength="198" x="299" y="22.9951">Actualizar Bonos (Admin)</text><ellipse cx="458" cy="53.2969" fill="#222222" rx="10" ry="10" style="stroke:#222222;stroke-width:1.0;"/><g id="Inicio"><rect fill="#F1F1F1" height="50" rx="12.5" ry="12.5" style="stroke:#181818;stroke-width:0.5;" width="55" x="430.5" y="124.2969"/><line style="stroke:#181818;stroke-width:0.5;" x1="430.5" x2="485.5" y1="150.5938" y2="150.5938"/><text fill="#000000" font-family="sans-serif" font-size="14" lengthAdjust="spacing" textLength="35" x="440.5" y="142.292">Inicio</text></g><g id="elem_GMN5"><path d="M59,136.7269 L59,161.8597 A0,0 0 0 0 59,161.8597 L395,161.8597 A0,0 0 0 0 395,161.8597 L395,154.7269 L430.07,149.2969 L395,146.7269 L395,146.7269 L385,136.7269 L59,136.7269 A0,0 0 0 0 59,136.7269 " fill="#FEFFDD" style="stroke:#181818;stroke-width:0.5;"/><path d="M385,136.7269 L385,146.7269 L395,146.7269 L385,136.7269 " fill="#FEFFDD" style="stroke:#181818;stroke-width:0.5;"/><text fill="#000000" font-family="sans-serif" font-size="13" lengthAdjust="spacing" textLength="315" x="65" y="153.7938">El administrador accede desde la p&#225;gina de inicio</text></g><g id="ListaDeBonos"><rect fill="#F1F1F1" height="50" rx="12.5" ry="12.5" style="stroke:#181818;stroke-width:0.5;" width="116" x="400" y="251.2969"/><line style="stroke:#181818;stroke-width:0.5;" x1="400" x2="516" y1="277.5938" y2="277.5938"/><text fill="#000000" font-family="sans-serif" font-size="14" lengthAdjust="spacing" textLength="96" x="410" y="269.292">ListaDeBonos</text></g><g id="EditarBonos"><rect fill="#F1F1F1" height="50" rx="12.5" ry="12.5" style="stroke:#181818;stroke-width:0.5;" width="104" x="335" y="378.2969"/><line style="stroke:#181818;stroke-width:0.5;" x1="335" x2="439" y1="404.5938" y2="404.5938"/><text fill="#000000" font-family="sans-serif" font-size="14" lengthAdjust="spacing" textLength="84" x="345" y="396.292">EditarBonos</text></g><g id="elem_GMN12"><path d="M551,256.1669 L551,272.2969 L516.17,276.2969 L551,280.2969 L551,296.4325 A0,0 0 0 0 551,296.4325 L803,296.4325 A0,0 0 0 0 803,296.4325 L803,266.1669 L793,256.1669 L551,256.1669 A0,0 0 0 0 551,256.1669 " fill="#FEFFDD" style="stroke:#181818;stroke-width:0.5;"/><path d="M793,256.1669 L793,266.1669 L803,266.1669 L793,256.1669 " fill="#FEFFDD" style="stroke:#181818;stroke-width:0.5;"/><text fill="#000000" font-family="sans-serif" font-size="13" lengthAdjust="spacing" textLength="227" x="557" y="273.2338">El administrador accede a la opci&#243;n</text><text fill="#000000" font-family="sans-serif" font-size="13" lengthAdjust="spacing" textLength="149" x="557" y="288.3666">de ver la lista de Bonos</text></g><g id="BonosActualizados"><rect fill="#F1F1F1" height="50" rx="12.5" ry="12.5" style="stroke:#181818;stroke-width:0.5;" width="152" x="382" y="505.2969"/><line style="stroke:#181818;stroke-width:0.5;" x1="382" x2="534" y1="531.5938" y2="531.5938"/><text fill="#000000" font-family="sans-serif" font-size="14" lengthAdjust="spacing" textLength="132" x="392" y="523.292">BonosActualizados</text></g><g id="elem_GMN17"><path d="M6,383.1669 L6,423.4325 A0,0 0 0 0 6,423.4325 L300,423.4325 A0,0 0 0 0 300,423.4325 L300,407.2969 L334.76,403.2969 L300,399.2969 L300,393.1669 L290,383.1669 L6,383.1669 A0,0 0 0 0 6,383.1669 " fill="#FEFFDD" style="stroke:#181818;stroke-width:0.5;"/><path d="M290,383.1669 L290,393.1669 L300,393.1669 L290,383.1669 " fill="#FEFFDD" style="stroke:#181818;stroke-width:0.5;"/><text fill="#000000" font-family="sans-serif" font-size="13" lengthAdjust="spacing" textLength="227" x="12" y="400.2338">El administrador accede a la opci&#243;n</text><text fill="#000000" font-family="sans-serif" font-size="13" lengthAdjust="spacing" textLength="273" x="12" y="415.3666">de editar los bonos creados anteriormente</text></g><ellipse cx="458" cy="643.2969" fill="none" rx="11" ry="11" style="stroke:#222222;stroke-width:1.0;"/><ellipse cx="458" cy="643.2969" fill="#222222" rx="6" ry="6" style="stroke:#222222;stroke-width:1.0;"/><!--link *start* to Inicio--><g id="link_*start*_Inicio"><path d="M458,63.6569 C458,77.5869 458,98.2469 458,117.9469 " fill="none" id="*start*-to-Inicio" style="stroke:#181818;stroke-width:1.0;"/><polygon fill="#181818" points="458,123.9469,462,114.9469,458,118.9469,454,114.9469,458,123.9469" style="stroke:#181818;stroke-width:1.0;"/></g><!--link Inicio to ListaDeBonos--><g id="link_Inicio_ListaDeBonos"><path d="M458,174.6969 C458,196.7169 458,222.9569 458,244.9569 " fill="none" id="Inicio-to-ListaDeBonos" style="stroke:#181818;stroke-width:1.0;"/><polygon fill="#181818" points="458,250.9569,462,241.9569,458,245.9569,454,241.9569,458,250.9569" style="stroke:#181818;stroke-width:1.0;"/><text fill="#000000" font-family="sans-serif" font-size="13" lengthAdjust="spacing" textLength="87" x="459" y="217.3638">Cargar Bonos</text></g><!--link ListaDeBonos to EditarBonos--><g id="link_ListaDeBonos_EditarBonos"><path d="M418.48,301.7569 C408.52,309.8969 398.97,319.8469 393,331.2969 C385.56,345.5569 383.967,357.6391 384.357,371.9891 " fill="none" id="ListaDeBonos-to-EditarBonos" style="stroke:#181818;stroke-width:1.0;"/><polygon fill="#181818" points="384.52,377.9869,388.274,368.8815,384.3842,372.9887,380.277,369.0989,384.52,377.9869" style="stroke:#181818;stroke-width:1.0;"/><text fill="#000000" font-family="sans-serif" font-size="13" lengthAdjust="spacing" textLength="111" x="394" y="344.3638">Seleccionar Bono</text></g><!--link EditarBonos to BonosActualizados--><g id="link_EditarBonos_BonosActualizados"><path d="M378.68,428.5969 C375.24,442.9469 373.58,461.0269 381,475.2969 C387.18,487.1769 392.4291,493.4834 403.3291,501.3234 " fill="none" id="EditarBonos-to-BonosActualizados" style="stroke:#181818;stroke-width:1.0;"/><polygon fill="#181818" points="408.2,504.8269,403.2293,496.3244,404.1409,501.9073,398.558,502.8189,408.2,504.8269" style="stroke:#181818;stroke-width:1.0;"/><text fill="#000000" font-family="sans-serif" font-size="13" lengthAdjust="spacing" textLength="123" x="382" y="471.3638">Confirmar Cambios</text></g><!--link BonosActualizados to ListaDeBonos--><g id="link_BonosActualizados_ListaDeBonos"><path d="M489.17,504.8769 C497.55,496.4969 505.52,486.4069 510,475.2969 C533.93,415.9369 533.93,390.6569 510,331.2969 C505.52,320.1869 501.7926,314.3395 493.4126,305.9595 " fill="none" id="BonosActualizados-to-ListaDeBonos" style="stroke:#181818;stroke-width:1.0;"/><polygon fill="#181818" points="489.17,301.7169,492.7055,310.9093,492.7055,305.2524,498.3624,305.2524,489.17,301.7169" style="stroke:#181818;stroke-width:1.0;"/><text fill="#000000" font-family="sans-serif" font-size="13" lengthAdjust="spacing" textLength="95" x="529" y="407.8638">Actualizar Otro</text></g><!--link BonosActualizados to *end*--><g id="link_BonosActualizados_*end*"><path d="M458,555.6569 C458,579.5269 458,608.7569 458,626.0069 " fill="none" id="BonosActualizados-to-*end*" style="stroke:#181818;stroke-width:1.0;"/><polygon fill="#181818" points="458,632.0069,462,623.0069,458,627.0069,454,623.0069,458,632.0069" style="stroke:#181818;stroke-width:1.0;"/><text fill="#000000" font-family="sans-serif" font-size="13" lengthAdjust="spacing" textLength="52" x="459" y="598.3638">Finalizar</text></g><!--SRC=[bPAnJWCn343tV8L7GEeFT40gfKX8bHWO4OER-0vBEQVo1GR-Xc_W4_fZE0bNUe8Et10bZf_pualc70bMFhzYv7TKk4cIHhXOXO7bqjdtTFKCYyKrt0jxJavI9eZKPKZT58DD12m0Zran90NqdW91eD76YB0_VFGiQ07Wnf24KigvLgCUiJKURwafB66Dsaz6piqsI_OcS4QTaXyfahT2yaqqKUN-fPhEwFF2M6JJtlFXKopD8c-a9HOBNzRDvcX_Ab6awkpOpj3kaQHZ7KniZSEE3PyryRJ4VyoeSX0DsrNOAzKJKJ8f9nt89Z-gxhVR7qq_UGeFMTCPg3oA9TpPBwsfNm00]--></g></svg>