<svg xmlns="http://www.w3.org/2000/svg" xmlns:xlink="http://www.w3.org/1999/xlink" contentStyleType="text/css" height="826px" preserveAspectRatio="none" style="width:606px;height:826px;background:#FFFFFF;" version="1.1" viewBox="0 0 606 826" width="606px" zoomAndPan="magnify"><defs/><g><text fill="#000000" font-family="sans-serif" font-size="14" font-weight="bold" lengthAdjust="spacing" textLength="198" x="197" y="22.9951">Actualizar Bonos (Admin)</text><ellipse cx="207" cy="53.2969" fill="#222222" rx="10" ry="10" style="stroke:#222222;stroke-width:1.0;"/><g id="Inicio"><rect fill="#F1F1F1" height="50" rx="12.5" ry="12.5" style="stroke:#181818;stroke-width:0.5;" width="55" x="179.5" y="158.2969"/><line style="stroke:#181818;stroke-width:0.5;" x1="179.5" x2="234.5" y1="184.5938" y2="184.5938"/><text fill="#000000" font-family="sans-serif" font-size="14" lengthAdjust="spacing" textLength="35" x="189.5" y="176.292">Inicio</text></g><g id="ListaDeBonos"><rect fill="#F1F1F1" height="50" rx="12.5" ry="12.5" style="stroke:#181818;stroke-width:0.5;" width="116" x="149" y="318.2969"/><line style="stroke:#181818;stroke-width:0.5;" x1="149" x2="265" y1="344.5938" y2="344.5938"/><text fill="#000000" font-family="sans-serif" font-size="14" lengthAdjust="spacing" textLength="96" x="159" y="336.292">ListaDeBonos</text></g><g id="EditarBonos"><rect fill="#F1F1F1" height="50" rx="12.5" ry="12.5" style="stroke:#181818;stroke-width:0.5;" width="104" x="7" y="478.2969"/><line style="stroke:#181818;stroke-width:0.5;" x1="7" x2="111" y1="504.5938" y2="504.5938"/><text fill="#000000" font-family="sans-serif" font-size="14" lengthAdjust="spacing" textLength="84" x="17" y="496.292">EditarBonos</text></g><g id="BonosActualizados"><rect fill="#F1F1F1" height="50" rx="12.5" ry="12.5" style="stroke:#181818;stroke-width:0.5;" width="152" x="128" y="638.2969"/><line style="stroke:#181818;stroke-width:0.5;" x1="128" x2="280" y1="664.5938" y2="664.5938"/><text fill="#000000" font-family="sans-serif" font-size="14" lengthAdjust="spacing" textLength="132" x="138" y="656.292">BonosActualizados</text></g><ellipse cx="204" cy="809.2969" fill="none" rx="11" ry="11" style="stroke:#222222;stroke-width:1.0;"/><ellipse cx="204" cy="809.2969" fill="#222222" rx="6" ry="6" style="stroke:#222222;stroke-width:1.0;"/><!--link *start* to Inicio--><g id="link_*start*_Inicio"><path d="M207,63.5069 C207,83.0469 207,123.2569 207,151.9369 " fill="none" id="*start*-to-Inicio" style="stroke:#181818;stroke-width:1.0;"/><polygon fill="#181818" points="207,157.9369,211,148.9369,207,152.9369,203,148.9369,207,157.9369" style="stroke:#181818;stroke-width:1.0;"/><path d="M212,98.2969 L212,123.2969 L548,123.2969 L548,108.2969 L538,98.2969 L212,98.2969 " fill="#FEFFDD" style="stroke:#181818;stroke-width:0.5;"/><path d="M538,98.2969 L538,108.2969 L548,108.2969 L538,98.2969 " fill="#FEFFDD" style="stroke:#181818;stroke-width:0.5;"/><text fill="#000000" font-family="sans-serif" font-size="13" lengthAdjust="spacing" textLength="315" x="218" y="115.3638">El administrador accede desde la p&#225;gina de inicio</text></g><!--link Inicio to ListaDeBonos--><g id="link_Inicio_ListaDeBonos"><path d="M207,208.6369 C207,238.3269 207,282.2269 207,311.9269 " fill="none" id="Inicio-to-ListaDeBonos" style="stroke:#181818;stroke-width:1.0;"/><polygon fill="#181818" points="207,317.9269,211,308.9269,207,312.9269,203,308.9269,207,317.9269" style="stroke:#181818;stroke-width:1.0;"/><path d="M212,243.2969 L212,283.2969 L464,283.2969 L464,253.2969 L454,243.2969 L212,243.2969 " fill="#FEFFDD" style="stroke:#181818;stroke-width:0.5;"/><path d="M454,243.2969 L454,253.2969 L464,253.2969 L454,243.2969 " fill="#FEFFDD" style="stroke:#181818;stroke-width:0.5;"/><text fill="#000000" font-family="sans-serif" font-size="13" lengthAdjust="spacing" textLength="227" x="218" y="260.3638">El administrador accede a la opci&#243;n</text><text fill="#000000" font-family="sans-serif" font-size="13" lengthAdjust="spacing" textLength="149" x="218" y="275.4966">de ver la lista de Bonos</text></g><!--link ListaDeBonos to EditarBonos--><g id="link_ListaDeBonos_EditarBonos"><path d="M148.82,351.3569 C118.8,358.2069 84.49,371.7069 65,398.2969 C48.21,421.1969 48.7968,449.2047 52.5068,472.0147 " fill="none" id="ListaDeBonos-to-EditarBonos" style="stroke:#181818;stroke-width:1.0;"/><polygon fill="#181818" points="53.47,477.9369,55.9733,468.4115,52.6673,473.0017,48.077,469.6958,53.47,477.9369" style="stroke:#181818;stroke-width:1.0;"/><path d="M70,403.2969 L70,443.2969 L322,443.2969 L322,413.2969 L312,403.2969 L70,403.2969 " fill="#FEFFDD" style="stroke:#181818;stroke-width:0.5;"/><path d="M312,403.2969 L312,413.2969 L322,413.2969 L312,403.2969 " fill="#FEFFDD" style="stroke:#181818;stroke-width:0.5;"/><text fill="#000000" font-family="sans-serif" font-size="13" lengthAdjust="spacing" textLength="231" x="76" y="420.3638">El administrador selecciona un bono</text><text fill="#000000" font-family="sans-serif" font-size="13" lengthAdjust="spacing" textLength="135" x="76" y="435.4966">de la lista para editar</text></g><!--link EditarBonos to BonosActualizados--><g id="link_EditarBonos_BonosActualizados"><path d="M49.32,528.5169 C41.96,551.2269 35.61,585.0869 52,608.2969 C69.44,633.0069 93.4074,644.9892 122.0074,652.3092 " fill="none" id="EditarBonos-to-BonosActualizados" style="stroke:#181818;stroke-width:1.0;"/><polygon fill="#181818" points="127.82,653.7969,120.0929,647.6902,122.9761,652.5571,118.1092,655.4404,127.82,653.7969" style="stroke:#181818;stroke-width:1.0;"/><path d="M57,563.2969 L57,603.2969 L322,603.2969 L322,573.2969 L312,563.2969 L57,563.2969 " fill="#FEFFDD" style="stroke:#181818;stroke-width:0.5;"/><path d="M312,563.2969 L312,573.2969 L322,573.2969 L312,563.2969 " fill="#FEFFDD" style="stroke:#181818;stroke-width:0.5;"/><text fill="#000000" font-family="sans-serif" font-size="13" lengthAdjust="spacing" textLength="244" x="63" y="580.3638">El administrador confirma los cambios</text><text fill="#000000" font-family="sans-serif" font-size="13" lengthAdjust="spacing" textLength="136" x="63" y="595.4966">realizados en el bono</text></g><!--link BonosActualizados to ListaDeBonos--><g id="link_BonosActualizados_ListaDeBonos"><path d="M280.27,646.1769 C300.09,638.1569 319.17,626.1769 331,608.2969 C382.49,530.4469 382.15,476.3669 331,398.2969 C316.27,375.8069 295.6369,364.4265 270.9969,356.7265 " fill="none" id="BonosActualizados-to-ListaDeBonos" style="stroke:#181818;stroke-width:1.0;"/><polygon fill="#181818" points="265.27,354.9369,272.6672,361.4393,270.0424,356.4282,275.0534,353.8034,265.27,354.9369" style="stroke:#181818;stroke-width:1.0;"/><path d="M374,483.2969 L374,523.2969 L599,523.2969 L599,493.2969 L589,483.2969 L374,483.2969 " fill="#FEFFDD" style="stroke:#181818;stroke-width:0.5;"/><path d="M589,483.2969 L589,493.2969 L599,493.2969 L589,483.2969 " fill="#FEFFDD" style="stroke:#181818;stroke-width:0.5;"/><text fill="#000000" font-family="sans-serif" font-size="13" lengthAdjust="spacing" textLength="204" x="380" y="500.3638">El administrador elige actualizar</text><text fill="#000000" font-family="sans-serif" font-size="13" lengthAdjust="spacing" textLength="62" x="380" y="515.4966">otro bono</text></g><!--link BonosActualizados to *end*--><g id="link_BonosActualizados_*end*"><path d="M204,688.7269 C204,720.6569 204,769.1969 204,791.9069 " fill="none" id="BonosActualizados-to-*end*" style="stroke:#181818;stroke-width:1.0;"/><polygon fill="#181818" points="204,797.9069,208,788.9069,204,792.9069,200,788.9069,204,797.9069" style="stroke:#181818;stroke-width:1.0;"/><path d="M209,723.2969 L209,763.2969 L452,763.2969 L452,733.2969 L442,723.2969 L209,723.2969 " fill="#FEFFDD" style="stroke:#181818;stroke-width:0.5;"/><path d="M442,723.2969 L442,733.2969 L452,733.2969 L442,723.2969 " fill="#FEFFDD" style="stroke:#181818;stroke-width:0.5;"/><text fill="#000000" font-family="sans-serif" font-size="13" lengthAdjust="spacing" textLength="222" x="215" y="740.3638">El administrador finaliza el proceso</text><text fill="#000000" font-family="sans-serif" font-size="13" lengthAdjust="spacing" textLength="166" x="215" y="755.4966">de actualizaci&#243;n de bonos</text></g><!--SRC=[bT91JiGm30NGVKxX9I3D5P06CGiaRe1Ok8cdMAHEvMHOS1lEm17cOZY9A1tDfcogD4h-SvmKBf5Wxyi98t-YmaEIbE5c7oQMM-TUxbvXjxk79s7FoKag1ChZMu4a45dU7HmYO5tDkIY6f83UKo08bEqR4URpryY2DW7SOqW2r2ZdUcuZdYq07waNy2y9gv9cp-Tl0LUT3z8w5sja_M-XA_R2glWXS47jopRHcI9vAztETH8OR6E35tH6HQ2Mkd9NJ6FRQEb-s8hx94VMoIpByJWDR3j1wJS5I81Yh-eFlyAkshvDfyYZDNrvCmvIqRHDi_Uq3JdQYwaRwpbcJPvoR_32zjkscU7YRdy0]--></g></svg>