<?xml version="1.0" encoding="us-ascii" standalone="no"?><svg xmlns="http://www.w3.org/2000/svg" xmlns:xlink="http://www.w3.org/1999/xlink" contentStyleType="text/css" height="644px" preserveAspectRatio="none" style="width:683px;height:644px;background:#FFFFFF;" version="1.1" viewBox="0 0 683 644" width="683px" zoomAndPan="magnify"><defs/><g><text fill="#000000" font-family="sans-serif" font-size="14" font-weight="bold" lengthAdjust="spacing" textLength="170" x="249.5" y="22.9951">Borrar Bonos (Admin)</text><ellipse cx="367" cy="53.2969" fill="#222222" rx="10" ry="10" style="stroke:#222222;stroke-width:1.0;"/><g id="Inicio"><rect fill="#F1F1F1" height="50" rx="12.5" ry="12.5" style="stroke:#181818;stroke-width:0.5;" width="55" x="339.5" y="124.2969"/><line style="stroke:#181818;stroke-width:0.5;" x1="339.5" x2="394.5" y1="150.5938" y2="150.5938"/><text fill="#000000" font-family="sans-serif" font-size="14" lengthAdjust="spacing" textLength="35" x="349.5" y="142.292">Inicio</text></g><g id="elem_GMN5"><path d="M430,129.1669 L430,145.2969 L394.97,149.2969 L430,153.2969 L430,169.4325 A0,0 0 0 0 430,169.4325 L676,169.4325 A0,0 0 0 0 676,169.4325 L676,139.1669 L666,129.1669 L430,129.1669 A0,0 0 0 0 430,129.1669 " fill="#FEFFDD" style="stroke:#181818;stroke-width:0.5;"/><path d="M666,129.1669 L666,139.1669 L676,139.1669 L666,129.1669 " fill="#FEFFDD" style="stroke:#181818;stroke-width:0.5;"/><text fill="#000000" font-family="sans-serif" font-size="13" lengthAdjust="spacing" textLength="221" x="436" y="146.2338">El administrador empieza desde la</text><text fill="#000000" font-family="sans-serif" font-size="13" lengthAdjust="spacing" textLength="201" x="436" y="161.3666">p&#225;gina de inicio de la aplicaci&#243;n</text></g><g id="ListaDeBonos"><rect fill="#F1F1F1" height="50" rx="12.5" ry="12.5" style="stroke:#181818;stroke-width:0.5;" width="116" x="309" y="251.2969"/><line style="stroke:#181818;stroke-width:0.5;" x1="309" x2="425" y1="277.5938" y2="277.5938"/><text fill="#000000" font-family="sans-serif" font-size="14" lengthAdjust="spacing" textLength="96" x="319" y="269.292">ListaDeBonos</text></g><g id="ConfirmarBorrado"><rect fill="#F1F1F1" height="50" rx="12.5" ry="12.5" style="stroke:#181818;stroke-width:0.5;" width="141" x="225.5" y="378.2969"/><line style="stroke:#181818;stroke-width:0.5;" x1="225.5" x2="366.5" y1="404.5938" y2="404.5938"/><text fill="#000000" font-family="sans-serif" font-size="14" lengthAdjust="spacing" textLength="121" x="235.5" y="396.292">ConfirmarBorrado</text></g><g id="elem_GMN12"><path d="M6,256.1669 L6,296.4325 A0,0 0 0 0 6,296.4325 L274,296.4325 A0,0 0 0 0 274,296.4325 L274,280.2969 L308.72,276.2969 L274,272.2969 L274,266.1669 L264,256.1669 L6,256.1669 A0,0 0 0 0 6,256.1669 " fill="#FEFFDD" style="stroke:#181818;stroke-width:0.5;"/><path d="M264,256.1669 L264,266.1669 L274,266.1669 L264,256.1669 " fill="#FEFFDD" style="stroke:#181818;stroke-width:0.5;"/><text fill="#000000" font-family="sans-serif" font-size="13" lengthAdjust="spacing" textLength="247" x="12" y="273.2338">El administrador accede a la opci&#243;n de</text><text fill="#000000" font-family="sans-serif" font-size="13" lengthAdjust="spacing" textLength="224" x="12" y="288.3666">ver la lista de bonos que ha creado</text></g><g id="BonoBorrado"><rect fill="#F1F1F1" height="50" rx="12.5" ry="12.5" style="stroke:#181818;stroke-width:0.5;" width="112" x="310" y="489.2969"/><line style="stroke:#181818;stroke-width:0.5;" x1="310" x2="422" y1="515.5938" y2="515.5938"/><text fill="#000000" font-family="sans-serif" font-size="14" lengthAdjust="spacing" textLength="92" x="320" y="507.292">BonoBorrado</text></g><ellipse cx="366" cy="627.2969" fill="none" rx="11" ry="11" style="stroke:#222222;stroke-width:1.0;"/><ellipse cx="366" cy="627.2969" fill="#222222" rx="6" ry="6" style="stroke:#222222;stroke-width:1.0;"/><!--link *start* to Inicio--><g id="link_*start*_Inicio"><path d="M367,63.6569 C367,77.5869 367,98.2469 367,117.9469 " fill="none" id="*start*-to-Inicio" style="stroke:#181818;stroke-width:1.0;"/><polygon fill="#181818" points="367,123.9469,371,114.9469,367,118.9469,363,114.9469,367,123.9469" style="stroke:#181818;stroke-width:1.0;"/></g><!--link Inicio to ListaDeBonos--><g id="link_Inicio_ListaDeBonos"><path d="M367,174.6969 C367,196.7169 367,222.9569 367,244.9569 " fill="none" id="Inicio-to-ListaDeBonos" style="stroke:#181818;stroke-width:1.0;"/><polygon fill="#181818" points="367,250.9569,371,241.9569,367,245.9569,363,241.9569,367,250.9569" style="stroke:#181818;stroke-width:1.0;"/><text fill="#000000" font-family="sans-serif" font-size="13" lengthAdjust="spacing" textLength="87" x="368" y="217.3638">Cargar Bonos</text></g><!--link ListaDeBonos to ConfirmarBorrado--><g id="link_ListaDeBonos_ConfirmarBorrado"><path d="M322.84,301.7769 C312.52,309.7569 302.84,319.6269 297,331.2969 C289.83,345.6269 289.0142,357.7539 290.6142,372.0839 " fill="none" id="ListaDeBonos-to-ConfirmarBorrado" style="stroke:#181818;stroke-width:1.0;"/><polygon fill="#181818" points="291.28,378.0469,294.2566,368.6586,290.7252,373.0778,286.306,369.5463,291.28,378.0469" style="stroke:#181818;stroke-width:1.0;"/><text fill="#000000" font-family="sans-serif" font-size="13" lengthAdjust="spacing" textLength="111" x="298" y="344.3638">Seleccionar Bono</text></g><!--link ConfirmarBorrado to BonoBorrado--><g id="link_ConfirmarBorrado_BonoBorrado"><path d="M311.71,428.7569 C323.24,446.7069 335.5887,465.9377 347.0987,483.8677 " fill="none" id="ConfirmarBorrado-to-BonoBorrado" style="stroke:#181818;stroke-width:1.0;"/><polygon fill="#181818" points="350.34,488.9169,348.8442,479.1823,347.6389,484.7092,342.112,483.504,350.34,488.9169" style="stroke:#181818;stroke-width:1.0;"/></g><!--link BonoBorrado to ListaDeBonos--><g id="link_BonoBorrado_ListaDeBonos"><path d="M381.8,488.9669 C402.69,453.6069 434.56,386.2369 414,331.2969 C409.91,320.3569 406.5228,314.6004 398.7628,306.0904 " fill="none" id="BonoBorrado-to-ListaDeBonos" style="stroke:#181818;stroke-width:1.0;"/><polygon fill="#181818" points="394.72,301.6569,397.8285,311.0023,398.089,305.3515,403.7398,305.612,394.72,301.6569" style="stroke:#181818;stroke-width:1.0;"/><text fill="#000000" font-family="sans-serif" font-size="13" lengthAdjust="spacing" textLength="72" x="422" y="407.8638">Borrar Otro</text></g><!--link BonoBorrado to *end*--><g id="link_BonoBorrado_*end*"><path d="M366,539.6569 C366,563.5269 366,592.7569 366,610.0069 " fill="none" id="BonoBorrado-to-*end*" style="stroke:#181818;stroke-width:1.0;"/><polygon fill="#181818" points="366,616.0069,370,607.0069,366,611.0069,362,607.0069,366,616.0069" style="stroke:#181818;stroke-width:1.0;"/><text fill="#000000" font-family="sans-serif" font-size="13" lengthAdjust="spacing" textLength="52" x="367" y="582.3638">Finalizar</text></g><!--SRC=[RP51JWCn34NtFeMNWDGBT5492aX8I5smH2pSn3Erb4a6Js3Hst06Zj2BDKwc4jMmIkBuV_-NPCc1yI6fafObfWblxlqWyHRW_Uu3LwiDlaHnaY2cpAZI7pAcxb9y2aZMBbDMyacHXr7uIEXvyeo14CRJJo_HAYXLXEs2nY2Ed9n-8t3qQFu0pRVEVIsczCWjrHgtfFqb9C3LfNLlK-n41z8AurDHl75WLzpYB6i8WRjASEMm127dk0GbYvh66hC4XszMgmGJ6yY-oZ-_60-4JhbeZQR1B39PK1iud-7F_Z_a-LzsMPUjzZjhV2ul6-H8UWO0]--></g></svg>