<svg xmlns="http://www.w3.org/2000/svg" xmlns:xlink="http://www.w3.org/1999/xlink" contentStyleType="text/css" height="792px" preserveAspectRatio="none" style="width:728px;height:792px;background:#FFFFFF;" version="1.1" viewBox="0 0 728 792" width="728px" zoomAndPan="magnify"><defs/><g><text fill="#000000" font-family="sans-serif" font-size="14" font-weight="bold" lengthAdjust="spacing" textLength="170" x="272.25" y="22.9951">Borrar Bonos (Admin)</text><ellipse cx="243.5" cy="53.2969" fill="#222222" rx="10" ry="10" style="stroke:#222222;stroke-width:1.0;"/><g id="Inicio"><rect fill="#F1F1F1" height="50" rx="12.5" ry="12.5" style="stroke:#181818;stroke-width:0.5;" width="55" x="216" y="173.2969"/><line style="stroke:#181818;stroke-width:0.5;" x1="216" x2="271" y1="199.5938" y2="199.5938"/><text fill="#000000" font-family="sans-serif" font-size="14" lengthAdjust="spacing" textLength="35" x="226" y="191.292">Inicio</text></g><g id="ListaDeBonos"><rect fill="#F1F1F1" height="50" rx="12.5" ry="12.5" style="stroke:#181818;stroke-width:0.5;" width="116" x="185.5" y="284.2969"/><line style="stroke:#181818;stroke-width:0.5;" x1="185.5" x2="301.5" y1="310.5938" y2="310.5938"/><text fill="#000000" font-family="sans-serif" font-size="14" lengthAdjust="spacing" textLength="96" x="195.5" y="302.292">ListaDeBonos</text></g><g id="ConfirmarBorrado"><rect fill="#F1F1F1" height="50" rx="12.5" ry="12.5" style="stroke:#181818;stroke-width:0.5;" width="141" x="7" y="444.2969"/><line style="stroke:#181818;stroke-width:0.5;" x1="7" x2="148" y1="470.5938" y2="470.5938"/><text fill="#000000" font-family="sans-serif" font-size="14" lengthAdjust="spacing" textLength="121" x="17" y="462.292">ConfirmarBorrado</text></g><g id="BonoBorrado"><rect fill="#F1F1F1" height="50" rx="12.5" ry="12.5" style="stroke:#181818;stroke-width:0.5;" width="112" x="192.5" y="604.2969"/><line style="stroke:#181818;stroke-width:0.5;" x1="192.5" x2="304.5" y1="630.5938" y2="630.5938"/><text fill="#000000" font-family="sans-serif" font-size="14" lengthAdjust="spacing" textLength="92" x="202.5" y="622.292">BonoBorrado</text></g><ellipse cx="248.5" cy="775.2969" fill="none" rx="11" ry="11" style="stroke:#222222;stroke-width:1.0;"/><ellipse cx="248.5" cy="775.2969" fill="#222222" rx="6" ry="6" style="stroke:#222222;stroke-width:1.0;"/><!--link *start* to Inicio--><g id="link_*start*_Inicio"><path d="M243.5,63.6769 C243.5,85.6169 243.5,134.8169 243.5,166.9869 " fill="none" id="*start*-to-Inicio" style="stroke:#181818;stroke-width:1.0;"/><polygon fill="#181818" points="243.5,172.9869,247.5,163.9869,243.5,167.9869,239.5,163.9869,243.5,172.9869" style="stroke:#181818;stroke-width:1.0;"/><path d="M248.5,98.2969 L248.5,138.2969 L509.5,138.2969 L509.5,108.2969 L499.5,98.2969 L248.5,98.2969 " fill="#FEFFDD" style="stroke:#181818;stroke-width:0.5;"/><path d="M499.5,98.2969 L499.5,108.2969 L509.5,108.2969 L499.5,98.2969 " fill="#FEFFDD" style="stroke:#181818;stroke-width:0.5;"/><text fill="#000000" font-family="sans-serif" font-size="13" lengthAdjust="spacing" textLength="11" x="254.5" y="115.3638">El</text><text fill="#000000" font-family="sans-serif" font-size="13" font-weight="bold" lengthAdjust="spacing" textLength="104" x="269.5" y="115.3638">administrador</text><text fill="#000000" font-family="sans-serif" font-size="13" lengthAdjust="spacing" textLength="113" x="377.5" y="115.3638">empieza desde la</text><text fill="#000000" font-family="sans-serif" font-size="13" lengthAdjust="spacing" textLength="201" x="254.5" y="130.4966">p&#225;gina de inicio de la aplicaci&#243;n</text></g><!--link Inicio to ListaDeBonos--><g id="link_Inicio_ListaDeBonos"><path d="M243.5,223.7569 C243.5,241.7069 243.5,259.9869 243.5,277.9169 " fill="none" id="Inicio-to-ListaDeBonos" style="stroke:#181818;stroke-width:1.0;"/><polygon fill="#181818" points="243.5,283.9169,247.5,274.9169,243.5,278.9169,239.5,274.9169,243.5,283.9169" style="stroke:#181818;stroke-width:1.0;"/></g><!--link ListaDeBonos to ConfirmarBorrado--><g id="link_ListaDeBonos_ConfirmarBorrado"><path d="M185.3,311.5069 C145.7,315.7469 95.86,328.5169 69.5,364.2969 C52.64,387.1869 57.5294,415.4394 65.3294,438.2594 " fill="none" id="ListaDeBonos-to-ConfirmarBorrado" style="stroke:#181818;stroke-width:1.0;"/><polygon fill="#181818" points="67.27,443.9369,68.1441,434.1269,65.6528,439.2056,60.5741,436.7144,67.27,443.9369" style="stroke:#181818;stroke-width:1.0;"/><path d="M74.5,369.2969 L74.5,409.2969 L384.5,409.2969 L384.5,379.2969 L374.5,369.2969 L74.5,369.2969 " fill="#FEFFDD" style="stroke:#181818;stroke-width:0.5;"/><path d="M374.5,369.2969 L374.5,379.2969 L384.5,379.2969 L374.5,369.2969 " fill="#FEFFDD" style="stroke:#181818;stroke-width:0.5;"/><text fill="#000000" font-family="sans-serif" font-size="13" lengthAdjust="spacing" textLength="11" x="80.5" y="386.3638">El</text><text fill="#000000" font-family="sans-serif" font-size="13" font-weight="bold" lengthAdjust="spacing" textLength="104" x="95.5" y="386.3638">administrador</text><text fill="#000000" font-family="sans-serif" font-size="13" lengthAdjust="spacing" textLength="166" x="203.5" y="386.3638">accede a la lista de bonos</text><text fill="#000000" font-family="sans-serif" font-size="13" lengthAdjust="spacing" textLength="210" x="80.5" y="401.4966">y selecciona un bono para borrar</text></g><!--link ConfirmarBorrado to BonoBorrado--><g id="link_ConfirmarBorrado_BonoBorrado"><path d="M73.22,494.5069 C70.58,517.5369 70.57,551.9069 88.5,574.2969 C113.33,605.2969 150.7755,617.6678 186.1055,623.3278 " fill="none" id="ConfirmarBorrado-to-BonoBorrado" style="stroke:#181818;stroke-width:1.0;"/><polygon fill="#181818" points="192.03,624.2769,183.7761,618.9036,187.093,623.4859,182.5106,626.8028,192.03,624.2769" style="stroke:#181818;stroke-width:1.0;"/><path d="M93.5,529.2969 L93.5,569.2969 L384.5,569.2969 L384.5,539.2969 L374.5,529.2969 L93.5,529.2969 " fill="#FEFFDD" style="stroke:#181818;stroke-width:0.5;"/><path d="M374.5,529.2969 L374.5,539.2969 L384.5,539.2969 L374.5,529.2969 " fill="#FEFFDD" style="stroke:#181818;stroke-width:0.5;"/><text fill="#000000" font-family="sans-serif" font-size="13" lengthAdjust="spacing" textLength="11" x="99.5" y="546.3638">El</text><text fill="#000000" font-family="sans-serif" font-size="13" font-weight="bold" lengthAdjust="spacing" textLength="104" x="114.5" y="546.3638">administrador</text><text fill="#000000" font-family="sans-serif" font-size="13" lengthAdjust="spacing" textLength="147" x="222.5" y="546.3638">confirma la eliminaci&#243;n</text><text fill="#000000" font-family="sans-serif" font-size="13" lengthAdjust="spacing" textLength="142" x="99.5" y="561.4966">del bono seleccionado</text></g><!--link BonoBorrado to ListaDeBonos--><g id="link_BonoBorrado_ListaDeBonos"><path d="M304.82,622.7769 C336.5,616.4569 373.58,602.9769 393.5,574.2969 C446.75,497.6469 447.17,440.6569 393.5,364.2969 C372.81,334.8569 340.3475,322.5011 307.6075,316.3711 " fill="none" id="BonoBorrado-to-ListaDeBonos" style="stroke:#181818;stroke-width:1.0;"/><polygon fill="#181818" points="301.71,315.2669,309.8201,320.8549,306.6246,316.187,311.2924,312.9915,301.71,315.2669" style="stroke:#181818;stroke-width:1.0;"/><path d="M438.5,456.7969 L438.5,481.7969 L721.5,481.7969 L721.5,466.7969 L711.5,456.7969 L438.5,456.7969 " fill="#FEFFDD" style="stroke:#181818;stroke-width:0.5;"/><path d="M711.5,456.7969 L711.5,466.7969 L721.5,466.7969 L711.5,456.7969 " fill="#FEFFDD" style="stroke:#181818;stroke-width:0.5;"/><text fill="#000000" font-family="sans-serif" font-size="13" lengthAdjust="spacing" textLength="11" x="444.5" y="473.8638">El</text><text fill="#000000" font-family="sans-serif" font-size="13" font-weight="bold" lengthAdjust="spacing" textLength="104" x="459.5" y="473.8638">administrador</text><text fill="#000000" font-family="sans-serif" font-size="13" lengthAdjust="spacing" textLength="139" x="567.5" y="473.8638">elige borrar otro bono</text></g><!--link BonoBorrado to *end*--><g id="link_BonoBorrado_*end*"><path d="M248.5,654.7269 C248.5,686.6569 248.5,735.1969 248.5,757.9069 " fill="none" id="BonoBorrado-to-*end*" style="stroke:#181818;stroke-width:1.0;"/><polygon fill="#181818" points="248.5,763.9069,252.5,754.9069,248.5,758.9069,244.5,754.9069,248.5,763.9069" style="stroke:#181818;stroke-width:1.0;"/><path d="M253.5,689.2969 L253.5,729.2969 L531.5,729.2969 L531.5,699.2969 L521.5,689.2969 L253.5,689.2969 " fill="#FEFFDD" style="stroke:#181818;stroke-width:0.5;"/><path d="M521.5,689.2969 L521.5,699.2969 L531.5,699.2969 L521.5,689.2969 " fill="#FEFFDD" style="stroke:#181818;stroke-width:0.5;"/><text fill="#000000" font-family="sans-serif" font-size="13" lengthAdjust="spacing" textLength="11" x="259.5" y="706.3638">El</text><text fill="#000000" font-family="sans-serif" font-size="13" font-weight="bold" lengthAdjust="spacing" textLength="104" x="274.5" y="706.3638">administrador</text><text fill="#000000" font-family="sans-serif" font-size="13" lengthAdjust="spacing" textLength="134" x="382.5" y="706.3638">finaliza el proceso de</text><text fill="#000000" font-family="sans-serif" font-size="13" lengthAdjust="spacing" textLength="113" x="259.5" y="721.4966">borrado de bonos</text></g><!--SRC=[ZP9DJiGm34RtFeMNK6ckWCJV0eaR81QUn5CitBXAmuAv3MVW27CnuhGmbKP2NQM9e-yzEorIbF7ESgPSbsGJNjt6GT8rm4ltYhlT3Jub2MAGh31cwTyAMaALz0wFYbr7VbscaYbQxZhaOHG-4aQU8gCImdZwwYNv2KhBmhb0eqgW8AVl19mYEW5WnZNoSusb1svU0EjTAzzREaWUA3V_QBZPaKBWwa1keHxhHlk6-SI9bKDLgCOVgPtYI9dgbqzfPNh1TodNM_QRTS8Iv3giKelBL2BhB71sgh5dWnNiSc2R7qobvwKxj9Aj8V-X-8-nEVrGcr4vUcCuPWiy-VF3Vidxc_ilxWS0]--></g></svg>