<?xml version="1.0" encoding="us-ascii" standalone="no"?><svg xmlns="http://www.w3.org/2000/svg" xmlns:xlink="http://www.w3.org/1999/xlink" contentStyleType="text/css" height="644px" preserveAspectRatio="none" style="width:282px;height:644px;background:#FFFFFF;" version="1.1" viewBox="0 0 282 644" width="282px" zoomAndPan="magnify"><defs/><g><text fill="#000000" font-family="sans-serif" font-size="14" font-weight="bold" lengthAdjust="spacing" textLength="170" x="49.25" y="22.9951">Borrar Bonos (Admin)</text><ellipse cx="149.5" cy="53.2969" fill="#222222" rx="10" ry="10" style="stroke:#222222;stroke-width:1.0;"/><g id="Inicio"><rect fill="#F1F1F1" height="50" rx="12.5" ry="12.5" style="stroke:#181818;stroke-width:0.5;" width="55" x="122" y="124.2969"/><line style="stroke:#181818;stroke-width:0.5;" x1="122" x2="177" y1="150.5938" y2="150.5938"/><text fill="#000000" font-family="sans-serif" font-size="14" lengthAdjust="spacing" textLength="35" x="132" y="142.292">Inicio</text></g><g id="ListaDeBonos"><rect fill="#F1F1F1" height="50" rx="12.5" ry="12.5" style="stroke:#181818;stroke-width:0.5;" width="116" x="91.5" y="251.2969"/><line style="stroke:#181818;stroke-width:0.5;" x1="91.5" x2="207.5" y1="277.5938" y2="277.5938"/><text fill="#000000" font-family="sans-serif" font-size="14" lengthAdjust="spacing" textLength="96" x="101.5" y="269.292">ListaDeBonos</text></g><g id="ConfirmarBorrado"><rect fill="#F1F1F1" height="50" rx="12.5" ry="12.5" style="stroke:#181818;stroke-width:0.5;" width="141" x="7" y="378.2969"/><line style="stroke:#181818;stroke-width:0.5;" x1="7" x2="148" y1="404.5938" y2="404.5938"/><text fill="#000000" font-family="sans-serif" font-size="14" lengthAdjust="spacing" textLength="121" x="17" y="396.292">ConfirmarBorrado</text></g><g id="BonoBorrado"><rect fill="#F1F1F1" height="50" rx="12.5" ry="12.5" style="stroke:#181818;stroke-width:0.5;" width="112" x="91.5" y="489.2969"/><line style="stroke:#181818;stroke-width:0.5;" x1="91.5" x2="203.5" y1="515.5938" y2="515.5938"/><text fill="#000000" font-family="sans-serif" font-size="14" lengthAdjust="spacing" textLength="92" x="101.5" y="507.292">BonoBorrado</text></g><ellipse cx="147.5" cy="627.2969" fill="none" rx="11" ry="11" style="stroke:#222222;stroke-width:1.0;"/><ellipse cx="147.5" cy="627.2969" fill="#222222" rx="6" ry="6" style="stroke:#222222;stroke-width:1.0;"/><!--link *start* to Inicio--><g id="link_*start*_Inicio"><path d="M149.5,63.6569 C149.5,77.5869 149.5,98.2469 149.5,117.9469 " fill="none" id="*start*-to-Inicio" style="stroke:#181818;stroke-width:1.0;"/><polygon fill="#181818" points="149.5,123.9469,153.5,114.9469,149.5,118.9469,145.5,114.9469,149.5,123.9469" style="stroke:#181818;stroke-width:1.0;"/></g><!--link Inicio to ListaDeBonos--><g id="link_Inicio_ListaDeBonos"><path d="M149.5,174.6969 C149.5,196.7169 149.5,222.9569 149.5,244.9569 " fill="none" id="Inicio-to-ListaDeBonos" style="stroke:#181818;stroke-width:1.0;"/><polygon fill="#181818" points="149.5,250.9569,153.5,241.9569,149.5,245.9569,145.5,241.9569,149.5,250.9569" style="stroke:#181818;stroke-width:1.0;"/><text fill="#000000" font-family="sans-serif" font-size="13" lengthAdjust="spacing" textLength="87" x="150.5" y="217.3638">Cargar Bonos</text></g><!--link ListaDeBonos to ConfirmarBorrado--><g id="link_ListaDeBonos_ConfirmarBorrado"><path d="M104.72,301.6569 C94.25,309.6469 84.43,319.5469 78.5,331.2969 C71.28,345.6069 70.4747,357.7239 72.0747,372.0639 " fill="none" id="ListaDeBonos-to-ConfirmarBorrado" style="stroke:#181818;stroke-width:1.0;"/><polygon fill="#181818" points="72.74,378.0269,75.7173,368.6388,72.1856,373.0577,67.7667,369.5259,72.74,378.0269" style="stroke:#181818;stroke-width:1.0;"/><text fill="#000000" font-family="sans-serif" font-size="13" lengthAdjust="spacing" textLength="111" x="79.5" y="344.3638">Seleccionar Bono</text></g><!--link ConfirmarBorrado to BonoBorrado--><g id="link_ConfirmarBorrado_BonoBorrado"><path d="M93.21,428.7569 C104.74,446.7069 117.0887,465.9377 128.5987,483.8677 " fill="none" id="ConfirmarBorrado-to-BonoBorrado" style="stroke:#181818;stroke-width:1.0;"/><polygon fill="#181818" points="131.84,488.9169,130.3442,479.1823,129.1389,484.7092,123.612,483.504,131.84,488.9169" style="stroke:#181818;stroke-width:1.0;"/></g><!--link BonoBorrado to ListaDeBonos--><g id="link_BonoBorrado_ListaDeBonos"><path d="M163.23,488.9969 C184.01,453.6769 215.77,386.3369 195.5,331.2969 C191.5,320.4369 188.234,314.7444 180.634,306.2244 " fill="none" id="BonoBorrado-to-ListaDeBonos" style="stroke:#181818;stroke-width:1.0;"/><polygon fill="#181818" points="176.64,301.7469,179.646,311.1258,179.9683,305.4781,185.616,305.8004,176.64,301.7469" style="stroke:#181818;stroke-width:1.0;"/><text fill="#000000" font-family="sans-serif" font-size="13" lengthAdjust="spacing" textLength="72" x="202.5" y="407.8638">Borrar Otro</text></g><!--link BonoBorrado to *end*--><g id="link_BonoBorrado_*end*"><path d="M147.5,539.6569 C147.5,563.5269 147.5,592.7569 147.5,610.0069 " fill="none" id="BonoBorrado-to-*end*" style="stroke:#181818;stroke-width:1.0;"/><polygon fill="#181818" points="147.5,616.0069,151.5,607.0069,147.5,611.0069,143.5,607.0069,147.5,616.0069" style="stroke:#181818;stroke-width:1.0;"/><text fill="#000000" font-family="sans-serif" font-size="13" lengthAdjust="spacing" textLength="52" x="148.5" y="582.3638">Finalizar</text></g><!--SRC=[AyaioKbLSCelAaei0b9v-SKA6eufkPbvcbnSqLgn2hgwTWgUUPd9cVbS40eiufDPN9BeaWfHRwNWd5YK3jFEXI87KkoSdvUMMPIRM0Is9IKVg24uDISr6MXO7bGN5uOQa4QG39JFXSJ6vWAe1_nBYZ2LWhnXfU2McPUOarcLM0G0]--></g></svg>