<svg xmlns="http://www.w3.org/2000/svg" xmlns:xlink="http://www.w3.org/1999/xlink" contentStyleType="text/css" height="792px" preserveAspectRatio="none" style="width:697px;height:792px;background:#FFFFFF;" version="1.1" viewBox="0 0 697 792" width="697px" zoomAndPan="magnify"><defs/><g><text fill="#000000" font-family="sans-serif" font-size="14" font-weight="bold" lengthAdjust="spacing" textLength="170" x="256.75" y="22.9951">Borrar Bonos (Admin)</text><ellipse cx="236.5" cy="53.2969" fill="#222222" rx="10" ry="10" style="stroke:#222222;stroke-width:1.0;"/><g id="Inicio"><rect fill="#F1F1F1" height="50" rx="12.5" ry="12.5" style="stroke:#181818;stroke-width:0.5;" width="55" x="209" y="173.2969"/><line style="stroke:#181818;stroke-width:0.5;" x1="209" x2="264" y1="199.5938" y2="199.5938"/><text fill="#000000" font-family="sans-serif" font-size="14" lengthAdjust="spacing" textLength="35" x="219" y="191.292">Inicio</text></g><g id="ListaDeBonos"><rect fill="#F1F1F1" height="50" rx="12.5" ry="12.5" style="stroke:#181818;stroke-width:0.5;" width="116" x="178.5" y="284.2969"/><line style="stroke:#181818;stroke-width:0.5;" x1="178.5" x2="294.5" y1="310.5938" y2="310.5938"/><text fill="#000000" font-family="sans-serif" font-size="14" lengthAdjust="spacing" textLength="96" x="188.5" y="302.292">ListaDeBonos</text></g><g id="ConfirmarBorrado"><rect fill="#F1F1F1" height="50" rx="12.5" ry="12.5" style="stroke:#181818;stroke-width:0.5;" width="141" x="7" y="444.2969"/><line style="stroke:#181818;stroke-width:0.5;" x1="7" x2="148" y1="470.5938" y2="470.5938"/><text fill="#000000" font-family="sans-serif" font-size="14" lengthAdjust="spacing" textLength="121" x="17" y="462.292">ConfirmarBorrado</text></g><g id="BonoBorrado"><rect fill="#F1F1F1" height="50" rx="12.5" ry="12.5" style="stroke:#181818;stroke-width:0.5;" width="112" x="184.5" y="604.2969"/><line style="stroke:#181818;stroke-width:0.5;" x1="184.5" x2="296.5" y1="630.5938" y2="630.5938"/><text fill="#000000" font-family="sans-serif" font-size="14" lengthAdjust="spacing" textLength="92" x="194.5" y="622.292">BonoBorrado</text></g><ellipse cx="240.5" cy="775.2969" fill="none" rx="11" ry="11" style="stroke:#222222;stroke-width:1.0;"/><ellipse cx="240.5" cy="775.2969" fill="#222222" rx="6" ry="6" style="stroke:#222222;stroke-width:1.0;"/><!--link *start* to Inicio--><g id="link_*start*_Inicio"><path d="M236.5,63.6769 C236.5,85.6169 236.5,134.8169 236.5,166.9869 " fill="none" id="*start*-to-Inicio" style="stroke:#181818;stroke-width:1.0;"/><polygon fill="#181818" points="236.5,172.9869,240.5,163.9869,236.5,167.9869,232.5,163.9869,236.5,172.9869" style="stroke:#181818;stroke-width:1.0;"/><path d="M241.5,98.2969 L241.5,138.2969 L487.5,138.2969 L487.5,108.2969 L477.5,98.2969 L241.5,98.2969 " fill="#FEFFDD" style="stroke:#181818;stroke-width:0.5;"/><path d="M477.5,98.2969 L477.5,108.2969 L487.5,108.2969 L477.5,98.2969 " fill="#FEFFDD" style="stroke:#181818;stroke-width:0.5;"/><text fill="#000000" font-family="sans-serif" font-size="13" lengthAdjust="spacing" textLength="221" x="247.5" y="115.3638">El administrador empieza desde la</text><text fill="#000000" font-family="sans-serif" font-size="13" lengthAdjust="spacing" textLength="201" x="247.5" y="130.4966">p&#225;gina de inicio de la aplicaci&#243;n</text></g><!--link Inicio to ListaDeBonos--><g id="link_Inicio_ListaDeBonos"><path d="M236.5,223.7569 C236.5,241.7069 236.5,259.9869 236.5,277.9169 " fill="none" id="Inicio-to-ListaDeBonos" style="stroke:#181818;stroke-width:1.0;"/><polygon fill="#181818" points="236.5,283.9169,240.5,274.9169,236.5,278.9169,232.5,274.9169,236.5,283.9169" style="stroke:#181818;stroke-width:1.0;"/></g><!--link ListaDeBonos to ConfirmarBorrado--><g id="link_ListaDeBonos_ConfirmarBorrado"><path d="M178.12,312.5169 C140.5,317.3569 94.15,330.4169 69.5,364.2969 C52.77,387.2869 57.6353,415.5174 65.3953,438.2974 " fill="none" id="ListaDeBonos-to-ConfirmarBorrado" style="stroke:#181818;stroke-width:1.0;"/><polygon fill="#181818" points="67.33,443.9769,68.2143,434.1678,65.7177,439.2439,60.6416,436.7474,67.33,443.9769" style="stroke:#181818;stroke-width:1.0;"/><path d="M74.5,369.2969 L74.5,409.2969 L369.5,409.2969 L369.5,379.2969 L359.5,369.2969 L74.5,369.2969 " fill="#FEFFDD" style="stroke:#181818;stroke-width:0.5;"/><path d="M359.5,369.2969 L359.5,379.2969 L369.5,379.2969 L359.5,369.2969 " fill="#FEFFDD" style="stroke:#181818;stroke-width:0.5;"/><text fill="#000000" font-family="sans-serif" font-size="13" lengthAdjust="spacing" textLength="274" x="80.5" y="386.3638">El administrador accede a la lista de bonos</text><text fill="#000000" font-family="sans-serif" font-size="13" lengthAdjust="spacing" textLength="210" x="80.5" y="401.4966">y selecciona un bono para borrar</text></g><!--link ConfirmarBorrado to BonoBorrado--><g id="link_ConfirmarBorrado_BonoBorrado"><path d="M73.3,494.4469 C70.72,517.4269 70.74,551.7669 88.5,574.2969 C111.38,603.3269 145.1833,615.6685 178.2733,621.8885 " fill="none" id="ConfirmarBorrado-to-BonoBorrado" style="stroke:#181818;stroke-width:1.0;"/><polygon fill="#181818" points="184.17,622.9969,176.0639,617.4031,179.2561,622.0732,174.586,625.2654,184.17,622.9969" style="stroke:#181818;stroke-width:1.0;"/><path d="M93.5,529.2969 L93.5,569.2969 L369.5,569.2969 L369.5,539.2969 L359.5,529.2969 L93.5,529.2969 " fill="#FEFFDD" style="stroke:#181818;stroke-width:0.5;"/><path d="M359.5,529.2969 L359.5,539.2969 L369.5,539.2969 L359.5,529.2969 " fill="#FEFFDD" style="stroke:#181818;stroke-width:0.5;"/><text fill="#000000" font-family="sans-serif" font-size="13" lengthAdjust="spacing" textLength="255" x="99.5" y="546.3638">El administrador confirma la eliminaci&#243;n</text><text fill="#000000" font-family="sans-serif" font-size="13" lengthAdjust="spacing" textLength="142" x="99.5" y="561.4966">del bono seleccionado</text></g><!--link BonoBorrado to ListaDeBonos--><g id="link_BonoBorrado_ListaDeBonos"><path d="M296.98,621.3769 C326.51,614.5669 360.23,601.0669 378.5,574.2969 C431.12,497.2069 431.48,441.1369 378.5,364.2969 C359.71,337.0469 331.0788,324.8309 300.7888,318.1409 " fill="none" id="BonoBorrado-to-ListaDeBonos" style="stroke:#181818;stroke-width:1.0;"/><polygon fill="#181818" points="294.93,316.8469,302.8555,322.6937,299.8123,317.9252,304.5809,314.882,294.93,316.8469" style="stroke:#181818;stroke-width:1.0;"/><path d="M422.5,456.7969 L422.5,481.7969 L690.5,481.7969 L690.5,466.7969 L680.5,456.7969 L422.5,456.7969 " fill="#FEFFDD" style="stroke:#181818;stroke-width:0.5;"/><path d="M680.5,456.7969 L680.5,466.7969 L690.5,466.7969 L680.5,456.7969 " fill="#FEFFDD" style="stroke:#181818;stroke-width:0.5;"/><text fill="#000000" font-family="sans-serif" font-size="13" lengthAdjust="spacing" textLength="247" x="428.5" y="473.8638">El administrador elige borrar otro bono</text></g><!--link BonoBorrado to *end*--><g id="link_BonoBorrado_*end*"><path d="M240.5,654.7269 C240.5,686.6569 240.5,735.1969 240.5,757.9069 " fill="none" id="BonoBorrado-to-*end*" style="stroke:#181818;stroke-width:1.0;"/><polygon fill="#181818" points="240.5,763.9069,244.5,754.9069,240.5,758.9069,236.5,754.9069,240.5,763.9069" style="stroke:#181818;stroke-width:1.0;"/><path d="M245.5,689.2969 L245.5,729.2969 L508.5,729.2969 L508.5,699.2969 L498.5,689.2969 L245.5,689.2969 " fill="#FEFFDD" style="stroke:#181818;stroke-width:0.5;"/><path d="M498.5,689.2969 L498.5,699.2969 L508.5,699.2969 L498.5,689.2969 " fill="#FEFFDD" style="stroke:#181818;stroke-width:0.5;"/><text fill="#000000" font-family="sans-serif" font-size="13" lengthAdjust="spacing" textLength="242" x="251.5" y="706.3638">El administrador finaliza el proceso de</text><text fill="#000000" font-family="sans-serif" font-size="13" lengthAdjust="spacing" textLength="113" x="251.5" y="721.4966">borrado de bonos</text></g><!--SRC=[ZP9HJiCm38RVSme_0jAkWCI01oHkWFRW9LwnS9tA3G_iDfnXHzZ5YDF2Aar2VKeJH__tsMdX8WJRR8PM5yqZt3oadlKsXBUx7Mmsz_2Y73a7pON0k7ila1M4zICy2w1Vvh4Ofcn0_S1qH4Wq9W912CFvksFr4-2M0rC11-68aSyd3QG9F3s42TMehpKKdwWvXR3SjV9ZrWDRZzRSKuPLVXWZLJwwWNYas-mRuWj64eeLNsq_jPt2W8RrowUpiBnYkv2hpVjLAd4ESHKIhgLv6ebaWbzyQkI5lW1T3shL8mbtD7S5kLXkk7y8_YEiIZxK9eIFtX0CbYED_jnXFsVzpVeNzGC0]--></g></svg>