<?xml version="1.0" encoding="us-ascii" standalone="no"?><svg xmlns="http://www.w3.org/2000/svg" xmlns:xlink="http://www.w3.org/1999/xlink" contentStyleType="text/css" height="665px" preserveAspectRatio="none" style="width:771px;height:665px;background:#FFFFFF;" version="1.1" viewBox="0 0 771 665" width="771px" zoomAndPan="magnify"><defs/><g><text fill="#000000" font-family="sans-serif" font-size="14" font-weight="bold" lengthAdjust="spacing" textLength="164" x="296.5" y="22.9951">Crear Bonos (Admin)</text><ellipse cx="386.5" cy="53.2969" fill="#222222" rx="10" ry="10" style="stroke:#222222;stroke-width:1.0;"/><g id="Inicio"><rect fill="#F1F1F1" height="50" rx="12.5" ry="12.5" style="stroke:#181818;stroke-width:0.5;" width="55" x="359" y="124.2969"/><line style="stroke:#181818;stroke-width:0.5;" x1="359" x2="414" y1="150.5938" y2="150.5938"/><text fill="#000000" font-family="sans-serif" font-size="14" lengthAdjust="spacing" textLength="35" x="369" y="142.292">Inicio</text></g><g id="elem_GMN5"><path d="M449.5,129.1669 L449.5,145.2969 L414.47,149.2969 L449.5,153.2969 L449.5,169.4325 A0,0 0 0 0 449.5,169.4325 L695.5,169.4325 A0,0 0 0 0 695.5,169.4325 L695.5,139.1669 L685.5,129.1669 L449.5,129.1669 A0,0 0 0 0 449.5,129.1669 " fill="#FEFFDD" style="stroke:#181818;stroke-width:0.5;"/><path d="M685.5,129.1669 L685.5,139.1669 L695.5,139.1669 L685.5,129.1669 " fill="#FEFFDD" style="stroke:#181818;stroke-width:0.5;"/><text fill="#000000" font-family="sans-serif" font-size="13" lengthAdjust="spacing" textLength="221" x="455.5" y="146.2338">El administrador empieza desde la</text><text fill="#000000" font-family="sans-serif" font-size="13" lengthAdjust="spacing" textLength="201" x="455.5" y="161.3666">p&#225;gina de inicio de la aplicaci&#243;n</text></g><g id="FormularioDeCreacion"><rect fill="#F1F1F1" height="50" rx="12.5" ry="12.5" style="stroke:#181818;stroke-width:0.5;" width="173" x="300" y="251.2969"/><line style="stroke:#181818;stroke-width:0.5;" x1="300" x2="473" y1="277.5938" y2="277.5938"/><text fill="#000000" font-family="sans-serif" font-size="14" lengthAdjust="spacing" textLength="153" x="310" y="269.292">FormularioDeCreacion</text></g><g id="ValidacionDatos"><rect fill="#F1F1F1" height="50" rx="12.5" ry="12.5" style="stroke:#181818;stroke-width:0.5;" width="130" x="321.5" y="380.9969"/><line style="stroke:#181818;stroke-width:0.5;" x1="321.5" x2="451.5" y1="407.2938" y2="407.2938"/><text fill="#000000" font-family="sans-serif" font-size="14" lengthAdjust="spacing" textLength="110" x="331.5" y="398.992">ValidacionDatos</text></g><g id="elem_GMN12"><path d="M6,256.1669 L6,296.4325 A0,0 0 0 0 6,296.4325 L265,296.4325 A0,0 0 0 0 265,296.4325 L265,280.2969 L299.94,276.2969 L265,272.2969 L265,266.1669 L255,256.1669 L6,256.1669 A0,0 0 0 0 6,256.1669 " fill="#FEFFDD" style="stroke:#181818;stroke-width:0.5;"/><path d="M255,256.1669 L255,266.1669 L265,266.1669 L255,256.1669 " fill="#FEFFDD" style="stroke:#181818;stroke-width:0.5;"/><text fill="#000000" font-family="sans-serif" font-size="13" lengthAdjust="spacing" textLength="238" x="12" y="273.2338">El administrador accede al formulario</text><text fill="#000000" font-family="sans-serif" font-size="13" lengthAdjust="spacing" textLength="165" x="12" y="288.3666">para crear un nuevo bono</text></g><g id="BonoCreado"><rect fill="#F1F1F1" height="50" rx="12.5" ry="12.5" style="stroke:#181818;stroke-width:0.5;" width="107" x="333" y="510.6969"/><line style="stroke:#181818;stroke-width:0.5;" x1="333" x2="440" y1="536.9938" y2="536.9938"/><text fill="#000000" font-family="sans-serif" font-size="14" lengthAdjust="spacing" textLength="87" x="343" y="528.692">BonoCreado</text></g><g id="elem_GMN17"><path d="M487,378.2969 L487,401.9969 L451.85,405.9969 L487,409.9969 L487,433.6953 A0,0 0 0 0 487,433.6953 L764,433.6953 A0,0 0 0 0 764,433.6953 L764,388.2969 L754,378.2969 L487,378.2969 A0,0 0 0 0 487,378.2969 " fill="#FEFFDD" style="stroke:#181818;stroke-width:0.5;"/><path d="M754,378.2969 L754,388.2969 L764,388.2969 L754,378.2969 " fill="#FEFFDD" style="stroke:#181818;stroke-width:0.5;"/><text fill="#000000" font-family="sans-serif" font-size="13" lengthAdjust="spacing" textLength="208" x="493" y="395.3638">El administrador completa todos</text><text fill="#000000" font-family="sans-serif" font-size="13" lengthAdjust="spacing" textLength="252" x="493" y="410.4966">los par&#225;metros del formulario que sean</text><text fill="#000000" font-family="sans-serif" font-size="13" lengthAdjust="spacing" textLength="190" x="493" y="425.6294">necesarios para crear el bono</text></g><ellipse cx="386.5" cy="648.6969" fill="none" rx="11" ry="11" style="stroke:#222222;stroke-width:1.0;"/><ellipse cx="386.5" cy="648.6969" fill="#222222" rx="6" ry="6" style="stroke:#222222;stroke-width:1.0;"/><!--link *start* to Inicio--><g id="link_*start*_Inicio"><path d="M386.5,63.6569 C386.5,77.5869 386.5,98.2569 386.5,117.9469 " fill="none" id="*start*-to-Inicio" style="stroke:#181818;stroke-width:1.0;"/><polygon fill="#181818" points="386.5,123.9469,390.5,114.9469,386.5,118.9469,382.5,114.9469,386.5,123.9469" style="stroke:#181818;stroke-width:1.0;"/></g><!--link Inicio to FormularioDeCreacion--><g id="link_Inicio_FormularioDeCreacion"><path d="M386.5,174.6969 C386.5,196.7169 386.5,222.9569 386.5,244.9669 " fill="none" id="Inicio-to-FormularioDeCreacion" style="stroke:#181818;stroke-width:1.0;"/><polygon fill="#181818" points="386.5,250.9669,390.5,241.9669,386.5,245.9669,382.5,241.9669,386.5,250.9669" style="stroke:#181818;stroke-width:1.0;"/><text fill="#000000" font-family="sans-serif" font-size="13" lengthAdjust="spacing" textLength="102" x="387.5" y="217.3638">Abrir Formulario</text></g><!--link FormularioDeCreacion to ValidacionDatos--><g id="link_FormularioDeCreacion_ValidacionDatos"><path d="M386.5,301.6169 C386.5,324.3369 386.5,352.0769 386.5,374.7669 " fill="none" id="FormularioDeCreacion-to-ValidacionDatos" style="stroke:#181818;stroke-width:1.0;"/><polygon fill="#181818" points="386.5,380.7669,390.5,371.7669,386.5,375.7669,382.5,371.7669,386.5,380.7669" style="stroke:#181818;stroke-width:1.0;"/><text fill="#000000" font-family="sans-serif" font-size="13" lengthAdjust="spacing" textLength="109" x="387.5" y="344.3638">Completar Datos</text></g><!--link ValidacionDatos to BonoCreado--><g id="link_ValidacionDatos_BonoCreado"><path d="M386.5,431.3169 C386.5,454.0369 386.5,481.7769 386.5,504.4669 " fill="none" id="ValidacionDatos-to-BonoCreado" style="stroke:#181818;stroke-width:1.0;"/><polygon fill="#181818" points="386.5,510.4669,390.5,501.4669,386.5,505.4669,382.5,501.4669,386.5,510.4669" style="stroke:#181818;stroke-width:1.0;"/><text fill="#000000" font-family="sans-serif" font-size="13" lengthAdjust="spacing" textLength="123" x="387.5" y="476.7638">Confirmar Creaci&#243;n</text></g><!--link BonoCreado to *end*--><g id="link_BonoCreado_*end*"><path d="M386.5,561.0569 C386.5,584.9269 386.5,614.1569 386.5,631.4069 " fill="none" id="BonoCreado-to-*end*" style="stroke:#181818;stroke-width:1.0;"/><polygon fill="#181818" points="386.5,637.4069,390.5,628.4069,386.5,632.4069,382.5,628.4069,386.5,637.4069" style="stroke:#181818;stroke-width:1.0;"/><text fill="#000000" font-family="sans-serif" font-size="13" lengthAdjust="spacing" textLength="52" x="387.5" y="603.7638">Finalizar</text></g><!--SRC=[RP91JiCm44NtFiLV0b8lq0LIQQd41TWW5bDxKaPox31nMFGsFGD7oCMm7If2sbqy_ldptq-I9C_OAfFYAOROusxZMWdtnhmzl6ErUiHB42lHX9WOAiUFXDXSXiyULEJI9oKN5TnsmYU2uzunFC5qu_aeeKmWzILC5zHviMHb_0w6WqFnDsRohNltKTl1aqhSSGcOvm5hR0ugEhiqvgQmEBoI5rUFEqePROrjR3lFASFMoGJbkQbCDtsk4SbQpWZaqVo5w4W9jjOu18I1lo8EkSyPsZ9DILWgBwjShE528zfcYsbxQUP_wqkBwt3s5n0fkipdioX76yyj9ytFZkUfyJamUgPC6TXoNsPLVq79wWN4B739N_wHDVRv-tevaVu0]--></g></svg>