<?xml version="1.0" encoding="us-ascii" standalone="no"?><svg xmlns="http://www.w3.org/2000/svg" xmlns:xlink="http://www.w3.org/1999/xlink" contentStyleType="text/css" height="660px" preserveAspectRatio="none" style="width:225px;height:660px;background:#FFFFFF;" version="1.1" viewBox="0 0 225 660" width="225px" zoomAndPan="magnify"><defs/><g><text fill="#000000" font-family="sans-serif" font-size="14" font-weight="bold" lengthAdjust="spacing" textLength="164" x="23.75" y="22.9951">Crear Bonos (Admin)</text><ellipse cx="93.5" cy="53.2969" fill="#222222" rx="10" ry="10" style="stroke:#222222;stroke-width:1.0;"/><g id="Inicio"><rect fill="#F1F1F1" height="50" rx="12.5" ry="12.5" style="stroke:#181818;stroke-width:0.5;" width="55" x="66" y="124.2969"/><line style="stroke:#181818;stroke-width:0.5;" x1="66" x2="121" y1="150.5938" y2="150.5938"/><text fill="#000000" font-family="sans-serif" font-size="14" lengthAdjust="spacing" textLength="35" x="76" y="142.292">Inicio</text></g><g id="FormularioDeCreacion"><rect fill="#F1F1F1" height="50" rx="12.5" ry="12.5" style="stroke:#181818;stroke-width:0.5;" width="173" x="7" y="251.2969"/><line style="stroke:#181818;stroke-width:0.5;" x1="7" x2="180" y1="277.5938" y2="277.5938"/><text fill="#000000" font-family="sans-serif" font-size="14" lengthAdjust="spacing" textLength="153" x="17" y="269.292">FormularioDeCreacion</text></g><g id="ValidacionDatos"><rect fill="#F1F1F1" height="50" rx="12.5" ry="12.5" style="stroke:#181818;stroke-width:0.5;" width="130" x="28.5" y="378.2969"/><line style="stroke:#181818;stroke-width:0.5;" x1="28.5" x2="158.5" y1="404.5938" y2="404.5938"/><text fill="#000000" font-family="sans-serif" font-size="14" lengthAdjust="spacing" textLength="110" x="38.5" y="396.292">ValidacionDatos</text></g><g id="BonoCreado"><rect fill="#F1F1F1" height="50" rx="12.5" ry="12.5" style="stroke:#181818;stroke-width:0.5;" width="107" x="40" y="505.2969"/><line style="stroke:#181818;stroke-width:0.5;" x1="40" x2="147" y1="531.5938" y2="531.5938"/><text fill="#000000" font-family="sans-serif" font-size="14" lengthAdjust="spacing" textLength="87" x="50" y="523.292">BonoCreado</text></g><ellipse cx="93.5" cy="643.2969" fill="none" rx="11" ry="11" style="stroke:#222222;stroke-width:1.0;"/><ellipse cx="93.5" cy="643.2969" fill="#222222" rx="6" ry="6" style="stroke:#222222;stroke-width:1.0;"/><!--link *start* to Inicio--><g id="link_*start*_Inicio"><path d="M93.5,63.6569 C93.5,77.5869 93.5,98.2469 93.5,117.9469 " fill="none" id="*start*-to-Inicio" style="stroke:#181818;stroke-width:1.0;"/><polygon fill="#181818" points="93.5,123.9469,97.5,114.9469,93.5,118.9469,89.5,114.9469,93.5,123.9469" style="stroke:#181818;stroke-width:1.0;"/></g><!--link Inicio to FormularioDeCreacion--><g id="link_Inicio_FormularioDeCreacion"><path d="M93.5,174.6969 C93.5,196.7169 93.5,222.9569 93.5,244.9569 " fill="none" id="Inicio-to-FormularioDeCreacion" style="stroke:#181818;stroke-width:1.0;"/><polygon fill="#181818" points="93.5,250.9569,97.5,241.9569,93.5,245.9569,89.5,241.9569,93.5,250.9569" style="stroke:#181818;stroke-width:1.0;"/><text fill="#000000" font-family="sans-serif" font-size="13" lengthAdjust="spacing" textLength="102" x="94.5" y="217.3638">Abrir Formulario</text></g><!--link FormularioDeCreacion to ValidacionDatos--><g id="link_FormularioDeCreacion_ValidacionDatos"><path d="M93.5,301.6969 C93.5,323.7169 93.5,349.9569 93.5,371.9569 " fill="none" id="FormularioDeCreacion-to-ValidacionDatos" style="stroke:#181818;stroke-width:1.0;"/><polygon fill="#181818" points="93.5,377.9569,97.5,368.9569,93.5,372.9569,89.5,368.9569,93.5,377.9569" style="stroke:#181818;stroke-width:1.0;"/><text fill="#000000" font-family="sans-serif" font-size="13" lengthAdjust="spacing" textLength="109" x="94.5" y="344.3638">Completar Datos</text></g><!--link ValidacionDatos to BonoCreado--><g id="link_ValidacionDatos_BonoCreado"><path d="M93.5,428.6969 C93.5,450.7169 93.5,476.9569 93.5,498.9569 " fill="none" id="ValidacionDatos-to-BonoCreado" style="stroke:#181818;stroke-width:1.0;"/><polygon fill="#181818" points="93.5,504.9569,97.5,495.9569,93.5,499.9569,89.5,495.9569,93.5,504.9569" style="stroke:#181818;stroke-width:1.0;"/><text fill="#000000" font-family="sans-serif" font-size="13" lengthAdjust="spacing" textLength="123" x="94.5" y="471.3638">Confirmar Creaci&#243;n</text></g><!--link BonoCreado to *end*--><g id="link_BonoCreado_*end*"><path d="M93.5,555.6569 C93.5,579.5269 93.5,608.7569 93.5,626.0069 " fill="none" id="BonoCreado-to-*end*" style="stroke:#181818;stroke-width:1.0;"/><polygon fill="#181818" points="93.5,632.0069,97.5,623.0069,93.5,627.0069,89.5,623.0069,93.5,632.0069" style="stroke:#181818;stroke-width:1.0;"/><text fill="#000000" font-family="sans-serif" font-size="13" lengthAdjust="spacing" textLength="52" x="94.5" y="598.3638">Finalizar</text></g><!--SRC=[ROyn3i8m34Ltdy8Z8FK26P1AgqfSW0Kn118aIucDJBfmBOx0nOZJfK9Cbh__VxOBbHHnqEWL3yBon4qVCl4MuBoxODVjySXq8u6bD6KIpNFoIZ96YrQTqM5_LTBL4Fxw373oYK9hHr_gJeU3v4UAfLxH5FXrMChkCqoG5k0xQQw1XVnvCwmCvhS774x4bVNo-WK0]--></g></svg>