<svg xmlns="http://www.w3.org/2000/svg" xmlns:xlink="http://www.w3.org/1999/xlink" contentStyleType="text/css" height="856px" preserveAspectRatio="none" style="width:404px;height:856px;background:#FFFFFF;" version="1.1" viewBox="0 0 404 856" width="404px" zoomAndPan="magnify"><defs/><g><text fill="#000000" font-family="sans-serif" font-size="14" font-weight="bold" lengthAdjust="spacing" textLength="164" x="113.25" y="22.9951">Crear Bonos (Admin)</text><ellipse cx="93.5" cy="53.2969" fill="#222222" rx="10" ry="10" style="stroke:#222222;stroke-width:1.0;"/><g id="Inicio"><rect fill="#F1F1F1" height="50" rx="12.5" ry="12.5" style="stroke:#181818;stroke-width:0.5;" width="55" x="66" y="173.2969"/><line style="stroke:#181818;stroke-width:0.5;" x1="66" x2="121" y1="199.5938" y2="199.5938"/><text fill="#000000" font-family="sans-serif" font-size="14" lengthAdjust="spacing" textLength="35" x="76" y="191.292">Inicio</text></g><g id="FormularioDeCreacion"><rect fill="#F1F1F1" height="50" rx="12.5" ry="12.5" style="stroke:#181818;stroke-width:0.5;" width="173" x="7" y="333.2969"/><line style="stroke:#181818;stroke-width:0.5;" x1="7" x2="180" y1="359.5938" y2="359.5938"/><text fill="#000000" font-family="sans-serif" font-size="14" lengthAdjust="spacing" textLength="153" x="17" y="351.292">FormularioDeCreacion</text></g><g id="ValidacionDatos"><rect fill="#F1F1F1" height="50" rx="12.5" ry="12.5" style="stroke:#181818;stroke-width:0.5;" width="130" x="28.5" y="493.2969"/><line style="stroke:#181818;stroke-width:0.5;" x1="28.5" x2="158.5" y1="519.5938" y2="519.5938"/><text fill="#000000" font-family="sans-serif" font-size="14" lengthAdjust="spacing" textLength="110" x="38.5" y="511.292">ValidacionDatos</text></g><g id="BonoCreado"><rect fill="#F1F1F1" height="50" rx="12.5" ry="12.5" style="stroke:#181818;stroke-width:0.5;" width="107" x="40" y="668.2969"/><line style="stroke:#181818;stroke-width:0.5;" x1="40" x2="147" y1="694.5938" y2="694.5938"/><text fill="#000000" font-family="sans-serif" font-size="14" lengthAdjust="spacing" textLength="87" x="50" y="686.292">BonoCreado</text></g><ellipse cx="93.5" cy="839.2969" fill="none" rx="11" ry="11" style="stroke:#222222;stroke-width:1.0;"/><ellipse cx="93.5" cy="839.2969" fill="#222222" rx="6" ry="6" style="stroke:#222222;stroke-width:1.0;"/><!--link *start* to Inicio--><g id="link_*start*_Inicio"><path d="M93.5,63.6769 C93.5,85.6169 93.5,134.8169 93.5,166.9869 " fill="none" id="*start*-to-Inicio" style="stroke:#181818;stroke-width:1.0;"/><polygon fill="#181818" points="93.5,172.9869,97.5,163.9869,93.5,167.9869,89.5,163.9869,93.5,172.9869" style="stroke:#181818;stroke-width:1.0;"/><path d="M98.5,98.2969 L98.5,138.2969 L359.5,138.2969 L359.5,108.2969 L349.5,98.2969 L98.5,98.2969 " fill="#FEFFDD" style="stroke:#181818;stroke-width:0.5;"/><path d="M349.5,98.2969 L349.5,108.2969 L359.5,108.2969 L349.5,98.2969 " fill="#FEFFDD" style="stroke:#181818;stroke-width:0.5;"/><text fill="#000000" font-family="sans-serif" font-size="13" lengthAdjust="spacing" textLength="11" x="104.5" y="115.3638">El</text><text fill="#000000" font-family="sans-serif" font-size="13" font-weight="bold" lengthAdjust="spacing" textLength="104" x="119.5" y="115.3638">administrador</text><text fill="#000000" font-family="sans-serif" font-size="13" lengthAdjust="spacing" textLength="113" x="227.5" y="115.3638">empieza desde la</text><text fill="#000000" font-family="sans-serif" font-size="13" lengthAdjust="spacing" textLength="201" x="104.5" y="130.4966">p&#225;gina de inicio de la aplicaci&#243;n</text></g><!--link Inicio to FormularioDeCreacion--><g id="link_Inicio_FormularioDeCreacion"><path d="M93.5,223.6369 C93.5,253.3269 93.5,297.2269 93.5,326.9269 " fill="none" id="Inicio-to-FormularioDeCreacion" style="stroke:#181818;stroke-width:1.0;"/><polygon fill="#181818" points="93.5,332.9269,97.5,323.9269,93.5,327.9269,89.5,323.9269,93.5,332.9269" style="stroke:#181818;stroke-width:1.0;"/><path d="M98.5,258.2969 L98.5,298.2969 L381.5,298.2969 L381.5,268.2969 L371.5,258.2969 L98.5,258.2969 " fill="#FEFFDD" style="stroke:#181818;stroke-width:0.5;"/><path d="M371.5,258.2969 L371.5,268.2969 L381.5,268.2969 L371.5,258.2969 " fill="#FEFFDD" style="stroke:#181818;stroke-width:0.5;"/><text fill="#000000" font-family="sans-serif" font-size="13" lengthAdjust="spacing" textLength="11" x="104.5" y="275.3638">El</text><text fill="#000000" font-family="sans-serif" font-size="13" font-weight="bold" lengthAdjust="spacing" textLength="104" x="119.5" y="275.3638">administrador</text><text fill="#000000" font-family="sans-serif" font-size="13" lengthAdjust="spacing" textLength="131" x="227.5" y="275.3638">navega al formulario</text><text fill="#000000" font-family="sans-serif" font-size="13" lengthAdjust="spacing" textLength="262" x="104.5" y="290.4966">para iniciar la creaci&#243;n de un nuevo bono</text></g><!--link FormularioDeCreacion to ValidacionDatos--><g id="link_FormularioDeCreacion_ValidacionDatos"><path d="M93.5,383.6369 C93.5,413.3269 93.5,457.2269 93.5,486.9269 " fill="none" id="FormularioDeCreacion-to-ValidacionDatos" style="stroke:#181818;stroke-width:1.0;"/><polygon fill="#181818" points="93.5,492.9269,97.5,483.9269,93.5,487.9269,89.5,483.9269,93.5,492.9269" style="stroke:#181818;stroke-width:1.0;"/><path d="M98.5,418.2969 L98.5,458.2969 L372.5,458.2969 L372.5,428.2969 L362.5,418.2969 L98.5,418.2969 " fill="#FEFFDD" style="stroke:#181818;stroke-width:0.5;"/><path d="M362.5,418.2969 L362.5,428.2969 L372.5,428.2969 L362.5,418.2969 " fill="#FEFFDD" style="stroke:#181818;stroke-width:0.5;"/><text fill="#000000" font-family="sans-serif" font-size="13" lengthAdjust="spacing" textLength="11" x="104.5" y="435.3638">El</text><text fill="#000000" font-family="sans-serif" font-size="13" font-weight="bold" lengthAdjust="spacing" textLength="104" x="119.5" y="435.3638">administrador</text><text fill="#000000" font-family="sans-serif" font-size="13" lengthAdjust="spacing" textLength="130" x="227.5" y="435.3638">accede al formulario</text><text fill="#000000" font-family="sans-serif" font-size="13" lengthAdjust="spacing" textLength="165" x="104.5" y="450.4966">para crear un nuevo bono</text></g><!--link ValidacionDatos to BonoCreado--><g id="link_ValidacionDatos_BonoCreado"><path d="M93.5,543.7169 C93.5,576.6869 93.5,629.0969 93.5,661.9969 " fill="none" id="ValidacionDatos-to-BonoCreado" style="stroke:#181818;stroke-width:1.0;"/><polygon fill="#181818" points="93.5,667.9969,97.5,658.9969,93.5,662.9969,89.5,658.9969,93.5,667.9969" style="stroke:#181818;stroke-width:1.0;"/><path d="M98.5,578.2969 L98.5,633.2969 L397.5,633.2969 L397.5,588.2969 L387.5,578.2969 L98.5,578.2969 " fill="#FEFFDD" style="stroke:#181818;stroke-width:0.5;"/><path d="M387.5,578.2969 L387.5,588.2969 L397.5,588.2969 L387.5,578.2969 " fill="#FEFFDD" style="stroke:#181818;stroke-width:0.5;"/><text fill="#000000" font-family="sans-serif" font-size="13" lengthAdjust="spacing" textLength="11" x="104.5" y="595.3638">El</text><text fill="#000000" font-family="sans-serif" font-size="13" font-weight="bold" lengthAdjust="spacing" textLength="104" x="119.5" y="595.3638">administrador</text><text fill="#000000" font-family="sans-serif" font-size="13" lengthAdjust="spacing" textLength="100" x="223.5" y="595.3638">completa todos</text><text fill="#000000" font-family="sans-serif" font-size="13" lengthAdjust="spacing" textLength="274" x="104.5" y="610.4966">los par&#225;metros necesarios en el formulario</text><text fill="#000000" font-family="sans-serif" font-size="13" lengthAdjust="spacing" textLength="117" x="104.5" y="625.6294">para crear el bono</text></g><!--link BonoCreado to *end*--><g id="link_BonoCreado_*end*"><path d="M93.5,718.7269 C93.5,750.6569 93.5,799.1969 93.5,821.9069 " fill="none" id="BonoCreado-to-*end*" style="stroke:#181818;stroke-width:1.0;"/><polygon fill="#181818" points="93.5,827.9069,97.5,818.9069,93.5,822.9069,89.5,818.9069,93.5,827.9069" style="stroke:#181818;stroke-width:1.0;"/><path d="M98.5,753.2969 L98.5,793.2969 L376.5,793.2969 L376.5,763.2969 L366.5,753.2969 L98.5,753.2969 " fill="#FEFFDD" style="stroke:#181818;stroke-width:0.5;"/><path d="M366.5,753.2969 L366.5,763.2969 L376.5,763.2969 L366.5,753.2969 " fill="#FEFFDD" style="stroke:#181818;stroke-width:0.5;"/><text fill="#000000" font-family="sans-serif" font-size="13" lengthAdjust="spacing" textLength="11" x="104.5" y="770.3638">El</text><text fill="#000000" font-family="sans-serif" font-size="13" font-weight="bold" lengthAdjust="spacing" textLength="104" x="119.5" y="770.3638">administrador</text><text fill="#000000" font-family="sans-serif" font-size="13" lengthAdjust="spacing" textLength="134" x="227.5" y="770.3638">finaliza el proceso de</text><text fill="#000000" font-family="sans-serif" font-size="13" lengthAdjust="spacing" textLength="117" x="104.5" y="785.4966">creaci&#243;n de bonos</text></g><!--SRC=[ZT9TJiCm30Vmzvp2Zr1fLq021X8Nu6NYmIHUiKZjAadtm6rs1exGY-6aqXZJaFgMZyh_NsCNBf7WCH4cU53H33VtOM2vTMxNlS5cSmSlmfxLYHQ2nFr70HM8B9_kAKBNOVsSSqaOD7KTq30oVI44oe4W8hXnFlOizGIurOBb0iV87ZtFt-980jG4vvQubloiQPWY9jOjLQATosg7u85w2ucmFvLn8oPS4FQ_Hl2jgW4gQHAGYGuAx_OGPw9hZEPxnSYXRRTODA-ceVTaULTelZNYFyX5NZFKfbLKMDqXhyCOgI0K3OQELiYov-D09TbQo5EkeWmaGET6E4VQpGNlbz9aDZ-hNsHlyn7PfiQgZabDK8V4_MbFJSkdk1y0]--></g></svg>