<?xml version="1.0" encoding="us-ascii" standalone="no"?><svg xmlns="http://www.w3.org/2000/svg" xmlns:xlink="http://www.w3.org/1999/xlink" contentStyleType="text/css" height="533px" preserveAspectRatio="none" style="width:751px;height:533px;background:#FFFFFF;" version="1.1" viewBox="0 0 751 533" width="751px" zoomAndPan="magnify"><defs/><g><text fill="#000000" font-family="sans-serif" font-size="14" font-weight="bold" lengthAdjust="spacing" textLength="156" x="290.75" y="22.9951">Leer Bonos (Admin)</text><ellipse cx="369" cy="53.2969" fill="#222222" rx="10" ry="10" style="stroke:#222222;stroke-width:1.0;"/><g id="Inicio"><rect fill="#F1F1F1" height="50" rx="12.5" ry="12.5" style="stroke:#181818;stroke-width:0.5;" width="55" x="341.5" y="124.2969"/><line style="stroke:#181818;stroke-width:0.5;" x1="341.5" x2="396.5" y1="150.5938" y2="150.5938"/><text fill="#000000" font-family="sans-serif" font-size="14" lengthAdjust="spacing" textLength="35" x="351.5" y="142.292">Inicio</text></g><g id="ListaDeBonos"><rect fill="#F1F1F1" height="50" rx="12.5" ry="12.5" style="stroke:#181818;stroke-width:0.5;" width="116" x="311" y="251.2969"/><line style="stroke:#181818;stroke-width:0.5;" x1="311" x2="427" y1="277.5938" y2="277.5938"/><text fill="#000000" font-family="sans-serif" font-size="14" lengthAdjust="spacing" textLength="96" x="321" y="269.292">ListaDeBonos</text></g><g id="elem_GMN7"><path d="M432,129.1669 L432,145.2969 L396.97,149.2969 L432,153.2969 L432,169.4325 A0,0 0 0 0 432,169.4325 L678,169.4325 A0,0 0 0 0 678,169.4325 L678,139.1669 L668,129.1669 L432,129.1669 A0,0 0 0 0 432,129.1669 " fill="#FEFFDD" style="stroke:#181818;stroke-width:0.5;"/><path d="M668,129.1669 L668,139.1669 L678,139.1669 L668,129.1669 " fill="#FEFFDD" style="stroke:#181818;stroke-width:0.5;"/><text fill="#000000" font-family="sans-serif" font-size="13" lengthAdjust="spacing" textLength="221" x="438" y="146.2338">El administrador empieza desde la</text><text fill="#000000" font-family="sans-serif" font-size="13" lengthAdjust="spacing" textLength="201" x="438" y="161.3666">p&#225;gina de inicio de la aplicaci&#243;n</text></g><g id="VerDetalle"><rect fill="#F1F1F1" height="50" rx="12.5" ry="12.5" style="stroke:#181818;stroke-width:0.5;" width="91" x="323.5" y="378.2969"/><line style="stroke:#181818;stroke-width:0.5;" x1="323.5" x2="414.5" y1="404.5938" y2="404.5938"/><text fill="#000000" font-family="sans-serif" font-size="14" lengthAdjust="spacing" textLength="71" x="333.5" y="396.292">VerDetalle</text></g><g id="elem_GMN12"><path d="M6,256.1669 L6,296.4325 A0,0 0 0 0 6,296.4325 L276,296.4325 A0,0 0 0 0 276,296.4325 L276,280.2969 L310.75,276.2969 L276,272.2969 L276,266.1669 L266,256.1669 L6,256.1669 A0,0 0 0 0 6,256.1669 " fill="#FEFFDD" style="stroke:#181818;stroke-width:0.5;"/><path d="M266,256.1669 L266,266.1669 L276,266.1669 L266,256.1669 " fill="#FEFFDD" style="stroke:#181818;stroke-width:0.5;"/><text fill="#000000" font-family="sans-serif" font-size="13" lengthAdjust="spacing" textLength="181" x="12" y="273.2338">El administrador accede a la</text><text fill="#000000" font-family="sans-serif" font-size="13" lengthAdjust="spacing" textLength="249" x="12" y="288.3666">opci&#243;n de ver la lista de bonos creados</text></g><ellipse cx="369" cy="516.2969" fill="none" rx="11" ry="11" style="stroke:#222222;stroke-width:1.0;"/><ellipse cx="369" cy="516.2969" fill="#222222" rx="6" ry="6" style="stroke:#222222;stroke-width:1.0;"/><g id="elem_GMN17"><path d="M449.5,383.1669 L449.5,399.2969 L414.87,403.2969 L449.5,407.2969 L449.5,423.4325 A0,0 0 0 0 449.5,423.4325 L744.5,423.4325 A0,0 0 0 0 744.5,423.4325 L744.5,393.1669 L734.5,383.1669 L449.5,383.1669 A0,0 0 0 0 449.5,383.1669 " fill="#FEFFDD" style="stroke:#181818;stroke-width:0.5;"/><path d="M734.5,383.1669 L734.5,393.1669 L744.5,393.1669 L734.5,383.1669 " fill="#FEFFDD" style="stroke:#181818;stroke-width:0.5;"/><text fill="#000000" font-family="sans-serif" font-size="13" lengthAdjust="spacing" textLength="243" x="455.5" y="400.2338">El administrador puede ver cada bono</text><text fill="#000000" font-family="sans-serif" font-size="13" lengthAdjust="spacing" textLength="274" x="455.5" y="415.3666">individualmente para verlo detalladamente</text></g><!--link *start* to Inicio--><g id="link_*start*_Inicio"><path d="M369,63.6569 C369,77.5869 369,98.2469 369,117.9469 " fill="none" id="*start*-to-Inicio" style="stroke:#181818;stroke-width:1.0;"/><polygon fill="#181818" points="369,123.9469,373,114.9469,369,118.9469,365,114.9469,369,123.9469" style="stroke:#181818;stroke-width:1.0;"/></g><!--link Inicio to ListaDeBonos--><g id="link_Inicio_ListaDeBonos"><path d="M369,174.6969 C369,196.7169 369,222.9569 369,244.9569 " fill="none" id="Inicio-to-ListaDeBonos" style="stroke:#181818;stroke-width:1.0;"/><polygon fill="#181818" points="369,250.9569,373,241.9569,369,245.9569,365,241.9569,369,250.9569" style="stroke:#181818;stroke-width:1.0;"/><text fill="#000000" font-family="sans-serif" font-size="13" lengthAdjust="spacing" textLength="87" x="370" y="217.3638">Cargar Bonos</text></g><!--link ListaDeBonos to VerDetalle--><g id="link_ListaDeBonos_VerDetalle"><path d="M369,301.6969 C369,323.7169 369,349.9569 369,371.9569 " fill="none" id="ListaDeBonos-to-VerDetalle" style="stroke:#181818;stroke-width:1.0;"/><polygon fill="#181818" points="369,377.9569,373,368.9569,369,372.9569,365,368.9569,369,377.9569" style="stroke:#181818;stroke-width:1.0;"/><text fill="#000000" font-family="sans-serif" font-size="13" lengthAdjust="spacing" textLength="111" x="370" y="344.3638">Seleccionar Bono</text></g><!--link VerDetalle to *end*--><g id="link_VerDetalle_*end*"><path d="M369,428.6569 C369,452.5269 369,481.7569 369,499.0069 " fill="none" id="VerDetalle-to-*end*" style="stroke:#181818;stroke-width:1.0;"/><polygon fill="#181818" points="369,505.0069,373,496.0069,369,500.0069,365,496.0069,369,505.0069" style="stroke:#181818;stroke-width:1.0;"/><text fill="#000000" font-family="sans-serif" font-size="13" lengthAdjust="spacing" textLength="52" x="370" y="471.3638">Finalizar</text></g><!--SRC=[PP11JWCn34NtFeMN5AaNc0LIeI0XTOV41h4mYJjOyYHH9ksYj-4C7A4N8yuCQ4fNKMp__vzTf2ZZZZdZVGnnn9kD7oIi0Dvktt6zliFd84uYJ4-hx6GijELfliC7oZtDSWYnC6RfFml6_Q_sKP7CjUeo-PYHXoHy8lGyUaObX7J-wYLO1MLAcXgKL1mvENy7uE3H_04k20pfbVEM2sdTfSCNLdRL8inK4vJolZ5TQA_Ho3ckqTIeOch9ndAi5webDRNzFvhUPQwgSO462nGZipDs-5HtKpbH_dUWnV0rIZhm7Ep8Kqi42LwEuW-a0uVgb2YJZQWTp8pgPEly8Vq0]--></g></svg>