<svg xmlns="http://www.w3.org/2000/svg" xmlns:xlink="http://www.w3.org/1999/xlink" contentStyleType="text/css" height="681px" preserveAspectRatio="none" style="width:409px;height:681px;background:#FFFFFF;" version="1.1" viewBox="0 0 409 681" width="409px" zoomAndPan="magnify"><defs/><g><text fill="#000000" font-family="sans-serif" font-size="14" font-weight="bold" lengthAdjust="spacing" textLength="156" x="119.5" y="22.9951">Leer Bonos (Admin)</text><ellipse cx="65" cy="53.2969" fill="#222222" rx="10" ry="10" style="stroke:#222222;stroke-width:1.0;"/><g id="Inicio"><rect fill="#F1F1F1" height="50" rx="12.5" ry="12.5" style="stroke:#181818;stroke-width:0.5;" width="55" x="37.5" y="173.2969"/><line style="stroke:#181818;stroke-width:0.5;" x1="37.5" x2="92.5" y1="199.5938" y2="199.5938"/><text fill="#000000" font-family="sans-serif" font-size="14" lengthAdjust="spacing" textLength="35" x="47.5" y="191.292">Inicio</text></g><g id="ListaDeBonos"><rect fill="#F1F1F1" height="50" rx="12.5" ry="12.5" style="stroke:#181818;stroke-width:0.5;" width="116" x="7" y="333.2969"/><line style="stroke:#181818;stroke-width:0.5;" x1="7" x2="123" y1="359.5938" y2="359.5938"/><text fill="#000000" font-family="sans-serif" font-size="14" lengthAdjust="spacing" textLength="96" x="17" y="351.292">ListaDeBonos</text></g><g id="VerDetalle"><rect fill="#F1F1F1" height="50" rx="12.5" ry="12.5" style="stroke:#181818;stroke-width:0.5;" width="91" x="19.5" y="493.2969"/><line style="stroke:#181818;stroke-width:0.5;" x1="19.5" x2="110.5" y1="519.5938" y2="519.5938"/><text fill="#000000" font-family="sans-serif" font-size="14" lengthAdjust="spacing" textLength="71" x="29.5" y="511.292">VerDetalle</text></g><ellipse cx="65" cy="664.2969" fill="none" rx="11" ry="11" style="stroke:#222222;stroke-width:1.0;"/><ellipse cx="65" cy="664.2969" fill="#222222" rx="6" ry="6" style="stroke:#222222;stroke-width:1.0;"/><!--link *start* to Inicio--><g id="link_*start*_Inicio"><path d="M65,63.6769 C65,85.6169 65,134.8169 65,166.9869 " fill="none" id="*start*-to-Inicio" style="stroke:#181818;stroke-width:1.0;"/><polygon fill="#181818" points="65,172.9869,69,163.9869,65,167.9869,61,163.9869,65,172.9869" style="stroke:#181818;stroke-width:1.0;"/><path d="M70,98.2969 L70,138.2969 L331,138.2969 L331,108.2969 L321,98.2969 L70,98.2969 " fill="#FEFFDD" style="stroke:#181818;stroke-width:0.5;"/><path d="M321,98.2969 L321,108.2969 L331,108.2969 L321,98.2969 " fill="#FEFFDD" style="stroke:#181818;stroke-width:0.5;"/><text fill="#000000" font-family="sans-serif" font-size="13" lengthAdjust="spacing" textLength="11" x="76" y="115.3638">El</text><text fill="#000000" font-family="sans-serif" font-size="13" font-weight="bold" lengthAdjust="spacing" textLength="104" x="91" y="115.3638">administrador</text><text fill="#000000" font-family="sans-serif" font-size="13" lengthAdjust="spacing" textLength="113" x="199" y="115.3638">empieza desde la</text><text fill="#000000" font-family="sans-serif" font-size="13" lengthAdjust="spacing" textLength="201" x="76" y="130.4966">p&#225;gina de inicio de la aplicaci&#243;n</text></g><!--link Inicio to ListaDeBonos--><g id="link_Inicio_ListaDeBonos"><path d="M65,223.6369 C65,253.3269 65,297.2269 65,326.9269 " fill="none" id="Inicio-to-ListaDeBonos" style="stroke:#181818;stroke-width:1.0;"/><polygon fill="#181818" points="65,332.9269,69,323.9269,65,327.9269,61,323.9269,65,332.9269" style="stroke:#181818;stroke-width:1.0;"/><path d="M70,258.2969 L70,298.2969 L358,298.2969 L358,268.2969 L348,258.2969 L70,258.2969 " fill="#FEFFDD" style="stroke:#181818;stroke-width:0.5;"/><path d="M348,258.2969 L348,268.2969 L358,268.2969 L348,258.2969 " fill="#FEFFDD" style="stroke:#181818;stroke-width:0.5;"/><text fill="#000000" font-family="sans-serif" font-size="13" lengthAdjust="spacing" textLength="11" x="76" y="275.3638">El</text><text fill="#000000" font-family="sans-serif" font-size="13" font-weight="bold" lengthAdjust="spacing" textLength="104" x="91" y="275.3638">administrador</text><text fill="#000000" font-family="sans-serif" font-size="13" lengthAdjust="spacing" textLength="144" x="199" y="275.3638">carga la lista de bonos</text><text fill="#000000" font-family="sans-serif" font-size="13" lengthAdjust="spacing" textLength="232" x="76" y="290.4966">disponibles desde la p&#225;gina de inicio</text></g><!--link ListaDeBonos to VerDetalle--><g id="link_ListaDeBonos_VerDetalle"><path d="M65,383.6369 C65,413.3269 65,457.2269 65,486.9269 " fill="none" id="ListaDeBonos-to-VerDetalle" style="stroke:#181818;stroke-width:1.0;"/><polygon fill="#181818" points="65,492.9269,69,483.9269,65,487.9269,61,483.9269,65,492.9269" style="stroke:#181818;stroke-width:1.0;"/><path d="M70,418.2969 L70,458.2969 L402,458.2969 L402,428.2969 L392,418.2969 L70,418.2969 " fill="#FEFFDD" style="stroke:#181818;stroke-width:0.5;"/><path d="M392,418.2969 L392,428.2969 L402,428.2969 L392,418.2969 " fill="#FEFFDD" style="stroke:#181818;stroke-width:0.5;"/><text fill="#000000" font-family="sans-serif" font-size="13" lengthAdjust="spacing" textLength="11" x="76" y="435.3638">El</text><text fill="#000000" font-family="sans-serif" font-size="13" font-weight="bold" lengthAdjust="spacing" textLength="104" x="91" y="435.3638">administrador</text><text fill="#000000" font-family="sans-serif" font-size="13" lengthAdjust="spacing" textLength="188" x="199" y="435.3638">selecciona un bono de la lista</text><text fill="#000000" font-family="sans-serif" font-size="13" lengthAdjust="spacing" textLength="129" x="76" y="450.4966">para ver los detalles</text></g><!--link VerDetalle to *end*--><g id="link_VerDetalle_*end*"><path d="M65,543.7269 C65,575.6569 65,624.1969 65,646.9069 " fill="none" id="VerDetalle-to-*end*" style="stroke:#181818;stroke-width:1.0;"/><polygon fill="#181818" points="65,652.9069,69,643.9069,65,647.9069,61,643.9069,65,652.9069" style="stroke:#181818;stroke-width:1.0;"/><path d="M70,578.2969 L70,618.2969 L386,618.2969 L386,588.2969 L376,578.2969 L70,578.2969 " fill="#FEFFDD" style="stroke:#181818;stroke-width:0.5;"/><path d="M376,578.2969 L376,588.2969 L386,588.2969 L376,578.2969 " fill="#FEFFDD" style="stroke:#181818;stroke-width:0.5;"/><text fill="#000000" font-family="sans-serif" font-size="13" lengthAdjust="spacing" textLength="11" x="76" y="595.3638">El</text><text fill="#000000" font-family="sans-serif" font-size="13" font-weight="bold" lengthAdjust="spacing" textLength="104" x="91" y="595.3638">administrador</text><text fill="#000000" font-family="sans-serif" font-size="13" lengthAdjust="spacing" textLength="172" x="199" y="595.3638">visualiza el bono en detalle</text><text fill="#000000" font-family="sans-serif" font-size="13" lengthAdjust="spacing" textLength="125" x="76" y="610.4966">y finaliza el proceso</text></g><!--SRC=[ZP51JWCn34NtFeMNC5AlW4HL5aXTiq4itCGC5guJ9Mabk4tFm15wCP8CrOp4PhPn_D-pNQGeuvuvuJPOo7Ztw8zYzm2lmnjkDW_uRE8aW8N2c6JyA1WCLUmJdXI7WTftoIMH3saOa8zH-9lGS_QCIWZnUXd5sWjApyAfG575aPFhZm6RnqO0c72TlA-njEFkjPhlA8tKuhLrDzIXztl9CPWSbFFizazj8RAaTvqNJZikfCghPJ8hknfR4IVh8d-pTpc8b0ZFTVKQcbJFpWk5cTW5waLMay-IJwHI3y4wWTbk2FZ2zphrhHfJS9pdqNy1]--></g></svg>