<?xml version="1.0" encoding="us-ascii" standalone="no"?><svg xmlns="http://www.w3.org/2000/svg" xmlns:xlink="http://www.w3.org/1999/xlink" contentStyleType="text/css" height="1118px" preserveAspectRatio="none" style="width:1175px;height:1118px;background:#FFFFFF;" version="1.1" viewBox="0 0 1175 1118" width="1175px" zoomAndPan="magnify"><defs/><g><!--cluster Reserva--><g id="cluster_Reserva"><path d="M473.7509,361 L538.7509,361 A3.75,3.75 0 0 1 541.2509,363.5 L548.2509,383.2969 L729.7509,383.2969 A2.5,2.5 0 0 1 732.2509,385.7969 L732.2509,778.5 A2.5,2.5 0 0 1 729.7509,781 L473.7509,781 A2.5,2.5 0 0 1 471.2509,778.5 L471.2509,363.5 A2.5,2.5 0 0 1 473.7509,361 " fill="none" style="stroke:#000000;stroke-width:1.5;"/><line style="stroke:#000000;stroke-width:1.5;" x1="471.2509" x2="548.2509" y1="383.2969" y2="383.2969"/><text fill="#000000" font-family="sans-serif" font-size="14" font-weight="bold" lengthAdjust="spacing" textLength="64" x="475.2509" y="375.9951">Reserva</text></g><!--cluster Pistas--><g id="cluster_Pistas"><path d="M138.7509,6 L190.7509,6 A3.75,3.75 0 0 1 193.2509,8.5 L200.2509,28.2969 L428.7509,28.2969 A2.5,2.5 0 0 1 431.2509,30.7969 L431.2509,305.5 A2.5,2.5 0 0 1 428.7509,308 L138.7509,308 A2.5,2.5 0 0 1 136.2509,305.5 L136.2509,8.5 A2.5,2.5 0 0 1 138.7509,6 " fill="none" style="stroke:#000000;stroke-width:1.5;"/><line style="stroke:#000000;stroke-width:1.5;" x1="136.2509" x2="200.2509" y1="28.2969" y2="28.2969"/><text fill="#000000" font-family="sans-serif" font-size="14" font-weight="bold" lengthAdjust="spacing" textLength="51" x="140.2509" y="20.9951">Pistas</text></g><!--cluster Pagos--><g id="cluster_Pagos"><path d="M917.2509,200 L967.2509,200 A3.75,3.75 0 0 1 969.7509,202.5 L976.7509,222.2969 L1109.2479,222.2969 A2.5,2.5 0 0 1 1111.7479,224.7969 L1111.7479,422.5 A2.5,2.5 0 0 1 1109.2479,425 L917.2509,425 A2.5,2.5 0 0 1 914.7509,422.5 L914.7509,202.5 A2.5,2.5 0 0 1 917.2509,200 " fill="none" style="stroke:#000000;stroke-width:1.5;"/><line style="stroke:#000000;stroke-width:1.5;" x1="914.7509" x2="976.7509" y1="222.2969" y2="222.2969"/><text fill="#000000" font-family="sans-serif" font-size="14" font-weight="bold" lengthAdjust="spacing" textLength="49" x="918.7509" y="214.9951">Pagos</text></g><!--cluster Notificaciones--><g id="cluster_Notificaciones"><path d="M860.7509,635 L978.7509,635 A3.75,3.75 0 0 1 981.2509,637.5 L988.2509,657.2969 L1165.7479,657.2969 A2.5,2.5 0 0 1 1168.2479,659.7969 L1168.2479,1101.5 A2.5,2.5 0 0 1 1165.7479,1104 L860.7509,1104 A2.5,2.5 0 0 1 858.2509,1101.5 L858.2509,637.5 A2.5,2.5 0 0 1 860.7509,635 " fill="none" style="stroke:#000000;stroke-width:1.5;"/><line style="stroke:#000000;stroke-width:1.5;" x1="858.2509" x2="988.2509" y1="657.2969" y2="657.2969"/><text fill="#000000" font-family="sans-serif" font-size="14" font-weight="bold" lengthAdjust="spacing" textLength="117" x="862.2509" y="649.9951">Notificaciones</text></g><g id="elem_UC1"><ellipse cx="601.5348" cy="422.8568" fill="#F1F1F1" rx="79.7839" ry="18.3568" style="stroke:#181818;stroke-width:0.5;"/><text fill="#000000" font-family="sans-serif" font-size="14" lengthAdjust="spacing" textLength="118" x="540.7865" y="426.2613">Realizar Reserva</text></g><g id="elem_UC2"><ellipse cx="601.6167" cy="495.7732" fill="#F1F1F1" rx="81.8658" ry="18.7732" style="stroke:#181818;stroke-width:0.5;"/><text fill="#000000" font-family="sans-serif" font-size="14" lengthAdjust="spacing" textLength="123" x="539.1314" y="498.9463">Cancelar Reserva</text></g><g id="elem_UC9"><ellipse cx="601.6188" cy="574.1736" fill="#F1F1F1" rx="106.3679" ry="23.6736" style="stroke:#181818;stroke-width:0.5;"/><text fill="#000000" font-family="sans-serif" font-size="14" lengthAdjust="spacing" textLength="178" x="512.6188" y="577.0203">Ver Historial de Reservas</text></g><g id="elem_UC5"><ellipse cx="601.8143" cy="648.9127" fill="#F1F1F1" rx="70.0634" ry="16.4127" style="stroke:#181818;stroke-width:0.5;"/><text fill="#000000" font-family="sans-serif" font-size="14" lengthAdjust="spacing" textLength="93" x="552.3143" y="652.6602">Ver Reservas</text></g><g id="elem_UC11"><ellipse cx="601.5348" cy="718.8568" fill="#F1F1F1" rx="79.7839" ry="18.3568" style="stroke:#181818;stroke-width:0.5;"/><text fill="#000000" font-family="sans-serif" font-size="14" lengthAdjust="spacing" textLength="118" x="540.7865" y="722.2613">Gestionar Bonos</text></g><g id="elem_UC10"><ellipse cx="283.8418" cy="163.1182" fill="#F1F1F1" rx="123.5909" ry="27.1182" style="stroke:#181818;stroke-width:0.5;"/><text fill="#000000" font-family="sans-serif" font-size="14" lengthAdjust="spacing" textLength="215" x="176.3418" y="165.9649">Administrar Horarios de Pistas</text></g><g id="elem_UC15"><ellipse cx="283.6101" cy="244.8718" fill="#F1F1F1" rx="84.8592" ry="19.3718" style="stroke:#181818;stroke-width:0.5;"/><text fill="#000000" font-family="sans-serif" font-size="14" lengthAdjust="spacing" textLength="130" x="218.6101" y="247.7185">Administrar Pistas</text></g><g id="elem_UC3"><ellipse cx="283.8446" cy="75.1187" fill="#F1F1F1" rx="116.0937" ry="25.6187" style="stroke:#181818;stroke-width:0.5;"/><text fill="#000000" font-family="sans-serif" font-size="14" lengthAdjust="spacing" textLength="199" x="184.3446" y="77.9654">Ver Disponibilidad de Pistas</text></g><g id="elem_UC13"><ellipse cx="1013.3187" cy="319.0136" fill="#F1F1F1" rx="73.0678" ry="17.0136" style="stroke:#181818;stroke-width:0.5;"/><text fill="#000000" font-family="sans-serif" font-size="14" lengthAdjust="spacing" textLength="101" x="959.8187" y="322.7611">Pagar Reserva</text></g><g id="elem_UC14"><ellipse cx="1013.4909" cy="251.048" fill="#F1F1F1" rx="68.24" ry="16.048" style="stroke:#181818;stroke-width:0.5;"/><text fill="#000000" font-family="sans-serif" font-size="14" lengthAdjust="spacing" textLength="88" x="966.4909" y="254.7956">Pagar Bonos</text></g><g id="elem_UC12"><ellipse cx="1013.0389" cy="389.8576" fill="#F1F1F1" rx="82.288" ry="18.8576" style="stroke:#181818;stroke-width:0.5;"/><text fill="#000000" font-family="sans-serif" font-size="14" lengthAdjust="spacing" textLength="124" x="950.2014" y="392.9838">Administar Pagos</text></g><g id="elem_UC8"><ellipse cx="1013.0087" cy="783.1516" fill="#F1F1F1" rx="138.7578" ry="30.1516" style="stroke:#181818;stroke-width:0.5;"/><text fill="#000000" font-family="sans-serif" font-size="14" lengthAdjust="spacing" textLength="247" x="889.5087" y="785.9982">Recibir Notificaciones de Reservas</text></g><g id="elem_UC4"><ellipse cx="1013.0053" cy="967.7509" fill="#F1F1F1" rx="129.2544" ry="28.2509" style="stroke:#181818;stroke-width:0.5;"/><text fill="#000000" font-family="sans-serif" font-size="14" lengthAdjust="spacing" textLength="227" x="899.5053" y="970.5976">Recibir Notificaciones de Bonos</text></g><g id="elem_UC16"><ellipse cx="1013.0592" cy="1060.0617" fill="#F1F1F1" rx="128.3083" ry="28.0617" style="stroke:#181818;stroke-width:0.5;"/><text fill="#000000" font-family="sans-serif" font-size="14" lengthAdjust="spacing" textLength="225" x="900.5592" y="1062.9083">Recibir Notificaciones de Pagos</text></g><g id="elem_UC17"><ellipse cx="1013.0592" cy="876.0617" fill="#F1F1F1" rx="128.3083" ry="28.0617" style="stroke:#181818;stroke-width:0.5;"/><text fill="#000000" font-family="sans-serif" font-size="14" lengthAdjust="spacing" textLength="225" x="900.5592" y="878.9083">Recibir Notificaciones de Pistas</text></g><g id="elem_UC7"><ellipse cx="1013.2005" cy="693.9899" fill="#F1F1F1" rx="105.4496" ry="23.4899" style="stroke:#181818;stroke-width:0.5;"/><text fill="#000000" font-family="sans-serif" font-size="14" lengthAdjust="spacing" textLength="176" x="925.2005" y="696.8366">Gestionar Notificaciones</text></g><!--entity U--><g id="elem_U"><ellipse cx="283.7509" cy="505.5" fill="#F1F1F1" rx="8" ry="8" style="stroke:#181818;stroke-width:0.5;"/><path d="M283.7509,513.5 L283.7509,540.5 M270.7509,521.5 L296.7509,521.5 M283.7509,540.5 L270.7509,555.5 M283.7509,540.5 L296.7509,555.5 " fill="none" style="stroke:#181818;stroke-width:0.5;"/><text fill="#000000" font-family="sans-serif" font-size="14" lengthAdjust="spacing" textLength="31" x="268.2509" y="569.9951">User</text></g><!--entity A--><g id="elem_A"><ellipse cx="791.2509" cy="522.5" fill="#F1F1F1" rx="8" ry="8" style="stroke:#181818;stroke-width:0.5;"/><path d="M791.2509,530.5 L791.2509,557.5 M778.2509,538.5 L804.2509,538.5 M791.2509,557.5 L778.2509,572.5 M791.2509,557.5 L804.2509,572.5 " fill="none" style="stroke:#181818;stroke-width:0.5;"/><text fill="#000000" font-family="sans-serif" font-size="14" lengthAdjust="spacing" textLength="46" x="768.2509" y="586.9951">Admin</text></g><!--reverse link Reserva to A--><g id="link_Reserva_A"><path d="M737.804,762.3872 C739.5193,761.3938 737.2514,762.5279 738.8939,761.4163 C742.1788,759.1933 745.3092,756.7286 748.2509,754 C771.6899,732.26 782.8619,642.629 787.4779,590.352 " fill="none" id="Reserva-backto-A" style="stroke:#181818;stroke-width:1.0;"/><polygon fill="#181818" points="732.5622,765.3067,742.3712,764.422,736.9304,762.8738,738.4786,757.433,732.5622,765.3067" style="stroke:#181818;stroke-width:1.0;"/></g><!--reverse link Pistas to A--><g id="link_Pistas_A"><path d="M438.7322,289.5534 C441.6183,289.5917 440.6883,289.6058 443.6191,289.6743 C449.4806,289.8113 455.4278,290.0107 461.4468,290.28 C557.7499,294.5888 672.4139,316.8025 748.2509,388 C766.3569,404.999 778.8619,471.026 785.2689,513.941 " fill="none" id="Pistas-backto-A" style="stroke:#181818;stroke-width:1.0;"/><polygon fill="#181818" points="432.7325,289.4887,441.6888,293.5855,437.7322,289.5426,441.7751,285.586,432.7325,289.4887" style="stroke:#181818;stroke-width:1.0;"/></g><!--link A to UC12--><g id="link_A_UC12"><path d="M814.5559,535.575 C855.9579,505.088 939.5605,443.5268 982.7105,411.7518 " fill="none" id="A-to-UC12" style="stroke:#181818;stroke-width:1.0;"/><polygon fill="#181818" points="987.5419,408.194,977.923,410.3097,983.5157,411.1588,982.6667,416.7516,987.5419,408.194" style="stroke:#181818;stroke-width:1.0;"/></g><!--link A to UC7--><g id="link_A_UC7"><path d="M814.5559,566.397 C853.0089,591.216 926.9898,638.9671 972.6228,668.4221 " fill="none" id="A-to-UC7" style="stroke:#181818;stroke-width:1.0;"/><polygon fill="#181818" points="977.6639,671.676,972.2716,663.4345,973.463,668.9644,967.9331,670.1559,977.6639,671.676" style="stroke:#181818;stroke-width:1.0;"/></g><!--link U to UC1--><g id="link_U_UC1"><path d="M299.4709,527.529 C328.6049,512.967 395.9349,480.431 455.2509,460 C483.4679,450.281 509.7118,443.2343 536.5568,436.8883 " fill="none" id="U-to-UC1" style="stroke:#181818;stroke-width:1.0;"/><polygon fill="#181818" points="542.3959,435.508,532.7171,433.6858,537.53,436.6583,534.5575,441.4712,542.3959,435.508" style="stroke:#181818;stroke-width:1.0;"/></g><!--link U to UC2--><g id="link_U_UC2"><path d="M299.5679,533.171 C339.8349,528.202 447.3581,514.9309 522.9461,505.6029 " fill="none" id="U-to-UC2" style="stroke:#181818;stroke-width:1.0;"/><polygon fill="#181818" points="528.9009,504.868,519.4788,502.0004,523.9385,505.4804,520.4586,509.9402,528.9009,504.868" style="stroke:#181818;stroke-width:1.0;"/></g><!--reverse link UC3 to U--><g id="link_UC3_U"><path d="M166.145,83.2929 C133.1713,91.5829 107.2116,105.97 90.2509,135.5 C6,282.184 208.4819,471.029 267.9339,521.898 " fill="none" id="UC3-backto-U" style="stroke:#181818;stroke-width:1.0;"/><polygon fill="#181818" points="171.9639,81.83,162.2602,80.1451,167.1148,83.0491,164.2108,87.9037,171.9639,81.83" style="stroke:#181818;stroke-width:1.0;"/></g><!--link U to UC9--><g id="link_U_UC9"><path d="M299.5679,536.829 C336.3579,541.369 428.3031,552.717 502.5851,561.885 " fill="none" id="U-to-UC9" style="stroke:#181818;stroke-width:1.0;"/><polygon fill="#181818" points="508.5399,562.62,500.0976,557.5477,503.5776,562.0075,499.1177,565.4874,508.5399,562.62" style="stroke:#181818;stroke-width:1.0;"/></g><!--link U to UC13--><g id="link_U_UC13"><path d="M299.3689,516.728 C326.3299,484.495 387.3669,418.102 455.2509,388 C618.2589,315.716 826.847,311.3246 935.973,314.8076 " fill="none" id="U-to-UC13" style="stroke:#181818;stroke-width:1.0;"/><polygon fill="#181818" points="941.9699,314.999,933.1021,310.7139,936.9724,314.8395,932.8469,318.7099,941.9699,314.999" style="stroke:#181818;stroke-width:1.0;"/></g><!--link U to UC14--><g id="link_U_UC14"><path d="M299.2679,506.135 C324.2029,459.892 379.8579,370.13 455.2509,328 C615.4609,238.474 834.7678,238.5501 943.1518,245.1001 " fill="none" id="U-to-UC14" style="stroke:#181818;stroke-width:1.0;"/><polygon fill="#181818" points="949.1409,245.462,940.3986,240.9264,944.15,245.1604,939.916,248.9118,949.1409,245.462" style="stroke:#181818;stroke-width:1.0;"/></g><!--link U to UC8--><g id="link_U_UC8"><path d="M297.1609,573.064 C318.6639,631.922 369.0169,743.025 455.2509,789 C606.7229,869.757 810.1011,837.0973 924.1561,808.5823 " fill="none" id="U-to-UC8" style="stroke:#181818;stroke-width:1.0;"/><polygon fill="#181818" points="929.9769,807.127,920.2755,805.4294,925.1262,808.3397,922.2158,813.1905,929.9769,807.127" style="stroke:#181818;stroke-width:1.0;"/></g><!--link U to UC4--><g id="link_U_UC4"><path d="M288.8919,573.208 C299.8009,653.205 337.1609,837.854 455.2509,922 C592.0569,1019.482 792.6393,1007.0897 912.0083,988.2437 " fill="none" id="U-to-UC4" style="stroke:#181818;stroke-width:1.0;"/><polygon fill="#181818" points="917.9349,987.308,908.4212,984.7605,912.9961,988.0877,909.6688,992.6626,917.9349,987.308" style="stroke:#181818;stroke-width:1.0;"/></g><!--link U to UC16--><g id="link_U_UC16"><path d="M285.6179,573.135 C289.9689,665.077 314.9789,899.369 455.2509,1008 C589.1489,1111.6958 793.1423,1099.1946 913.3933,1080.0799 " fill="none" id="U-to-UC16" style="stroke:#181818;stroke-width:1.0;"/><polygon fill="#181818" points="919.3189,1079.138,909.8025,1076.6005,914.3809,1079.9229,911.0584,1084.5013,919.3189,1079.138" style="stroke:#181818;stroke-width:1.0;"/></g><!--link U to UC17--><g id="link_U_UC17"><path d="M292.9079,573.259 C309.7779,641.827 355.5749,784.322 455.2509,847 C598.9079,937.334 801.0074,918.6617 917.9334,897.2107 " fill="none" id="U-to-UC17" style="stroke:#181818;stroke-width:1.0;"/><polygon fill="#181818" points="923.8349,896.128,914.2609,893.8177,918.917,897.0302,915.7044,901.6864,923.8349,896.128" style="stroke:#181818;stroke-width:1.0;"/></g><!--SRC=[ZPF1ReCm38RlVegeTwILjcjxgSGwQJrDKoLszqBQMMC49NIJDktTvz1G6g0I7C1sFZk_dP2hGoKgBGmTtokHaL6o8bq0oaeRaLfb15gHUZ_9FgbmWGG0IfGVU5HYhvZwmby0mS_9AebMYSbUOKu_Q9hrILreEmsfBHPIvJqg3gbNbh4Zon88Sv5TzhGUN_Vn3h48YITbNPkyxuCkT0DDf_3NzlN26tAusrSz0ruodBpJ_2PjdQGptbIwkvqKWek-z4UofIxeZNBACElLdWKYyQXjLo87-tEV3J51z_DXpKwoswN1OhWMyAmhEf14oUDKNidL7P3SXkb00mUu6fbshNS-CYSGVpysAJYa9GnVdZ3Fqmox0K4IdSfeqtGAYJZxvyhWVFRgURAPwUyYshXaI9k5YnKxA-S_jVPcb_YwPTiW7oEaaQkryj-v_tBptbZ-0m00]--></g></svg>