<?xml version="1.0" encoding="us-ascii" standalone="no"?><svg xmlns="http://www.w3.org/2000/svg" xmlns:xlink="http://www.w3.org/1999/xlink" contentStyleType="text/css" height="631px" preserveAspectRatio="none" style="width:1028px;height:631px;background:#FFFFFF;" version="1.1" viewBox="0 0 1028 631" width="1028px" zoomAndPan="magnify"><defs/><g><!--cluster Reserva--><g id="cluster_Reserva"><path d="M333,177 L398,177 A3.75,3.75 0 0 1 400.5,179.5 L407.5,199.2969 L573,199.2969 A2.5,2.5 0 0 1 575.5,201.7969 L575.5,486.5 A2.5,2.5 0 0 1 573,489 L333,489 A2.5,2.5 0 0 1 330.5,486.5 L330.5,179.5 A2.5,2.5 0 0 1 333,177 " fill="none" style="stroke:#000000;stroke-width:1.5;"/><line style="stroke:#000000;stroke-width:1.5;" x1="330.5" x2="407.5" y1="199.2969" y2="199.2969"/><text fill="#000000" font-family="sans-serif" font-size="14" font-weight="bold" lengthAdjust="spacing" textLength="64" x="334.5" y="191.9951">Reserva</text></g><!--cluster Pistas--><g id="cluster_Pistas"><path d="M744.5,6 L796.5,6 A3.75,3.75 0 0 1 799,8.5 L806,28.2969 L1018.5,28.2969 A2.5,2.5 0 0 1 1021,30.7969 L1021,270.5 A2.5,2.5 0 0 1 1018.5,273 L744.5,273 A2.5,2.5 0 0 1 742,270.5 L742,8.5 A2.5,2.5 0 0 1 744.5,6 " fill="none" style="stroke:#000000;stroke-width:1.5;"/><line style="stroke:#000000;stroke-width:1.5;" x1="742" x2="806" y1="28.2969" y2="28.2969"/><text fill="#000000" font-family="sans-serif" font-size="14" font-weight="bold" lengthAdjust="spacing" textLength="51" x="746" y="20.9951">Pistas</text></g><!--cluster Gestion--><g id="cluster_Gestion"><path d="M8.5,17 L72.5,17 A3.75,3.75 0 0 1 75,19.5 L82,39.2969 L206.5,39.2969 A2.5,2.5 0 0 1 209,41.7969 L209,177.5 A2.5,2.5 0 0 1 206.5,180 L8.5,180 A2.5,2.5 0 0 1 6,177.5 L6,19.5 A2.5,2.5 0 0 1 8.5,17 " fill="none" style="stroke:#000000;stroke-width:1.5;"/><line style="stroke:#000000;stroke-width:1.5;" x1="6" x2="82" y1="39.2969" y2="39.2969"/><text fill="#000000" font-family="sans-serif" font-size="14" font-weight="bold" lengthAdjust="spacing" textLength="63" x="10" y="31.9951">Gestion</text></g><!--cluster Pagos--><g id="cluster_Pagos"><path d="M792,297 L842,297 A3.75,3.75 0 0 1 844.5,299.5 L851.5,319.2969 L971,319.2969 A2.5,2.5 0 0 1 973.5,321.7969 L973.5,517.5 A2.5,2.5 0 0 1 971,520 L792,520 A2.5,2.5 0 0 1 789.5,517.5 L789.5,299.5 A2.5,2.5 0 0 1 792,297 " fill="none" style="stroke:#000000;stroke-width:1.5;"/><line style="stroke:#000000;stroke-width:1.5;" x1="789.5" x2="851.5" y1="319.2969" y2="319.2969"/><text fill="#000000" font-family="sans-serif" font-size="14" font-weight="bold" lengthAdjust="spacing" textLength="49" x="793.5" y="311.9951">Pagos</text></g><!--cluster Notificaciones--><g id="cluster_Notificaciones"><path d="M300.5,513 L418.5,513 A3.75,3.75 0 0 1 421,515.5 L428,535.2969 L605.5,535.2969 A2.5,2.5 0 0 1 608,537.7969 L608,621.5 A2.5,2.5 0 0 1 605.5,624 L300.5,624 A2.5,2.5 0 0 1 298,621.5 L298,515.5 A2.5,2.5 0 0 1 300.5,513 " fill="none" style="stroke:#000000;stroke-width:1.5;"/><line style="stroke:#000000;stroke-width:1.5;" x1="298" x2="428" y1="535.2969" y2="535.2969"/><text fill="#000000" font-family="sans-serif" font-size="14" font-weight="bold" lengthAdjust="spacing" textLength="117" x="302" y="527.9951">Notificaciones</text></g><g id="elem_UC1"><ellipse cx="452.7839" cy="298.8568" fill="#F1F1F1" rx="79.7839" ry="18.3568" style="stroke:#181818;stroke-width:0.5;"/><text fill="#000000" font-family="sans-serif" font-size="14" lengthAdjust="spacing" textLength="118" x="392.0356" y="302.2613">Realizar Reserva</text></g><g id="elem_UC2"><ellipse cx="452.8658" cy="453.7732" fill="#F1F1F1" rx="81.8658" ry="18.7732" style="stroke:#181818;stroke-width:0.5;"/><text fill="#000000" font-family="sans-serif" font-size="14" lengthAdjust="spacing" textLength="123" x="390.3805" y="456.9463">Cancelar Reserva</text></g><g id="elem_UC5"><ellipse cx="453.0634" cy="228.9127" fill="#F1F1F1" rx="70.0634" ry="16.4127" style="stroke:#181818;stroke-width:0.5;"/><text fill="#000000" font-family="sans-serif" font-size="14" lengthAdjust="spacing" textLength="93" x="403.5634" y="232.6602">Ver Reservas</text></g><g id="elem_UC9"><ellipse cx="452.8679" cy="376.1736" fill="#F1F1F1" rx="106.3679" ry="23.6736" style="stroke:#181818;stroke-width:0.5;"/><text fill="#000000" font-family="sans-serif" font-size="14" lengthAdjust="spacing" textLength="178" x="363.8679" y="379.0203">Ver Historial de Reservas</text></g><g id="elem_UC3"><ellipse cx="881.5937" cy="231.1187" fill="#F1F1F1" rx="116.0937" ry="25.6187" style="stroke:#181818;stroke-width:0.5;"/><text fill="#000000" font-family="sans-serif" font-size="14" lengthAdjust="spacing" textLength="199" x="782.0937" y="233.9654">Ver Disponibilidad de Pistas</text></g><g id="elem_UC10"><ellipse cx="881.5909" cy="143.1182" fill="#F1F1F1" rx="123.5909" ry="27.1182" style="stroke:#181818;stroke-width:0.5;"/><text fill="#000000" font-family="sans-serif" font-size="14" lengthAdjust="spacing" textLength="215" x="774.0909" y="145.9649">Administrar Horarios de Pistas</text></g><g id="elem_UC15"><ellipse cx="881.3592" cy="60.8718" fill="#F1F1F1" rx="84.8592" ry="19.3718" style="stroke:#181818;stroke-width:0.5;"/><text fill="#000000" font-family="sans-serif" font-size="14" lengthAdjust="spacing" textLength="130" x="816.3592" y="63.7185">Administrar Pistas</text></g><g id="elem_UC6"><ellipse cx="107.728" cy="144.0456" fill="#F1F1F1" rx="85.728" ry="19.5456" style="stroke:#181818;stroke-width:0.5;"/><text fill="#000000" font-family="sans-serif" font-size="14" lengthAdjust="spacing" textLength="132" x="41.728" y="146.8923">Gestionar Usuarios</text></g><g id="elem_UC11"><ellipse cx="107.2839" cy="70.8568" fill="#F1F1F1" rx="79.7839" ry="18.3568" style="stroke:#181818;stroke-width:0.5;"/><text fill="#000000" font-family="sans-serif" font-size="14" lengthAdjust="spacing" textLength="118" x="46.5356" y="74.2613">Gestionar Bonos</text></g><g id="elem_UC13"><ellipse cx="881.5678" cy="420.0136" fill="#F1F1F1" rx="73.0678" ry="17.0136" style="stroke:#181818;stroke-width:0.5;"/><text fill="#000000" font-family="sans-serif" font-size="14" lengthAdjust="spacing" textLength="101" x="828.0678" y="423.7611">Pagar Reserva</text></g><g id="elem_UC14"><ellipse cx="881.74" cy="488.048" fill="#F1F1F1" rx="68.24" ry="16.048" style="stroke:#181818;stroke-width:0.5;"/><text fill="#000000" font-family="sans-serif" font-size="14" lengthAdjust="spacing" textLength="88" x="834.74" y="491.7956">Pagar Bonos</text></g><g id="elem_UC12"><ellipse cx="881.2754" cy="350.0551" fill="#F1F1F1" rx="75.7754" ry="17.5551" style="stroke:#181818;stroke-width:0.5;"/><text fill="#000000" font-family="sans-serif" font-size="14" lengthAdjust="spacing" textLength="108" x="824.2754" y="353.8026">Procesar Pagos</text></g><g id="elem_UC8"><ellipse cx="452.7578" cy="578.1516" fill="#F1F1F1" rx="138.7578" ry="30.1516" style="stroke:#181818;stroke-width:0.5;"/><text fill="#000000" font-family="sans-serif" font-size="14" lengthAdjust="spacing" textLength="247" x="329.2578" y="580.9982">Recibir Notificaciones de Reservas</text></g><!--entity U--><g id="elem_U"><ellipse cx="675" cy="390.5" fill="#F1F1F1" rx="8" ry="8" style="stroke:#181818;stroke-width:0.5;"/><path d="M675,398.5 L675,425.5 M662,406.5 L688,406.5 M675,425.5 L662,440.5 M675,425.5 L688,440.5 " fill="none" style="stroke:#181818;stroke-width:0.5;"/><text fill="#000000" font-family="sans-serif" font-size="14" lengthAdjust="spacing" textLength="31" x="659.5" y="454.9951">User</text></g><!--entity A--><g id="elem_A"><ellipse cx="675" cy="113.5" fill="#F1F1F1" rx="8" ry="8" style="stroke:#181818;stroke-width:0.5;"/><path d="M675,121.5 L675,148.5 M662,129.5 L688,129.5 M675,148.5 L662,163.5 M675,148.5 L688,163.5 " fill="none" style="stroke:#181818;stroke-width:0.5;"/><text fill="#000000" font-family="sans-serif" font-size="14" lengthAdjust="spacing" textLength="46" x="652" y="177.9951">Admin</text></g><!--link A to UC15--><g id="link_A_UC15"><path d="M698.23,122.241 C708.464,113.65 721.169,104.255 734,98 C758.169,86.217 780.6169,79.2575 805.8659,73.5655 " fill="none" id="A-to-UC15" style="stroke:#181818;stroke-width:1.0;"/><polygon fill="#181818" points="811.719,72.246,802.0597,70.3232,806.8414,73.3456,803.819,78.1273,811.719,72.246" style="stroke:#181818;stroke-width:1.0;"/></g><!--reverse link UC5 to A--><g id="link_UC5_A"><path d="M498.558,213.406 C531.55,201.689 574.357,186.023 616,169 C627.951,164.115 641.093,158.264 651.841,153.351 " fill="none" id="UC5-backto-A" style="stroke:#181818;stroke-width:1.0;"/><polygon fill="#181818" points="492.904,215.414,502.7237,216.1713,497.6157,213.7407,500.0464,208.6326,492.904,215.414" style="stroke:#181818;stroke-width:1.0;"/></g><!--reverse link UC6 to A--><g id="link_UC6_A"><path d="M199.161,143.8394 C332.113,143.6044 576.492,143.172 651.938,143.039 " fill="none" id="UC6-backto-A" style="stroke:#181818;stroke-width:1.0;"/><polygon fill="#181818" points="193.161,143.85,202.1681,147.8341,198.161,143.8412,202.1539,139.8341,193.161,143.85" style="stroke:#181818;stroke-width:1.0;"/></g><!--link A to UC10--><g id="link_A_UC10"><path d="M698.274,143 C713.492,143 728.992,143 751.913,143 " fill="none" id="A-to-UC10" style="stroke:#181818;stroke-width:1.0;"/><polygon fill="#181818" points="757.913,143,748.913,139,752.913,143,748.913,147,757.913,143" style="stroke:#181818;stroke-width:1.0;"/></g><!--reverse link UC11 to A--><g id="link_UC11_A"><path d="M193.6095,70.7765 C294.5685,72.1145 467.882,80.233 616,118 C628.325,121.143 641.389,126.57 651.992,131.567 " fill="none" id="UC11-backto-A" style="stroke:#181818;stroke-width:1.0;"/><polygon fill="#181818" points="187.61,70.697,196.5562,74.8159,192.6096,70.7633,196.6622,66.8166,187.61,70.697" style="stroke:#181818;stroke-width:1.0;"/></g><!--link A to UC12--><g id="link_A_UC12"><path d="M685.704,181.263 C694.455,209.415 709.742,247.13 734,273 C762.106,302.972 798.9224,321.3362 830.8934,333.6062 " fill="none" id="A-to-UC12" style="stroke:#181818;stroke-width:1.0;"/><polygon fill="#181818" points="836.495,335.756,829.5258,328.7968,831.827,333.9645,826.6593,336.2657,836.495,335.756" style="stroke:#181818;stroke-width:1.0;"/></g><!--reverse link UC1 to U--><g id="link_UC1_U"><path d="M535.962,305.0126 C564.815,309.8326 590.834,317.954 616,335 C635.081,347.924 649.659,369.406 659.428,387.54 " fill="none" id="UC1-backto-U" style="stroke:#181818;stroke-width:1.0;"/><polygon fill="#181818" points="530.044,304.024,538.2619,309.4523,534.9757,304.8479,539.5801,301.5616,530.044,304.024" style="stroke:#181818;stroke-width:1.0;"/></g><!--reverse link UC2 to U--><g id="link_UC2_U"><path d="M527.7316,442.6047 C576.2126,435.1127 631.654,426.544 659.309,422.27 " fill="none" id="UC2-backto-U" style="stroke:#181818;stroke-width:1.0;"/><polygon fill="#181818" points="521.802,443.521,531.3073,446.0996,526.7433,442.7574,530.0855,438.1934,521.802,443.521" style="stroke:#181818;stroke-width:1.0;"/></g><!--link U to UC3--><g id="link_U_UC3"><path d="M690.627,383.147 C700.496,361.684 715.158,335.165 734,316 C760.284,289.265 791.3277,270.6948 821.2897,256.1598 " fill="none" id="U-to-UC3" style="stroke:#181818;stroke-width:1.0;"/><polygon fill="#181818" points="826.688,253.541,816.8446,253.8703,822.1894,255.7233,820.3364,261.0681,826.688,253.541" style="stroke:#181818;stroke-width:1.0;"/></g><!--reverse link UC8 to U--><g id="link_UC8_U"><path d="M520.8108,548.3331 C552.5958,532.7416 585.609,513.934 616,489 C632.938,475.104 648.696,455.77 659.499,441.103 " fill="none" id="UC8-backto-U" style="stroke:#181818;stroke-width:1.0;"/><polygon fill="#181818" points="515.424,550.9755,525.2658,550.6031,519.913,548.7735,521.7426,543.4207,515.424,550.9755" style="stroke:#181818;stroke-width:1.0;"/></g><!--reverse link UC9 to U--><g id="link_UC9_U"><path d="M538.3765,392.8756 C584.7755,402.1546 633.458,411.892 659.173,417.035 " fill="none" id="UC9-backto-U" style="stroke:#181818;stroke-width:1.0;"/><polygon fill="#181818" points="532.493,391.699,540.5339,397.3862,537.3959,392.6795,542.1027,389.5416,532.493,391.699" style="stroke:#181818;stroke-width:1.0;"/></g><!--link U to UC13--><g id="link_U_UC13"><path d="M690.707,420 C715.068,420 759.344,420 802.032,420 " fill="none" id="U-to-UC13" style="stroke:#181818;stroke-width:1.0;"/><polygon fill="#181818" points="808.032,420,799.032,416,803.032,420,799.032,424,808.032,420" style="stroke:#181818;stroke-width:1.0;"/></g><!--link U to UC14--><g id="link_U_UC14"><path d="M690.568,430.608 C701.899,438.398 718.287,448.683 734,455 C762.544,466.475 790.0029,473.2766 817.6699,478.4676 " fill="none" id="U-to-UC14" style="stroke:#181818;stroke-width:1.0;"/><polygon fill="#181818" points="823.567,479.574,815.459,473.9829,818.6527,478.652,813.9837,481.8457,823.567,479.574" style="stroke:#181818;stroke-width:1.0;"/></g><!--SRC=[TPF1Ri8m38RlUOg8EnAXWE0oYJ5fd2Q4nEvUQegrhAcIiiEclVkSjhHD2prKVvpFzf-uDNWkPMcbe-nIofGSwf9iBa2NricJHoV1orEptgPVb8V0LWXHWFw43EKHcVg6No4aFrUF6ZpAoH71q0-us_waAhHJCRM3NACPKVEOUiSMy0sn71DxycoImCWKX_X6_7ME3mnoTEWur7WXNzYSFiXG2caeLCDDcIJEgEw3znqVO6_vJTQFSjJiSL8CBaNVvIlwC0fs6UStSGZZkLOjc_pL8-xPvYsab8Yw722pVdWJ71mFBhd7HAKN0y9PZJwSClIuGVEe_PijwKmQD3l5naVl4z8y2JU0xantBMGeAhPoEdsgRvBbjQWMDrrlhJfe5gJX7w1Ugcw7FPxQVDNJyw0hbVIYwvxUj8HAEhdu1m00]--></g></svg>