<?xml version="1.0" encoding="us-ascii" standalone="no"?><svg xmlns="http://www.w3.org/2000/svg" xmlns:xlink="http://www.w3.org/1999/xlink" contentStyleType="text/css" height="384px" preserveAspectRatio="none" style="width:668px;height:384px;background:#FFFFFF;" version="1.1" viewBox="0 0 668 384" width="668px" zoomAndPan="magnify"><defs/><g><g id="Activa"><rect fill="#F1F1F1" height="50" rx="12.5" ry="12.5" style="stroke:#181818;stroke-width:0.5;" width="65" x="248" y="87"/><line style="stroke:#181818;stroke-width:0.5;" x1="248" x2="313" y1="113.2969" y2="113.2969"/><text fill="#000000" font-family="sans-serif" font-size="14" lengthAdjust="spacing" textLength="45" x="258" y="104.9951">Activa</text></g><g id="Cancelada"><rect fill="#F1F1F1" height="50" rx="12.5" ry="12.5" style="stroke:#181818;stroke-width:0.5;" width="93" x="7" y="229"/><line style="stroke:#181818;stroke-width:0.5;" x1="7" x2="100" y1="255.2969" y2="255.2969"/><text fill="#000000" font-family="sans-serif" font-size="14" lengthAdjust="spacing" textLength="73" x="17" y="246.9951">Cancelada</text></g><g id="NoPuedeCancelar"><rect fill="#F1F1F1" height="50" rx="12.5" ry="12.5" style="stroke:#181818;stroke-width:0.5;" width="172" x="206.5" y="229"/><line style="stroke:#181818;stroke-width:0.5;" x1="206.5" x2="378.5" y1="255.2969" y2="255.2969"/><text fill="#000000" font-family="sans-serif" font-size="14" lengthAdjust="spacing" textLength="152" x="216.5" y="246.9951">No se puede cancelar</text></g><ellipse cx="280.5" cy="16" fill="#222222" rx="10" ry="10" style="stroke:#222222;stroke-width:1.0;"/><ellipse cx="292.5" cy="367" fill="none" rx="11" ry="11" style="stroke:#222222;stroke-width:1.0;"/><ellipse cx="292.5" cy="367" fill="#222222" rx="6" ry="6" style="stroke:#222222;stroke-width:1.0;"/><!--link *start* to Activa--><g id="link_*start*_Activa"><path d="M280.5,26.013 C280.5,39.891 280.5,60.965 280.5,80.84 " fill="none" id="*start*-to-Activa" style="stroke:#181818;stroke-width:1.0;"/><polygon fill="#181818" points="280.5,86.84,284.5,77.84,280.5,81.84,276.5,77.84,280.5,86.84" style="stroke:#181818;stroke-width:1.0;"/></g><!--link Activa to Cancelada--><g id="link_Activa_Cancelada"><path d="M247.937,115.456 C188.686,120.675 66.9966,135.1 41.5,167 C27.6642,184.311 31.4213,204.5372 39.0479,223.3582 " fill="none" id="Activa-to-Cancelada" style="stroke:#181818;stroke-width:1.0;"/><polygon fill="#181818" points="41.3012,228.919,41.6284,219.0756,39.4234,224.285,34.214,222.08,41.3012,228.919" style="stroke:#181818;stroke-width:1.0;"/><text fill="#000000" font-family="sans-serif" font-size="13" lengthAdjust="spacing" textLength="128" x="42.5" y="180.0669">Cancelaci&#243;n exitosa</text><text fill="#000000" font-family="sans-serif" font-size="13" lengthAdjust="spacing" textLength="116" x="48.5" y="195.1997">(&gt;48 horas antes)</text></g><!--link Activa to NoPuedeCancelar--><g id="link_Activa_NoPuedeCancelar"><path d="M247.555,121.98 C225.459,129.907 198.015,143.891 184.5,167 C177.32,179.277 177.023,186.902 184.5,199 C192.325,211.661 198.9313,218.4351 211.8873,225.9751 " fill="none" id="Activa-to-NoPuedeCancelar" style="stroke:#181818;stroke-width:1.0;"/><polygon fill="#181818" points="217.073,228.993,211.3063,221.0089,212.7515,226.478,207.2824,227.9232,217.073,228.993" style="stroke:#181818;stroke-width:1.0;"/><text fill="#000000" font-family="sans-serif" font-size="13" lengthAdjust="spacing" textLength="144" x="185.5" y="180.0669">Intento de cancelaci&#243;n</text><text fill="#000000" font-family="sans-serif" font-size="13" lengthAdjust="spacing" textLength="116" x="199.5" y="195.1997">(&lt;48 horas antes)</text></g><!--link NoPuedeCancelar to Activa--><g id="link_NoPuedeCancelar_Activa"><path d="M316.653,228.994 C323.826,220.289 330.761,209.897 334.5,199 C339.116,185.548 339.943,180.14 334.5,167 C329.832,155.731 325.8691,149.7466 317.1671,141.3756 " fill="none" id="NoPuedeCancelar-to-Activa" style="stroke:#181818;stroke-width:1.0;"/><polygon fill="#181818" points="312.843,137.216,316.5561,146.3381,316.4464,140.6823,322.1022,140.5727,312.843,137.216" style="stroke:#181818;stroke-width:1.0;"/><text fill="#000000" font-family="sans-serif" font-size="13" lengthAdjust="spacing" textLength="113" x="339.5" y="187.5669">Mantener reserva</text></g><!--link Cancelada to *end*--><g id="link_Cancelada_*end*"><path d="M100.149,276.665 C157.748,303.4164 246.4193,344.5986 277.0693,358.8335 " fill="none" id="Cancelada-to-*end*" style="stroke:#181818;stroke-width:1.0;"/><polygon fill="#181818" points="282.511,361.3608,276.0333,353.942,277.9762,359.2547,272.6635,361.1976,282.511,361.3608" style="stroke:#181818;stroke-width:1.0;"/></g><!--link Activa to *end*--><g id="link_Activa_*end*"><path d="M313.047,117.995 C360.169,125.968 443.718,143.138 461.5,167 C482.026,194.544 540.52,225.507 460.5,326 C440.61,350.9791 343.4925,361.5519 309.4205,364.5771 " fill="none" id="Activa-to-*end*" style="stroke:#181818;stroke-width:1.0;"/><polygon fill="#181818" points="303.444,365.1077,312.7625,368.2961,308.4244,364.6655,312.055,360.3274,303.444,365.1077" style="stroke:#181818;stroke-width:1.0;"/><text fill="#000000" font-family="sans-serif" font-size="13" lengthAdjust="spacing" textLength="158" x="502.5" y="258.5669">Continua sin cancelaci&#243;n</text></g><!--link NoPuedeCancelar to *end*--><g id="link_NoPuedeCancelar_*end*"><path d="M292.5,279.0853 C292.5,303.0597 292.5,332.6954 292.5,349.9353 " fill="none" id="NoPuedeCancelar-to-*end*" style="stroke:#181818;stroke-width:1.0;"/><polygon fill="#181818" points="292.5,355.9353,296.5,346.9353,292.5,350.9353,288.5,346.9353,292.5,355.9353" style="stroke:#181818;stroke-width:1.0;"/><text fill="#000000" font-family="sans-serif" font-size="13" lengthAdjust="spacing" textLength="158" x="293.5" y="322.0669">Continua sin cancelaci&#243;n</text></g><!--SRC=[XO-n2i9044Jx-uebbGhfB2H8GAmi4kpLOhaiU21xSdiHGVmgFy4Vyov6BWR1RXbctioAHq-mqjvS46xghgGJriYQJjWCjQos80JdbXe2_JQu352WjjiezY7NPTHkTe0yBtkswYkYak35vzRc-M2Wg_5MSC-JShw0etM1ZUn9fiFukAs0JV2mjv1sTRp0MOuvut1Q63XLD34vS2JamkYqDFh2HyCTyS7mW6Llk4KGmr_jFwl-P5u0]--></g></svg>