<?xml version="1.0" encoding="us-ascii" standalone="no"?><svg xmlns="http://www.w3.org/2000/svg" xmlns:xlink="http://www.w3.org/1999/xlink" contentStyleType="text/css" height="384px" preserveAspectRatio="none" style="width:737px;height:384px;background:#FFFFFF;" version="1.1" viewBox="0 0 737 384" width="737px" zoomAndPan="magnify"><defs/><g><g id="Activa"><rect fill="#F1F1F1" height="50" rx="12.5" ry="12.5" style="stroke:#181818;stroke-width:0.5;" width="65" x="321.6904" y="87"/><line style="stroke:#181818;stroke-width:0.5;" x1="321.6904" x2="386.6904" y1="113.2969" y2="113.2969"/><text fill="#000000" font-family="sans-serif" font-size="14" lengthAdjust="spacing" textLength="45" x="331.6904" y="104.9951">Activa</text></g><g id="Cancelada"><rect fill="#F1F1F1" height="50" rx="12.5" ry="12.5" style="stroke:#181818;stroke-width:0.5;" width="93" x="8.6904" y="229"/><line style="stroke:#181818;stroke-width:0.5;" x1="8.6904" x2="101.6904" y1="255.2969" y2="255.2969"/><text fill="#000000" font-family="sans-serif" font-size="14" lengthAdjust="spacing" textLength="73" x="18.6904" y="246.9951">Cancelada</text></g><g id="NoPuedeCancelar"><rect fill="#F1F1F1" height="50" rx="12.5" ry="12.5" style="stroke:#181818;stroke-width:0.5;" width="172" x="193.1904" y="229"/><line style="stroke:#181818;stroke-width:0.5;" x1="193.1904" x2="365.1904" y1="255.2969" y2="255.2969"/><text fill="#000000" font-family="sans-serif" font-size="14" lengthAdjust="spacing" textLength="152" x="203.1904" y="246.9951">No se puede cancelar</text></g><ellipse cx="354.1904" cy="16" fill="#222222" rx="10" ry="10" style="stroke:#222222;stroke-width:1.0;"/><g id="CanceladaLluvia"><rect fill="#F1F1F1" height="50" rx="12.5" ry="12.5" style="stroke:#181818;stroke-width:0.5;" width="133" x="400.6904" y="229"/><line style="stroke:#181818;stroke-width:0.5;" x1="400.6904" x2="533.6904" y1="255.2969" y2="255.2969"/><text fill="#000000" font-family="sans-serif" font-size="14" lengthAdjust="spacing" textLength="113" x="410.6904" y="246.9951">CanceladaLluvia</text></g><ellipse cx="372.1904" cy="367" fill="none" rx="11" ry="11" style="stroke:#222222;stroke-width:1.0;"/><ellipse cx="372.1904" cy="367" fill="#222222" rx="6" ry="6" style="stroke:#222222;stroke-width:1.0;"/><!--link *start* to Activa--><g id="link_*start*_Activa"><path d="M354.1904,26.013 C354.1904,39.891 354.1904,60.965 354.1904,80.84 " fill="none" id="*start*-to-Activa" style="stroke:#181818;stroke-width:1.0;"/><polygon fill="#181818" points="354.1904,86.84,358.1904,77.84,354.1904,81.84,350.1904,77.84,354.1904,86.84" style="stroke:#181818;stroke-width:1.0;"/></g><!--link Activa to Cancelada--><g id="link_Activa_Cancelada"><path d="M321.6734,113.172 C245.6124,114.335 59.6194,121.837 21.1904,167 C6,184.852 15.5612,205.5394 29.7052,224.1244 " fill="none" id="Activa-to-Cancelada" style="stroke:#181818;stroke-width:1.0;"/><polygon fill="#181818" points="33.3388,228.899,31.0714,219.3147,30.3108,224.9202,24.7053,224.1596,33.3388,228.899" style="stroke:#181818;stroke-width:1.0;"/><text fill="#000000" font-family="sans-serif" font-size="13" lengthAdjust="spacing" textLength="128" x="22.1904" y="180.0669">Cancelaci&#243;n exitosa</text><text fill="#000000" font-family="sans-serif" font-size="13" lengthAdjust="spacing" textLength="116" x="28.1904" y="195.1997">(&gt;48 horas antes)</text></g><!--link Activa to CanceladaLluvia--><g id="link_Activa_CanceladaLluvia"><path d="M386.9114,122.124 C409.4774,130.172 438.1884,144.243 454.1904,167 C466.8714,185.034 469.3941,204.4705 469.1541,223.0005 " fill="none" id="Activa-to-CanceladaLluvia" style="stroke:#181818;stroke-width:1.0;"/><polygon fill="#181818" points="469.0764,229,473.1927,220.0526,469.1412,224.0004,465.1933,219.949,469.0764,229" style="stroke:#181818;stroke-width:1.0;"/><text fill="#000000" font-family="sans-serif" font-size="13" lengthAdjust="spacing" textLength="70" x="468.1904" y="187.5669">Mal tiempo</text></g><!--link Activa to NoPuedeCancelar--><g id="link_Activa_NoPuedeCancelar"><path d="M321.4374,117.588 C272.4934,125.189 183.9934,142.072 165.1904,167 C146.1554,192.235 168.9029,211.1686 202.0129,226.3256 " fill="none" id="Activa-to-NoPuedeCancelar" style="stroke:#181818;stroke-width:1.0;"/><polygon fill="#181818" points="207.4684,228.823,200.9501,221.4398,202.9222,226.7418,197.6202,228.7139,207.4684,228.823" style="stroke:#181818;stroke-width:1.0;"/><text fill="#000000" font-family="sans-serif" font-size="13" lengthAdjust="spacing" textLength="144" x="166.1904" y="180.0669">Intento de cancelaci&#243;n</text><text fill="#000000" font-family="sans-serif" font-size="13" lengthAdjust="spacing" textLength="116" x="180.1904" y="195.1997">(&lt;48 horas antes)</text></g><!--link NoPuedeCancelar to Activa--><g id="link_NoPuedeCancelar_Activa"><path d="M296.5424,228.795 C302.7634,219.661 309.6114,209.048 315.1904,199 C326.4114,178.791 334.7844,160.2877 342.1254,142.7707 " fill="none" id="NoPuedeCancelar-to-Activa" style="stroke:#181818;stroke-width:1.0;"/><polygon fill="#181818" points="344.4444,137.237,337.2767,143.9915,342.5119,141.8484,344.655,147.0836,344.4444,137.237" style="stroke:#181818;stroke-width:1.0;"/><text fill="#000000" font-family="sans-serif" font-size="13" lengthAdjust="spacing" textLength="113" x="332.1904" y="187.5669">Mantener reserva</text></g><!--link Cancelada to *end*--><g id="link_Cancelada_*end*"><path d="M101.9648,271.378 C177.7434,297.9129 317.1836,346.7388 356.4946,360.504 " fill="none" id="Cancelada-to-*end*" style="stroke:#181818;stroke-width:1.0;"/><polygon fill="#181818" points="362.1574,362.4869,354.9851,355.7373,357.4384,360.8345,352.3412,363.2878,362.1574,362.4869" style="stroke:#181818;stroke-width:1.0;"/></g><!--link CanceladaLluvia to *end*--><g id="link_CanceladaLluvia_*end*"><path d="M463.5394,279.1919 C460.2774,294.0305 454.2304,312.6737 443.1904,326 C426.7634,345.8286 403.4914,355.7591 388.1244,360.9543 " fill="none" id="CanceladaLluvia-to-*end*" style="stroke:#181818;stroke-width:1.0;"/><polygon fill="#181818" points="382.4404,362.8759,392.2475,363.7828,387.1771,361.2746,389.6853,356.2042,382.4404,362.8759" style="stroke:#181818;stroke-width:1.0;"/></g><!--link Activa to *end*--><g id="link_Activa_*end*"><path d="M387.0234,117.573 C436.6414,125.209 527.0874,142.202 547.1904,167 C578.5564,205.693 575.5664,235.563 551.1904,279 C515.3424,342.8801 422.0633,359.8641 389.0113,364.076 " fill="none" id="Activa-to-*end*" style="stroke:#181818;stroke-width:1.0;"/><polygon fill="#181818" points="383.0594,364.8345,392.4929,367.6647,388.0193,364.2024,391.4816,359.7289,383.0594,364.8345" style="stroke:#181818;stroke-width:1.0;"/><text fill="#000000" font-family="sans-serif" font-size="13" lengthAdjust="spacing" textLength="158" x="571.1904" y="258.5669">Continua sin cancelaci&#243;n</text></g><!--link NoPuedeCancelar to *end*--><g id="link_NoPuedeCancelar_*end*"><path d="M272.8924,279.2715 C270.5214,293.9586 270.2424,312.4106 279.1904,326 C297.7484,354.1844 334.8252,361.8774 355.1812,364.3198 " fill="none" id="NoPuedeCancelar-to-*end*" style="stroke:#181818;stroke-width:1.0;"/><polygon fill="#181818" points="361.1384,365.0346,352.6791,359.9909,356.174,364.439,351.726,367.9339,361.1384,365.0346" style="stroke:#181818;stroke-width:1.0;"/><text fill="#000000" font-family="sans-serif" font-size="13" lengthAdjust="spacing" textLength="158" x="280.1904" y="322.0669">Continua sin cancelaci&#243;n</text></g><!--SRC=[XL2z2i8m4Dxp54Sd5RevI962E0bQtDNXI0yCrAGaQH74f_8HV36Js99Q2cx7n_Txng8bs70hMeG7Up8JW2rAJXMMGomf51Y2kg6IW7y9EW4qKAYZ1pkH3XfsMbmWJVFEctKH7edcMNzpyNv9eBkmok1PplBb2gvAEs-KbinyKhwlcbPuamDMO0NTQZNaZLjbi7DUqYg8_KEkorkFyyRYk2JaUIFIeCcGTkFY8izpozcuP8yF-la7kGSeQOLi48oGFwqcA_pHV000]--></g></svg>