<?xml version="1.0" encoding="us-ascii" standalone="no"?><svg xmlns="http://www.w3.org/2000/svg" xmlns:xlink="http://www.w3.org/1999/xlink" contentStyleType="text/css" height="480px" preserveAspectRatio="none" style="width:358px;height:480px;background:#FFFFFF;" version="1.1" viewBox="0 0 358 480" width="358px" zoomAndPan="magnify"><defs/><g><ellipse cx="156" cy="16" fill="#222222" rx="10" ry="10" style="stroke:#222222;stroke-width:1.0;"/><g id="Inicio"><rect fill="#F1F1F1" height="50" rx="12.5" ry="12.5" style="stroke:#181818;stroke-width:0.5;" width="55" x="128.5" y="87"/><line style="stroke:#181818;stroke-width:0.5;" x1="128.5" x2="183.5" y1="113.2969" y2="113.2969"/><text fill="#000000" font-family="sans-serif" font-size="14" lengthAdjust="spacing" textLength="35" x="138.5" y="104.9951">Inicio</text></g><g id="PaginaPrincipal"><rect fill="#F1F1F1" height="50.2656" rx="12.5" ry="12.5" style="stroke:#181818;stroke-width:0.5;" width="298" x="7" y="214"/><line style="stroke:#181818;stroke-width:0.5;" x1="7" x2="305" y1="240.2969" y2="240.2969"/><text fill="#000000" font-family="sans-serif" font-size="14" lengthAdjust="spacing" textLength="103" x="104.5" y="231.9951">PaginaPrincipal</text><text fill="#000000" font-family="sans-serif" font-size="12" lengthAdjust="spacing" textLength="278" x="12" y="256.4355">Usuario selecciona "ver estados de reserva"</text></g><g id="Reservas"><rect fill="#F1F1F1" height="50.2656" rx="12.5" ry="12.5" style="stroke:#181818;stroke-width:0.5;" width="203" x="54.5" y="341.26"/><line style="stroke:#181818;stroke-width:0.5;" x1="54.5" x2="257.5" y1="367.5569" y2="367.5569"/><text fill="#000000" font-family="sans-serif" font-size="14" lengthAdjust="spacing" textLength="64" x="124" y="359.2551">Reservas</text><text fill="#000000" font-family="sans-serif" font-size="12" lengthAdjust="spacing" textLength="183" x="59.5" y="383.6955">Usuario visualiza las reservas</text></g><ellipse cx="156" cy="463.53" fill="none" rx="11" ry="11" style="stroke:#222222;stroke-width:1.0;"/><ellipse cx="156" cy="463.53" fill="#222222" rx="6" ry="6" style="stroke:#222222;stroke-width:1.0;"/><!--link *start* to Inicio--><g id="link_*start*_Inicio"><path d="M156,26.36 C156,40.29 156,60.95 156,80.65 " fill="none" id="*start*-to-Inicio" style="stroke:#181818;stroke-width:1.0;"/><polygon fill="#181818" points="156,86.65,160,77.65,156,81.65,152,77.65,156,86.65" style="stroke:#181818;stroke-width:1.0;"/></g><!--link Inicio to PaginaPrincipal--><g id="link_Inicio_PaginaPrincipal"><path d="M156,137.42 C156,159.47 156,185.74 156,207.77 " fill="none" id="Inicio-to-PaginaPrincipal" style="stroke:#181818;stroke-width:1.0;"/><polygon fill="#181818" points="156,213.77,160,204.77,156,208.77,152,204.77,156,213.77" style="stroke:#181818;stroke-width:1.0;"/><text fill="#000000" font-family="sans-serif" font-size="13" lengthAdjust="spacing" textLength="193" x="157" y="180.0669">Usuario accede a la aplicaci&#243;n</text></g><!--link PaginaPrincipal to Reservas--><g id="link_PaginaPrincipal_Reservas"><path d="M156,264.58 C156,286.65 156,312.96 156,335.01 " fill="none" id="PaginaPrincipal-to-Reservas" style="stroke:#181818;stroke-width:1.0;"/><polygon fill="#181818" points="156,341.01,160,332.01,156,336.01,152,332.01,156,341.01" style="stroke:#181818;stroke-width:1.0;"/><text fill="#000000" font-family="sans-serif" font-size="13" lengthAdjust="spacing" textLength="79" x="157" y="307.3269">ver reservas</text></g><!--link Reservas to *end*--><g id="link_Reservas_*end*"><path d="M156,391.9 C156,411.5 156,431.99 156,446.31 " fill="none" id="Reservas-to-*end*" style="stroke:#181818;stroke-width:1.0;"/><polygon fill="#181818" points="156,452.31,160,443.31,156,447.31,152,443.31,156,452.31" style="stroke:#181818;stroke-width:1.0;"/></g><!--SRC=[TOv12i9034NtSuhGPQ4NSE7UNH5SbIu-QP30C2s9pi9hUGGlrXch8AYhX9__N_xGZjHrUpeaPPt3DfvAZxCczAQ9TK6a7Pty2YjNCCia18eWB54Ph8zx2lyJBb6uW1EeoM8aVi4qEnMAYOjbD5_fsk6u7RsWQkpbzV2XlrzaBKlKMstbFvmLDxJZ2W00]--></g></svg>