<?xml version="1.0" encoding="UTF-8" standalone="no"?><svg xmlns="http://www.w3.org/2000/svg" xmlns:xlink="http://www.w3.org/1999/xlink" contentStyleType="text/css" height="779px" preserveAspectRatio="none" style="width:1543px;height:779px;background:#FFFFFF;" version="1.1" viewBox="0 0 1543 779" width="1543px" zoomAndPan="magnify"><defs/><g><rect fill="#F1F1F1" height="35.0938" rx="12.5" ry="12.5" style="stroke:#181818;stroke-width:0.5;" width="49" x="1008" y="11"/><text fill="#000000" font-family="sans-serif" font-size="12" lengthAdjust="spacing" textLength="29" x="1018" y="33.457">Inicio</text><rect fill="#F1F1F1" height="35.0938" rx="12.5" ry="12.5" style="stroke:#181818;stroke-width:0.5;" width="189" x="938" y="110.0938"/><text fill="#000000" font-family="sans-serif" font-size="12" lengthAdjust="spacing" textLength="169" x="948" y="132.5508">Administrador solicita canchas</text><polygon fill="#F1F1F1" points="966,165.1875,1099,165.1875,1111,177.1875,1099,189.1875,966,189.1875,954,177.1875,966,165.1875" style="stroke:#181818;stroke-width:0.5;"/><text fill="#000000" font-family="sans-serif" font-size="11" lengthAdjust="spacing" textLength="133" x="966" y="181.6885">¿Hay canchas disponibles?</text><text fill="#000000" font-family="sans-serif" font-size="11" lengthAdjust="spacing" textLength="9" x="945" y="174.7705">Sí</text><text fill="#000000" font-family="sans-serif" font-size="11" lengthAdjust="spacing" textLength="13" x="1111" y="174.7705">No</text><rect fill="#F1F1F1" height="50.1875" rx="12.5" ry="12.5" style="stroke:#181818;stroke-width:0.5;" width="214" x="531" y="199.1875"/><text fill="#000000" font-family="sans-serif" font-size="12" lengthAdjust="spacing" textLength="94" x="541" y="221.6445">Ofrecer opciones</text><text fill="#000000" font-family="sans-serif" font-size="12" lengthAdjust="spacing" textLength="194" x="541" y="236.7383">(Añadir/Modificar/Eliminar canchas)</text><polygon fill="#F1F1F1" points="75,294.375,163,294.375,175,306.375,163,318.375,75,318.375,63,306.375,75,294.375" style="stroke:#181818;stroke-width:0.5;"/><text fill="#000000" font-family="sans-serif" font-size="11" lengthAdjust="spacing" textLength="32" x="123" y="329.7939">Añadir</text><text fill="#000000" font-family="sans-serif" font-size="11" lengthAdjust="spacing" textLength="88" x="75" y="310.876">Selecciona Añadir</text><rect fill="#F1F1F1" height="35.0938" rx="12.5" ry="12.5" style="stroke:#181818;stroke-width:0.5;" width="216" x="11" y="351.2939"/><text fill="#000000" font-family="sans-serif" font-size="12" lengthAdjust="spacing" textLength="196" x="21" y="373.751">El Administrador añade una cancha</text><polygon fill="#F1F1F1" points="420.5,294.375,520.5,294.375,532.5,306.375,520.5,318.375,420.5,318.375,408.5,306.375,420.5,294.375" style="stroke:#181818;stroke-width:0.5;"/><text fill="#000000" font-family="sans-serif" font-size="11" lengthAdjust="spacing" textLength="44" x="474.5" y="329.7939">Modificar</text><text fill="#000000" font-family="sans-serif" font-size="11" lengthAdjust="spacing" textLength="100" x="420.5" y="310.876">Selecciona Modificar</text><rect fill="#F1F1F1" height="50.1875" rx="12.5" ry="12.5" style="stroke:#181818;stroke-width:0.5;" width="166" x="387.5" y="406.3877"/><text fill="#000000" font-family="sans-serif" font-size="12" lengthAdjust="spacing" textLength="121" x="397.5" y="428.8447">El Administrador elige</text><text fill="#000000" font-family="sans-serif" font-size="12" lengthAdjust="spacing" textLength="146" x="397.5" y="443.9385">una cancha para modificar</text><polygon fill="#F1F1F1" points="470.5,351.2939,482.5,363.2939,470.5,375.2939,458.5,363.2939,470.5,351.2939" style="stroke:#181818;stroke-width:0.5;"/><polygon fill="#F1F1F1" points="436,476.5752,505,476.5752,517,488.5752,505,500.5752,436,500.5752,424,488.5752,436,476.5752" style="stroke:#181818;stroke-width:0.5;"/><text fill="#000000" font-family="sans-serif" font-size="11" lengthAdjust="spacing" textLength="69" x="436" y="493.0762">Cancha existe</text><polygon fill="#F1F1F1" points="400,520.5752,541,520.5752,553,532.5752,541,544.5752,400,544.5752,388,532.5752,400,520.5752" style="stroke:#181818;stroke-width:0.5;"/><text fill="#000000" font-family="sans-serif" font-size="11" lengthAdjust="spacing" textLength="141" x="400" y="537.0762">Confirmación de modificación</text><text fill="#000000" font-family="sans-serif" font-size="11" lengthAdjust="spacing" textLength="9" x="379" y="530.1582">Sí</text><text fill="#000000" font-family="sans-serif" font-size="11" lengthAdjust="spacing" textLength="13" x="553" y="530.1582">No</text><rect fill="#F1F1F1" height="35.0938" rx="12.5" ry="12.5" style="stroke:#181818;stroke-width:0.5;" width="217" x="237" y="554.5752"/><text fill="#000000" font-family="sans-serif" font-size="12" lengthAdjust="spacing" textLength="197" x="247" y="577.0322">El Administrador modifica la cancha</text><rect fill="#F1F1F1" height="35.0938" rx="12.5" ry="12.5" style="stroke:#181818;stroke-width:0.5;" width="243" x="474" y="554.5752"/><text fill="#000000" font-family="sans-serif" font-size="12" lengthAdjust="spacing" textLength="223" x="484" y="577.0322">El Administrador cancela la modificación</text><polygon fill="#F1F1F1" points="470.5,595.6689,482.5,607.6689,470.5,619.6689,458.5,607.6689,470.5,595.6689" style="stroke:#181818;stroke-width:0.5;"/><polygon fill="#F1F1F1" points="936.5,294.375,1028.5,294.375,1040.5,306.375,1028.5,318.375,936.5,318.375,924.5,306.375,936.5,294.375" style="stroke:#181818;stroke-width:0.5;"/><text fill="#000000" font-family="sans-serif" font-size="11" lengthAdjust="spacing" textLength="36" x="986.5" y="329.7939">Eliminar</text><text fill="#000000" font-family="sans-serif" font-size="11" lengthAdjust="spacing" textLength="92" x="936.5" y="310.876">Selecciona Eliminar</text><rect fill="#F1F1F1" height="50.1875" rx="12.5" ry="12.5" style="stroke:#181818;stroke-width:0.5;" width="160" x="902.5" y="406.3877"/><text fill="#000000" font-family="sans-serif" font-size="12" lengthAdjust="spacing" textLength="121" x="912.5" y="428.8447">El Administrador elige</text><text fill="#000000" font-family="sans-serif" font-size="12" lengthAdjust="spacing" textLength="140" x="912.5" y="443.9385">una cancha para eliminar</text><polygon fill="#F1F1F1" points="982.5,351.2939,994.5,363.2939,982.5,375.2939,970.5,363.2939,982.5,351.2939" style="stroke:#181818;stroke-width:0.5;"/><polygon fill="#F1F1F1" points="948,476.5752,1017,476.5752,1029,488.5752,1017,500.5752,948,500.5752,936,488.5752,948,476.5752" style="stroke:#181818;stroke-width:0.5;"/><text fill="#000000" font-family="sans-serif" font-size="11" lengthAdjust="spacing" textLength="69" x="948" y="493.0762">Cancha existe</text><polygon fill="#F1F1F1" points="916,520.5752,1049,520.5752,1061,532.5752,1049,544.5752,916,544.5752,904,532.5752,916,520.5752" style="stroke:#181818;stroke-width:0.5;"/><text fill="#000000" font-family="sans-serif" font-size="11" lengthAdjust="spacing" textLength="133" x="916" y="537.0762">Confirmación de eliminación</text><text fill="#000000" font-family="sans-serif" font-size="11" lengthAdjust="spacing" textLength="9" x="895" y="530.1582">Sí</text><text fill="#000000" font-family="sans-serif" font-size="11" lengthAdjust="spacing" textLength="13" x="1061" y="530.1582">No</text><rect fill="#F1F1F1" height="35.0938" rx="12.5" ry="12.5" style="stroke:#181818;stroke-width:0.5;" width="211" x="755" y="554.5752"/><text fill="#000000" font-family="sans-serif" font-size="12" lengthAdjust="spacing" textLength="191" x="765" y="577.0322">El Administrador elimina la cancha</text><rect fill="#F1F1F1" height="35.0938" rx="12.5" ry="12.5" style="stroke:#181818;stroke-width:0.5;" width="237" x="986" y="554.5752"/><text fill="#000000" font-family="sans-serif" font-size="12" lengthAdjust="spacing" textLength="217" x="996" y="577.0322">El Administrador cancela la eliminación</text><polygon fill="#F1F1F1" points="982.5,595.6689,994.5,607.6689,982.5,619.6689,970.5,607.6689,982.5,595.6689" style="stroke:#181818;stroke-width:0.5;"/><rect fill="#F1F1F1" height="50.1875" rx="12.5" ry="12.5" style="stroke:#181818;stroke-width:0.5;" width="184" x="1285" y="199.1875"/><text fill="#000000" font-family="sans-serif" font-size="12" lengthAdjust="spacing" textLength="93" x="1295" y="221.6445">Mostrar mensaje</text><text fill="#000000" font-family="sans-serif" font-size="12" lengthAdjust="spacing" textLength="164" x="1295" y="236.7383">(No hay canchas disponibles)</text><rect fill="#F1F1F1" height="35.0938" rx="12.5" ry="12.5" style="stroke:#181818;stroke-width:0.5;" width="252" x="1251" y="269.375"/><text fill="#000000" font-family="sans-serif" font-size="12" lengthAdjust="spacing" textLength="232" x="1261" y="291.832">El Administrador añade una nueva cancha</text><polygon fill="#F1F1F1" points="1032.5,645.6689,1044.5,657.6689,1032.5,669.6689,1020.5,657.6689,1032.5,645.6689" style="stroke:#181818;stroke-width:0.5;"/><polygon fill="#F1F1F1" points="1032.5,66.0938,1044.5,78.0938,1032.5,90.0938,1020.5,78.0938,1032.5,66.0938" style="stroke:#181818;stroke-width:0.5;"/><polygon fill="#F1F1F1" points="1010,689.6689,1055,689.6689,1067,701.6689,1055,713.6689,1010,713.6689,998,701.6689,1010,689.6689" style="stroke:#181818;stroke-width:0.5;"/><text fill="#000000" font-family="sans-serif" font-size="11" lengthAdjust="spacing" textLength="45" x="1010" y="706.1699">continuar</text><rect fill="#F1F1F1" height="35.0938" rx="12.5" ry="12.5" style="stroke:#181818;stroke-width:0.5;" width="159" x="953" y="733.6689"/><text fill="#000000" font-family="sans-serif" font-size="12" lengthAdjust="spacing" textLength="139" x="963" y="756.126">Volver a solicitar canchas</text><line style="stroke:#181818;stroke-width:1.0;" x1="470.5" x2="470.5" y1="375.2939" y2="406.3877"/><polygon fill="#181818" points="466.5,396.3877,470.5,406.3877,474.5,396.3877,470.5,400.3877" style="stroke:#181818;stroke-width:1.0;"/><line style="stroke:#181818;stroke-width:1.0;" x1="517" x2="565.5" y1="488.5752" y2="488.5752"/><polygon fill="#181818" points="561.5,441.4814,565.5,431.4814,569.5,441.4814,565.5,437.4814" style="stroke:#181818;stroke-width:1.0;"/><line style="stroke:#181818;stroke-width:1.0;" x1="565.5" x2="565.5" y1="363.2939" y2="488.5752"/><line style="stroke:#181818;stroke-width:1.0;" x1="565.5" x2="482.5" y1="363.2939" y2="363.2939"/><polygon fill="#181818" points="492.5,359.2939,482.5,363.2939,492.5,367.2939,488.5,363.2939" style="stroke:#181818;stroke-width:1.0;"/><line style="stroke:#181818;stroke-width:1.0;" x1="470.5" x2="470.5" y1="456.5752" y2="476.5752"/><polygon fill="#181818" points="466.5,466.5752,470.5,476.5752,474.5,466.5752,470.5,470.5752" style="stroke:#181818;stroke-width:1.0;"/><line style="stroke:#181818;stroke-width:1.0;" x1="388" x2="345.5" y1="532.5752" y2="532.5752"/><line style="stroke:#181818;stroke-width:1.0;" x1="345.5" x2="345.5" y1="532.5752" y2="554.5752"/><polygon fill="#181818" points="341.5,544.5752,345.5,554.5752,349.5,544.5752,345.5,548.5752" style="stroke:#181818;stroke-width:1.0;"/><line style="stroke:#181818;stroke-width:1.0;" x1="553" x2="595.5" y1="532.5752" y2="532.5752"/><line style="stroke:#181818;stroke-width:1.0;" x1="595.5" x2="595.5" y1="532.5752" y2="554.5752"/><polygon fill="#181818" points="591.5,544.5752,595.5,554.5752,599.5,544.5752,595.5,548.5752" style="stroke:#181818;stroke-width:1.0;"/><line style="stroke:#181818;stroke-width:1.0;" x1="345.5" x2="345.5" y1="589.6689" y2="607.6689"/><line style="stroke:#181818;stroke-width:1.0;" x1="345.5" x2="458.5" y1="607.6689" y2="607.6689"/><polygon fill="#181818" points="448.5,603.6689,458.5,607.6689,448.5,611.6689,452.5,607.6689" style="stroke:#181818;stroke-width:1.0;"/><line style="stroke:#181818;stroke-width:1.0;" x1="595.5" x2="595.5" y1="589.6689" y2="607.6689"/><line style="stroke:#181818;stroke-width:1.0;" x1="595.5" x2="482.5" y1="607.6689" y2="607.6689"/><polygon fill="#181818" points="492.5,603.6689,482.5,607.6689,492.5,611.6689,488.5,607.6689" style="stroke:#181818;stroke-width:1.0;"/><line style="stroke:#181818;stroke-width:1.0;" x1="470.5" x2="470.5" y1="500.5752" y2="520.5752"/><polygon fill="#181818" points="466.5,510.5752,470.5,520.5752,474.5,510.5752,470.5,514.5752" style="stroke:#181818;stroke-width:1.0;"/><line style="stroke:#181818;stroke-width:1.0;" x1="982.5" x2="982.5" y1="375.2939" y2="406.3877"/><polygon fill="#181818" points="978.5,396.3877,982.5,406.3877,986.5,396.3877,982.5,400.3877" style="stroke:#181818;stroke-width:1.0;"/><line style="stroke:#181818;stroke-width:1.0;" x1="1029" x2="1074.5" y1="488.5752" y2="488.5752"/><polygon fill="#181818" points="1070.5,441.4814,1074.5,431.4814,1078.5,441.4814,1074.5,437.4814" style="stroke:#181818;stroke-width:1.0;"/><line style="stroke:#181818;stroke-width:1.0;" x1="1074.5" x2="1074.5" y1="363.2939" y2="488.5752"/><line style="stroke:#181818;stroke-width:1.0;" x1="1074.5" x2="994.5" y1="363.2939" y2="363.2939"/><polygon fill="#181818" points="1004.5,359.2939,994.5,363.2939,1004.5,367.2939,1000.5,363.2939" style="stroke:#181818;stroke-width:1.0;"/><line style="stroke:#181818;stroke-width:1.0;" x1="982.5" x2="982.5" y1="456.5752" y2="476.5752"/><polygon fill="#181818" points="978.5,466.5752,982.5,476.5752,986.5,466.5752,982.5,470.5752" style="stroke:#181818;stroke-width:1.0;"/><line style="stroke:#181818;stroke-width:1.0;" x1="904" x2="860.5" y1="532.5752" y2="532.5752"/><line style="stroke:#181818;stroke-width:1.0;" x1="860.5" x2="860.5" y1="532.5752" y2="554.5752"/><polygon fill="#181818" points="856.5,544.5752,860.5,554.5752,864.5,544.5752,860.5,548.5752" style="stroke:#181818;stroke-width:1.0;"/><line style="stroke:#181818;stroke-width:1.0;" x1="1061" x2="1104.5" y1="532.5752" y2="532.5752"/><line style="stroke:#181818;stroke-width:1.0;" x1="1104.5" x2="1104.5" y1="532.5752" y2="554.5752"/><polygon fill="#181818" points="1100.5,544.5752,1104.5,554.5752,1108.5,544.5752,1104.5,548.5752" style="stroke:#181818;stroke-width:1.0;"/><line style="stroke:#181818;stroke-width:1.0;" x1="860.5" x2="860.5" y1="589.6689" y2="607.6689"/><line style="stroke:#181818;stroke-width:1.0;" x1="860.5" x2="970.5" y1="607.6689" y2="607.6689"/><polygon fill="#181818" points="960.5,603.6689,970.5,607.6689,960.5,611.6689,964.5,607.6689" style="stroke:#181818;stroke-width:1.0;"/><line style="stroke:#181818;stroke-width:1.0;" x1="1104.5" x2="1104.5" y1="589.6689" y2="607.6689"/><line style="stroke:#181818;stroke-width:1.0;" x1="1104.5" x2="994.5" y1="607.6689" y2="607.6689"/><polygon fill="#181818" points="1004.5,603.6689,994.5,607.6689,1004.5,611.6689,1000.5,607.6689" style="stroke:#181818;stroke-width:1.0;"/><line style="stroke:#181818;stroke-width:1.0;" x1="982.5" x2="982.5" y1="500.5752" y2="520.5752"/><polygon fill="#181818" points="978.5,510.5752,982.5,520.5752,986.5,510.5752,982.5,514.5752" style="stroke:#181818;stroke-width:1.0;"/><line style="stroke:#181818;stroke-width:1.0;" x1="119" x2="119" y1="318.375" y2="351.2939"/><polygon fill="#181818" points="115,341.2939,119,351.2939,123,341.2939,119,345.2939" style="stroke:#181818;stroke-width:1.0;"/><line style="stroke:#181818;stroke-width:1.0;" x1="119" x2="119" y1="386.3877" y2="639.6689"/><polygon fill="#181818" points="115,629.6689,119,639.6689,123,629.6689,119,633.6689" style="stroke:#181818;stroke-width:1.0;"/><line style="stroke:#181818;stroke-width:1.0;" x1="470.5" x2="470.5" y1="318.375" y2="351.2939"/><polygon fill="#181818" points="466.5,341.2939,470.5,351.2939,474.5,341.2939,470.5,345.2939" style="stroke:#181818;stroke-width:1.0;"/><line style="stroke:#181818;stroke-width:1.0;" x1="470.5" x2="470.5" y1="619.6689" y2="639.6689"/><polygon fill="#181818" points="466.5,629.6689,470.5,639.6689,474.5,629.6689,470.5,633.6689" style="stroke:#181818;stroke-width:1.0;"/><line style="stroke:#181818;stroke-width:1.0;" x1="982.5" x2="982.5" y1="318.375" y2="351.2939"/><polygon fill="#181818" points="978.5,341.2939,982.5,351.2939,986.5,341.2939,982.5,345.2939" style="stroke:#181818;stroke-width:1.0;"/><line style="stroke:#181818;stroke-width:1.0;" x1="982.5" x2="982.5" y1="619.6689" y2="639.6689"/><polygon fill="#181818" points="978.5,629.6689,982.5,639.6689,986.5,629.6689,982.5,633.6689" style="stroke:#181818;stroke-width:1.0;"/><line style="stroke:#181818;stroke-width:1.0;" x1="175" x2="408.5" y1="306.375" y2="306.375"/><polygon fill="#181818" points="398.5,302.375,408.5,306.375,398.5,310.375,402.5,306.375" style="stroke:#181818;stroke-width:1.0;"/><line style="stroke:#181818;stroke-width:1.0;" x1="532.5" x2="924.5" y1="306.375" y2="306.375"/><polygon fill="#181818" points="914.5,302.375,924.5,306.375,914.5,310.375,918.5,306.375" style="stroke:#181818;stroke-width:1.0;"/><line style="stroke:#181818;stroke-width:1.0;" x1="638" x2="638" y1="249.375" y2="269.375"/><line style="stroke:#181818;stroke-width:1.0;" x1="638" x2="119" y1="269.375" y2="269.375"/><line style="stroke:#181818;stroke-width:1.0;" x1="119" x2="119" y1="269.375" y2="294.375"/><polygon fill="#181818" points="115,284.375,119,294.375,123,284.375,119,288.375" style="stroke:#181818;stroke-width:1.0;"/><line style="stroke:#181818;stroke-width:1.0;" x1="1040.5" x2="1237" y1="306.375" y2="306.375"/><line style="stroke:#181818;stroke-width:1.0;" x1="1237" x2="1237" y1="306.375" y2="639.6689"/><polygon fill="#181818" points="1233,629.6689,1237,639.6689,1241,629.6689,1237,633.6689" style="stroke:#181818;stroke-width:1.0;"/><line style="stroke:#181818;stroke-width:1.0;" x1="119" x2="1237" y1="639.6689" y2="639.6689"/><line style="stroke:#181818;stroke-width:1.0;" x1="1377" x2="1377" y1="249.375" y2="269.375"/><polygon fill="#181818" points="1373,259.375,1377,269.375,1381,259.375,1377,263.375" style="stroke:#181818;stroke-width:1.0;"/><line style="stroke:#181818;stroke-width:1.0;" x1="954" x2="638" y1="177.1875" y2="177.1875"/><line style="stroke:#181818;stroke-width:1.0;" x1="638" x2="638" y1="177.1875" y2="199.1875"/><polygon fill="#181818" points="634,189.1875,638,199.1875,642,189.1875,638,193.1875" style="stroke:#181818;stroke-width:1.0;"/><line style="stroke:#181818;stroke-width:1.0;" x1="1111" x2="1377" y1="177.1875" y2="177.1875"/><line style="stroke:#181818;stroke-width:1.0;" x1="1377" x2="1377" y1="177.1875" y2="199.1875"/><polygon fill="#181818" points="1373,189.1875,1377,199.1875,1381,189.1875,1377,193.1875" style="stroke:#181818;stroke-width:1.0;"/><line style="stroke:#181818;stroke-width:1.0;" x1="638" x2="638" y1="639.6689" y2="657.6689"/><line style="stroke:#181818;stroke-width:1.0;" x1="638" x2="1020.5" y1="657.6689" y2="657.6689"/><polygon fill="#181818" points="1010.5,653.6689,1020.5,657.6689,1010.5,661.6689,1014.5,657.6689" style="stroke:#181818;stroke-width:1.0;"/><line style="stroke:#181818;stroke-width:1.0;" x1="1377" x2="1377" y1="304.4688" y2="657.6689"/><line style="stroke:#181818;stroke-width:1.0;" x1="1377" x2="1044.5" y1="657.6689" y2="657.6689"/><polygon fill="#181818" points="1054.5,653.6689,1044.5,657.6689,1054.5,661.6689,1050.5,657.6689" style="stroke:#181818;stroke-width:1.0;"/><line style="stroke:#181818;stroke-width:1.0;" x1="1032.5" x2="1032.5" y1="145.1875" y2="165.1875"/><polygon fill="#181818" points="1028.5,155.1875,1032.5,165.1875,1036.5,155.1875,1032.5,159.1875" style="stroke:#181818;stroke-width:1.0;"/><line style="stroke:#181818;stroke-width:1.0;" x1="1032.5" x2="1032.5" y1="90.0938" y2="110.0938"/><polygon fill="#181818" points="1028.5,100.0938,1032.5,110.0938,1036.5,100.0938,1032.5,104.0938" style="stroke:#181818;stroke-width:1.0;"/><line style="stroke:#181818;stroke-width:1.0;" x1="1067" x2="1517" y1="701.6689" y2="701.6689"/><polygon fill="#181818" points="1513,424.9697,1517,414.9697,1521,424.9697,1517,420.9697" style="stroke:#181818;stroke-width:1.0;"/><line style="stroke:#181818;stroke-width:1.0;" x1="1517" x2="1517" y1="78.0938" y2="701.6689"/><line style="stroke:#181818;stroke-width:1.0;" x1="1517" x2="1044.5" y1="78.0938" y2="78.0938"/><polygon fill="#181818" points="1054.5,74.0938,1044.5,78.0938,1054.5,82.0938,1050.5,78.0938" style="stroke:#181818;stroke-width:1.0;"/><line style="stroke:#181818;stroke-width:1.0;" x1="1032.5" x2="1032.5" y1="669.6689" y2="689.6689"/><polygon fill="#181818" points="1028.5,679.6689,1032.5,689.6689,1036.5,679.6689,1032.5,683.6689" style="stroke:#181818;stroke-width:1.0;"/><line style="stroke:#181818;stroke-width:1.0;" x1="1032.5" x2="1032.5" y1="46.0938" y2="66.0938"/><polygon fill="#181818" points="1028.5,56.0938,1032.5,66.0938,1036.5,56.0938,1032.5,60.0938" style="stroke:#181818;stroke-width:1.0;"/><line style="stroke:#181818;stroke-width:1.0;" x1="1032.5" x2="1032.5" y1="713.6689" y2="733.6689"/><polygon fill="#181818" points="1028.5,723.6689,1032.5,733.6689,1036.5,723.6689,1032.5,727.6689" style="stroke:#181818;stroke-width:1.0;"/><!--MD5=[6d39a2120b0ddddbef4ccdb200ea4e0a]
@startuml
:Inicio;

repeat

:Administrador solicita canchas;

  if (¿Hay canchas disponibles?) then (Sí)
    :Ofrecer opciones\n(Añadir/Modificar/Eliminar canchas);

    if (Selecciona Añadir) then (Añadir)
      :El Administrador añade una cancha;

    else if (Selecciona Modificar) then (Modificar)
      
      repeat
        :El Administrador elige\nuna cancha para modificar;
      repeat while (Cancha existe)

      if (Confirmación de modificación) then (Sí)
        :El Administrador modifica la cancha;

      else (No)
        :El Administrador cancela la modificación;
      endif

    else if (Selecciona Eliminar) then (Eliminar)

      repeat
        :El Administrador elige\nuna cancha para eliminar;
      repeat while (Cancha existe)

      if (Confirmación de eliminación) then (Sí)
        :El Administrador elimina la cancha;

      else (No)
        :El Administrador cancela la eliminación;
      endif
    endif

  else (No)
    :Mostrar mensaje\n(No hay canchas disponibles);
    :El Administrador añade una nueva cancha;
  endif
  
repeat while (continuar)

:Volver a solicitar canchas;
@enduml

PlantUML version 1.2022.7(Mon Aug 22 19:01:30 CEST 2022)
(GPL source distribution)
Java Runtime: Java(TM) SE Runtime Environment
JVM: Java HotSpot(TM) 64-Bit Server VM
Default Encoding: Cp1252
Language: es
Country: ES
--></g></svg>