<?xml version="1.0" encoding="us-ascii" standalone="no"?><svg xmlns="http://www.w3.org/2000/svg" xmlns:xlink="http://www.w3.org/1999/xlink" contentStyleType="text/css" height="232px" preserveAspectRatio="none" style="width:97px;height:232px;background:#FFFFFF;" version="1.1" viewBox="0 0 97 232" width="97px" zoomAndPan="magnify"><defs/><g><ellipse cx="49" cy="16" fill="#222222" rx="10" ry="10" style="stroke:#222222;stroke-width:1.0;"/><rect fill="#F1F1F1" height="40" rx="12.5" ry="12.5" style="stroke:#181818;stroke-width:0.5;" width="84" x="7" y="86"/><text fill="#000000" font-family="sans-serif" font-size="14" lengthAdjust="spacing" textLength="74" x="12" y="110.8467">Encendido</text><rect fill="#F1F1F1" height="40" rx="12.5" ry="12.5" style="stroke:#181818;stroke-width:0.5;" width="71" x="13.5" y="186"/><text fill="#000000" font-family="sans-serif" font-size="14" lengthAdjust="spacing" textLength="61" x="18.5" y="210.8467">Apagado</text><!--link *start* to Encendido--><g id="link_*start*_Encendido"><path d="M49,26.42 C49,40.52 49,61.42 49,79.78 " fill="none" id="*start*-to-Encendido" style="stroke:#181818;stroke-width:1.0;"/><polygon fill="#181818" points="49,85.78,53,76.78,49,80.78,45,76.78,49,85.78" style="stroke:#181818;stroke-width:1.0;"/></g><!--link Encendido to Apagado--><g id="link_Encendido_Apagado"><path d="M38.6,126.36 C35.46,143.54 34.3906,162.6079 37.5306,179.7779 " fill="none" id="Encendido-to-Apagado" style="stroke:#181818;stroke-width:1.0;"/><polygon fill="#181818" points="38.61,185.68,40.9257,176.1073,37.7105,180.7616,33.0562,177.5464,38.61,185.68" style="stroke:#181818;stroke-width:1.0;"/></g><!--link Apagado to Encendido--><g id="link_Apagado_Encendido"><path d="M60,185.68 C63.33,168.51 64.4684,149.431 61.1484,132.251 " fill="none" id="Apagado-to-Encendido" style="stroke:#181818;stroke-width:1.0;"/><polygon fill="#181818" points="60.01,126.36,57.7903,135.9555,60.9587,131.2692,65.645,134.4376,60.01,126.36" style="stroke:#181818;stroke-width:1.0;"/></g><!--SRC=[oyXCILL8pIqegLH8IIrEBieiACdCp-EArefLqDMrKt3DIqxDIybCoUU2iq32ZWM9wOb0GIYDeX80]--></g></svg>