<?xml version="1.0" encoding="us-ascii" standalone="no"?><svg xmlns="http://www.w3.org/2000/svg" xmlns:xlink="http://www.w3.org/1999/xlink" contentStyleType="text/css" height="837px" preserveAspectRatio="none" style="width:826px;height:837px;background:#FFFFFF;" version="1.1" viewBox="0 0 826 837" width="826px" zoomAndPan="magnify"><defs/><g><ellipse cx="316" cy="16" fill="#222222" rx="10" ry="10" style="stroke:#222222;stroke-width:1.0;"/><g id="VerNotificaciones"><rect fill="#F1F1F1" height="50" rx="12.5" ry="12.5" style="stroke:#181818;stroke-width:0.5;" width="139" x="246.5" y="87"/><line style="stroke:#181818;stroke-width:0.5;" x1="246.5" x2="385.5" y1="113.2969" y2="113.2969"/><text fill="#000000" font-family="sans-serif" font-size="14" lengthAdjust="spacing" textLength="119" x="256.5" y="104.9951">VerNotificaciones</text></g><g id="elem_GMN5"><path d="M421,91.87 L421,108 L385.93,112 L421,116 L421,132.1356 A0,0 0 0 0 421,132.1356 L673,132.1356 A0,0 0 0 0 673,132.1356 L673,101.87 L663,91.87 L421,91.87 A0,0 0 0 0 421,91.87 " fill="#FEFFDD" style="stroke:#181818;stroke-width:0.5;"/><path d="M663,91.87 L663,101.87 L673,101.87 L663,91.87 " fill="#FEFFDD" style="stroke:#181818;stroke-width:0.5;"/><text fill="#000000" font-family="sans-serif" font-size="13" lengthAdjust="spacing" textLength="227" x="427" y="108.9369">El administrador accede a la opci&#243;n</text><text fill="#000000" font-family="sans-serif" font-size="13" lengthAdjust="spacing" textLength="157" x="427" y="124.0697">de ver sus notificaciones</text></g><g id="SeleccionarNotificacion"><rect fill="#F1F1F1" height="50" rx="12.5" ry="12.5" style="stroke:#181818;stroke-width:0.5;" width="179" x="226.5" y="198"/><line style="stroke:#181818;stroke-width:0.5;" x1="226.5" x2="405.5" y1="224.2969" y2="224.2969"/><text fill="#000000" font-family="sans-serif" font-size="14" lengthAdjust="spacing" textLength="159" x="236.5" y="215.9951">SeleccionarNotificacion</text></g><g id="elem_GMN10"><path d="M440.5,202.87 L440.5,219 L405.91,223 L440.5,227 L440.5,243.1356 A0,0 0 0 0 440.5,243.1356 L731.5,243.1356 A0,0 0 0 0 731.5,243.1356 L731.5,212.87 L721.5,202.87 L440.5,202.87 A0,0 0 0 0 440.5,202.87 " fill="#FEFFDD" style="stroke:#181818;stroke-width:0.5;"/><path d="M721.5,202.87 L721.5,212.87 L731.5,212.87 L721.5,202.87 " fill="#FEFFDD" style="stroke:#181818;stroke-width:0.5;"/><text fill="#000000" font-family="sans-serif" font-size="13" lengthAdjust="spacing" textLength="266" x="446.5" y="219.9369">El administrador selecciona la notificaci&#243;n</text><text fill="#000000" font-family="sans-serif" font-size="13" lengthAdjust="spacing" textLength="133" x="446.5" y="235.0697">que desea actualizar</text></g><g id="ActualizarEstado"><rect fill="#F1F1F1" height="50" rx="12.5" ry="12.5" style="stroke:#181818;stroke-width:0.5;" width="134" x="249" y="309"/><line style="stroke:#181818;stroke-width:0.5;" x1="249" x2="383" y1="335.2969" y2="335.2969"/><text fill="#000000" font-family="sans-serif" font-size="14" lengthAdjust="spacing" textLength="114" x="259" y="326.9951">ActualizarEstado</text></g><g id="elem_GMN15"><path d="M417.5,313.87 L417.5,330 L383.35,334 L417.5,338 L417.5,354.1356 A0,0 0 0 0 417.5,354.1356 L632.5,354.1356 A0,0 0 0 0 632.5,354.1356 L632.5,323.87 L622.5,313.87 L417.5,313.87 A0,0 0 0 0 417.5,313.87 " fill="#FEFFDD" style="stroke:#181818;stroke-width:0.5;"/><path d="M622.5,313.87 L622.5,323.87 L632.5,323.87 L622.5,313.87 " fill="#FEFFDD" style="stroke:#181818;stroke-width:0.5;"/><text fill="#000000" font-family="sans-serif" font-size="13" lengthAdjust="spacing" textLength="190" x="423.5" y="330.9369">El sistema actualiza el estado</text><text fill="#000000" font-family="sans-serif" font-size="13" lengthAdjust="spacing" textLength="194" x="423.5" y="346.0697">de la notificaci&#243;n seleccionada</text></g><g id="ConfirmarActualizacion"><rect fill="#F1F1F1" height="50" rx="12.5" ry="12.5" style="stroke:#181818;stroke-width:0.5;" width="176" x="7" y="438.7"/><line style="stroke:#181818;stroke-width:0.5;" x1="7" x2="183" y1="464.9969" y2="464.9969"/><text fill="#000000" font-family="sans-serif" font-size="14" lengthAdjust="spacing" textLength="156" x="17" y="456.6951">ConfirmarActualizacion</text></g><g id="elem_GMN20"><path d="M217.5,436 L217.5,459.7 L183,463.7 L217.5,467.7 L217.5,491.3984 A0,0 0 0 0 217.5,491.3984 L484.5,491.3984 A0,0 0 0 0 484.5,491.3984 L484.5,446 L474.5,436 L217.5,436 A0,0 0 0 0 217.5,436 " fill="#FEFFDD" style="stroke:#181818;stroke-width:0.5;"/><path d="M474.5,436 L474.5,446 L484.5,446 L474.5,436 " fill="#FEFFDD" style="stroke:#181818;stroke-width:0.5;"/><text fill="#000000" font-family="sans-serif" font-size="13" lengthAdjust="spacing" textLength="209" x="223.5" y="453.0669">Despu&#233;s de actualizar el estado,</text><text fill="#000000" font-family="sans-serif" font-size="13" lengthAdjust="spacing" textLength="226" x="223.5" y="468.1997">se confirma al administrador que la</text><text fill="#000000" font-family="sans-serif" font-size="13" lengthAdjust="spacing" textLength="246" x="223.5" y="483.3325">actualizaci&#243;n se ha realizado con &#233;xito</text></g><ellipse cx="327" cy="820.8" fill="none" rx="11" ry="11" style="stroke:#222222;stroke-width:1.0;"/><ellipse cx="327" cy="820.8" fill="#222222" rx="6" ry="6" style="stroke:#222222;stroke-width:1.0;"/><g id="MostrarConfirmacion"><rect fill="#F1F1F1" height="50" rx="12.5" ry="12.5" style="stroke:#181818;stroke-width:0.5;" width="162" x="31" y="696.1"/><line style="stroke:#181818;stroke-width:0.5;" x1="31" x2="193" y1="722.3969" y2="722.3969"/><text fill="#000000" font-family="sans-serif" font-size="14" lengthAdjust="spacing" textLength="142" x="41" y="714.0951">MostrarConfirmacion</text></g><g id="elem_GMN27"><path d="M228,693.4 L228,717.1 L193.43,721.1 L228,725.1 L228,748.7984 A0,0 0 0 0 228,748.7984 L478,748.7984 A0,0 0 0 0 478,748.7984 L478,703.4 L468,693.4 L228,693.4 A0,0 0 0 0 228,693.4 " fill="#FEFFDD" style="stroke:#181818;stroke-width:0.5;"/><path d="M468,693.4 L468,703.4 L478,703.4 L468,693.4 " fill="#FEFFDD" style="stroke:#181818;stroke-width:0.5;"/><text fill="#000000" font-family="sans-serif" font-size="13" lengthAdjust="spacing" textLength="139" x="234" y="710.4669">El sistema muestra al</text><text fill="#000000" font-family="sans-serif" font-size="13" lengthAdjust="spacing" textLength="203" x="234" y="725.5997">administrador una confirmaci&#243;n</text><text fill="#000000" font-family="sans-serif" font-size="13" lengthAdjust="spacing" textLength="229" x="234" y="740.7325">de la actualizaci&#243;n de la notificaci&#243;n</text></g><!--link *start* to VerNotificaciones--><g id="link_*start*_VerNotificaciones"><path d="M316,26.36 C316,40.29 316,60.96 316,80.65 " fill="none" id="*start*-to-VerNotificaciones" style="stroke:#181818;stroke-width:1.0;"/><polygon fill="#181818" points="316,86.65,320,77.65,316,81.65,312,77.65,316,86.65" style="stroke:#181818;stroke-width:1.0;"/></g><!--link VerNotificaciones to SeleccionarNotificacion--><g id="link_VerNotificaciones_SeleccionarNotificacion"><path d="M316,137.46 C316,155.42 316,173.69 316,191.62 " fill="none" id="VerNotificaciones-to-SeleccionarNotificacion" style="stroke:#181818;stroke-width:1.0;"/><polygon fill="#181818" points="316,197.62,320,188.62,316,192.62,312,188.62,316,197.62" style="stroke:#181818;stroke-width:1.0;"/></g><!--link SeleccionarNotificacion to ActualizarEstado--><g id="link_SeleccionarNotificacion_ActualizarEstado"><path d="M316,248.46 C316,266.42 316,284.69 316,302.62 " fill="none" id="SeleccionarNotificacion-to-ActualizarEstado" style="stroke:#181818;stroke-width:1.0;"/><polygon fill="#181818" points="316,308.62,320,299.62,316,303.62,312,299.62,316,308.62" style="stroke:#181818;stroke-width:1.0;"/></g><!--link ActualizarEstado to ConfirmarActualizacion--><g id="link_ActualizarEstado_ConfirmarActualizacion"><path d="M273.65,359.47 C234.42,382.14 181.585,412.6681 142.405,435.3081 " fill="none" id="ActualizarEstado-to-ConfirmarActualizacion" style="stroke:#181818;stroke-width:1.0;"/><polygon fill="#181818" points="137.21,438.31,147.0038,437.2705,141.5392,435.8084,143.0013,430.3437,137.21,438.31" style="stroke:#181818;stroke-width:1.0;"/><text fill="#000000" font-family="sans-serif" font-size="13" lengthAdjust="spacing" textLength="134" x="220" y="402.0669">Actualizaci&#243;n exitosa</text></g><!--link ActualizarEstado to *end*--><g id="link_ActualizarEstado_*end*"><path d="M383.21,359.37 C448.23,385.08 537,426.75 537,462.7 C537,462.7 537,462.7 537,722.1 C537,810.56 387.9093,819.0379 344.2893,819.7079 " fill="none" id="ActualizarEstado-to-*end*" style="stroke:#181818;stroke-width:1.0;"/><polygon fill="#181818" points="338.29,819.8,347.3504,823.6613,343.2894,819.7232,347.2275,815.6622,338.29,819.8" style="stroke:#181818;stroke-width:1.0;"/><path d="M542,557.4 L542,627.4 L819,627.4 L819,567.4 L809,557.4 L542,557.4 " fill="#FEFFDD" style="stroke:#181818;stroke-width:0.5;"/><path d="M809,557.4 L809,567.4 L819,567.4 L809,557.4 " fill="#FEFFDD" style="stroke:#181818;stroke-width:0.5;"/><text fill="#000000" font-family="sans-serif" font-size="13" font-weight="bold" lengthAdjust="spacing" textLength="167" x="548" y="574.4669">Error de Actualizaci&#243;n:</text><text fill="#000000" font-family="sans-serif" font-size="13" lengthAdjust="spacing" textLength="238" x="548" y="589.5997">Se muestra un error al administrador</text><text fill="#000000" font-family="sans-serif" font-size="13" lengthAdjust="spacing" textLength="250" x="548" y="604.7325">si no se puede actualizar la notificaci&#243;n</text><text fill="#000000" font-family="sans-serif" font-size="13" lengthAdjust="spacing" textLength="256" x="548" y="619.8653">y se le recomienda intentarlo m&#225;s tarde</text></g><!--link ConfirmarActualizacion to MostrarConfirmacion--><g id="link_ConfirmarActualizacion_MostrarConfirmacion"><path d="M96.63,489.19 C99.88,538.01 106.7322,640.9432 109.9722,689.7032 " fill="none" id="ConfirmarActualizacion-to-MostrarConfirmacion" style="stroke:#181818;stroke-width:1.0;"/><polygon fill="#181818" points="110.37,695.69,113.7645,686.4446,110.0385,690.701,105.7821,686.975,110.37,695.69" style="stroke:#181818;stroke-width:1.0;"/><path d="M112,572.4 L112,612.4 L421,612.4 L421,582.4 L411,572.4 L112,572.4 " fill="#FEFFDD" style="stroke:#181818;stroke-width:0.5;"/><path d="M411,572.4 L411,582.4 L421,582.4 L411,572.4 " fill="#FEFFDD" style="stroke:#181818;stroke-width:0.5;"/><text fill="#000000" font-family="sans-serif" font-size="13" lengthAdjust="spacing" textLength="284" x="118" y="589.4669">Se muestra al administrador la confirmaci&#243;n</text><text fill="#000000" font-family="sans-serif" font-size="13" lengthAdjust="spacing" textLength="229" x="118" y="604.5997">de la actualizaci&#243;n de la notificaci&#243;n</text></g><!--link MostrarConfirmacion to *end*--><g id="link_MostrarConfirmacion_*end*"><path d="M165.7,746.5 C217.19,769.9 285.4075,800.8978 311.7275,812.8578 " fill="none" id="MostrarConfirmacion-to-*end*" style="stroke:#181818;stroke-width:1.0;"/><polygon fill="#181818" points="317.19,815.34,310.6511,807.9751,312.6379,813.2715,307.3415,815.2584,317.19,815.34" style="stroke:#181818;stroke-width:1.0;"/></g><!--SRC=[hP8xJWCn48PxdsBg5Rb02YG4AQ51eebIZBmJOk6rWny8k0rbQewm5sFi9RlUHqH3Py_p-sTcM-rWjRg69t8FDgYzaYYLDUI5iO70gUT30BjVyCD60zQDCie7XxLrW59IJO2W4UnHglRRW02sl9437psOSGKoTJAH4BFgcUcHDCdqnv5tGdOfQixd-yX4EC1qdA-HcDKJieuGKQjFT0NYXJOPzAPFsFZ0hIQ4CtT2yun5JT4CI0DbVpUq6UA0NsC1DgsUYMwjsIlNeEkz6NODnJ_Lf7SLhCS9y7AsW3lonzYUVC8RXZI0Np6v9v2_wO3J3QGPiounP9-bmG71KJQn1Au0xIcn_ILqM-qwUCxGoho8gjeunwqOSQnrNLMyH6WY9Hg8B3u7pY25LzmnCHqZZPLETo8-KfZcqP6qZM9M16K2cO1EMsZQBm_yhAcGSM4rgwJctYO8TmuPhZt9w_GL4cRaZ2Vxr7pLtHrDfhrmN0FV-1AMW8hZBKZ462MQVs0H2-tFM_y1]--></g></svg>