<svg xmlns="http://www.w3.org/2000/svg" xmlns:xlink="http://www.w3.org/1999/xlink" contentStyleType="text/css" height="1052px" preserveAspectRatio="none" style="width:720px;height:1052px;background:#FFFFFF;" version="1.1" viewBox="0 0 720 1052" width="720px" zoomAndPan="magnify"><defs/><g><ellipse cx="259" cy="16" fill="#222222" rx="10" ry="10" style="stroke:#222222;stroke-width:1.0;"/><g id="VerNotificaciones"><rect fill="#F1F1F1" height="50" rx="12.5" ry="12.5" style="stroke:#181818;stroke-width:0.5;" width="139" x="189.5" y="166"/><line style="stroke:#181818;stroke-width:0.5;" x1="189.5" x2="328.5" y1="192.2969" y2="192.2969"/><text fill="#000000" font-family="sans-serif" font-size="14" lengthAdjust="spacing" textLength="119" x="199.5" y="183.9951">VerNotificaciones</text></g><g id="SeleccionarNotificacion"><rect fill="#F1F1F1" height="50" rx="12.5" ry="12.5" style="stroke:#181818;stroke-width:0.5;" width="179" x="169.5" y="326"/><line style="stroke:#181818;stroke-width:0.5;" x1="169.5" x2="348.5" y1="352.2969" y2="352.2969"/><text fill="#000000" font-family="sans-serif" font-size="14" lengthAdjust="spacing" textLength="159" x="179.5" y="343.9951">SeleccionarNotificacion</text></g><g id="ActualizarEstado"><rect fill="#F1F1F1" height="50" rx="12.5" ry="12.5" style="stroke:#181818;stroke-width:0.5;" width="134" x="192" y="486"/><line style="stroke:#181818;stroke-width:0.5;" x1="192" x2="326" y1="512.2969" y2="512.2969"/><text fill="#000000" font-family="sans-serif" font-size="14" lengthAdjust="spacing" textLength="114" x="202" y="503.9951">ActualizarEstado</text></g><g id="ConfirmarActualizacion"><rect fill="#F1F1F1" height="50" rx="12.5" ry="12.5" style="stroke:#181818;stroke-width:0.5;" width="176" x="7" y="646"/><line style="stroke:#181818;stroke-width:0.5;" x1="7" x2="183" y1="672.2969" y2="672.2969"/><text fill="#000000" font-family="sans-serif" font-size="14" lengthAdjust="spacing" textLength="156" x="17" y="663.9951">ConfirmarActualizacion</text></g><ellipse cx="290" cy="1035" fill="none" rx="11" ry="11" style="stroke:#222222;stroke-width:1.0;"/><ellipse cx="290" cy="1035" fill="#222222" rx="6" ry="6" style="stroke:#222222;stroke-width:1.0;"/><g id="MostrarConfirmacion"><rect fill="#F1F1F1" height="50" rx="12.5" ry="12.5" style="stroke:#181818;stroke-width:0.5;" width="162" x="93" y="913"/><line style="stroke:#181818;stroke-width:0.5;" x1="93" x2="255" y1="939.2969" y2="939.2969"/><text fill="#000000" font-family="sans-serif" font-size="14" lengthAdjust="spacing" textLength="142" x="103" y="930.9951">MostrarConfirmacion</text></g><!--link *start* to VerNotificaciones--><g id="link_*start*_VerNotificaciones"><path d="M259,26.3 C259,52.34 259,120.59 259,159.52 " fill="none" id="*start*-to-VerNotificaciones" style="stroke:#181818;stroke-width:1.0;"/><polygon fill="#181818" points="259,165.52,263,156.52,259,160.52,255,156.52,259,165.52" style="stroke:#181818;stroke-width:1.0;"/><path d="M264,61 L264,131 L531,131 L531,71 L521,61 L264,61 " fill="#FEFFDD" style="stroke:#181818;stroke-width:0.5;"/><path d="M521,61 L521,71 L531,71 L521,61 " fill="#FEFFDD" style="stroke:#181818;stroke-width:0.5;"/><text fill="#000000" font-family="sans-serif" font-size="13" lengthAdjust="spacing" textLength="11" x="270" y="78.0669">El</text><text fill="#000000" font-family="sans-serif" font-size="13" font-weight="bold" lengthAdjust="spacing" textLength="104" x="285" y="78.0669">administrador</text><text fill="#000000" font-family="sans-serif" font-size="13" lengthAdjust="spacing" textLength="119" x="393" y="78.0669">accede a la opci&#243;n</text><text fill="#000000" font-family="sans-serif" font-size="13" lengthAdjust="spacing" textLength="157" x="270" y="93.1997">de ver sus notificaciones</text><text fill="#000000" font-family="sans-serif" font-size="13" lengthAdjust="spacing" textLength="4" x="270" y="108.3325">&#160;</text><text fill="#000000" font-family="sans-serif" font-size="13" lengthAdjust="spacing" textLength="11" x="270" y="123.4653">El</text><text fill="#000000" font-family="sans-serif" font-size="13" font-weight="bold" lengthAdjust="spacing" textLength="58" x="285" y="123.4653">sistema</text><text fill="#000000" font-family="sans-serif" font-size="13" lengthAdjust="spacing" textLength="167" x="347" y="123.4653">muestra las notificaciones</text></g><!--link VerNotificaciones to SeleccionarNotificacion--><g id="link_VerNotificaciones_SeleccionarNotificacion"><path d="M259,216.34 C259,246.03 259,289.93 259,319.63 " fill="none" id="VerNotificaciones-to-SeleccionarNotificacion" style="stroke:#181818;stroke-width:1.0;"/><polygon fill="#181818" points="259,325.63,263,316.63,259,320.63,255,316.63,259,325.63" style="stroke:#181818;stroke-width:1.0;"/><path d="M264,251 L264,291 L570,291 L570,261 L560,251 L264,251 " fill="#FEFFDD" style="stroke:#181818;stroke-width:0.5;"/><path d="M560,251 L560,261 L570,261 L560,251 " fill="#FEFFDD" style="stroke:#181818;stroke-width:0.5;"/><text fill="#000000" font-family="sans-serif" font-size="13" lengthAdjust="spacing" textLength="11" x="270" y="268.0669">El</text><text fill="#000000" font-family="sans-serif" font-size="13" font-weight="bold" lengthAdjust="spacing" textLength="104" x="285" y="268.0669">administrador</text><text fill="#000000" font-family="sans-serif" font-size="13" lengthAdjust="spacing" textLength="158" x="393" y="268.0669">selecciona la notificaci&#243;n</text><text fill="#000000" font-family="sans-serif" font-size="13" lengthAdjust="spacing" textLength="133" x="270" y="283.1997">que desea actualizar</text></g><!--link SeleccionarNotificacion to ActualizarEstado--><g id="link_SeleccionarNotificacion_ActualizarEstado"><path d="M259,376.34 C259,406.03 259,449.93 259,479.63 " fill="none" id="SeleccionarNotificacion-to-ActualizarEstado" style="stroke:#181818;stroke-width:1.0;"/><polygon fill="#181818" points="259,485.63,263,476.63,259,480.63,255,476.63,259,485.63" style="stroke:#181818;stroke-width:1.0;"/><path d="M264,411 L264,451 L486,451 L486,421 L476,411 L264,411 " fill="#FEFFDD" style="stroke:#181818;stroke-width:0.5;"/><path d="M476,411 L476,421 L486,421 L476,411 " fill="#FEFFDD" style="stroke:#181818;stroke-width:0.5;"/><text fill="#000000" font-family="sans-serif" font-size="13" lengthAdjust="spacing" textLength="11" x="270" y="428.0669">El</text><text fill="#000000" font-family="sans-serif" font-size="13" font-weight="bold" lengthAdjust="spacing" textLength="58" x="285" y="428.0669">sistema</text><text fill="#000000" font-family="sans-serif" font-size="13" lengthAdjust="spacing" textLength="120" x="347" y="428.0669">actualiza el estado</text><text fill="#000000" font-family="sans-serif" font-size="13" lengthAdjust="spacing" textLength="194" x="270" y="443.1997">de la notificaci&#243;n seleccionada</text></g><!--link ActualizarEstado to ConfirmarActualizacion--><g id="link_ActualizarEstado_ConfirmarActualizacion"><path d="M191.67,536.16 C176.05,543.97 160.39,553.84 148,566 C125.15,588.43 112.2918,617.1233 104.2818,640.1433 " fill="none" id="ActualizarEstado-to-ConfirmarActualizacion" style="stroke:#181818;stroke-width:1.0;"/><polygon fill="#181818" points="102.31,645.81,109.0455,638.6244,103.9532,641.0877,101.4899,635.9953,102.31,645.81" style="stroke:#181818;stroke-width:1.0;"/><path d="M153,571 L153,611 L375,611 L375,581 L365,571 L153,571 " fill="#FEFFDD" style="stroke:#181818;stroke-width:0.5;"/><path d="M365,571 L365,581 L375,581 L365,571 " fill="#FEFFDD" style="stroke:#181818;stroke-width:0.5;"/><text fill="#000000" font-family="sans-serif" font-size="13" lengthAdjust="spacing" textLength="11" x="159" y="588.0669">El</text><text fill="#000000" font-family="sans-serif" font-size="13" font-weight="bold" lengthAdjust="spacing" textLength="58" x="174" y="588.0669">sistema</text><text fill="#000000" font-family="sans-serif" font-size="13" lengthAdjust="spacing" textLength="120" x="236" y="588.0669">actualiza el estado</text><text fill="#000000" font-family="sans-serif" font-size="13" lengthAdjust="spacing" textLength="107" x="159" y="603.1997">de la notificaci&#243;n</text></g><!--link ActualizarEstado to *end*--><g id="link_ActualizarEstado_*end*"><path d="M326.31,527.83 C347.57,535.95 369.33,548.07 384,566 C413.92,602.57 406,622.75 406,670 C406,670 406,670 406,939 C406,993.14 335.1498,1020.2398 306.4398,1029.1598 " fill="none" id="ActualizarEstado-to-*end*" style="stroke:#181818;stroke-width:1.0;"/><polygon fill="#181818" points="300.71,1030.94,310.4915,1032.0896,305.4848,1029.4565,308.1179,1024.4498,300.71,1030.94" style="stroke:#181818;stroke-width:1.0;"/><path d="M411,762 L411,847 L713,847 L713,772 L703,762 L411,762 " fill="#FEFFDD" style="stroke:#181818;stroke-width:0.5;"/><path d="M703,762 L703,772 L713,772 L703,762 " fill="#FEFFDD" style="stroke:#181818;stroke-width:0.5;"/><text fill="#000000" font-family="sans-serif" font-size="13" font-weight="bold" lengthAdjust="spacing" textLength="167" x="417" y="779.0669">Error de Actualizaci&#243;n:</text><text fill="#000000" font-family="sans-serif" font-size="13" lengthAdjust="spacing" textLength="11" x="417" y="794.1997">el</text><text fill="#000000" font-family="sans-serif" font-size="13" font-weight="bold" lengthAdjust="spacing" textLength="58" x="432" y="794.1997">sistema</text><text fill="#000000" font-family="sans-serif" font-size="13" lengthAdjust="spacing" textLength="139" x="494" y="794.1997">le muestra un error al</text><text fill="#000000" font-family="sans-serif" font-size="13" font-weight="bold" lengthAdjust="spacing" textLength="104" x="417" y="809.3325">administrador</text><text fill="#000000" font-family="sans-serif" font-size="13" lengthAdjust="spacing" textLength="159" x="525" y="809.3325">si no se puede actualizar</text><text fill="#000000" font-family="sans-serif" font-size="13" lengthAdjust="spacing" textLength="277" x="417" y="824.4653">la notificaci&#243;n y se le recomienda intentarlo</text><text fill="#000000" font-family="sans-serif" font-size="13" lengthAdjust="spacing" textLength="66" x="417" y="839.5981">m&#225;s tarde</text></g><!--link ConfirmarActualizacion to MostrarConfirmacion--><g id="link_ConfirmarActualizacion_MostrarConfirmacion"><path d="M91.31,696.29 C86.95,731.84 82.63,799.51 103,852 C112.11,875.48 126.2231,892.9718 142.0031,908.5718 " fill="none" id="ConfirmarActualizacion-to-MostrarConfirmacion" style="stroke:#181818;stroke-width:1.0;"/><polygon fill="#181818" points="146.27,912.79,142.6818,903.618,142.7142,909.2748,137.0575,909.3073,146.27,912.79" style="stroke:#181818;stroke-width:1.0;"/><path d="M108,777 L108,832 L358,832 L358,787 L348,777 L108,777 " fill="#FEFFDD" style="stroke:#181818;stroke-width:0.5;"/><path d="M348,777 L348,787 L358,787 L348,777 " fill="#FEFFDD" style="stroke:#181818;stroke-width:0.5;"/><text fill="#000000" font-family="sans-serif" font-size="13" lengthAdjust="spacing" textLength="11" x="114" y="794.0669">El</text><text fill="#000000" font-family="sans-serif" font-size="13" font-weight="bold" lengthAdjust="spacing" textLength="58" x="129" y="794.0669">sistema</text><text fill="#000000" font-family="sans-serif" font-size="13" lengthAdjust="spacing" textLength="69" x="191" y="794.0669">muestra al</text><text fill="#000000" font-family="sans-serif" font-size="13" font-weight="bold" lengthAdjust="spacing" textLength="104" x="114" y="809.1997">administrador</text><text fill="#000000" font-family="sans-serif" font-size="13" lengthAdjust="spacing" textLength="110" x="222" y="809.1997">una confirmaci&#243;n</text><text fill="#000000" font-family="sans-serif" font-size="13" lengthAdjust="spacing" textLength="229" x="114" y="824.3325">de la actualizaci&#243;n de la notificaci&#243;n</text></g><!--link MostrarConfirmacion to *end*--><g id="link_MostrarConfirmacion_*end*"><path d="M203.87,963.46 C229.92,984.8 261.3098,1010.4963 277.2298,1023.5463 " fill="none" id="MostrarConfirmacion-to-*end*" style="stroke:#181818;stroke-width:1.0;"/><polygon fill="#181818" points="281.87,1027.35,277.4455,1018.5509,278.0031,1024.1802,272.3738,1024.7379,281.87,1027.35" style="stroke:#181818;stroke-width:1.0;"/></g><!--SRC=[dP91JiCm44NtFiMiBVK2B90GwX8sI6ogBaRELB9mx3AsaU0sd84Zz6ACNUea954HkyIU-VF-z-pq7ZQRMtWcVWp97gn1OuEdg7n81C63i_v5mTQ1rjZrrjkO6Bl0MWCQGnq1WaC8HsDFNnuKoCaRCSGSmKybVsIYI52F8j1dAchIFwibtvKZKcg6Le6Vo94f_pYv_GjsRAq5V9Xxnd_D91OYeTXB6PtzG1xHhCojJ7UjOHkJ35k26SmtUI07L1lEwSsW1k0EHoY_nrM6- -0FbdlaThiMopz8hWtVwVrqajPRvi15QyGZIZTQAvfIE6hxa3rGxKC7Qk41hK18Ad3CTVyQ2gXPTk-bJgIPJEYjy2DOdyWdP2Sk-zDd1FdkQEHjEKDnA1OVGk7WIyayt9KLNtQIPGTDaweBU8uT9sbTUOi5fijpV0C0]--></g></svg>