<?xml version="1.0" encoding="us-ascii" standalone="no"?><svg xmlns="http://www.w3.org/2000/svg" xmlns:xlink="http://www.w3.org/1999/xlink" contentStyleType="text/css" height="580px" preserveAspectRatio="none" style="width:782px;height:580px;background:#FFFFFF;" version="1.1" viewBox="0 0 782 580" width="782px" zoomAndPan="magnify"><defs/><g><ellipse cx="98.5" cy="16" fill="#222222" rx="10" ry="10" style="stroke:#222222;stroke-width:1.0;"/><g id="CrearNotificacion"><rect fill="#F1F1F1" height="50" rx="12.5" ry="12.5" style="stroke:#181818;stroke-width:0.5;" width="136" x="30.5" y="87"/><line style="stroke:#181818;stroke-width:0.5;" x1="30.5" x2="166.5" y1="113.2969" y2="113.2969"/><text fill="#000000" font-family="sans-serif" font-size="14" lengthAdjust="spacing" textLength="116" x="40.5" y="104.9951">CrearNotificacion</text></g><g id="elem_GMN5"><path d="M201.5,91.87 L201.5,108 L166.93,112 L201.5,116 L201.5,132.1356 A0,0 0 0 0 201.5,132.1356 L453.5,132.1356 A0,0 0 0 0 453.5,132.1356 L453.5,101.87 L443.5,91.87 L201.5,91.87 A0,0 0 0 0 201.5,91.87 " fill="#FEFFDD" style="stroke:#181818;stroke-width:0.5;"/><path d="M443.5,91.87 L443.5,101.87 L453.5,101.87 L443.5,91.87 " fill="#FEFFDD" style="stroke:#181818;stroke-width:0.5;"/><text fill="#000000" font-family="sans-serif" font-size="13" lengthAdjust="spacing" textLength="227" x="207.5" y="108.9369">El administrador accede a la opci&#243;n</text><text fill="#000000" font-family="sans-serif" font-size="13" lengthAdjust="spacing" textLength="200" x="207.5" y="124.0697">de crear una nueva notificaci&#243;n</text></g><g id="SeleccionarDestinatario"><rect fill="#F1F1F1" height="50" rx="12.5" ry="12.5" style="stroke:#181818;stroke-width:0.5;" width="183" x="7" y="198"/><line style="stroke:#181818;stroke-width:0.5;" x1="7" x2="190" y1="224.2969" y2="224.2969"/><text fill="#000000" font-family="sans-serif" font-size="14" lengthAdjust="spacing" textLength="163" x="17" y="215.9951">SeleccionarDestinatario</text></g><g id="elem_GMN10"><path d="M225,202.87 L225,219 L190.28,223 L225,227 L225,243.1356 A0,0 0 0 0 225,243.1356 L520,243.1356 A0,0 0 0 0 520,243.1356 L520,212.87 L510,202.87 L225,202.87 A0,0 0 0 0 225,202.87 " fill="#FEFFDD" style="stroke:#181818;stroke-width:0.5;"/><path d="M510,202.87 L510,212.87 L520,212.87 L510,202.87 " fill="#FEFFDD" style="stroke:#181818;stroke-width:0.5;"/><text fill="#000000" font-family="sans-serif" font-size="13" lengthAdjust="spacing" textLength="270" x="231" y="219.9369">El administrador selecciona el destinatario</text><text fill="#000000" font-family="sans-serif" font-size="13" lengthAdjust="spacing" textLength="107" x="231" y="235.0697">de la notificaci&#243;n</text></g><g id="IngresarContenido"><rect fill="#F1F1F1" height="50" rx="12.5" ry="12.5" style="stroke:#181818;stroke-width:0.5;" width="148" x="24.5" y="309"/><line style="stroke:#181818;stroke-width:0.5;" x1="24.5" x2="172.5" y1="335.2969" y2="335.2969"/><text fill="#000000" font-family="sans-serif" font-size="14" lengthAdjust="spacing" textLength="128" x="34.5" y="326.9951">IngresarContenido</text></g><g id="elem_GMN15"><path d="M207.5,313.87 L207.5,330 L172.56,334 L207.5,338 L207.5,354.1356 A0,0 0 0 0 207.5,354.1356 L469.5,354.1356 A0,0 0 0 0 469.5,354.1356 L469.5,323.87 L459.5,313.87 L207.5,313.87 A0,0 0 0 0 207.5,313.87 " fill="#FEFFDD" style="stroke:#181818;stroke-width:0.5;"/><path d="M459.5,313.87 L459.5,323.87 L469.5,323.87 L459.5,313.87 " fill="#FEFFDD" style="stroke:#181818;stroke-width:0.5;"/><text fill="#000000" font-family="sans-serif" font-size="13" lengthAdjust="spacing" textLength="237" x="213.5" y="330.9369">El administrador ingresa el contenido</text><text fill="#000000" font-family="sans-serif" font-size="13" lengthAdjust="spacing" textLength="107" x="213.5" y="346.0697">de la notificaci&#243;n</text></g><g id="ConfirmarContenido"><rect fill="#F1F1F1" height="50" rx="12.5" ry="12.5" style="stroke:#181818;stroke-width:0.5;" width="158" x="19.5" y="438.7"/><line style="stroke:#181818;stroke-width:0.5;" x1="19.5" x2="177.5" y1="464.9969" y2="464.9969"/><text fill="#000000" font-family="sans-serif" font-size="14" lengthAdjust="spacing" textLength="138" x="29.5" y="456.6951">ConfirmarContenido</text></g><g id="elem_GMN20"><path d="M504,443.57 L504,483.8356 L775,483.8356 L775,453.57 L765,443.57 L504,443.57 " fill="#FEFFDD" style="stroke:#181818;stroke-width:0.5;"/><path d="M765,443.57 L765,453.57 L775,453.57 L765,443.57 " fill="#FEFFDD" style="stroke:#181818;stroke-width:1.0;"/><text fill="#000000" font-family="sans-serif" font-size="13" lengthAdjust="spacing" textLength="246" x="510" y="460.6369">El administrador confirma el contenido</text><text fill="#000000" font-family="sans-serif" font-size="13" lengthAdjust="spacing" textLength="107" x="510" y="475.7697">de la notificaci&#243;n</text></g><ellipse cx="98.5" cy="563.4" fill="none" rx="11" ry="11" style="stroke:#222222;stroke-width:1.0;"/><ellipse cx="98.5" cy="563.4" fill="#222222" rx="6" ry="6" style="stroke:#222222;stroke-width:1.0;"/><g id="elem_GMN25"><path d="M212,436 L212,459.7 L177.91,463.7 L212,467.7 L212,491.3984 A0,0 0 0 0 212,491.3984 L469,491.3984 A0,0 0 0 0 469,491.3984 L469,446 L459,436 L212,436 A0,0 0 0 0 212,436 " fill="#FEFFDD" style="stroke:#181818;stroke-width:0.5;"/><path d="M459,436 L459,446 L469,446 L459,436 " fill="#FEFFDD" style="stroke:#181818;stroke-width:0.5;"/><text fill="#000000" font-family="sans-serif" font-size="13" lengthAdjust="spacing" textLength="232" x="218" y="453.0669">El sistema muestra al administrador</text><text fill="#000000" font-family="sans-serif" font-size="13" lengthAdjust="spacing" textLength="200" x="218" y="468.1997">una confirmaci&#243;n del contenido</text><text fill="#000000" font-family="sans-serif" font-size="13" lengthAdjust="spacing" textLength="107" x="218" y="483.3325">de la notificaci&#243;n</text></g><!--link *start* to CrearNotificacion--><g id="link_*start*_CrearNotificacion"><path d="M98.5,26.36 C98.5,40.29 98.5,60.96 98.5,80.65 " fill="none" id="*start*-to-CrearNotificacion" style="stroke:#181818;stroke-width:1.0;"/><polygon fill="#181818" points="98.5,86.65,102.5,77.65,98.5,81.65,94.5,77.65,98.5,86.65" style="stroke:#181818;stroke-width:1.0;"/></g><!--link CrearNotificacion to SeleccionarDestinatario--><g id="link_CrearNotificacion_SeleccionarDestinatario"><path d="M98.5,137.46 C98.5,155.41 98.5,173.69 98.5,191.62 " fill="none" id="CrearNotificacion-to-SeleccionarDestinatario" style="stroke:#181818;stroke-width:1.0;"/><polygon fill="#181818" points="98.5,197.62,102.5,188.62,98.5,192.62,94.5,188.62,98.5,197.62" style="stroke:#181818;stroke-width:1.0;"/></g><!--link SeleccionarDestinatario to IngresarContenido--><g id="link_SeleccionarDestinatario_IngresarContenido"><path d="M98.5,248.46 C98.5,266.41 98.5,284.69 98.5,302.62 " fill="none" id="SeleccionarDestinatario-to-IngresarContenido" style="stroke:#181818;stroke-width:1.0;"/><polygon fill="#181818" points="98.5,308.62,102.5,299.62,98.5,303.62,94.5,299.62,98.5,308.62" style="stroke:#181818;stroke-width:1.0;"/></g><!--link IngresarContenido to ConfirmarContenido--><g id="link_IngresarContenido_ConfirmarContenido"><path d="M98.5,359.32 C98.5,382.04 98.5,409.78 98.5,432.47 " fill="none" id="IngresarContenido-to-ConfirmarContenido" style="stroke:#181818;stroke-width:1.0;"/><polygon fill="#181818" points="98.5,438.47,102.5,429.47,98.5,433.47,94.5,429.47,98.5,438.47" style="stroke:#181818;stroke-width:1.0;"/><text fill="#000000" font-family="sans-serif" font-size="13" lengthAdjust="spacing" textLength="63" x="99.5" y="402.0669">Confirmar</text></g><!--link ConfirmarContenido to GMN20--><g id="link_ConfirmarContenido_GMN20"><path d="M131.16,438.36 C152.78,423.24 182.49,405.48 212,397.5 C322.26,367.7 356.73,376.47 469,397.5 C515.35,406.18 565.3,427.07 599.07,443.08 " fill="none" id="ConfirmarContenido-GMN20" style="stroke:#181818;stroke-width:1.0;stroke-dasharray:7.0,7.0;"/></g><!--link ConfirmarContenido to *end*--><g id="link_ConfirmarContenido_*end*"><path d="M98.5,489.1 C98.5,509.45 98.5,531.42 98.5,546.24 " fill="none" id="ConfirmarContenido-to-*end*" style="stroke:#181818;stroke-width:1.0;"/><polygon fill="#181818" points="98.5,552.24,102.5,543.24,98.5,547.24,94.5,543.24,98.5,552.24" style="stroke:#181818;stroke-width:1.0;"/></g><!--SRC=[bT8xRiCm30RWNQVW720NwD0bpT2bIySW0o7HAG6PB2Wv5-iHUh5ATXw5PQFD8a3aB_43fCFc2DljC-oCqDuqSySUFQiuqKnWVFh8eDr27_OHCFGidB9XK0FqdW81GaJGJy_VNm8EIiNNmp08WWnqBkljdX9n9A5MoBbco4XxfqY-xj1UA6KMp6YiC-1QgcMcMn8e5juzF6dZEd1boCXybPDHGjkfP18ESs3RRsayPQhBNsD_efgBfmTLwTZwt-MdUt7-karu0USleSTq2uxAEsoE_pEaCf_Aq7wW2W6SizpuiQwuwTU51uW_]--></g></svg>