<svg xmlns="http://www.w3.org/2000/svg" xmlns:xlink="http://www.w3.org/1999/xlink" contentStyleType="text/css" height="864px" preserveAspectRatio="none" style="width:425px;height:864px;background:#FFFFFF;" version="1.1" viewBox="0 0 425 864" width="425px" zoomAndPan="magnify"><defs/><g><ellipse cx="98.5" cy="16" fill="#222222" rx="10" ry="10" style="stroke:#222222;stroke-width:1.0;"/><g id="CrearNotificacion"><rect fill="#F1F1F1" height="50" rx="12.5" ry="12.5" style="stroke:#181818;stroke-width:0.5;" width="136" x="30.5" y="181"/><line style="stroke:#181818;stroke-width:0.5;" x1="30.5" x2="166.5" y1="207.2969" y2="207.2969"/><text fill="#000000" font-family="sans-serif" font-size="14" lengthAdjust="spacing" textLength="116" x="40.5" y="198.9951">CrearNotificacion</text></g><g id="SeleccionarDestinatario"><rect fill="#F1F1F1" height="50" rx="12.5" ry="12.5" style="stroke:#181818;stroke-width:0.5;" width="183" x="7" y="341"/><line style="stroke:#181818;stroke-width:0.5;" x1="7" x2="190" y1="367.2969" y2="367.2969"/><text fill="#000000" font-family="sans-serif" font-size="14" lengthAdjust="spacing" textLength="163" x="17" y="358.9951">SeleccionarDestinatario</text></g><g id="IngresarContenido"><rect fill="#F1F1F1" height="50" rx="12.5" ry="12.5" style="stroke:#181818;stroke-width:0.5;" width="148" x="24.5" y="501"/><line style="stroke:#181818;stroke-width:0.5;" x1="24.5" x2="172.5" y1="527.2969" y2="527.2969"/><text fill="#000000" font-family="sans-serif" font-size="14" lengthAdjust="spacing" textLength="128" x="34.5" y="518.9951">IngresarContenido</text></g><g id="ConfirmarContenido"><rect fill="#F1F1F1" height="50" rx="12.5" ry="12.5" style="stroke:#181818;stroke-width:0.5;" width="158" x="19.5" y="661"/><line style="stroke:#181818;stroke-width:0.5;" x1="19.5" x2="177.5" y1="687.2969" y2="687.2969"/><text fill="#000000" font-family="sans-serif" font-size="14" lengthAdjust="spacing" textLength="138" x="29.5" y="678.9951">ConfirmarContenido</text></g><ellipse cx="98.5" cy="847" fill="none" rx="11" ry="11" style="stroke:#222222;stroke-width:1.0;"/><ellipse cx="98.5" cy="847" fill="#222222" rx="6" ry="6" style="stroke:#222222;stroke-width:1.0;"/><!--link *start* to CrearNotificacion--><g id="link_*start*_CrearNotificacion"><path d="M98.5,26.32 C98.5,54.4 98.5,132.82 98.5,174.78 " fill="none" id="*start*-to-CrearNotificacion" style="stroke:#181818;stroke-width:1.0;"/><polygon fill="#181818" points="98.5,180.78,102.5,171.78,98.5,175.78,94.5,171.78,98.5,180.78" style="stroke:#181818;stroke-width:1.0;"/><path d="M103.5,61 L103.5,146 L418.5,146 L418.5,71 L408.5,61 L103.5,61 " fill="#FEFFDD" style="stroke:#181818;stroke-width:0.5;"/><path d="M408.5,61 L408.5,71 L418.5,71 L408.5,61 " fill="#FEFFDD" style="stroke:#181818;stroke-width:0.5;"/><text fill="#000000" font-family="sans-serif" font-size="13" lengthAdjust="spacing" textLength="11" x="113.5" y="78.0669">El</text><text fill="#000000" font-family="sans-serif" font-size="13" font-weight="bold" lengthAdjust="spacing" textLength="104" x="128.5" y="78.0669">administrador</text><text fill="#000000" font-family="sans-serif" font-size="13" lengthAdjust="spacing" textLength="119" x="236.5" y="78.0669">accede a la opci&#243;n</text><text fill="#000000" font-family="sans-serif" font-size="13" lengthAdjust="spacing" textLength="200" x="113.5" y="93.1997">de crear una nueva notificaci&#243;n</text><text fill="#000000" font-family="sans-serif" font-size="13" lengthAdjust="spacing" textLength="4" x="109.5" y="108.3325">&#160;</text><text fill="#000000" font-family="sans-serif" font-size="13" lengthAdjust="spacing" textLength="11" x="113.5" y="123.4653">El</text><text fill="#000000" font-family="sans-serif" font-size="13" font-weight="bold" lengthAdjust="spacing" textLength="58" x="128.5" y="123.4653">sistema</text><text fill="#000000" font-family="sans-serif" font-size="13" lengthAdjust="spacing" textLength="213" x="190.5" y="123.4653">muestra un formulario para crear</text><text fill="#000000" font-family="sans-serif" font-size="13" lengthAdjust="spacing" textLength="143" x="109.5" y="138.5981">una nueva notificaci&#243;n</text></g><!--link CrearNotificacion to SeleccionarDestinatario--><g id="link_CrearNotificacion_SeleccionarDestinatario"><path d="M98.5,231.34 C98.5,261.03 98.5,304.93 98.5,334.63 " fill="none" id="CrearNotificacion-to-SeleccionarDestinatario" style="stroke:#181818;stroke-width:1.0;"/><polygon fill="#181818" points="98.5,340.63,102.5,331.63,98.5,335.63,94.5,331.63,98.5,340.63" style="stroke:#181818;stroke-width:1.0;"/><path d="M103.5,266 L103.5,306 L413.5,306 L413.5,276 L403.5,266 L103.5,266 " fill="#FEFFDD" style="stroke:#181818;stroke-width:0.5;"/><path d="M403.5,266 L403.5,276 L413.5,276 L403.5,266 " fill="#FEFFDD" style="stroke:#181818;stroke-width:0.5;"/><text fill="#000000" font-family="sans-serif" font-size="13" lengthAdjust="spacing" textLength="11" x="109.5" y="283.0669">El</text><text fill="#000000" font-family="sans-serif" font-size="13" font-weight="bold" lengthAdjust="spacing" textLength="104" x="124.5" y="283.0669">administrador</text><text fill="#000000" font-family="sans-serif" font-size="13" lengthAdjust="spacing" textLength="162" x="232.5" y="283.0669">selecciona el destinatario</text><text fill="#000000" font-family="sans-serif" font-size="13" lengthAdjust="spacing" textLength="107" x="109.5" y="298.1997">de la notificaci&#243;n</text></g><!--link SeleccionarDestinatario to IngresarContenido--><g id="link_SeleccionarDestinatario_IngresarContenido"><path d="M98.5,391.34 C98.5,421.03 98.5,464.93 98.5,494.63 " fill="none" id="SeleccionarDestinatario-to-IngresarContenido" style="stroke:#181818;stroke-width:1.0;"/><polygon fill="#181818" points="98.5,500.63,102.5,491.63,98.5,495.63,94.5,491.63,98.5,500.63" style="stroke:#181818;stroke-width:1.0;"/><path d="M103.5,426 L103.5,466 L380.5,466 L380.5,436 L370.5,426 L103.5,426 " fill="#FEFFDD" style="stroke:#181818;stroke-width:0.5;"/><path d="M370.5,426 L370.5,436 L380.5,436 L370.5,426 " fill="#FEFFDD" style="stroke:#181818;stroke-width:0.5;"/><text fill="#000000" font-family="sans-serif" font-size="13" lengthAdjust="spacing" textLength="11" x="109.5" y="443.0669">El</text><text fill="#000000" font-family="sans-serif" font-size="13" font-weight="bold" lengthAdjust="spacing" textLength="104" x="124.5" y="443.0669">administrador</text><text fill="#000000" font-family="sans-serif" font-size="13" lengthAdjust="spacing" textLength="129" x="232.5" y="443.0669">ingresa el contenido</text><text fill="#000000" font-family="sans-serif" font-size="13" lengthAdjust="spacing" textLength="107" x="109.5" y="458.1997">de la notificaci&#243;n</text></g><!--link IngresarContenido to ConfirmarContenido--><g id="link_IngresarContenido_ConfirmarContenido"><path d="M98.5,551.34 C98.5,581.03 98.5,624.93 98.5,654.63 " fill="none" id="IngresarContenido-to-ConfirmarContenido" style="stroke:#181818;stroke-width:1.0;"/><polygon fill="#181818" points="98.5,660.63,102.5,651.63,98.5,655.63,94.5,651.63,98.5,660.63" style="stroke:#181818;stroke-width:1.0;"/><path d="M103.5,586 L103.5,626 L389.5,626 L389.5,596 L379.5,586 L103.5,586 " fill="#FEFFDD" style="stroke:#181818;stroke-width:0.5;"/><path d="M379.5,586 L379.5,596 L389.5,596 L379.5,586 " fill="#FEFFDD" style="stroke:#181818;stroke-width:0.5;"/><text fill="#000000" font-family="sans-serif" font-size="13" lengthAdjust="spacing" textLength="11" x="109.5" y="603.0669">El</text><text fill="#000000" font-family="sans-serif" font-size="13" font-weight="bold" lengthAdjust="spacing" textLength="104" x="124.5" y="603.0669">administrador</text><text fill="#000000" font-family="sans-serif" font-size="13" lengthAdjust="spacing" textLength="138" x="232.5" y="603.0669">confirma el contenido</text><text fill="#000000" font-family="sans-serif" font-size="13" lengthAdjust="spacing" textLength="107" x="109.5" y="618.1997">de la notificaci&#243;n</text></g><!--link ConfirmarContenido to *end*--><g id="link_ConfirmarContenido_*end*"><path d="M98.5,711.5 C98.5,746.86 98.5,804.72 98.5,829.64 " fill="none" id="ConfirmarContenido-to-*end*" style="stroke:#181818;stroke-width:1.0;"/><polygon fill="#181818" points="98.5,835.64,102.5,826.64,98.5,830.64,94.5,826.64,98.5,835.64" style="stroke:#181818;stroke-width:1.0;"/><path d="M103.5,746 L103.5,801 L367.5,801 L367.5,756 L357.5,746 L103.5,746 " fill="#FEFFDD" style="stroke:#181818;stroke-width:0.5;"/><path d="M357.5,746 L357.5,756 L367.5,756 L357.5,746 " fill="#FEFFDD" style="stroke:#181818;stroke-width:0.5;"/><text fill="#000000" font-family="sans-serif" font-size="13" lengthAdjust="spacing" textLength="11" x="109.5" y="763.0669">El</text><text fill="#000000" font-family="sans-serif" font-size="13" font-weight="bold" lengthAdjust="spacing" textLength="58" x="124.5" y="763.0669">sistema</text><text fill="#000000" font-family="sans-serif" font-size="13" lengthAdjust="spacing" textLength="162" x="186.5" y="763.0669">muestra al administrador</text><text fill="#000000" font-family="sans-serif" font-size="13" lengthAdjust="spacing" textLength="200" x="109.5" y="778.1997">una confirmaci&#243;n del contenido</text><text fill="#000000" font-family="sans-serif" font-size="13" lengthAdjust="spacing" textLength="107" x="109.5" y="793.3325">de la notificaci&#243;n</text></g><!--SRC=[bP8nRiCm34LtdOApW5oXIzgXIvUEGGP2eWkY4XdGTY_M8_HYfUmaRU4OTHO39lpVVuHvY4VOxHvWRuJseWDtd32nIX0T25IWiBm7U2eG8-RAmlrWcDLY14o9CW52GT1JugzFWG0-IOq6eo38I1_-l8Bzat2czKwYYiwf8pMe1w1JgsD1OuKJ-cWYXJKIIMuJ2c7XFstrIeLIUqDxz0eM71fwosxzDGfKVAUVzBnYMNTPQPsCdkNDg4VRgmmad3Uvy1ng8kcI-zTYqJJ_PvMEhVuURp58vzXz2ZVAciCX7czrBky12_mHyS9s2HUP-U3o7KhV]--></g></svg>