<svg xmlns="http://www.w3.org/2000/svg" xmlns:xlink="http://www.w3.org/1999/xlink" contentStyleType="text/css" height="1274px" preserveAspectRatio="none" style="width:667px;height:1274px;background:#FFFFFF;" version="1.1" viewBox="0 0 667 1274" width="667px" zoomAndPan="magnify"><defs/><g><ellipse cx="382.18" cy="16" fill="#222222" rx="10" ry="10" style="stroke:#222222;stroke-width:1.0;"/><g id="VerNotificacionesPendientes"><rect fill="#F1F1F1" height="50" rx="12.5" ry="12.5" style="stroke:#181818;stroke-width:0.5;" width="218" x="273.18" y="198"/><line style="stroke:#181818;stroke-width:0.5;" x1="273.18" x2="491.18" y1="224.2969" y2="224.2969"/><text fill="#000000" font-family="sans-serif" font-size="14" lengthAdjust="spacing" textLength="198" x="283.18" y="215.9951">VerNotificacionesPendientes</text></g><g id="SeleccionarNotificacion"><rect fill="#F1F1F1" height="50" rx="12.5" ry="12.5" style="stroke:#181818;stroke-width:0.5;" width="179" x="121.68" y="358"/><line style="stroke:#181818;stroke-width:0.5;" x1="121.68" x2="300.68" y1="384.2969" y2="384.2969"/><text fill="#000000" font-family="sans-serif" font-size="14" lengthAdjust="spacing" textLength="159" x="131.68" y="375.9951">SeleccionarNotificacion</text></g><g id="SeleccionarDestinatario"><rect fill="#F1F1F1" height="50" rx="12.5" ry="12.5" style="stroke:#181818;stroke-width:0.5;" width="183" x="118.68" y="518"/><line style="stroke:#181818;stroke-width:0.5;" x1="118.68" x2="301.68" y1="544.2969" y2="544.2969"/><text fill="#000000" font-family="sans-serif" font-size="14" lengthAdjust="spacing" textLength="163" x="128.68" y="535.9951">SeleccionarDestinatario</text></g><g id="EnviarNotificacion"><rect fill="#F1F1F1" height="50" rx="12.5" ry="12.5" style="stroke:#181818;stroke-width:0.5;" width="140" x="140.18" y="678"/><line style="stroke:#181818;stroke-width:0.5;" x1="140.18" x2="280.18" y1="704.2969" y2="704.2969"/><text fill="#000000" font-family="sans-serif" font-size="14" lengthAdjust="spacing" textLength="120" x="150.18" y="695.9951">EnviarNotificacion</text></g><g id="ConfirmarEnvio"><rect fill="#F1F1F1" height="50" rx="12.5" ry="12.5" style="stroke:#181818;stroke-width:0.5;" width="123" x="47.68" y="883"/><line style="stroke:#181818;stroke-width:0.5;" x1="47.68" x2="170.68" y1="909.2969" y2="909.2969"/><text fill="#000000" font-family="sans-serif" font-size="14" lengthAdjust="spacing" textLength="103" x="57.68" y="900.9951">ConfirmarEnvio</text></g><ellipse cx="288.18" cy="908" fill="none" rx="11" ry="11" style="stroke:#222222;stroke-width:1.0;"/><ellipse cx="288.18" cy="908" fill="#222222" rx="6" ry="6" style="stroke:#222222;stroke-width:1.0;"/><g id="ActualizarEstado"><rect fill="#F1F1F1" height="50" rx="12.5" ry="12.5" style="stroke:#181818;stroke-width:0.5;" width="134" x="153.18" y="1043"/><line style="stroke:#181818;stroke-width:0.5;" x1="153.18" x2="287.18" y1="1069.2969" y2="1069.2969"/><text fill="#000000" font-family="sans-serif" font-size="14" lengthAdjust="spacing" textLength="114" x="163.18" y="1060.9951">ActualizarEstado</text></g><g id="MostrarConfirmacion"><rect fill="#F1F1F1" height="50" rx="12.5" ry="12.5" style="stroke:#181818;stroke-width:0.5;" width="162" x="306.18" y="1218"/><line style="stroke:#181818;stroke-width:0.5;" x1="306.18" x2="468.18" y1="1244.2969" y2="1244.2969"/><text fill="#000000" font-family="sans-serif" font-size="14" lengthAdjust="spacing" textLength="142" x="316.18" y="1235.9951">MostrarConfirmacion</text></g><!--link *start* to VerNotificacionesPendientes--><g id="link_*start*_VerNotificacionesPendientes"><path d="M382.18,26.34 C382.18,56.58 382.18,146.43 382.18,191.78 " fill="none" id="*start*-to-VerNotificacionesPendientes" style="stroke:#181818;stroke-width:1.0;"/><polygon fill="#181818" points="382.18,197.78,386.18,188.78,382.18,192.78,378.18,188.78,382.18,197.78" style="stroke:#181818;stroke-width:1.0;"/><path d="M387.18,92 L387.18,132 L660.18,132 L660.18,102 L650.18,92 L387.18,92 " fill="#FEFFDD" style="stroke:#181818;stroke-width:0.5;"/><path d="M650.18,92 L650.18,102 L660.18,102 L650.18,92 " fill="#FEFFDD" style="stroke:#181818;stroke-width:0.5;"/><text fill="#000000" font-family="sans-serif" font-size="13" lengthAdjust="spacing" textLength="11" x="393.18" y="109.0669">El</text><text fill="#000000" font-family="sans-serif" font-size="13" font-weight="bold" lengthAdjust="spacing" textLength="58" x="408.18" y="109.0669">sistema</text><text fill="#000000" font-family="sans-serif" font-size="13" lengthAdjust="spacing" textLength="167" x="470.18" y="109.0669">muestra las notificaciones</text><text fill="#000000" font-family="sans-serif" font-size="13" lengthAdjust="spacing" textLength="144" x="393.18" y="124.1997">pendientes de env&#237;o al</text><text fill="#000000" font-family="sans-serif" font-size="13" font-weight="bold" lengthAdjust="spacing" textLength="104" x="541.18" y="124.1997">administrador</text></g><!--link VerNotificacionesPendientes to SeleccionarNotificacion--><g id="link_VerNotificacionesPendientes_SeleccionarNotificacion"><path d="M273.04,236.54 C248.96,244.63 226.18,257.53 211.18,278 C194.42,300.86 196.8292,328.9634 202.2692,351.7934 " fill="none" id="VerNotificacionesPendientes-to-SeleccionarNotificacion" style="stroke:#181818;stroke-width:1.0;"/><polygon fill="#181818" points="203.66,357.63,205.4649,347.9479,202.501,352.7662,197.6828,349.8023,203.66,357.63" style="stroke:#181818;stroke-width:1.0;"/><path d="M216.18,283 L216.18,323 L522.18,323 L522.18,293 L512.18,283 L216.18,283 " fill="#FEFFDD" style="stroke:#181818;stroke-width:0.5;"/><path d="M512.18,283 L512.18,293 L522.18,293 L512.18,283 " fill="#FEFFDD" style="stroke:#181818;stroke-width:0.5;"/><text fill="#000000" font-family="sans-serif" font-size="13" lengthAdjust="spacing" textLength="11" x="222.18" y="300.0669">El</text><text fill="#000000" font-family="sans-serif" font-size="13" font-weight="bold" lengthAdjust="spacing" textLength="104" x="237.18" y="300.0669">administrador</text><text fill="#000000" font-family="sans-serif" font-size="13" lengthAdjust="spacing" textLength="158" x="345.18" y="300.0669">selecciona la notificaci&#243;n</text><text fill="#000000" font-family="sans-serif" font-size="13" lengthAdjust="spacing" textLength="110" x="222.18" y="315.1997">que desea enviar</text></g><!--link SeleccionarNotificacion to SeleccionarDestinatario--><g id="link_SeleccionarNotificacion_SeleccionarDestinatario"><path d="M208.98,408.44 C208.25,417.69 207.54,428.32 207.18,438 C206.36,460.21 206.56,465.79 207.18,488 C207.45,497.67 207.6403,502.3102 208.1803,511.5602 " fill="none" id="SeleccionarNotificacion-to-SeleccionarDestinatario" style="stroke:#181818;stroke-width:1.0;"/><polygon fill="#181818" points="208.53,517.55,211.9987,508.3322,208.2386,512.5585,204.0123,508.7984,208.53,517.55" style="stroke:#181818;stroke-width:1.0;"/><path d="M212.18,443 L212.18,483 L522.18,483 L522.18,453 L512.18,443 L212.18,443 " fill="#FEFFDD" style="stroke:#181818;stroke-width:0.5;"/><path d="M512.18,443 L512.18,453 L522.18,453 L512.18,443 " fill="#FEFFDD" style="stroke:#181818;stroke-width:0.5;"/><text fill="#000000" font-family="sans-serif" font-size="13" lengthAdjust="spacing" textLength="11" x="218.18" y="460.0669">El</text><text fill="#000000" font-family="sans-serif" font-size="13" font-weight="bold" lengthAdjust="spacing" textLength="104" x="233.18" y="460.0669">administrador</text><text fill="#000000" font-family="sans-serif" font-size="13" lengthAdjust="spacing" textLength="162" x="341.18" y="460.0669">selecciona el destinatario</text><text fill="#000000" font-family="sans-serif" font-size="13" lengthAdjust="spacing" textLength="175" x="218.18" y="475.1997">al cual enviar la notificaci&#243;n</text></g><!--link SeleccionarDestinatario to EnviarNotificacion--><g id="link_SeleccionarDestinatario_EnviarNotificacion"><path d="M210.18,568.34 C210.18,598.03 210.18,641.93 210.18,671.63 " fill="none" id="SeleccionarDestinatario-to-EnviarNotificacion" style="stroke:#181818;stroke-width:1.0;"/><polygon fill="#181818" points="210.18,677.63,214.18,668.63,210.18,672.63,206.18,668.63,210.18,677.63" style="stroke:#181818;stroke-width:1.0;"/><path d="M215.18,603 L215.18,643 L457.18,643 L457.18,613 L447.18,603 L215.18,603 " fill="#FEFFDD" style="stroke:#181818;stroke-width:0.5;"/><path d="M447.18,603 L447.18,613 L457.18,613 L447.18,603 " fill="#FEFFDD" style="stroke:#181818;stroke-width:0.5;"/><text fill="#000000" font-family="sans-serif" font-size="13" lengthAdjust="spacing" textLength="11" x="221.18" y="620.0669">El</text><text fill="#000000" font-family="sans-serif" font-size="13" font-weight="bold" lengthAdjust="spacing" textLength="58" x="236.18" y="620.0669">sistema</text><text fill="#000000" font-family="sans-serif" font-size="13" lengthAdjust="spacing" textLength="140" x="298.18" y="620.0669">env&#237;a la notificaci&#243;n al</text><text fill="#000000" font-family="sans-serif" font-size="13" lengthAdjust="spacing" textLength="163" x="221.18" y="635.1997">destinatario seleccionado</text></g><!--link EnviarNotificacion to ConfirmarEnvio--><g id="link_EnviarNotificacion_ConfirmarEnvio"><path d="M139.71,705.93 C101.05,711.04 56.05,724.52 31.18,758 C6,791.89 11.58,815.6 31.18,853 C37.45,864.96 42.8086,871.3251 53.8586,879.1751 " fill="none" id="EnviarNotificacion-to-ConfirmarEnvio" style="stroke:#181818;stroke-width:1.0;"/><polygon fill="#181818" points="58.75,882.65,53.7295,874.1768,54.6739,879.7543,49.0964,880.6986,58.75,882.65" style="stroke:#181818;stroke-width:1.0;"/><path d="M36.18,770.5 L36.18,840.5 L236.18,840.5 L236.18,780.5 L226.18,770.5 L36.18,770.5 " fill="#FEFFDD" style="stroke:#181818;stroke-width:0.5;"/><path d="M226.18,770.5 L226.18,780.5 L236.18,780.5 L226.18,770.5 " fill="#FEFFDD" style="stroke:#181818;stroke-width:0.5;"/><text fill="#000000" font-family="sans-serif" font-size="13" lengthAdjust="spacing" textLength="11" x="42.18" y="787.5669">El</text><text fill="#000000" font-family="sans-serif" font-size="13" font-weight="bold" lengthAdjust="spacing" textLength="58" x="57.18" y="787.5669">sistema</text><text fill="#000000" font-family="sans-serif" font-size="13" lengthAdjust="spacing" textLength="74" x="119.18" y="787.5669">despu&#233;s de</text><text fill="#000000" font-family="sans-serif" font-size="13" lengthAdjust="spacing" textLength="153" x="42.18" y="802.6997">enviar la notificaci&#243;n, se</text><text fill="#000000" font-family="sans-serif" font-size="13" lengthAdjust="spacing" textLength="71" x="42.18" y="817.8325">confirma al</text><text fill="#000000" font-family="sans-serif" font-size="13" font-weight="bold" lengthAdjust="spacing" textLength="91" x="117.18" y="817.8325">admistrador</text><text fill="#000000" font-family="sans-serif" font-size="13" lengthAdjust="spacing" textLength="4" x="208.18" y="817.8325">&#160;</text><text fill="#000000" font-family="sans-serif" font-size="13" lengthAdjust="spacing" textLength="179" x="42.18" y="832.9653">que se ha enviado con &#233;xito</text></g><!--link EnviarNotificacion to *end*--><g id="link_EnviarNotificacion_*end*"><path d="M230.68,728.34 C237.36,737.22 244.29,747.65 249.18,758 C272.34,807.09 282.4415,866.0803 285.9815,890.8603 " fill="none" id="EnviarNotificacion-to-*end*" style="stroke:#181818;stroke-width:1.0;"/><polygon fill="#181818" points="286.83,896.8,289.517,887.3248,286.1229,891.8503,281.5974,888.4561,286.83,896.8" style="stroke:#181818;stroke-width:1.0;"/><path d="M284.18,763 L284.18,848 L516.18,848 L516.18,773 L506.18,763 L284.18,763 " fill="#FEFFDD" style="stroke:#181818;stroke-width:0.5;"/><path d="M506.18,763 L506.18,773 L516.18,773 L506.18,763 " fill="#FEFFDD" style="stroke:#181818;stroke-width:0.5;"/><text fill="#000000" font-family="sans-serif" font-size="13" font-weight="bold" lengthAdjust="spacing" textLength="109" x="290.18" y="780.0669">Error de Env&#237;o:</text><text fill="#000000" font-family="sans-serif" font-size="13" lengthAdjust="spacing" textLength="11" x="290.18" y="795.1997">El</text><text fill="#000000" font-family="sans-serif" font-size="13" font-weight="bold" lengthAdjust="spacing" textLength="58" x="305.18" y="795.1997">sistema</text><text fill="#000000" font-family="sans-serif" font-size="13" lengthAdjust="spacing" textLength="124" x="367.18" y="795.1997">le muestra un error</text><text fill="#000000" font-family="sans-serif" font-size="13" lengthAdjust="spacing" textLength="201" x="290.18" y="810.3325">al administrador si no se puede</text><text fill="#000000" font-family="sans-serif" font-size="13" lengthAdjust="spacing" textLength="171" x="290.18" y="825.4653">enviar la notificaci&#243;ny se le</text><text fill="#000000" font-family="sans-serif" font-size="13" lengthAdjust="spacing" textLength="211" x="290.18" y="840.5981">recomienda intentarlo m&#225;s tarde</text></g><!--link ConfirmarEnvio to ActualizarEstado--><g id="link_ConfirmarEnvio_ActualizarEstado"><path d="M126.28,933.34 C147.14,963.03 178.7404,1008.0208 199.6104,1037.7208 " fill="none" id="ConfirmarEnvio-to-ActualizarEstado" style="stroke:#181818;stroke-width:1.0;"/><polygon fill="#181818" points="203.06,1042.63,201.1583,1032.9665,200.1853,1038.539,194.6128,1037.566,203.06,1042.63" style="stroke:#181818;stroke-width:1.0;"/><path d="M186.18,968 L186.18,1008 L443.18,1008 L443.18,978 L433.18,968 L186.18,968 " fill="#FEFFDD" style="stroke:#181818;stroke-width:0.5;"/><path d="M433.18,968 L433.18,978 L443.18,978 L433.18,968 " fill="#FEFFDD" style="stroke:#181818;stroke-width:0.5;"/><text fill="#000000" font-family="sans-serif" font-size="13" lengthAdjust="spacing" textLength="11" x="192.18" y="985.0669">El</text><text fill="#000000" font-family="sans-serif" font-size="13" font-weight="bold" lengthAdjust="spacing" textLength="58" x="207.18" y="985.0669">sistema</text><text fill="#000000" font-family="sans-serif" font-size="13" lengthAdjust="spacing" textLength="155" x="269.18" y="985.0669">actualiza el estado de la</text><text fill="#000000" font-family="sans-serif" font-size="13" lengthAdjust="spacing" textLength="126" x="192.18" y="1000.1997">notificaci&#243;n enviada</text></g><!--link ActualizarEstado to MostrarConfirmacion--><g id="link_ActualizarEstado_MostrarConfirmacion"><path d="M241.06,1093.31 C262.37,1117.79 296.68,1156.37 328.18,1188 C338.07,1197.94 344.9017,1204.4135 354.9217,1213.4835 " fill="none" id="ActualizarEstado-to-MostrarConfirmacion" style="stroke:#181818;stroke-width:1.0;"/><polygon fill="#181818" points="359.37,1217.51,355.3819,1208.5047,355.6631,1214.1546,350.0132,1214.4357,359.37,1217.51" style="stroke:#181818;stroke-width:1.0;"/><path d="M333.18,1128 L333.18,1183 L522.18,1183 L522.18,1138 L512.18,1128 L333.18,1128 " fill="#FEFFDD" style="stroke:#181818;stroke-width:0.5;"/><path d="M512.18,1128 L512.18,1138 L522.18,1138 L512.18,1128 " fill="#FEFFDD" style="stroke:#181818;stroke-width:0.5;"/><text fill="#000000" font-family="sans-serif" font-size="13" lengthAdjust="spacing" textLength="11" x="339.18" y="1145.0669">El</text><text fill="#000000" font-family="sans-serif" font-size="13" font-weight="bold" lengthAdjust="spacing" textLength="58" x="354.18" y="1145.0669">sistema</text><text fill="#000000" font-family="sans-serif" font-size="13" lengthAdjust="spacing" textLength="69" x="416.18" y="1145.0669">muestra al</text><text fill="#000000" font-family="sans-serif" font-size="13" lengthAdjust="spacing" textLength="161" x="339.18" y="1160.1997">usuario una confirmaci&#243;n</text><text fill="#000000" font-family="sans-serif" font-size="13" lengthAdjust="spacing" textLength="168" x="339.18" y="1175.3325">del env&#237;o de la notificaci&#243;n</text></g><!--link MostrarConfirmacion to VerNotificacionesPendientes--><g id="link_MostrarConfirmacion_VerNotificacionesPendientes"><path d="M468.58,1227.35 C491.87,1219.36 515.23,1207.03 531.18,1188 C565.72,1146.77 553.18,1122.79 553.18,1069 C553.18,382 553.18,382 553.18,382 C553.18,334.76 562.18,313.65 531.18,278 C520.26,265.44 511.5599,258.4362 496.4299,251.0362 " fill="none" id="MostrarConfirmacion-to-VerNotificacionesPendientes" style="stroke:#181818;stroke-width:1.0;"/><polygon fill="#181818" points="491.04,248.4,497.3674,255.9475,495.5316,250.5968,500.8822,248.761,491.04,248.4" style="stroke:#181818;stroke-width:1.0;"/></g><!--SRC=[bPHBJiCm48RtFiMiBNe15aW8iWGX8R6fkh3YgR18xE870cx3iWjM724NOyPfqoHDMjXKKJtZ__lduQLSmMAnk88dzFSkchKfLMcSnV20LXkq4OEmBY8u2vMnBmAA2gGC9aIibPHG9mpHAwXK03ku0GHikaj08w1zQxuTABv0wTfOmvdQUIa51N8w2d6219Zq4Iii-KGDugOeHo8GkbJ2xT4sFvPWNnCIPK35e4Rv7jECvfZdbafXh8hA6_TF7gnOkyic72fJcUYdXJa2dgRh4sIw8cUVAzIXdRb74-KX434aFC1hruCv5imSDywkZQ-LvtEoTnA2T3QfsUQX4NC5k202EYrt5n_6wb3VjgSKzhphgNOS3ytstSG_G2_bQWWgPU6zyynLv66-fD4TmLVOxKIoW3bU4DoW-H0CIJFQ9Y6xd37vmI5qe_1OkfgsG2imj0gMUb0vg9kl0FIfiMTcL6esSbr66YNpIV-5oFtAhjXMwsjaGUt3UImnPx1bWXF3gMYBgdhYOwKiV-VOjj-37K_Xp9l2GvT2okEMQ4dAxeAyiHgh_PlIqiqjo8G-d7dqVW40]--></g></svg>