<svg xmlns="http://www.w3.org/2000/svg" xmlns:xlink="http://www.w3.org/1999/xlink" contentStyleType="text/css" height="1010px" preserveAspectRatio="none" style="width:958px;height:1010px;background:#FFFFFF;" version="1.1" viewBox="0 0 958 1010" width="958px" zoomAndPan="magnify"><defs/><g><ellipse cx="470.5" cy="16" fill="#222222" rx="10" ry="10" style="stroke:#222222;stroke-width:1.0;"/><g id="VerNotificacionesPendientes"><rect fill="#F1F1F1" height="50" rx="12.5" ry="12.5" style="stroke:#181818;stroke-width:0.5;" width="218" x="361.5" y="87"/><line style="stroke:#181818;stroke-width:0.5;" x1="361.5" x2="579.5" y1="113.2969" y2="113.2969"/><text fill="#000000" font-family="sans-serif" font-size="14" lengthAdjust="spacing" textLength="198" x="371.5" y="104.9951">VerNotificacionesPendientes</text></g><g id="elem_GMN5"><path d="M614.5,91.87 L614.5,108 L579.8,112 L614.5,116 L614.5,132.1356 A0,0 0 0 0 614.5,132.1356 L876.5,132.1356 A0,0 0 0 0 876.5,132.1356 L876.5,101.87 L866.5,91.87 L614.5,91.87 A0,0 0 0 0 614.5,91.87 " fill="#FEFFDD" style="stroke:#181818;stroke-width:0.5;"/><path d="M866.5,91.87 L866.5,101.87 L876.5,101.87 L866.5,91.87 " fill="#FEFFDD" style="stroke:#181818;stroke-width:0.5;"/><text fill="#000000" font-family="sans-serif" font-size="13" lengthAdjust="spacing" textLength="237" x="620.5" y="108.9369">El sistema muestra las notificaciones</text><text fill="#000000" font-family="sans-serif" font-size="13" lengthAdjust="spacing" textLength="237" x="620.5" y="124.0697">pendientes de env&#237;o al administrador</text></g><g id="SeleccionarNotificacion"><rect fill="#F1F1F1" height="50" rx="12.5" ry="12.5" style="stroke:#181818;stroke-width:0.5;" width="179" x="146" y="198"/><line style="stroke:#181818;stroke-width:0.5;" x1="146" x2="325" y1="224.2969" y2="224.2969"/><text fill="#000000" font-family="sans-serif" font-size="14" lengthAdjust="spacing" textLength="159" x="156" y="215.9951">SeleccionarNotificacion</text></g><g id="elem_GMN10"><path d="M360,202.87 L360,219 L325.41,223 L360,227 L360,243.1356 A0,0 0 0 0 360,243.1356 L651,243.1356 A0,0 0 0 0 651,243.1356 L651,212.87 L641,202.87 L360,202.87 A0,0 0 0 0 360,202.87 " fill="#FEFFDD" style="stroke:#181818;stroke-width:0.5;"/><path d="M641,202.87 L641,212.87 L651,212.87 L641,202.87 " fill="#FEFFDD" style="stroke:#181818;stroke-width:0.5;"/><text fill="#000000" font-family="sans-serif" font-size="13" lengthAdjust="spacing" textLength="266" x="366" y="219.9369">El administrador selecciona la notificaci&#243;n</text><text fill="#000000" font-family="sans-serif" font-size="13" lengthAdjust="spacing" textLength="110" x="366" y="235.0697">que desea enviar</text></g><g id="SeleccionarDestinatario"><rect fill="#F1F1F1" height="50" rx="12.5" ry="12.5" style="stroke:#181818;stroke-width:0.5;" width="183" x="140" y="309"/><line style="stroke:#181818;stroke-width:0.5;" x1="140" x2="323" y1="335.2969" y2="335.2969"/><text fill="#000000" font-family="sans-serif" font-size="14" lengthAdjust="spacing" textLength="163" x="150" y="326.9951">SeleccionarDestinatario</text></g><g id="elem_GMN15"><path d="M358,313.87 L358,330 L323.28,334 L358,338 L358,354.1356 A0,0 0 0 0 358,354.1356 L653,354.1356 A0,0 0 0 0 653,354.1356 L653,323.87 L643,313.87 L358,313.87 A0,0 0 0 0 358,313.87 " fill="#FEFFDD" style="stroke:#181818;stroke-width:0.5;"/><path d="M643,313.87 L643,323.87 L653,323.87 L643,313.87 " fill="#FEFFDD" style="stroke:#181818;stroke-width:0.5;"/><text fill="#000000" font-family="sans-serif" font-size="13" lengthAdjust="spacing" textLength="270" x="364" y="330.9369">El administrador selecciona el destinatario</text><text fill="#000000" font-family="sans-serif" font-size="13" lengthAdjust="spacing" textLength="175" x="364" y="346.0697">al cual enviar la notificaci&#243;n</text></g><g id="EnviarNotificacion"><rect fill="#F1F1F1" height="50" rx="12.5" ry="12.5" style="stroke:#181818;stroke-width:0.5;" width="140" x="161.5" y="420"/><line style="stroke:#181818;stroke-width:0.5;" x1="161.5" x2="301.5" y1="446.2969" y2="446.2969"/><text fill="#000000" font-family="sans-serif" font-size="14" lengthAdjust="spacing" textLength="120" x="171.5" y="437.9951">EnviarNotificacion</text></g><g id="elem_GMN20"><path d="M336,424.87 L336,441 L301.74,445 L336,449 L336,465.1356 A0,0 0 0 0 336,465.1356 L571,465.1356 A0,0 0 0 0 571,465.1356 L571,434.87 L561,424.87 L336,424.87 A0,0 0 0 0 336,424.87 " fill="#FEFFDD" style="stroke:#181818;stroke-width:0.5;"/><path d="M561,424.87 L561,434.87 L571,434.87 L561,424.87 " fill="#FEFFDD" style="stroke:#181818;stroke-width:0.5;"/><text fill="#000000" font-family="sans-serif" font-size="13" lengthAdjust="spacing" textLength="210" x="342" y="441.9369">El sistema env&#237;a la notificaci&#243;n al</text><text fill="#000000" font-family="sans-serif" font-size="13" lengthAdjust="spacing" textLength="163" x="342" y="457.0697">destinatario seleccionado</text></g><g id="ConfirmarEnvio"><rect fill="#F1F1F1" height="50" rx="12.5" ry="12.5" style="stroke:#181818;stroke-width:0.5;" width="123" x="7" y="612.7"/><line style="stroke:#181818;stroke-width:0.5;" x1="7" x2="130" y1="638.9969" y2="638.9969"/><text fill="#000000" font-family="sans-serif" font-size="14" lengthAdjust="spacing" textLength="103" x="17" y="630.6951">ConfirmarEnvio</text></g><g id="elem_GMN25"><path d="M165,610 L165,633.7 L130.09,637.7 L165,641.7 L165,665.3984 A0,0 0 0 0 165,665.3984 L404,665.3984 A0,0 0 0 0 404,665.3984 L404,620 L394,610 L165,610 A0,0 0 0 0 165,610 " fill="#FEFFDD" style="stroke:#181818;stroke-width:0.5;"/><path d="M394,610 L394,620 L404,620 L394,610 " fill="#FEFFDD" style="stroke:#181818;stroke-width:0.5;"/><text fill="#000000" font-family="sans-serif" font-size="13" lengthAdjust="spacing" textLength="214" x="171" y="627.0669">Despu&#233;s de enviar la notificaci&#243;n,</text><text fill="#000000" font-family="sans-serif" font-size="13" lengthAdjust="spacing" textLength="208" x="171" y="642.1997">se confirma al usuario que se ha</text><text fill="#000000" font-family="sans-serif" font-size="13" lengthAdjust="spacing" textLength="112" x="171" y="657.3325">enviado con &#233;xito</text></g><ellipse cx="450.5" cy="637.7" fill="none" rx="11" ry="11" style="stroke:#222222;stroke-width:1.0;"/><ellipse cx="450.5" cy="637.7" fill="#222222" rx="6" ry="6" style="stroke:#222222;stroke-width:1.0;"/><g id="ActualizarEstado"><rect fill="#F1F1F1" height="50" rx="12.5" ry="12.5" style="stroke:#181818;stroke-width:0.5;" width="134" x="446.5" y="837.4"/><line style="stroke:#181818;stroke-width:0.5;" x1="446.5" x2="580.5" y1="863.6969" y2="863.6969"/><text fill="#000000" font-family="sans-serif" font-size="14" lengthAdjust="spacing" textLength="114" x="456.5" y="855.3951">ActualizarEstado</text></g><g id="MostrarConfirmacion"><rect fill="#F1F1F1" height="50" rx="12.5" ry="12.5" style="stroke:#181818;stroke-width:0.5;" width="162" x="564.5" y="951.1"/><line style="stroke:#181818;stroke-width:0.5;" x1="564.5" x2="726.5" y1="977.3969" y2="977.3969"/><text fill="#000000" font-family="sans-serif" font-size="14" lengthAdjust="spacing" textLength="142" x="574.5" y="969.0951">MostrarConfirmacion</text></g><g id="elem_GMN34"><path d="M762,948.4 L762,972.1 L726.69,976.1 L762,980.1 L762,1003.7984 A0,0 0 0 0 762,1003.7984 L951,1003.7984 A0,0 0 0 0 951,1003.7984 L951,958.4 L941,948.4 L762,948.4 A0,0 0 0 0 762,948.4 " fill="#FEFFDD" style="stroke:#181818;stroke-width:0.5;"/><path d="M941,948.4 L941,958.4 L951,958.4 L941,948.4 " fill="#FEFFDD" style="stroke:#181818;stroke-width:0.5;"/><text fill="#000000" font-family="sans-serif" font-size="13" lengthAdjust="spacing" textLength="139" x="768" y="965.4669">El sistema muestra al</text><text fill="#000000" font-family="sans-serif" font-size="13" lengthAdjust="spacing" textLength="161" x="768" y="980.5997">usuario una confirmaci&#243;n</text><text fill="#000000" font-family="sans-serif" font-size="13" lengthAdjust="spacing" textLength="168" x="768" y="995.7325">del env&#237;o de la notificaci&#243;n</text></g><!--link *start* to VerNotificacionesPendientes--><g id="link_*start*_VerNotificacionesPendientes"><path d="M470.5,26.36 C470.5,40.29 470.5,60.96 470.5,80.65 " fill="none" id="*start*-to-VerNotificacionesPendientes" style="stroke:#181818;stroke-width:1.0;"/><polygon fill="#181818" points="470.5,86.65,474.5,77.65,470.5,81.65,466.5,77.65,470.5,86.65" style="stroke:#181818;stroke-width:1.0;"/></g><!--link VerNotificacionesPendientes to SeleccionarNotificacion--><g id="link_VerNotificacionesPendientes_SeleccionarNotificacion"><path d="M417.76,137.46 C379.06,155.42 332.1631,177.1656 293.5031,195.0956 " fill="none" id="VerNotificacionesPendientes-to-SeleccionarNotificacion" style="stroke:#181818;stroke-width:1.0;"/><polygon fill="#181818" points="288.06,197.62,297.9076,197.4621,292.5959,195.5163,294.5417,190.2046,288.06,197.62" style="stroke:#181818;stroke-width:1.0;"/></g><!--link SeleccionarNotificacion to SeleccionarDestinatario--><g id="link_SeleccionarNotificacion_SeleccionarDestinatario"><path d="M234.6,248.46 C233.94,266.42 233.2707,284.6941 232.6107,302.6241 " fill="none" id="SeleccionarNotificacion-to-SeleccionarDestinatario" style="stroke:#181818;stroke-width:1.0;"/><polygon fill="#181818" points="232.39,308.62,236.7184,299.7732,232.5739,303.6234,228.7238,299.479,232.39,308.62" style="stroke:#181818;stroke-width:1.0;"/></g><!--link SeleccionarDestinatario to EnviarNotificacion--><g id="link_SeleccionarDestinatario_EnviarNotificacion"><path d="M231.5,359.46 C231.5,377.42 231.5,395.69 231.5,413.62 " fill="none" id="SeleccionarDestinatario-to-EnviarNotificacion" style="stroke:#181818;stroke-width:1.0;"/><polygon fill="#181818" points="231.5,419.62,235.5,410.62,231.5,414.62,227.5,410.62,231.5,419.62" style="stroke:#181818;stroke-width:1.0;"/></g><!--link EnviarNotificacion to ConfirmarEnvio--><g id="link_EnviarNotificacion_ConfirmarEnvio"><path d="M210.86,470.16 C179.59,506.74 124.448,571.2387 93.128,607.8887 " fill="none" id="EnviarNotificacion-to-ConfirmarEnvio" style="stroke:#181818;stroke-width:1.0;"/><polygon fill="#181818" points="89.23,612.45,98.1179,608.2067,92.4783,608.6489,92.0361,603.0093,89.23,612.45" style="stroke:#181818;stroke-width:1.0;"/><path d="M188.5,527.5 L188.5,552.5 L293.5,552.5 L293.5,537.5 L283.5,527.5 L188.5,527.5 " fill="#FEFFDD" style="stroke:#181818;stroke-width:0.5;"/><path d="M283.5,527.5 L283.5,537.5 L293.5,537.5 L283.5,527.5 " fill="#FEFFDD" style="stroke:#181818;stroke-width:0.5;"/><text fill="#000000" font-family="sans-serif" font-size="13" lengthAdjust="spacing" textLength="84" x="194.5" y="544.5669">Env&#237;o exitoso</text></g><!--link EnviarNotificacion to *end*--><g id="link_EnviarNotificacion_*end*"><path d="M267.34,470.32 C280,479.29 294.14,489.77 306.5,500 C335.17,523.75 413.7001,600.5349 438.8701,625.2649 " fill="none" id="EnviarNotificacion-to-*end*" style="stroke:#181818;stroke-width:1.0;"/><polygon fill="#181818" points="443.15,629.47,439.5336,620.3091,439.5834,625.9658,433.9268,626.0157,443.15,629.47" style="stroke:#181818;stroke-width:1.0;"/><path d="M396.5,505 L396.5,575 L673.5,575 L673.5,515 L663.5,505 L396.5,505 " fill="#FEFFDD" style="stroke:#181818;stroke-width:0.5;"/><path d="M663.5,505 L663.5,515 L673.5,515 L663.5,505 " fill="#FEFFDD" style="stroke:#181818;stroke-width:0.5;"/><text fill="#000000" font-family="sans-serif" font-size="13" font-weight="bold" lengthAdjust="spacing" textLength="109" x="402.5" y="522.0669">Error de Env&#237;o:</text><text fill="#000000" font-family="sans-serif" font-size="13" lengthAdjust="spacing" textLength="238" x="402.5" y="537.1997">Se muestra un error al administrador</text><text fill="#000000" font-family="sans-serif" font-size="13" lengthAdjust="spacing" textLength="227" x="402.5" y="552.3325">si no se puede enviar la notificaci&#243;n</text><text fill="#000000" font-family="sans-serif" font-size="13" lengthAdjust="spacing" textLength="256" x="402.5" y="567.4653">y se le recomienda intentarlo m&#225;s tarde</text></g><!--link ConfirmarEnvio to ActualizarEstado--><g id="link_ConfirmarEnvio_ActualizarEstado"><path d="M117.4,663.17 C203.08,706.05 373.9944,791.5847 459.4944,834.3747 " fill="none" id="ConfirmarEnvio-to-ActualizarEstado" style="stroke:#181818;stroke-width:1.0;"/><polygon fill="#181818" points="464.86,837.06,458.6019,829.455,460.3887,834.8223,455.0215,836.6091,464.86,837.06" style="stroke:#181818;stroke-width:1.0;"/><path d="M347.5,731.4 L347.5,771.4 L548.5,771.4 L548.5,741.4 L538.5,731.4 L347.5,731.4 " fill="#FEFFDD" style="stroke:#181818;stroke-width:0.5;"/><path d="M538.5,731.4 L538.5,741.4 L548.5,741.4 L538.5,731.4 " fill="#FEFFDD" style="stroke:#181818;stroke-width:0.5;"/><text fill="#000000" font-family="sans-serif" font-size="13" lengthAdjust="spacing" textLength="176" x="353.5" y="748.4669">Se actualiza el estado de la</text><text fill="#000000" font-family="sans-serif" font-size="13" lengthAdjust="spacing" textLength="126" x="353.5" y="763.5997">notificaci&#243;n enviada</text></g><!--link ActualizarEstado to MostrarConfirmacion--><g id="link_ActualizarEstado_MostrarConfirmacion"><path d="M542.14,887.64 C564.28,906.37 590.21,928.314 612.33,947.034 " fill="none" id="ActualizarEstado-to-MostrarConfirmacion" style="stroke:#181818;stroke-width:1.0;"/><polygon fill="#181818" points="616.91,950.91,612.624,942.0426,613.0933,947.68,607.456,948.1493,616.91,950.91" style="stroke:#181818;stroke-width:1.0;"/></g><!--link MostrarConfirmacion to VerNotificacionesPendientes--><g id="link_MostrarConfirmacion_VerNotificacionesPendientes"><path d="M667.5,950.92 C684.63,929.53 705.5,896.64 705.5,863.4 C705.5,222 705.5,222 705.5,222 C705.5,188.95 633.7415,159.6847 567.7615,139.2547 " fill="none" id="MostrarConfirmacion-to-VerNotificacionesPendientes" style="stroke:#181818;stroke-width:1.0;"/><polygon fill="#181818" points="562.03,137.48,569.4442,143.9631,566.8063,138.9589,571.8104,136.321,562.03,137.48" style="stroke:#181818;stroke-width:1.0;"/></g><!--SRC=[XPGxRjmm48Pxdc9g8Rv0YW16icM2007S62u8STOUX2BNV0InRvFIXIiVGHVp3BLIHAqaDmjX-G_d- -V1s-OEhgw-m0s67pxHaLhTadSOVw8pX2vXLCudX43t3mdySLS91mkHOi9EGvSnfg31wWYk2W05foa630AwF_sh1sr1cuuSIPpnGR58Gb6fdQG5_nTQREL4Lxe5-fPAiAlC42Sbyy_m-pV7z8yP6JkY5dBISz2D54l8RrmRSZhfG7uRibBjGg8Le4dCZ5pCDlFFG7ZXOXrvdh0W7qhqJabN1FCXA9rTgI63gPhulndZPt2NznUkhzuTANGwoFcvWdnaoVsM49ac_4l9nzbTDVZY1c3hfzo_ZFEuLhDFp1mHsdEacCWn5tgP23vwq2mfqSQB3leNeVZOpsrpLvjecaC8t6Ec6VnyRXhkrBHLsG4MmN9fG4NYN49pohXjHZs9n795iFKThvBHGBnFZjjXFNJzlmZyQN06NzUCmPdykaqyPlJCVyOalIisnCTWX9drA94nnQ8INqoawgaOAgTd6PUtbs9zz-8rZ3GhKxccM7cQP0h73cRUedRIbpqtQCUdQS3Tsg2LT1yzgky0]--></g></svg>