<svg xmlns="http://www.w3.org/2000/svg" xmlns:xlink="http://www.w3.org/1999/xlink" contentStyleType="text/css" height="743px" preserveAspectRatio="none" style="width:483px;height:743px;background:#FFFFFF;" version="1.1" viewBox="0 0 483 743" width="483px" zoomAndPan="magnify"><defs/><g><ellipse cx="96.5" cy="16" fill="#222222" rx="10" ry="10" style="stroke:#222222;stroke-width:1.0;"/><g id="VerNotificaciones"><rect fill="#F1F1F1" height="50" rx="12.5" ry="12.5" style="stroke:#181818;stroke-width:0.5;" width="139" x="27" y="87"/><line style="stroke:#181818;stroke-width:0.5;" x1="27" x2="166" y1="113.2969" y2="113.2969"/><text fill="#000000" font-family="sans-serif" font-size="14" lengthAdjust="spacing" textLength="119" x="37" y="104.9951">VerNotificaciones</text></g><g id="elem_GMN5"><path d="M201.5,91.87 L201.5,108 L166.23,112 L201.5,116 L201.5,132.1356 A0,0 0 0 0 201.5,132.1356 L411.5,132.1356 A0,0 0 0 0 411.5,132.1356 L411.5,101.87 L401.5,91.87 L201.5,91.87 A0,0 0 0 0 201.5,91.87 " fill="#FEFFDD" style="stroke:#181818;stroke-width:0.5;"/><path d="M401.5,91.87 L401.5,101.87 L411.5,101.87 L401.5,91.87 " fill="#FEFFDD" style="stroke:#181818;stroke-width:0.5;"/><text fill="#000000" font-family="sans-serif" font-size="13" lengthAdjust="spacing" textLength="185" x="207.5" y="108.9369">El usuario accede a la opci&#243;n</text><text fill="#000000" font-family="sans-serif" font-size="13" lengthAdjust="spacing" textLength="157" x="207.5" y="124.0697">de ver sus notificaciones</text></g><g id="SeleccionarNotificacion"><rect fill="#F1F1F1" height="50" rx="12.5" ry="12.5" style="stroke:#181818;stroke-width:0.5;" width="179" x="7" y="198"/><line style="stroke:#181818;stroke-width:0.5;" x1="7" x2="186" y1="224.2969" y2="224.2969"/><text fill="#000000" font-family="sans-serif" font-size="14" lengthAdjust="spacing" textLength="159" x="17" y="215.9951">SeleccionarNotificacion</text></g><g id="elem_GMN10"><path d="M221,202.87 L221,219 L186.47,223 L221,227 L221,243.1356 A0,0 0 0 0 221,243.1356 L470,243.1356 A0,0 0 0 0 470,243.1356 L470,212.87 L460,202.87 L221,202.87 A0,0 0 0 0 221,202.87 " fill="#FEFFDD" style="stroke:#181818;stroke-width:0.5;"/><path d="M460,202.87 L460,212.87 L470,212.87 L460,202.87 " fill="#FEFFDD" style="stroke:#181818;stroke-width:0.5;"/><text fill="#000000" font-family="sans-serif" font-size="13" lengthAdjust="spacing" textLength="224" x="227" y="219.9369">El usuario selecciona la notificaci&#243;n</text><text fill="#000000" font-family="sans-serif" font-size="13" lengthAdjust="spacing" textLength="95" x="227" y="235.0697">que desea leer</text></g><g id="LeerNotificacion"><rect fill="#F1F1F1" height="50" rx="12.5" ry="12.5" style="stroke:#181818;stroke-width:0.5;" width="129" x="32" y="309"/><line style="stroke:#181818;stroke-width:0.5;" x1="32" x2="161" y1="335.2969" y2="335.2969"/><text fill="#000000" font-family="sans-serif" font-size="14" lengthAdjust="spacing" textLength="109" x="42" y="326.9951">LeerNotificacion</text></g><g id="elem_GMN15"><path d="M196,313.87 L196,330 L161.17,334 L196,338 L196,354.1356 A0,0 0 0 0 196,354.1356 L427,354.1356 A0,0 0 0 0 427,354.1356 L427,323.87 L417,313.87 L196,313.87 A0,0 0 0 0 196,313.87 " fill="#FEFFDD" style="stroke:#181818;stroke-width:0.5;"/><path d="M417,313.87 L417,323.87 L427,323.87 L417,313.87 " fill="#FEFFDD" style="stroke:#181818;stroke-width:0.5;"/><text fill="#000000" font-family="sans-serif" font-size="13" lengthAdjust="spacing" textLength="206" x="202" y="330.9369">El sistema muestra el contenido</text><text fill="#000000" font-family="sans-serif" font-size="13" lengthAdjust="spacing" textLength="194" x="202" y="346.0697">de la notificaci&#243;n seleccionada</text></g><g id="ConfirmarLectura"><rect fill="#F1F1F1" height="50" rx="12.5" ry="12.5" style="stroke:#181818;stroke-width:0.5;" width="137" x="28" y="454"/><line style="stroke:#181818;stroke-width:0.5;" x1="28" x2="165" y1="480.2969" y2="480.2969"/><text fill="#000000" font-family="sans-serif" font-size="14" lengthAdjust="spacing" textLength="117" x="38" y="471.9951">ConfirmarLectura</text></g><g id="elem_GMN20"><path d="M200,458.87 L200,475 L165.48,479 L200,483 L200,499.1356 A0,0 0 0 0 200,499.1356 L429,499.1356 A0,0 0 0 0 429,499.1356 L429,468.87 L419,458.87 L200,458.87 A0,0 0 0 0 200,458.87 " fill="#FEFFDD" style="stroke:#181818;stroke-width:0.5;"/><path d="M419,458.87 L419,468.87 L429,468.87 L419,458.87 " fill="#FEFFDD" style="stroke:#181818;stroke-width:0.5;"/><text fill="#000000" font-family="sans-serif" font-size="13" lengthAdjust="spacing" textLength="204" x="206" y="475.9369">El usuario confirma que ha le&#237;do</text><text fill="#000000" font-family="sans-serif" font-size="13" lengthAdjust="spacing" textLength="87" x="206" y="491.0697">la notificaci&#243;n</text></g><g id="MostrarConfirmacion"><rect fill="#F1F1F1" height="50" rx="12.5" ry="12.5" style="stroke:#181818;stroke-width:0.5;" width="162" x="15.5" y="601.7"/><line style="stroke:#181818;stroke-width:0.5;" x1="15.5" x2="177.5" y1="627.9969" y2="627.9969"/><text fill="#000000" font-family="sans-serif" font-size="14" lengthAdjust="spacing" textLength="142" x="25.5" y="619.6951">MostrarConfirmacion</text></g><g id="elem_GMN25"><path d="M213,599 L213,622.7 L177.87,626.7 L213,630.7 L213,654.3984 A0,0 0 0 0 213,654.3984 L476,654.3984 A0,0 0 0 0 476,654.3984 L476,609 L466,599 L213,599 A0,0 0 0 0 213,599 " fill="#FEFFDD" style="stroke:#181818;stroke-width:0.5;"/><path d="M466,599 L466,609 L476,609 L466,599 " fill="#FEFFDD" style="stroke:#181818;stroke-width:0.5;"/><text fill="#000000" font-family="sans-serif" font-size="13" lengthAdjust="spacing" textLength="238" x="219" y="616.0669">El sistema muestra una confirmaci&#243;n</text><text fill="#000000" font-family="sans-serif" font-size="13" lengthAdjust="spacing" textLength="201" x="219" y="631.1997">al usuario de que la notificaci&#243;n</text><text fill="#000000" font-family="sans-serif" font-size="13" lengthAdjust="spacing" textLength="181" x="219" y="646.3325">ha sido marcada como le&#237;da</text></g><ellipse cx="96.5" cy="726.4" fill="none" rx="11" ry="11" style="stroke:#222222;stroke-width:1.0;"/><ellipse cx="96.5" cy="726.4" fill="#222222" rx="6" ry="6" style="stroke:#222222;stroke-width:1.0;"/><!--link *start* to VerNotificaciones--><g id="link_*start*_VerNotificaciones"><path d="M96.5,26.36 C96.5,40.29 96.5,60.96 96.5,80.65 " fill="none" id="*start*-to-VerNotificaciones" style="stroke:#181818;stroke-width:1.0;"/><polygon fill="#181818" points="96.5,86.65,100.5,77.65,96.5,81.65,92.5,77.65,96.5,86.65" style="stroke:#181818;stroke-width:1.0;"/></g><!--link VerNotificaciones to SeleccionarNotificacion--><g id="link_VerNotificaciones_SeleccionarNotificacion"><path d="M96.5,137.46 C96.5,155.41 96.5,173.69 96.5,191.62 " fill="none" id="VerNotificaciones-to-SeleccionarNotificacion" style="stroke:#181818;stroke-width:1.0;"/><polygon fill="#181818" points="96.5,197.62,100.5,188.62,96.5,192.62,92.5,188.62,96.5,197.62" style="stroke:#181818;stroke-width:1.0;"/></g><!--link SeleccionarNotificacion to LeerNotificacion--><g id="link_SeleccionarNotificacion_LeerNotificacion"><path d="M96.5,248.46 C96.5,266.41 96.5,284.69 96.5,302.62 " fill="none" id="SeleccionarNotificacion-to-LeerNotificacion" style="stroke:#181818;stroke-width:1.0;"/><polygon fill="#181818" points="96.5,308.62,100.5,299.62,96.5,303.62,92.5,299.62,96.5,308.62" style="stroke:#181818;stroke-width:1.0;"/></g><!--link LeerNotificacion to ConfirmarLectura--><g id="link_LeerNotificacion_ConfirmarLectura"><path d="M96.5,359.26 C96.5,385.56 96.5,421.28 96.5,447.62 " fill="none" id="LeerNotificacion-to-ConfirmarLectura" style="stroke:#181818;stroke-width:1.0;"/><polygon fill="#181818" points="96.5,453.62,100.5,444.62,96.5,448.62,92.5,444.62,96.5,453.62" style="stroke:#181818;stroke-width:1.0;"/><path d="M101.5,394 L101.5,419 L226.5,419 L226.5,404 L216.5,394 L101.5,394 " fill="#FEFFDD" style="stroke:#181818;stroke-width:0.5;"/><path d="M216.5,394 L216.5,404 L226.5,404 L216.5,394 " fill="#FEFFDD" style="stroke:#181818;stroke-width:0.5;"/><text fill="#000000" font-family="sans-serif" font-size="13" lengthAdjust="spacing" textLength="104" x="107.5" y="411.0669">Leer notificaci&#243;n</text></g><!--link ConfirmarLectura to MostrarConfirmacion--><g id="link_ConfirmarLectura_MostrarConfirmacion"><path d="M96.5,504.39 C96.5,531.28 96.5,568.31 96.5,595.23 " fill="none" id="ConfirmarLectura-to-MostrarConfirmacion" style="stroke:#181818;stroke-width:1.0;"/><polygon fill="#181818" points="96.5,601.23,100.5,592.23,96.5,596.23,92.5,592.23,96.5,601.23" style="stroke:#181818;stroke-width:1.0;"/><path d="M101.5,539 L101.5,564 L272.5,564 L272.5,549 L262.5,539 L101.5,539 " fill="#FEFFDD" style="stroke:#181818;stroke-width:0.5;"/><path d="M262.5,539 L262.5,549 L272.5,549 L262.5,539 " fill="#FEFFDD" style="stroke:#181818;stroke-width:0.5;"/><text fill="#000000" font-family="sans-serif" font-size="13" lengthAdjust="spacing" textLength="150" x="107.5" y="556.0669">Notificaci&#243;n confirmada</text></g><!--link MostrarConfirmacion to *end*--><g id="link_MostrarConfirmacion_*end*"><path d="M96.5,652.1 C96.5,672.45 96.5,694.42 96.5,709.24 " fill="none" id="MostrarConfirmacion-to-*end*" style="stroke:#181818;stroke-width:1.0;"/><polygon fill="#181818" points="96.5,715.24,100.5,706.24,96.5,710.24,92.5,706.24,96.5,715.24" style="stroke:#181818;stroke-width:1.0;"/></g><!--SRC=[VP8zKiCm48LxdsBhpEGAD0nTICCCJIR5pdfDDDXQq0-tek88kHZwmP5aEvJMMpr_xwrEkpFizm_mokOeJWsAa9HejfqMns3KsyM131iwF8tWhKUZ1928UmQ44K4-I5r_D7GGJhxOWFKMT7kNTH-FkEjMledcXKUc-8sDkc2wDrMJsTjCP2iOcV3JSw2q74HcKs7TiKvm1-R_g5PonB7AEfuG9i_M6GGUWKGxrggNtDIAhf3tM94jxHFIe-X1cGdDWSbvWnafYAFIx-bAQrxyMlQLJrqb_OcfjKkixFgTw9Ve5UtICD4-I-p0p5hfS0O-DaNC_wrhQB6t3BTQz-4Lq6qeFm4i0SCMOhIDTnBIshYf48G2Hp2P9EUlLxE1aVAUTkTV]--></g></svg>