<svg xmlns="http://www.w3.org/2000/svg" xmlns:xlink="http://www.w3.org/1999/xlink" contentStyleType="text/css" height="960px" preserveAspectRatio="none" style="width:378px;height:960px;background:#FFFFFF;" version="1.1" viewBox="0 0 378 960" width="378px" zoomAndPan="magnify"><defs/><g><ellipse cx="96.5" cy="16" fill="#222222" rx="10" ry="10" style="stroke:#222222;stroke-width:1.0;"/><g id="VerNotificaciones"><rect fill="#F1F1F1" height="50" rx="12.5" ry="12.5" style="stroke:#181818;stroke-width:0.5;" width="139" x="27" y="166"/><line style="stroke:#181818;stroke-width:0.5;" x1="27" x2="166" y1="192.2969" y2="192.2969"/><text fill="#000000" font-family="sans-serif" font-size="14" lengthAdjust="spacing" textLength="119" x="37" y="183.9951">VerNotificaciones</text></g><g id="SeleccionarNotificacion"><rect fill="#F1F1F1" height="50" rx="12.5" ry="12.5" style="stroke:#181818;stroke-width:0.5;" width="179" x="7" y="326"/><line style="stroke:#181818;stroke-width:0.5;" x1="7" x2="186" y1="352.2969" y2="352.2969"/><text fill="#000000" font-family="sans-serif" font-size="14" lengthAdjust="spacing" textLength="159" x="17" y="343.9951">SeleccionarNotificacion</text></g><g id="LeerNotificacion"><rect fill="#F1F1F1" height="50" rx="12.5" ry="12.5" style="stroke:#181818;stroke-width:0.5;" width="129" x="32" y="486"/><line style="stroke:#181818;stroke-width:0.5;" x1="32" x2="161" y1="512.2969" y2="512.2969"/><text fill="#000000" font-family="sans-serif" font-size="14" lengthAdjust="spacing" textLength="109" x="42" y="503.9951">LeerNotificacion</text></g><g id="ConfirmarLectura"><rect fill="#F1F1F1" height="50" rx="12.5" ry="12.5" style="stroke:#181818;stroke-width:0.5;" width="137" x="28" y="646"/><line style="stroke:#181818;stroke-width:0.5;" x1="28" x2="165" y1="672.2969" y2="672.2969"/><text fill="#000000" font-family="sans-serif" font-size="14" lengthAdjust="spacing" textLength="117" x="38" y="663.9951">ConfirmarLectura</text></g><g id="MostrarConfirmacion"><rect fill="#F1F1F1" height="50" rx="12.5" ry="12.5" style="stroke:#181818;stroke-width:0.5;" width="162" x="15.5" y="821"/><line style="stroke:#181818;stroke-width:0.5;" x1="15.5" x2="177.5" y1="847.2969" y2="847.2969"/><text fill="#000000" font-family="sans-serif" font-size="14" lengthAdjust="spacing" textLength="142" x="25.5" y="838.9951">MostrarConfirmacion</text></g><ellipse cx="96.5" cy="943" fill="none" rx="11" ry="11" style="stroke:#222222;stroke-width:1.0;"/><ellipse cx="96.5" cy="943" fill="#222222" rx="6" ry="6" style="stroke:#222222;stroke-width:1.0;"/><!--link *start* to VerNotificaciones--><g id="link_*start*_VerNotificaciones"><path d="M96.5,26.3 C96.5,52.34 96.5,120.59 96.5,159.52 " fill="none" id="*start*-to-VerNotificaciones" style="stroke:#181818;stroke-width:1.0;"/><polygon fill="#181818" points="96.5,165.52,100.5,156.52,96.5,160.52,92.5,156.52,96.5,165.52" style="stroke:#181818;stroke-width:1.0;"/><path d="M101.5,61 L101.5,131 L366.5,131 L366.5,71 L356.5,61 L101.5,61 " fill="#FEFFDD" style="stroke:#181818;stroke-width:0.5;"/><path d="M356.5,61 L356.5,71 L366.5,71 L356.5,61 " fill="#FEFFDD" style="stroke:#181818;stroke-width:0.5;"/><text fill="#000000" font-family="sans-serif" font-size="13" lengthAdjust="spacing" textLength="11" x="107.5" y="78.0669">El</text><text fill="#000000" font-family="sans-serif" font-size="13" font-weight="bold" lengthAdjust="spacing" textLength="54" x="122.5" y="78.0669">usuario</text><text fill="#000000" font-family="sans-serif" font-size="13" lengthAdjust="spacing" textLength="119" x="180.5" y="78.0669">accede a la opci&#243;n</text><text fill="#000000" font-family="sans-serif" font-size="13" lengthAdjust="spacing" textLength="157" x="107.5" y="93.1997">de ver sus notificaciones</text><text fill="#000000" font-family="sans-serif" font-size="13" lengthAdjust="spacing" textLength="4" x="107.5" y="108.3325">&#160;</text><text fill="#000000" font-family="sans-serif" font-size="13" lengthAdjust="spacing" textLength="11" x="107.5" y="123.4653">El</text><text fill="#000000" font-family="sans-serif" font-size="13" font-weight="bold" lengthAdjust="spacing" textLength="58" x="122.5" y="123.4653">sistema</text><text fill="#000000" font-family="sans-serif" font-size="13" lengthAdjust="spacing" textLength="167" x="184.5" y="123.4653">muestra las notificaciones</text></g><!--link VerNotificaciones to SeleccionarNotificacion--><g id="link_VerNotificaciones_SeleccionarNotificacion"><path d="M96.5,216.34 C96.5,246.03 96.5,289.93 96.5,319.63 " fill="none" id="VerNotificaciones-to-SeleccionarNotificacion" style="stroke:#181818;stroke-width:1.0;"/><polygon fill="#181818" points="96.5,325.63,100.5,316.63,96.5,320.63,92.5,316.63,96.5,325.63" style="stroke:#181818;stroke-width:1.0;"/><path d="M101.5,251 L101.5,291 L357.5,291 L357.5,261 L347.5,251 L101.5,251 " fill="#FEFFDD" style="stroke:#181818;stroke-width:0.5;"/><path d="M347.5,251 L347.5,261 L357.5,261 L347.5,251 " fill="#FEFFDD" style="stroke:#181818;stroke-width:0.5;"/><text fill="#000000" font-family="sans-serif" font-size="13" lengthAdjust="spacing" textLength="11" x="107.5" y="268.0669">El</text><text fill="#000000" font-family="sans-serif" font-size="13" font-weight="bold" lengthAdjust="spacing" textLength="54" x="122.5" y="268.0669">usuario</text><text fill="#000000" font-family="sans-serif" font-size="13" lengthAdjust="spacing" textLength="158" x="180.5" y="268.0669">selecciona la notificaci&#243;n</text><text fill="#000000" font-family="sans-serif" font-size="13" lengthAdjust="spacing" textLength="95" x="107.5" y="283.1997">que desea leer</text></g><!--link SeleccionarNotificacion to LeerNotificacion--><g id="link_SeleccionarNotificacion_LeerNotificacion"><path d="M96.5,376.34 C96.5,406.03 96.5,449.93 96.5,479.63 " fill="none" id="SeleccionarNotificacion-to-LeerNotificacion" style="stroke:#181818;stroke-width:1.0;"/><polygon fill="#181818" points="96.5,485.63,100.5,476.63,96.5,480.63,92.5,476.63,96.5,485.63" style="stroke:#181818;stroke-width:1.0;"/><path d="M101.5,411 L101.5,451 L339.5,451 L339.5,421 L329.5,411 L101.5,411 " fill="#FEFFDD" style="stroke:#181818;stroke-width:0.5;"/><path d="M329.5,411 L329.5,421 L339.5,421 L329.5,411 " fill="#FEFFDD" style="stroke:#181818;stroke-width:0.5;"/><text fill="#000000" font-family="sans-serif" font-size="13" lengthAdjust="spacing" textLength="11" x="107.5" y="428.0669">El</text><text fill="#000000" font-family="sans-serif" font-size="13" font-weight="bold" lengthAdjust="spacing" textLength="58" x="122.5" y="428.0669">sistema</text><text fill="#000000" font-family="sans-serif" font-size="13" lengthAdjust="spacing" textLength="136" x="184.5" y="428.0669">muestra el contenido</text><text fill="#000000" font-family="sans-serif" font-size="13" lengthAdjust="spacing" textLength="194" x="107.5" y="443.1997">de la notificaci&#243;n seleccionada</text></g><!--link LeerNotificacion to ConfirmarLectura--><g id="link_LeerNotificacion_ConfirmarLectura"><path d="M96.5,536.34 C96.5,566.03 96.5,609.93 96.5,639.63 " fill="none" id="LeerNotificacion-to-ConfirmarLectura" style="stroke:#181818;stroke-width:1.0;"/><polygon fill="#181818" points="96.5,645.63,100.5,636.63,96.5,640.63,92.5,636.63,96.5,645.63" style="stroke:#181818;stroke-width:1.0;"/><path d="M101.5,571 L101.5,611 L337.5,611 L337.5,581 L327.5,571 L101.5,571 " fill="#FEFFDD" style="stroke:#181818;stroke-width:0.5;"/><path d="M327.5,571 L327.5,581 L337.5,581 L327.5,571 " fill="#FEFFDD" style="stroke:#181818;stroke-width:0.5;"/><text fill="#000000" font-family="sans-serif" font-size="13" lengthAdjust="spacing" textLength="11" x="107.5" y="588.0669">El</text><text fill="#000000" font-family="sans-serif" font-size="13" font-weight="bold" lengthAdjust="spacing" textLength="54" x="122.5" y="588.0669">usuario</text><text fill="#000000" font-family="sans-serif" font-size="13" lengthAdjust="spacing" textLength="138" x="180.5" y="588.0669">confirma que ha le&#237;do</text><text fill="#000000" font-family="sans-serif" font-size="13" lengthAdjust="spacing" textLength="87" x="107.5" y="603.1997">la notificaci&#243;n</text></g><!--link ConfirmarLectura to MostrarConfirmacion--><g id="link_ConfirmarLectura_MostrarConfirmacion"><path d="M96.5,696.42 C96.5,729.39 96.5,781.8 96.5,814.7 " fill="none" id="ConfirmarLectura-to-MostrarConfirmacion" style="stroke:#181818;stroke-width:1.0;"/><polygon fill="#181818" points="96.5,820.7,100.5,811.7,96.5,815.7,92.5,811.7,96.5,820.7" style="stroke:#181818;stroke-width:1.0;"/><path d="M101.5,731 L101.5,786 L371.5,786 L371.5,741 L361.5,731 L101.5,731 " fill="#FEFFDD" style="stroke:#181818;stroke-width:0.5;"/><path d="M361.5,731 L361.5,741 L371.5,741 L361.5,731 " fill="#FEFFDD" style="stroke:#181818;stroke-width:0.5;"/><text fill="#000000" font-family="sans-serif" font-size="13" lengthAdjust="spacing" textLength="11" x="107.5" y="748.0669">El</text><text fill="#000000" font-family="sans-serif" font-size="13" font-weight="bold" lengthAdjust="spacing" textLength="58" x="122.5" y="748.0669">sistema</text><text fill="#000000" font-family="sans-serif" font-size="13" lengthAdjust="spacing" textLength="168" x="184.5" y="748.0669">muestra una confirmaci&#243;n</text><text fill="#000000" font-family="sans-serif" font-size="13" lengthAdjust="spacing" textLength="11" x="107.5" y="763.1997">al</text><text fill="#000000" font-family="sans-serif" font-size="13" font-weight="bold" lengthAdjust="spacing" textLength="54" x="122.5" y="763.1997">usuario</text><text fill="#000000" font-family="sans-serif" font-size="13" lengthAdjust="spacing" textLength="135" x="180.5" y="763.1997">de que la notificaci&#243;n</text><text fill="#000000" font-family="sans-serif" font-size="13" lengthAdjust="spacing" textLength="181" x="107.5" y="778.3325">ha sido marcada como le&#237;da</text></g><!--link MostrarConfirmacion to *end*--><g id="link_MostrarConfirmacion_*end*"><path d="M96.5,871.46 C96.5,891.04 96.5,911.49 96.5,925.8 " fill="none" id="MostrarConfirmacion-to-*end*" style="stroke:#181818;stroke-width:1.0;"/><polygon fill="#181818" points="96.5,931.8,100.5,922.8,96.5,926.8,92.5,922.8,96.5,931.8" style="stroke:#181818;stroke-width:1.0;"/></g><!--SRC=[ZP4zJWCn48NxFSNKbd856aGNQ91eeXJMx8kmy7h0FxaL5KV8nHXxGxAR3O7I7izxttlUc2sjLdVqWlWasUqSMtOIaBeW6II1l0jl7JruCgQaOgCJOyWoemTPyfRadTtXAr17UhD7f5GIXRdOKI2vb35O5HWAKevrV_4MeQzNwBe5L4DzXWVNivrDRmEdqr95FZkEu1y52f-WGo1E27xnQXnhu4-0PM1uOWaPmVKoLhRWERFsTi9owTSWxYNiN1niN8DpKVtRDV3nUKlyMkCUFXl79SJ4Ts5HVH-bfea_i__dB_e3VDeQwxTpIEsaubtv9oLEjJU5OIr7XGOPCqoBkiBMc3Tc-mq0]--></g></svg>