<?xml version="1.0" encoding="us-ascii" standalone="no"?><svg xmlns="http://www.w3.org/2000/svg" xmlns:xlink="http://www.w3.org/1999/xlink" contentStyleType="text/css" height="453px" preserveAspectRatio="none" style="width:732px;height:453px;background:#FFFFFF;" version="1.1" viewBox="0 0 732 453" width="732px" zoomAndPan="magnify"><defs/><g><rect fill="#F1F1F1" height="33.9688" rx="12.5" ry="12.5" style="stroke:#181818;stroke-width:0.5;" width="51" x="372.75" y="11"/><text fill="#000000" font-family="sans-serif" font-size="12" lengthAdjust="spacing" textLength="31" x="382.75" y="32.1387">Inicio</text><rect fill="#F1F1F1" height="33.9688" rx="12.5" ry="12.5" style="stroke:#181818;stroke-width:0.5;" width="171" x="312.75" y="64.9688"/><text fill="#000000" font-family="sans-serif" font-size="12" lengthAdjust="spacing" textLength="151" x="322.75" y="86.1074">Seleccionar tipo de pista</text><polygon fill="#F1F1F1" points="351.25,118.9375,445.25,118.9375,457.25,130.9375,445.25,142.9375,351.25,142.9375,339.25,130.9375,351.25,118.9375" style="stroke:#181818;stroke-width:0.5;"/><text fill="#000000" font-family="sans-serif" font-size="11" lengthAdjust="spacing" textLength="94" x="351.25" y="134.7456">Pista disponible?</text><text fill="#000000" font-family="sans-serif" font-size="11" lengthAdjust="spacing" textLength="11" x="328.25" y="128.3433">S&#237;</text><text fill="#000000" font-family="sans-serif" font-size="11" lengthAdjust="spacing" textLength="15" x="457.25" y="128.3433">No</text><rect fill="#F1F1F1" height="33.9688" rx="12.5" ry="12.5" style="stroke:#181818;stroke-width:0.5;" width="133" x="139" y="152.9375"/><text fill="#000000" font-family="sans-serif" font-size="12" lengthAdjust="spacing" textLength="113" x="149" y="174.0762">Elegir fecha y hora</text><rect fill="#F1F1F1" height="33.9688" rx="12.5" ry="12.5" style="stroke:#181818;stroke-width:0.5;" width="118" x="146.5" y="206.9063"/><text fill="#000000" font-family="sans-serif" font-size="12" lengthAdjust="spacing" textLength="98" x="156.5" y="228.0449">Realizar reserva</text><polygon fill="#F1F1F1" points="166,260.875,245,260.875,257,272.875,245,284.875,166,284.875,154,272.875,166,260.875" style="stroke:#181818;stroke-width:0.5;"/><text fill="#000000" font-family="sans-serif" font-size="11" lengthAdjust="spacing" textLength="79" x="166" y="276.6831">Pago exitoso?</text><text fill="#000000" font-family="sans-serif" font-size="11" lengthAdjust="spacing" textLength="11" x="143" y="270.2808">S&#237;</text><text fill="#000000" font-family="sans-serif" font-size="11" lengthAdjust="spacing" textLength="15" x="257" y="270.2808">No</text><rect fill="#F1F1F1" height="33.9688" rx="12.5" ry="12.5" style="stroke:#181818;stroke-width:0.5;" width="169" x="11" y="294.875"/><text fill="#000000" font-family="sans-serif" font-size="12" lengthAdjust="spacing" textLength="149" x="21" y="316.0137">Confirmaci&#243;n de reserva</text><rect fill="#F1F1F1" height="33.9688" rx="12.5" ry="12.5" style="stroke:#181818;stroke-width:0.5;" width="231" x="200" y="294.875"/><text fill="#000000" font-family="sans-serif" font-size="12" lengthAdjust="spacing" textLength="211" x="210" y="316.0137">Mostrar mensaje de error de pago</text><polygon fill="#F1F1F1" points="205.5,334.8438,217.5,346.8438,205.5,358.8438,193.5,346.8438,205.5,334.8438" style="stroke:#181818;stroke-width:0.5;"/><rect fill="#F1F1F1" height="33.9688" rx="12.5" ry="12.5" style="stroke:#181818;stroke-width:0.5;" width="260" x="461" y="152.9375"/><text fill="#000000" font-family="sans-serif" font-size="12" lengthAdjust="spacing" textLength="240" x="471" y="174.0762">Mostrar mensaje de pista no disponible</text><polygon fill="#F1F1F1" points="398.25,364.8438,410.25,376.8438,398.25,388.8438,386.25,376.8438,398.25,364.8438" style="stroke:#181818;stroke-width:0.5;"/><rect fill="#F1F1F1" height="33.9688" rx="12.5" ry="12.5" style="stroke:#181818;stroke-width:0.5;" width="37" x="379.75" y="408.8438"/><text fill="#000000" font-family="sans-serif" font-size="12" lengthAdjust="spacing" textLength="17" x="389.75" y="429.9824">Fin</text><line style="stroke:#181818;stroke-width:1.0;" x1="398.25" x2="398.25" y1="44.9688" y2="64.9688"/><polygon fill="#181818" points="394.25,54.9688,398.25,64.9688,402.25,54.9688,398.25,58.9688" style="stroke:#181818;stroke-width:1.0;"/><line style="stroke:#181818;stroke-width:1.0;" x1="205.5" x2="205.5" y1="186.9063" y2="206.9063"/><polygon fill="#181818" points="201.5,196.9063,205.5,206.9063,209.5,196.9063,205.5,200.9063" style="stroke:#181818;stroke-width:1.0;"/><line style="stroke:#181818;stroke-width:1.0;" x1="154" x2="95.5" y1="272.875" y2="272.875"/><line style="stroke:#181818;stroke-width:1.0;" x1="95.5" x2="95.5" y1="272.875" y2="294.875"/><polygon fill="#181818" points="91.5,284.875,95.5,294.875,99.5,284.875,95.5,288.875" style="stroke:#181818;stroke-width:1.0;"/><line style="stroke:#181818;stroke-width:1.0;" x1="257" x2="315.5" y1="272.875" y2="272.875"/><line style="stroke:#181818;stroke-width:1.0;" x1="315.5" x2="315.5" y1="272.875" y2="294.875"/><polygon fill="#181818" points="311.5,284.875,315.5,294.875,319.5,284.875,315.5,288.875" style="stroke:#181818;stroke-width:1.0;"/><line style="stroke:#181818;stroke-width:1.0;" x1="95.5" x2="95.5" y1="328.8438" y2="346.8438"/><line style="stroke:#181818;stroke-width:1.0;" x1="95.5" x2="193.5" y1="346.8438" y2="346.8438"/><polygon fill="#181818" points="183.5,342.8438,193.5,346.8438,183.5,350.8438,187.5,346.8438" style="stroke:#181818;stroke-width:1.0;"/><line style="stroke:#181818;stroke-width:1.0;" x1="315.5" x2="315.5" y1="328.8438" y2="346.8438"/><line style="stroke:#181818;stroke-width:1.0;" x1="315.5" x2="217.5" y1="346.8438" y2="346.8438"/><polygon fill="#181818" points="227.5,342.8438,217.5,346.8438,227.5,350.8438,223.5,346.8438" style="stroke:#181818;stroke-width:1.0;"/><line style="stroke:#181818;stroke-width:1.0;" x1="205.5" x2="205.5" y1="240.875" y2="260.875"/><polygon fill="#181818" points="201.5,250.875,205.5,260.875,209.5,250.875,205.5,254.875" style="stroke:#181818;stroke-width:1.0;"/><line style="stroke:#181818;stroke-width:1.0;" x1="339.25" x2="205.5" y1="130.9375" y2="130.9375"/><line style="stroke:#181818;stroke-width:1.0;" x1="205.5" x2="205.5" y1="130.9375" y2="152.9375"/><polygon fill="#181818" points="201.5,142.9375,205.5,152.9375,209.5,142.9375,205.5,146.9375" style="stroke:#181818;stroke-width:1.0;"/><line style="stroke:#181818;stroke-width:1.0;" x1="457.25" x2="591" y1="130.9375" y2="130.9375"/><line style="stroke:#181818;stroke-width:1.0;" x1="591" x2="591" y1="130.9375" y2="152.9375"/><polygon fill="#181818" points="587,142.9375,591,152.9375,595,142.9375,591,146.9375" style="stroke:#181818;stroke-width:1.0;"/><line style="stroke:#181818;stroke-width:1.0;" x1="205.5" x2="205.5" y1="358.8438" y2="376.8438"/><line style="stroke:#181818;stroke-width:1.0;" x1="205.5" x2="386.25" y1="376.8438" y2="376.8438"/><polygon fill="#181818" points="376.25,372.8438,386.25,376.8438,376.25,380.8438,380.25,376.8438" style="stroke:#181818;stroke-width:1.0;"/><line style="stroke:#181818;stroke-width:1.0;" x1="591" x2="591" y1="186.9063" y2="376.8438"/><line style="stroke:#181818;stroke-width:1.0;" x1="591" x2="410.25" y1="376.8438" y2="376.8438"/><polygon fill="#181818" points="420.25,372.8438,410.25,376.8438,420.25,380.8438,416.25,376.8438" style="stroke:#181818;stroke-width:1.0;"/><line style="stroke:#181818;stroke-width:1.0;" x1="398.25" x2="398.25" y1="98.9375" y2="118.9375"/><polygon fill="#181818" points="394.25,108.9375,398.25,118.9375,402.25,108.9375,398.25,112.9375" style="stroke:#181818;stroke-width:1.0;"/><line style="stroke:#181818;stroke-width:1.0;" x1="398.25" x2="398.25" y1="388.8438" y2="408.8438"/><polygon fill="#181818" points="394.25,398.8438,398.25,408.8438,402.25,398.8438,398.25,402.8438" style="stroke:#181818;stroke-width:1.0;"/><!--SRC=[RP1DZi8m34RtFSMtB5Te5xD08B5WD9gU8BGkDGfsvKG8k1ChZi35I0j2_EsIsEzzTeg5SCrQPaL5dkfq56U8t2iQGiyXkZ83k4N-DrpGSEXLUENfPuBOaI2lBgT9wW6AcQSr6rggEuS3EhMHJfL_SfwFIMqKo7Rtvr7hrWhQSzIWdyg4JbLQjgsh-NAMOQeN1Vb0o7_rqRxK42q5RKc2sz00a9dQk4_AkcFIS9kzuz_WyGyW-hJveBW9YZbBUGK0]--></g></svg>