<svg xmlns="http://www.w3.org/2000/svg" xmlns:xlink="http://www.w3.org/1999/xlink" contentStyleType="text/css" height="803px" preserveAspectRatio="none" style="width:440px;height:803px;background:#FFFFFF;" version="1.1" viewBox="0 0 440 803" width="440px" zoomAndPan="magnify"><defs/><g><text fill="#000000" font-family="sans-serif" font-size="14" font-weight="bold" lengthAdjust="spacing" textLength="115" x="155.75" y="22.9951">Borrar Usuario</text><ellipse cx="77.5" cy="53.2969" fill="#222222" rx="10" ry="10" style="stroke:#222222;stroke-width:1.0;"/><g id="BorrarUsuario"><rect fill="#F1F1F1" height="50" rx="12.5" ry="12.5" style="stroke:#181818;stroke-width:0.5;" width="114" x="20.5" y="233.2969"/><line style="stroke:#181818;stroke-width:0.5;" x1="20.5" x2="134.5" y1="259.5938" y2="259.5938"/><text fill="#000000" font-family="sans-serif" font-size="14" lengthAdjust="spacing" textLength="94" x="30.5" y="251.292">BorrarUsuario</text></g><g id="VerificarUsuario"><rect fill="#F1F1F1" height="50" rx="12.5" ry="12.5" style="stroke:#181818;stroke-width:0.5;" width="126" x="14.5" y="393.2969"/><line style="stroke:#181818;stroke-width:0.5;" x1="14.5" x2="140.5" y1="419.5938" y2="419.5938"/><text fill="#000000" font-family="sans-serif" font-size="14" lengthAdjust="spacing" textLength="106" x="24.5" y="411.292">VerificarUsuario</text></g><g id="ConfirmarBorrado"><rect fill="#F1F1F1" height="50" rx="12.5" ry="12.5" style="stroke:#181818;stroke-width:0.5;" width="141" x="7" y="504.2969"/><line style="stroke:#181818;stroke-width:0.5;" x1="7" x2="148" y1="530.5938" y2="530.5938"/><text fill="#000000" font-family="sans-serif" font-size="14" lengthAdjust="spacing" textLength="121" x="17" y="522.292">ConfirmarBorrado</text></g><g id="BorrarCuenta"><rect fill="#F1F1F1" height="50" rx="12.5" ry="12.5" style="stroke:#181818;stroke-width:0.5;" width="112" x="21.5" y="664.2969"/><line style="stroke:#181818;stroke-width:0.5;" x1="21.5" x2="133.5" y1="690.5938" y2="690.5938"/><text fill="#000000" font-family="sans-serif" font-size="14" lengthAdjust="spacing" textLength="92" x="31.5" y="682.292">BorrarCuenta</text></g><ellipse cx="77.5" cy="786.2969" fill="none" rx="11" ry="11" style="stroke:#222222;stroke-width:1.0;"/><ellipse cx="77.5" cy="786.2969" fill="#222222" rx="6" ry="6" style="stroke:#222222;stroke-width:1.0;"/><!--link *start* to BorrarUsuario--><g id="link_*start*_BorrarUsuario"><path d="M77.5,63.5469 C77.5,93.4069 77.5,181.9169 77.5,226.9569 " fill="none" id="*start*-to-BorrarUsuario" style="stroke:#181818;stroke-width:1.0;"/><polygon fill="#181818" points="77.5,232.9569,81.5,223.9569,77.5,227.9569,73.5,223.9569,77.5,232.9569" style="stroke:#181818;stroke-width:1.0;"/><path d="M82.5,98.2969 L82.5,198.2969 L433.5,198.2969 L433.5,108.2969 L423.5,98.2969 L82.5,98.2969 " fill="#FEFFDD" style="stroke:#181818;stroke-width:0.5;"/><path d="M423.5,98.2969 L423.5,108.2969 L433.5,108.2969 L423.5,98.2969 " fill="#FEFFDD" style="stroke:#181818;stroke-width:0.5;"/><text fill="#000000" font-family="sans-serif" font-size="13" lengthAdjust="spacing" textLength="11" x="88.5" y="115.3638">El</text><text fill="#000000" font-family="sans-serif" font-size="13" font-weight="bold" lengthAdjust="spacing" textLength="163" x="103.5" y="115.3638">usuario/administrador</text><text fill="#000000" font-family="sans-serif" font-size="13" lengthAdjust="spacing" textLength="119" x="270.5" y="115.3638">accede a la opci&#243;n</text><text fill="#000000" font-family="sans-serif" font-size="13" lengthAdjust="spacing" textLength="220" x="88.5" y="130.4966">de eliminar un usuario del sistema</text><text fill="#000000" font-family="sans-serif" font-size="13" lengthAdjust="spacing" textLength="4" x="88.5" y="145.6294">&#160;</text><text fill="#000000" font-family="sans-serif" font-size="13" lengthAdjust="spacing" textLength="148" x="88.5" y="160.7622">Dependiendo de su rol:</text><text fill="#000000" font-family="sans-serif" font-size="13" lengthAdjust="spacing" textLength="5" x="88.5" y="175.895">-</text><text fill="#000000" font-family="sans-serif" font-size="13" font-weight="bold" lengthAdjust="spacing" textLength="55" x="97.5" y="175.895">Usuario</text><text fill="#000000" font-family="sans-serif" font-size="13" lengthAdjust="spacing" textLength="215" x="152.5" y="175.895">: solo se puede borrar a el mismo</text><text fill="#000000" font-family="sans-serif" font-size="13" lengthAdjust="spacing" textLength="5" x="88.5" y="191.0278">-</text><text fill="#000000" font-family="sans-serif" font-size="13" font-weight="bold" lengthAdjust="spacing" textLength="105" x="97.5" y="191.0278">Administrador</text><text fill="#000000" font-family="sans-serif" font-size="13" lengthAdjust="spacing" textLength="216" x="202.5" y="191.0278">: puede eliminar cualquier usuario</text></g><!--link BorrarUsuario to VerificarUsuario--><g id="link_BorrarUsuario_VerificarUsuario"><path d="M77.5,283.6369 C77.5,313.3269 77.5,357.2269 77.5,386.9269 " fill="none" id="BorrarUsuario-to-VerificarUsuario" style="stroke:#181818;stroke-width:1.0;"/><polygon fill="#181818" points="77.5,392.9269,81.5,383.9269,77.5,387.9269,73.5,383.9269,77.5,392.9269" style="stroke:#181818;stroke-width:1.0;"/><path d="M82.5,318.2969 L82.5,358.2969 L307.5,358.2969 L307.5,328.2969 L297.5,318.2969 L82.5,318.2969 " fill="#FEFFDD" style="stroke:#181818;stroke-width:0.5;"/><path d="M297.5,318.2969 L297.5,328.2969 L307.5,328.2969 L297.5,318.2969 " fill="#FEFFDD" style="stroke:#181818;stroke-width:0.5;"/><text fill="#000000" font-family="sans-serif" font-size="13" lengthAdjust="spacing" textLength="11" x="88.5" y="335.3638">El</text><text fill="#000000" font-family="sans-serif" font-size="13" font-weight="bold" lengthAdjust="spacing" textLength="58" x="103.5" y="335.3638">sistema</text><text fill="#000000" font-family="sans-serif" font-size="13" lengthAdjust="spacing" textLength="123" x="165.5" y="335.3638">verifica la identidad</text><text fill="#000000" font-family="sans-serif" font-size="13" lengthAdjust="spacing" textLength="163" x="88.5" y="350.4966">del usuario/administrador</text></g><!--link VerificarUsuario to ConfirmarBorrado--><g id="link_VerificarUsuario_ConfirmarBorrado"><path d="M77.5,443.7569 C77.5,461.7069 77.5,479.9869 77.5,497.9169 " fill="none" id="VerificarUsuario-to-ConfirmarBorrado" style="stroke:#181818;stroke-width:1.0;"/><polygon fill="#181818" points="77.5,503.9169,81.5,494.9169,77.5,498.9169,73.5,494.9169,77.5,503.9169" style="stroke:#181818;stroke-width:1.0;"/></g><!--link ConfirmarBorrado to BorrarCuenta--><g id="link_ConfirmarBorrado_BorrarCuenta"><path d="M77.5,554.6369 C77.5,584.3269 77.5,628.2269 77.5,657.9269 " fill="none" id="ConfirmarBorrado-to-BorrarCuenta" style="stroke:#181818;stroke-width:1.0;"/><polygon fill="#181818" points="77.5,663.9269,81.5,654.9269,77.5,658.9269,73.5,654.9269,77.5,663.9269" style="stroke:#181818;stroke-width:1.0;"/><path d="M82.5,589.2969 L82.5,629.2969 L366.5,629.2969 L366.5,599.2969 L356.5,589.2969 L82.5,589.2969 " fill="#FEFFDD" style="stroke:#181818;stroke-width:0.5;"/><path d="M356.5,589.2969 L356.5,599.2969 L366.5,599.2969 L356.5,589.2969 " fill="#FEFFDD" style="stroke:#181818;stroke-width:0.5;"/><text fill="#000000" font-family="sans-serif" font-size="13" lengthAdjust="spacing" textLength="11" x="88.5" y="606.3638">El</text><text fill="#000000" font-family="sans-serif" font-size="13" font-weight="bold" lengthAdjust="spacing" textLength="58" x="103.5" y="606.3638">sistema</text><text fill="#000000" font-family="sans-serif" font-size="13" lengthAdjust="spacing" textLength="182" x="165.5" y="606.3638">procede a eliminar la cuenta</text><text fill="#000000" font-family="sans-serif" font-size="13" lengthAdjust="spacing" textLength="157" x="88.5" y="621.4966">del usuario seleccionado</text></g><!--link BorrarCuenta to *end*--><g id="link_BorrarCuenta_*end*"><path d="M77.5,714.7569 C77.5,734.3369 77.5,754.7869 77.5,769.0969 " fill="none" id="BorrarCuenta-to-*end*" style="stroke:#181818;stroke-width:1.0;"/><polygon fill="#181818" points="77.5,775.0969,81.5,766.0969,77.5,770.0969,73.5,766.0969,77.5,775.0969" style="stroke:#181818;stroke-width:1.0;"/></g><!--SRC=[ZP91JiGm34NtEONNaIhsNI31m15WWrYOn0CMQLoSXejn12w6ssP6quh5BBhvzTT__ix4KoAu5rLKU2eLbSMv5_yANNVRz9ESPI9GVl-OG38apfyE7XDuNzU16um3PowJOXJr7Z04YWG82K76mBy_6HoOGebjqX9hXcOsEK4nCmte73pGI3coVVCVA1LKKc_kpl8QaFSz54a2XM2iSzBRkWTQ00nS1cc6korOtyRF6A5Y-gfCUg9n5WpplivjEbXQUIRb8uShYcdxM1NVpJDNmP7on17ZKaQ2V-kx8DZdBH07oKVM0NNXYtQqlN9nmKErHBo6SrHfDpkNOyHXyMznhVL48R3aENtVrvgu8DXZ-WC0]--></g></svg>