<svg xmlns="http://www.w3.org/2000/svg" xmlns:xlink="http://www.w3.org/1999/xlink" contentStyleType="text/css" height="1041px" preserveAspectRatio="none" style="width:739px;height:1041px;background:#FFFFFF;" version="1.1" viewBox="0 0 739 1041" width="739px" zoomAndPan="magnify"><defs/><g><ellipse cx="350.5" cy="16" fill="#222222" rx="10" ry="10" style="stroke:#222222;stroke-width:1.0;"/><g id="BorrarUsuario"><rect fill="#F1F1F1" height="50" rx="12.5" ry="12.5" style="stroke:#181818;stroke-width:0.5;" width="114" x="293.5" y="136"/><line style="stroke:#181818;stroke-width:0.5;" x1="293.5" x2="407.5" y1="162.2969" y2="162.2969"/><text fill="#000000" font-family="sans-serif" font-size="14" lengthAdjust="spacing" textLength="94" x="303.5" y="153.9951">BorrarUsuario</text></g><g id="VerificarUsuario"><rect fill="#F1F1F1" height="50" rx="12.5" ry="12.5" style="stroke:#181818;stroke-width:0.5;" width="126" x="287.5" y="296"/><line style="stroke:#181818;stroke-width:0.5;" x1="287.5" x2="413.5" y1="322.2969" y2="322.2969"/><text fill="#000000" font-family="sans-serif" font-size="14" lengthAdjust="spacing" textLength="106" x="297.5" y="313.9951">VerificarUsuario</text></g><g id="UsuarioPropio"><rect fill="#F1F1F1" height="50" rx="12.5" ry="12.5" style="stroke:#181818;stroke-width:0.5;" width="116" x="178.5" y="487"/><line style="stroke:#181818;stroke-width:0.5;" x1="178.5" x2="294.5" y1="513.2969" y2="513.2969"/><text fill="#000000" font-family="sans-serif" font-size="14" lengthAdjust="spacing" textLength="96" x="188.5" y="504.9951">UsuarioPropio</text></g><g id="Administrador"><rect fill="#F1F1F1" height="50" rx="12.5" ry="12.5" style="stroke:#181818;stroke-width:0.5;" width="115" x="430" y="407"/><line style="stroke:#181818;stroke-width:0.5;" x1="430" x2="545" y1="433.2969" y2="433.2969"/><text fill="#000000" font-family="sans-serif" font-size="14" lengthAdjust="spacing" textLength="95" x="440" y="424.9951">Administrador</text></g><g id="ConfirmarBorrado"><rect fill="#F1F1F1" height="50" rx="12.5" ry="12.5" style="stroke:#181818;stroke-width:0.5;" width="141" x="7" y="742"/><line style="stroke:#181818;stroke-width:0.5;" x1="7" x2="148" y1="768.2969" y2="768.2969"/><text fill="#000000" font-family="sans-serif" font-size="14" lengthAdjust="spacing" textLength="121" x="17" y="759.9951">ConfirmarBorrado</text></g><g id="SeleccionarUsuario"><rect fill="#F1F1F1" height="50" rx="12.5" ry="12.5" style="stroke:#181818;stroke-width:0.5;" width="152" x="459.5" y="567"/><line style="stroke:#181818;stroke-width:0.5;" x1="459.5" x2="611.5" y1="593.2969" y2="593.2969"/><text fill="#000000" font-family="sans-serif" font-size="14" lengthAdjust="spacing" textLength="132" x="469.5" y="584.9951">SeleccionarUsuario</text></g><g id="BorrarCuenta"><rect fill="#F1F1F1" height="50" rx="12.5" ry="12.5" style="stroke:#181818;stroke-width:0.5;" width="112" x="21.5" y="902"/><line style="stroke:#181818;stroke-width:0.5;" x1="21.5" x2="133.5" y1="928.2969" y2="928.2969"/><text fill="#000000" font-family="sans-serif" font-size="14" lengthAdjust="spacing" textLength="92" x="31.5" y="919.9951">BorrarCuenta</text></g><ellipse cx="77.5" cy="1024" fill="none" rx="11" ry="11" style="stroke:#222222;stroke-width:1.0;"/><ellipse cx="77.5" cy="1024" fill="#222222" rx="6" ry="6" style="stroke:#222222;stroke-width:1.0;"/><!--link *start* to BorrarUsuario--><g id="link_*start*_BorrarUsuario"><path d="M350.5,26.38 C350.5,48.32 350.5,97.52 350.5,129.69 " fill="none" id="*start*-to-BorrarUsuario" style="stroke:#181818;stroke-width:1.0;"/><polygon fill="#181818" points="350.5,135.69,354.5,126.69,350.5,130.69,346.5,126.69,350.5,135.69" style="stroke:#181818;stroke-width:1.0;"/><path d="M355.5,61 L355.5,101 L658.5,101 L658.5,71 L648.5,61 L355.5,61 " fill="#FEFFDD" style="stroke:#181818;stroke-width:0.5;"/><path d="M648.5,61 L648.5,71 L658.5,71 L648.5,61 " fill="#FEFFDD" style="stroke:#181818;stroke-width:0.5;"/><text fill="#000000" font-family="sans-serif" font-size="13" lengthAdjust="spacing" textLength="278" x="361.5" y="78.0669">El usuario/administrador accede a la opci&#243;n</text><text fill="#000000" font-family="sans-serif" font-size="13" lengthAdjust="spacing" textLength="220" x="361.5" y="93.1997">de eliminar un usuario del sistema</text></g><!--link BorrarUsuario to VerificarUsuario--><g id="link_BorrarUsuario_VerificarUsuario"><path d="M350.5,186.34 C350.5,216.03 350.5,259.93 350.5,289.63 " fill="none" id="BorrarUsuario-to-VerificarUsuario" style="stroke:#181818;stroke-width:1.0;"/><polygon fill="#181818" points="350.5,295.63,354.5,286.63,350.5,290.63,346.5,286.63,350.5,295.63" style="stroke:#181818;stroke-width:1.0;"/><path d="M355.5,221 L355.5,261 L573.5,261 L573.5,231 L563.5,221 L355.5,221 " fill="#FEFFDD" style="stroke:#181818;stroke-width:0.5;"/><path d="M563.5,221 L563.5,231 L573.5,231 L563.5,221 " fill="#FEFFDD" style="stroke:#181818;stroke-width:0.5;"/><text fill="#000000" font-family="sans-serif" font-size="13" lengthAdjust="spacing" textLength="193" x="361.5" y="238.0669">El sistema verifica la identidad</text><text fill="#000000" font-family="sans-serif" font-size="13" lengthAdjust="spacing" textLength="163" x="361.5" y="253.1997">del usuario/administrador</text></g><!--link VerificarUsuario to UsuarioPropio--><g id="link_VerificarUsuario_UsuarioPropio"><path d="M335.83,346.32 C313.94,382.61 276.0697,445.4027 254.2097,481.6327 " fill="none" id="VerificarUsuario-to-UsuarioPropio" style="stroke:#181818;stroke-width:1.0;"/><polygon fill="#181818" points="251.11,486.77,259.1844,481.1305,253.6931,482.4889,252.3347,476.9976,251.11,486.77" style="stroke:#181818;stroke-width:1.0;"/></g><!--link VerificarUsuario to Administrador--><g id="link_VerificarUsuario_Administrador"><path d="M381.25,346.46 C403.81,364.41 429.6244,384.9548 452.1644,402.8848 " fill="none" id="VerificarUsuario-to-Administrador" style="stroke:#181818;stroke-width:1.0;"/><polygon fill="#181818" points="456.86,406.62,452.3068,397.8868,452.947,403.5073,447.3265,404.1476,456.86,406.62" style="stroke:#181818;stroke-width:1.0;"/></g><!--link UsuarioPropio to ConfirmarBorrado--><g id="link_UsuarioPropio_ConfirmarBorrado"><path d="M178.36,514.76 C139.85,519.33 91.92,532.26 66.5,567 C28.3,619.22 49.6313,695.7241 65.0713,736.1941 " fill="none" id="UsuarioPropio-to-ConfirmarBorrado" style="stroke:#181818;stroke-width:1.0;"/><polygon fill="#181818" points="67.21,741.8,67.7391,731.9654,65.4277,737.1284,60.2646,734.817,67.21,741.8" style="stroke:#181818;stroke-width:1.0;"/><path d="M71.5,579.5 L71.5,604.5 L437.5,604.5 L437.5,589.5 L427.5,579.5 L71.5,579.5 " fill="#FEFFDD" style="stroke:#181818;stroke-width:0.5;"/><path d="M427.5,579.5 L427.5,589.5 L437.5,589.5 L427.5,579.5 " fill="#FEFFDD" style="stroke:#181818;stroke-width:0.5;"/><text fill="#000000" font-family="sans-serif" font-size="13" lengthAdjust="spacing" textLength="345" x="77.5" y="596.5669">Confirmaci&#243;n del usuario para borrar su propia cuenta</text></g><!--link Administrador to SeleccionarUsuario--><g id="link_Administrador_SeleccionarUsuario"><path d="M494.89,457.34 C503.91,487.03 517.3246,531.1895 526.3546,560.8895 " fill="none" id="Administrador-to-SeleccionarUsuario" style="stroke:#181818;stroke-width:1.0;"/><polygon fill="#181818" points="528.1,566.63,529.309,556.8556,526.6455,561.8462,521.6549,559.1828,528.1,566.63" style="stroke:#181818;stroke-width:1.0;"/><path d="M523.5,492 L523.5,532 L732.5,532 L732.5,502 L722.5,492 L523.5,492 " fill="#FEFFDD" style="stroke:#181818;stroke-width:0.5;"/><path d="M722.5,492 L722.5,502 L732.5,502 L722.5,492 " fill="#FEFFDD" style="stroke:#181818;stroke-width:0.5;"/><text fill="#000000" font-family="sans-serif" font-size="13" lengthAdjust="spacing" textLength="175" x="529.5" y="509.0669">El administrador selecciona</text><text fill="#000000" font-family="sans-serif" font-size="13" lengthAdjust="spacing" textLength="188" x="529.5" y="524.1997">el usuario que desea eliminar</text></g><!--link SeleccionarUsuario to ConfirmarBorrado--><g id="link_SeleccionarUsuario_ConfirmarBorrado"><path d="M470.85,617.42 C383.69,650.34 234.993,706.5101 147.803,739.4401 " fill="none" id="SeleccionarUsuario-to-ConfirmarBorrado" style="stroke:#181818;stroke-width:1.0;"/><polygon fill="#181818" points="142.19,741.56,152.0228,742.1221,146.8675,739.7934,149.1962,734.6381,142.19,741.56" style="stroke:#181818;stroke-width:1.0;"/><path d="M392.5,652 L392.5,707 L570.5,707 L570.5,662 L560.5,652 L392.5,652 " fill="#FEFFDD" style="stroke:#181818;stroke-width:0.5;"/><path d="M560.5,652 L560.5,662 L570.5,662 L560.5,652 " fill="#FEFFDD" style="stroke:#181818;stroke-width:0.5;"/><text fill="#000000" font-family="sans-serif" font-size="13" lengthAdjust="spacing" textLength="151" x="398.5" y="669.0669">Se solicita confirmaci&#243;n</text><text fill="#000000" font-family="sans-serif" font-size="13" lengthAdjust="spacing" textLength="147" x="398.5" y="684.1997">para eliminar la cuenta</text><text fill="#000000" font-family="sans-serif" font-size="13" lengthAdjust="spacing" textLength="157" x="398.5" y="699.3325">del usuario seleccionado</text></g><!--link ConfirmarBorrado to BorrarCuenta--><g id="link_ConfirmarBorrado_BorrarCuenta"><path d="M77.5,792.34 C77.5,822.03 77.5,865.93 77.5,895.63 " fill="none" id="ConfirmarBorrado-to-BorrarCuenta" style="stroke:#181818;stroke-width:1.0;"/><polygon fill="#181818" points="77.5,901.63,81.5,892.63,77.5,896.63,73.5,892.63,77.5,901.63" style="stroke:#181818;stroke-width:1.0;"/><path d="M82.5,827 L82.5,867 L310.5,867 L310.5,837 L300.5,827 L82.5,827 " fill="#FEFFDD" style="stroke:#181818;stroke-width:0.5;"/><path d="M300.5,827 L300.5,837 L310.5,837 L300.5,827 " fill="#FEFFDD" style="stroke:#181818;stroke-width:0.5;"/><text fill="#000000" font-family="sans-serif" font-size="13" lengthAdjust="spacing" textLength="203" x="88.5" y="844.0669">Se procede a eliminar la cuenta</text><text fill="#000000" font-family="sans-serif" font-size="13" lengthAdjust="spacing" textLength="157" x="88.5" y="859.1997">del usuario seleccionado</text></g><!--link BorrarCuenta to *end*--><g id="link_BorrarCuenta_*end*"><path d="M77.5,952.46 C77.5,972.04 77.5,992.49 77.5,1006.8 " fill="none" id="BorrarCuenta-to-*end*" style="stroke:#181818;stroke-width:1.0;"/><polygon fill="#181818" points="77.5,1012.8,81.5,1003.8,77.5,1007.8,73.5,1003.8,77.5,1012.8" style="stroke:#181818;stroke-width:1.0;"/></g><!--SRC=[dP9DJiGm38NtEONN8usu0HACs2EDO3EQXKayO94c7QVXOXo1Yv6cVmcqGc9NfRRVzvvzsfrXlx-5Uo-2yXGY2dlbV4SW_FhMWNTWsRqhUB0GXzytQ1fs73f1umLGQp8421R1jvg_FXqeI2zaETMXG7HJQtgs458hDQZ86UYLbAhKCyyp2LzO_uaqpeAFiRw7O4EkOuCcOsnW5-e_jJB0-FqelatggoLtrJnLTUI2WtSNbWOb-pCULbrCLKDo1J2qA0WlEHi84Tf-CeAEoLwPNiMHXOzaIMlsRW7U2h3UPPWRKtO5oJLI8Wk4yr8B_HMrDVUh14U2u2rhxfAnAWWrs9-Fo4xEwwqMo4bYWVgL_NBbXo703PoKydZF_vKkLRBiQNV-1W00]--></g></svg>