<?xml version="1.0" encoding="us-ascii" standalone="no"?><svg xmlns="http://www.w3.org/2000/svg" xmlns:xlink="http://www.w3.org/1999/xlink" contentStyleType="text/css" height="867px" preserveAspectRatio="none" style="width:749px;height:867px;background:#FFFFFF;" version="1.1" viewBox="0 0 749 867" width="749px" zoomAndPan="magnify"><defs/><g><ellipse cx="310" cy="16" fill="#222222" rx="10" ry="10" style="stroke:#222222;stroke-width:1.0;"/><g id="BorrarUsuario"><rect fill="#F1F1F1" height="50" rx="12.5" ry="12.5" style="stroke:#181818;stroke-width:0.5;" width="114" x="253" y="87"/><line style="stroke:#181818;stroke-width:0.5;" x1="253" x2="367" y1="113.2969" y2="113.2969"/><text fill="#000000" font-family="sans-serif" font-size="14" lengthAdjust="spacing" textLength="94" x="263" y="104.9951">BorrarUsuario</text></g><g id="elem_GMN5"><path d="M401.5,91.87 L401.5,108 L367.43,112 L401.5,116 L401.5,132.1356 A0,0 0 0 0 401.5,132.1356 L704.5,132.1356 A0,0 0 0 0 704.5,132.1356 L704.5,101.87 L694.5,91.87 L401.5,91.87 A0,0 0 0 0 401.5,91.87 " fill="#FEFFDD" style="stroke:#181818;stroke-width:0.5;"/><path d="M694.5,91.87 L694.5,101.87 L704.5,101.87 L694.5,91.87 " fill="#FEFFDD" style="stroke:#181818;stroke-width:0.5;"/><text fill="#000000" font-family="sans-serif" font-size="13" lengthAdjust="spacing" textLength="278" x="407.5" y="108.9369">El usuario/administrador accede a la opci&#243;n</text><text fill="#000000" font-family="sans-serif" font-size="13" lengthAdjust="spacing" textLength="220" x="407.5" y="124.0697">de eliminar un usuario del sistema</text></g><g id="VerificarUsuario"><rect fill="#F1F1F1" height="50" rx="12.5" ry="12.5" style="stroke:#181818;stroke-width:0.5;" width="126" x="247" y="198"/><line style="stroke:#181818;stroke-width:0.5;" x1="247" x2="373" y1="224.2969" y2="224.2969"/><text fill="#000000" font-family="sans-serif" font-size="14" lengthAdjust="spacing" textLength="106" x="257" y="215.9951">VerificarUsuario</text></g><g id="elem_GMN10"><path d="M408,202.87 L408,219 L373.47,223 L408,227 L408,243.1356 A0,0 0 0 0 408,243.1356 L626,243.1356 A0,0 0 0 0 626,243.1356 L626,212.87 L616,202.87 L408,202.87 A0,0 0 0 0 408,202.87 " fill="#FEFFDD" style="stroke:#181818;stroke-width:0.5;"/><path d="M616,202.87 L616,212.87 L626,212.87 L616,202.87 " fill="#FEFFDD" style="stroke:#181818;stroke-width:0.5;"/><text fill="#000000" font-family="sans-serif" font-size="13" lengthAdjust="spacing" textLength="193" x="414" y="219.9369">El sistema verifica la identidad</text><text fill="#000000" font-family="sans-serif" font-size="13" lengthAdjust="spacing" textLength="163" x="414" y="235.0697">del usuario/administrador</text></g><g id="UsuarioPropio"><rect fill="#F1F1F1" height="50" rx="12.5" ry="12.5" style="stroke:#181818;stroke-width:0.5;" width="116" x="189" y="389"/><line style="stroke:#181818;stroke-width:0.5;" x1="189" x2="305" y1="415.2969" y2="415.2969"/><text fill="#000000" font-family="sans-serif" font-size="14" lengthAdjust="spacing" textLength="96" x="199" y="406.9951">UsuarioPropio</text></g><g id="Administrador"><rect fill="#F1F1F1" height="50" rx="12.5" ry="12.5" style="stroke:#181818;stroke-width:0.5;" width="115" x="353.5" y="309"/><line style="stroke:#181818;stroke-width:0.5;" x1="353.5" x2="468.5" y1="335.2969" y2="335.2969"/><text fill="#000000" font-family="sans-serif" font-size="14" lengthAdjust="spacing" textLength="95" x="363.5" y="326.9951">Administrador</text></g><g id="ConfirmarBorrado"><rect fill="#F1F1F1" height="50" rx="12.5" ry="12.5" style="stroke:#181818;stroke-width:0.5;" width="141" x="218.5" y="598.7"/><line style="stroke:#181818;stroke-width:0.5;" x1="218.5" x2="359.5" y1="624.9969" y2="624.9969"/><text fill="#000000" font-family="sans-serif" font-size="14" lengthAdjust="spacing" textLength="121" x="228.5" y="616.6951">ConfirmarBorrado</text></g><g id="SeleccionarUsuario"><rect fill="#F1F1F1" height="50" rx="12.5" ry="12.5" style="stroke:#181818;stroke-width:0.5;" width="152" x="346" y="469"/><line style="stroke:#181818;stroke-width:0.5;" x1="346" x2="498" y1="495.2969" y2="495.2969"/><text fill="#000000" font-family="sans-serif" font-size="14" lengthAdjust="spacing" textLength="132" x="356" y="486.9951">SeleccionarUsuario</text></g><g id="elem_GMN21"><path d="M533.5,473.87 L533.5,490 L498.36,494 L533.5,498 L533.5,514.1356 A0,0 0 0 0 533.5,514.1356 L742.5,514.1356 A0,0 0 0 0 742.5,514.1356 L742.5,483.87 L732.5,473.87 L533.5,473.87 A0,0 0 0 0 533.5,473.87 " fill="#FEFFDD" style="stroke:#181818;stroke-width:0.5;"/><path d="M732.5,473.87 L732.5,483.87 L742.5,483.87 L732.5,473.87 " fill="#FEFFDD" style="stroke:#181818;stroke-width:0.5;"/><text fill="#000000" font-family="sans-serif" font-size="13" lengthAdjust="spacing" textLength="175" x="539.5" y="490.9369">El administrador selecciona</text><text fill="#000000" font-family="sans-serif" font-size="13" lengthAdjust="spacing" textLength="188" x="539.5" y="506.0697">el usuario que desea eliminar</text></g><g id="elem_GMN25"><path d="M6,596 L6,651.3984 A0,0 0 0 0 6,651.3984 L184,651.3984 A0,0 0 0 0 184,651.3984 L184,627.7 L218.33,623.7 L184,619.7 L184,606 L174,596 L6,596 A0,0 0 0 0 6,596 " fill="#FEFFDD" style="stroke:#181818;stroke-width:0.5;"/><path d="M174,596 L174,606 L184,606 L174,596 " fill="#FEFFDD" style="stroke:#181818;stroke-width:0.5;"/><text fill="#000000" font-family="sans-serif" font-size="13" lengthAdjust="spacing" textLength="151" x="12" y="613.0669">Se solicita confirmaci&#243;n</text><text fill="#000000" font-family="sans-serif" font-size="13" lengthAdjust="spacing" textLength="147" x="12" y="628.1997">para eliminar la cuenta</text><text fill="#000000" font-family="sans-serif" font-size="13" lengthAdjust="spacing" textLength="157" x="12" y="643.3325">del usuario seleccionado</text></g><g id="BorrarCuenta"><rect fill="#F1F1F1" height="50" rx="12.5" ry="12.5" style="stroke:#181818;stroke-width:0.5;" width="112" x="233" y="712.4"/><line style="stroke:#181818;stroke-width:0.5;" x1="233" x2="345" y1="738.6969" y2="738.6969"/><text fill="#000000" font-family="sans-serif" font-size="14" lengthAdjust="spacing" textLength="92" x="243" y="730.3951">BorrarCuenta</text></g><g id="elem_GMN30"><path d="M380,717.27 L380,733.4 L345.46,737.4 L380,741.4 L380,757.5356 A0,0 0 0 0 380,757.5356 L608,757.5356 A0,0 0 0 0 608,757.5356 L608,727.27 L598,717.27 L380,717.27 A0,0 0 0 0 380,717.27 " fill="#FEFFDD" style="stroke:#181818;stroke-width:0.5;"/><path d="M598,717.27 L598,727.27 L608,727.27 L598,717.27 " fill="#FEFFDD" style="stroke:#181818;stroke-width:0.5;"/><text fill="#000000" font-family="sans-serif" font-size="13" lengthAdjust="spacing" textLength="203" x="386" y="734.3369">Se procede a eliminar la cuenta</text><text fill="#000000" font-family="sans-serif" font-size="13" lengthAdjust="spacing" textLength="157" x="386" y="749.4697">del usuario seleccionado</text></g><ellipse cx="289" cy="850.4" fill="none" rx="11" ry="11" style="stroke:#222222;stroke-width:1.0;"/><ellipse cx="289" cy="850.4" fill="#222222" rx="6" ry="6" style="stroke:#222222;stroke-width:1.0;"/><!--link *start* to BorrarUsuario--><g id="link_*start*_BorrarUsuario"><path d="M310,26.36 C310,40.29 310,60.96 310,80.65 " fill="none" id="*start*-to-BorrarUsuario" style="stroke:#181818;stroke-width:1.0;"/><polygon fill="#181818" points="310,86.65,314,77.65,310,81.65,306,77.65,310,86.65" style="stroke:#181818;stroke-width:1.0;"/></g><!--link BorrarUsuario to VerificarUsuario--><g id="link_BorrarUsuario_VerificarUsuario"><path d="M310,137.46 C310,155.41 310,173.69 310,191.62 " fill="none" id="BorrarUsuario-to-VerificarUsuario" style="stroke:#181818;stroke-width:1.0;"/><polygon fill="#181818" points="310,197.62,314,188.62,310,192.62,306,188.62,310,197.62" style="stroke:#181818;stroke-width:1.0;"/></g><!--link VerificarUsuario to UsuarioPropio--><g id="link_VerificarUsuario_UsuarioPropio"><path d="M301.89,248.32 C289.8,284.61 269.0464,346.8476 256.9764,383.0776 " fill="none" id="VerificarUsuario-to-UsuarioPropio" style="stroke:#181818;stroke-width:1.0;"/><polygon fill="#181818" points="255.08,388.77,261.7196,381.4957,256.6604,384.0263,254.1297,378.9671,255.08,388.77" style="stroke:#181818;stroke-width:1.0;"/></g><!--link VerificarUsuario to Administrador--><g id="link_VerificarUsuario_Administrador"><path d="M332.67,248.46 C349.3,266.41 367.7112,286.2897 384.3312,304.2197 " fill="none" id="VerificarUsuario-to-Administrador" style="stroke:#181818;stroke-width:1.0;"/><polygon fill="#181818" points="388.41,308.62,385.2253,299.3003,385.011,304.953,379.3582,304.7387,388.41,308.62" style="stroke:#181818;stroke-width:1.0;"/></g><!--link UsuarioPropio to ConfirmarBorrado--><g id="link_UsuarioPropio_ConfirmarBorrado"><path d="M242.74,439.24 C239.79,460.51 237.31,492.13 243,519 C249.08,547.71 260.7974,572.8623 271.9274,593.2723 " fill="none" id="UsuarioPropio-to-ConfirmarBorrado" style="stroke:#181818;stroke-width:1.0;"/><polygon fill="#181818" points="274.8,598.54,274.0029,588.7234,272.4062,594.1503,266.9794,592.5535,274.8,598.54" style="stroke:#181818;stroke-width:1.0;"/><text fill="#000000" font-family="sans-serif" font-size="13" lengthAdjust="spacing" textLength="84" x="244" y="498.5669">Confirmaci&#243;n</text></g><!--link Administrador to SeleccionarUsuario--><g id="link_Administrador_SeleccionarUsuario"><path d="M412.69,359.34 C414.76,389.03 417.8248,432.9444 419.8848,462.6444 " fill="none" id="Administrador-to-SeleccionarUsuario" style="stroke:#181818;stroke-width:1.0;"/><polygon fill="#181818" points="420.3,468.63,423.6677,459.3748,419.954,463.642,415.6868,459.9283,420.3,468.63" style="stroke:#181818;stroke-width:1.0;"/><text fill="#000000" font-family="sans-serif" font-size="13" lengthAdjust="spacing" textLength="183" x="419" y="418.5669">Seleccionar Usuario a Borrar</text></g><!--link SeleccionarUsuario to ConfirmarBorrado--><g id="link_SeleccionarUsuario_ConfirmarBorrado"><path d="M396.67,519.32 C373,542.04 342.1978,571.6243 318.5678,594.3143 " fill="none" id="SeleccionarUsuario-to-ConfirmarBorrado" style="stroke:#181818;stroke-width:1.0;"/><polygon fill="#181818" points="314.24,598.47,323.5022,595.1217,317.8465,595.0069,317.9613,589.3512,314.24,598.47" style="stroke:#181818;stroke-width:1.0;"/><text fill="#000000" font-family="sans-serif" font-size="13" lengthAdjust="spacing" textLength="84" x="364" y="562.0669">Confirmaci&#243;n</text></g><!--link ConfirmarBorrado to BorrarCuenta--><g id="link_ConfirmarBorrado_BorrarCuenta"><path d="M289,648.94 C289,667.67 289,687.49 289,706.21 " fill="none" id="ConfirmarBorrado-to-BorrarCuenta" style="stroke:#181818;stroke-width:1.0;"/><polygon fill="#181818" points="289,712.21,293,703.21,289,707.21,285,703.21,289,712.21" style="stroke:#181818;stroke-width:1.0;"/></g><!--link BorrarCuenta to *end*--><g id="link_BorrarCuenta_*end*"><path d="M289,762.76 C289,786.63 289,815.86 289,833.11 " fill="none" id="BorrarCuenta-to-*end*" style="stroke:#181818;stroke-width:1.0;"/><polygon fill="#181818" points="289,839.11,293,830.11,289,834.11,285,830.11,289,839.11" style="stroke:#181818;stroke-width:1.0;"/><text fill="#000000" font-family="sans-serif" font-size="13" lengthAdjust="spacing" textLength="112" x="290" y="805.4669">Cuenta Eliminada</text></g><!--SRC=[dPDBJiGm38RtEONNI2Fsiq22qUoH46n6ix0I5onbakAqN8mZS37SjDEcZv4GkygFtvz_fwUxC-ns3_0KHL1UKul2qOJO40Y_VpGGgqKEZXxQ_liUtOK3fqRGHG6qbXm1WaU8jUMVxm06D4AUjGu5sd1jrR27fArqGKF1GJVIcDce3FP6mXNRMsohT8StwCBNaEo0s55esA7BI3TMA4ZCKZdJ3D_F4ckTjLdoE1CqiuvSS8YXOhcWv6LTXFqOofxfx9b6RdeXJzPo3DEmVHcyagdxlOSBdzRzsQdv0TDOf2PD7i5dI-fP8XmlMHYrGVQdBJEVfohZBQkD0aEAdYqt2BPiLBGQPKBfZcjRFIxEBrjieteJxmfiUlw7BBFv-eTKXrLB7DxvVn5AoJp-f7-X-jC7Zhsgmry0]--></g></svg>