<svg xmlns="http://www.w3.org/2000/svg" xmlns:xlink="http://www.w3.org/1999/xlink" contentStyleType="text/css" height="815px" preserveAspectRatio="none" style="width:864px;height:815px;background:#FFFFFF;" version="1.1" viewBox="0 0 864 815" width="864px" zoomAndPan="magnify"><defs/><g><ellipse cx="289.2" cy="16" fill="#222222" rx="10" ry="10" style="stroke:#222222;stroke-width:1.0;"/><g id="Inicio"><rect fill="#F1F1F1" height="50" rx="12.5" ry="12.5" style="stroke:#181818;stroke-width:0.5;" width="55" x="261.7" y="136"/><line style="stroke:#181818;stroke-width:0.5;" x1="261.7" x2="316.7" y1="162.2969" y2="162.2969"/><text fill="#000000" font-family="sans-serif" font-size="14" lengthAdjust="spacing" textLength="35" x="271.7" y="153.9951">Inicio</text></g><g id="Formulario"><rect fill="#F1F1F1" height="106.1406" rx="12.5" ry="12.5" style="stroke:#181818;stroke-width:0.5;" width="145" x="216.7" y="281"/><line style="stroke:#181818;stroke-width:0.5;" x1="216.7" x2="361.7" y1="307.2969" y2="307.2969"/><text fill="#000000" font-family="sans-serif" font-size="14" lengthAdjust="spacing" textLength="72" x="253.2" y="298.9951">Formulario</text><text fill="#000000" font-family="sans-serif" font-size="12" lengthAdjust="spacing" textLength="21" x="221.7" y="323.4355">DNI</text><text fill="#000000" font-family="sans-serif" font-size="12" lengthAdjust="spacing" textLength="33" x="221.7" y="337.4043">Email</text><text fill="#000000" font-family="sans-serif" font-size="12" lengthAdjust="spacing" textLength="49" x="221.7" y="351.373">Nombre</text><text fill="#000000" font-family="sans-serif" font-size="12" lengthAdjust="spacing" textLength="125" x="221.7" y="365.3418">Numero de telefono</text><text fill="#000000" font-family="sans-serif" font-size="12" lengthAdjust="spacing" textLength="86" x="221.7" y="379.3105">Codigo postal</text></g><g id="DatosValidados"><rect fill="#F1F1F1" height="50" rx="12.5" ry="12.5" style="stroke:#181818;stroke-width:0.5;" width="127" x="225.7" y="497.14"/><line style="stroke:#181818;stroke-width:0.5;" x1="225.7" x2="352.7" y1="523.4369" y2="523.4369"/><text fill="#000000" font-family="sans-serif" font-size="14" lengthAdjust="spacing" textLength="107" x="235.7" y="515.1351">DatosValidados</text></g><g id="CuentaCreada"><rect fill="#F1F1F1" height="50" rx="12.5" ry="12.5" style="stroke:#181818;stroke-width:0.5;" width="119" x="229.7" y="642.14"/><line style="stroke:#181818;stroke-width:0.5;" x1="229.7" x2="348.7" y1="668.4369" y2="668.4369"/><text fill="#000000" font-family="sans-serif" font-size="14" lengthAdjust="spacing" textLength="99" x="239.7" y="660.1351">CuentaCreada</text></g><ellipse cx="289.2" cy="798.14" fill="none" rx="11" ry="11" style="stroke:#222222;stroke-width:1.0;"/><ellipse cx="289.2" cy="798.14" fill="#222222" rx="6" ry="6" style="stroke:#222222;stroke-width:1.0;"/><!--link *start* to Inicio--><g id="link_*start*_Inicio"><path d="M289.2,26.38 C289.2,48.32 289.2,97.52 289.2,129.69 " fill="none" id="*start*-to-Inicio" style="stroke:#181818;stroke-width:1.0;"/><polygon fill="#181818" points="289.2,135.69,293.2,126.69,289.2,130.69,285.2,126.69,289.2,135.69" style="stroke:#181818;stroke-width:1.0;"/><path d="M294.2,61 L294.2,101 L609.2,101 L609.2,71 L599.2,61 L294.2,61 " fill="#FEFFDD" style="stroke:#181818;stroke-width:0.5;"/><path d="M599.2,61 L599.2,71 L609.2,71 L599.2,61 " fill="#FEFFDD" style="stroke:#181818;stroke-width:0.5;"/><text fill="#000000" font-family="sans-serif" font-size="13" lengthAdjust="spacing" textLength="225" x="300.2" y="78.0669">El proceso comienza con el usuario</text><text fill="#000000" font-family="sans-serif" font-size="13" lengthAdjust="spacing" textLength="294" x="300.2" y="93.1997">accediendo a la web desde la p&#225;gina de inicio.</text></g><!--link Inicio to Formulario--><g id="link_Inicio_Formulario"><path d="M289.2,186.15 C289.2,210.55 289.2,243.05 289.2,274.52 " fill="none" id="Inicio-to-Formulario" style="stroke:#181818;stroke-width:1.0;"/><polygon fill="#181818" points="289.2,280.52,293.2,271.52,289.2,275.52,285.2,271.52,289.2,280.52" style="stroke:#181818;stroke-width:1.0;"/><path d="M294.2,221 L294.2,246 L671.2,246 L671.2,231 L661.2,221 L294.2,221 " fill="#FEFFDD" style="stroke:#181818;stroke-width:0.5;"/><path d="M661.2,221 L661.2,231 L671.2,231 L661.2,221 " fill="#FEFFDD" style="stroke:#181818;stroke-width:0.5;"/><text fill="#000000" font-family="sans-serif" font-size="13" lengthAdjust="spacing" textLength="356" x="300.2" y="238.0669">El usuario navega a la p&#225;gina del formulario de registro.</text></g><!--link Formulario to DatosValidados--><g id="link_Formulario_DatosValidados"><path d="M216.56,347.7 C130.87,365.77 6,403.98 56.2,467.14 C77,493.31 157.8311,507.2191 219.3811,514.4591 " fill="none" id="Formulario-to-DatosValidados" style="stroke:#181818;stroke-width:1.0;"/><polygon fill="#181818" points="225.34,515.16,216.8689,510.136,220.3742,514.5759,215.9343,518.0812,225.34,515.16" style="stroke:#181818;stroke-width:1.0;"/><path d="M61.2,429.64 L61.2,454.64 L471.2,454.64 L471.2,439.64 L461.2,429.64 L61.2,429.64 " fill="#FEFFDD" style="stroke:#181818;stroke-width:0.5;"/><path d="M461.2,429.64 L461.2,439.64 L471.2,439.64 L461.2,429.64 " fill="#FEFFDD" style="stroke:#181818;stroke-width:0.5;"/><text fill="#000000" font-family="sans-serif" font-size="13" lengthAdjust="spacing" textLength="389" x="67.2" y="446.7069">El usuario env&#237;a el formulario con sus datos para verificaci&#243;n.</text></g><!--link DatosValidados to Formulario--><g id="link_DatosValidados_Formulario"><path d="M352.79,511.54 C402.13,502.65 464.66,487.68 480.2,467.14 C519.9,414.65 437.0302,377.1788 367.6102,355.6288 " fill="none" id="DatosValidados-to-Formulario" style="stroke:#181818;stroke-width:1.0;"/><polygon fill="#181818" points="361.88,353.85,369.2895,360.3384,366.6552,355.3324,371.6613,352.6981,361.88,353.85" style="stroke:#181818;stroke-width:1.0;"/><path d="M494.2,422.14 L494.2,462.14 L857.2,462.14 L857.2,432.14 L847.2,422.14 L494.2,422.14 " fill="#FEFFDD" style="stroke:#181818;stroke-width:0.5;"/><path d="M847.2,422.14 L847.2,432.14 L857.2,432.14 L847.2,422.14 " fill="#FEFFDD" style="stroke:#181818;stroke-width:0.5;"/><text fill="#000000" font-family="sans-serif" font-size="13" lengthAdjust="spacing" textLength="342" x="500.2" y="439.2069">Si los datos no son v&#225;lidos, el formulario es mostrado</text><text fill="#000000" font-family="sans-serif" font-size="13" lengthAdjust="spacing" textLength="188" x="500.2" y="454.3397">nuevamente para correcci&#243;n.</text></g><!--link DatosValidados to CuentaCreada--><g id="link_DatosValidados_CuentaCreada"><path d="M289.2,547.4 C289.2,573.69 289.2,609.42 289.2,635.76 " fill="none" id="DatosValidados-to-CuentaCreada" style="stroke:#181818;stroke-width:1.0;"/><polygon fill="#181818" points="289.2,641.76,293.2,632.76,289.2,636.76,285.2,632.76,289.2,641.76" style="stroke:#181818;stroke-width:1.0;"/><path d="M294.2,582.14 L294.2,607.14 L660.2,607.14 L660.2,592.14 L650.2,582.14 L294.2,582.14 " fill="#FEFFDD" style="stroke:#181818;stroke-width:0.5;"/><path d="M650.2,582.14 L650.2,592.14 L660.2,592.14 L650.2,582.14 " fill="#FEFFDD" style="stroke:#181818;stroke-width:0.5;"/><text fill="#000000" font-family="sans-serif" font-size="13" lengthAdjust="spacing" textLength="345" x="300.2" y="599.2069">Si los datos son v&#225;lidos, se crea la cuenta del usuario.</text></g><!--link CuentaCreada to *end*--><g id="link_CuentaCreada_*end*"><path d="M289.2,692.4 C289.2,720.72 289.2,760.27 289.2,780.67 " fill="none" id="CuentaCreada-to-*end*" style="stroke:#181818;stroke-width:1.0;"/><polygon fill="#181818" points="289.2,786.67,293.2,777.67,289.2,781.67,285.2,777.67,289.2,786.67" style="stroke:#181818;stroke-width:1.0;"/><path d="M294.2,727.14 L294.2,752.14 L594.2,752.14 L594.2,737.14 L584.2,727.14 L294.2,727.14 " fill="#FEFFDD" style="stroke:#181818;stroke-width:0.5;"/><path d="M584.2,727.14 L584.2,737.14 L594.2,737.14 L584.2,727.14 " fill="#FEFFDD" style="stroke:#181818;stroke-width:0.5;"/><text fill="#000000" font-family="sans-serif" font-size="13" lengthAdjust="spacing" textLength="279" x="300.2" y="744.2069">El proceso de creaci&#243;n de la cuenta finaliza.</text></g><!--SRC=[XP8zRi9048Lxds9g57A056c0I3GqaT80nR0xTaPPprYxjYDn6mwGAaVmnR9hanWJ9AhzdVUzUPhjR0_p-JEiXGrh9beJU2xUQr01n_AHhHnKNWq51QCbanmnRWJ8GHCQzB4AZI4RNwm2WaFuf0DO2fRIeUfE1Gl62-0UyfZ5dv18MJPWUmSlwil6zNgtNPnf8DXIWGDf57UG_maabgU2G-qdj141Jx3Sh7UoAf7TJZPQ7Zp5jId9z-KrESfLT2SBjLmeL1fgT1EDv7g9jOOtT6pHQe0xradQxWjXQZQ56Pe0Dab1XHwX9Syv6pJSVSjb1zaLBrbOD2GrBZoXnPi6NXcS_kg7UDjsfoYWuG42WOc5AKhJo_H9dkrUWczmBvAuInMz0ayZe01bpDT7xKmQQh6CNcZ8mgZtPFudCMax-TdEzdVcrmxTzbemJEUvwpmEaUCZZeGV]--></g></svg>