<?xml version="1.0" encoding="us-ascii" standalone="no"?><svg xmlns="http://www.w3.org/2000/svg" xmlns:xlink="http://www.w3.org/1999/xlink" contentStyleType="text/css" height="323px" preserveAspectRatio="none" style="width:291px;height:323px;background:#FFFFFF;" version="1.1" viewBox="0 0 291 323" width="291px" zoomAndPan="magnify"><defs/><g><ellipse cx="116.9063" cy="16" fill="#222222" rx="10" ry="10" style="stroke:#222222;stroke-width:1.0;"/><rect fill="#F1F1F1" height="33.9688" rx="12.5" ry="12.5" style="stroke:#181818;stroke-width:0.5;" width="124" x="54.9063" y="67"/><text fill="#000000" font-family="sans-serif" font-size="12" lengthAdjust="spacing" textLength="104" x="64.9063" y="88.1387">SistemaReservas</text><g id="elem_#5"><polygon fill="#F1F1F1" points="116.9063,142,128.9063,154,116.9063,166,104.9063,154,116.9063,142" style="stroke:#181818;stroke-width:0.5;"/></g><ellipse cx="138.9063" cy="306" fill="none" rx="11" ry="11" style="stroke:#222222;stroke-width:1.0;"/><ellipse cx="138.9063" cy="306" fill="#222222" rx="6" ry="6" style="stroke:#222222;stroke-width:1.0;"/><rect fill="#F1F1F1" height="33.9688" rx="12.5" ry="12.5" style="stroke:#181818;stroke-width:0.5;" width="103" x="182.4063" y="220"/><text fill="#000000" font-family="sans-serif" font-size="12" lengthAdjust="spacing" textLength="83" x="192.4063" y="241.1387">Crea_Reserva</text><!--link start to SistemaReservas--><g id="link_start_SistemaReservas"><path d="M116.9063,26.177 C116.9063,36.661 116.9063,48.015 116.9063,60.791 " fill="none" id="start-to-SistemaReservas" style="stroke:#181818;stroke-width:1.0;"/><polygon fill="#181818" points="116.9063,66.791,120.9063,57.791,116.9063,61.791,112.9063,57.791,116.9063,66.791" style="stroke:#181818;stroke-width:1.0;"/></g><!--link SistemaReservas to #5--><g id="link_SistemaReservas_#5"><path d="M116.9063,101.115 C116.9063,113.683 116.9063,124.808 116.9063,135.885 " fill="none" id="SistemaReservas-to-#5" style="stroke:#181818;stroke-width:1.0;"/><polygon fill="#181818" points="116.9063,141.885,120.9063,132.885,116.9063,136.885,112.9063,132.885,116.9063,141.885" style="stroke:#181818;stroke-width:1.0;"/><text fill="#000000" font-family="sans-serif" font-size="11" lengthAdjust="spacing" textLength="91" x="6" y="132.3462">Estado_Reserva</text></g><!--link #5 to end--><g id="link_#5_end"><path d="M114.4403,163.651 C109.8744,181.079 101.3168,221.5172 109.9063,254 C114.2808,270.5431 121.8236,282.5218 128.9529,292.113 " fill="none" id="#5-to-end" style="stroke:#181818;stroke-width:1.0;"/><polygon fill="#181818" points="132.5323,296.9284,130.3735,287.319,129.5494,292.9156,123.9529,292.0915,132.5323,296.9284" style="stroke:#181818;stroke-width:1.0;"/><text fill="#000000" font-family="sans-serif" font-size="11" lengthAdjust="spacing" textLength="61" x="110.9063" y="241.2104">Reservado</text></g><!--link #5 to Crea_Reserva--><g id="link_#5_Crea_Reserva"><path d="M123.532,159.587 C139.9683,170.966 178.314,197.5138 205.538,216.3606 " fill="none" id="#5-to-Crea_Reserva" style="stroke:#181818;stroke-width:1.0;"/><polygon fill="#181818" points="210.4713,219.7758,205.3482,211.3642,206.3602,216.9298,200.7947,217.9418,210.4713,219.7758" style="stroke:#181818;stroke-width:1.0;"/><text fill="#000000" font-family="sans-serif" font-size="11" lengthAdjust="spacing" textLength="76" x="179.9063" y="197.2104">NoReservado</text></g><!--link Crea_Reserva to end--><g id="link_Crea_Reserva_end"><path d="M210.9093,254.2188 C190.4813,268.6257 166.6316,285.4466 152.4336,295.4595 " fill="none" id="Crea_Reserva-to-end" style="stroke:#181818;stroke-width:1.0;"/><polygon fill="#181818" points="147.5303,298.9175,157.1905,296.9994,151.6163,296.0359,152.5799,290.4617,147.5303,298.9175" style="stroke:#181818;stroke-width:1.0;"/></g><!--SRC=[qz3ILD3LjLDG2iuiBadDJGnABKujAaiiLk9I08BCD0Kbr-AIn9JyUAY4aa99HceUM591GTSk6YgSaX-heA6boQK0badDAKw5AG6gySj7KgNaN9IQ23SDeGgY7QGvBoKp3G00]--></g></svg>