<?xml version="1.0" encoding="us-ascii" standalone="no"?><svg xmlns="http://www.w3.org/2000/svg" xmlns:xlink="http://www.w3.org/1999/xlink" contentStyleType="text/css" height="301px" preserveAspectRatio="none" style="width:292px;height:301px;background:#FFFFFF;" version="1.1" viewBox="0 0 292 301" width="292px" zoomAndPan="magnify"><defs/><g><!--cluster Bonos--><g id="cluster_Bonos"><path d="M95.5,6 L145.5,6 A3.75,3.75 0 0 1 148,8.5 L155,28.2969 L282.89,28.2969 A2.5,2.5 0 0 1 285.39,30.7969 L285.39,291.5 A2.5,2.5 0 0 1 282.89,294 L95.5,294 A2.5,2.5 0 0 1 93,291.5 L93,8.5 A2.5,2.5 0 0 1 95.5,6 " fill="none" style="stroke:#000000;stroke-width:1.5;"/><line style="stroke:#000000;stroke-width:1.5;" x1="93" x2="155" y1="28.2969" y2="28.2969"/><text fill="#000000" font-family="sans-serif" font-size="14" font-weight="bold" lengthAdjust="spacing" textLength="49" x="97" y="20.9951">Bonos</text></g><g id="elem_UC1"><ellipse cx="189.2033" cy="262.0047" fill="#F1F1F1" rx="67.5233" ry="15.9047" style="stroke:#181818;stroke-width:0.5;"/><text fill="#000000" font-family="sans-serif" font-size="14" lengthAdjust="spacing" textLength="86" x="143.2033" y="265.7522">Crear Bonos</text></g><g id="elem_UC2"><ellipse cx="189.1966" cy="195.9953" fill="#F1F1F1" rx="65.0766" ry="15.4153" style="stroke:#181818;stroke-width:0.5;"/><text fill="#000000" font-family="sans-serif" font-size="14" lengthAdjust="spacing" textLength="79" x="146.6966" y="199.7429">Leer Bonos</text></g><g id="elem_UC3"><ellipse cx="189.1963" cy="126.9993" fill="#F1F1F1" rx="80.1963" ry="18.4393" style="stroke:#181818;stroke-width:0.5;"/><text fill="#000000" font-family="sans-serif" font-size="14" lengthAdjust="spacing" textLength="119" x="128.1039" y="130.3579">Actualizar  Bonos</text></g><g id="elem_UC4"><ellipse cx="189.1988" cy="56.9958" fill="#F1F1F1" rx="69.3288" ry="16.2658" style="stroke:#181818;stroke-width:0.5;"/><text fill="#000000" font-family="sans-serif" font-size="14" lengthAdjust="spacing" textLength="91" x="140.6988" y="60.7433">Borrar Bonos</text></g><!--entity A--><g id="elem_A"><ellipse cx="27.5" cy="132.35" fill="#F1F1F1" rx="8" ry="8" style="stroke:#181818;stroke-width:0.5;"/><path d="M27.5,140.35 L27.5,167.35 M14.5,148.35 L40.5,148.35 M27.5,167.35 L14.5,182.35 M27.5,167.35 L40.5,182.35 " fill="none" style="stroke:#181818;stroke-width:0.5;"/><text fill="#000000" font-family="sans-serif" font-size="14" lengthAdjust="spacing" textLength="43" x="6" y="196.8451">Admin</text></g><!--link A to UC1--><g id="link_A_UC1"><path d="M49.36,193.78 C58.93,206.26 71.22,219.77 85,229 C100.47,239.36 113.6466,244.9716 131.0566,250.0116 " fill="none" id="A-to-UC1" style="stroke:#181818;stroke-width:1.0;"/><polygon fill="#181818" points="136.82,251.68,129.2872,245.3351,132.0172,250.2896,127.0627,253.0196,136.82,251.68" style="stroke:#181818;stroke-width:1.0;"/></g><!--link A to UC2--><g id="link_A_UC2"><path d="M49.38,166.44 C72.2,171.3 103.6915,178.0109 133.9015,184.4409 " fill="none" id="A-to-UC2" style="stroke:#181818;stroke-width:1.0;"/><polygon fill="#181818" points="139.77,185.69,131.7999,179.904,134.8795,184.6491,130.1345,187.7287,139.77,185.69" style="stroke:#181818;stroke-width:1.0;"/></g><!--link A to UC3--><g id="link_A_UC3"><path d="M49.38,157.42 C69.75,152.96 95.8394,147.2459 123.9594,141.0759 " fill="none" id="A-to-UC3" style="stroke:#181818;stroke-width:1.0;"/><polygon fill="#181818" points="129.82,139.79,120.1719,137.8118,124.9362,140.8616,121.8864,145.6259,129.82,139.79" style="stroke:#181818;stroke-width:1.0;"/></g><!--link A to UC4--><g id="link_A_UC4"><path d="M49.32,128 C58.8,114.88 71.04,100.72 85,91 C100.17,80.43 113.103,74.6938 130.373,69.5138 " fill="none" id="A-to-UC4" style="stroke:#181818;stroke-width:1.0;"/><polygon fill="#181818" points="136.12,67.79,126.3502,66.5443,131.3308,69.2265,128.6486,74.207,136.12,67.79" style="stroke:#181818;stroke-width:1.0;"/></g><!--SRC=[NOqn3eCm34Ltdy9YPoWmLmgiNNi0AxWqAeqhnonKlNif2AJKqvF- -_uZtmnDKCDmD-o3ihSW4O2yYQBhdo4Y9NG0y2B_e86nbIZf3O3BJOaz9SQYKoRTek9Nk7QdNBWmvtcLvyxRH6EObo-PLkTQAwf_Gyrgm0V0OLcUr-cTgeFgWvel]--></g></svg>