<?xml version="1.0" encoding="us-ascii" standalone="no"?><svg xmlns="http://www.w3.org/2000/svg" xmlns:xlink="http://www.w3.org/1999/xlink" contentStyleType="text/css" height="261px" preserveAspectRatio="none" style="width:319px;height:261px;background:#FFFFFF;" version="1.1" viewBox="0 0 319 261" width="319px" zoomAndPan="magnify"><defs/><g><!--cluster Pagos--><g id="cluster_Pagos"><path d="M95.5,6 L144.5,6 A3.75,3.75 0 0 1 147,8.5 L154,28.2969 L309.84,28.2969 A2.5,2.5 0 0 1 312.34,30.7969 L312.34,232.5 A2.5,2.5 0 0 1 309.84,235 L95.5,235 A2.5,2.5 0 0 1 93,232.5 L93,8.5 A2.5,2.5 0 0 1 95.5,6 " fill="none" style="stroke:#000000;stroke-width:1.5;"/><line style="stroke:#000000;stroke-width:1.5;" x1="93" x2="154" y1="28.2969" y2="28.2969"/><text fill="#000000" font-family="sans-serif" font-size="14" font-weight="bold" lengthAdjust="spacing" textLength="48" x="97" y="20.9951">Pagos</text></g><g id="elem_UC1"><ellipse cx="202.6673" cy="58.0015" fill="#F1F1F1" rx="72.3073" ry="16.8615" style="stroke:#181818;stroke-width:0.5;"/><text fill="#000000" font-family="sans-serif" font-size="14" lengthAdjust="spacing" textLength="99" x="150.1673" y="61.749">Pagar Reserva</text></g><g id="elem_UC2"><ellipse cx="202.67" cy="125.998" fill="#F1F1F1" rx="68.24" ry="16.048" style="stroke:#181818;stroke-width:0.5;"/><text fill="#000000" font-family="sans-serif" font-size="14" lengthAdjust="spacing" textLength="88" x="155.67" y="129.7456">Pagar Bonos</text></g><g id="elem_UC3"><ellipse cx="202.6693" cy="198.0039" fill="#F1F1F1" rx="93.6693" ry="21.1339" style="stroke:#181818;stroke-width:0.5;"/><text fill="#000000" font-family="sans-serif" font-size="14" lengthAdjust="spacing" textLength="150" x="127.6693" y="200.8505">Ver Historial de Pagos</text></g><!--entity U--><g id="elem_U"><ellipse cx="27.5" cy="77.35" fill="#F1F1F1" rx="8" ry="8" style="stroke:#181818;stroke-width:0.5;"/><path d="M27.5,85.35 L27.5,112.35 M14.5,93.35 L40.5,93.35 M27.5,112.35 L14.5,127.35 M27.5,112.35 L40.5,127.35 " fill="none" style="stroke:#181818;stroke-width:0.5;"/><text fill="#000000" font-family="sans-serif" font-size="14" lengthAdjust="spacing" textLength="32" x="11.5" y="141.8451">User</text></g><!--entity A--><g id="elem_A"><ellipse cx="27.5" cy="188.35" fill="#F1F1F1" rx="8" ry="8" style="stroke:#181818;stroke-width:0.5;"/><path d="M27.5,196.35 L27.5,223.35 M14.5,204.35 L40.5,204.35 M27.5,223.35 L14.5,238.35 M27.5,223.35 L40.5,238.35 " fill="none" style="stroke:#181818;stroke-width:0.5;"/><text fill="#000000" font-family="sans-serif" font-size="14" lengthAdjust="spacing" textLength="43" x="6" y="252.8451">Admin</text></g><!--link U to UC1--><g id="link_U_UC1"><path d="M43.87,102.65 C68.62,95.65 112.5068,83.2339 149.5368,72.7539 " fill="none" id="U-to-UC1" style="stroke:#181818;stroke-width:1.0;"/><polygon fill="#181818" points="155.31,71.12,145.5609,69.722,150.499,72.4816,147.7394,77.4197,155.31,71.12" style="stroke:#181818;stroke-width:1.0;"/></g><!--link U to UC2--><g id="link_U_UC2"><path d="M43.87,108.69 C65.39,111.05 99.7857,114.8267 134.2957,118.6067 " fill="none" id="U-to-UC2" style="stroke:#181818;stroke-width:1.0;"/><polygon fill="#181818" points="140.26,119.26,131.749,114.3038,135.2897,118.7156,130.878,122.2563,140.26,119.26" style="stroke:#181818;stroke-width:1.0;"/></g><!--link U to UC3--><g id="link_U_UC3"><path d="M43.96,125.13 C54.52,136.52 69.37,150.76 85,160 C100.95,169.44 113.8297,175.0083 131.4097,180.6783 " fill="none" id="U-to-UC3" style="stroke:#181818;stroke-width:1.0;"/><polygon fill="#181818" points="137.12,182.52,129.7823,175.9505,132.3614,180.9852,127.3267,183.5643,137.12,182.52" style="stroke:#181818;stroke-width:1.0;"/></g><!--link A to UC3--><g id="link_A_UC3"><path d="M49.39,215.59 C66.84,213.57 86.9697,211.2493 112.6497,208.2793 " fill="none" id="A-to-UC3" style="stroke:#181818;stroke-width:1.0;"/><polygon fill="#181818" points="118.61,207.59,109.21,204.6505,113.6431,208.1644,110.1291,212.5975,118.61,207.59" style="stroke:#181818;stroke-width:1.0;"/></g><!--SRC=[ROsn2W8n44Jx_Ohb-YiyUo7QM8gGwvTaZS4paMoq4V_TzSW9WblD3czc9ZvLh1bB3EUAFXPsDUO4GAxcWbQu80dQzXj_ZUbZ680RkGi5nWE5B4y0rBiBEnB6JaqgU6JDFwYRAtQhVyWsfomD67w1KRVtKNGtqeI-BJLs3V02iDZtcxbwKSDNAM4M-GO0]--></g></svg>