<?xml version="1.0" encoding="us-ascii" standalone="no"?><svg xmlns="http://www.w3.org/2000/svg" xmlns:xlink="http://www.w3.org/1999/xlink" contentStyleType="text/css" height="244px" preserveAspectRatio="none" style="width:328px;height:244px;background:#FFFFFF;" version="1.1" viewBox="0 0 328 244" width="328px" zoomAndPan="magnify"><defs/><g><!--cluster Pagos--><g id="cluster_Pagos"><path d="M98.5,6 L148.5,6 A3.75,3.75 0 0 1 151,8.5 L158,28.2969 L318.5,28.2969 A2.5,2.5 0 0 1 321,30.7969 L321,234.5 A2.5,2.5 0 0 1 318.5,237 L98.5,237 A2.5,2.5 0 0 1 96,234.5 L96,8.5 A2.5,2.5 0 0 1 98.5,6 " fill="none" style="stroke:#000000;stroke-width:1.5;"/><line style="stroke:#000000;stroke-width:1.5;" x1="96" x2="158" y1="28.2969" y2="28.2969"/><text fill="#000000" font-family="sans-serif" font-size="14" font-weight="bold" lengthAdjust="spacing" textLength="49" x="100" y="20.9951">Pagos</text></g><g id="elem_UC1"><ellipse cx="208.5678" cy="58.0136" fill="#F1F1F1" rx="73.0678" ry="17.0136" style="stroke:#181818;stroke-width:0.5;"/><text fill="#000000" font-family="sans-serif" font-size="14" lengthAdjust="spacing" textLength="101" x="155.0678" y="61.7611">Pagar Reserva</text></g><g id="elem_UC2"><ellipse cx="208.74" cy="126.048" fill="#F1F1F1" rx="68.24" ry="16.048" style="stroke:#181818;stroke-width:0.5;"/><text fill="#000000" font-family="sans-serif" font-size="14" lengthAdjust="spacing" textLength="88" x="161.74" y="129.7956">Pagar Bonos</text></g><g id="elem_UC3"><ellipse cx="208.3591" cy="199.1718" fill="#F1F1F1" rx="96.3591" ry="21.6718" style="stroke:#181818;stroke-width:0.5;"/><text fill="#000000" font-family="sans-serif" font-size="14" lengthAdjust="spacing" textLength="156" x="130.3591" y="202.0185">Ver Historial de Pagos</text></g><!--entity U--><g id="elem_U"><ellipse cx="29" cy="43.5" fill="#F1F1F1" rx="8" ry="8" style="stroke:#181818;stroke-width:0.5;"/><path d="M29,51.5 L29,78.5 M16,59.5 L42,59.5 M29,78.5 L16,93.5 M29,78.5 L42,93.5 " fill="none" style="stroke:#181818;stroke-width:0.5;"/><text fill="#000000" font-family="sans-serif" font-size="14" lengthAdjust="spacing" textLength="31" x="13.5" y="107.9951">User</text></g><!--entity A--><g id="elem_A"><ellipse cx="29" cy="169.5" fill="#F1F1F1" rx="8" ry="8" style="stroke:#181818;stroke-width:0.5;"/><path d="M29,177.5 L29,204.5 M16,185.5 L42,185.5 M29,204.5 L16,219.5 M29,204.5 L42,219.5 " fill="none" style="stroke:#181818;stroke-width:0.5;"/><text fill="#000000" font-family="sans-serif" font-size="14" lengthAdjust="spacing" textLength="46" x="6" y="233.9951">Admin</text></g><!--link U to UC1--><g id="link_U_UC1"><path d="M44.5256,71.772 C65.2249,70.023 98.5875,67.2043 133.4303,64.2593 " fill="none" id="U-to-UC1" style="stroke:#181818;stroke-width:1.0;"/><polygon fill="#181818" points="139.409,63.754,130.1041,60.5262,134.4268,64.1751,130.7779,68.4978,139.409,63.754" style="stroke:#181818;stroke-width:1.0;"/></g><!--link U to UC2--><g id="link_U_UC2"><path d="M44.6962,78.353 C56.3709,82.536 73.1471,88.393 88,93 C112.36,100.555 133.9781,106.6315 156.3981,112.6495 " fill="none" id="U-to-UC2" style="stroke:#181818;stroke-width:1.0;"/><polygon fill="#181818" points="162.193,114.205,154.5377,108.0086,157.3639,112.9088,152.4637,115.735,162.193,114.205" style="stroke:#181818;stroke-width:1.0;"/></g><!--link A to UC3--><g id="link_A_UC3"><path d="M52.1216,199 C67.5486,199 83.3052,199 105.665,199 " fill="none" id="A-to-UC3" style="stroke:#181818;stroke-width:1.0;"/><polygon fill="#181818" points="111.665,199,102.665,195,106.665,199,102.665,203,111.665,199" style="stroke:#181818;stroke-width:1.0;"/></g><!--SRC=[ROsn3i8m34HtVuNLlGFjZXHO615IsQt418iIepYm8FwTK8K12K_dqxkxcKy5YsAMU2uO9BCleWc0VD6Cat56CfpQxy9LqiTm03Vo5ugCUufgJm2iTpVsP8nTDIdZWMl-GTrIiLtzGpQQr1em_0B7khqJgxj2CuQsrDWHu0KmOT-lb-gl6W1Sa-CR]--></g></svg>