<?xml version="1.0" encoding="us-ascii" standalone="no"?><svg xmlns="http://www.w3.org/2000/svg" xmlns:xlink="http://www.w3.org/1999/xlink" contentStyleType="text/css" height="463px" preserveAspectRatio="none" style="width:359px;height:463px;background:#FFFFFF;" version="1.1" viewBox="0 0 359 463" width="359px" zoomAndPan="magnify"><defs/><g><!--cluster Pistas--><g id="cluster_Pistas"><path d="M95.5,6 L143.5,6 A3.75,3.75 0 0 1 146,8.5 L153,28.2969 L350.03,28.2969 A2.5,2.5 0 0 1 352.53,30.7969 L352.53,453.5 A2.5,2.5 0 0 1 350.03,456 L95.5,456 A2.5,2.5 0 0 1 93,453.5 L93,8.5 A2.5,2.5 0 0 1 95.5,6 " fill="none" style="stroke:#000000;stroke-width:1.5;"/><line style="stroke:#000000;stroke-width:1.5;" x1="93" x2="153" y1="28.2969" y2="28.2969"/><text fill="#000000" font-family="sans-serif" font-size="14" font-weight="bold" lengthAdjust="spacing" textLength="47" x="97" y="20.9951">Pistas</text></g><g id="elem_UC2"><ellipse cx="222.7673" cy="63.0035" fill="#F1F1F1" rx="99.0673" ry="22.2135" style="stroke:#181818;stroke-width:0.5;"/><text fill="#000000" font-family="sans-serif" font-size="14" lengthAdjust="spacing" textLength="162" x="141.7673" y="65.8501">Leer  Horarios de Pistas</text></g><g id="elem_UC3"><ellipse cx="222.7652" cy="415.003" fill="#F1F1F1" rx="113.7652" ry="25.153" style="stroke:#181818;stroke-width:0.5;"/><text fill="#000000" font-family="sans-serif" font-size="14" lengthAdjust="spacing" textLength="194" x="125.7652" y="417.8497">Actualizar Horarios de Pistas</text></g><g id="elem_UC5"><ellipse cx="222.773" cy="339.0026" fill="#F1F1F1" rx="66.113" ry="15.6226" style="stroke:#181818;stroke-width:0.5;"/><text fill="#000000" font-family="sans-serif" font-size="14" lengthAdjust="spacing" textLength="82" x="178.773" y="342.7502">Crear Pistas</text></g><g id="elem_UC6"><ellipse cx="222.7748" cy="273.005" fill="#F1F1F1" rx="63.7248" ry="15.145" style="stroke:#181818;stroke-width:0.5;"/><text fill="#000000" font-family="sans-serif" font-size="14" lengthAdjust="spacing" textLength="75" x="182.2748" y="276.7525">Leer Pistas</text></g><g id="elem_UC7"><ellipse cx="222.7663" cy="205.0013" fill="#F1F1F1" rx="76.9563" ry="17.7913" style="stroke:#181818;stroke-width:0.5;"/><text fill="#000000" font-family="sans-serif" font-size="14" lengthAdjust="spacing" textLength="111" x="164.3775" y="208.7201">Actualizar Pistas</text></g><g id="elem_UC8"><ellipse cx="222.7707" cy="135.9961" fill="#F1F1F1" rx="67.8807" ry="15.9761" style="stroke:#181818;stroke-width:0.5;"/><text fill="#000000" font-family="sans-serif" font-size="14" lengthAdjust="spacing" textLength="87" x="176.2707" y="139.7437">Borrar Pistas</text></g><!--entity U--><g id="elem_U"><ellipse cx="27.5" cy="33.35" fill="#F1F1F1" rx="8" ry="8" style="stroke:#181818;stroke-width:0.5;"/><path d="M27.5,41.35 L27.5,68.35 M14.5,49.35 L40.5,49.35 M27.5,68.35 L14.5,83.35 M27.5,68.35 L40.5,83.35 " fill="none" style="stroke:#181818;stroke-width:0.5;"/><text fill="#000000" font-family="sans-serif" font-size="14" lengthAdjust="spacing" textLength="32" x="11.5" y="97.8451">User</text></g><!--entity A--><g id="elem_A"><ellipse cx="27.5" cy="209.35" fill="#F1F1F1" rx="8" ry="8" style="stroke:#181818;stroke-width:0.5;"/><path d="M27.5,217.35 L27.5,244.35 M14.5,225.35 L40.5,225.35 M27.5,244.35 L14.5,259.35 M27.5,244.35 L40.5,259.35 " fill="none" style="stroke:#181818;stroke-width:0.5;"/><text fill="#000000" font-family="sans-serif" font-size="14" lengthAdjust="spacing" textLength="43" x="6" y="273.8451">Admin</text></g><!--link U to UC2--><g id="link_U_UC2"><path d="M43.99,63 C61.81,63 86.64,63 117.67,63 " fill="none" id="U-to-UC2" style="stroke:#181818;stroke-width:1.0;"/><polygon fill="#181818" points="123.67,63,114.67,59,118.67,63,114.67,67,123.67,63" style="stroke:#181818;stroke-width:1.0;"/></g><!--link A to UC2--><g id="link_A_UC2"><path d="M35.07,200.6 C42.24,170.05 56.73,128.34 85,103 C99.83,89.71 113.1304,82.6009 132.2404,76.6609 " fill="none" id="A-to-UC2" style="stroke:#181818;stroke-width:1.0;"/><polygon fill="#181818" points="137.97,74.88,128.1883,73.7317,133.1953,76.3641,130.5629,81.3711,137.97,74.88" style="stroke:#181818;stroke-width:1.0;"/></g><!--link A to UC3--><g id="link_A_UC3"><path d="M35.73,277.63 C43.21,307.32 57.78,347.3 85,372 C98.55,384.29 109.9449,391.037 127.3549,397.307 " fill="none" id="A-to-UC3" style="stroke:#181818;stroke-width:1.0;"/><polygon fill="#181818" points="133,399.34,125.8877,392.5271,128.2958,397.6458,123.177,400.0539,133,399.34" style="stroke:#181818;stroke-width:1.0;"/></g><!--link A to UC5--><g id="link_A_UC5"><path d="M49.3,271.63 C58.78,284.09 71.02,297.36 85,306 C107.86,320.12 130.4196,327.1113 155.4596,331.7313 " fill="none" id="A-to-UC5" style="stroke:#181818;stroke-width:1.0;"/><polygon fill="#181818" points="161.36,332.82,153.2352,327.2534,156.443,331.9128,151.7836,335.1206,161.36,332.82" style="stroke:#181818;stroke-width:1.0;"/></g><!--link A to UC6--><g id="link_A_UC6"><path d="M49.18,242.64 C77.91,247.69 124.9207,255.9608 164.6107,262.9408 " fill="none" id="A-to-UC6" style="stroke:#181818;stroke-width:1.0;"/><polygon fill="#181818" points="170.52,263.98,162.3488,258.4816,165.5956,263.114,160.9632,266.3607,170.52,263.98" style="stroke:#181818;stroke-width:1.0;"/></g><!--link A to UC7--><g id="link_A_UC7"><path d="M49.18,235.36 C75.57,230.72 116.471,223.5308 154.681,216.8008 " fill="none" id="A-to-UC7" style="stroke:#181818;stroke-width:1.0;"/><polygon fill="#181818" points="160.59,215.76,151.0326,213.3818,155.6658,216.6273,152.4203,221.2605,160.59,215.76" style="stroke:#181818;stroke-width:1.0;"/></g><!--link A to UC8--><g id="link_A_UC8"><path d="M49.41,205.09 C58.83,192.37 71,178.86 85,170 C107.54,155.74 129.7891,148.5989 154.6691,143.7889 " fill="none" id="A-to-UC8" style="stroke:#181818;stroke-width:1.0;"/><polygon fill="#181818" points="160.56,142.65,150.9644,140.431,155.6509,143.5991,152.4829,148.2856,160.56,142.65" style="stroke:#181818;stroke-width:1.0;"/></g><!--SRC=[TO-z3e90383tFaN3pYBXPp8vMHmSN7Y0vgXu4JdIEnQDxouORk0YdRusN_zwlddq5iLqTu-j4TRUs060jBU2ZMD1SjYikMgVPbWA2c0a_Q2EyMgSdojl05nYSgp9CIONddlnR8N4M8TjC9FVmFeGwKhxYNhp8jdloU8TjV3iRvpytnaRezZVlF7Ao3jPaTYfu0FGO9eUbuz01LeX2v07A0AK0Qel]--></g></svg>