<?xml version="1.0" encoding="us-ascii" standalone="no"?><svg xmlns="http://www.w3.org/2000/svg" xmlns:xlink="http://www.w3.org/1999/xlink" contentStyleType="text/css" height="636px" preserveAspectRatio="none" style="width:370px;height:636px;background:#FFFFFF;" version="1.1" viewBox="0 0 370 636" width="370px" zoomAndPan="magnify"><defs/><g><!--cluster Pistas--><g id="cluster_Pistas"><path d="M98.5,6 L150.5,6 A3.75,3.75 0 0 1 153,8.5 L160,28.2969 L360.5,28.2969 A2.5,2.5 0 0 1 363,30.7969 L363,626.5 A2.5,2.5 0 0 1 360.5,629 L98.5,629 A2.5,2.5 0 0 1 96,626.5 L96,8.5 A2.5,2.5 0 0 1 98.5,6 " fill="none" style="stroke:#000000;stroke-width:1.5;"/><line style="stroke:#000000;stroke-width:1.5;" x1="96" x2="160" y1="28.2969" y2="28.2969"/><text fill="#000000" font-family="sans-serif" font-size="14" font-weight="bold" lengthAdjust="spacing" textLength="51" x="100" y="20.9951">Pistas</text></g><g id="elem_UC1"><ellipse cx="229.7042" cy="144.9408" fill="#F1F1F1" rx="102.7042" ry="22.9408" style="stroke:#181818;stroke-width:0.5;"/><text fill="#000000" font-family="sans-serif" font-size="14" lengthAdjust="spacing" textLength="170" x="144.7042" y="147.7875">Crear Horarios de Pistas</text></g><g id="elem_UC2"><ellipse cx="229.3371" cy="64.1674" fill="#F1F1F1" rx="101.3371" ry="22.6674" style="stroke:#181818;stroke-width:0.5;"/><text fill="#000000" font-family="sans-serif" font-size="14" lengthAdjust="spacing" textLength="167" x="145.8371" y="67.0141">Leer  Horarios de Pistas</text></g><g id="elem_UC3"><ellipse cx="229.4942" cy="297.8988" fill="#F1F1F1" rx="117.4942" ry="25.8988" style="stroke:#181818;stroke-width:0.5;"/><text fill="#000000" font-family="sans-serif" font-size="14" lengthAdjust="spacing" textLength="202" x="128.4942" y="300.7455">Actualizar Horarios de Pistas</text></g><g id="elem_UC4"><ellipse cx="229.4496" cy="382.9899" fill="#F1F1F1" rx="105.4496" ry="23.4899" style="stroke:#181818;stroke-width:0.5;"/><text fill="#000000" font-family="sans-serif" font-size="14" lengthAdjust="spacing" textLength="176" x="141.4496" y="385.8366">Borrar Horarios de Pistas</text></g><g id="elem_UC5"><ellipse cx="229.6678" cy="457.8336" fill="#F1F1F1" rx="67.1678" ry="15.8336" style="stroke:#181818;stroke-width:0.5;"/><text fill="#000000" font-family="sans-serif" font-size="14" lengthAdjust="spacing" textLength="85" x="184.1678" y="461.5811">Crear Pistas</text></g><g id="elem_UC6"><ellipse cx="229.7353" cy="524.8471" fill="#F1F1F1" rx="64.7353" ry="15.3471" style="stroke:#181818;stroke-width:0.5;"/><text fill="#000000" font-family="sans-serif" font-size="14" lengthAdjust="spacing" textLength="78" x="187.7353" y="528.5946">Leer Pistas</text></g><g id="elem_UC7"><ellipse cx="229.3735" cy="593.7747" fill="#F1F1F1" rx="79.3735" ry="18.2747" style="stroke:#181818;stroke-width:0.5;"/><text fill="#000000" font-family="sans-serif" font-size="14" lengthAdjust="spacing" textLength="117" x="168.9676" y="597.2248">Actualizar Pistas</text></g><g id="elem_UC8"><ellipse cx="229.3288" cy="219.7658" fill="#F1F1F1" rx="69.3288" ry="16.2658" style="stroke:#181818;stroke-width:0.5;"/><text fill="#000000" font-family="sans-serif" font-size="14" lengthAdjust="spacing" textLength="91" x="180.8288" y="223.5133">Borrar Pistas</text></g><!--entity U--><g id="elem_U"><ellipse cx="29" cy="34.5" fill="#F1F1F1" rx="8" ry="8" style="stroke:#181818;stroke-width:0.5;"/><path d="M29,42.5 L29,69.5 M16,50.5 L42,50.5 M29,69.5 L16,84.5 M29,69.5 L42,84.5 " fill="none" style="stroke:#181818;stroke-width:0.5;"/><text fill="#000000" font-family="sans-serif" font-size="14" lengthAdjust="spacing" textLength="31" x="13.5" y="98.9951">User</text></g><!--entity A--><g id="elem_A"><ellipse cx="29" cy="311.5" fill="#F1F1F1" rx="8" ry="8" style="stroke:#181818;stroke-width:0.5;"/><path d="M29,319.5 L29,346.5 M16,327.5 L42,327.5 M29,346.5 L16,361.5 M29,346.5 L42,361.5 " fill="none" style="stroke:#181818;stroke-width:0.5;"/><text fill="#000000" font-family="sans-serif" font-size="14" lengthAdjust="spacing" textLength="46" x="6" y="375.9951">Admin</text></g><!--link U to UC2--><g id="link_U_UC2"><path d="M44.5962,64 C62.6819,64 89.1224,64 121.776,64 " fill="none" id="U-to-UC2" style="stroke:#181818;stroke-width:1.0;"/><polygon fill="#181818" points="127.776,64,118.776,60,122.776,64,118.776,68,127.776,64" style="stroke:#181818;stroke-width:1.0;"/></g><!--link A to UC1--><g id="link_A_UC1"><path d="M34.5408,302.822 C40.7092,267.71 55.0481,216.595 88,186 C102.8967,172.169 116.4775,164.7688 135.9835,158.6688 " fill="none" id="A-to-UC1" style="stroke:#181818;stroke-width:1.0;"/><polygon fill="#181818" points="141.71,156.878,131.9263,155.7466,136.9379,158.3704,134.3141,163.3819,141.71,156.878" style="stroke:#181818;stroke-width:1.0;"/></g><!--link A to UC2--><g id="link_A_UC2"><path d="M34.6363,302.934 C42.6317,243.422 60.8156,132.219 88,104 C101.7244,89.753 114.41,82.2898 133.368,76.2738 " fill="none" id="A-to-UC2" style="stroke:#181818;stroke-width:1.0;"/><polygon fill="#181818" points="139.087,74.459,129.2987,73.3686,134.3212,75.9713,131.7184,80.9939,139.087,74.459" style="stroke:#181818;stroke-width:1.0;"/></g><!--link A to UC3--><g id="link_A_UC3"><path d="M52.0014,336.234 C74.5113,331.358 105.031,324.7463 138.933,317.4023 " fill="none" id="A-to-UC3" style="stroke:#181818;stroke-width:1.0;"/><polygon fill="#181818" points="144.797,316.132,135.1542,314.1281,139.9103,317.1906,136.8479,321.9468,144.797,316.132" style="stroke:#181818;stroke-width:1.0;"/></g><!--link A to UC4--><g id="link_A_UC4"><path d="M52.0014,345.655 C76.2273,350.781 110.653,358.065 146.63,365.677 " fill="none" id="A-to-UC4" style="stroke:#181818;stroke-width:1.0;"/><polygon fill="#181818" points="152.5,366.919,144.5229,361.1427,147.6083,365.884,142.8669,368.9694,152.5,366.919" style="stroke:#181818;stroke-width:1.0;"/></g><!--link A to UC5--><g id="link_A_UC5"><path d="M48.7184,379.275 C58.3724,395.313 71.5955,412.797 88,424 C110.901,439.639 134.3005,447.0681 160.2175,451.6471 " fill="none" id="A-to-UC5" style="stroke:#181818;stroke-width:1.0;"/><polygon fill="#181818" points="166.126,452.691,157.9592,447.1861,161.2023,451.8211,156.5673,455.0641,166.126,452.691" style="stroke:#181818;stroke-width:1.0;"/></g><!--link A to UC6--><g id="link_A_UC6"><path d="M34.5841,379.27 C40.7642,413.746 55.0944,463.292 88,492 C109.146,510.449 132.7446,518.2067 159.2816,522.0697 " fill="none" id="A-to-UC6" style="stroke:#181818;stroke-width:1.0;"/><polygon fill="#181818" points="165.219,522.934,156.8891,517.6793,160.2711,522.2137,155.7367,525.5958,165.219,522.934" style="stroke:#181818;stroke-width:1.0;"/></g><!--link A to UC7--><g id="link_A_UC7"><path d="M29.2057,379.256 C30.3647,427.651 39.9116,510.407 88,558 C105.0917,574.9158 123.1192,582.9543 146.3592,587.9727 " fill="none" id="A-to-UC7" style="stroke:#181818;stroke-width:1.0;"/><polygon fill="#181818" points="152.224,589.2391,144.2711,583.4296,147.3366,588.1837,142.5825,591.2493,152.224,589.2391" style="stroke:#181818;stroke-width:1.0;"/></g><!--link A to UC8--><g id="link_A_UC8"><path d="M47.3334,302.669 C56.9821,285.387 70.5929,266.169 88,254 C110.111,238.542 132.525,231.1456 157.936,226.5196 " fill="none" id="A-to-UC8" style="stroke:#181818;stroke-width:1.0;"/><polygon fill="#181818" points="163.839,225.445,154.2681,223.1216,158.9198,226.3405,155.7009,230.9923,163.839,225.445" style="stroke:#181818;stroke-width:1.0;"/></g><!--SRC=[VOyz3i8m34PtdyBgtg7_dP125mO6bXx0IaE9A0roqWN4tMc1395QChrOp_RdGPqTEeEi-ul3JhEIJfiHWAGpZArLZ6In_Vr5TzFZKX00Tv9NwXMUj7LpvGc0yvkiacGLHWqhOZmO9jR6OkV5w3ElIKBxgEP5stOQsaAwYGRz-BSW2rlsXlcVdg_63vHY9N8Wb9if0wrQJHOeDRm0MepZtN8xY2yb7b8FcOVSG-6Xz51vgDy0]--></g></svg>