<?xml version="1.0" encoding="us-ascii" standalone="no"?><svg xmlns="http://www.w3.org/2000/svg" xmlns:xlink="http://www.w3.org/1999/xlink" contentStyleType="text/css" height="621px" preserveAspectRatio="none" style="width:359px;height:621px;background:#FFFFFF;" version="1.1" viewBox="0 0 359 621" width="359px" zoomAndPan="magnify"><defs/><g><!--cluster Pistas--><g id="cluster_Pistas"><path d="M95.5,6 L143.5,6 A3.75,3.75 0 0 1 146,8.5 L153,28.2969 L350.03,28.2969 A2.5,2.5 0 0 1 352.53,30.7969 L352.53,611.5 A2.5,2.5 0 0 1 350.03,614 L95.5,614 A2.5,2.5 0 0 1 93,611.5 L93,8.5 A2.5,2.5 0 0 1 95.5,6 " fill="none" style="stroke:#000000;stroke-width:1.5;"/><line style="stroke:#000000;stroke-width:1.5;" x1="93" x2="153" y1="28.2969" y2="28.2969"/><text fill="#000000" font-family="sans-serif" font-size="14" font-weight="bold" lengthAdjust="spacing" textLength="47" x="97" y="20.9951">Pistas</text></g><g id="elem_UC1"><ellipse cx="222.7678" cy="575.9956" fill="#F1F1F1" rx="100.4278" ry="22.4856" style="stroke:#181818;stroke-width:0.5;"/><text fill="#000000" font-family="sans-serif" font-size="14" lengthAdjust="spacing" textLength="165" x="140.2678" y="578.8422">Crear Horarios de Pistas</text></g><g id="elem_UC2"><ellipse cx="222.7663" cy="62.0033" fill="#F1F1F1" rx="94.1163" ry="21.2233" style="stroke:#181818;stroke-width:0.5;"/><text fill="#000000" font-family="sans-serif" font-size="14" lengthAdjust="spacing" textLength="151" x="147.2663" y="64.8499">Ver Horarios de Pistas</text></g><g id="elem_UC3"><ellipse cx="222.7652" cy="493.003" fill="#F1F1F1" rx="113.7652" ry="25.153" style="stroke:#181818;stroke-width:0.5;"/><text fill="#000000" font-family="sans-serif" font-size="14" lengthAdjust="spacing" textLength="194" x="125.7652" y="495.8497">Actualizar Horarios de Pistas</text></g><g id="elem_UC4"><ellipse cx="222.7742" cy="410.0008" fill="#F1F1F1" rx="102.7042" ry="22.9408" style="stroke:#181818;stroke-width:0.5;"/><text fill="#000000" font-family="sans-serif" font-size="14" lengthAdjust="spacing" textLength="170" x="137.7742" y="412.8475">Borrar Horarios de Pistas</text></g><g id="elem_UC5"><ellipse cx="222.773" cy="336.0026" fill="#F1F1F1" rx="66.113" ry="15.6226" style="stroke:#181818;stroke-width:0.5;"/><text fill="#000000" font-family="sans-serif" font-size="14" lengthAdjust="spacing" textLength="82" x="178.773" y="339.7502">Crear Pistas</text></g><g id="elem_UC6"><ellipse cx="222.773" cy="270.9971" fill="#F1F1F1" rx="60.813" ry="14.7771" style="stroke:#181818;stroke-width:0.5;"/><text fill="#000000" font-family="sans-serif" font-size="14" lengthAdjust="spacing" textLength="68" x="185.773" y="274.7447">Ver Pistas</text></g><g id="elem_UC7"><ellipse cx="222.7663" cy="203.0013" fill="#F1F1F1" rx="76.9563" ry="17.7913" style="stroke:#181818;stroke-width:0.5;"/><text fill="#000000" font-family="sans-serif" font-size="14" lengthAdjust="spacing" textLength="111" x="164.3775" y="206.7201">Actualizar Pistas</text></g><g id="elem_UC8"><ellipse cx="222.7707" cy="133.9961" fill="#F1F1F1" rx="67.8807" ry="15.9761" style="stroke:#181818;stroke-width:0.5;"/><text fill="#000000" font-family="sans-serif" font-size="14" lengthAdjust="spacing" textLength="87" x="176.2707" y="137.7437">Borrar Pistas</text></g><!--entity U--><g id="elem_U"><ellipse cx="27.5" cy="32.35" fill="#F1F1F1" rx="8" ry="8" style="stroke:#181818;stroke-width:0.5;"/><path d="M27.5,40.35 L27.5,67.35 M14.5,48.35 L40.5,48.35 M27.5,67.35 L14.5,82.35 M27.5,67.35 L40.5,82.35 " fill="none" style="stroke:#181818;stroke-width:0.5;"/><text fill="#000000" font-family="sans-serif" font-size="14" lengthAdjust="spacing" textLength="32" x="11.5" y="96.8451">User</text></g><!--entity A--><g id="elem_A"><ellipse cx="27.5" cy="273.35" fill="#F1F1F1" rx="8" ry="8" style="stroke:#181818;stroke-width:0.5;"/><path d="M27.5,281.35 L27.5,308.35 M14.5,289.35 L40.5,289.35 M27.5,308.35 L14.5,323.35 M27.5,308.35 L40.5,323.35 " fill="none" style="stroke:#181818;stroke-width:0.5;"/><text fill="#000000" font-family="sans-serif" font-size="14" lengthAdjust="spacing" textLength="43" x="6" y="337.8451">Admin</text></g><!--link U to UC2--><g id="link_U_UC2"><path d="M43.99,62 C62.71,62 89.77,62 122.34,62 " fill="none" id="U-to-UC2" style="stroke:#181818;stroke-width:1.0;"/><polygon fill="#181818" points="128.34,62,119.34,58,123.34,62,119.34,66,128.34,62" style="stroke:#181818;stroke-width:1.0;"/></g><!--link A to UC1--><g id="link_A_UC1"><path d="M33.12,341.35 C40.94,400.05 58.56,508.3 85,536 C98.24,549.87 110.2877,557.1435 128.6177,563.1435 " fill="none" id="A-to-UC1" style="stroke:#181818;stroke-width:1.0;"/><polygon fill="#181818" points="134.32,565.01,127.0109,558.4087,129.5681,563.4545,124.5222,566.0117,134.32,565.01" style="stroke:#181818;stroke-width:1.0;"/></g><!--link A to UC2--><g id="link_A_UC2"><path d="M28.58,264.38 C30.81,219.12 41.46,144.76 85,101 C99.37,86.56 112.9289,79.0903 132.4989,73.2703 " fill="none" id="A-to-UC2" style="stroke:#181818;stroke-width:1.0;"/><polygon fill="#181818" points="138.25,71.56,128.4832,70.2915,133.4574,72.9853,130.7636,77.9595,138.25,71.56" style="stroke:#181818;stroke-width:1.0;"/></g><!--link A to UC3--><g id="link_A_UC3"><path d="M33.77,341.33 C40.29,374.44 54.51,421.36 85,450 C98.15,462.36 109.1859,469.0969 126.3359,475.3769 " fill="none" id="A-to-UC3" style="stroke:#181818;stroke-width:1.0;"/><polygon fill="#181818" points="131.97,477.44,124.8942,470.5892,127.2749,475.7207,122.1434,478.1014,131.97,477.44" style="stroke:#181818;stroke-width:1.0;"/></g><!--link A to UC4--><g id="link_A_UC4"><path d="M49.36,334.42 C58.93,346.73 71.22,360.03 85,369 C102.66,380.49 117.9233,387.1551 138.1133,393.2151 " fill="none" id="A-to-UC4" style="stroke:#181818;stroke-width:1.0;"/><polygon fill="#181818" points="143.86,394.94,136.3898,388.5215,139.0711,393.5026,134.09,396.1838,143.86,394.94" style="stroke:#181818;stroke-width:1.0;"/></g><!--link A to UC5--><g id="link_A_UC5"><path d="M49.18,306.53 C77.32,311.34 122.7654,319.1012 162.1654,325.8212 " fill="none" id="A-to-UC5" style="stroke:#181818;stroke-width:1.0;"/><polygon fill="#181818" points="168.08,326.83,159.8806,321.3738,163.1512,325.9893,158.5356,329.2599,168.08,326.83" style="stroke:#181818;stroke-width:1.0;"/></g><!--link A to UC6--><g id="link_A_UC6"><path d="M49.18,299.58 C78.2,294.77 125.9805,286.8594 165.8105,280.2694 " fill="none" id="A-to-UC6" style="stroke:#181818;stroke-width:1.0;"/><polygon fill="#181818" points="171.73,279.29,162.1978,276.8128,166.7971,280.1062,163.5036,284.7055,171.73,279.29" style="stroke:#181818;stroke-width:1.0;"/></g><!--link A to UC7--><g id="link_A_UC7"><path d="M49.39,272.31 C58.96,260.34 71.25,247.48 85,239 C106.32,225.86 126.5072,218.7907 150.1272,213.4607 " fill="none" id="A-to-UC7" style="stroke:#181818;stroke-width:1.0;"/><polygon fill="#181818" points="155.98,212.14,146.3203,210.2192,151.1026,213.2406,148.0812,218.023,155.98,212.14" style="stroke:#181818;stroke-width:1.0;"/></g><!--link A to UC8--><g id="link_A_UC8"><path d="M34.87,264.57 C41.94,234.06 56.36,192.57 85,168 C104.78,151.03 125.8632,143.3536 150.6432,138.9336 " fill="none" id="A-to-UC8" style="stroke:#181818;stroke-width:1.0;"/><polygon fill="#181818" points="156.55,137.88,146.9875,135.5225,151.6277,138.758,148.3922,143.3982,156.55,137.88" style="stroke:#181818;stroke-width:1.0;"/></g><!--SRC=[VO-x3i8m34LtVuN5tg7lJaYX2oDBsQqqb8ZI82TTGFmxBP0XeZJJYNriNVVgvD0PPDsT7RQQbNJQ300adM5ih68aYyttBzgh7kQ20BYHl52dyA2jcoeF09pUQ9Kagt1JioB6lM5YRIosNjoyzzLnQ1_LYfk4hf1kf5xVrzQduSZECA_fsMBuGCb_0mVzuc_8G2iNWmLA1K-01gDeEvyEuaEnXyH3wY7pa7ieF9GUgXS0]--></g></svg>