<?xml version="1.0" encoding="us-ascii" standalone="no"?><svg xmlns="http://www.w3.org/2000/svg" xmlns:xlink="http://www.w3.org/1999/xlink" contentStyleType="text/css" height="268px" preserveAspectRatio="none" style="width:338px;height:268px;background:#FFFFFF;" version="1.1" viewBox="0 0 338 268" width="338px" zoomAndPan="magnify"><defs/><g><!--cluster Reserva--><g id="cluster_Reserva"><path d="M95.5,6 L160.5,6 A3.75,3.75 0 0 1 163,8.5 L170,28.2969 L328.82,28.2969 A2.5,2.5 0 0 1 331.32,30.7969 L331.32,244.5 A2.5,2.5 0 0 1 328.82,247 L95.5,247 A2.5,2.5 0 0 1 93,244.5 L93,8.5 A2.5,2.5 0 0 1 95.5,6 " fill="none" style="stroke:#000000;stroke-width:1.5;"/><line style="stroke:#000000;stroke-width:1.5;" x1="93" x2="170" y1="28.2969" y2="28.2969"/><text fill="#000000" font-family="sans-serif" font-size="14" font-weight="bold" lengthAdjust="spacing" textLength="64" x="97" y="20.9951">Reserva</text></g><g id="elem_UC1"><ellipse cx="212.1551" cy="59.001" fill="#F1F1F1" rx="78.1551" ry="18.031" style="stroke:#181818;stroke-width:0.5;"/><text fill="#000000" font-family="sans-serif" font-size="14" lengthAdjust="spacing" textLength="114" x="152.7659" y="62.5866">Realizar Reserva</text></g><g id="elem_UC2"><ellipse cx="212.1607" cy="131.0021" fill="#F1F1F1" rx="80.6107" ry="18.5221" style="stroke:#181818;stroke-width:0.5;"/><text fill="#000000" font-family="sans-serif" font-size="14" lengthAdjust="spacing" textLength="120" x="150.7226" y="134.3148">Cancelar Reserva</text></g><g id="elem_UC3"><ellipse cx="212.1608" cy="208.0022" fill="#F1F1F1" rx="103.1608" ry="23.0322" style="stroke:#181818;stroke-width:0.5;"/><text fill="#000000" font-family="sans-serif" font-size="14" lengthAdjust="spacing" textLength="171" x="126.6608" y="210.8488">Ver Historial de Reservas</text></g><!--entity U--><g id="elem_U"><ellipse cx="27.5" cy="84.35" fill="#F1F1F1" rx="8" ry="8" style="stroke:#181818;stroke-width:0.5;"/><path d="M27.5,92.35 L27.5,119.35 M14.5,100.35 L40.5,100.35 M27.5,119.35 L14.5,134.35 M27.5,119.35 L40.5,134.35 " fill="none" style="stroke:#181818;stroke-width:0.5;"/><text fill="#000000" font-family="sans-serif" font-size="14" lengthAdjust="spacing" textLength="32" x="11.5" y="148.8451">User</text></g><!--entity A--><g id="elem_A"><ellipse cx="27.5" cy="195.35" fill="#F1F1F1" rx="8" ry="8" style="stroke:#181818;stroke-width:0.5;"/><path d="M27.5,203.35 L27.5,230.35 M14.5,211.35 L40.5,211.35 M27.5,230.35 L14.5,245.35 M27.5,230.35 L40.5,245.35 " fill="none" style="stroke:#181818;stroke-width:0.5;"/><text fill="#000000" font-family="sans-serif" font-size="14" lengthAdjust="spacing" textLength="43" x="6" y="259.8451">Admin</text></g><!--link U to UC1--><g id="link_U_UC1"><path d="M43.78,108.65 C55.12,104.73 70.97,99.36 85,95 C109.69,87.33 131.5027,81.0095 154.5827,74.5395 " fill="none" id="U-to-UC1" style="stroke:#181818;stroke-width:1.0;"/><polygon fill="#181818" points="160.36,72.92,150.6144,71.4978,155.5456,74.2696,152.7738,79.2008,160.36,72.92" style="stroke:#181818;stroke-width:1.0;"/></g><!--link U to UC2--><g id="link_U_UC2"><path d="M43.76,115.42 C64.34,117.34 96.4358,120.3247 131.0758,123.5447 " fill="none" id="U-to-UC2" style="stroke:#181818;stroke-width:1.0;"/><polygon fill="#181818" points="137.05,124.1,128.4589,119.2842,132.0715,123.6372,127.7184,127.2498,137.05,124.1" style="stroke:#181818;stroke-width:1.0;"/></g><!--link U to UC3--><g id="link_U_UC3"><path d="M43.96,132.14 C54.51,143.53 69.37,157.76 85,167 C102.05,177.08 116.1723,183.16 134.9923,189.26 " fill="none" id="U-to-UC3" style="stroke:#181818;stroke-width:1.0;"/><polygon fill="#181818" points="140.7,191.11,133.3718,184.5299,135.9436,189.5683,130.9052,192.1401,140.7,191.11" style="stroke:#181818;stroke-width:1.0;"/></g><!--link A to UC3--><g id="link_A_UC3"><path d="M49.45,223.05 C66.23,221.49 85.0658,219.7354 110.2358,217.3954 " fill="none" id="A-to-UC3" style="stroke:#181818;stroke-width:1.0;"/><polygon fill="#181818" points="116.21,216.84,106.8784,213.6903,111.2315,217.3028,107.6189,221.6559,116.21,216.84" style="stroke:#181818;stroke-width:1.0;"/></g><!--SRC=[POwn3i8m34HtVuNLlGDqHugwC5SAkvMOOX4Ib0G64FzE6W9IXQUp_NHtZeyPSy0eyocZbSWcI_00P7A8g1D7f8IwxSfUn2y71G1NCcUQ6ISkr9sU05ZcbjXGOkmc9YSFYjz_Lut6pPeQoHjsVzHsJHrAZRsaKa78eVrbfeOFy0BGsFUxcb3LOjB40A0-uWq0]--></g></svg>