<?xml version="1.0" encoding="us-ascii" standalone="no"?><svg xmlns="http://www.w3.org/2000/svg" xmlns:xlink="http://www.w3.org/1999/xlink" contentStyleType="text/css" height="534px" preserveAspectRatio="none" style="width:348px;height:534px;background:#FFFFFF;" version="1.1" viewBox="0 0 348 534" width="348px" zoomAndPan="magnify"><defs/><g><!--cluster Reserva--><g id="cluster_Reserva"><path d="M98.5,6 L163.5,6 A3.75,3.75 0 0 1 166,8.5 L173,28.2969 L338.5,28.2969 A2.5,2.5 0 0 1 341,30.7969 L341,524.5 A2.5,2.5 0 0 1 338.5,527 L98.5,527 A2.5,2.5 0 0 1 96,524.5 L96,8.5 A2.5,2.5 0 0 1 98.5,6 " fill="none" style="stroke:#000000;stroke-width:1.5;"/><line style="stroke:#000000;stroke-width:1.5;" x1="96" x2="173" y1="28.2969" y2="28.2969"/><text fill="#000000" font-family="sans-serif" font-size="14" font-weight="bold" lengthAdjust="spacing" textLength="64" x="100" y="20.9951">Reserva</text></g><g id="elem_UC1"><ellipse cx="218.2839" cy="59.8568" fill="#F1F1F1" rx="79.7839" ry="18.3568" style="stroke:#181818;stroke-width:0.5;"/><text fill="#000000" font-family="sans-serif" font-size="14" lengthAdjust="spacing" textLength="118" x="157.5356" y="63.2613">Realizar Reserva</text></g><g id="elem_UC2"><ellipse cx="218.3658" cy="132.7732" fill="#F1F1F1" rx="81.8658" ry="18.7732" style="stroke:#181818;stroke-width:0.5;"/><text fill="#000000" font-family="sans-serif" font-size="14" lengthAdjust="spacing" textLength="123" x="155.8805" y="135.9463">Cancelar Reserva</text></g><g id="elem_UC3"><ellipse cx="218.3679" cy="211.1736" fill="#F1F1F1" rx="106.3679" ry="23.6736" style="stroke:#181818;stroke-width:0.5;"/><text fill="#000000" font-family="sans-serif" font-size="14" lengthAdjust="spacing" textLength="178" x="129.3679" y="214.0203">Ver Historial de Reservas</text></g><g id="elem_UC4"><ellipse cx="218.3807" cy="285.9761" fill="#F1F1F1" rx="67.8807" ry="15.9761" style="stroke:#181818;stroke-width:0.5;"/><text fill="#000000" font-family="sans-serif" font-size="14" lengthAdjust="spacing" textLength="87" x="171.8807" y="289.7237">Crear Bonos</text></g><g id="elem_UC5"><ellipse cx="218.42" cy="352.984" fill="#F1F1F1" rx="65.42" ry="15.484" style="stroke:#181818;stroke-width:0.5;"/><text fill="#000000" font-family="sans-serif" font-size="14" lengthAdjust="spacing" textLength="80" x="175.42" y="356.7316">Leer Bonos</text></g><g id="elem_UC6"><ellipse cx="218.3658" cy="422.7732" fill="#F1F1F1" rx="81.8658" ry="18.7732" style="stroke:#181818;stroke-width:0.5;"/><text fill="#000000" font-family="sans-serif" font-size="14" lengthAdjust="spacing" textLength="123" x="155.8805" y="425.9463">Actualizar  Bonos</text></g><g id="elem_UC7"><ellipse cx="218.5634" cy="493.9127" fill="#F1F1F1" rx="70.0634" ry="16.4127" style="stroke:#181818;stroke-width:0.5;"/><text fill="#000000" font-family="sans-serif" font-size="14" lengthAdjust="spacing" textLength="93" x="169.0634" y="497.6602">Borrar Bonos</text></g><!--entity U--><g id="elem_U"><ellipse cx="29" cy="103.5" fill="#F1F1F1" rx="8" ry="8" style="stroke:#181818;stroke-width:0.5;"/><path d="M29,111.5 L29,138.5 M16,119.5 L42,119.5 M29,138.5 L16,153.5 M29,138.5 L42,153.5 " fill="none" style="stroke:#181818;stroke-width:0.5;"/><text fill="#000000" font-family="sans-serif" font-size="14" lengthAdjust="spacing" textLength="31" x="13.5" y="167.9951">User</text></g><!--entity A--><g id="elem_A"><ellipse cx="29" cy="323.5" fill="#F1F1F1" rx="8" ry="8" style="stroke:#181818;stroke-width:0.5;"/><path d="M29,331.5 L29,358.5 M16,339.5 L42,339.5 M29,358.5 L16,373.5 M29,358.5 L42,373.5 " fill="none" style="stroke:#181818;stroke-width:0.5;"/><text fill="#000000" font-family="sans-serif" font-size="14" lengthAdjust="spacing" textLength="46" x="6" y="387.9951">Admin</text></g><!--link U to UC1--><g id="link_U_UC1"><path d="M44.571,121.973 C55.904,113.837 72.2921,103.005 88,96 C110.378,86.02 130.3707,79.656 153.0287,73.868 " fill="none" id="U-to-UC1" style="stroke:#181818;stroke-width:1.0;"/><polygon fill="#181818" points="158.842,72.383,149.132,70.735,153.9976,73.6205,151.112,78.4861,158.842,72.383" style="stroke:#181818;stroke-width:1.0;"/></g><!--link U to UC2--><g id="link_U_UC2"><path d="M44.7128,133 C64.5689,133 95.4536,133 130.061,133 " fill="none" id="U-to-UC2" style="stroke:#181818;stroke-width:1.0;"/><polygon fill="#181818" points="136.061,133,127.061,129,131.061,133,127.061,137,136.061,133" style="stroke:#181818;stroke-width:1.0;"/></g><!--link U to UC3--><g id="link_U_UC3"><path d="M44.702,143.517 C56.1036,151.323 72.5201,161.815 88,169 C107.831,178.204 124.5186,184.4277 145.0516,190.9377 " fill="none" id="U-to-UC3" style="stroke:#181818;stroke-width:1.0;"/><polygon fill="#181818" points="150.771,192.751,143.4008,186.218,146.0048,191.2399,140.983,193.8439,150.771,192.751" style="stroke:#181818;stroke-width:1.0;"/></g><!--link A to UC3--><g id="link_A_UC3"><path d="M43.8826,314.677 C53.3435,293.486 67.8435,268.236 88,252 C102.2334,240.535 114.04,234.1972 131.502,228.2232 " fill="none" id="A-to-UC3" style="stroke:#181818;stroke-width:1.0;"/><polygon fill="#181818" points="137.179,226.281,127.3688,225.4096,132.4482,227.8995,129.9583,232.9789,137.179,226.281" style="stroke:#181818;stroke-width:1.0;"/></g><!--link A to UC4--><g id="link_A_UC4"><path d="M52.1746,338.571 C62.7051,332.199 75.6624,325.029 88,320 C112.969,309.823 136.0567,303.2501 160.2307,297.6151 " fill="none" id="A-to-UC4" style="stroke:#181818;stroke-width:1.0;"/><polygon fill="#181818" points="166.074,296.253,156.4009,294.4006,161.2045,297.3881,158.217,302.1917,166.074,296.253" style="stroke:#181818;stroke-width:1.0;"/></g><!--link A to UC5--><g id="link_A_UC5"><path d="M52.245,353 C76.8844,353 111.748,353 146.674,353 " fill="none" id="A-to-UC5" style="stroke:#181818;stroke-width:1.0;"/><polygon fill="#181818" points="152.674,353,143.674,349,147.674,353,143.674,357,152.674,353" style="stroke:#181818;stroke-width:1.0;"/></g><!--link A to UC6--><g id="link_A_UC6"><path d="M52.2245,367.308 C62.7656,373.655 75.7173,380.839 88,386 C110.85,395.601 131.1825,402.0494 153.9585,408.1214 " fill="none" id="A-to-UC6" style="stroke:#181818;stroke-width:1.0;"/><polygon fill="#181818" points="159.756,409.667,152.0901,403.4836,154.9247,408.379,150.0293,411.2136,159.756,409.667" style="stroke:#181818;stroke-width:1.0;"/></g><!--link A to UC7--><g id="link_A_UC7"><path d="M41.8886,391.091 C50.9901,414.235 65.8094,442.585 88,460 C106.651,474.6379 125.1282,481.7657 147.6712,486.5398 " fill="none" id="A-to-UC7" style="stroke:#181818;stroke-width:1.0;"/><polygon fill="#181818" points="153.541,487.7829,145.565,482.005,148.6495,486.747,143.9075,489.8315,153.541,487.7829" style="stroke:#181818;stroke-width:1.0;"/></g><!--SRC=[PO-z3i8m38HtFuN5pi1FwOQKiZ0m8PNTIas920bAKWOGxqvQXKY1J1VVf_DPypbWiEXKVmdOASSoA6i0I0RhiFNia3oswI-wcpBZG030dUILUiOZH-f1Bm2CR_0ioJFEZanQFSbz_TaKj5kKr8wCPFr7BKlg56libOyL56diyawVyDLFgEEOs5XZly2w10xCfL-Llf1XIEqBR5DYZNNkPr4DRu0Mv_FjTEkandEIM06894I2rbbLMMsogZy0]--></g></svg>