<?xml version="1.0" encoding="us-ascii" standalone="no"?><svg xmlns="http://www.w3.org/2000/svg" xmlns:xlink="http://www.w3.org/1999/xlink" contentStyleType="text/css" height="255px" preserveAspectRatio="none" style="width:275px;height:255px;background:#FFFFFF;" version="1.1" viewBox="0 0 275 255" width="275px" zoomAndPan="magnify"><defs/><g><!--cluster Usuarios--><g id="cluster_Usuarios"><path d="M95.5,6 L165.5,6 A3.75,3.75 0 0 1 168,8.5 L175,28.2969 L266.36,28.2969 A2.5,2.5 0 0 1 268.86,30.7969 L268.86,219.5 A2.5,2.5 0 0 1 266.36,222 L95.5,222 A2.5,2.5 0 0 1 93,219.5 L93,8.5 A2.5,2.5 0 0 1 95.5,6 " fill="none" style="stroke:#000000;stroke-width:1.5;"/><line style="stroke:#000000;stroke-width:1.5;" x1="93" x2="175" y1="28.2969" y2="28.2969"/><text fill="#000000" font-family="sans-serif" font-size="14" font-weight="bold" lengthAdjust="spacing" textLength="69" x="97" y="20.9951">Usuarios</text></g><g id="elem_UC1"><ellipse cx="180.9334" cy="57.0027" fill="#F1F1F1" rx="70.0634" ry="16.4127" style="stroke:#181818;stroke-width:0.5;"/><text fill="#000000" font-family="sans-serif" font-size="14" lengthAdjust="spacing" textLength="93" x="131.4334" y="60.7502">Crear Usuario</text></g><g id="elem_UC2"><ellipse cx="180.9331" cy="122.9985" fill="#F1F1F1" rx="37.7231" ry="14.5485" style="stroke:#181818;stroke-width:0.5;"/><text fill="#000000" font-family="sans-serif" font-size="14" lengthAdjust="spacing" textLength="37" x="160.8216" y="126.3812">Login</text></g><g id="elem_UC3"><ellipse cx="180.9293" cy="188.9959" fill="#F1F1F1" rx="71.9293" ry="16.7859" style="stroke:#181818;stroke-width:0.5;"/><text fill="#000000" font-family="sans-serif" font-size="14" lengthAdjust="spacing" textLength="98" x="128.9293" y="192.7434">Borrar Usuario</text></g><!--entity U--><g id="elem_U"><ellipse cx="27.5" cy="71.35" fill="#F1F1F1" rx="8" ry="8" style="stroke:#181818;stroke-width:0.5;"/><path d="M27.5,79.35 L27.5,106.35 M14.5,87.35 L40.5,87.35 M27.5,106.35 L14.5,121.35 M27.5,106.35 L40.5,121.35 " fill="none" style="stroke:#181818;stroke-width:0.5;"/><text fill="#000000" font-family="sans-serif" font-size="14" lengthAdjust="spacing" textLength="32" x="11.5" y="135.8451">User</text></g><!--entity A--><g id="elem_A"><ellipse cx="27.5" cy="182.35" fill="#F1F1F1" rx="8" ry="8" style="stroke:#181818;stroke-width:0.5;"/><path d="M27.5,190.35 L27.5,217.35 M14.5,198.35 L40.5,198.35 M27.5,217.35 L14.5,232.35 M27.5,217.35 L40.5,232.35 " fill="none" style="stroke:#181818;stroke-width:0.5;"/><text fill="#000000" font-family="sans-serif" font-size="14" lengthAdjust="spacing" textLength="43" x="6" y="246.8451">Admin</text></g><!--link U to UC1--><g id="link_U_UC1"><path d="M43.85,96.54 C65.21,90.34 98.9784,80.5244 129.9484,71.5244 " fill="none" id="U-to-UC1" style="stroke:#181818;stroke-width:1.0;"/><polygon fill="#181818" points="135.71,69.85,125.9513,68.5204,130.9086,71.2453,128.1838,76.2026,135.71,69.85" style="stroke:#181818;stroke-width:1.0;"/></g><!--link U to UC2--><g id="link_U_UC2"><path d="M43.85,103.23 C67.46,106.66 107.3524,112.4569 139.2724,117.0969 " fill="none" id="U-to-UC2" style="stroke:#181818;stroke-width:1.0;"/><polygon fill="#181818" points="145.21,117.96,136.879,112.7069,140.262,117.2407,135.7282,120.6237,145.21,117.96" style="stroke:#181818;stroke-width:1.0;"/></g><!--link A to UC3--><g id="link_A_UC3"><path d="M49.24,208.85 C67.38,206.1 88.738,202.8511 113.688,199.0611 " fill="none" id="A-to-UC3" style="stroke:#181818;stroke-width:1.0;"/><polygon fill="#181818" points="119.62,198.16,110.1213,195.557,114.6767,198.9109,111.3228,203.4663,119.62,198.16" style="stroke:#181818;stroke-width:1.0;"/></g><!--link U to UC3--><g id="link_U_UC3"><path d="M43.99,119.34 C54.56,130.88 69.42,145.37 85,155 C99.45,163.93 110.8848,169.052 126.5948,174.352 " fill="none" id="U-to-UC3" style="stroke:#181818;stroke-width:1.0;"/><polygon fill="#181818" points="132.28,176.27,125.0309,169.6029,127.5423,174.6717,122.4736,177.1832,132.28,176.27" style="stroke:#181818;stroke-width:1.0;"/></g><!--SRC=[POon3i8m34Jt-mghUmUQ7IbqPSq7MAa94P0W9vqG_qwfKgGAJ-TxTtUNIwMQIMEuLfgYYgyn9m3iQrPoHPIua6k_dHunVGqBFDdVECYIcLbZBY-0bfkBU2v2tQZ2kj5kNHaF-yWvXvWQ6lReb5N_wWPu0uxw_hYERMe0R9FcPveF]--></g></svg>