<?xml version="1.0" encoding="us-ascii" standalone="no"?><svg xmlns="http://www.w3.org/2000/svg" xmlns:xlink="http://www.w3.org/1999/xlink" contentStyleType="text/css" height="660px" preserveAspectRatio="none" style="width:304px;height:660px;background:#FFFFFF;" version="1.1" viewBox="0 0 304 660" width="304px" zoomAndPan="magnify"><defs/><g><text fill="#000000" font-family="sans-serif" font-size="14" font-weight="bold" lengthAdjust="spacing" textLength="198" x="46" y="22.9951">Actualizar Bonos (Admin)</text><ellipse cx="133" cy="53.2969" fill="#222222" rx="10" ry="10" style="stroke:#222222;stroke-width:1.0;"/><g id="Inicio"><rect fill="#F1F1F1" height="50" rx="12.5" ry="12.5" style="stroke:#181818;stroke-width:0.5;" width="55" x="105.5" y="124.2969"/><line style="stroke:#181818;stroke-width:0.5;" x1="105.5" x2="160.5" y1="150.5938" y2="150.5938"/><text fill="#000000" font-family="sans-serif" font-size="14" lengthAdjust="spacing" textLength="35" x="115.5" y="142.292">Inicio</text></g><g id="ListaDeBonos"><rect fill="#F1F1F1" height="50" rx="12.5" ry="12.5" style="stroke:#181818;stroke-width:0.5;" width="116" x="75" y="251.2969"/><line style="stroke:#181818;stroke-width:0.5;" x1="75" x2="191" y1="277.5938" y2="277.5938"/><text fill="#000000" font-family="sans-serif" font-size="14" lengthAdjust="spacing" textLength="96" x="85" y="269.292">ListaDeBonos</text></g><g id="EditarBonos"><rect fill="#F1F1F1" height="50" rx="12.5" ry="12.5" style="stroke:#181818;stroke-width:0.5;" width="104" x="7" y="378.2969"/><line style="stroke:#181818;stroke-width:0.5;" x1="7" x2="111" y1="404.5938" y2="404.5938"/><text fill="#000000" font-family="sans-serif" font-size="14" lengthAdjust="spacing" textLength="84" x="17" y="396.292">EditarBonos</text></g><g id="BonosActualizados"><rect fill="#F1F1F1" height="50" rx="12.5" ry="12.5" style="stroke:#181818;stroke-width:0.5;" width="152" x="54" y="505.2969"/><line style="stroke:#181818;stroke-width:0.5;" x1="54" x2="206" y1="531.5938" y2="531.5938"/><text fill="#000000" font-family="sans-serif" font-size="14" lengthAdjust="spacing" textLength="132" x="64" y="523.292">BonosActualizados</text></g><ellipse cx="130" cy="643.2969" fill="none" rx="11" ry="11" style="stroke:#222222;stroke-width:1.0;"/><ellipse cx="130" cy="643.2969" fill="#222222" rx="6" ry="6" style="stroke:#222222;stroke-width:1.0;"/><!--link *start* to Inicio--><g id="link_*start*_Inicio"><path d="M133,63.6569 C133,77.5869 133,98.2469 133,117.9469 " fill="none" id="*start*-to-Inicio" style="stroke:#181818;stroke-width:1.0;"/><polygon fill="#181818" points="133,123.9469,137,114.9469,133,118.9469,129,114.9469,133,123.9469" style="stroke:#181818;stroke-width:1.0;"/></g><!--link Inicio to ListaDeBonos--><g id="link_Inicio_ListaDeBonos"><path d="M133,174.6969 C133,196.7169 133,222.9569 133,244.9569 " fill="none" id="Inicio-to-ListaDeBonos" style="stroke:#181818;stroke-width:1.0;"/><polygon fill="#181818" points="133,250.9569,137,241.9569,133,245.9569,129,241.9569,133,250.9569" style="stroke:#181818;stroke-width:1.0;"/><text fill="#000000" font-family="sans-serif" font-size="13" lengthAdjust="spacing" textLength="87" x="134" y="217.3638">Cargar Bonos</text></g><!--link ListaDeBonos to EditarBonos--><g id="link_ListaDeBonos_EditarBonos"><path d="M91.32,301.7169 C81.03,309.7969 71.2,319.7369 65,331.2969 C57.4,345.4669 55.8005,357.5596 56.2305,371.9296 " fill="none" id="ListaDeBonos-to-EditarBonos" style="stroke:#181818;stroke-width:1.0;"/><polygon fill="#181818" points="56.41,377.9269,60.139,368.8113,56.2604,372.9291,52.1426,369.0505,56.41,377.9269" style="stroke:#181818;stroke-width:1.0;"/><text fill="#000000" font-family="sans-serif" font-size="13" lengthAdjust="spacing" textLength="111" x="66" y="344.3638">Seleccionar Bono</text></g><!--link EditarBonos to BonosActualizados--><g id="link_EditarBonos_BonosActualizados"><path d="M50.68,428.5969 C47.24,442.9469 45.58,461.0269 53,475.2969 C59.18,487.1769 64.4291,493.4834 75.3291,501.3234 " fill="none" id="EditarBonos-to-BonosActualizados" style="stroke:#181818;stroke-width:1.0;"/><polygon fill="#181818" points="80.2,504.8269,75.2293,496.3244,76.1409,501.9073,70.558,502.8189,80.2,504.8269" style="stroke:#181818;stroke-width:1.0;"/><text fill="#000000" font-family="sans-serif" font-size="13" lengthAdjust="spacing" textLength="123" x="54" y="471.3638">Confirmar Cambios</text></g><!--link BonosActualizados to ListaDeBonos--><g id="link_BonosActualizados_ListaDeBonos"><path d="M161.17,504.8769 C169.55,496.4969 177.52,486.4069 182,475.2969 C205.93,415.9369 205.05,390.9969 182,331.2969 C177.76,320.3169 174.2523,314.5465 166.2623,306.0965 " fill="none" id="BonosActualizados-to-ListaDeBonos" style="stroke:#181818;stroke-width:1.0;"/><polygon fill="#181818" points="162.14,301.7369,165.417,311.0246,165.5753,305.3699,171.2299,305.5281,162.14,301.7369" style="stroke:#181818;stroke-width:1.0;"/><text fill="#000000" font-family="sans-serif" font-size="13" lengthAdjust="spacing" textLength="95" x="201" y="407.8638">Actualizar Otro</text></g><!--link BonosActualizados to *end*--><g id="link_BonosActualizados_*end*"><path d="M130,555.6569 C130,579.5269 130,608.7569 130,626.0069 " fill="none" id="BonosActualizados-to-*end*" style="stroke:#181818;stroke-width:1.0;"/><polygon fill="#181818" points="130,632.0069,134,623.0069,130,627.0069,126,623.0069,130,632.0069" style="stroke:#181818;stroke-width:1.0;"/><text fill="#000000" font-family="sans-serif" font-size="13" lengthAdjust="spacing" textLength="52" x="131" y="598.3638">Finalizar</text></g><!--SRC=[AyaioKbLS4mkAKtCoQnAB59moi_BBrRGS4p9pSpJvEAArefLqDMrK_3CoqpEpEU2K60HdypYaaINL8XwAmNdnA9qc7Ok53cGOjUKp9B48fZQuDISr6IWENbG3Lp8qY3bO1RSKIaG2_BpqZABSe5Qd1DpapA1jc2gmk8k9A_vbnJbuz04ygQLWbjc7aGf0000]--></g></svg>