<?xml version="1.0" encoding="us-ascii" standalone="no"?><svg xmlns="http://www.w3.org/2000/svg" xmlns:xlink="http://www.w3.org/1999/xlink" contentStyleType="text/css" height="693px" preserveAspectRatio="none" style="width:535px;height:693px;background:#FFFFFF;" version="1.1" viewBox="0 0 535 693" width="535px" zoomAndPan="magnify"><defs/><g><text fill="#000000" font-family="sans-serif" font-size="14" font-weight="bold" lengthAdjust="spacing" textLength="138" x="191.5" y="22.9951">Cancelar Reserva</text><ellipse cx="186" cy="53.2969" fill="#222222" rx="10" ry="10" style="stroke:#222222;stroke-width:1.0;"/><g id="SeleccionDeReserva"><rect fill="#F1F1F1" height="50" rx="12.5" ry="12.5" style="stroke:#181818;stroke-width:0.5;" width="163" x="104.5" y="124.2969"/><line style="stroke:#181818;stroke-width:0.5;" x1="104.5" x2="267.5" y1="150.5938" y2="150.5938"/><text fill="#000000" font-family="sans-serif" font-size="14" lengthAdjust="spacing" textLength="143" x="114.5" y="142.292">SeleccionDeReserva</text></g><g id="VerificarCondiciones"><rect fill="#F1F1F1" height="50" rx="12.5" ry="12.5" style="stroke:#181818;stroke-width:0.5;" width="160" x="106" y="251.2969"/><line style="stroke:#181818;stroke-width:0.5;" x1="106" x2="266" y1="277.5938" y2="277.5938"/><text fill="#000000" font-family="sans-serif" font-size="14" lengthAdjust="spacing" textLength="140" x="116" y="269.292">VerificarCondiciones</text></g><g id="NoSePuedeCancelar"><rect fill="#F1F1F1" height="50" rx="12.5" ry="12.5" style="stroke:#181818;stroke-width:0.5;" width="162" x="7" y="458.2969"/><line style="stroke:#181818;stroke-width:0.5;" x1="7" x2="169" y1="484.5938" y2="484.5938"/><text fill="#000000" font-family="sans-serif" font-size="14" lengthAdjust="spacing" textLength="142" x="17" y="476.292">NoSePuedeCancelar</text></g><g id="ConfirmacionCancelar"><rect fill="#F1F1F1" height="50" rx="12.5" ry="12.5" style="stroke:#181818;stroke-width:0.5;" width="170" x="213" y="378.2969"/><line style="stroke:#181818;stroke-width:0.5;" x1="213" x2="383" y1="404.5938" y2="404.5938"/><text fill="#000000" font-family="sans-serif" font-size="14" lengthAdjust="spacing" textLength="150" x="223" y="396.292">ConfirmacionCancelar</text></g><g id="ReservaCancelada"><rect fill="#F1F1F1" height="50" rx="12.5" ry="12.5" style="stroke:#181818;stroke-width:0.5;" width="148" x="214" y="538.2969"/><line style="stroke:#181818;stroke-width:0.5;" x1="214" x2="362" y1="564.5938" y2="564.5938"/><text fill="#000000" font-family="sans-serif" font-size="14" lengthAdjust="spacing" textLength="128" x="224" y="556.292">ReservaCancelada</text></g><ellipse cx="150" cy="676.2969" fill="none" rx="11" ry="11" style="stroke:#222222;stroke-width:1.0;"/><ellipse cx="150" cy="676.2969" fill="#222222" rx="6" ry="6" style="stroke:#222222;stroke-width:1.0;"/><!--link *start* to SeleccionDeReserva--><g id="link_*start*_SeleccionDeReserva"><path d="M186,63.6569 C186,77.5869 186,98.2469 186,117.9469 " fill="none" id="*start*-to-SeleccionDeReserva" style="stroke:#181818;stroke-width:1.0;"/><polygon fill="#181818" points="186,123.9469,190,114.9469,186,118.9469,182,114.9469,186,123.9469" style="stroke:#181818;stroke-width:1.0;"/></g><!--link SeleccionDeReserva to VerificarCondiciones--><g id="link_SeleccionDeReserva_VerificarCondiciones"><path d="M186,174.6969 C186,196.7169 186,222.9569 186,244.9569 " fill="none" id="SeleccionDeReserva-to-VerificarCondiciones" style="stroke:#181818;stroke-width:1.0;"/><polygon fill="#181818" points="186,250.9569,190,241.9569,186,245.9569,182,241.9569,186,250.9569" style="stroke:#181818;stroke-width:1.0;"/><text fill="#000000" font-family="sans-serif" font-size="13" lengthAdjust="spacing" textLength="90" x="187" y="217.3638">Elegir Reserva</text></g><!--link VerificarCondiciones to NoSePuedeCancelar--><g id="link_VerificarCondiciones_NoSePuedeCancelar"><path d="M105.71,297.6369 C89.62,305.4869 74.7,316.3369 65,331.2969 C39.81,370.1169 57.0626,420.7634 72.2426,452.5234 " fill="none" id="VerificarCondiciones-to-NoSePuedeCancelar" style="stroke:#181818;stroke-width:1.0;"/><polygon fill="#181818" points="74.83,457.9369,74.5579,448.0918,72.6738,453.4257,67.3399,451.5417,74.83,457.9369" style="stroke:#181818;stroke-width:1.0;"/><text fill="#000000" font-family="sans-serif" font-size="13" lengthAdjust="spacing" textLength="187" x="66" y="344.3638">Mismo D&#237;a Sin Clima Adverso</text></g><!--link VerificarCondiciones to ConfirmacionCancelar--><g id="link_VerificarCondiciones_ConfirmacionCancelar"><path d="M228.04,301.7669 C240,310.0869 252.39,320.1369 262,331.2969 C273.82,345.0169 280.6496,357.7537 286.7596,372.3237 " fill="none" id="VerificarCondiciones-to-ConfirmacionCancelar" style="stroke:#181818;stroke-width:1.0;"/><polygon fill="#181818" points="289.08,377.8569,289.2882,368.0102,287.1464,373.2459,281.9107,371.104,289.08,377.8569" style="stroke:#181818;stroke-width:1.0;"/><text fill="#000000" font-family="sans-serif" font-size="13" lengthAdjust="spacing" textLength="252" x="275" y="344.3638">Anticipaci&#243;n Suficiente o Clima Adverso</text></g><!--link ConfirmacionCancelar to ReservaCancelada--><g id="link_ConfirmacionCancelar_ReservaCancelada"><path d="M296.46,428.6369 C294.58,458.3269 291.799,502.2389 289.919,531.9389 " fill="none" id="ConfirmacionCancelar-to-ReservaCancelada" style="stroke:#181818;stroke-width:1.0;"/><polygon fill="#181818" points="289.54,537.9269,294.1006,529.1975,289.8559,532.9369,286.1165,528.6922,289.54,537.9269" style="stroke:#181818;stroke-width:1.0;"/><text fill="#000000" font-family="sans-serif" font-size="13" lengthAdjust="spacing" textLength="144" x="295" y="487.8638">Confirmar Cancelaci&#243;n</text></g><!--link NoSePuedeCancelar to *end*--><g id="link_NoSePuedeCancelar_*end*"><path d="M95.85,508.4869 C109.6,550.8469 135.6183,630.9897 144.9883,659.8697 " fill="none" id="NoSePuedeCancelar-to-*end*" style="stroke:#181818;stroke-width:1.0;"/><polygon fill="#181818" points="146.84,665.5769,147.8673,655.7817,145.297,660.8209,140.2578,658.2506,146.84,665.5769" style="stroke:#181818;stroke-width:1.0;"/><text fill="#000000" font-family="sans-serif" font-size="13" lengthAdjust="spacing" textLength="52" x="123" y="567.8638">Finalizar</text></g><!--link ReservaCancelada to *end*--><g id="link_ReservaCancelada_*end*"><path d="M257.72,588.6569 C225.82,614.3069 182.2857,649.3269 163.0357,664.8069 " fill="none" id="ReservaCancelada-to-*end*" style="stroke:#181818;stroke-width:1.0;"/><polygon fill="#181818" points="158.36,668.5669,167.8802,666.044,162.2564,665.4335,162.8669,659.8097,158.36,668.5669" style="stroke:#181818;stroke-width:1.0;"/><text fill="#000000" font-family="sans-serif" font-size="13" lengthAdjust="spacing" textLength="52" x="220" y="631.3638">Finalizar</text></g><!--SRC=[TP0n3e9044LxJZ6r2HUWC26WdSQuYOsncC1W9bbspR1GU2ShZy35t2MWHh3SF- -_x8nZfmaoD0Lf53XIGz9X59rN5uZZDIZIL1HiJKxJR1uDv8c4AovGCcjA3dDg886DfYj_n8jKgE-jeaDB9Rt_ai2Eczf2tZyG51l8DDS8QTcHDFQ_oRyhbXf3z2LBZVFKpSVzqu1gVPV9E0Bx8rxi1_6umvYLwAKJAzC91tiqNoRqmqqJsB91pNUKQEPRW5u0]--></g></svg>