<?xml version="1.0" encoding="us-ascii" standalone="no"?><svg xmlns="http://www.w3.org/2000/svg" xmlns:xlink="http://www.w3.org/1999/xlink" contentStyleType="text/css" height="649px" preserveAspectRatio="none" style="width:1290px;height:649px;background:#FFFFFF;" version="1.1" viewBox="0 0 1290 649" width="1290px" zoomAndPan="magnify"><defs/><g><text fill="#000000" font-family="sans-serif" font-size="14" font-weight="bold" lengthAdjust="spacing" textLength="138" x="569" y="22.9951">Cancelar Reserva</text><ellipse cx="658" cy="53.2969" fill="#222222" rx="10" ry="10" style="stroke:#222222;stroke-width:1.0;"/><g id="SeleccionDeReserva"><rect fill="#F1F1F1" height="50" rx="12.5" ry="12.5" style="stroke:#181818;stroke-width:0.5;" width="163" x="576.5" y="124.2969"/><line style="stroke:#181818;stroke-width:0.5;" x1="576.5" x2="739.5" y1="150.5938" y2="150.5938"/><text fill="#000000" font-family="sans-serif" font-size="14" lengthAdjust="spacing" textLength="143" x="586.5" y="142.292">SeleccionDeReserva</text></g><g id="elem_GMN5"><path d="M775,136.7369 L775,145.2969 L739.84,149.2969 L775,153.2969 L775,161.8697 A0,0 0 0 0 775,161.8697 L1125,161.8697 A0,0 0 0 0 1125,161.8697 L1125,146.7369 L1115,136.7369 L775,136.7369 A0,0 0 0 0 775,136.7369 " fill="#FEFFDD" style="stroke:#181818;stroke-width:0.5;"/><path d="M1115,136.7369 L1115,146.7369 L1125,146.7369 L1115,136.7369 " fill="#FEFFDD" style="stroke:#181818;stroke-width:0.5;"/><text fill="#000000" font-family="sans-serif" font-size="13" lengthAdjust="spacing" textLength="329" x="781" y="153.8038">El usuario selecciona la reserva que desea cancelar</text></g><g id="VerificarCondiciones"><rect fill="#F1F1F1" height="50" rx="12.5" ry="12.5" style="stroke:#181818;stroke-width:0.5;" width="160" x="578" y="253.9969"/><line style="stroke:#181818;stroke-width:0.5;" x1="578" x2="738" y1="280.2938" y2="280.2938"/><text fill="#000000" font-family="sans-serif" font-size="14" lengthAdjust="spacing" textLength="140" x="588" y="271.992">VerificarCondiciones</text></g><g id="elem_GMN10"><path d="M773,251.2969 L773,274.9969 L738.21,278.9969 L773,282.9969 L773,306.6953 A0,0 0 0 0 773,306.6953 L1283,306.6953 A0,0 0 0 0 1283,306.6953 L1283,261.2969 L1273,251.2969 L773,251.2969 A0,0 0 0 0 773,251.2969 " fill="#FEFFDD" style="stroke:#181818;stroke-width:0.5;"/><path d="M1273,251.2969 L1273,261.2969 L1283,261.2969 L1273,251.2969 " fill="#FEFFDD" style="stroke:#181818;stroke-width:0.5;"/><text fill="#000000" font-family="sans-serif" font-size="13" lengthAdjust="spacing" textLength="383" x="779" y="268.3638">El sistema verifica si la cancelaci&#243;n cumple con las pol&#237;ticas:</text><text fill="#000000" font-family="sans-serif" font-size="13" lengthAdjust="spacing" textLength="489" x="779" y="283.4966">- No se permite cancelar el mismo d&#237;a, a menos que el clima no sea &#243;ptimo.</text><text fill="#000000" font-family="sans-serif" font-size="13" lengthAdjust="spacing" textLength="428" x="779" y="298.6294">- Se permite la cancelaci&#243;n con al menos 24 horas de anticipaci&#243;n.</text></g><g id="NoSePuedeCancelar"><rect fill="#F1F1F1" height="50" rx="12.5" ry="12.5" style="stroke:#181818;stroke-width:0.5;" width="162" x="477" y="367.6969"/><line style="stroke:#181818;stroke-width:0.5;" x1="477" x2="639" y1="393.9938" y2="393.9938"/><text fill="#000000" font-family="sans-serif" font-size="14" lengthAdjust="spacing" textLength="142" x="487" y="385.692">NoSePuedeCancelar</text></g><g id="elem_GMN15"><path d="M6,372.5669 L6,412.8325 A0,0 0 0 0 6,412.8325 L442,412.8325 A0,0 0 0 0 442,412.8325 L442,396.6969 L476.58,392.6969 L442,388.6969 L442,382.5669 L432,372.5669 L6,372.5669 A0,0 0 0 0 6,372.5669 " fill="#FEFFDD" style="stroke:#181818;stroke-width:0.5;"/><path d="M432,372.5669 L432,382.5669 L442,382.5669 L432,372.5669 " fill="#FEFFDD" style="stroke:#181818;stroke-width:0.5;"/><text fill="#000000" font-family="sans-serif" font-size="13" lengthAdjust="spacing" textLength="411" x="12" y="389.6338">La reserva no se puede cancelar debido a que es el mismo d&#237;a y</text><text fill="#000000" font-family="sans-serif" font-size="13" lengthAdjust="spacing" textLength="252" x="12" y="404.7666">las condiciones clim&#225;ticas son &#243;ptimas.</text></g><g id="ConfirmacionCancelar"><rect fill="#F1F1F1" height="50" rx="12.5" ry="12.5" style="stroke:#181818;stroke-width:0.5;" width="170" x="674" y="367.6969"/><line style="stroke:#181818;stroke-width:0.5;" x1="674" x2="844" y1="393.9938" y2="393.9938"/><text fill="#000000" font-family="sans-serif" font-size="14" lengthAdjust="spacing" textLength="150" x="684" y="385.692">ConfirmacionCancelar</text></g><g id="elem_GMN20"><path d="M879.5,372.5669 L879.5,388.6969 L844.36,392.6969 L879.5,396.6969 L879.5,412.8325 A0,0 0 0 0 879.5,412.8325 L1276.5,412.8325 A0,0 0 0 0 1276.5,412.8325 L1276.5,382.5669 L1266.5,372.5669 L879.5,372.5669 A0,0 0 0 0 879.5,372.5669 " fill="#FEFFDD" style="stroke:#181818;stroke-width:0.5;"/><path d="M1266.5,372.5669 L1266.5,382.5669 L1276.5,382.5669 L1266.5,372.5669 " fill="#FEFFDD" style="stroke:#181818;stroke-width:0.5;"/><text fill="#000000" font-family="sans-serif" font-size="13" lengthAdjust="spacing" textLength="376" x="885.5" y="389.6338">El usuario procede a confirmar la cancelaci&#243;n de la reserva</text><text fill="#000000" font-family="sans-serif" font-size="13" lengthAdjust="spacing" textLength="204" x="885.5" y="404.7666">bajo las condiciones permitidas.</text></g><g id="ReservaCancelada"><rect fill="#F1F1F1" height="50" rx="12.5" ry="12.5" style="stroke:#181818;stroke-width:0.5;" width="148" x="675" y="494.6969"/><line style="stroke:#181818;stroke-width:0.5;" x1="675" x2="823" y1="520.9938" y2="520.9938"/><text fill="#000000" font-family="sans-serif" font-size="14" lengthAdjust="spacing" textLength="128" x="685" y="512.692">ReservaCancelada</text></g><ellipse cx="606" cy="632.6969" fill="none" rx="11" ry="11" style="stroke:#222222;stroke-width:1.0;"/><ellipse cx="606" cy="632.6969" fill="#222222" rx="6" ry="6" style="stroke:#222222;stroke-width:1.0;"/><!--link *start* to SeleccionDeReserva--><g id="link_*start*_SeleccionDeReserva"><path d="M658,63.6569 C658,77.5869 658,98.2569 658,117.9469 " fill="none" id="*start*-to-SeleccionDeReserva" style="stroke:#181818;stroke-width:1.0;"/><polygon fill="#181818" points="658,123.9469,662,114.9469,658,118.9469,654,114.9469,658,123.9469" style="stroke:#181818;stroke-width:1.0;"/></g><!--link SeleccionDeReserva to VerificarCondiciones--><g id="link_SeleccionDeReserva_VerificarCondiciones"><path d="M658,174.6169 C658,197.3369 658,225.0769 658,247.7669 " fill="none" id="SeleccionDeReserva-to-VerificarCondiciones" style="stroke:#181818;stroke-width:1.0;"/><polygon fill="#181818" points="658,253.7669,662,244.7669,658,248.7669,654,244.7669,658,253.7669" style="stroke:#181818;stroke-width:1.0;"/><text fill="#000000" font-family="sans-serif" font-size="13" lengthAdjust="spacing" textLength="90" x="659" y="217.3638">Elegir Reserva</text></g><!--link VerificarCondiciones to NoSePuedeCancelar--><g id="link_VerificarCondiciones_NoSePuedeCancelar"><path d="M636.3,304.2369 C619.53,322.9669 600.4222,344.3167 583.6622,363.0367 " fill="none" id="VerificarCondiciones-to-NoSePuedeCancelar" style="stroke:#181818;stroke-width:1.0;"/><polygon fill="#181818" points="579.66,367.5069,588.6434,363.4697,582.9951,363.7817,582.6831,358.1335,579.66,367.5069" style="stroke:#181818;stroke-width:1.0;"/></g><!--link VerificarCondiciones to ConfirmacionCancelar--><g id="link_VerificarCondiciones_ConfirmacionCancelar"><path d="M679.92,304.2369 C696.86,322.9669 716.1755,344.3368 733.1055,363.0568 " fill="none" id="VerificarCondiciones-to-ConfirmacionCancelar" style="stroke:#181818;stroke-width:1.0;"/><polygon fill="#181818" points="737.13,367.5069,734.0599,358.1488,733.7762,363.7985,728.1265,363.5148,737.13,367.5069" style="stroke:#181818;stroke-width:1.0;"/></g><!--link ConfirmacionCancelar to ReservaCancelada--><g id="link_ConfirmacionCancelar_ReservaCancelada"><path d="M757.05,418.0969 C755.29,440.1169 753.1885,466.376 751.4285,488.376 " fill="none" id="ConfirmacionCancelar-to-ReservaCancelada" style="stroke:#181818;stroke-width:1.0;"/><polygon fill="#181818" points="750.95,494.3569,755.655,485.7045,751.3487,489.3728,747.6804,485.0666,750.95,494.3569" style="stroke:#181818;stroke-width:1.0;"/><text fill="#000000" font-family="sans-serif" font-size="13" lengthAdjust="spacing" textLength="144" x="755" y="460.7638">Confirmar Cancelaci&#243;n</text></g><!--link NoSePuedeCancelar to *end*--><g id="link_NoSePuedeCancelar_*end*"><path d="M562.87,417.8269 C573.16,468.8769 595.6044,580.1552 602.7344,615.5252 " fill="none" id="NoSePuedeCancelar-to-*end*" style="stroke:#181818;stroke-width:1.0;"/><polygon fill="#181818" points="603.92,621.4069,606.0626,611.7939,602.932,616.5055,598.2204,613.3748,603.92,621.4069" style="stroke:#181818;stroke-width:1.0;"/><text fill="#000000" font-family="sans-serif" font-size="13" lengthAdjust="spacing" textLength="52" x="590" y="524.2638">Finalizar</text></g><!--link ReservaCancelada to *end*--><g id="link_ReservaCancelada_*end*"><path d="M717.62,545.0569 C684.4,570.8369 638.85,606.1982 619.11,621.5182 " fill="none" id="ReservaCancelada-to-*end*" style="stroke:#181818;stroke-width:1.0;"/><polygon fill="#181818" points="614.37,625.1969,623.9324,622.8389,618.32,622.1313,619.0275,616.5189,614.37,625.1969" style="stroke:#181818;stroke-width:1.0;"/><text fill="#000000" font-family="sans-serif" font-size="13" lengthAdjust="spacing" textLength="52" x="679" y="587.7638">Finalizar</text></g><!--SRC=[ZLEzJkGm4Exz55zzOYbELsr1imSLGYTMea4KWpqBWnmxs0aIl0qFGCKZvCLkd6HtiqeAkjZpURwVcJJIUCQ6WcLF2RUSERsHCVU_7h1QNM3BdgsL6FxolXPYmqZozDmWxfO0kFHeSqj98lA-JF24D23msZASVXFio6muE9JEnimxzahkECbEBALD34vAdJFMoiLFSXH-AcxfJIylIswu8hoD0Bqe-aOrLhhl0DjMjMPZOz1IHXrzzzKeDgyDLhWftb1pgaGPzpR07fNaAi9rNtG6GiKXvjwmbgmN9GtbAQ7xhXkfuddfjZsscibGVl9Zdzz_y1oJgd4C2gf6wW5sFWbmCQaIuKtSyh-M7H_cFUJbUTV7DQiRN1-75WR7fNxqw_XHNCGmKgKvyOztc3uxEn5ICkW- -o2HrTiG0-KVET3pJb95vUeWydJcYv3fIjOfskA1YgmUccQXEvwigy4ZlSIPaM5WuawbBz7tqiSD7UySwUvk3loR2RanPZweqg7yasjSII0l7sfgrd41z1y0]--></g></svg>