<svg xmlns="http://www.w3.org/2000/svg" xmlns:xlink="http://www.w3.org/1999/xlink" contentStyleType="text/css" height="944px" preserveAspectRatio="none" style="width:640px;height:944px;background:#FFFFFF;" version="1.1" viewBox="0 0 640 944" width="640px" zoomAndPan="magnify"><defs/><g><text fill="#000000" font-family="sans-serif" font-size="14" font-weight="bold" lengthAdjust="spacing" textLength="138" x="244.25" y="22.9951">Cancelar Reserva</text><ellipse cx="88.5" cy="53.2969" fill="#222222" rx="10" ry="10" style="stroke:#222222;stroke-width:1.0;"/><g id="SeleccionDeReserva"><rect fill="#F1F1F1" height="50" rx="12.5" ry="12.5" style="stroke:#181818;stroke-width:0.5;" width="163" x="7" y="173.2969"/><line style="stroke:#181818;stroke-width:0.5;" x1="7" x2="170" y1="199.5938" y2="199.5938"/><text fill="#000000" font-family="sans-serif" font-size="14" lengthAdjust="spacing" textLength="143" x="17" y="191.292">SeleccionDeReserva</text></g><g id="VerificarCondiciones"><rect fill="#F1F1F1" height="50" rx="12.5" ry="12.5" style="stroke:#181818;stroke-width:0.5;" width="160" x="8.5" y="408.2969"/><line style="stroke:#181818;stroke-width:0.5;" x1="8.5" x2="168.5" y1="434.5938" y2="434.5938"/><text fill="#000000" font-family="sans-serif" font-size="14" lengthAdjust="spacing" textLength="140" x="18.5" y="426.292">VerificarCondiciones</text></g><g id="NoSePuedeCancelar"><rect fill="#F1F1F1" height="50" rx="12.5" ry="12.5" style="stroke:#181818;stroke-width:0.5;" width="162" x="60.5" y="743.2969"/><line style="stroke:#181818;stroke-width:0.5;" x1="60.5" x2="222.5" y1="769.5938" y2="769.5938"/><text fill="#000000" font-family="sans-serif" font-size="14" lengthAdjust="spacing" textLength="142" x="70.5" y="761.292">NoSePuedeCancelar</text></g><g id="ConfirmacionCancelar"><rect fill="#F1F1F1" height="50" rx="12.5" ry="12.5" style="stroke:#181818;stroke-width:0.5;" width="170" x="328.5" y="575.7969"/><line style="stroke:#181818;stroke-width:0.5;" x1="328.5" x2="498.5" y1="602.0938" y2="602.0938"/><text fill="#000000" font-family="sans-serif" font-size="14" lengthAdjust="spacing" textLength="150" x="338.5" y="593.792">ConfirmacionCancelar</text></g><g id="ReservaCancelada"><rect fill="#F1F1F1" height="50" rx="12.5" ry="12.5" style="stroke:#181818;stroke-width:0.5;" width="148" x="298.5" y="743.2969"/><line style="stroke:#181818;stroke-width:0.5;" x1="298.5" x2="446.5" y1="769.5938" y2="769.5938"/><text fill="#000000" font-family="sans-serif" font-size="14" lengthAdjust="spacing" textLength="128" x="308.5" y="761.292">ReservaCancelada</text></g><ellipse cx="235.5" cy="927.2969" fill="none" rx="11" ry="11" style="stroke:#222222;stroke-width:1.0;"/><ellipse cx="235.5" cy="927.2969" fill="#222222" rx="6" ry="6" style="stroke:#222222;stroke-width:1.0;"/><!--link *start* to SeleccionDeReserva--><g id="link_*start*_SeleccionDeReserva"><path d="M88.5,63.6769 C88.5,85.6169 88.5,134.8169 88.5,166.9869 " fill="none" id="*start*-to-SeleccionDeReserva" style="stroke:#181818;stroke-width:1.0;"/><polygon fill="#181818" points="88.5,172.9869,92.5,163.9869,88.5,167.9869,84.5,163.9869,88.5,172.9869" style="stroke:#181818;stroke-width:1.0;"/><path d="M93.5,98.2969 L93.5,138.2969 L291.5,138.2969 L291.5,108.2969 L281.5,98.2969 L93.5,98.2969 " fill="#FEFFDD" style="stroke:#181818;stroke-width:0.5;"/><path d="M281.5,98.2969 L281.5,108.2969 L291.5,108.2969 L281.5,98.2969 " fill="#FEFFDD" style="stroke:#181818;stroke-width:0.5;"/><text fill="#000000" font-family="sans-serif" font-size="13" lengthAdjust="spacing" textLength="11" x="99.5" y="115.3638">El</text><text fill="#000000" font-family="sans-serif" font-size="13" font-weight="bold" lengthAdjust="spacing" textLength="54" x="114.5" y="115.3638">usuario</text><text fill="#000000" font-family="sans-serif" font-size="13" lengthAdjust="spacing" textLength="82" x="172.5" y="115.3638">selecciona la</text><text fill="#000000" font-family="sans-serif" font-size="13" lengthAdjust="spacing" textLength="177" x="99.5" y="130.4966">reserva que desea cancelar</text></g><!--link SeleccionDeReserva to VerificarCondiciones--><g id="link_SeleccionDeReserva_VerificarCondiciones"><path d="M88.5,223.7869 C88.5,268.6569 88.5,357.5069 88.5,402.1269 " fill="none" id="SeleccionDeReserva-to-VerificarCondiciones" style="stroke:#181818;stroke-width:1.0;"/><polygon fill="#181818" points="88.5,408.1269,92.5,399.1269,88.5,403.1269,84.5,399.1269,88.5,408.1269" style="stroke:#181818;stroke-width:1.0;"/><path d="M93.5,258.2969 L93.5,373.2969 L504.5,373.2969 L504.5,268.2969 L494.5,258.2969 L93.5,258.2969 " fill="#FEFFDD" style="stroke:#181818;stroke-width:0.5;"/><path d="M494.5,258.2969 L494.5,268.2969 L504.5,268.2969 L494.5,258.2969 " fill="#FEFFDD" style="stroke:#181818;stroke-width:0.5;"/><text fill="#000000" font-family="sans-serif" font-size="13" lengthAdjust="spacing" textLength="11" x="99.5" y="275.3638">El</text><text fill="#000000" font-family="sans-serif" font-size="13" font-weight="bold" lengthAdjust="spacing" textLength="58" x="114.5" y="275.3638">sistema</text><text fill="#000000" font-family="sans-serif" font-size="13" lengthAdjust="spacing" textLength="313" x="176.5" y="275.3638">verifica si la cancelaci&#243;n cumple con las pol&#237;ticas:</text><text fill="#000000" font-family="sans-serif" font-size="13" lengthAdjust="spacing" textLength="4" x="99.5" y="290.4966">&#160;</text><text fill="#000000" font-family="sans-serif" font-size="13" lengthAdjust="spacing" textLength="248" x="99.5" y="305.6294">- No se permite cancelar el mismo d&#237;a,</text><text fill="#000000" font-family="sans-serif" font-size="13" lengthAdjust="spacing" textLength="237" x="107.5" y="320.7622">a menos que el clima no sea &#243;ptimo.</text><text fill="#000000" font-family="sans-serif" font-size="13" lengthAdjust="spacing" textLength="4" x="99.5" y="335.895">&#160;</text><text fill="#000000" font-family="sans-serif" font-size="13" lengthAdjust="spacing" textLength="264" x="99.5" y="351.0278">- Se permite la cancelaci&#243;n con al menos</text><text fill="#000000" font-family="sans-serif" font-size="13" lengthAdjust="spacing" textLength="160" x="107.5" y="366.1606">24 horas de anticipaci&#243;n.</text></g><!--link VerificarCondiciones to NoSePuedeCancelar--><g id="link_VerificarCondiciones_NoSePuedeCancelar"><path d="M82.91,458.5469 C75.14,496.3869 63.51,571.5369 77.5,633.2969 C86.73,674.0269 106.7958,711.7384 122.5658,737.7084 " fill="none" id="VerificarCondiciones-to-NoSePuedeCancelar" style="stroke:#181818;stroke-width:1.0;"/><polygon fill="#181818" points="125.68,742.8369,124.4277,733.068,123.0848,738.5631,117.5897,737.2203,125.68,742.8369" style="stroke:#181818;stroke-width:1.0;"/><path d="M82.5,573.2969 L82.5,628.2969 L306.5,628.2969 L306.5,583.2969 L296.5,573.2969 L82.5,573.2969 " fill="#FEFFDD" style="stroke:#181818;stroke-width:0.5;"/><path d="M296.5,573.2969 L296.5,583.2969 L306.5,583.2969 L296.5,573.2969 " fill="#FEFFDD" style="stroke:#181818;stroke-width:0.5;"/><text fill="#000000" font-family="sans-serif" font-size="13" lengthAdjust="spacing" textLength="11" x="88.5" y="590.3638">El</text><text fill="#000000" font-family="sans-serif" font-size="13" font-weight="bold" lengthAdjust="spacing" textLength="58" x="103.5" y="590.3638">sistema</text><text fill="#000000" font-family="sans-serif" font-size="13" lengthAdjust="spacing" textLength="64" x="165.5" y="590.3638">informa al</text><text fill="#000000" font-family="sans-serif" font-size="13" font-weight="bold" lengthAdjust="spacing" textLength="54" x="233.5" y="590.3638">usuario</text><text fill="#000000" font-family="sans-serif" font-size="13" lengthAdjust="spacing" textLength="4" x="287.5" y="590.3638">&#160;</text><text fill="#000000" font-family="sans-serif" font-size="13" lengthAdjust="spacing" textLength="165" x="88.5" y="605.4966">que no se puede cancelar</text><text fill="#000000" font-family="sans-serif" font-size="13" lengthAdjust="spacing" textLength="4" x="88.5" y="620.6294">&#160;</text></g><!--link VerificarCondiciones to ConfirmacionCancelar--><g id="link_VerificarCondiciones_ConfirmacionCancelar"><path d="M136.45,458.7169 C197.99,490.0569 298.7631,541.3747 360.2631,572.6847 " fill="none" id="VerificarCondiciones-to-ConfirmacionCancelar" style="stroke:#181818;stroke-width:1.0;"/><polygon fill="#181818" points="365.61,575.4069,359.4044,567.759,361.1542,573.1384,355.7748,574.8883,365.61,575.4069" style="stroke:#181818;stroke-width:1.0;"/><path d="M294.5,493.2969 L294.5,533.2969 L514.5,533.2969 L514.5,503.2969 L504.5,493.2969 L294.5,493.2969 " fill="#FEFFDD" style="stroke:#181818;stroke-width:0.5;"/><path d="M504.5,493.2969 L504.5,503.2969 L514.5,503.2969 L504.5,493.2969 " fill="#FEFFDD" style="stroke:#181818;stroke-width:0.5;"/><text fill="#000000" font-family="sans-serif" font-size="13" lengthAdjust="spacing" textLength="11" x="300.5" y="510.3638">El</text><text fill="#000000" font-family="sans-serif" font-size="13" font-weight="bold" lengthAdjust="spacing" textLength="58" x="315.5" y="510.3638">sistema</text><text fill="#000000" font-family="sans-serif" font-size="13" lengthAdjust="spacing" textLength="80" x="377.5" y="510.3638">le permite al</text><text fill="#000000" font-family="sans-serif" font-size="13" font-weight="bold" lengthAdjust="spacing" textLength="54" x="300.5" y="525.4966">usuario</text><text fill="#000000" font-family="sans-serif" font-size="13" lengthAdjust="spacing" textLength="141" x="358.5" y="525.4966">realizar la cancelaci&#243;n</text></g><!--link ConfirmacionCancelar to ReservaCancelada--><g id="link_ConfirmacionCancelar_ReservaCancelada"><path d="M407.45,626.2169 C399.68,657.5969 387.7021,705.9228 379.9521,737.2228 " fill="none" id="ConfirmacionCancelar-to-ReservaCancelada" style="stroke:#181818;stroke-width:1.0;"/><polygon fill="#181818" points="378.51,743.0469,384.5559,735.2721,379.7117,738.1934,376.7904,733.3493,378.51,743.0469" style="stroke:#181818;stroke-width:1.0;"/><path d="M402.5,668.2969 L402.5,708.2969 L633.5,708.2969 L633.5,678.2969 L623.5,668.2969 L402.5,668.2969 " fill="#FEFFDD" style="stroke:#181818;stroke-width:0.5;"/><path d="M623.5,668.2969 L623.5,678.2969 L633.5,678.2969 L623.5,668.2969 " fill="#FEFFDD" style="stroke:#181818;stroke-width:0.5;"/><text fill="#000000" font-family="sans-serif" font-size="13" lengthAdjust="spacing" textLength="11" x="408.5" y="685.3638">El</text><text fill="#000000" font-family="sans-serif" font-size="13" font-weight="bold" lengthAdjust="spacing" textLength="58" x="423.5" y="685.3638">sistema</text><text fill="#000000" font-family="sans-serif" font-size="13" lengthAdjust="spacing" textLength="71" x="485.5" y="685.3638">confirma al</text><text fill="#000000" font-family="sans-serif" font-size="13" font-weight="bold" lengthAdjust="spacing" textLength="54" x="560.5" y="685.3638">usuario</text><text fill="#000000" font-family="sans-serif" font-size="13" lengthAdjust="spacing" textLength="210" x="408.5" y="700.4966">que la reserva ha sido cancelada</text></g><!--link NoSePuedeCancelar to *end*--><g id="link_NoSePuedeCancelar_*end*"><path d="M155.98,793.4869 C177.3,829.0969 213.0466,888.8098 227.1366,912.3298 " fill="none" id="NoSePuedeCancelar-to-*end*" style="stroke:#181818;stroke-width:1.0;"/><polygon fill="#181818" points="230.22,917.4769,229.0262,907.7006,227.6505,913.1876,222.1635,911.8119,230.22,917.4769" style="stroke:#181818;stroke-width:1.0;"/></g><!--link ReservaCancelada to *end*--><g id="link_ReservaCancelada_*end*"><path d="M351.39,793.4869 C319.87,829.6069 266.0242,891.3155 246.2742,913.9555 " fill="none" id="ReservaCancelada-to-*end*" style="stroke:#181818;stroke-width:1.0;"/><polygon fill="#181818" points="242.33,918.4769,251.2606,914.3243,245.6169,914.709,245.2321,909.0653,242.33,918.4769" style="stroke:#181818;stroke-width:1.0;"/></g><!--SRC=[XPCzRiCm38LtdUBDHfEXwDGXIzerA1gWIz61a1c4g2ovafsXTygK8-HYfHmxFqwGRfOelVVnKMwaSOmvUSkE8juvSToGCP_55oQJ6PRis5e9_eM7cWyD8tWuyTy6hmv5qQQMeeIYG1hE4np181ukuQTbbFfDiBsNOLyYQnbpRT9vVt2KbLYAy-1BoNLEjzoJf8OhKlTDVmD9idrlPMM_yx1jLMkhDj-bX3gu_RRHi-dP64om2CgEccCbQZ10WXqgILL0kT_IWpO442hs8NKjQTawgKWRGMvklwiRgSAqaroUzAvWb89SBvH57v-m3b6vIWPvvPBwS7HwbjEjG3GfZMeHblpMSid7ITuFIlmgHCMco-cPhYb_Y2BBdQRrFyOCkbw9okQj0UIIOuJXJWafYJb7YKnEVhMHKNHd7BViEex-4VLx9TrbiBtAA0kJar3luG6lywCgmy2YeYSGSnr_DvNy4vanpB7q1m00]--></g></svg>