<?xml version="1.0" encoding="us-ascii" standalone="no"?><svg xmlns="http://www.w3.org/2000/svg" xmlns:xlink="http://www.w3.org/1999/xlink" contentStyleType="text/css" height="406px" preserveAspectRatio="none" style="width:228px;height:406px;background:#FFFFFF;" version="1.1" viewBox="0 0 228 406" width="228px" zoomAndPan="magnify"><defs/><g><text fill="#000000" font-family="sans-serif" font-size="14" font-weight="bold" lengthAdjust="spacing" textLength="200" x="10" y="22.9951">Ver Historial de Reservas</text><ellipse cx="102" cy="53.2969" fill="#222222" rx="10" ry="10" style="stroke:#222222;stroke-width:1.0;"/><g id="CargarHistorial"><rect fill="#F1F1F1" height="50" rx="12.5" ry="12.5" style="stroke:#181818;stroke-width:0.5;" width="119" x="42.5" y="124.2969"/><line style="stroke:#181818;stroke-width:0.5;" x1="42.5" x2="161.5" y1="150.5938" y2="150.5938"/><text fill="#000000" font-family="sans-serif" font-size="14" lengthAdjust="spacing" textLength="99" x="52.5" y="142.292">CargarHistorial</text></g><g id="MostrarHistorial"><rect fill="#F1F1F1" height="50" rx="12.5" ry="12.5" style="stroke:#181818;stroke-width:0.5;" width="126" x="39" y="251.2969"/><line style="stroke:#181818;stroke-width:0.5;" x1="39" x2="165" y1="277.5938" y2="277.5938"/><text fill="#000000" font-family="sans-serif" font-size="14" lengthAdjust="spacing" textLength="106" x="49" y="269.292">MostrarHistorial</text></g><ellipse cx="102" cy="389.2969" fill="none" rx="11" ry="11" style="stroke:#222222;stroke-width:1.0;"/><ellipse cx="102" cy="389.2969" fill="#222222" rx="6" ry="6" style="stroke:#222222;stroke-width:1.0;"/><!--link *start* to CargarHistorial--><g id="link_*start*_CargarHistorial"><path d="M102,63.6569 C102,77.5869 102,98.2469 102,117.9469 " fill="none" id="*start*-to-CargarHistorial" style="stroke:#181818;stroke-width:1.0;"/><polygon fill="#181818" points="102,123.9469,106,114.9469,102,118.9469,98,114.9469,102,123.9469" style="stroke:#181818;stroke-width:1.0;"/></g><!--link CargarHistorial to MostrarHistorial--><g id="link_CargarHistorial_MostrarHistorial"><path d="M102,174.6969 C102,196.7169 102,222.9569 102,244.9569 " fill="none" id="CargarHistorial-to-MostrarHistorial" style="stroke:#181818;stroke-width:1.0;"/><polygon fill="#181818" points="102,250.9569,106,241.9569,102,245.9569,98,241.9569,102,250.9569" style="stroke:#181818;stroke-width:1.0;"/><text fill="#000000" font-family="sans-serif" font-size="13" lengthAdjust="spacing" textLength="91" x="103" y="217.3638">Mostrar Datos</text></g><!--link MostrarHistorial to *end*--><g id="link_MostrarHistorial_*end*"><path d="M102,301.6569 C102,325.5269 102,354.7569 102,372.0069 " fill="none" id="MostrarHistorial-to-*end*" style="stroke:#181818;stroke-width:1.0;"/><polygon fill="#181818" points="102,378.0069,106,369.0069,102,373.0069,98,369.0069,102,378.0069" style="stroke:#181818;stroke-width:1.0;"/><text fill="#000000" font-family="sans-serif" font-size="13" lengthAdjust="spacing" textLength="52" x="103" y="344.3638">Finalizar</text></g><!--SRC=[AyaioKbL24ijKl38B2x9ByfCp558ILK8IYrEBIfBBERYYjQALT3LjLDmJYnAJoo2A-92uuFL-EONbnGX2rh1X1HS4aloYxam581qWMomKd3Bp4lCoQnAB080]--></g></svg>