<?xml version="1.0" encoding="us-ascii" standalone="no"?><svg xmlns="http://www.w3.org/2000/svg" xmlns:xlink="http://www.w3.org/1999/xlink" contentStyleType="text/css" height="533px" preserveAspectRatio="none" style="width:187px;height:533px;background:#FFFFFF;" version="1.1" viewBox="0 0 187 533" width="187px" zoomAndPan="magnify"><defs/><g><text fill="#000000" font-family="sans-serif" font-size="14" font-weight="bold" lengthAdjust="spacing" textLength="156" x="10" y="22.9951">Leer Bonos (Admin)</text><ellipse cx="67.5" cy="53.2969" fill="#222222" rx="10" ry="10" style="stroke:#222222;stroke-width:1.0;"/><g id="Inicio"><rect fill="#F1F1F1" height="50" rx="12.5" ry="12.5" style="stroke:#181818;stroke-width:0.5;" width="55" x="40" y="124.2969"/><line style="stroke:#181818;stroke-width:0.5;" x1="40" x2="95" y1="150.5938" y2="150.5938"/><text fill="#000000" font-family="sans-serif" font-size="14" lengthAdjust="spacing" textLength="35" x="50" y="142.292">Inicio</text></g><g id="ListaDeBonos"><rect fill="#F1F1F1" height="50" rx="12.5" ry="12.5" style="stroke:#181818;stroke-width:0.5;" width="116" x="9.5" y="251.2969"/><line style="stroke:#181818;stroke-width:0.5;" x1="9.5" x2="125.5" y1="277.5938" y2="277.5938"/><text fill="#000000" font-family="sans-serif" font-size="14" lengthAdjust="spacing" textLength="96" x="19.5" y="269.292">ListaDeBonos</text></g><g id="VerDetalle"><rect fill="#F1F1F1" height="50" rx="12.5" ry="12.5" style="stroke:#181818;stroke-width:0.5;" width="91" x="22" y="378.2969"/><line style="stroke:#181818;stroke-width:0.5;" x1="22" x2="113" y1="404.5938" y2="404.5938"/><text fill="#000000" font-family="sans-serif" font-size="14" lengthAdjust="spacing" textLength="71" x="32" y="396.292">VerDetalle</text></g><ellipse cx="67.5" cy="516.2969" fill="none" rx="11" ry="11" style="stroke:#222222;stroke-width:1.0;"/><ellipse cx="67.5" cy="516.2969" fill="#222222" rx="6" ry="6" style="stroke:#222222;stroke-width:1.0;"/><!--link *start* to Inicio--><g id="link_*start*_Inicio"><path d="M67.5,63.6569 C67.5,77.5869 67.5,98.2469 67.5,117.9469 " fill="none" id="*start*-to-Inicio" style="stroke:#181818;stroke-width:1.0;"/><polygon fill="#181818" points="67.5,123.9469,71.5,114.9469,67.5,118.9469,63.5,114.9469,67.5,123.9469" style="stroke:#181818;stroke-width:1.0;"/></g><!--link Inicio to ListaDeBonos--><g id="link_Inicio_ListaDeBonos"><path d="M67.5,174.6969 C67.5,196.7169 67.5,222.9569 67.5,244.9569 " fill="none" id="Inicio-to-ListaDeBonos" style="stroke:#181818;stroke-width:1.0;"/><polygon fill="#181818" points="67.5,250.9569,71.5,241.9569,67.5,245.9569,63.5,241.9569,67.5,250.9569" style="stroke:#181818;stroke-width:1.0;"/><text fill="#000000" font-family="sans-serif" font-size="13" lengthAdjust="spacing" textLength="87" x="68.5" y="217.3638">Cargar Bonos</text></g><!--link ListaDeBonos to VerDetalle--><g id="link_ListaDeBonos_VerDetalle"><path d="M67.5,301.6969 C67.5,323.7169 67.5,349.9569 67.5,371.9569 " fill="none" id="ListaDeBonos-to-VerDetalle" style="stroke:#181818;stroke-width:1.0;"/><polygon fill="#181818" points="67.5,377.9569,71.5,368.9569,67.5,372.9569,63.5,368.9569,67.5,377.9569" style="stroke:#181818;stroke-width:1.0;"/><text fill="#000000" font-family="sans-serif" font-size="13" lengthAdjust="spacing" textLength="111" x="68.5" y="344.3638">Seleccionar Bono</text></g><!--link VerDetalle to *end*--><g id="link_VerDetalle_*end*"><path d="M67.5,428.6569 C67.5,452.5269 67.5,481.7569 67.5,499.0069 " fill="none" id="VerDetalle-to-*end*" style="stroke:#181818;stroke-width:1.0;"/><polygon fill="#181818" points="67.5,505.0069,71.5,496.0069,67.5,500.0069,63.5,496.0069,67.5,505.0069" style="stroke:#181818;stroke-width:1.0;"/><text fill="#000000" font-family="sans-serif" font-size="13" lengthAdjust="spacing" textLength="52" x="68.5" y="471.3638">Finalizar</text></g><!--SRC=[AyaioKbLy4bDBL9moi_BBrRGS4p9pSpJvEAArefLqDMrK_3CoqpEpEU2K60HdypYaaINL8XwAmNdnABqHAXsBXGvaEAmr2ANr9B47A0jLWh1gJcfoK1Zyg3gkP1aGOf1Tbefk6Nc9UPaLYKM0G00]--></g></svg>