<?xml version="1.0" encoding="us-ascii" standalone="no"?><svg xmlns="http://www.w3.org/2000/svg" xmlns:xlink="http://www.w3.org/1999/xlink" contentStyleType="text/css" height="1107px" preserveAspectRatio="none" style="width:1311px;height:1107px;background:#FFFFFF;" version="1.1" viewBox="0 0 1311 1107" width="1311px" zoomAndPan="magnify"><defs/><g><text fill="#000000" font-family="sans-serif" font-size="14" font-weight="bold" lengthAdjust="spacing" textLength="131" x="583.25" y="22.9951">Realizar Reserva</text><ellipse cx="599" cy="53.2969" fill="#222222" rx="10" ry="10" style="stroke:#222222;stroke-width:1.0;"/><g id="Inicio"><rect fill="#F1F1F1" height="50" rx="12.5" ry="12.5" style="stroke:#181818;stroke-width:0.5;" width="55" x="571.5" y="124.2969"/><line style="stroke:#181818;stroke-width:0.5;" x1="571.5" x2="626.5" y1="150.5938" y2="150.5938"/><text fill="#000000" font-family="sans-serif" font-size="14" lengthAdjust="spacing" textLength="35" x="581.5" y="142.292">Inicio</text></g><g id="elem_GMN5"><path d="M661.5,136.7269 L661.5,145.2969 L626.75,149.2969 L661.5,153.2969 L661.5,161.8597 A0,0 0 0 0 661.5,161.8597 L1304.5,161.8597 A0,0 0 0 0 1304.5,161.8597 L1304.5,146.7269 L1294.5,136.7269 L661.5,136.7269 A0,0 0 0 0 661.5,136.7269 " fill="#FEFFDD" style="stroke:#181818;stroke-width:0.5;"/><path d="M1294.5,136.7269 L1294.5,146.7269 L1304.5,146.7269 L1294.5,136.7269 " fill="#FEFFDD" style="stroke:#181818;stroke-width:0.5;"/><text fill="#000000" font-family="sans-serif" font-size="13" lengthAdjust="spacing" textLength="622" x="667.5" y="153.7938">El usuario inicia el proceso de reserva. Solo estudiantes de la universidad pueden hacer reservas.</text></g><g id="VerificarEstudiante"><rect fill="#F1F1F1" height="50" rx="12.5" ry="12.5" style="stroke:#181818;stroke-width:0.5;" width="148" x="525" y="251.2969"/><line style="stroke:#181818;stroke-width:0.5;" x1="525" x2="673" y1="277.5938" y2="277.5938"/><text fill="#000000" font-family="sans-serif" font-size="14" lengthAdjust="spacing" textLength="128" x="535" y="269.292">VerificarEstudiante</text></g><g id="NoEsEstudiante"><rect fill="#F1F1F1" height="50" rx="12.5" ry="12.5" style="stroke:#181818;stroke-width:0.5;" width="130" x="957" y="458.2969"/><line style="stroke:#181818;stroke-width:0.5;" x1="957" x2="1087" y1="484.5938" y2="484.5938"/><text fill="#000000" font-family="sans-serif" font-size="14" lengthAdjust="spacing" textLength="110" x="967" y="476.292">NoEsEstudiante</text></g><g id="VerificarUltimaReserva"><rect fill="#F1F1F1" height="50" rx="12.5" ry="12.5" style="stroke:#181818;stroke-width:0.5;" width="172" x="90" y="378.2969"/><line style="stroke:#181818;stroke-width:0.5;" x1="90" x2="262" y1="404.5938" y2="404.5938"/><text fill="#000000" font-family="sans-serif" font-size="14" lengthAdjust="spacing" textLength="152" x="100" y="396.292">VerificarUltimaReserva</text></g><g id="elem_GMN14"><path d="M297,390.7269 L297,399.2969 L262.13,403.2969 L297,407.2969 L297,415.8597 A0,0 0 0 0 297,415.8597 L969,415.8597 A0,0 0 0 0 969,415.8597 L969,400.7269 L959,390.7269 L297,390.7269 A0,0 0 0 0 297,390.7269 " fill="#FEFFDD" style="stroke:#181818;stroke-width:0.5;"/><path d="M959,390.7269 L959,400.7269 L969,400.7269 L959,390.7269 " fill="#FEFFDD" style="stroke:#181818;stroke-width:0.5;"/><text fill="#000000" font-family="sans-serif" font-size="13" lengthAdjust="spacing" textLength="651" x="303" y="407.7938">Se verifica la fecha de la &#250;ltima reserva: no se permite reservar si la &#250;ltima fue hace menos de 7 d&#237;as.</text></g><g id="ReservaDemasiadoPronto"><rect fill="#F1F1F1" height="50" rx="12.5" ry="12.5" style="stroke:#181818;stroke-width:0.5;" width="200" x="7" y="618.2969"/><line style="stroke:#181818;stroke-width:0.5;" x1="7" x2="207" y1="644.5938" y2="644.5938"/><text fill="#000000" font-family="sans-serif" font-size="14" lengthAdjust="spacing" textLength="180" x="17" y="636.292">ReservaDemasiadoPronto</text></g><g id="SeleccionarCancha"><rect fill="#F1F1F1" height="50" rx="12.5" ry="12.5" style="stroke:#181818;stroke-width:0.5;" width="152" x="192" y="538.2969"/><line style="stroke:#181818;stroke-width:0.5;" x1="192" x2="344" y1="564.5938" y2="564.5938"/><text fill="#000000" font-family="sans-serif" font-size="14" lengthAdjust="spacing" textLength="132" x="202" y="556.292">SeleccionarCancha</text></g><g id="ElegirFechaHora"><rect fill="#F1F1F1" height="50" rx="12.5" ry="12.5" style="stroke:#181818;stroke-width:0.5;" width="132" x="205" y="698.2969"/><line style="stroke:#181818;stroke-width:0.5;" x1="205" x2="337" y1="724.5938" y2="724.5938"/><text fill="#000000" font-family="sans-serif" font-size="14" lengthAdjust="spacing" textLength="112" x="215" y="716.292">ElegirFechaHora</text></g><g id="ConfirmacionReserva"><rect fill="#F1F1F1" height="50" rx="12.5" ry="12.5" style="stroke:#181818;stroke-width:0.5;" width="166" x="190" y="825.2969"/><line style="stroke:#181818;stroke-width:0.5;" x1="190" x2="356" y1="851.5938" y2="851.5938"/><text fill="#000000" font-family="sans-serif" font-size="14" lengthAdjust="spacing" textLength="146" x="200" y="843.292">ConfirmacionReserva</text></g><g id="elem_GMN25"><path d="M391,837.7269 L391,846.2969 L356.47,850.2969 L391,854.2969 L391,862.8597 A0,0 0 0 0 391,862.8597 L969,862.8597 A0,0 0 0 0 969,862.8597 L969,847.7269 L959,837.7269 L391,837.7269 A0,0 0 0 0 391,837.7269 " fill="#FEFFDD" style="stroke:#181818;stroke-width:0.5;"/><path d="M959,837.7269 L959,847.7269 L969,847.7269 L959,837.7269 " fill="#FEFFDD" style="stroke:#181818;stroke-width:0.5;"/><text fill="#000000" font-family="sans-serif" font-size="13" lengthAdjust="spacing" textLength="557" x="397" y="854.7938">El usuario confirma los detalles de la reserva, finalizando con la validaci&#243;n de la misma.</text></g><g id="ReservaConfirmada"><rect fill="#F1F1F1" height="50" rx="12.5" ry="12.5" style="stroke:#181818;stroke-width:0.5;" width="154" x="196" y="952.2969"/><line style="stroke:#181818;stroke-width:0.5;" x1="196" x2="350" y1="978.5938" y2="978.5938"/><text fill="#000000" font-family="sans-serif" font-size="14" lengthAdjust="spacing" textLength="134" x="206" y="970.292">ReservaConfirmada</text></g><ellipse cx="273" cy="1090.2969" fill="none" rx="11" ry="11" style="stroke:#222222;stroke-width:1.0;"/><ellipse cx="273" cy="1090.2969" fill="#222222" rx="6" ry="6" style="stroke:#222222;stroke-width:1.0;"/><!--link *start* to Inicio--><g id="link_*start*_Inicio"><path d="M599,63.6569 C599,77.5869 599,98.2469 599,117.9469 " fill="none" id="*start*-to-Inicio" style="stroke:#181818;stroke-width:1.0;"/><polygon fill="#181818" points="599,123.9469,603,114.9469,599,118.9469,595,114.9469,599,123.9469" style="stroke:#181818;stroke-width:1.0;"/></g><!--link Inicio to VerificarEstudiante--><g id="link_Inicio_VerificarEstudiante"><path d="M599,174.6969 C599,196.7169 599,222.9569 599,244.9569 " fill="none" id="Inicio-to-VerificarEstudiante" style="stroke:#181818;stroke-width:1.0;"/><polygon fill="#181818" points="599,250.9569,603,241.9569,599,245.9569,595,241.9569,599,250.9569" style="stroke:#181818;stroke-width:1.0;"/><text fill="#000000" font-family="sans-serif" font-size="13" lengthAdjust="spacing" textLength="92" x="600" y="217.3638">Iniciar Proceso</text></g><!--link VerificarEstudiante to NoEsEstudiante--><g id="link_VerificarEstudiante_NoEsEstudiante"><path d="M673.09,288.1569 C772.21,304.0769 940.76,336.4569 986,378.2969 C1008.44,399.0569 1016.0883,428.5407 1019.2783,452.2007 " fill="none" id="VerificarEstudiante-to-NoEsEstudiante" style="stroke:#181818;stroke-width:1.0;"/><polygon fill="#181818" points="1020.08,458.1469,1022.8416,448.6931,1019.4119,453.1917,1014.9133,449.762,1020.08,458.1469" style="stroke:#181818;stroke-width:1.0;"/><text fill="#000000" font-family="sans-serif" font-size="13" lengthAdjust="spacing" textLength="109" x="927" y="344.3638">No Es Estudiante</text></g><!--link VerificarEstudiante to VerificarUltimaReserva--><g id="link_VerificarEstudiante_VerificarUltimaReserva"><path d="M524.83,299.2169 C450.44,321.1969 341.8439,353.2862 264.5339,376.1362 " fill="none" id="VerificarEstudiante-to-VerificarUltimaReserva" style="stroke:#181818;stroke-width:1.0;"/><polygon fill="#181818" points="258.78,377.8369,268.5447,379.1219,263.5749,376.4197,266.2771,371.4499,258.78,377.8369" style="stroke:#181818;stroke-width:1.0;"/><text fill="#000000" font-family="sans-serif" font-size="13" lengthAdjust="spacing" textLength="87" x="414" y="344.3638">Es Estudiante</text></g><!--link VerificarUltimaReserva to ReservaDemasiadoPronto--><g id="link_VerificarUltimaReserva_ReservaDemasiadoPronto"><path d="M137.3,428.7769 C127.64,436.9169 118.48,446.8669 113,458.2969 C87.9,510.5969 94.3377,575.3181 100.8077,611.9981 " fill="none" id="VerificarUltimaReserva-to-ReservaDemasiadoPronto" style="stroke:#181818;stroke-width:1.0;"/><polygon fill="#181818" points="101.85,617.9069,104.2258,608.3489,100.9815,612.9829,96.3474,609.7385,101.85,617.9069" style="stroke:#181818;stroke-width:1.0;"/><text fill="#000000" font-family="sans-serif" font-size="13" lengthAdjust="spacing" textLength="106" x="114" y="487.8638">Menos de 7 D&#237;as</text></g><!--link VerificarUltimaReserva to SeleccionarCancha--><g id="link_VerificarUltimaReserva_SeleccionarCancha"><path d="M204.29,428.7469 C213.07,437.4069 222.22,447.6669 229,458.2969 C244.96,483.3369 254.2168,510.1078 260.3468,532.0678 " fill="none" id="VerificarUltimaReserva-to-SeleccionarCancha" style="stroke:#181818;stroke-width:1.0;"/><polygon fill="#181818" points="261.96,537.8469,263.3929,528.1028,260.6157,533.031,255.6875,530.2537,261.96,537.8469" style="stroke:#181818;stroke-width:1.0;"/><text fill="#000000" font-family="sans-serif" font-size="13" lengthAdjust="spacing" textLength="114" x="254" y="487.8638">Tiempo Suficiente</text></g><!--link SeleccionarCancha to ElegirFechaHora--><g id="link_SeleccionarCancha_ElegirFechaHora"><path d="M268.46,588.6369 C269.03,618.3269 269.8549,662.228 270.4249,691.928 " fill="none" id="SeleccionarCancha-to-ElegirFechaHora" style="stroke:#181818;stroke-width:1.0;"/><polygon fill="#181818" points="270.54,697.9269,274.3666,688.8518,270.4441,692.9278,266.368,689.0053,270.54,697.9269" style="stroke:#181818;stroke-width:1.0;"/><text fill="#000000" font-family="sans-serif" font-size="13" lengthAdjust="spacing" textLength="143" x="271" y="647.8638">Escoger Disponibilidad</text></g><!--link ElegirFechaHora to ConfirmacionReserva--><g id="link_ElegirFechaHora_ConfirmacionReserva"><path d="M271.39,748.6969 C271.74,770.7169 272.1646,796.9576 272.5146,818.9576 " fill="none" id="ElegirFechaHora-to-ConfirmacionReserva" style="stroke:#181818;stroke-width:1.0;"/><polygon fill="#181818" points="272.61,824.9569,276.4663,815.8944,272.5305,819.9575,268.4673,816.0216,272.61,824.9569" style="stroke:#181818;stroke-width:1.0;"/><text fill="#000000" font-family="sans-serif" font-size="13" lengthAdjust="spacing" textLength="105" x="274" y="791.3638">Confirmar Datos</text></g><!--link ConfirmacionReserva to ReservaConfirmada--><g id="link_ConfirmacionReserva_ReservaConfirmada"><path d="M273,875.6969 C273,897.7169 273,923.9569 273,945.9569 " fill="none" id="ConfirmacionReserva-to-ReservaConfirmada" style="stroke:#181818;stroke-width:1.0;"/><polygon fill="#181818" points="273,951.9569,277,942.9569,273,946.9569,269,942.9569,273,951.9569" style="stroke:#181818;stroke-width:1.0;"/><text fill="#000000" font-family="sans-serif" font-size="13" lengthAdjust="spacing" textLength="44" x="274" y="918.3638">Validar</text></g><!--link ReservaConfirmada to *end*--><g id="link_ReservaConfirmada_*end*"><path d="M273,1002.6569 C273,1026.5269 273,1055.7569 273,1073.0069 " fill="none" id="ReservaConfirmada-to-*end*" style="stroke:#181818;stroke-width:1.0;"/><polygon fill="#181818" points="273,1079.0069,277,1070.0069,273,1074.0069,269,1070.0069,273,1079.0069" style="stroke:#181818;stroke-width:1.0;"/><text fill="#000000" font-family="sans-serif" font-size="13" lengthAdjust="spacing" textLength="52" x="274" y="1045.3638">Finalizar</text></g><!--link NoEsEstudiante to *end*--><g id="link_NoEsEstudiante_*end*"><path d="M1022,508.6569 C1022,539.6869 1022,594.9769 1022,642.2969 C1022,642.2969 1022,642.2969 1022,978.2969 C1022,1056.3469 383.3351,1084.8756 290.1651,1088.6256 " fill="none" id="NoEsEstudiante-to-*end*" style="stroke:#181818;stroke-width:1.0;"/><polygon fill="#181818" points="284.17,1088.8669,293.3236,1092.5017,289.166,1088.6658,293.0019,1084.5082,284.17,1088.8669" style="stroke:#181818;stroke-width:1.0;"/><text fill="#000000" font-family="sans-serif" font-size="13" lengthAdjust="spacing" textLength="52" x="1023" y="791.3638">Finalizar</text></g><!--link ReservaDemasiadoPronto to *end*--><g id="link_ReservaDemasiadoPronto_*end*"><path d="M105.34,668.5669 C103.57,696.7469 101,744.6169 101,785.7969 C101,785.7969 101,785.7969 101,978.2969 C101,1055.2369 218.0997,1080.4521 256.0597,1086.7021 " fill="none" id="ReservaDemasiadoPronto-to-*end*" style="stroke:#181818;stroke-width:1.0;"/><polygon fill="#181818" points="261.98,1087.6769,253.7494,1082.2679,257.0464,1086.8646,252.4497,1090.1616,261.98,1087.6769" style="stroke:#181818;stroke-width:1.0;"/><text fill="#000000" font-family="sans-serif" font-size="13" lengthAdjust="spacing" textLength="52" x="102" y="854.8638">Finalizar</text></g><!--SRC=[VLCzRnin3DtrApWNITO27hB45xH3Ww9kiXGTM8bd4z291qddeVyfKxQi_cCLxyFsEUTk1_AzT-HxLERi2NuGUlwBiNmaYdiqvjUdtt1xUmzV0riM4oGJHDxkCaWz5Q7oqAKE8mkmbX38Gnl5KX9mXJ2etS56l02bt3d6a2bfqoDqWVSK4pjqq7RaAC0EBSM9cEuC1GVwSsE6d_P3lL3acYt6wYW9gs6giiFtOG2pX5BsarHfHdmIg1ASIbUPn_gppzpWQ5PHcDFdPYsJ36m8zcDBlQZ9xd3qvV3UGoSRLiK1I0GjnORpqTO8YS_HTKUzVT1GaDxYp-0EhtCNhwoWsutVQsemCJefFeOiPRjl9xsrwlrFP4EURCafO7p0e2kju2TJqmfiki9XKeS-efHRUTfoV5GZlaWSVBMoBVUmvjHAu3_izLQCkKGg-q52pR51bJqbCrMB1cP95zaiS6PNRSS- -Dw0ZDuVZtTCuGPg3lth2QudQ6-FEgZbmriOqGsd1i-3M1htB8MfxNI9brukceyzPUXJNS7ZE4Kq5_Uz1BaIzGBq7m00]--></g></svg>