<svg xmlns="http://www.w3.org/2000/svg" xmlns:xlink="http://www.w3.org/1999/xlink" contentStyleType="text/css" height="967px" preserveAspectRatio="none" style="width:513px;height:967px;background:#FFFFFF;" version="1.1" viewBox="0 0 513 967" width="513px" zoomAndPan="magnify"><defs/><g><text fill="#000000" font-family="sans-serif" font-size="14" font-weight="bold" lengthAdjust="spacing" textLength="131" x="184" y="22.9951">Realizar Reserva</text><ellipse cx="93" cy="53.2969" fill="#222222" rx="10" ry="10" style="stroke:#222222;stroke-width:1.0;"/><g id="VerificarUltimaReserva"><rect fill="#F1F1F1" height="50" rx="12.5" ry="12.5" style="stroke:#181818;stroke-width:0.5;" width="172" x="7" y="188.2969"/><line style="stroke:#181818;stroke-width:0.5;" x1="7" x2="179" y1="214.5938" y2="214.5938"/><text fill="#000000" font-family="sans-serif" font-size="14" lengthAdjust="spacing" textLength="152" x="17" y="206.292">VerificarUltimaReserva</text></g><g id="SeleccionarPista"><rect fill="#F1F1F1" height="50" rx="12.5" ry="12.5" style="stroke:#181818;stroke-width:0.5;" width="133" x="120.5" y="333.2969"/><line style="stroke:#181818;stroke-width:0.5;" x1="120.5" x2="253.5" y1="359.5938" y2="359.5938"/><text fill="#000000" font-family="sans-serif" font-size="14" lengthAdjust="spacing" textLength="113" x="130.5" y="351.292">SeleccionarPista</text></g><g id="ElegirFechaHora"><rect fill="#F1F1F1" height="50" rx="12.5" ry="12.5" style="stroke:#181818;stroke-width:0.5;" width="132" x="130" y="478.2969"/><line style="stroke:#181818;stroke-width:0.5;" x1="130" x2="262" y1="504.5938" y2="504.5938"/><text fill="#000000" font-family="sans-serif" font-size="14" lengthAdjust="spacing" textLength="112" x="140" y="496.292">ElegirFechaHora</text></g><g id="ConfirmacionReserva"><rect fill="#F1F1F1" height="50" rx="12.5" ry="12.5" style="stroke:#181818;stroke-width:0.5;" width="166" x="117" y="668.2969"/><line style="stroke:#181818;stroke-width:0.5;" x1="117" x2="283" y1="694.5938" y2="694.5938"/><text fill="#000000" font-family="sans-serif" font-size="14" lengthAdjust="spacing" textLength="146" x="127" y="686.292">ConfirmacionReserva</text></g><g id="ReservaConfirmada"><rect fill="#F1F1F1" height="50" rx="12.5" ry="12.5" style="stroke:#181818;stroke-width:0.5;" width="154" x="120" y="828.2969"/><line style="stroke:#181818;stroke-width:0.5;" x1="120" x2="274" y1="854.5938" y2="854.5938"/><text fill="#000000" font-family="sans-serif" font-size="14" lengthAdjust="spacing" textLength="134" x="130" y="846.292">ReservaConfirmada</text></g><ellipse cx="84" cy="950.2969" fill="none" rx="11" ry="11" style="stroke:#222222;stroke-width:1.0;"/><ellipse cx="84" cy="950.2969" fill="#222222" rx="6" ry="6" style="stroke:#222222;stroke-width:1.0;"/><!--link *start* to VerificarUltimaReserva--><g id="link_*start*_VerificarUltimaReserva"><path d="M93,63.7069 C93,87.8269 93,146.4369 93,181.9969 " fill="none" id="*start*-to-VerificarUltimaReserva" style="stroke:#181818;stroke-width:1.0;"/><polygon fill="#181818" points="93,187.9969,97,178.9969,93,182.9969,89,178.9969,93,187.9969" style="stroke:#181818;stroke-width:1.0;"/><path d="M98,98.2969 L98,153.2969 L318,153.2969 L318,108.2969 L308,98.2969 L98,98.2969 " fill="#FEFFDD" style="stroke:#181818;stroke-width:0.5;"/><path d="M308,98.2969 L308,108.2969 L318,108.2969 L308,98.2969 " fill="#FEFFDD" style="stroke:#181818;stroke-width:0.5;"/><text fill="#000000" font-family="sans-serif" font-size="13" lengthAdjust="spacing" textLength="11" x="104" y="115.3638">El</text><text fill="#000000" font-family="sans-serif" font-size="13" font-weight="bold" lengthAdjust="spacing" textLength="58" x="119" y="115.3638">sistema</text><text fill="#000000" font-family="sans-serif" font-size="13" lengthAdjust="spacing" textLength="88" x="181" y="115.3638">verifica que el</text><text fill="#000000" font-family="sans-serif" font-size="13" font-weight="bold" lengthAdjust="spacing" textLength="54" x="104" y="130.4966">usuario</text><text fill="#000000" font-family="sans-serif" font-size="13" lengthAdjust="spacing" textLength="87" x="162" y="130.4966">no tengo otra</text><text fill="#000000" font-family="sans-serif" font-size="13" lengthAdjust="spacing" textLength="199" x="104" y="145.6294">reserva en los pr&#243;ximos 7 d&#237;as.</text></g><!--link VerificarUltimaReserva to SeleccionarPista--><g id="link_VerificarUltimaReserva_SeleccionarPista"><path d="M108.95,238.5569 C126.23,264.8469 150.3635,301.5636 167.6835,327.9036 " fill="none" id="VerificarUltimaReserva-to-SeleccionarPista" style="stroke:#181818;stroke-width:1.0;"/><polygon fill="#181818" points="170.98,332.9169,169.3774,323.1993,168.2329,328.7391,162.693,327.5946,170.98,332.9169" style="stroke:#181818;stroke-width:1.0;"/><path d="M156,273.2969 L156,298.2969 L466,298.2969 L466,283.2969 L456,273.2969 L156,273.2969 " fill="#FEFFDD" style="stroke:#181818;stroke-width:0.5;"/><path d="M456,273.2969 L456,283.2969 L466,283.2969 L456,273.2969 " fill="#FEFFDD" style="stroke:#181818;stroke-width:0.5;"/><text fill="#000000" font-family="sans-serif" font-size="13" lengthAdjust="spacing" textLength="11" x="162" y="290.3638">El</text><text fill="#000000" font-family="sans-serif" font-size="13" font-weight="bold" lengthAdjust="spacing" textLength="58" x="177" y="290.3638">sistema</text><text fill="#000000" font-family="sans-serif" font-size="13" lengthAdjust="spacing" textLength="212" x="239" y="290.3638">muestra las canchas disponibles.</text></g><!--link SeleccionarPista to ElegirFechaHora--><g id="link_SeleccionarPista_ElegirFechaHora"><path d="M188.53,383.5569 C190.18,409.8469 192.4326,445.5888 194.0926,471.9288 " fill="none" id="SeleccionarPista-to-ElegirFechaHora" style="stroke:#181818;stroke-width:1.0;"/><polygon fill="#181818" points="194.47,477.9169,197.896,468.6831,194.1555,472.9268,189.9118,469.1863,194.47,477.9169" style="stroke:#181818;stroke-width:1.0;"/><path d="M197,418.2969 L197,443.2969 L506,443.2969 L506,428.2969 L496,418.2969 L197,418.2969 " fill="#FEFFDD" style="stroke:#181818;stroke-width:0.5;"/><path d="M496,418.2969 L496,428.2969 L506,428.2969 L496,418.2969 " fill="#FEFFDD" style="stroke:#181818;stroke-width:0.5;"/><text fill="#000000" font-family="sans-serif" font-size="13" lengthAdjust="spacing" textLength="11" x="203" y="435.3638">El</text><text fill="#000000" font-family="sans-serif" font-size="13" font-weight="bold" lengthAdjust="spacing" textLength="58" x="218" y="435.3638">sistema</text><text fill="#000000" font-family="sans-serif" font-size="13" lengthAdjust="spacing" textLength="211" x="280" y="435.3638">muestra los horarios disponibles.</text></g><!--link ElegirFechaHora to ConfirmacionReserva--><g id="link_ElegirFechaHora_ConfirmacionReserva"><path d="M196.51,528.4869 C197.28,564.4869 198.5821,625.7782 199.3521,661.8982 " fill="none" id="ElegirFechaHora-to-ConfirmacionReserva" style="stroke:#181818;stroke-width:1.0;"/><polygon fill="#181818" points="199.48,667.8969,203.2873,658.8137,199.3734,662.898,195.2891,658.9842,199.48,667.8969" style="stroke:#181818;stroke-width:1.0;"/><path d="M203,563.2969 L203,633.2969 L453,633.2969 L453,573.2969 L443,563.2969 L203,563.2969 " fill="#FEFFDD" style="stroke:#181818;stroke-width:0.5;"/><path d="M443,563.2969 L443,573.2969 L453,573.2969 L443,563.2969 " fill="#FEFFDD" style="stroke:#181818;stroke-width:0.5;"/><text fill="#000000" font-family="sans-serif" font-size="13" lengthAdjust="spacing" textLength="11" x="209" y="580.3638">El</text><text fill="#000000" font-family="sans-serif" font-size="13" font-weight="bold" lengthAdjust="spacing" textLength="54" x="224" y="580.3638">usuario</text><text fill="#000000" font-family="sans-serif" font-size="13" lengthAdjust="spacing" textLength="132" x="282" y="580.3638">confirma los detalles</text><text fill="#000000" font-family="sans-serif" font-size="13" lengthAdjust="spacing" textLength="109" x="209" y="595.4966">de la reserva y el</text><text fill="#000000" font-family="sans-serif" font-size="13" font-weight="bold" lengthAdjust="spacing" textLength="58" x="322" y="595.4966">sistema</text><text fill="#000000" font-family="sans-serif" font-size="13" lengthAdjust="spacing" textLength="45" x="384" y="595.4966">verifica</text><text fill="#000000" font-family="sans-serif" font-size="13" lengthAdjust="spacing" textLength="225" x="209" y="610.6294">la disponibilidad de la cancha y que</text><text fill="#000000" font-family="sans-serif" font-size="13" lengthAdjust="spacing" textLength="201" x="209" y="625.7622">todos los datos sean correctos.</text></g><!--link ConfirmacionReserva to ReservaConfirmada--><g id="link_ConfirmacionReserva_ReservaConfirmada"><path d="M199.54,718.6369 C198.97,748.3269 198.1451,792.228 197.5751,821.928 " fill="none" id="ConfirmacionReserva-to-ReservaConfirmada" style="stroke:#181818;stroke-width:1.0;"/><polygon fill="#181818" points="197.46,827.9269,201.632,819.0053,197.5559,822.9278,193.6334,818.8518,197.46,827.9269" style="stroke:#181818;stroke-width:1.0;"/><path d="M203,753.2969 L203,793.2969 L376,793.2969 L376,763.2969 L366,753.2969 L203,753.2969 " fill="#FEFFDD" style="stroke:#181818;stroke-width:0.5;"/><path d="M366,753.2969 L366,763.2969 L376,763.2969 L366,753.2969 " fill="#FEFFDD" style="stroke:#181818;stroke-width:0.5;"/><text fill="#000000" font-family="sans-serif" font-size="13" lengthAdjust="spacing" textLength="11" x="209" y="770.3638">El</text><text fill="#000000" font-family="sans-serif" font-size="13" font-weight="bold" lengthAdjust="spacing" textLength="58" x="224" y="770.3638">sistema</text><text fill="#000000" font-family="sans-serif" font-size="13" lengthAdjust="spacing" textLength="71" x="286" y="770.3638">confirma la</text><text fill="#000000" font-family="sans-serif" font-size="13" lengthAdjust="spacing" textLength="63" x="209" y="785.4966">reserva al</text><text fill="#000000" font-family="sans-serif" font-size="13" font-weight="bold" lengthAdjust="spacing" textLength="54" x="276" y="785.4966">usuario</text><text fill="#000000" font-family="sans-serif" font-size="13" lengthAdjust="spacing" textLength="4" x="330" y="785.4966">.</text></g><!--link ReservaConfirmada to *end*--><g id="link_ReservaConfirmada_*end*"><path d="M167.9,878.7569 C142.53,900.0969 112.0211,925.734 96.5111,938.784 " fill="none" id="ReservaConfirmada-to-*end*" style="stroke:#181818;stroke-width:1.0;"/><polygon fill="#181818" points="91.92,942.6469,101.3819,939.9132,95.7459,939.4278,96.2314,933.7918,91.92,942.6469" style="stroke:#181818;stroke-width:1.0;"/></g><!--link VerificarUltimaReserva to *end*--><g id="link_VerificarUltimaReserva_*end*"><path d="M84.92,238.7869 C76.34,267.0269 64,314.9969 64,357.2969 C64,357.2969 64,357.2969 64,854.2969 C64,885.9869 72.8827,916.6781 78.6127,933.7681 " fill="none" id="VerificarUltimaReserva-to-*end*" style="stroke:#FF0000;stroke-width:1.0;"/><polygon fill="#FF0000" points="80.52,939.4569,81.4515,929.6522,78.9305,934.7162,73.8665,932.1953,80.52,939.4569" style="stroke:#FF0000;stroke-width:1.0;"/></g><!--SRC=[ZPAzJWCn3CVtF8KbjaXbPMD1HOm814lLmIHkQv5BYfEhW7TYuX7wOlZIE_KeRSLovyWVlxy_2fT0y40O-1D5ZKooGMDcTWwJoJKya_227SfJADpWu8-f4AG8WUEhcGQmDdCkrA2riEbJuAqbe036sZQtA9pK6HCKYii4gGY2aLqz82sLCgnb-_tEZLfNuBTVc2yDHGyTpPZZKghAHmha7AU8SgywpkjhMieTF606Xz6jzEyvhrFabq1Zv67Pofe6MhBSakRT9VadIZjQQR3Eu1Jhe6n5tQIuO6cmat1qyb1v- -cwFg42FHKC2W6ZfdOBmx0_kgqSsvZfeWPv7DYZxrDtSzBCRgS6Il8Ag10i-is4KU4YvFGvNjgH5cfhlJsu_VavxliQtGp-wdq4_LEx4lMYJvxGx4B8pslC3m00]--></g></svg>