<?xml version="1.0" encoding="us-ascii" standalone="no"?><svg xmlns="http://www.w3.org/2000/svg" xmlns:xlink="http://www.w3.org/1999/xlink" contentStyleType="text/css" height="1107px" preserveAspectRatio="none" style="width:495px;height:1107px;background:#FFFFFF;" version="1.1" viewBox="0 0 495 1107" width="495px" zoomAndPan="magnify"><defs/><g><text fill="#000000" font-family="sans-serif" font-size="14" font-weight="bold" lengthAdjust="spacing" textLength="131" x="175" y="22.9951">Realizar Reserva</text><ellipse cx="147" cy="53.2969" fill="#222222" rx="10" ry="10" style="stroke:#222222;stroke-width:1.0;"/><g id="Inicio"><rect fill="#F1F1F1" height="50" rx="12.5" ry="12.5" style="stroke:#181818;stroke-width:0.5;" width="55" x="119.5" y="124.2969"/><line style="stroke:#181818;stroke-width:0.5;" x1="119.5" x2="174.5" y1="150.5938" y2="150.5938"/><text fill="#000000" font-family="sans-serif" font-size="14" lengthAdjust="spacing" textLength="35" x="129.5" y="142.292">Inicio</text></g><g id="VerificarEstudiante"><rect fill="#F1F1F1" height="50" rx="12.5" ry="12.5" style="stroke:#181818;stroke-width:0.5;" width="148" x="73" y="251.2969"/><line style="stroke:#181818;stroke-width:0.5;" x1="73" x2="221" y1="277.5938" y2="277.5938"/><text fill="#000000" font-family="sans-serif" font-size="14" lengthAdjust="spacing" textLength="128" x="83" y="269.292">VerificarEstudiante</text></g><g id="NoEsEstudiante"><rect fill="#F1F1F1" height="50" rx="12.5" ry="12.5" style="stroke:#181818;stroke-width:0.5;" width="130" x="7" y="458.2969"/><line style="stroke:#181818;stroke-width:0.5;" x1="7" x2="137" y1="484.5938" y2="484.5938"/><text fill="#000000" font-family="sans-serif" font-size="14" lengthAdjust="spacing" textLength="110" x="17" y="476.292">NoEsEstudiante</text></g><g id="VerificarUltimaReserva"><rect fill="#F1F1F1" height="50" rx="12.5" ry="12.5" style="stroke:#181818;stroke-width:0.5;" width="172" x="137" y="378.2969"/><line style="stroke:#181818;stroke-width:0.5;" x1="137" x2="309" y1="404.5938" y2="404.5938"/><text fill="#000000" font-family="sans-serif" font-size="14" lengthAdjust="spacing" textLength="152" x="147" y="396.292">VerificarUltimaReserva</text></g><g id="ReservaDemasiadoPronto"><rect fill="#F1F1F1" height="50" rx="12.5" ry="12.5" style="stroke:#181818;stroke-width:0.5;" width="200" x="95" y="618.2969"/><line style="stroke:#181818;stroke-width:0.5;" x1="95" x2="295" y1="644.5938" y2="644.5938"/><text fill="#000000" font-family="sans-serif" font-size="14" lengthAdjust="spacing" textLength="180" x="105" y="636.292">ReservaDemasiadoPronto</text></g><g id="SeleccionarCancha"><rect fill="#F1F1F1" height="50" rx="12.5" ry="12.5" style="stroke:#181818;stroke-width:0.5;" width="152" x="267" y="538.2969"/><line style="stroke:#181818;stroke-width:0.5;" x1="267" x2="419" y1="564.5938" y2="564.5938"/><text fill="#000000" font-family="sans-serif" font-size="14" lengthAdjust="spacing" textLength="132" x="277" y="556.292">SeleccionarCancha</text></g><g id="ElegirFechaHora"><rect fill="#F1F1F1" height="50" rx="12.5" ry="12.5" style="stroke:#181818;stroke-width:0.5;" width="132" x="277" y="698.2969"/><line style="stroke:#181818;stroke-width:0.5;" x1="277" x2="409" y1="724.5938" y2="724.5938"/><text fill="#000000" font-family="sans-serif" font-size="14" lengthAdjust="spacing" textLength="112" x="287" y="716.292">ElegirFechaHora</text></g><g id="ConfirmacionReserva"><rect fill="#F1F1F1" height="50" rx="12.5" ry="12.5" style="stroke:#181818;stroke-width:0.5;" width="166" x="260" y="825.2969"/><line style="stroke:#181818;stroke-width:0.5;" x1="260" x2="426" y1="851.5938" y2="851.5938"/><text fill="#000000" font-family="sans-serif" font-size="14" lengthAdjust="spacing" textLength="146" x="270" y="843.292">ConfirmacionReserva</text></g><g id="ReservaConfirmada"><rect fill="#F1F1F1" height="50" rx="12.5" ry="12.5" style="stroke:#181818;stroke-width:0.5;" width="154" x="245" y="952.2969"/><line style="stroke:#181818;stroke-width:0.5;" x1="245" x2="399" y1="978.5938" y2="978.5938"/><text fill="#000000" font-family="sans-serif" font-size="14" lengthAdjust="spacing" textLength="134" x="255" y="970.292">ReservaConfirmada</text></g><ellipse cx="171" cy="1090.2969" fill="none" rx="11" ry="11" style="stroke:#222222;stroke-width:1.0;"/><ellipse cx="171" cy="1090.2969" fill="#222222" rx="6" ry="6" style="stroke:#222222;stroke-width:1.0;"/><!--link *start* to Inicio--><g id="link_*start*_Inicio"><path d="M147,63.6569 C147,77.5869 147,98.2469 147,117.9469 " fill="none" id="*start*-to-Inicio" style="stroke:#181818;stroke-width:1.0;"/><polygon fill="#181818" points="147,123.9469,151,114.9469,147,118.9469,143,114.9469,147,123.9469" style="stroke:#181818;stroke-width:1.0;"/></g><!--link Inicio to VerificarEstudiante--><g id="link_Inicio_VerificarEstudiante"><path d="M147,174.6969 C147,196.7169 147,222.9569 147,244.9569 " fill="none" id="Inicio-to-VerificarEstudiante" style="stroke:#181818;stroke-width:1.0;"/><polygon fill="#181818" points="147,250.9569,151,241.9569,147,245.9569,143,241.9569,147,250.9569" style="stroke:#181818;stroke-width:1.0;"/><text fill="#000000" font-family="sans-serif" font-size="13" lengthAdjust="spacing" textLength="92" x="148" y="217.3638">Iniciar Proceso</text></g><!--link VerificarEstudiante to NoEsEstudiante--><g id="link_VerificarEstudiante_NoEsEstudiante"><path d="M93.19,301.7469 C81.9,309.5169 71.47,319.2969 65,331.2969 C43.4,371.3769 52.5892,420.733 61.8592,452.093 " fill="none" id="VerificarEstudiante-to-NoEsEstudiante" style="stroke:#181818;stroke-width:1.0;"/><polygon fill="#181818" points="63.56,457.8469,64.8447,448.0822,62.1426,453.052,57.1728,450.35,63.56,457.8469" style="stroke:#181818;stroke-width:1.0;"/><text fill="#000000" font-family="sans-serif" font-size="13" lengthAdjust="spacing" textLength="109" x="66" y="344.3638">No Es Estudiante</text></g><!--link VerificarEstudiante to VerificarUltimaReserva--><g id="link_VerificarEstudiante_VerificarUltimaReserva"><path d="M164.47,301.6869 C170.82,310.8469 177.93,321.4269 184,331.2969 C193.36,346.5069 200.213,358.8093 207.583,372.6693 " fill="none" id="VerificarEstudiante-to-VerificarUltimaReserva" style="stroke:#181818;stroke-width:1.0;"/><polygon fill="#181818" points="210.4,377.9669,209.7063,368.1425,208.0525,373.5522,202.6428,371.8985,210.4,377.9669" style="stroke:#181818;stroke-width:1.0;"/><text fill="#000000" font-family="sans-serif" font-size="13" lengthAdjust="spacing" textLength="87" x="194" y="344.3638">Es Estudiante</text></g><!--link VerificarUltimaReserva to ReservaDemasiadoPronto--><g id="link_VerificarUltimaReserva_ReservaDemasiadoPronto"><path d="M203.01,428.6169 C196.96,437.4269 191.1,447.7969 188,458.2969 C171.68,513.4769 180.552,576.1518 187.982,611.9918 " fill="none" id="VerificarUltimaReserva-to-ReservaDemasiadoPronto" style="stroke:#181818;stroke-width:1.0;"/><polygon fill="#181818" points="189.2,617.8669,191.2898,608.2423,188.185,612.971,183.4563,609.8662,189.2,617.8669" style="stroke:#181818;stroke-width:1.0;"/><text fill="#000000" font-family="sans-serif" font-size="13" lengthAdjust="spacing" textLength="106" x="189" y="487.8638">Menos de 7 D&#237;as</text></g><!--link VerificarUltimaReserva to SeleccionarCancha--><g id="link_VerificarUltimaReserva_SeleccionarCancha"><path d="M270.34,428.7669 C282.58,436.8569 294.86,446.7769 304,458.2969 C322.7,481.8569 331.7246,509.4843 336.9946,532.0343 " fill="none" id="VerificarUltimaReserva-to-SeleccionarCancha" style="stroke:#181818;stroke-width:1.0;"/><polygon fill="#181818" points="338.36,537.8769,340.2069,528.2027,337.2221,533.0081,332.4168,530.0233,338.36,537.8769" style="stroke:#181818;stroke-width:1.0;"/><text fill="#000000" font-family="sans-serif" font-size="13" lengthAdjust="spacing" textLength="114" x="330" y="487.8638">Tiempo Suficiente</text></g><!--link SeleccionarCancha to ElegirFechaHora--><g id="link_SeleccionarCancha_ElegirFechaHora"><path d="M343,588.6369 C343,618.3269 343,662.2269 343,691.9269 " fill="none" id="SeleccionarCancha-to-ElegirFechaHora" style="stroke:#181818;stroke-width:1.0;"/><polygon fill="#181818" points="343,697.9269,347,688.9269,343,692.9269,339,688.9269,343,697.9269" style="stroke:#181818;stroke-width:1.0;"/><text fill="#000000" font-family="sans-serif" font-size="13" lengthAdjust="spacing" textLength="143" x="344" y="647.8638">Escoger Disponibilidad</text></g><!--link ElegirFechaHora to ConfirmacionReserva--><g id="link_ElegirFechaHora_ConfirmacionReserva"><path d="M343,748.6969 C343,770.7169 343,796.9569 343,818.9569 " fill="none" id="ElegirFechaHora-to-ConfirmacionReserva" style="stroke:#181818;stroke-width:1.0;"/><polygon fill="#181818" points="343,824.9569,347,815.9569,343,819.9569,339,815.9569,343,824.9569" style="stroke:#181818;stroke-width:1.0;"/><text fill="#000000" font-family="sans-serif" font-size="13" lengthAdjust="spacing" textLength="105" x="344" y="791.3638">Confirmar Datos</text></g><!--link ConfirmacionReserva to ReservaConfirmada--><g id="link_ConfirmacionReserva_ReservaConfirmada"><path d="M338.9,875.6969 C335.2,897.7169 330.7851,924.04 327.0851,946.04 " fill="none" id="ConfirmacionReserva-to-ReservaConfirmada" style="stroke:#181818;stroke-width:1.0;"/><polygon fill="#181818" points="326.09,951.9569,331.5273,943.7449,326.9193,947.0261,323.6381,942.4181,326.09,951.9569" style="stroke:#181818;stroke-width:1.0;"/><text fill="#000000" font-family="sans-serif" font-size="13" lengthAdjust="spacing" textLength="44" x="334" y="918.3638">Validar</text></g><!--link ReservaConfirmada to *end*--><g id="link_ReservaConfirmada_*end*"><path d="M288.86,1002.6569 C253.62,1028.5669 204.9949,1064.3139 184.3649,1079.4739 " fill="none" id="ReservaConfirmada-to-*end*" style="stroke:#181818;stroke-width:1.0;"/><polygon fill="#181818" points="179.53,1083.0269,189.151,1080.9207,183.5591,1080.0661,184.4138,1074.4742,179.53,1083.0269" style="stroke:#181818;stroke-width:1.0;"/><text fill="#000000" font-family="sans-serif" font-size="13" lengthAdjust="spacing" textLength="52" x="247" y="1045.3638">Finalizar</text></g><!--link NoEsEstudiante to *end*--><g id="link_NoEsEstudiante_*end*"><path d="M72,508.6569 C72,539.6869 72,594.9769 72,642.2969 C72,642.2969 72,642.2969 72,978.2969 C72,1031.7469 131.4336,1068.5177 156.2136,1081.7077 " fill="none" id="NoEsEstudiante-to-*end*" style="stroke:#181818;stroke-width:1.0;"/><polygon fill="#181818" points="161.51,1084.5269,155.4448,1076.7671,157.0963,1082.1775,151.6859,1083.829,161.51,1084.5269" style="stroke:#181818;stroke-width:1.0;"/><text fill="#000000" font-family="sans-serif" font-size="13" lengthAdjust="spacing" textLength="52" x="73" y="791.3638">Finalizar</text></g><!--link ReservaDemasiadoPronto to *end*--><g id="link_ReservaDemasiadoPronto_*end*"><path d="M188.31,668.6269 C181.21,696.6469 171,744.1869 171,785.7969 C171,785.7969 171,785.7969 171,978.2969 C171,1015.2969 171,1053.2369 171,1072.8869 " fill="none" id="ReservaDemasiadoPronto-to-*end*" style="stroke:#181818;stroke-width:1.0;"/><polygon fill="#181818" points="171,1078.8869,175,1069.8869,171,1073.8869,167,1069.8869,171,1078.8869" style="stroke:#181818;stroke-width:1.0;"/><text fill="#000000" font-family="sans-serif" font-size="13" lengthAdjust="spacing" textLength="52" x="172" y="854.8638">Finalizar</text></g><!--SRC=[VP8zJWCn48Lxds9gfDH8AMYo6q515158WoW6Un96ydgYiKF1dJW55yF39eGa6ogFn-zxVlufN2B10s7a3zHQPD9tTExvwWL6enkuI-nPN3_yT9Qal6AFskQo3Oof48nxNJMOgtZAuePKHi-apKVWJA3DS6XT97_xJx5mXxkarU42VYmpXrtTK8UPCKZDcefKXtjAaY4GN4FpzOdvFvC5HVBrBXBg19D_imIFJDr6OB6j39EbE5SPsqPQiqwfpcz5- -nUrgJGSDv8ubUE732uKw714qahrWxDzN3uVRTQO97iXbH_phvV3iOkqNPJTxvcXFs0CKmvzL_3dRpSaEJ21Gz8lm40]--></g></svg>