<svg xmlns="http://www.w3.org/2000/svg" xmlns:xlink="http://www.w3.org/1999/xlink" contentStyleType="text/css" height="532px" preserveAspectRatio="none" style="width:353px;height:532px;background:#FFFFFF;" version="1.1" viewBox="0 0 353 532" width="353px" zoomAndPan="magnify"><defs/><g><text fill="#000000" font-family="sans-serif" font-size="14" font-weight="bold" lengthAdjust="spacing" textLength="200" x="69.5" y="22.9951">Ver Historial de Reservas</text><ellipse cx="70" cy="53.2969" fill="#222222" rx="10" ry="10" style="stroke:#222222;stroke-width:1.0;"/><g id="CargarHistorial"><rect fill="#F1F1F1" height="50" rx="12.5" ry="12.5" style="stroke:#181818;stroke-width:0.5;" width="119" x="10.5" y="218.2969"/><line style="stroke:#181818;stroke-width:0.5;" x1="10.5" x2="129.5" y1="244.5938" y2="244.5938"/><text fill="#000000" font-family="sans-serif" font-size="14" lengthAdjust="spacing" textLength="99" x="20.5" y="236.292">CargarHistorial</text></g><g id="MostrarHistorial"><rect fill="#F1F1F1" height="50" rx="12.5" ry="12.5" style="stroke:#181818;stroke-width:0.5;" width="126" x="7" y="393.2969"/><line style="stroke:#181818;stroke-width:0.5;" x1="7" x2="133" y1="419.5938" y2="419.5938"/><text fill="#000000" font-family="sans-serif" font-size="14" lengthAdjust="spacing" textLength="106" x="17" y="411.292">MostrarHistorial</text></g><ellipse cx="70" cy="515.2969" fill="none" rx="11" ry="11" style="stroke:#222222;stroke-width:1.0;"/><ellipse cx="70" cy="515.2969" fill="#222222" rx="6" ry="6" style="stroke:#222222;stroke-width:1.0;"/><!--link *start* to CargarHistorial--><g id="link_*start*_CargarHistorial"><path d="M70,63.6169 C70,91.6969 70,170.1169 70,212.0769 " fill="none" id="*start*-to-CargarHistorial" style="stroke:#181818;stroke-width:1.0;"/><polygon fill="#181818" points="70,218.0769,74,209.0769,70,213.0769,66,209.0769,70,218.0769" style="stroke:#181818;stroke-width:1.0;"/><path d="M75,98.2969 L75,183.2969 L346,183.2969 L346,108.2969 L336,98.2969 L75,98.2969 " fill="#FEFFDD" style="stroke:#181818;stroke-width:0.5;"/><path d="M336,98.2969 L336,108.2969 L346,108.2969 L336,98.2969 " fill="#FEFFDD" style="stroke:#181818;stroke-width:0.5;"/><text fill="#000000" font-family="sans-serif" font-size="13" lengthAdjust="spacing" textLength="11" x="81" y="115.3638">El</text><text fill="#000000" font-family="sans-serif" font-size="13" font-weight="bold" lengthAdjust="spacing" textLength="58" x="96" y="115.3638">sistema</text><text fill="#000000" font-family="sans-serif" font-size="13" lengthAdjust="spacing" textLength="119" x="158" y="115.3638">recupera todas las</text><text fill="#000000" font-family="sans-serif" font-size="13" lengthAdjust="spacing" textLength="188" x="81" y="130.4966">reservas previas asociadas al</text><text fill="#000000" font-family="sans-serif" font-size="13" font-weight="bold" lengthAdjust="spacing" textLength="54" x="273" y="130.4966">usuario</text><text fill="#000000" font-family="sans-serif" font-size="13" lengthAdjust="spacing" textLength="4" x="327" y="130.4966">.</text><text fill="#000000" font-family="sans-serif" font-size="13" lengthAdjust="spacing" textLength="4" x="81" y="145.6294">&#160;</text><text fill="#000000" font-family="sans-serif" font-size="13" lengthAdjust="spacing" textLength="25" x="81" y="160.7622">si el</text><text fill="#000000" font-family="sans-serif" font-size="13" font-weight="bold" lengthAdjust="spacing" textLength="54" x="110" y="160.7622">usuario</text><text fill="#000000" font-family="sans-serif" font-size="13" lengthAdjust="spacing" textLength="15" x="168" y="160.7622">es</text><text fill="#000000" font-family="sans-serif" font-size="13" font-weight="bold" lengthAdjust="spacing" textLength="104" x="187" y="160.7622">administrador</text><text fill="#000000" font-family="sans-serif" font-size="13" lengthAdjust="spacing" textLength="30" x="295" y="160.7622">se le</text><text fill="#000000" font-family="sans-serif" font-size="13" lengthAdjust="spacing" textLength="199" x="81" y="175.895">permite ver todas las reservas.</text></g><!--link CargarHistorial to MostrarHistorial--><g id="link_CargarHistorial_MostrarHistorial"><path d="M70,268.7169 C70,301.6869 70,354.0969 70,386.9969 " fill="none" id="CargarHistorial-to-MostrarHistorial" style="stroke:#181818;stroke-width:1.0;"/><polygon fill="#181818" points="70,392.9969,74,383.9969,70,387.9969,66,383.9969,70,392.9969" style="stroke:#181818;stroke-width:1.0;"/><path d="M75,303.2969 L75,358.2969 L319,358.2969 L319,313.2969 L309,303.2969 L75,303.2969 " fill="#FEFFDD" style="stroke:#181818;stroke-width:0.5;"/><path d="M309,303.2969 L309,313.2969 L319,313.2969 L309,303.2969 " fill="#FEFFDD" style="stroke:#181818;stroke-width:0.5;"/><text fill="#000000" font-family="sans-serif" font-size="13" lengthAdjust="spacing" textLength="11" x="81" y="320.3638">El</text><text fill="#000000" font-family="sans-serif" font-size="13" font-weight="bold" lengthAdjust="spacing" textLength="58" x="96" y="320.3638">sistema</text><text fill="#000000" font-family="sans-serif" font-size="13" lengthAdjust="spacing" textLength="84" x="158" y="320.3638">le muestra al</text><text fill="#000000" font-family="sans-serif" font-size="13" font-weight="bold" lengthAdjust="spacing" textLength="54" x="246" y="320.3638">usuario</text><text fill="#000000" font-family="sans-serif" font-size="13" lengthAdjust="spacing" textLength="4" x="300" y="320.3638">&#160;</text><text fill="#000000" font-family="sans-serif" font-size="13" lengthAdjust="spacing" textLength="206" x="81" y="335.4966">todas sus reservas pasadas con</text><text fill="#000000" font-family="sans-serif" font-size="13" lengthAdjust="spacing" textLength="174" x="81" y="350.6294">todos sus datos asociados.</text></g><!--link MostrarHistorial to *end*--><g id="link_MostrarHistorial_*end*"><path d="M70,443.7569 C70,463.3369 70,483.7869 70,498.0969 " fill="none" id="MostrarHistorial-to-*end*" style="stroke:#181818;stroke-width:1.0;"/><polygon fill="#181818" points="70,504.0969,74,495.0969,70,499.0969,66,495.0969,70,504.0969" style="stroke:#181818;stroke-width:1.0;"/></g><!--SRC=[ZP6nRiCm34HtViND0f9Fw58KoDAbGvUY0s4HWL1P34ZPtr_AHjF6KmT147NalPDwwLNmBePByQvMk28BtiJ5LdQYZ_I9q-a9psnNjhk8cdQ1DjJIlWWl5IbvNChCAS5aMcvYZAwP7JKMHN6VYPl9Mc9drwdm4F1eNtnXAvhIcGXU80z5YCUHyrnQs1XdjIYw8F09OJQN05eZoA_dZ-EPf6KCOg93ZYtRguw9_mqNXlCYe-F07Hoxjo_-9otxbd6AUPj0Tq7chlStq0V68yy66H_n3G00]--></g></svg>